<svg xmlns="http://www.w3.org/2000/svg" viewBox="0 0 1024 1024"><path fill="#050504" stroke="#050504" d="M682.5 330q18.5 2.5 28.5 13.5 14.2 12.3 18 35l-2 15q-5.3 14.2-16.5 22.5-14.9 12.1-40 14h-2q-21.8-2.2-31-17L552 483.5l6.5 15.5q21.7 4.8 50 3l18-13h5l.5 2.5-6 8 6.5.5 14-2 3.5 1.5 1 2-9 4 7.5 1.5 2.5 2.5-.5 2.5-7.5 1.5 5 3-.5 3.5-3 1-7-2 1 2 2.5 1.5 1 2-1.5 2.5q-9.6 1.1-13-4h-9l-13-6-30 6h-2l-15.5 2.5-6 14 88.5 70.5 13-10 15.5-2.5 1.5-2.5 15-1 12 4h2q11.3 3.8 17.5 12.5 8 8 9 23v2q1.6 12.1-2 19-6.9 17.1-20.5 27.5l-21 10-20 1q-18.4-3.6-28.5-15.5l-10-26 1-2-1-9q2.3-15.2 10-25L548.5 545 531 557.5q-6.9 17.1-19.5 28.5l-27 19-5 1-.5-2.5 32-24 15-21-2.5-.5-10 1-8-2q-7.8 16.7-21 28l-14 11-18.5 3.5.5 1.5 7.5.5q.8 6.8-4.5 7.5l-8.5 6.5 1.5.5 12-6 .5 2.5-10 12 1.5.5 10-11 2.5.5-5 13 3-2 5.5-8.5 2.5 1.5-2 8 1.5.5q1.4-13.1 10-19l1.5.5-2.5 4.5-1.5.5-3 11-4.5 6.5-3.5-1.5-.5-5.5-6 8-3.5-.5 2-9-6.5 5.5-3 1-2.5-1.5 6-10-1.5-.5-9 4-.5-3.5 4.5-5.5 10.5-7.5-10-3 1.5-3.5 6-3 14-1 21.5-20.5q7.2-6.3 10-17-13.9-4.1-21-15l-6-13-1-12-1.5-1.5-25 1-2-1-2 1-52-1-4.5 21.5-12.5 15.5q-12.3 10.2-35 10-19.9-2.1-29.5-14.5l-10-16-1-17q5.8-8.2 6-22l9.5-13.5 32-16h15q13.2 4.3 20.5 14.5l6 11 3.5 22.5 82.5-2.5q1.7-19.8 14.5-28.5l4-2q2.3 3.3 4.5-2.5 1.1-33.4 15-54-3.1-4.4-2-13l1-6q-3.9-4.1-3-13l3.5-1.5 3 5q-1.1-9.6 3-14l3.5 2.5 1.5 9.5 1.5-9.5 3.5-5.5 3.5 1.5-1 15h1q1.1-8.4 6.5-12.5l3.5.5 1 3-7 21 1.5.5q2.6-3.9 10-3l1.5 4.5-4.5 5.5-3.5 2.5-5.5 7.5-6.5 3.5q-7.3 15.7-5 41 16.1.4 24 9l2.5 3.5 85.5-72.5-7-18-1-12v-2q.8-14.2 10.5-19.5l3.5-2.5 9.5-13.5 11-5h12zm4.5 7-2 2 10 3h2zm-25 3-7 3-6 7 14-9zm-1 10q-4 2-2 11l-9 2-2 4 3 1 7-1 2 9 5 2 1-2-1-8 7-3 2 1 3-4-3-3-8 1-2-7zm36 0 2 2 4 14 5 3-1 6 3 1 1-2-4-15zm-7 2-2 2 1 3 4-1 2 2-2-4zm25 7q3 8 2 24l2 3-5 14-19 15-1 2 10-4q12-9 18-25 2-21-7-29Zm-79 4-4 8-1 3 1 3 4-10zm-109 15-3 5-2 15h-1l-4-16-2 4 1 13-2 1-4-7-2-1 3 12-1 7 2 10q-9 18-13 43l1 9 15-5 1-2v-2l1-2-1-2 1-5-1-2q1-16 6-27l8-5 5-6 6-5 2-3v-3l-9 4h-3l7-25-1-1-9 17h-2l2-15zm170 2-8 8-8-6-3 1v3l7 7-7 9v3l4 1 8-9 10 7 2-4-8-7 6-8v-3zm-25 1-8 13h2l6-11zm-18 7-6 3q-3 2 0 3l4-1 2-3zm-18 3 5 9h1l-2-6zm8 18-1 2q6 8 17 11h3zm30 1-8 3-4-2-2 1 8 3 7-1zm11 5q-5 5-14 6l1 2 19-4-4-1zm-329 53 16 9v-1q-6-7-16-8Zm-2 6 3 5 3-1zm-28 1-7 5-10 12 1 1 1-2 15-14zm21 3-6 4 2 2 8-4zm24 6 6 12h1zm-35 2-2 2 1 7-7 3-4-8-3 2 3 8v5l-5 12 1 2 6-13 3 5 2-1-2-7 8-4 1 6q3 6 6 1l-6-18zm292 5-21 13-3 1q-24 2-40-2l-5 2 2 16 43-7h7l9 5h7l9 5h3l-7-5 1-3 11 2h1l-12-5 2-3 13 1v-1l-14-2-2-2 15-4-1-2-21 2-2-3 2-1 5-6zm-276 16-10 12h2l9-11zm-49 4-2 3q-2 12 2 19l2 1-2-5 1-12zm54 1-2 1-4 6 1 4 8 6v3l-8-2-2 4 8 4 3-1 4-5-2-7-7-4 2-5 6 1v-1q-1-5-7-4Zm-49 10q-1 13 7 21l7 5h1l-4-9-1-1q-8-5-9-15zm20 1-2 8h2l2-7zm54 1-19 24-4 3-1 2 10-4q10-8 14-22zm139 13-1 2-5 3h6zm-188 1-5 1-1 2 6 3 2-1zm164 8q0 4 7 4v-1zm-156 5-3 2-12 1 13 3 5-1-1-2v-2zm336 51 3 4 3-1 11 1h1l-1-2zm26 4 6 9q2 11 8 19v10l3 1 1-4q0-17-8-26zm-34 1-6 3-4 5 12-6zm20 4-1 2 5 2q8 6 12 17l1-5-2-7q-4-9-15-9Zm-16 6-6 4q-9 6-12 17v1l8-5q8-6 11-16zm11 10-2 1-8 12 1 1 1-2 7-5 2-6zm27 7-4 10h2v2h2l1-5zm-78 1-2 7-1 3 5 15q-2-10 2-15zm58 1-2 1-8 13-10 11 7-4 13-17zm-23 2-3 2-6 11h4l5-10zm10 5-8 9h2l7-8zm19 0-12 17h2l11-16zm-42 2-4 1-1 3 5 1 2-4zm-8 8v6l3 1 2-3zm68 1-11 15-10 9-2 3 11-7 12-17zm-73 8v5q4 6 13 8h5l-11-9-2 1 2 3h-1zm18 4-3 2 7 3zm22 9-10 6-5-1-10 1-3-1-4 1 19 6 14-2-2-4 2-5z"/><path fill="#050504" stroke="#050504" d="m624.5 505 1.5.5-2.5 5.5-4 1 4.5-5.5z"/><path fill="#fefefe" stroke="#fefefe" d="M.5 0 1024 .5l-.5 1023.5L0 1023.5zM678 330l-7 4-2-1-18 4q-9 5-12 16l-5 3q-12 7-9 29v2l8 20-85 72-1-1q-5-9-16-10h-2l-8-2q-2-25 6-40l5-3 14-15 1-4-4-3-7 3h-2l6-16q2-7-2-9l-3 1-5 9h-1l1-2-1-10-2-2-2 1-4 11-2-6-4-2-2 12-1-1-4-3-3 4 3 11-1 9 2 9-13 36-2 20-9 5q-12 9-14 28h-64l-3 1-2-1-11 1-5-23-7-11q-8-11-23-14h-9l-12 7-18 6-14 17-7 25q-1 19 9 28 11 16 36 18 20-1 33-11 15-11 16-37l9 1 3-1 4 1h2l2-1 61 1 2 15 8 14q7 8 19 13l-13 19-14 12-4 5-5-1-14 4-3 6 9 2-10 7-5 6 3 4 5-2 2-1-4 6 2 4 6-2 3-2-2 5 3 3 3-1 4-5 3 5 3-1 10-24 32-22q12-11 18-28l17-11 4 3v2l82 66-5 6-5 14 1 2-2 4v2q2 21 12 35 11 11 30 14l16-1q14-4 25-12 15-13 21-35l-1-18-10-19q-11-14-33-16l-13 2-2 3q-16-1-23 7l-2 3-3 2q-42-37-88-70l6-13 7-3q21-1 39-6 7-1 9 4l13 1 10 5h4l2-4-2-4 2 1q6 1 7-2l-3-4 5-2 1-3q-2-5-9-4l7-3-2-5-21 2-1-1 2-1 3-4-1-6q-15 4-23 14l-48-3-8-15 86-71v2q8 12 26 15 31 1 48-14 13-10 17-28l-1-18-11-20-3-3-3-4q-11-13-33-13Zm-134 16-4 7 1 9q5-5 5-15zm-58 23-2 2 5 10 3 1 1 1-2-9zm84 18-7 3-4 5 5 1 6-2q4-1 3-6zm91 85-6 4-7 8 7-4 3-2-2 5 1 5q4 4 13 4l-3 4 3 7-6 5 2 2 10-4 2-4-4-3-2-2 8-7v-4l-10 1q-8 1-10-2l3-12zm-19 64-1 3q4 6 14 7v-2q-4-7-13-8Zm-226 70-5 1-2 4 5 2 15-3v-2q-3-4-11-2zm18 33-4 2-7 10h4l6-8q4-2 1-4Zm41 6-3 4q-2 10 4 13h2l-1-5 1-11z"/><path fill="#fefefe" stroke="#fefefe" d="m659.5 341-1 2-6 4 3-4zm40 11 5.5 4.5q5.5 6.5 5 19l-3-2 1-6-5-3zm17 11q7 7 5.5 22.5-5.5 18-19.5 27.5l-8 4 3-4 15.5-11.5q6.1-5.9 6-18l-2-5 1-6zm-82 1 1.5.5-3.5 9.5-.5-3.5zm14 0 1 2 3-1 5.5 1.5-8.5.5zm12 4 1.5 5.5-.5 1.5 1.5.5-.5 1.5-1.5-.5zm36 13-6 7zm-18 1 4.5 1.5-.5 1.5-2.5.5 4.5 5.5-6.5-6.5zm-162 1 1.5 12.5 2.5 3.5 2.5-1.5q-1.1-8.6 2.5-12.5l1.5 3.5-2 9 1.5 2.5 3.5-2.5 2.5-7.5 3.5.5-6 16 1.5 2.5 6-3 .5 2.5-3 5-3.5 5.5-9.5 5.5-6 23 1 2-1.5 17.5-16 5-.5-4.5q3.5-25 13-44v-6l-3-24h1l4.5 7.5 1.5-1.5zm4.5 23-4 2-4 5 5 5q7 1 9-3l-1-8zm132.5-17-2 3-3 2q-3-1.5 0-3zm-17 2 4.5 6.5-2.5.5zm49 1 .5 1.5-3 6 2 1 .5-1.5 1.5.5-4 3-1.5 2.5-2.5-.5v-2zm-41 18 16.5 10.5-2.5.5q-10.1-3.3-14-11Zm40 6 1.5 3.5-11.5 2.5v-1zm-325 53 11.5 6.5-1.5-.5q-7.6-1.3-10-6Zm-36 8-2 3-9 8 9-10zm24 1 2.5 1.5-6.5 4.5-1.5-2.5zm24 8 4.5 7.5-2-1zm257 5 .5 1.5-7 8 7.5 2.5 16-2v1l-13.5 2.5 1.5 4.5 12.5.5-11.5.5-2.5 2.5 7 3-8 1 2.5 4.5 2.5 1.5-1.5.5-6-4-11-1-8-5h-4l-16 4-29 3 .5-1.5-1-14 8.5-.5 14 2 3-1 2 1 3-1 3 1 2-1h12zm-3.5 13-3 5-2 1-1 2h4l3-7zm-294.5-7 1.5 2.5h-2l-1.5 2.5-2.5.5 1 4h-1l-.5-1.5-6 13-.5-2.5 6.5-14.5 1.5-.5.5-1.5zm-28 15 .5 15.5h-1l-1-12zm6 11q1 9.5 7 14l3.5 2.5 3 7-1.5.5q-11.3-7.6-12-24Zm72 4 .5 1.5q-4.3 13.2-14.5 20.5l-7 3 5.5-6.5zm-39 24 1.5 4.5-8.5.5-5.5-1.5zm163 7 20.5 1.5-9.5 12.5-4-2-6.5 4.5-2 8 1 2-26 19 2 4q-7.2 4.8-8.5 15.5l-.5-3.5q2.7-1.7-1.5-3.5l-3.5 2.5-4.5 7.5.5-1.5 4-10-2.5-1.5-11.5 10.5 10-12-3.5-2.5-9 6 2-3 8.5-6.5 1-3-7-3 19.5-4.5 23.5-22.5zm173 44 10.5 2.5-7.5 1.5-3.5-2.5zm27 5q16.1 9.9 15.5 36.5l-2.5.5-.5-3.5 1-3-7-20zm-37 1 2.5.5-9.5 5.5 3-4zm22 4q9.2-.2 12.5 5.5 4.3 3.2 3 12l-2-1-9.5-13.5zm-18 6 1.5.5q-3.3 11.2-12.5 16.5l-5 3 .5-1.5q3.8-10.7 12.5-16.5zm11 10 1.5.5-2.5 5.5-6 5-.5-1.5 5.5-8.5zm28 7 .5 7.5-1.5 2.5-1.5-3.5zm-78 2q4.4 1.6 3.5 8.5l-2.5 11.5q-3.6-5.9-2.5-16.5zm57 0 1.5.5-14.5 19.5-4 3 7.5-8.5zm-22 1-.5 1.5-4.5 10.5-2 1-.5-2.5zm30 5-.5 1.5-10.5 14.5 1.5-2.5 7.5-12.5zm-51 10 4.5 3.5-1.5 3.5zm67 3 .5 1.5q-5.2 12.3-15.5 19.5l-5 3 2-3 5.5-4.5zm-71 8 3 5 4 2 .5-1.5-.5-1.5 9.5 6.5-1.5.5-13.5-6.5zm38 12 .5 2.5v2l2 3q-6.6 3.9-18.5 2.5l-12.5-4.5 13.5-1.5 5 2z"/><path fill="#a69e83" stroke="#a69e83" d="m689.5 338 8.5 4.5-1.5-.5-7.5-2.5zm-35 5-1 4-1.5-.5-2.5 3.5-1.5-.5 3-2zm-111 3 2.5.5q.2 10.7-5.5 15.5l-.5-9.5zm152 3 5.5 3.5-2 1 .5-1.5zm-35 1 1.5.5-2 1 .5 1.5 1.5-.5.5 1.5 1-2 .5 2.5-1 5h1l.5-2.5 1 3 3 1h2l3.5-.5-3-1 2.5-.5 3.5 2.5-.5 1.5-1.5.5-1.5 2.5-1.5-.5 2-1-4.5-1.5-.5 1.5 2 1-7 2-1 6 2 1 .5-6.5.5 7.5-1.5 2.5-2.5-.5 1-2-1.5-.5-1.5.5 1-3-.5-4.5-1 5-2-7-5-1-4 2 .5-1.5.5-2.5 9.5-2.5 1-5-1-4zm-27 6-5 6zm62 3 1.5 2.5-5.5 2.5v-1l4.5-2.5zm-210 10 5.5 4.5 2 9-1.5-.5-2.5-1.5-5-10zm41 9 1.5 5.5-1.5 2.5-2.5-.5zm3 0 1.5 9.5-2-1zm167 2 3.5 1.5-1 2-.5 2.5-1.5.5q3 2-2 4l-1 2 1.5 2.5 1-1 5.5 5.5-2.5 4.5-10-7-4.5 2.5.5 1.5 1.5-.5q-4.5 8.4-9 4l.5-3.5 2 3 2.5-7.5q-2.7-1.8 1.5-3.5l1.5.5-.5-1.5-7.5-6.5 5-1 .5-1.5 5 5zm-160 2 1.5.5-1.5 7.5-4.5.5-.5 1.5-.5-1.5zm-21 3 .5 11.5h-1zm-8 2 4.5 2.5 1 3h-1l-2.5-4.5-3 1zm62 0 3.5.5q.8 5.8-3.5 6.5l-6 2-4.5-1.5 3.5-4.5zm143 14 1.5 1.5-10.5 10.5zm-172 3 3.5 1.5-3.5 4.5-5 4 2.5-5.5-.5-2.5-1.5.5zm-20 2 5.5.5 1 8q-1.9 4.6-9.5 3.5l-4.5-5.5 3.5-4.5zm198 2-7 8zm-75 1 3.5 1.5-2 1 4.5 5.5zm-5 5 8 9zm56 1 1 2-3 1-6 2-.5-1.5zm-128 47-5 6zm-72 6 .5 7.5-4 3q4.8-2.2 3.5-10.5Zm-121 2 5 6zm287 2 2.5.5-3 12q2.3 3.8 9.5 2.5l10-1 .5 3.5-8 7 1.5 2.5 4.5 2.5-2.5 4.5-10 4-1.5-2.5 6-5-3-7 3-4q-8.9.4-13-4l-1-5 2-5-3.5 2.5-7 4 7-8zm-307 2 1 2 2-1v1l-1.5.5 1.5 2.5zm-35 6 2.5.5-10.5 9.5 1-2 1.5-.5-1-1zm17 6 2.5 1.5-1 2 2 1-1 3h2l4 12q-3 5.5-6-1l2-3-1.5-.5-1.5.5-.5-2.5-7.5 3.5 2 7-2.5 1.5-1-3-1.5-.5 1-2q-2 3.2-4 0l1-6-.5-2.5-1.5-.5-1-5 2.5-1.5 4 8 2-1-1 2-1.5.5-.5 1.5-1.5.5.5 3.5 1-3 2.5-.5-.5-1.5 1.5.5 1.5-4.5 2-1 1.5.5.5-3.5 2.5-.5-2-1-.5-1.5-1 2-.5-3.5zm244 15 23.5.5-23.5.5zm-228 6 1.5.5-6.5 5.5zm209 1 .5 10.5h-1zm-154 1 39.5.5-39.5.5zm-50 3 5.5 1.5-1 2 .5 1.5-4-2-1.5 9.5h1l.5-3.5 5.5 3.5-.5 1.5 1.5.5-1 3h1l.5-1.5.5 3.5h-2l1 2h-2l-.5 1.5-1.5.5.5 1.5-5-1-2 1-1.5-2.5.5-1.5-2 1-.5-2.5 2.5-1.5q1.3 3.3 7 2l.5-3.5-8-6 1-5-1-2zm54 3 30.5.5-30.5.5zm36 0h24l1.5 1.5-.5 2.5-1-3h-24zm-73 20-7 8zm268 1q9.5 1 13.5 7.5l-.5 2.5q-9.4-1.1-13.5-7.5zm-121 1 .5 4.5-4.5.5-1.5-.5 3.5-1.5 1 2zm-146 4-7 8zm107 3 9.5 8.5-4.5-3.5zm67 1 3 4-3-3-4.5 3.5zm-170 1-5 6zm133 24 4 2 2.5-1.5-8.5 10.5-5 3-1.5-5.5 4.5-6.5zm-15 2-5 6zm-81 34h2q8.2-1.7 11.5 1.5l-.5 2.5-15 3-4.5-2.5 1.5-3.5zm64 0 2.5.5-.5 1.5-6 5zm223 0 1.5.5.5 1.5 1-1 7.5 7.5-5.5-4.5-1 1zm-40 4-1 4-1.5-.5-.5 1.5-2 1zm-213 3 2.5.5-3 1-.5 1.5-2 1zm11 3-8 9-1.5-.5 2-1 .5-2.5 1 1zm206 5-6 7zm-208 1 .5 1.5-2 1 1 2h-1l-.5-1.5-2.5 1.5zm211 4-7 8zm-236 13q3.3 1.8-.5 3.5l-6.5 8.5-3.5-.5 6.5-9.5zm256 2-3 4-2.5-.5 1.5-2.5 1 2zm-12 2 1.5.5-5 4q3.3 2.3-2.5 4.5l-1.5-.5 3-2-1-1zm-203 2 3.5.5-1 11 1 5-2.5.5q-5.1-3.4-3.5-13.5zm205 6 2.5.5-7 5q2.7 1.8-1.5 3.5l-1.5-.5-.5 1.5-1.5-.5zm11 4-4 5-1.5-.5 2-1 .5-2.5zm-43 11 3.5 2.5-1.5 2.5-2 1-1-2 2.5-.5zm60 2-5 6zm-53 2q6 2.5 2 5l-2.5-.5 3-1zm46 2-4 7q-2.2-3.5 4-7Zm14 0-8 9zm-49 21 12.5.5-12.5.5z"/></svg>