<svg viewBox="0 0 1024 1024" version="1.1" xmlns="http://www.w3.org/2000/svg" desc="Created with imagetracer.js version 1.2.6" ><path fill="currentColor" stroke="rgb(0,0,0)" stroke-width="1" opacity="1" d="M 347.5 170 L 358.5 173 L 531.5 252 L 539.5 253 L 677.5 217 L 872 340 L 872 362.5 L 870 363.5 L 870 511.5 L 872 513.5 L 872 527 L 870 527.5 L 870 654 L 877 654.5 L 877 686 L 889.5 686 L 945 691 L 945 706.5 L 943.5 708 L 641.5 861 L 629.5 867 L 625.5 867 L 92.5 745 L 83 741.5 L 83 725.5 L 84 723 L 212 703 L 212 679.5 L 170 522.5 L 167.5 520 Q 162.9 521.4 165 515.5 L 162 492.5 L 110 298 L 122 293.5 L 122 285 L 117.5 285 L 114 284 L 114 262.5 L 115.5 261 L 347.5 170 Z M 349 171 L 117 262 L 115 263 L 115 282 L 349 197 L 349 171 Z M 351 171 L 350 197 L 505 262 L 530 255 Q 534 256 533 253 L 351 171 Z M 349 198 L 121 282 Q 117 281 118 284 L 123 284 L 349 202 L 499 263 Q 503 264 502 261 L 349 198 Z M 347 204 L 125 284 L 123 285 L 123 293 L 152 299 Q 155 298 154 301 L 349 239 L 349 205 L 347 204 Z M 351 204 L 351 239 L 497 293 L 498 293 L 498 265 L 351 204 Z M 674 219 L 503 264 L 499 265 L 499 292 L 677 251 L 677 220 L 674 219 Z M 678 219 L 678 251 L 870 361 L 871 361 L 871 342 L 678 219 Z M 349 240 L 157 303 L 241 323 L 389 284 L 398 285 L 453 304 L 459 304 L 497 295 L 349 240 Z M 674 252 L 503 293 Q 498 292 499 295 L 457 305 L 455 307 L 455 332 L 677 287 L 677 253 L 674 252 Z M 678 252 L 678 287 L 795 346 L 796 346 L 796 319 L 678 252 Z M 390 285 L 245 324 L 243 325 L 243 437 L 250 436 L 255 436 L 255 337 L 371 307 L 375 308 L 375 427 L 391 429 L 391 286 L 390 285 Z M 392 285 L 392 429 L 405 431 L 407 431 L 406 429 L 407 291 L 392 285 Z M 676 288 L 502 325 L 509 327 L 517 327 L 553 320 L 658 298 Q 662 299 660 295 L 672 291 L 677 291 L 695 299 L 793 348 L 792 350 L 792 503 L 795 503 L 795 520 L 794 521 L 792 522 L 792 676 L 795 677 L 805 674 L 807 674 L 807 328 L 800 323 L 797 324 L 797 348 L 676 288 Z M 409 290 L 408 432 L 465 441 L 466 441 L 466 338 L 456 334 L 454 334 L 454 305 L 409 290 Z M 672 292 L 666 294 L 661 295 L 661 490 L 660 491 L 623 493 L 610 493 L 610 516 L 604 517 L 604 703 L 674 711 L 674 293 L 672 292 Z M 676 292 L 675 711 L 684 709 L 685 708 L 685 296 L 676 292 Z M 123 295 L 111 300 L 162 492 L 165 496 L 176 495 L 175 486 L 125 298 Q 126 294 123 295 Z M 126 295 L 175 485 L 176 485 L 176 452 Q 171 453 173 446 L 241 438 L 242 437 L 242 324 L 155 303 L 153 300 L 126 295 Z M 686 297 L 686 490 L 692 491 L 698 491 L 698 304 L 686 297 Z M 655 300 L 518 328 L 514 329 L 514 493 L 516 493 L 516 456 L 518 454 L 558 451 L 558 490 L 560 491 L 560 451 L 600 447 L 607 448 L 607 490 L 594 491 L 599 492 L 659 490 L 660 489 L 660 301 L 655 300 Z M 700 303 L 699 305 L 748 329 L 750 329 L 700 303 Z M 700 306 L 699 308 L 767 341 L 769 341 L 700 306 Z M 372 308 L 260 336 L 260 337 L 271 336 L 374 311 Q 376 307 372 308 Z M 373 312 L 265 338 L 264 340 L 289 334 L 290 338 L 290 372 L 267 377 L 264 377 L 264 348 L 263 348 L 264 387 L 264 379 L 290 374 L 291 431 L 291 374 L 315 369 L 318 370 L 318 427 L 320 427 L 320 368 L 349 363 L 350 423 L 350 362 L 374 358 L 374 355 L 353 360 L 350 360 L 350 321 L 374 314 L 373 312 Z M 700 312 L 699 351 L 717 358 L 718 358 L 718 322 L 700 312 Z M 710 315 L 718 320 L 720 320 L 710 315 Z M 372 317 L 356 321 L 354 323 L 354 358 L 374 354 L 374 318 L 372 317 Z M 721 320 L 719 322 L 719 359 L 721 359 L 721 320 Z M 723 321 L 722 361 L 700 352 L 699 354 L 722 363 L 722 405 L 702 398 Q 698 397 699 400 L 722 407 L 723 447 L 723 408 L 744 413 L 744 416 L 744 452 L 746 452 L 747 414 L 768 421 L 769 419 L 725 406 L 723 405 L 723 364 L 745 373 L 744 411 L 746 411 L 746 373 L 767 381 Q 770 382 769 379 L 723 362 L 723 321 Z M 725 321 L 724 323 L 743 332 L 743 330 L 725 321 Z M 351 322 L 351 359 L 353 358 L 353 323 L 351 322 Z M 724 324 L 724 361 L 742 368 L 743 368 L 743 334 L 724 324 Z M 500 325 L 493 327 L 491 327 L 458 334 L 467 338 L 489 334 L 491 332 L 491 334 L 471 339 L 467 340 L 467 441 L 491 444 L 492 446 Q 493 451 489 450 L 489 493 L 500 494 L 500 325 Z M 501 326 L 501 493 L 503 494 L 506 493 L 513 493 L 513 330 L 501 326 Z M 808 328 L 808 673 L 827 668 L 828 665 L 827 660 L 828 630 L 827 603 L 827 599 L 828 596 L 827 592 L 828 562 L 827 543 L 828 527 L 827 525 L 827 523 L 828 506 L 827 504 L 828 486 L 827 481 L 828 476 L 827 466 L 828 441 L 827 436 L 828 412 L 827 400 L 828 346 L 828 344 L 827 338 L 808 328 Z M 751 329 L 752 331 L 769 339 L 771 339 L 751 329 Z M 744 331 L 744 369 L 746 369 L 746 332 L 744 331 Z M 748 336 L 748 370 L 763 376 L 765 376 L 765 343 L 748 336 Z M 257 337 L 256 340 L 257 343 L 256 435 L 262 435 L 262 338 L 257 337 Z M 288 337 L 270 342 L 268 343 L 268 375 L 289 371 L 289 339 L 288 337 Z M 756 337 L 764 342 L 766 342 L 756 337 Z M 772 339 L 770 342 L 770 500 L 773 500 L 773 342 L 772 339 Z M 830 339 L 829 342 L 836 345 L 838 345 L 830 339 Z M 775 340 L 774 501 L 783 502 L 791 502 L 791 348 L 775 340 Z M 265 342 L 265 376 L 267 376 L 267 343 L 265 342 Z M 767 343 L 766 377 L 768 377 L 768 345 L 767 343 Z M 830 343 L 829 368 L 831 368 L 833 371 L 833 508 L 837 508 L 837 348 L 830 343 Z M 838 347 L 838 508 L 866 512 L 869 512 L 869 363 L 838 347 Z M 699 358 L 699 397 L 716 402 L 718 402 L 718 366 L 699 358 Z M 372 360 L 356 364 L 354 365 L 354 424 L 373 426 L 374 427 L 374 361 L 372 360 Z M 351 364 L 351 423 L 353 423 L 353 365 L 351 364 Z M 347 365 L 323 370 L 324 375 L 324 426 L 348 423 L 348 366 L 347 365 Z M 719 365 L 719 403 L 721 403 L 721 366 L 719 365 Z M 725 367 L 724 404 L 742 410 L 743 409 L 743 374 L 725 367 Z M 322 370 L 321 427 L 322 427 L 322 370 Z M 316 371 L 300 375 L 295 376 L 295 430 L 317 428 L 317 372 L 316 371 Z M 829 373 L 829 403 L 831 402 L 831 374 L 829 373 Z M 293 375 L 292 431 L 294 430 L 294 377 L 293 375 Z M 285 377 L 273 380 L 268 381 L 268 434 L 289 431 L 289 378 L 285 377 Z M 748 377 L 748 411 L 762 416 L 765 416 L 765 383 L 748 377 Z M 265 380 L 265 434 L 267 434 L 267 381 L 265 380 Z M 767 383 L 766 417 L 768 417 L 768 385 L 767 383 Z M 699 403 L 699 442 L 716 446 L 718 446 L 718 408 L 699 403 Z M 829 407 L 829 436 L 831 436 L 831 408 L 829 407 Z M 719 408 L 719 447 L 721 447 L 721 409 L 719 408 Z M 724 411 L 724 448 L 739 451 L 743 451 L 743 417 L 724 411 Z M 748 418 L 748 452 L 762 456 L 765 456 L 765 422 L 748 418 Z M 766 422 L 766 457 L 768 457 L 768 423 L 766 422 Z M 349 424 L 176 447 L 174 449 L 175 450 L 346 428 L 350 426 L 355 428 L 490 448 L 491 447 L 490 445 L 353 425 L 351 425 L 349 424 Z M 345 429 L 323 434 L 325 437 L 347 434 Q 349 428 345 429 Z M 349 429 L 348 482 L 350 482 L 350 437 L 349 429 Z M 351 429 L 351 482 L 353 481 L 352 479 L 353 473 L 352 470 L 353 467 L 352 465 L 353 462 L 352 447 L 352 445 L 353 441 L 353 430 L 351 429 Z M 356 429 L 354 434 L 370 437 Q 377 439 374 432 L 356 429 Z M 315 433 L 306 435 Q 300 433 302 439 L 317 438 Q 319 432 315 433 Z M 375 433 L 375 437 L 384 439 L 391 439 L 391 436 L 390 434 L 375 433 Z M 297 436 L 297 486 L 299 485 L 299 437 L 297 436 Z M 338 436 L 329 438 Q 321 436 324 443 L 347 441 L 347 436 L 338 436 Z M 354 436 L 354 441 L 373 444 Q 375 444 374 438 L 354 436 Z M 399 436 L 399 441 L 401 440 L 401 486 L 403 486 L 403 437 L 402 437 L 399 436 Z M 283 437 L 274 439 Q 265 437 268 444 L 289 441 Q 291 434 283 437 Z M 409 437 L 408 442 L 441 447 Q 445 448 443 444 L 437 441 L 409 437 Z M 314 439 L 302 441 L 304 446 L 317 444 Q 320 437 314 439 Z M 375 439 L 375 444 L 388 446 Q 394 448 391 441 L 375 439 Z M 254 441 L 253 489 L 254 489 L 254 441 Z M 255 441 L 255 463 Q 259 464 257 459 L 257 457 L 256 452 L 257 447 L 257 445 Q 258 440 255 441 Z M 829 441 L 829 470 L 831 470 L 831 442 L 829 441 Z M 344 442 L 334 444 L 324 444 L 324 450 L 346 448 L 347 447 Q 349 440 344 442 Z M 356 442 L 354 447 L 369 450 Q 377 453 374 445 L 356 442 Z M 236 443 L 221 445 L 218 447 L 215 446 Q 213 451 217 450 L 219 450 L 242 447 Q 244 440 236 443 Z M 281 443 L 272 445 Q 265 443 268 450 L 288 448 L 289 447 L 289 443 L 281 443 Z M 408 443 L 408 448 L 441 453 Q 445 454 443 448 L 408 443 Z M 447 443 L 446 490 L 447 490 L 447 443 Z M 450 443 L 449 448 L 463 450 Q 468 452 466 446 L 450 443 Z M 700 443 L 699 446 L 721 450 L 722 452 L 723 491 L 723 451 L 766 460 L 769 460 L 761 456 L 700 443 Z M 375 445 L 375 450 L 386 452 Q 394 455 391 447 L 375 445 Z M 214 446 L 213 492 L 214 492 L 214 446 Z M 309 446 L 308 447 Q 299 445 302 452 L 317 451 L 317 446 L 309 446 Z M 467 446 L 467 450 L 477 452 L 484 452 L 483 448 L 467 446 Z M 205 447 L 188 450 Q 180 448 182 454 L 212 451 Q 214 444 205 447 Z M 241 448 L 218 451 L 219 456 L 242 453 Q 244 447 241 448 Z M 605 448 L 570 452 L 563 453 L 563 490 L 606 489 L 606 450 L 605 448 Z M 699 448 L 699 489 L 714 491 L 718 491 L 718 453 L 699 448 Z M 283 449 L 274 451 Q 265 449 268 456 L 289 454 Q 292 446 283 449 Z M 340 449 L 325 451 L 323 454 L 324 456 L 347 454 Q 350 446 340 449 Z M 354 449 L 354 454 L 374 457 L 374 451 L 354 449 Z M 450 449 L 448 453 L 464 456 Q 469 457 466 451 L 450 449 Z M 488 449 L 487 464 L 487 466 L 486 470 L 487 494 L 488 494 L 488 449 Z M 408 450 L 408 455 L 442 459 L 443 454 L 408 450 Z M 178 451 L 177 494 L 179 494 L 178 487 L 181 488 L 181 484 L 179 485 L 178 451 Z M 207 452 L 184 455 L 182 460 L 212 456 Q 214 450 207 452 Z M 312 452 L 302 455 L 303 458 L 317 457 Q 320 450 312 452 Z M 375 452 L 375 456 L 391 459 L 391 453 L 375 452 Z M 467 452 L 467 456 L 479 458 Q 485 460 483 455 L 482 453 L 467 452 Z M 562 452 L 561 490 L 562 490 L 562 452 Z M 719 452 L 719 491 L 721 492 L 721 453 L 719 452 Z M 548 453 L 519 456 L 519 492 L 521 493 L 557 491 L 557 454 L 548 453 Z M 724 453 L 724 492 L 738 494 L 743 494 L 743 457 L 724 453 Z M 240 454 L 221 457 Q 216 456 218 461 L 242 459 Q 244 453 240 454 Z M 285 455 L 275 457 Q 265 454 268 462 L 289 460 Q 292 453 285 455 Z M 345 455 L 326 457 L 324 463 L 346 461 L 347 457 L 345 455 Z M 449 455 L 448 459 L 465 462 Q 468 463 466 457 L 449 455 Z M 354 456 L 354 461 L 369 463 Q 377 466 374 458 L 354 456 Z M 408 456 L 408 461 L 442 465 L 443 460 L 408 456 Z M 518 456 L 517 493 L 518 493 L 518 456 Z M 469 457 L 467 462 L 482 464 Q 485 465 483 459 L 469 457 Z M 744 457 L 744 494 L 746 494 L 746 458 L 744 457 Z M 205 458 L 187 461 Q 180 459 182 465 L 212 462 Q 214 455 205 458 Z M 316 458 L 306 460 Q 300 459 303 465 L 316 464 L 317 463 Q 319 457 316 458 Z M 375 458 L 375 463 L 388 465 Q 394 467 391 460 L 375 458 Z M 750 458 L 748 460 L 748 494 L 762 497 L 765 497 L 765 461 L 750 458 Z M 239 460 L 220 463 Q 216 462 218 467 L 242 465 Q 245 458 239 460 Z M 287 461 L 276 463 Q 265 460 268 468 L 289 466 L 290 463 L 291 466 L 291 462 L 290 462 L 287 461 Z M 450 461 L 448 465 L 459 467 Q 468 470 466 463 L 450 461 Z M 342 462 L 325 464 L 323 466 L 324 469 L 347 467 Q 350 460 342 462 Z M 356 462 L 354 467 L 356 468 L 374 470 L 374 464 L 356 462 Z M 408 462 L 408 467 L 442 471 L 443 466 L 408 462 Z M 766 462 L 766 497 L 768 497 L 768 463 L 766 462 Z M 211 463 L 184 466 L 182 471 L 212 468 L 211 463 Z M 467 463 L 467 467 L 476 469 Q 485 472 483 465 L 467 463 Z M 255 464 L 255 489 L 257 489 L 256 471 L 257 469 Q 259 463 255 464 Z M 311 465 L 310 466 Q 300 463 303 471 L 317 470 Q 320 462 311 465 Z M 375 465 L 375 469 L 383 471 L 391 471 L 391 466 L 375 465 Z M 238 466 L 227 468 L 218 468 L 218 473 L 242 471 Q 245 464 238 466 Z M 291 467 L 278 469 L 268 469 L 268 474 L 290 472 L 291 473 L 291 467 Z M 449 467 L 449 472 L 460 473 Q 468 476 466 470 L 465 468 L 449 467 Z M 408 468 L 408 473 L 433 476 L 443 476 L 443 472 L 408 468 Z M 208 469 L 188 472 Q 180 470 182 476 L 212 474 Q 215 467 208 469 Z M 336 469 L 325 470 L 323 473 L 325 476 L 347 474 L 347 469 L 336 469 Z M 354 469 L 354 474 L 369 476 Q 377 479 374 471 L 354 469 Z M 467 469 L 467 473 L 479 475 L 484 474 L 486 475 L 486 472 L 484 473 L 484 472 L 467 469 Z M 314 471 L 313 472 L 303 472 L 303 477 L 316 477 L 317 476 Q 319 469 314 471 Z M 375 471 L 375 476 L 390 478 Q 392 478 391 472 L 375 471 Z M 237 472 L 225 474 Q 215 471 218 479 L 241 477 L 242 476 Q 244 469 237 472 Z M 449 473 L 449 477 L 462 479 Q 469 481 466 474 L 449 473 Z M 281 474 L 280 475 L 268 475 L 268 480 L 289 479 L 289 474 L 281 474 Z M 408 474 L 408 479 L 432 482 L 443 482 L 443 478 L 408 474 Z M 830 474 L 829 504 L 831 504 L 831 476 L 830 474 Z M 206 475 L 184 477 L 182 482 L 212 479 Q 214 472 206 475 Z M 343 475 L 325 477 L 323 479 L 325 484 L 342 482 Q 350 485 347 477 L 343 475 Z M 356 475 L 354 482 L 370 484 L 374 484 L 374 477 L 356 475 Z M 467 475 L 467 479 L 483 481 L 483 476 L 467 475 Z M 236 478 L 223 480 Q 216 478 218 484 L 241 483 L 242 482 Q 244 475 236 478 Z M 306 478 L 305 479 Q 302 479 303 485 L 317 484 L 317 478 L 306 478 Z M 375 478 L 375 484 L 382 485 L 391 485 L 391 479 L 375 478 Z M 449 479 L 449 483 L 464 485 Q 469 486 466 480 L 449 479 Z M 283 480 L 270 481 L 268 488 L 289 486 Q 292 477 283 480 Z M 469 480 L 467 485 L 474 486 L 483 486 L 483 482 L 469 480 Z M 202 481 L 190 483 Q 180 480 182 487 L 212 485 L 212 481 L 202 481 Z M 408 481 L 408 487 L 442 490 L 443 484 L 408 481 Z M 247 483 L 246 484 L 243 484 L 243 490 L 252 489 Q 255 480 247 483 Z M 344 483 L 164 498 L 166 519 L 349 511 L 349 484 L 344 483 Z M 350 483 L 350 512 L 396 750 L 418 742 L 419 742 L 419 730 L 431 727 L 432 727 L 432 716 L 445 713 Q 448 711 446 703 L 437 705 L 432 705 L 432 490 L 350 483 Z M 234 484 L 218 486 L 219 492 L 242 490 L 242 484 L 234 484 Z M 449 484 L 449 490 L 464 492 L 466 492 L 466 486 L 449 484 Z M 210 486 L 185 489 Q 179 488 182 494 L 212 492 L 212 486 L 210 486 Z M 467 486 L 467 492 L 477 493 Q 485 496 483 489 L 482 487 L 467 486 Z M 433 490 L 433 515 L 454 516 L 470 516 L 470 495 L 482 495 L 433 490 Z M 699 490 L 699 492 L 766 500 Q 770 501 769 498 L 699 490 Z M 564 491 L 473 496 L 471 498 L 471 516 L 576 513 L 576 491 L 564 491 Z M 577 491 L 577 513 L 602 515 L 609 515 L 609 495 L 608 493 L 577 491 Z M 686 491 L 686 511 L 793 520 L 794 519 L 794 504 L 686 491 Z M 829 508 L 829 523 L 868 526 L 871 526 L 871 515 L 864 512 L 829 508 Z M 346 512 L 336 513 L 382 748 L 395 750 L 350 514 L 346 512 Z M 686 512 L 686 705 L 697 702 L 698 701 L 698 515 Q 694 511 686 512 Z M 321 513 Q 266 518 207 518 L 199 520 L 226 521 L 335 517 L 335 513 L 321 513 Z M 558 514 L 505 517 L 505 518 L 587 516 L 589 515 L 558 514 Z M 699 514 L 699 516 L 757 521 L 769 521 L 769 519 L 699 514 Z M 433 516 L 433 704 L 488 694 L 489 693 L 489 518 L 433 516 Z M 594 516 L 515 519 L 513 521 L 514 579 L 513 582 L 514 606 L 513 653 L 513 655 L 514 657 L 513 659 L 514 668 L 513 692 L 515 693 L 533 695 L 539 695 L 539 556 L 541 554 L 598 554 L 599 556 L 599 702 L 602 703 L 603 702 L 603 518 Q 601 514 594 516 Z M 318 518 L 239 522 L 239 523 L 289 522 L 291 521 L 291 561 L 266 561 L 264 560 L 264 525 L 263 525 L 263 561 L 239 561 L 240 563 L 263 563 L 263 601 L 249 600 L 240 600 L 239 602 L 253 603 L 263 604 L 263 641 L 242 639 Q 237 638 238 641 L 263 643 L 264 680 L 264 645 L 266 643 L 291 646 L 292 684 L 292 646 L 320 648 L 321 650 L 321 689 L 246 679 L 238 680 L 240 681 L 368 698 Q 372 699 371 696 L 353 693 L 354 652 L 362 652 L 353 649 L 354 647 L 354 610 L 353 605 L 322 604 L 322 563 L 344 563 L 344 561 L 322 561 L 322 520 L 335 520 L 336 519 L 318 518 Z M 492 518 L 490 520 L 490 693 Q 492 696 499 694 L 500 695 L 500 519 L 492 518 Z M 503 518 L 501 520 L 502 642 L 501 645 L 502 649 L 501 678 L 502 685 L 501 694 L 508 693 L 512 693 L 512 519 L 503 518 Z M 699 518 L 699 559 L 718 559 L 718 519 L 699 518 Z M 719 519 L 719 559 L 721 559 L 721 520 L 719 519 Z M 770 519 L 770 680 Q 772 683 773 680 L 773 520 L 770 519 Z M 774 519 L 774 680 L 789 676 L 791 676 L 791 522 L 790 520 L 774 519 Z M 183 520 L 171 521 L 213 680 L 225 681 L 183 520 Z M 186 520 L 226 681 L 232 681 L 232 522 L 186 520 Z M 723 520 L 722 559 L 723 559 L 723 520 Z M 724 520 L 724 559 L 743 559 L 743 521 L 724 520 Z M 323 521 L 323 560 L 325 560 L 325 522 L 323 521 Z M 326 521 L 326 560 L 343 560 L 336 524 L 336 521 L 326 521 Z M 744 521 L 744 559 L 746 559 L 746 522 L 744 521 Z M 750 521 L 748 523 L 748 558 L 750 559 L 765 559 L 765 524 L 764 522 L 750 521 Z M 233 522 L 233 680 L 238 679 L 238 667 L 237 673 L 236 673 L 236 523 L 233 522 Z M 767 522 L 766 559 L 768 559 L 768 524 L 767 522 Z M 267 523 L 265 525 L 265 559 L 267 560 L 267 523 Z M 270 523 L 268 525 L 268 559 L 270 560 L 290 560 L 290 523 L 270 523 Z M 244 524 L 242 526 L 242 560 L 262 560 L 262 524 L 244 524 Z M 833 524 L 833 663 L 837 663 L 837 526 L 833 524 Z M 239 525 L 239 559 L 241 559 L 241 526 L 239 525 Z M 838 525 L 839 663 L 868 655 L 869 654 L 869 527 L 838 525 Z M 830 527 L 829 558 L 831 558 L 831 529 L 830 527 Z M 541 556 L 540 565 L 541 575 L 540 675 L 541 696 L 597 702 L 598 677 L 598 675 L 597 668 L 598 558 L 597 556 L 541 556 Z M 705 560 L 699 561 L 700 563 L 722 563 L 722 604 L 701 605 L 699 608 L 715 606 L 722 607 L 722 647 L 702 651 Q 698 650 699 653 L 722 649 L 723 689 L 723 648 L 768 641 L 769 639 L 728 646 L 723 646 L 723 605 L 744 603 L 747 604 L 765 601 Q 770 603 769 599 L 732 603 L 723 603 L 723 563 L 729 562 L 769 562 L 769 560 L 705 560 Z M 830 562 L 829 592 L 831 591 L 831 564 L 830 562 Z M 739 563 L 738 564 L 724 564 L 724 602 L 738 600 L 743 600 L 743 565 L 739 563 Z M 744 563 L 744 600 L 746 600 L 746 564 L 744 563 Z M 750 563 L 748 565 L 748 599 L 765 598 L 765 563 L 750 563 Z M 766 563 L 766 598 L 768 598 L 768 564 L 766 563 Z M 239 564 L 239 599 L 241 599 L 241 565 L 239 564 Z M 242 564 L 242 599 L 262 600 L 262 564 L 242 564 Z M 323 564 L 323 602 L 325 602 L 325 565 L 323 564 Z M 326 564 L 326 602 L 328 603 L 349 603 L 351 604 L 351 595 L 345 566 L 344 564 L 326 564 Z M 699 564 L 699 604 L 718 602 L 718 564 L 699 564 Z M 719 564 L 719 602 L 721 602 L 721 565 L 719 564 Z M 829 596 L 829 625 L 831 625 L 831 597 L 829 596 Z M 767 602 L 766 637 L 768 637 L 768 604 L 767 602 Z M 239 603 L 239 638 L 241 638 L 241 604 L 239 603 Z M 242 603 L 242 638 L 262 640 L 262 604 L 242 603 Z M 757 603 L 748 606 L 748 639 L 750 640 L 765 637 L 765 604 L 757 603 Z M 745 604 L 744 641 L 746 641 L 746 606 L 745 604 Z M 736 605 L 735 606 L 724 607 L 724 644 L 743 641 L 743 606 L 736 605 Z M 717 607 L 699 609 L 700 649 L 718 645 L 718 608 L 717 607 Z M 719 607 L 719 645 L 721 645 L 721 608 L 719 607 Z M 238 617 L 237 639 L 238 639 L 238 617 Z M 356 619 L 355 648 L 356 648 L 356 619 Z M 829 627 L 829 660 L 831 660 L 830 650 L 831 647 L 830 630 L 831 628 L 829 627 Z M 358 633 L 357 648 L 361 648 L 358 633 Z M 239 642 L 239 677 L 241 677 L 241 643 L 239 642 Z M 764 642 L 748 647 L 748 681 L 750 682 L 765 677 L 765 644 L 764 642 Z M 766 642 L 766 678 L 768 677 L 768 643 L 766 642 Z M 242 643 L 242 677 L 261 680 L 262 680 L 262 644 L 242 643 Z M 267 645 L 265 649 L 265 680 L 267 681 L 267 645 Z M 268 645 L 268 680 L 285 683 L 290 683 L 290 647 L 268 645 Z M 742 646 L 726 649 L 724 651 L 724 688 L 743 683 L 743 648 L 742 646 Z M 744 646 L 744 684 L 746 683 L 746 647 L 744 646 Z M 293 647 L 293 684 L 295 684 L 295 648 L 293 647 Z M 296 648 L 296 684 L 316 687 L 320 687 L 320 651 L 319 649 L 296 648 Z M 721 650 L 719 652 L 719 690 L 721 690 L 721 650 Z M 716 651 L 704 654 L 699 655 L 699 695 L 718 690 L 718 652 L 716 651 Z M 356 653 L 355 692 L 357 691 L 357 689 Q 359 668 356 653 Z M 359 653 L 357 655 L 358 692 L 370 693 L 362 655 L 359 653 Z M 873 656 L 620 728 L 590 780 L 590 791 L 874 687 L 876 685 L 876 657 L 873 656 Z M 789 677 L 709 698 L 686 706 L 687 708 L 792 678 L 789 677 Z M 767 679 L 699 699 L 700 700 L 769 681 Q 770 678 767 679 Z M 213 681 L 213 715 L 380 744 L 372 704 L 357 700 L 213 681 Z M 235 681 L 233 683 L 366 701 Q 372 703 371 699 L 235 681 Z M 875 687 L 592 792 L 578 790 L 520 817 L 618 838 L 622 838 L 941 693 L 938 691 L 875 687 Z M 942 693 L 621 840 L 628 865 L 944 706 L 944 694 L 942 693 Z M 490 694 L 451 703 L 607 723 L 617 723 L 658 711 L 521 694 Q 509 693 503 696 L 490 694 Z M 447 703 L 447 712 L 449 713 L 602 734 L 605 728 L 609 725 L 447 703 Z M 209 704 L 89 725 L 329 777 L 404 757 L 405 750 L 400 751 Q 390 752 385 749 Q 379 751 381 746 L 215 716 L 212 716 L 212 704 L 209 704 Z M 661 711 L 611 726 L 616 727 L 622 727 L 670 713 Q 668 709 661 711 Z M 447 713 L 436 717 L 598 740 L 601 736 L 447 713 Z M 435 717 Q 431 719 433 726 L 439 728 L 591 751 L 597 742 L 435 717 Z M 85 725 L 85 742 L 626 865 L 627 866 L 620 839 L 522 818 Q 516 816 518 822 L 333 782 Q 328 783 330 778 L 85 725 Z M 608 727 L 577 777 L 589 779 L 619 729 L 608 727 Z M 432 728 L 427 730 Q 422 729 423 732 L 587 758 L 590 752 L 432 728 Z M 420 732 L 420 742 L 580 769 L 586 760 L 420 732 Z M 418 743 L 408 747 L 576 777 L 579 770 L 418 743 Z M 406 748 L 406 756 L 413 758 L 575 788 L 575 779 L 552 773 L 406 748 Z M 406 757 L 338 780 Q 334 779 335 782 L 515 821 Q 520 822 517 816 L 575 790 L 574 788 L 406 757 Z M 362 769 L 333 778 L 331 780 L 365 770 L 362 769 Z M 578 778 L 576 786 L 576 788 L 585 791 L 589 790 L 588 780 L 578 778 Z " /><path fill="currentColor" stroke="rgb(0,0,0)" stroke-width="1" opacity="1" d="M 656.5 302 L 658 302.5 L 658 347 L 609 355 L 609 312.5 L 610.5 312 L 656.5 302 Z M 655 305 L 614 313 L 612 315 L 612 353 L 657 346 L 657 306 L 655 305 Z M 611 314 L 610 353 L 611 353 L 611 314 Z " /><path fill="currentColor" stroke="rgb(0,0,0)" stroke-width="1" opacity="1" d="M 605.5 312 L 607 312.5 L 607 354.5 L 605.5 356 L 560 363 L 560 322.5 L 561.5 321 L 605.5 312 Z M 604 315 L 567 323 L 563 324 L 563 361 L 606 354 L 606 316 L 604 315 Z M 562 323 L 561 361 L 562 361 L 562 323 Z " /><path fill="currentColor" stroke="rgb(0,0,0)" stroke-width="1" opacity="1" d="M 347.5 320 L 349 320.5 L 349 359.5 L 343.5 362 L 320 366 L 319 328.5 L 322.5 326 L 347.5 320 Z M 346 323 L 326 328 L 324 330 L 324 364 L 348 359 L 348 324 L 346 323 Z M 322 328 L 321 365 L 322 365 L 322 328 Z " /><path fill="currentColor" stroke="rgb(0,0,0)" stroke-width="1" opacity="1" d="M 555.5 322 L 558 322.5 L 558 363 L 516 370 L 516 330.5 L 518.5 330 L 555.5 322 Z M 553 325 L 521 332 L 519 333 L 519 368 L 557 362 L 557 326 L 553 325 Z M 518 332 L 517 369 L 518 369 L 518 332 Z " /><path fill="currentColor" stroke="rgb(0,0,0)" stroke-width="1" opacity="1" d="M 314.5 328 L 318 328.5 L 318 367 L 291 372 L 291 334.5 L 292.5 334 L 314.5 328 Z M 313 331 L 297 335 L 295 337 L 295 370 L 317 366 L 317 332 L 313 331 Z M 293 335 L 292 371 L 294 370 L 294 337 L 293 335 Z " /><path fill="currentColor" stroke="rgb(0,0,0)" stroke-width="1" opacity="1" d="M 656.5 349 L 659 350.5 L 658 393 L 609 399 L 609 357.5 L 612.5 357 L 656.5 349 Z M 653 352 L 614 359 L 612 360 L 612 398 L 657 392 L 657 353 L 653 352 Z M 611 359 L 610 398 L 611 398 L 611 359 Z " /><path fill="currentColor" stroke="rgb(0,0,0)" stroke-width="1" opacity="1" d="M 601.5 358 L 607 358.5 L 607 400 L 560.5 406 L 560 365 L 601.5 358 Z M 603 360 L 565 366 L 563 368 L 563 404 L 606 399 L 606 361 L 603 360 Z M 562 367 L 561 404 L 562 404 L 562 367 Z " /><path fill="currentColor" stroke="rgb(0,0,0)" stroke-width="1" opacity="1" d="M 557.5 365 L 558 406 L 516 411 L 516 372.5 L 519.5 372 L 557.5 365 Z M 552 368 L 521 374 L 519 375 L 519 409 L 557 405 L 557 369 L 552 368 Z M 518 373 L 517 410 L 518 410 L 518 373 Z " /><path fill="currentColor" stroke="rgb(0,0,0)" stroke-width="1" opacity="1" d="M 651.5 396 L 658 396.5 L 658 440 L 609 444 L 609 402.5 L 611.5 402 L 651.5 396 Z M 651 398 L 618 403 L 612 404 L 612 443 L 657 439 L 657 399 L 651 398 Z M 611 403 L 610 443 L 611 443 L 611 403 Z " /><path fill="currentColor" stroke="rgb(0,0,0)" stroke-width="1" opacity="1" d="M 604.5 402 L 607 402.5 L 607 443.5 L 605.5 445 L 560 448 L 560 408.5 L 562.5 408 L 604.5 402 Z M 603 404 L 569 409 L 563 410 L 563 447 L 606 443 L 606 405 L 603 404 Z M 562 409 L 561 447 L 562 447 L 562 409 Z " /><path fill="currentColor" stroke="rgb(0,0,0)" stroke-width="1" opacity="1" d="M 556.5 408 L 558 408.5 L 558 449 L 516 452 L 516 413.5 L 522.5 413 L 556.5 408 Z M 555 410 L 521 415 L 519 416 L 519 451 L 557 448 L 557 411 L 555 410 Z M 518 415 L 517 451 L 518 451 L 518 415 Z " /><path fill="currentColor" stroke="rgb(0,0,0)" stroke-width="1" opacity="1" d="M 655.5 442 L 658 442.5 L 658 487 L 609 490 L 609 447.5 L 610.5 446 L 655.5 442 Z M 651 444 L 616 448 L 612 449 L 612 488 L 657 486 L 657 445 L 651 444 Z M 611 448 L 610 488 L 611 488 L 611 448 Z " /><path fill="currentColor" stroke="rgb(0,0,0)" stroke-width="1" opacity="1" d="M 315.5 520 L 321 520.5 L 321 561 L 292 561 L 292 522.5 L 293.5 521 L 315.5 520 Z M 295 522 L 293 524 L 293 559 L 295 560 L 295 522 Z M 298 522 L 296 524 L 296 559 L 298 560 L 319 560 L 320 559 L 320 522 L 298 522 Z " /><path fill="currentColor" stroke="rgb(0,0,0)" stroke-width="1" opacity="1" d="M 593.5 520 L 599 521.5 L 599 550 L 549.5 550 L 540.5 551 L 539 549.5 L 539 522 L 593.5 520 Z M 570 522 L 569 523 L 543 523 L 543 549 L 597 549 L 598 548 L 598 522 L 570 522 Z M 542 523 L 540 525 L 540 549 L 542 549 L 542 523 Z " /><path fill="currentColor" stroke="rgb(0,0,0)" stroke-width="1" opacity="1" d="M 533.5 522 L 536 523.5 L 536 549.5 L 534.5 551 L 517 551 L 517 523 L 533.5 522 Z M 518 524 L 518 549 L 520 549 L 520 525 L 518 524 Z M 521 524 L 521 549 L 535 549 L 534 547 L 535 538 L 535 524 L 521 524 Z " /><path fill="currentColor" stroke="rgb(0,0,0)" stroke-width="1" opacity="1" d="M 517.5 554 L 518.5 688 L 520 686.5 L 520 556.5 L 520.5 554 L 534.5 554 L 536 555.5 L 536 690.5 L 529.5 691 L 517 689 L 517.5 554 Z M 521 556 L 521 688 L 530 689 L 535 688 L 535 557 L 521 556 Z " /><path fill="currentColor" stroke="rgb(0,0,0)" stroke-width="1" opacity="1" d="M 264 563 L 291 563 L 291 602 L 264 601 L 264 563 Z M 265 564 L 265 600 L 267 600 L 267 565 L 265 564 Z M 268 564 L 268 600 L 290 601 L 290 564 L 268 564 Z " /><path fill="currentColor" stroke="rgb(0,0,0)" stroke-width="1" opacity="1" d="M 292 563 L 321 563 L 321 602.5 L 318.5 603 L 292 602 L 292 563 Z M 293 564 L 293 601 L 295 601 L 295 565 L 293 564 Z M 296 564 L 296 601 L 320 602 L 320 564 L 296 564 Z " /><path fill="currentColor" stroke="rgb(0,0,0)" stroke-width="1" opacity="1" d="M 544.5 585 L 548 586.5 L 550 589.5 Q 545.8 590.8 547 597.5 L 548 658.5 L 550 661.5 L 546.5 666 L 543 665.5 L 543 586.5 L 544.5 585 Z M 544 587 L 544 665 L 546 664 L 546 588 L 544 587 Z " /><path fill="currentColor" stroke="rgb(0,0,0)" stroke-width="1" opacity="1" d="M 264 603 L 291 604 L 291 643.5 L 288.5 644 L 265.5 642 L 264 640.5 L 264 603 Z M 267 604 L 265 609 L 265 639 L 267 640 L 267 604 Z M 270 604 L 268 606 L 268 640 L 285 642 L 290 642 L 290 605 L 270 604 Z " /><path fill="currentColor" stroke="rgb(0,0,0)" stroke-width="1" opacity="1" d="M 292 604 L 321 606 L 321 645.5 L 311.5 646 L 293.5 644 L 292 642.5 L 292 604 Z M 293 605 L 293 642 L 295 643 L 295 606 L 293 605 Z M 296 606 L 296 642 L 298 643 L 319 645 L 320 644 L 320 607 L 296 606 Z " /><path fill="currentColor" stroke="rgb(0,0,0)" stroke-width="1" opacity="1" d="M 322 606 L 352 607 L 352 648.5 L 344.5 649 L 322 647 L 322 606 Z M 323 607 L 323 645 L 325 645 L 325 608 L 323 607 Z M 326 607 L 326 645 L 341 647 L 351 647 L 351 608 L 326 607 Z " /><path fill="currentColor" stroke="rgb(0,0,0)" stroke-width="1" opacity="1" d="M 322 649 L 352 651 L 352 692.5 L 346.5 693 L 323.5 690 L 322 688.5 L 322 649 Z M 323 650 L 323 688 L 325 688 L 325 651 L 323 650 Z M 326 650 L 326 688 L 346 691 L 351 691 L 351 654 L 350 652 L 326 650 Z " /><path fill="var(--primary)" stroke="rgb(255,0,255)" stroke-width="1" opacity="1" d="M 348.5 171 L 349 196.5 L 348.5 198 L 351 198.5 L 348.5 199 L 346 197.5 L 348 197 L 348.5 171 Z " /><path fill="var(--primary)" stroke="rgb(255,0,255)" stroke-width="1" opacity="1" d="M 350.5 171 L 351 196.5 L 350 196.5 L 350.5 171 Z " /><path fill="var(--primary)" stroke="rgb(255,0,255)" stroke-width="1" opacity="1" d="M 678.5 217 L 681 218.5 L 680.5 221 L 679 220.5 L 679 249.5 L 681 251.5 L 680.5 254 L 679 253.5 L 678.5 287 L 678 252 L 680 251.5 L 678 251 L 678 219.5 L 679.5 219 L 679.5 218 L 678.5 217 Z " /><path fill="var(--primary)" stroke="rgb(255,0,255)" stroke-width="1" opacity="1" d="M 673.5 219 L 677 219.5 L 677 248.5 L 676 248.5 L 676 220.5 L 673.5 220 L 673.5 219 Z " /><path fill="var(--primary)" stroke="rgb(255,0,255)" stroke-width="1" opacity="1" d="M 673.5 252 L 677 252.5 L 677 287 L 675 286.5 L 676 253 L 673.5 252 Z " /><path fill="var(--primary)" stroke="rgb(255,0,255)" stroke-width="1" opacity="1" d="M 485.5 253 L 487 253.5 L 485 254.5 L 487 255.5 L 485 256.5 L 487 257.5 L 483.5 259 L 483.5 258 L 485 257.5 L 483 256.5 L 485 255.5 L 483 254.5 L 485.5 253 Z " /><path fill="var(--primary)" stroke="rgb(255,0,255)" stroke-width="1" opacity="1" d="M 497.5 258 L 499 258.5 L 497 259.5 L 499 260.5 L 495 262.5 L 498 264.5 L 497.5 280 L 497 264 L 493 262.5 L 497 260.5 L 495 259.5 L 497.5 258 Z " /><path fill="var(--primary)" stroke="rgb(255,0,255)" stroke-width="1" opacity="1" d="M 115.5 260 L 119 261.5 L 117.5 262 L 115.5 261 L 115.5 263 L 114 262.5 L 113.5 284 L 113 261 L 115.5 260 Z " /><path fill="var(--primary)" stroke="rgb(255,0,255)" stroke-width="1" opacity="1" d="M 499 264 L 502 264.5 L 500 265 L 500 290.5 L 501.5 291 L 501.5 292 L 499 291.5 L 499 264 Z " /><path fill="var(--primary)" stroke="rgb(255,0,255)" stroke-width="1" opacity="1" d="M 115.5 267 L 117 281.5 L 115 282 L 115.5 267 Z " /><path fill="var(--primary)" stroke="rgb(255,0,255)" stroke-width="1" opacity="1" d="M 123.5 280 L 125 280.5 L 123 281.5 L 127 283.5 L 124 285.5 L 123.5 293 L 123 284 Q 116.7 286 118 282 L 122.5 283 L 122.5 282 L 121 281.5 L 123.5 280 Z " /><path fill="var(--primary)" stroke="rgb(255,0,255)" stroke-width="1" opacity="1" d="M 394.5 284 L 396 284.5 L 393 286.5 L 393 428.5 L 396.5 429 L 396.5 430 L 392 428.5 L 392 285.5 L 393.5 285 L 394.5 284 Z " /><path fill="var(--primary)" stroke="rgb(255,0,255)" stroke-width="1" opacity="1" d="M 118.5 285 L 122 285 L 122 293.5 L 119.5 295 L 119.5 294 L 121 293.5 L 121 286 L 118.5 285 Z " /><path fill="var(--primary)" stroke="rgb(255,0,255)" stroke-width="1" opacity="1" d="M 404.5 289 L 407 290.5 L 406.5 425 L 406 290 L 404.5 289 Z " /><path fill="var(--primary)" stroke="rgb(255,0,255)" stroke-width="1" opacity="1" d="M 665.5 290 L 674 292 L 673.5 711 L 673 293 L 665.5 290 Z " /><path fill="var(--primary)" stroke="rgb(255,0,255)" stroke-width="1" opacity="1" d="M 690.5 292 L 701 297.5 L 699 298.5 L 710.5 304 L 710.5 302 L 728 311.5 L 726.5 311 L 725 311.5 L 725.5 313 L 690 294.5 L 690.5 292 Z " /><path fill="var(--primary)" stroke="rgb(255,0,255)" stroke-width="1" opacity="1" d="M 684.5 296 L 685 707.5 L 682.5 709 L 682.5 708 L 684 707.5 L 684.5 296 Z " /><path fill="var(--primary)" stroke="rgb(255,0,255)" stroke-width="1" opacity="1" d="M 688.5 296 L 694 298.5 L 691.5 300 L 691.5 298 L 688.5 299 L 687 298.5 L 688 489.5 L 686 490 L 686 297.5 L 687.5 297 L 688.5 296 Z " /><path fill="var(--primary)" stroke="rgb(255,0,255)" stroke-width="1" opacity="1" d="M 151.5 298 L 160 301 Q 161.3 304 157.5 303 L 157.5 301 L 151.5 299 L 148.5 300 L 148.5 299 L 151.5 298 Z " /><path fill="var(--primary)" stroke="rgb(255,0,255)" stroke-width="1" opacity="1" d="M 659.5 300 L 660 488.5 L 658.5 490 L 647.5 490 L 647.5 489 L 659 488.5 L 651 487.5 L 658 487 L 659 441.5 L 658 396 L 653 395.5 L 659 394.5 L 655 393.5 L 658 393 L 659 350.5 L 658.5 348 L 654 347.5 L 658 347 L 658 302.5 L 659.5 300 Z " /><path fill="var(--primary)" stroke="rgb(255,0,255)" stroke-width="1" opacity="1" d="M 695.5 301 L 698 303.5 L 698 490.5 L 697 490.5 L 697 303.5 L 695.5 301 Z " /><path fill="var(--primary)" stroke="rgb(255,0,255)" stroke-width="1" opacity="1" d="M 699.5 301 L 722 312.5 L 720 313 L 718.5 315 L 716.5 318 L 719.5 316 L 720 318 L 718 318.5 L 721 320.5 L 720 357.5 L 720.5 359 L 719 358.5 L 719 321.5 L 719.5 320 L 717 320.5 L 718 358 L 716 358.5 L 718 359.5 L 715 361.5 L 719.5 363 L 722 362 L 722.5 321 L 723 362 L 725 362.5 L 723 364.5 L 723 404.5 L 723.5 406 L 722 406.5 L 724.5 407 L 726.5 406 L 725.5 408 L 723 408.5 L 723 446.5 L 722 446.5 L 722 407.5 L 720.5 407 L 720.5 406 L 722 405.5 L 722 363 L 717 364.5 L 718 402 L 711.5 404 L 712.5 402 L 717 401 L 716 364.5 L 716.5 363 L 713.5 364 L 713.5 363 L 715 362.5 L 712.5 362 L 711 362.5 L 711.5 361 L 707.5 360 L 705.5 361 L 705.5 360 L 707 359.5 L 704.5 359 L 703 359.5 L 703.5 358 L 699 356.5 L 704.5 354 L 703.5 356 L 702 356.5 L 706.5 358 L 709.5 356 L 708.5 358 L 707 358.5 L 709.5 359 L 712.5 357 L 711.5 359 L 710 359.5 L 714.5 361 L 715.5 359 L 713.5 360 L 714.5 358 L 717 356.5 L 716 320.5 L 716.5 319 L 714.5 320 L 714.5 318 L 712.5 319 L 712.5 317 L 709.5 318 L 701 313.5 L 703 312.5 L 699 310.5 L 700.5 310 L 712 315 L 711.5 313 L 710 313.5 L 711.5 311 L 708.5 313 L 709.5 310 L 706.5 312 L 705.5 310 L 704 310.5 L 703.5 309 L 702 309.5 L 701.5 308 L 700 308.5 Q 703.8 306.8 700.5 305 L 699 303.5 L 699.5 301 Z " /><path fill="var(--primary)" stroke="rgb(255,0,255)" stroke-width="1" opacity="1" d="M 456.5 305 L 458 305.5 L 456 306 L 455.5 332 L 455 306.5 L 456.5 305 Z " /><path fill="var(--primary)" stroke="rgb(255,0,255)" stroke-width="1" opacity="1" d="M 372.5 306 L 376 306.5 L 376 425.5 L 376.5 427 L 375 426.5 L 375 307.5 L 372.5 307 L 372.5 306 Z " /><path fill="var(--primary)" stroke="rgb(255,0,255)" stroke-width="1" opacity="1" d="M 675.5 309 L 676 497.5 L 675 497.5 L 675.5 309 Z " /><path fill="var(--primary)" stroke="rgb(255,0,255)" stroke-width="1" opacity="1" d="M 453.5 311 L 454 332.5 L 453 332.5 L 453.5 311 Z " /><path fill="var(--primary)" stroke="rgb(255,0,255)" stroke-width="1" opacity="1" d="M 609.5 311 L 611 311.5 L 609 312 L 608 317.5 L 608 350.5 L 609 353.5 L 606 355.5 L 607 313.5 L 609.5 311 Z " /><path fill="var(--primary)" stroke="rgb(255,0,255)" stroke-width="1" opacity="1" d="M 613.5 313 L 617 313.5 L 613 314 L 613 351.5 L 616.5 352 L 621 353.5 L 617.5 354 L 612 353 L 612 314.5 L 613.5 313 Z " /><path fill="var(--primary)" stroke="rgb(255,0,255)" stroke-width="1" opacity="1" d="M 731.5 313 L 746 320.5 L 744.5 320 L 743 320.5 L 743.5 322 L 735 317.5 L 737 316.5 L 733.5 315 L 733.5 317 L 731 315.5 L 733 314.5 L 731.5 313 Z " /><path fill="var(--primary)" stroke="rgb(255,0,255)" stroke-width="1" opacity="1" d="M 610.5 314 L 611 352.5 L 610 352.5 L 610.5 314 Z " /><path fill="var(--primary)" stroke="rgb(255,0,255)" stroke-width="1" opacity="1" d="M 603.5 315 L 606 315.5 L 606 353.5 L 605 353.5 L 605 316.5 L 603.5 316 L 603.5 315 Z " /><path fill="var(--primary)" stroke="rgb(255,0,255)" stroke-width="1" opacity="1" d="M 725.5 316 L 752.5 329 L 754 328.5 L 754.5 331 L 757.5 330 L 757.5 332 L 759.5 331 L 759.5 333 L 761.5 332 L 761.5 334 L 763.5 333 L 763.5 335 L 765.5 334 L 765.5 336 L 769.5 334 L 769.5 338 L 773.5 336 L 773.5 338 L 776 336.5 L 775.5 335 L 793 344.5 L 792.5 346 L 794.5 345 L 795.5 348 L 797 347.5 L 797 323.5 L 798 323.5 L 798 347.5 L 796.5 349 L 793 349.5 L 793 501.5 L 793.5 503 L 792 502.5 L 792 349.5 L 792.5 348 L 791 348.5 L 791 501.5 L 790 501.5 L 790 349.5 L 788.5 348 L 781 344.5 L 784 342.5 L 782.5 342 L 781 342.5 L 781.5 341 L 779.5 342 L 779.5 340 L 777 341.5 L 777.5 343 L 776.5 340 L 774.5 341 L 774.5 339 L 771.5 338 L 772 339.5 L 773 499.5 L 772 499.5 L 771.5 341 L 770.5 500 L 770 341.5 L 771 339 L 768 339.5 L 768.5 341 L 762.5 343 L 762.5 341 L 760.5 342 L 760.5 340 L 758.5 341 L 758.5 339 L 756.5 340 L 756.5 338 L 754.5 339 L 754.5 337 L 752.5 338 L 752.5 336 L 750.5 337 L 750.5 335 L 747 333.5 L 748.5 333 L 758 337 L 758.5 335 L 759 336.5 L 758.5 338 L 760 336.5 L 761 336.5 L 760 338.5 L 762 339 L 763.5 337 L 763.5 336 L 755 333 L 754.5 335 L 754 333.5 L 754.5 332 L 753 333.5 L 752 333.5 L 753 331.5 L 751 331 L 750.5 333 L 750 331.5 L 749.5 329 L 747 329.5 L 749 330 L 748.5 332 L 746 331 L 746 368.5 L 744.5 369 L 745 367.5 L 745 334.5 L 744 331 L 746 329.5 L 746.5 328 L 745 329.5 L 744 329.5 L 745 327.5 L 743 327 L 741.5 329 L 741.5 330 L 743 331.5 L 743 333.5 L 743 367.5 L 741.5 368 L 738.5 370 L 739.5 368 L 741 367.5 L 739 366.5 L 740.5 366 L 742 366.5 L 741 332.5 L 741.5 331 L 739.5 332 L 739.5 330 L 737.5 331 L 737.5 329 L 735.5 330 L 735.5 328 L 732.5 329 L 727 325.5 L 727.5 324 L 724.5 325 L 724.5 324 L 726 323.5 L 724 323 L 727 318.5 L 725.5 318 L 723 319.5 L 725.5 316 Z " /><path fill="var(--primary)" stroke="rgb(255,0,255)" stroke-width="1" opacity="1" d="M 347.5 318 L 351 319.5 L 350 359.5 L 354 361.5 L 351.5 362 L 348 360.5 L 349 319 L 347.5 318 Z " /><path fill="var(--primary)" stroke="rgb(255,0,255)" stroke-width="1" opacity="1" d="M 355.5 321 L 357 321.5 L 355 322 L 355 356.5 L 356.5 357 L 356.5 358 L 354 357.5 L 354 322.5 L 355.5 321 Z " /><path fill="var(--primary)" stroke="rgb(255,0,255)" stroke-width="1" opacity="1" d="M 560.5 321 L 560 322.5 L 559 354.5 L 560 356.5 L 559 359.5 L 559 361.5 Q 560.3 365.3 556.5 364 L 556.5 363 L 558 362.5 L 558 322.5 L 559.5 322 L 560.5 321 Z " /><path fill="var(--primary)" stroke="rgb(255,0,255)" stroke-width="1" opacity="1" d="M 351 322 L 353 322.5 L 353 357.5 L 351 358.5 L 351 322 Z " /><path fill="var(--primary)" stroke="rgb(255,0,255)" stroke-width="1" opacity="1" d="M 345.5 323 L 348 323.5 L 348 358.5 L 344.5 360 L 344.5 359 L 347 358.5 L 347 324 L 345.5 323 Z " /><path fill="var(--primary)" stroke="rgb(255,0,255)" stroke-width="1" opacity="1" d="M 561.5 323 L 562 360.5 L 561 360.5 L 561.5 323 Z " /><path fill="var(--primary)" stroke="rgb(255,0,255)" stroke-width="1" opacity="1" d="M 563 323 L 566 323.5 L 564 324 L 564 359.5 L 566.5 360 L 566.5 361 L 563 360.5 L 563 323 Z " /><path fill="var(--primary)" stroke="rgb(255,0,255)" stroke-width="1" opacity="1" d="M 240.5 324 L 242 324.5 L 242 436.5 L 236.5 438 L 236.5 437 L 241 436.5 L 241 325.5 L 240.5 324 Z " /><path fill="var(--primary)" stroke="rgb(255,0,255)" stroke-width="1" opacity="1" d="M 502.5 324 L 507 325.5 L 502 327 L 502 492.5 L 504.5 493 L 504.5 494 L 501 492.5 L 501 326.5 L 503.5 326 L 503.5 325 L 502.5 324 Z " /><path fill="var(--primary)" stroke="rgb(255,0,255)" stroke-width="1" opacity="1" d="M 318.5 325 L 322 326.5 L 319 328.5 L 320 366 L 324 367.5 L 321.5 368 L 318 367 L 318 328.5 L 315.5 328 L 314.5 326 L 319.5 327 L 319.5 326 L 318.5 325 Z " /><path fill="var(--primary)" stroke="rgb(255,0,255)" stroke-width="1" opacity="1" d="M 556.5 325 L 557 361.5 L 556 361.5 L 556.5 325 Z " /><path fill="var(--primary)" stroke="rgb(255,0,255)" stroke-width="1" opacity="1" d="M 724.5 326 L 725 350.5 L 724 350.5 L 724.5 326 Z " /><path fill="var(--primary)" stroke="rgb(255,0,255)" stroke-width="1" opacity="1" d="M 487.5 327 L 491.5 328 L 493.5 327 L 493.5 328 L 492 328 Q 493.7 335.3 490.5 335 L 491 333.5 L 490 328 L 487.5 327 Z " /><path fill="var(--primary)" stroke="rgb(255,0,255)" stroke-width="1" opacity="1" d="M 509.5 328 L 513 329.5 L 512.5 493 L 512 329 L 509.5 328 Z " /><path fill="var(--primary)" stroke="rgb(255,0,255)" stroke-width="1" opacity="1" d="M 514.5 328 L 519 329.5 L 516 330 L 516 369.5 L 517.5 370 L 520 371.5 L 516 372 L 516 410.5 L 518.5 411 L 523 412.5 L 517.5 413 L 515.5 412 L 516 413.5 L 516 451.5 L 523.5 452 L 531 453.5 L 523.5 454 L 515.5 453 L 515.5 454 L 517 454.5 L 516 493 L 514 492.5 L 515 484.5 L 514 456.5 L 514 454.5 L 515 451.5 L 514 449.5 L 515 439.5 L 514 415.5 L 515 413.5 L 514 411.5 L 515 409.5 L 515 407.5 L 514 370.5 L 515 351.5 L 514 337.5 L 515 334.5 L 516 329.5 L 514.5 328 Z " /><path fill="var(--primary)" stroke="rgb(255,0,255)" stroke-width="1" opacity="1" d="M 808 328 L 811 329.5 L 809 329.5 L 809 671.5 L 810.5 672 L 810.5 673 L 808 672.5 L 808 328 Z " /><path fill="var(--primary)" stroke="rgb(255,0,255)" stroke-width="1" opacity="1" d="M 243.5 330 L 244 436 L 249 436.5 L 243 437 L 243.5 330 Z " /><path fill="var(--primary)" stroke="rgb(255,0,255)" stroke-width="1" opacity="1" d="M 289.5 332 L 293 333.5 L 291 334 L 291 371.5 L 289.5 373 L 288 372.5 L 290 372 L 290 337.5 L 289 334 L 291 333.5 L 289.5 332 Z " /><path fill="var(--primary)" stroke="rgb(255,0,255)" stroke-width="1" opacity="1" d="M 316.5 332 L 317 349.5 L 316 349.5 L 316.5 332 Z " /><path fill="var(--primary)" stroke="rgb(255,0,255)" stroke-width="1" opacity="1" d="M 517.5 332 L 518 368.5 L 517 368.5 L 517.5 332 Z " /><path fill="var(--primary)" stroke="rgb(255,0,255)" stroke-width="1" opacity="1" d="M 519.5 332 L 520 367.5 L 519 367.5 L 519.5 332 Z " /><path fill="var(--primary)" stroke="rgb(255,0,255)" stroke-width="1" opacity="1" d="M 292.5 335 L 294 336.5 L 294 369.5 L 292 370.5 L 293 366.5 L 292 362.5 L 293 336.5 L 292.5 335 Z " /><path fill="var(--primary)" stroke="rgb(255,0,255)" stroke-width="1" opacity="1" d="M 748.5 336 L 749 370 L 751 370.5 L 749.5 371 L 748 369.5 L 748.5 336 Z " /><path fill="var(--primary)" stroke="rgb(255,0,255)" stroke-width="1" opacity="1" d="M 287.5 337 L 289 338.5 L 289 370.5 L 288 370.5 L 288 338.5 L 287.5 337 Z " /><path fill="var(--primary)" stroke="rgb(255,0,255)" stroke-width="1" opacity="1" d="M 831.5 338 L 835 340.5 L 833.5 340 L 832 340.5 L 832.5 342 L 830.5 341 L 830.5 345 L 829.5 339 L 831.5 340 L 831.5 338 Z " /><path fill="var(--primary)" stroke="rgb(255,0,255)" stroke-width="1" opacity="1" d="M 869.5 338 L 871 341.5 L 871 360.5 L 869.5 361 L 870 359.5 L 869 340.5 L 869.5 338 Z " /><path fill="var(--primary)" stroke="rgb(255,0,255)" stroke-width="1" opacity="1" d="M 467.5 339 L 469 440.5 L 467 441 L 467.5 339 Z " /><path fill="var(--primary)" stroke="rgb(255,0,255)" stroke-width="1" opacity="1" d="M 661.5 339 L 662 360.5 L 661 360.5 L 661.5 339 Z " /><path fill="var(--primary)" stroke="rgb(255,0,255)" stroke-width="1" opacity="1" d="M 465.5 340 L 466 366.5 L 465 366.5 L 465.5 340 Z " /><path fill="var(--primary)" stroke="rgb(255,0,255)" stroke-width="1" opacity="1" d="M 872.5 341 L 873 361.5 L 872 361.5 L 872.5 341 Z " /><path fill="var(--primary)" stroke="rgb(255,0,255)" stroke-width="1" opacity="1" d="M 265 342 L 267 342.5 L 267 375.5 L 269.5 376 L 272 377.5 L 269.5 378 L 265 376 L 265 342 Z " /><path fill="var(--primary)" stroke="rgb(255,0,255)" stroke-width="1" opacity="1" d="M 268.5 342 L 269 374 L 272 374.5 L 268 375 L 268.5 342 Z " /><path fill="var(--primary)" stroke="rgb(255,0,255)" stroke-width="1" opacity="1" d="M 774.5 342 L 775 498.5 L 774 498.5 L 774.5 342 Z " /><path fill="var(--primary)" stroke="rgb(255,0,255)" stroke-width="1" opacity="1" d="M 834.5 342 L 834.5 344 L 836.5 343 L 837 347.5 L 837 507.5 L 833.5 508 L 833.5 507 L 836 506.5 L 836 347 L 832 345.5 L 834 344.5 L 832 343.5 L 834.5 342 Z " /><path fill="var(--primary)" stroke="rgb(255,0,255)" stroke-width="1" opacity="1" d="M 256.5 343 L 257 434.5 L 256 434.5 L 256.5 343 Z " /><path fill="var(--primary)" stroke="rgb(255,0,255)" stroke-width="1" opacity="1" d="M 764.5 343 L 765 376 L 762 375.5 L 764 375 L 764.5 343 Z " /><path fill="var(--primary)" stroke="rgb(255,0,255)" stroke-width="1" opacity="1" d="M 766.5 343 L 768 344.5 L 768 376.5 L 767 376.5 L 767 344.5 L 766.5 343 Z " /><path fill="var(--primary)" stroke="rgb(255,0,255)" stroke-width="1" opacity="1" d="M 827.5 345 L 828 389.5 L 827 389.5 L 827.5 345 Z " /><path fill="var(--primary)" stroke="rgb(255,0,255)" stroke-width="1" opacity="1" d="M 263.5 347 L 264 377 L 266 379 Q 262.3 377.9 264 386.5 L 263 386.5 L 263.5 347 Z " /><path fill="var(--primary)" stroke="rgb(255,0,255)" stroke-width="1" opacity="1" d="M 839.5 347 L 839 348.5 L 838.5 508 L 838 348.5 L 839.5 347 Z " /><path fill="var(--primary)" stroke="rgb(255,0,255)" stroke-width="1" opacity="1" d="M 599.5 356 L 608 358.5 L 609 376.5 L 609 378.5 L 608 390.5 L 609 399 L 613 399.5 L 609.5 400 L 607 399.5 L 607 358.5 L 603.5 358 L 599.5 356 Z " /><path fill="var(--primary)" stroke="rgb(255,0,255)" stroke-width="1" opacity="1" d="M 610.5 359 L 611 397.5 L 610 397.5 L 610.5 359 Z " /><path fill="var(--primary)" stroke="rgb(255,0,255)" stroke-width="1" opacity="1" d="M 612.5 359 L 613 397 L 615 397.5 L 612 398 L 612.5 359 Z " /><path fill="var(--primary)" stroke="rgb(255,0,255)" stroke-width="1" opacity="1" d="M 602.5 360 L 606 360.5 L 606 399 L 602 398.5 L 605 398 L 605 361.5 L 602.5 361 L 602.5 360 Z " /><path fill="var(--primary)" stroke="rgb(255,0,255)" stroke-width="1" opacity="1" d="M 868.5 363 L 869 512 L 865 511.5 L 868 511 L 868.5 363 Z " /><path fill="var(--primary)" stroke="rgb(255,0,255)" stroke-width="1" opacity="1" d="M 870 363 L 872 363.5 L 871 511.5 L 873 513.5 L 873 525.5 L 872 525.5 L 872 513.5 L 870 511.5 L 870 363 Z " /><path fill="var(--primary)" stroke="rgb(255,0,255)" stroke-width="1" opacity="1" d="M 349.5 364 L 350 422.5 L 349 422.5 L 349.5 364 Z " /><path fill="var(--primary)" stroke="rgb(255,0,255)" stroke-width="1" opacity="1" d="M 351 364 L 353 364.5 L 353 423 L 351 422.5 L 351 364 Z " /><path fill="var(--primary)" stroke="rgb(255,0,255)" stroke-width="1" opacity="1" d="M 354.5 364 L 355 423 L 358 423.5 L 354 424 L 354.5 364 Z " /><path fill="var(--primary)" stroke="rgb(255,0,255)" stroke-width="1" opacity="1" d="M 346.5 365 L 348 365.5 L 348 422.5 L 347 422.5 L 347 366.5 L 346.5 365 Z " /><path fill="var(--primary)" stroke="rgb(255,0,255)" stroke-width="1" opacity="1" d="M 558.5 365 L 560 366.5 L 560 404.5 Q 559 408 553.5 407 L 553.5 406 L 558 405.5 L 558.5 365 Z " /><path fill="var(--primary)" stroke="rgb(255,0,255)" stroke-width="1" opacity="1" d="M 719 365 L 721 365.5 L 720 401.5 L 720.5 403 L 719 402.5 L 719 365 Z " /><path fill="var(--primary)" stroke="rgb(255,0,255)" stroke-width="1" opacity="1" d="M 732.5 365 L 731.5 367 L 730 367.5 L 732 368.5 L 729.5 370 L 729.5 368 L 726.5 369 L 726.5 368 L 732.5 365 Z " /><path fill="var(--primary)" stroke="rgb(255,0,255)" stroke-width="1" opacity="1" d="M 564.5 366 L 568 366.5 L 564 367 L 564 402.5 L 566.5 403 L 566.5 404 L 563 403.5 L 563 367.5 L 564.5 366 Z " /><path fill="var(--primary)" stroke="rgb(255,0,255)" stroke-width="1" opacity="1" d="M 313.5 367 L 320 368 L 320 426.5 L 318 427 L 318 369.5 L 316.5 369 L 313.5 367 Z " /><path fill="var(--primary)" stroke="rgb(255,0,255)" stroke-width="1" opacity="1" d="M 561.5 367 L 562 403.5 L 561 403.5 L 561.5 367 Z " /><path fill="var(--primary)" stroke="rgb(255,0,255)" stroke-width="1" opacity="1" d="M 465.5 368 L 466 382.5 L 465 382.5 L 465.5 368 Z " /><path fill="var(--primary)" stroke="rgb(255,0,255)" stroke-width="1" opacity="1" d="M 556.5 368 L 557 405 L 554 404.5 L 556 404 L 556.5 368 Z " /><path fill="var(--primary)" stroke="rgb(255,0,255)" stroke-width="1" opacity="1" d="M 744.5 370 L 748 371.5 L 746 373.5 L 746 410.5 L 744.5 411 L 740.5 413 L 740.5 412 L 745 409.5 L 744 373.5 L 744.5 372 L 741 373.5 L 743 374 L 743 408.5 L 740.5 411 L 737.5 412 L 737.5 411 L 742 408.5 L 742 375.5 L 740.5 374 L 739 373.5 L 744.5 370 Z " /><path fill="var(--primary)" stroke="rgb(255,0,255)" stroke-width="1" opacity="1" d="M 291.5 373 L 294 373.5 L 291 374 L 290.5 431 L 290 374.5 L 291.5 373 Z " /><path fill="var(--primary)" stroke="rgb(255,0,255)" stroke-width="1" opacity="1" d="M 517.5 373 L 518 409.5 L 517 409.5 L 517.5 373 Z " /><path fill="var(--primary)" stroke="rgb(255,0,255)" stroke-width="1" opacity="1" d="M 830.5 373 L 831 401.5 L 829 402.5 L 830.5 373 Z " /><path fill="var(--primary)" stroke="rgb(255,0,255)" stroke-width="1" opacity="1" d="M 519.5 374 L 520 408.5 L 519 408.5 L 519.5 374 Z " /><path fill="var(--primary)" stroke="rgb(255,0,255)" stroke-width="1" opacity="1" d="M 292.5 375 L 294 376.5 L 294 429.5 L 292 430.5 L 292 428.5 L 293 384.5 L 292 377.5 L 292.5 375 Z " /><path fill="var(--primary)" stroke="rgb(255,0,255)" stroke-width="1" opacity="1" d="M 751.5 376 L 753 376.5 L 749 378 L 750 411.5 L 748 410.5 L 748 377.5 L 750.5 377 L 751.5 376 Z " /><path fill="var(--primary)" stroke="rgb(255,0,255)" stroke-width="1" opacity="1" d="M 288.5 377 L 289 430.5 L 288 430.5 L 288.5 377 Z " /><path fill="var(--primary)" stroke="rgb(255,0,255)" stroke-width="1" opacity="1" d="M 806.5 378 L 807 408.5 L 806 408.5 L 806.5 378 Z " /><path fill="var(--primary)" stroke="rgb(255,0,255)" stroke-width="1" opacity="1" d="M 265 380 L 267 380.5 L 267 434 L 265 433.5 L 265 380 Z " /><path fill="var(--primary)" stroke="rgb(255,0,255)" stroke-width="1" opacity="1" d="M 268 380 L 271 380.5 L 269 381 L 269 432.5 L 271.5 433 L 271.5 434 L 268 433.5 L 268 380 Z " /><path fill="var(--primary)" stroke="rgb(255,0,255)" stroke-width="1" opacity="1" d="M 764.5 383 L 765 415.5 L 764 415.5 L 764.5 383 Z " /><path fill="var(--primary)" stroke="rgb(255,0,255)" stroke-width="1" opacity="1" d="M 766.5 383 L 768 384.5 L 768 417 L 766 416.5 L 767 384.5 L 766.5 383 Z " /><path fill="var(--primary)" stroke="rgb(255,0,255)" stroke-width="1" opacity="1" d="M 465.5 386 L 466 437.5 L 465 437.5 L 465.5 386 Z " /><path fill="var(--primary)" stroke="rgb(255,0,255)" stroke-width="1" opacity="1" d="M 661.5 390 L 662 422.5 L 661 422.5 L 661.5 390 Z " /><path fill="var(--primary)" stroke="rgb(255,0,255)" stroke-width="1" opacity="1" d="M 609.5 401 L 612 401.5 L 609 402 L 608 419.5 L 609 431.5 L 608 433.5 L 609 436.5 L 609 438.5 Q 610 444 606.5 445 L 607 443.5 L 607 403.5 L 609.5 401 Z " /><path fill="var(--primary)" stroke="rgb(255,0,255)" stroke-width="1" opacity="1" d="M 610.5 403 L 611 442.5 L 610 442.5 L 610.5 403 Z " /><path fill="var(--primary)" stroke="rgb(255,0,255)" stroke-width="1" opacity="1" d="M 612 403 L 615 403.5 L 613 404 L 614 442.5 L 612 443 L 612 403 Z " /><path fill="var(--primary)" stroke="rgb(255,0,255)" stroke-width="1" opacity="1" d="M 602.5 404 L 606 404.5 L 606 442.5 L 605 442.5 L 605 405.5 L 602.5 405 L 602.5 404 Z " /><path fill="var(--primary)" stroke="rgb(255,0,255)" stroke-width="1" opacity="1" d="M 829.5 407 L 831 407.5 L 831 435.5 L 830 435.5 L 830 408.5 L 829.5 407 Z " /><path fill="var(--primary)" stroke="rgb(255,0,255)" stroke-width="1" opacity="1" d="M 558.5 408 L 560 412.5 L 560 416.5 L 560 446.5 L 558.5 449 L 558.5 408 Z " /><path fill="var(--primary)" stroke="rgb(255,0,255)" stroke-width="1" opacity="1" d="M 716.5 408 L 718 408.5 L 718 446 L 715 445.5 L 717 445 L 717 409.5 L 716.5 408 Z " /><path fill="var(--primary)" stroke="rgb(255,0,255)" stroke-width="1" opacity="1" d="M 719 408 L 721 408.5 L 720 445.5 L 720.5 447 L 719 446.5 L 719 408 Z " /><path fill="var(--primary)" stroke="rgb(255,0,255)" stroke-width="1" opacity="1" d="M 561.5 409 L 562 446.5 L 561 446.5 L 561.5 409 Z " /><path fill="var(--primary)" stroke="rgb(255,0,255)" stroke-width="1" opacity="1" d="M 563 409 L 565 409.5 L 564 446 L 569 446.5 L 563 447 L 563 409 Z " /><path fill="var(--primary)" stroke="rgb(255,0,255)" stroke-width="1" opacity="1" d="M 554.5 410 L 557 410.5 L 557 445.5 L 556 445.5 L 556 411.5 L 554.5 411 L 554.5 410 Z " /><path fill="var(--primary)" stroke="rgb(255,0,255)" stroke-width="1" opacity="1" d="M 745.5 412 L 747 412.5 L 745 413.5 L 746 452 L 744 451.5 L 745 416.5 L 745.5 412 Z " /><path fill="var(--primary)" stroke="rgb(255,0,255)" stroke-width="1" opacity="1" d="M 517.5 415 L 518 450.5 L 517 450.5 L 517.5 415 Z " /><path fill="var(--primary)" stroke="rgb(255,0,255)" stroke-width="1" opacity="1" d="M 519.5 415 L 520 450 L 526 450.5 L 519 451 L 519.5 415 Z " /><path fill="var(--primary)" stroke="rgb(255,0,255)" stroke-width="1" opacity="1" d="M 740.5 415 L 743 416.5 L 742.5 451 L 742 416 L 740.5 415 Z " /><path fill="var(--primary)" stroke="rgb(255,0,255)" stroke-width="1" opacity="1" d="M 748.5 418 L 750 452.5 L 748 451.5 L 748.5 418 Z " /><path fill="var(--primary)" stroke="rgb(255,0,255)" stroke-width="1" opacity="1" d="M 764.5 422 L 765 456 L 756.5 458 L 756.5 457 L 764 455 L 764.5 422 Z " /><path fill="var(--primary)" stroke="rgb(255,0,255)" stroke-width="1" opacity="1" d="M 766.5 422 L 768 422.5 L 768 457 L 766 456.5 L 767 423.5 L 766.5 422 Z " /><path fill="var(--primary)" stroke="rgb(255,0,255)" stroke-width="1" opacity="1" d="M 348.5 429 L 350 436.5 L 350 482 L 348 481.5 L 348.5 429 Z " /><path fill="var(--primary)" stroke="rgb(255,0,255)" stroke-width="1" opacity="1" d="M 297 436 L 299 436.5 L 299 484.5 L 297 485.5 L 297 436 Z " /><path fill="var(--primary)" stroke="rgb(255,0,255)" stroke-width="1" opacity="1" d="M 399 436 L 401.5 437 L 403 436.5 L 403 485.5 L 401 486 L 400.5 440 L 399 440.5 L 399 436 Z " /><path fill="var(--primary)" stroke="rgb(255,0,255)" stroke-width="1" opacity="1" d="M 253.5 441 L 254 488.5 L 253 488.5 L 253.5 441 Z " /><path fill="var(--primary)" stroke="rgb(255,0,255)" stroke-width="1" opacity="1" d="M 255 441 Q 258.3 439.7 257 444.5 L 257 446.5 L 256 451.5 L 257 456.5 L 257 458.5 Q 258.7 464.4 255 463 L 255 441 Z " /><path fill="var(--primary)" stroke="rgb(255,0,255)" stroke-width="1" opacity="1" d="M 829.5 441 L 831 441.5 L 831 470 L 829 469.5 L 830 442.5 L 829.5 441 Z " /><path fill="var(--primary)" stroke="rgb(255,0,255)" stroke-width="1" opacity="1" d="M 343.5 442 Q 349.2 440.2 347 446.5 L 340.5 448 L 340.5 447 Q 348.3 449.4 346 443 L 343.5 442 Z " /><path fill="var(--primary)" stroke="rgb(255,0,255)" stroke-width="1" opacity="1" d="M 446.5 443 L 447 489.5 L 446 489.5 L 446.5 443 Z " /><path fill="var(--primary)" stroke="rgb(255,0,255)" stroke-width="1" opacity="1" d="M 491.5 444 Q 494.9 443.1 493 448.5 L 490 450 L 489.5 488 L 489 449 Q 493.5 450.8 492 445.5 L 491.5 444 Z " /><path fill="var(--primary)" stroke="rgb(255,0,255)" stroke-width="1" opacity="1" d="M 213.5 446 L 214 491.5 L 213 491.5 L 213.5 446 Z " /><path fill="var(--primary)" stroke="rgb(255,0,255)" stroke-width="1" opacity="1" d="M 603.5 446 L 608.5 447 L 610 446.5 L 608 458.5 L 608 460.5 L 609 476.5 L 608 486.5 L 609 488.5 L 607 489.5 L 607 447.5 L 603.5 447 L 603.5 446 Z " /><path fill="var(--primary)" stroke="rgb(255,0,255)" stroke-width="1" opacity="1" d="M 392.5 448 L 393 452 Q 398.6 453.9 397 449 L 394 448.5 L 398 448 Q 400.7 455.1 393.5 453 L 392.5 448 Z " /><path fill="var(--primary)" stroke="rgb(255,0,255)" stroke-width="1" opacity="1" d="M 604.5 448 L 606 449.5 L 606 489 L 599 488.5 L 605 488 L 605 449.5 L 604.5 448 Z " /><path fill="var(--primary)" stroke="rgb(255,0,255)" stroke-width="1" opacity="1" d="M 610.5 448 L 611 487.5 L 610 487.5 L 610.5 448 Z " /><path fill="var(--primary)" stroke="rgb(255,0,255)" stroke-width="1" opacity="1" d="M 612.5 448 L 613 487.5 L 612 487.5 L 612.5 448 Z " /><path fill="var(--primary)" stroke="rgb(255,0,255)" stroke-width="1" opacity="1" d="M 487.5 449 L 488 493.5 L 487 493.5 L 486.5 471 L 485.5 475 L 483.5 474 L 478.5 475 L 478.5 474 L 484 472.5 L 483.5 471 L 486 470.5 L 484 469 L 484 465 L 486 464.5 L 484 460 Q 487.3 458.7 486 463.5 L 487 463.5 L 487.5 449 Z " /><path fill="var(--primary)" stroke="rgb(255,0,255)" stroke-width="1" opacity="1" d="M 724.5 449 L 727 449.5 L 723 451 L 722.5 491 L 721 450.5 L 724.5 449 Z " /><path fill="var(--primary)" stroke="rgb(255,0,255)" stroke-width="1" opacity="1" d="M 539.5 450 L 553 451.5 L 546.5 452 L 539.5 451 L 539.5 450 Z " /><path fill="var(--primary)" stroke="rgb(255,0,255)" stroke-width="1" opacity="1" d="M 560.5 450 L 565 450.5 L 560 451 L 559 489.5 L 559.5 491 L 558 489.5 L 558 451 L 560.5 450 Z " /><path fill="var(--primary)" stroke="rgb(255,0,255)" stroke-width="1" opacity="1" d="M 177.5 451 L 178.5 485 L 181 483.5 L 180 486.5 L 180.5 488 L 178 486.5 L 179 493.5 L 177 494 L 177.5 451 Z " /><path fill="var(--primary)" stroke="rgb(255,0,255)" stroke-width="1" opacity="1" d="M 528.5 451 L 542 452.5 L 534.5 453 L 528.5 452 L 528.5 451 Z " /><path fill="var(--primary)" stroke="rgb(255,0,255)" stroke-width="1" opacity="1" d="M 714.5 451 L 718 452.5 L 718 490.5 L 713.5 491 L 713.5 490 L 717 489.5 L 717 452 L 714.5 451 Z " /><path fill="var(--primary)" stroke="rgb(255,0,255)" stroke-width="1" opacity="1" d="M 561.5 452 L 562 489.5 L 561 489.5 L 561.5 452 Z " /><path fill="var(--primary)" stroke="rgb(255,0,255)" stroke-width="1" opacity="1" d="M 563 452 L 565 452.5 L 563.5 490 L 563 452 Z " /><path fill="var(--primary)" stroke="rgb(255,0,255)" stroke-width="1" opacity="1" d="M 719.5 452 L 721 491.5 L 715 494 Q 713.6 490.3 719.5 492 L 719 490.5 L 719.5 452 Z " /><path fill="var(--primary)" stroke="rgb(255,0,255)" stroke-width="1" opacity="1" d="M 556.5 453 L 557 487.5 L 556 487.5 L 556.5 453 Z " /><path fill="var(--primary)" stroke="rgb(255,0,255)" stroke-width="1" opacity="1" d="M 517.5 456 L 518 492.5 L 517 492.5 L 517.5 456 Z " /><path fill="var(--primary)" stroke="rgb(255,0,255)" stroke-width="1" opacity="1" d="M 519.5 456 L 520 492 L 523 492.5 L 520.5 493 L 519 491.5 L 519.5 456 Z " /><path fill="var(--primary)" stroke="rgb(255,0,255)" stroke-width="1" opacity="1" d="M 742.5 457 L 743 493.5 L 742 493.5 L 742.5 457 Z " /><path fill="var(--primary)" stroke="rgb(255,0,255)" stroke-width="1" opacity="1" d="M 745.5 457 L 746 493.5 L 745 493.5 L 745.5 457 Z " /><path fill="var(--primary)" stroke="rgb(255,0,255)" stroke-width="1" opacity="1" d="M 749.5 458 L 751 458.5 L 749 459 L 750 494.5 L 748 493.5 L 748 459.5 L 749.5 458 Z " /><path fill="var(--primary)" stroke="rgb(255,0,255)" stroke-width="1" opacity="1" d="M 392 460 L 398 461.5 L 396.5 466 L 397 464.5 Q 398.6 458.8 393 461 L 392.5 465 L 392 460 Z " /><path fill="var(--primary)" stroke="rgb(255,0,255)" stroke-width="1" opacity="1" d="M 763.5 461 L 765 461.5 L 765 497 L 761 496.5 L 764 496 L 764 462.5 L 763.5 461 Z " /><path fill="var(--primary)" stroke="rgb(255,0,255)" stroke-width="1" opacity="1" d="M 767.5 462 L 768 496.5 L 767 496.5 L 767.5 462 Z " /><path fill="var(--primary)" stroke="rgb(255,0,255)" stroke-width="1" opacity="1" d="M 268 463 L 273 463.5 L 269 464 Q 267.2 469.3 274.5 467 L 274.5 468 Q 265.2 470.9 268 463 Z " /><path fill="var(--primary)" stroke="rgb(255,0,255)" stroke-width="1" opacity="1" d="M 255 464 Q 258.7 462.6 257 468.5 L 256 470.5 L 257 489 L 255 488.5 L 255 464 Z " /><path fill="var(--primary)" stroke="rgb(255,0,255)" stroke-width="1" opacity="1" d="M 393.5 466 L 393 467.5 Q 391.4 473.2 397 471 L 397.5 467 L 398 472 L 392 470.5 L 393.5 466 Z " /><path fill="var(--primary)" stroke="rgb(255,0,255)" stroke-width="1" opacity="1" d="M 290.5 467 L 291 472.5 L 289.5 472 L 282.5 473 L 282.5 472 L 288 472 Q 286.1 467.2 289.5 468 L 290.5 467 Z " /><path fill="var(--primary)" stroke="rgb(255,0,255)" stroke-width="1" opacity="1" d="M 467 469 L 473 469.5 L 468 470 Q 466.2 475.3 473.5 473 L 473.5 474 L 467 472.5 L 467 469 Z " /><path fill="var(--primary)" stroke="rgb(255,0,255)" stroke-width="1" opacity="1" d="M 829.5 474 L 831 475.5 L 831 503.5 L 830 503.5 L 830 475.5 L 829.5 474 Z " /><path fill="var(--primary)" stroke="rgb(255,0,255)" stroke-width="1" opacity="1" d="M 183.5 477 L 190 477.5 L 183 478 Q 181.2 482.9 187.5 481 L 187.5 482 Q 180.2 484.6 182 478.5 L 183.5 477 Z " /><path fill="var(--primary)" stroke="rgb(255,0,255)" stroke-width="1" opacity="1" d="M 235.5 478 Q 243.9 474.9 242 481.5 L 235.5 483 L 235.5 482 Q 242.8 484.3 241 479 Q 234.6 480.5 235.5 478 Z " /><path fill="var(--primary)" stroke="rgb(255,0,255)" stroke-width="1" opacity="1" d="M 269.5 481 L 278 481.5 L 269 482 Q 266.3 489.1 273.5 487 L 273.5 488 Q 265.3 490.8 268 482.5 L 269.5 481 Z " /><path fill="var(--primary)" stroke="rgb(255,0,255)" stroke-width="1" opacity="1" d="M 343.5 483 L 349 483.5 L 349 510.5 L 348 510.5 L 348 484.5 L 343.5 484 L 343.5 483 Z " /><path fill="var(--primary)" stroke="rgb(255,0,255)" stroke-width="1" opacity="1" d="M 350 483 L 356 483.5 L 351 484 L 350.5 512 L 350 483 Z " /><path fill="var(--primary)" stroke="rgb(255,0,255)" stroke-width="1" opacity="1" d="M 233.5 484 L 242 484 L 242 490 L 238 489.5 L 241 489 Q 243.3 481.8 233.5 485 L 233.5 484 Z " /><path fill="var(--primary)" stroke="rgb(255,0,255)" stroke-width="1" opacity="1" d="M 566.5 489 L 592 489.5 L 566.5 490 L 566.5 489 Z " /><path fill="var(--primary)" stroke="rgb(255,0,255)" stroke-width="1" opacity="1" d="M 613.5 489 L 638 490.5 L 626.5 491 L 613.5 490 L 613.5 489 Z " /><path fill="var(--primary)" stroke="rgb(255,0,255)" stroke-width="1" opacity="1" d="M 431.5 490 L 432 705 L 435 705.5 L 431 706 L 431.5 490 Z " /><path fill="var(--primary)" stroke="rgb(255,0,255)" stroke-width="1" opacity="1" d="M 433 490 L 436 490.5 L 434 491 L 434 514 L 444.5 514 L 444.5 515 L 433 515 L 433 490 Z " /><path fill="var(--primary)" stroke="rgb(255,0,255)" stroke-width="1" opacity="1" d="M 575.5 491 L 576 513 L 563 512.5 L 575 512 L 575.5 491 Z " /><path fill="var(--primary)" stroke="rgb(255,0,255)" stroke-width="1" opacity="1" d="M 577 491 L 586 491.5 L 578 492 L 578 512 L 584.5 512 L 584.5 513 L 577 513 L 577 491 Z " /><path fill="var(--primary)" stroke="rgb(255,0,255)" stroke-width="1" opacity="1" d="M 686 491 L 689 491.5 L 687 492 L 687 509.5 L 691.5 510 L 691.5 511 L 686 510.5 L 686 491 Z " /><path fill="var(--primary)" stroke="rgb(255,0,255)" stroke-width="1" opacity="1" d="M 466.5 493 L 482 494.5 L 474.5 495 L 466.5 494 L 466.5 493 Z " /><path fill="var(--primary)" stroke="rgb(255,0,255)" stroke-width="1" opacity="1" d="M 601.5 493 L 609 494.5 L 609 515 L 601.5 515 L 601.5 514 L 608 514 L 608 494 L 601.5 494 L 601.5 493 Z " /><path fill="var(--primary)" stroke="rgb(255,0,255)" stroke-width="1" opacity="1" d="M 469.5 495 L 470 515.5 L 469 515.5 L 469.5 495 Z " /><path fill="var(--primary)" stroke="rgb(255,0,255)" stroke-width="1" opacity="1" d="M 610.5 495 L 611 515.5 L 605 517 L 604.5 703 L 604 516 L 610 515.5 L 610.5 495 Z " /><path fill="var(--primary)" stroke="rgb(255,0,255)" stroke-width="1" opacity="1" d="M 755.5 497 L 769 498 Q 770.3 501.3 765.5 500 L 756.5 499 L 750.5 500 L 750.5 499 L 756 498.5 L 755.5 497 Z " /><path fill="var(--primary)" stroke="rgb(255,0,255)" stroke-width="1" opacity="1" d="M 793.5 504 L 794 518.5 L 792 519.5 L 793.5 504 Z " /><path fill="var(--primary)" stroke="rgb(255,0,255)" stroke-width="1" opacity="1" d="M 795.5 504 L 796 519.5 L 794 520.5 L 795.5 504 Z " /><path fill="var(--primary)" stroke="rgb(255,0,255)" stroke-width="1" opacity="1" d="M 324.5 511 L 340 511.5 L 324.5 512 L 324.5 511 Z " /><path fill="var(--primary)" stroke="rgb(255,0,255)" stroke-width="1" opacity="1" d="M 301.5 512 L 316 512.5 L 301.5 513 L 301.5 512 Z " /><path fill="var(--primary)" stroke="rgb(255,0,255)" stroke-width="1" opacity="1" d="M 686 512 L 693 512.5 L 687 513 L 687 703.5 L 688.5 705 L 691 706.5 L 689.5 707 L 686 705 L 686 512 Z " /><path fill="var(--primary)" stroke="rgb(255,0,255)" stroke-width="1" opacity="1" d="M 320.5 513 L 334.5 513 L 335 514.5 L 333.5 514 L 320.5 514 L 320.5 513 Z " /><path fill="var(--primary)" stroke="rgb(255,0,255)" stroke-width="1" opacity="1" d="M 534.5 513 L 553 513.5 L 534.5 514 L 534.5 513 Z " /><path fill="var(--primary)" stroke="rgb(255,0,255)" stroke-width="1" opacity="1" d="M 589.5 513 L 595 513.5 L 586.5 516 L 568.5 516 L 557 514.5 L 571.5 514 L 581.5 515 L 589.5 513 Z " /><path fill="var(--primary)" stroke="rgb(255,0,255)" stroke-width="1" opacity="1" d="M 867.5 513 L 871 514.5 L 871 525.5 L 867.5 526 L 867.5 525 L 870 524.5 L 870 514 L 867.5 513 Z " /><path fill="var(--primary)" stroke="rgb(255,0,255)" stroke-width="1" opacity="1" d="M 509.5 514 L 524 514.5 L 509.5 515 L 509.5 514 Z " /><path fill="var(--primary)" stroke="rgb(255,0,255)" stroke-width="1" opacity="1" d="M 697.5 514 L 698 700.5 L 696 701.5 L 697.5 514 Z " /><path fill="var(--primary)" stroke="rgb(255,0,255)" stroke-width="1" opacity="1" d="M 233.5 515 L 249 515.5 L 233.5 516 L 233.5 515 Z " /><path fill="var(--primary)" stroke="rgb(255,0,255)" stroke-width="1" opacity="1" d="M 482.5 515 L 501 515.5 L 482.5 516 L 482.5 515 Z " /><path fill="var(--primary)" stroke="rgb(255,0,255)" stroke-width="1" opacity="1" d="M 528.5 515 L 555 516.5 L 539.5 517 L 528.5 516 L 528.5 515 Z " /><path fill="var(--primary)" stroke="rgb(255,0,255)" stroke-width="1" opacity="1" d="M 254.5 516 L 269 516.5 L 254.5 517 L 254.5 516 Z " /><path fill="var(--primary)" stroke="rgb(255,0,255)" stroke-width="1" opacity="1" d="M 433.5 516 L 434 703 L 436 703.5 L 433 704 L 433.5 516 Z " /><path fill="var(--primary)" stroke="rgb(255,0,255)" stroke-width="1" opacity="1" d="M 508.5 516 L 528 517.5 L 504.5 518 L 504.5 517 L 508.5 516 Z " /><path fill="var(--primary)" stroke="rgb(255,0,255)" stroke-width="1" opacity="1" d="M 593.5 516 Q 601 514 603 517.5 L 603 701.5 L 601.5 703 L 599 701.5 L 599 555.5 L 597.5 554 L 540.5 554 L 539 555.5 L 539 694.5 L 532.5 695 L 514.5 693 L 513 691.5 L 514 667.5 L 513 658.5 L 514 656.5 L 513 654.5 L 513 652.5 L 514 605.5 L 513 581.5 L 514 578.5 L 513 520.5 L 514.5 519 L 593.5 516 Z M 594 520 L 539 522 L 539 550 L 541 551 L 550 550 L 599 550 L 599 522 L 594 520 Z M 534 522 L 517 523 L 517 551 L 535 551 L 536 550 L 536 524 L 534 522 Z M 518 554 L 517 689 L 530 691 L 536 691 L 536 556 L 535 554 L 521 554 L 520 557 L 520 687 L 519 688 L 518 554 Z " /><path fill="var(--primary)" stroke="rgb(255,0,255)" stroke-width="1" opacity="1" d="M 737.5 517 L 745 517.5 L 729.5 519 L 729.5 518 L 737.5 517 Z " /><path fill="var(--primary)" stroke="rgb(255,0,255)" stroke-width="1" opacity="1" d="M 166.5 518 L 183 518.5 L 166.5 519 L 166.5 518 Z " /><path fill="var(--primary)" stroke="rgb(255,0,255)" stroke-width="1" opacity="1" d="M 206.5 518 L 222 518.5 L 199.5 520 L 199.5 519 L 206.5 518 Z " /><path fill="var(--primary)" stroke="rgb(255,0,255)" stroke-width="1" opacity="1" d="M 275.5 518 L 291 518.5 L 275.5 519 L 275.5 518 Z " /><path fill="var(--primary)" stroke="rgb(255,0,255)" stroke-width="1" opacity="1" d="M 317.5 518 L 334.5 519 L 336 518.5 Q 334 522 326.5 520 L 317.5 519 L 317.5 518 Z " /><path fill="var(--primary)" stroke="rgb(255,0,255)" stroke-width="1" opacity="1" d="M 479.5 518 L 489 518.5 L 489 692.5 L 485.5 694 L 485.5 693 L 488 692.5 L 488 519 L 479.5 519 L 479.5 518 Z " /><path fill="var(--primary)" stroke="rgb(255,0,255)" stroke-width="1" opacity="1" d="M 491.5 518 L 500 518.5 L 491 519 L 491 692.5 L 495.5 693 L 495.5 694 L 490 692.5 L 490 519.5 L 491.5 518 Z " /><path fill="var(--primary)" stroke="rgb(255,0,255)" stroke-width="1" opacity="1" d="M 749.5 518 L 758 518.5 L 743.5 520 L 743.5 519 L 749.5 518 Z " /><path fill="var(--primary)" stroke="rgb(255,0,255)" stroke-width="1" opacity="1" d="M 249.5 519 L 267 519.5 L 249.5 520 L 249.5 519 Z " /><path fill="var(--primary)" stroke="rgb(255,0,255)" stroke-width="1" opacity="1" d="M 295.5 519 L 315 520.5 L 299.5 521 L 295.5 519 Z " /><path fill="var(--primary)" stroke="rgb(255,0,255)" stroke-width="1" opacity="1" d="M 717.5 519 L 718 558.5 L 717 558.5 L 717.5 519 Z " /><path fill="var(--primary)" stroke="rgb(255,0,255)" stroke-width="1" opacity="1" d="M 719 519 L 721 519.5 L 719.5 559 L 719 519 Z " /><path fill="var(--primary)" stroke="rgb(255,0,255)" stroke-width="1" opacity="1" d="M 762.5 519 Q 769.5 517.5 769 520.5 L 767.5 520 L 756.5 521 L 756.5 520 L 762.5 519 Z " /><path fill="var(--primary)" stroke="rgb(255,0,255)" stroke-width="1" opacity="1" d="M 770 519 L 773 519.5 L 773 679.5 Q 771.5 682.5 770 679.5 L 770 519 Z M 772 520 L 771 680 L 772 680 L 772 520 Z " /><path fill="var(--primary)" stroke="rgb(255,0,255)" stroke-width="1" opacity="1" d="M 774 519 L 779 519.5 L 775 520 L 774.5 673 L 774 519 Z " /><path fill="var(--primary)" stroke="rgb(255,0,255)" stroke-width="1" opacity="1" d="M 271.5 520 Q 282.6 518.4 289 521.5 L 275.5 522 L 271.5 520 Z " /><path fill="var(--primary)" stroke="rgb(255,0,255)" stroke-width="1" opacity="1" d="M 321.5 520 L 322 560.5 L 321 560.5 L 321.5 520 Z " /><path fill="var(--primary)" stroke="rgb(255,0,255)" stroke-width="1" opacity="1" d="M 722.5 520 L 723 558.5 L 722 558.5 L 722.5 520 Z " /><path fill="var(--primary)" stroke="rgb(255,0,255)" stroke-width="1" opacity="1" d="M 783.5 520 L 791 521.5 L 791 675.5 L 789.5 676 L 790 674.5 L 790 521.5 L 783.5 521 L 783.5 520 Z " /><path fill="var(--primary)" stroke="rgb(255,0,255)" stroke-width="1" opacity="1" d="M 203.5 521 L 221 521.5 L 203.5 522 L 203.5 521 Z " /><path fill="var(--primary)" stroke="rgb(255,0,255)" stroke-width="1" opacity="1" d="M 243.5 521 L 264 522.5 L 248.5 523 L 243.5 521 Z " /><path fill="var(--primary)" stroke="rgb(255,0,255)" stroke-width="1" opacity="1" d="M 291 521 L 293 521.5 L 292 561 L 295.5 562 L 299.5 561 L 301.5 562 L 303.5 561 L 321.5 563 L 324.5 561 L 327.5 562 L 336 562.5 L 322 563 L 322 603.5 L 320.5 604 L 321 602.5 L 321 563 L 292 563 L 292 601.5 L 297.5 602 L 297.5 603 L 275.5 604 L 275.5 603 L 291 602 L 291 563 L 264 563 L 264 600.5 L 272.5 601 L 272.5 602 L 264 603 L 265 641.5 L 255.5 643 L 255.5 642 L 263 641 L 263 603.5 L 252.5 603 L 252.5 602 L 263 601 L 263 563 L 239.5 563 L 238.5 561 L 291.5 562 L 291 560.5 L 291 521 Z " /><path fill="var(--primary)" stroke="rgb(255,0,255)" stroke-width="1" opacity="1" d="M 323 521 L 325 521.5 L 325 560 L 323 559.5 L 323 521 Z " /><path fill="var(--primary)" stroke="rgb(255,0,255)" stroke-width="1" opacity="1" d="M 326 521 L 336 521.5 L 327 522 L 327 559 L 342.5 559 L 342.5 560 L 326 560 L 326 521 Z " /><path fill="var(--primary)" stroke="rgb(255,0,255)" stroke-width="1" opacity="1" d="M 742.5 521 L 743 559 L 730 558.5 L 742 558 L 742.5 521 Z " /><path fill="var(--primary)" stroke="rgb(255,0,255)" stroke-width="1" opacity="1" d="M 745.5 521 L 746 559 L 744 558.5 L 745.5 521 Z " /><path fill="var(--primary)" stroke="rgb(255,0,255)" stroke-width="1" opacity="1" d="M 749.5 521 L 752 521.5 L 749 522 L 749 558 L 764 558 L 764 523.5 L 758.5 523 L 758.5 522 L 765 523.5 L 765 559 L 749.5 559 L 748 557.5 L 748 522.5 L 749.5 521 Z " /><path fill="var(--primary)" stroke="rgb(255,0,255)" stroke-width="1" opacity="1" d="M 792.5 521 L 793 674.5 L 794.5 676 L 796 676.5 L 794.5 677 L 792 676 L 792.5 521 Z " /><path fill="var(--primary)" stroke="rgb(255,0,255)" stroke-width="1" opacity="1" d="M 231.5 522 L 232 681 L 229 680.5 L 231 680 L 231.5 522 Z " /><path fill="var(--primary)" stroke="rgb(255,0,255)" stroke-width="1" opacity="1" d="M 294.5 522 L 294 523.5 L 295 532.5 L 294 558.5 L 294.5 560 L 293 558.5 L 293 523.5 L 294.5 522 Z " /><path fill="var(--primary)" stroke="rgb(255,0,255)" stroke-width="1" opacity="1" d="M 297.5 522 L 310 522.5 L 297 523 L 297 559 L 319 559 L 319.5 522 L 320 558.5 L 318.5 560 L 297.5 560 L 296 558.5 L 296 523.5 L 297.5 522 Z " /><path fill="var(--primary)" stroke="rgb(255,0,255)" stroke-width="1" opacity="1" d="M 569.5 522 L 592 522.5 L 569.5 523 L 569.5 522 Z " /><path fill="var(--primary)" stroke="rgb(255,0,255)" stroke-width="1" opacity="1" d="M 597.5 522 L 598 547.5 L 596.5 549 L 569.5 549 L 569.5 548 L 597 548 L 597.5 522 Z " /><path fill="var(--primary)" stroke="rgb(255,0,255)" stroke-width="1" opacity="1" d="M 766.5 522 L 768 523.5 L 768 559 L 766 558.5 L 767 523.5 L 766.5 522 Z " /><path fill="var(--primary)" stroke="rgb(255,0,255)" stroke-width="1" opacity="1" d="M 266.5 523 L 266 524.5 L 267 535.5 L 266 541.5 L 267 554.5 L 266 558.5 L 266.5 560 L 265 558.5 L 265 524.5 L 266.5 523 Z " /><path fill="var(--primary)" stroke="rgb(255,0,255)" stroke-width="1" opacity="1" d="M 269.5 523 L 286 523.5 L 269 524 L 269 559 L 289.5 559 L 289.5 560 L 269.5 560 L 268 558.5 L 268 524.5 L 269.5 523 Z " /><path fill="var(--primary)" stroke="rgb(255,0,255)" stroke-width="1" opacity="1" d="M 541.5 523 L 542 549 L 540 548.5 L 540 524.5 L 541.5 523 Z " /><path fill="var(--primary)" stroke="rgb(255,0,255)" stroke-width="1" opacity="1" d="M 543 523 L 558 523.5 L 544 524 L 543.5 549 L 543 523 Z " /><path fill="var(--primary)" stroke="rgb(255,0,255)" stroke-width="1" opacity="1" d="M 243.5 524 L 258 524.5 L 243 525 L 243 559 L 261.5 559 L 261.5 560 L 242 560 L 242 525.5 L 243.5 524 Z " /><path fill="var(--primary)" stroke="rgb(255,0,255)" stroke-width="1" opacity="1" d="M 263.5 524 L 265 560.5 L 263 561 L 263.5 524 Z " /><path fill="var(--primary)" stroke="rgb(255,0,255)" stroke-width="1" opacity="1" d="M 518 524 L 520 524.5 L 520 549 L 518 548.5 L 518 524 Z " /><path fill="var(--primary)" stroke="rgb(255,0,255)" stroke-width="1" opacity="1" d="M 833.5 524 L 837 525.5 L 837 662.5 L 833.5 663 L 833.5 662 L 836 661.5 L 836 525 L 833.5 524 Z " /><path fill="var(--primary)" stroke="rgb(255,0,255)" stroke-width="1" opacity="1" d="M 239 525 L 241 525.5 L 241 559 L 239 558.5 L 239 525 Z " /><path fill="var(--primary)" stroke="rgb(255,0,255)" stroke-width="1" opacity="1" d="M 838.5 525 L 839 662.5 L 838 662.5 L 838.5 525 Z " /><path fill="var(--primary)" stroke="rgb(255,0,255)" stroke-width="1" opacity="1" d="M 521.5 526 L 522 540.5 L 521 540.5 L 521.5 526 Z " /><path fill="var(--primary)" stroke="rgb(255,0,255)" stroke-width="1" opacity="1" d="M 829.5 527 L 831 528.5 L 831 558 L 829 557.5 L 830 528.5 L 829.5 527 Z " /><path fill="var(--primary)" stroke="rgb(255,0,255)" stroke-width="1" opacity="1" d="M 868.5 527 L 869 653.5 L 866.5 655 L 866.5 654 L 868 653.5 L 868.5 527 Z " /><path fill="var(--primary)" stroke="rgb(255,0,255)" stroke-width="1" opacity="1" d="M 870.5 527 L 871 653 L 876 653.5 L 870 654 L 870.5 527 Z " /><path fill="var(--primary)" stroke="rgb(255,0,255)" stroke-width="1" opacity="1" d="M 827.5 543 L 828 561.5 L 827 561.5 L 827.5 543 Z " /><path fill="var(--primary)" stroke="rgb(255,0,255)" stroke-width="1" opacity="1" d="M 534.5 556 L 535 687.5 L 529.5 689 L 529.5 688 L 534 687.5 L 534.5 556 Z " /><path fill="var(--primary)" stroke="rgb(255,0,255)" stroke-width="1" opacity="1" d="M 541 556 L 596.5 556 L 598 557.5 L 597 667.5 L 598 674.5 L 598 676.5 L 597 702 L 541 696 L 540 674.5 L 541 574.5 L 540 564.5 L 541 556 Z M 545 585 L 543 587 L 543 666 L 547 666 L 549 663 L 547 662 L 549 661 L 548 659 L 547 593 Q 552 590 549 588 L 548 590 L 547 590 L 548 587 L 545 585 Z " /><path fill="var(--primary)" stroke="rgb(255,0,255)" stroke-width="1" opacity="1" d="M 704.5 560 L 767.5 561 L 769 560.5 L 768.5 562 L 758.5 562 L 704.5 561 L 704.5 560 Z " /><path fill="var(--primary)" stroke="rgb(255,0,255)" stroke-width="1" opacity="1" d="M 521.5 562 L 522 683.5 L 521 683.5 L 521.5 562 Z " /><path fill="var(--primary)" stroke="rgb(255,0,255)" stroke-width="1" opacity="1" d="M 699.5 562 L 728 562.5 L 723 563 L 723 602.5 L 728.5 603 L 733 604.5 L 727.5 605 L 722 604 L 722 563 L 699.5 563 L 699.5 562 Z " /><path fill="var(--primary)" stroke="rgb(255,0,255)" stroke-width="1" opacity="1" d="M 829.5 562 L 831 563.5 L 831 590.5 L 829 591.5 L 830 563.5 L 829.5 562 Z " /><path fill="var(--primary)" stroke="rgb(255,0,255)" stroke-width="1" opacity="1" d="M 738.5 563 L 743 564.5 L 742.5 600 L 742 564 L 738.5 563 Z " /><path fill="var(--primary)" stroke="rgb(255,0,255)" stroke-width="1" opacity="1" d="M 744.5 563 L 746 563.5 L 746 600 L 744 599.5 L 745 564.5 L 744.5 563 Z " /><path fill="var(--primary)" stroke="rgb(255,0,255)" stroke-width="1" opacity="1" d="M 749.5 563 L 765 563 L 765 598 L 762 597.5 L 764 597 L 764 564 L 749 564 L 748.5 599 L 748 564.5 L 749.5 563 Z " /><path fill="var(--primary)" stroke="rgb(255,0,255)" stroke-width="1" opacity="1" d="M 766.5 563 L 768 563.5 L 768 598 L 766 597.5 L 767 564.5 L 766.5 563 Z " /><path fill="var(--primary)" stroke="rgb(255,0,255)" stroke-width="1" opacity="1" d="M 239 564 L 241 564.5 L 241 599 L 239 598.5 L 239 564 Z " /><path fill="var(--primary)" stroke="rgb(255,0,255)" stroke-width="1" opacity="1" d="M 242.5 564 L 243 598 L 248 598.5 L 242 599 L 242.5 564 Z " /><path fill="var(--primary)" stroke="rgb(255,0,255)" stroke-width="1" opacity="1" d="M 265.5 564 L 267 594.5 L 266 598.5 L 266.5 600 L 265 599.5 L 265.5 564 Z " /><path fill="var(--primary)" stroke="rgb(255,0,255)" stroke-width="1" opacity="1" d="M 268.5 564 L 269 599.5 L 268 599.5 L 268.5 564 Z " /><path fill="var(--primary)" stroke="rgb(255,0,255)" stroke-width="1" opacity="1" d="M 270.5 564 L 290 564.5 L 270.5 565 L 270.5 564 Z " /><path fill="var(--primary)" stroke="rgb(255,0,255)" stroke-width="1" opacity="1" d="M 293 564 L 295 564.5 L 295 580.5 L 293.5 601 L 293 564 Z " /><path fill="var(--primary)" stroke="rgb(255,0,255)" stroke-width="1" opacity="1" d="M 296 564 L 320 564 L 320 601.5 L 319 601.5 L 319 565 L 297 565 L 296.5 601 L 296 564 Z " /><path fill="var(--primary)" stroke="rgb(255,0,255)" stroke-width="1" opacity="1" d="M 323.5 564 L 325 564.5 L 325 602 L 323 601.5 L 323 566.5 L 323.5 564 Z " /><path fill="var(--primary)" stroke="rgb(255,0,255)" stroke-width="1" opacity="1" d="M 326 564 L 343.5 564 L 345 565.5 L 344.5 568 L 344 565 L 327 565 L 327 602 L 342 602.5 L 327.5 603 L 326 601.5 L 326 564 Z " /><path fill="var(--primary)" stroke="rgb(255,0,255)" stroke-width="1" opacity="1" d="M 717.5 564 L 718 601.5 L 717 601.5 L 717.5 564 Z " /><path fill="var(--primary)" stroke="rgb(255,0,255)" stroke-width="1" opacity="1" d="M 719.5 564 L 721 601.5 L 719 602 L 719.5 564 Z " /><path fill="var(--primary)" stroke="rgb(255,0,255)" stroke-width="1" opacity="1" d="M 289.5 568 L 290 584.5 L 289 584.5 L 289.5 568 Z " /><path fill="var(--primary)" stroke="rgb(255,0,255)" stroke-width="1" opacity="1" d="M 675.5 583 L 676 627.5 L 675 627.5 L 675.5 583 Z " /><path fill="var(--primary)" stroke="rgb(255,0,255)" stroke-width="1" opacity="1" d="M 544 587 L 546 587.5 L 546 663.5 L 544 664.5 L 544 587 Z " /><path fill="var(--primary)" stroke="rgb(255,0,255)" stroke-width="1" opacity="1" d="M 829.5 596 L 831 596.5 L 831 624.5 L 830 624.5 L 830 597.5 L 829.5 596 Z " /><path fill="var(--primary)" stroke="rgb(255,0,255)" stroke-width="1" opacity="1" d="M 742.5 601 L 754 602.5 L 746.5 604 L 746.5 602 Q 741.5 603 742.5 601 Z " /><path fill="var(--primary)" stroke="rgb(255,0,255)" stroke-width="1" opacity="1" d="M 766.5 602 L 768 603.5 L 768 637 L 766 636.5 L 767 603.5 L 766.5 602 Z " /><path fill="var(--primary)" stroke="rgb(255,0,255)" stroke-width="1" opacity="1" d="M 239 603 L 241 603.5 L 241 638 L 239 637.5 L 239 603 Z " /><path fill="var(--primary)" stroke="rgb(255,0,255)" stroke-width="1" opacity="1" d="M 242 603 L 248 603.5 L 243 604 L 243 636.5 L 246.5 637 L 246.5 638 L 242 637.5 L 242 603 Z " /><path fill="var(--primary)" stroke="rgb(255,0,255)" stroke-width="1" opacity="1" d="M 308.5 603 L 319 603.5 L 295.5 605 L 294 606.5 L 295 613.5 L 294 616.5 L 295 632.5 L 295 634.5 L 294 641.5 L 294.5 643 L 293 641.5 L 293 605 L 308.5 603 Z " /><path fill="var(--primary)" stroke="rgb(255,0,255)" stroke-width="1" opacity="1" d="M 764.5 603 L 765 636.5 L 764 636.5 L 764.5 603 Z " /><path fill="var(--primary)" stroke="rgb(255,0,255)" stroke-width="1" opacity="1" d="M 269.5 604 L 269 605.5 L 268.5 640 L 268 605.5 L 269.5 604 Z " /><path fill="var(--primary)" stroke="rgb(255,0,255)" stroke-width="1" opacity="1" d="M 291.5 604 L 292 642.5 L 293.5 644 L 300 644.5 L 292 646 L 291.5 684 L 291 646 L 289 645.5 L 292 644.5 L 291.5 604 Z " /><path fill="var(--primary)" stroke="rgb(255,0,255)" stroke-width="1" opacity="1" d="M 328.5 604 L 342 604.5 L 322 606 L 322 646.5 L 317.5 647 L 311.5 648 L 311.5 647 L 321 646 L 321 606.5 L 318.5 606 L 318.5 605 L 328.5 604 Z " /><path fill="var(--primary)" stroke="rgb(255,0,255)" stroke-width="1" opacity="1" d="M 711.5 604 L 723 605 L 723 645.5 L 725.5 646 L 729 647.5 L 726.5 648 L 722.5 647 L 723 648.5 L 722.5 689 L 722 648 L 718 647.5 L 722 647 L 722 606.5 L 718.5 606 L 711.5 605 L 711.5 604 Z " /><path fill="var(--primary)" stroke="rgb(255,0,255)" stroke-width="1" opacity="1" d="M 744.5 604 L 746 605.5 L 746 641 L 744 640.5 L 745 605.5 L 744.5 604 Z " /><path fill="var(--primary)" stroke="rgb(255,0,255)" stroke-width="1" opacity="1" d="M 749.5 604 L 752 604.5 L 749 605 L 749 638.5 L 750.5 639 L 750.5 640 L 748 638.5 L 748 605.5 L 749.5 604 Z " /><path fill="var(--primary)" stroke="rgb(255,0,255)" stroke-width="1" opacity="1" d="M 742.5 605 L 743 640.5 L 742 640.5 L 742.5 605 Z " /><path fill="var(--primary)" stroke="rgb(255,0,255)" stroke-width="1" opacity="1" d="M 266.5 606 L 267 635.5 L 265.5 639 L 265 608.5 L 266.5 606 Z " /><path fill="var(--primary)" stroke="rgb(255,0,255)" stroke-width="1" opacity="1" d="M 296.5 606 L 297 642 L 304 642.5 L 297.5 643 L 296 641.5 L 296.5 606 Z " /><path fill="var(--primary)" stroke="rgb(255,0,255)" stroke-width="1" opacity="1" d="M 319.5 607 L 320 643.5 L 318 644.5 L 319.5 607 Z " /><path fill="var(--primary)" stroke="rgb(255,0,255)" stroke-width="1" opacity="1" d="M 323 607 L 325 607.5 L 325 645 L 323 644.5 L 323 607 Z " /><path fill="var(--primary)" stroke="rgb(255,0,255)" stroke-width="1" opacity="1" d="M 326 607 L 333 607.5 L 327 608 L 326.5 645 L 326 607 Z " /><path fill="var(--primary)" stroke="rgb(255,0,255)" stroke-width="1" opacity="1" d="M 716.5 607 L 718 607.5 L 718 644.5 L 713.5 646 L 713.5 645 L 717 644.5 L 717 608.5 L 716.5 607 Z " /><path fill="var(--primary)" stroke="rgb(255,0,255)" stroke-width="1" opacity="1" d="M 719 607 L 721 607.5 L 719.5 645 L 719 607 Z " /><path fill="var(--primary)" stroke="rgb(255,0,255)" stroke-width="1" opacity="1" d="M 343.5 608 L 351 608.5 L 351 646.5 L 350 646.5 L 350 609.5 L 343.5 609 L 343.5 608 Z " /><path fill="var(--primary)" stroke="rgb(255,0,255)" stroke-width="1" opacity="1" d="M 352.5 608 L 354 609.5 L 354 646.5 L 353 649 L 355 649.5 L 353.5 650 L 351.5 650 L 343.5 651 L 343.5 650 L 352 649 L 352.5 608 Z " /><path fill="var(--primary)" stroke="rgb(255,0,255)" stroke-width="1" opacity="1" d="M 237.5 617 L 238 639 L 242 639.5 L 238 641 L 237.5 644 L 237 641.5 L 238 639.5 L 237.5 617 Z " /><path fill="var(--primary)" stroke="rgb(255,0,255)" stroke-width="1" opacity="1" d="M 829 627 L 831 627.5 L 830 629.5 L 831 646.5 L 830 646.5 L 829 627 Z " /><path fill="var(--primary)" stroke="rgb(255,0,255)" stroke-width="1" opacity="1" d="M 359.5 631 L 360 633.5 L 357.5 648 L 357 633.5 L 359 633.5 L 359.5 631 Z " /><path fill="var(--primary)" stroke="rgb(255,0,255)" stroke-width="1" opacity="1" d="M 675.5 633 L 676 691.5 L 675 691.5 L 675.5 633 Z " /><path fill="var(--primary)" stroke="rgb(255,0,255)" stroke-width="1" opacity="1" d="M 239 642 L 241 642.5 L 241 677 L 239 676.5 L 239 642 Z " /><path fill="var(--primary)" stroke="rgb(255,0,255)" stroke-width="1" opacity="1" d="M 746 642 L 751 643.5 L 748.5 644 L 745.5 645 L 740 643.5 L 742.5 643 L 746 644 L 746 642 Z " /><path fill="var(--primary)" stroke="rgb(255,0,255)" stroke-width="1" opacity="1" d="M 763.5 642 L 765 643.5 L 765 676.5 L 762.5 678 L 762.5 677 L 764 676.5 L 764 643.5 L 763.5 642 Z " /><path fill="var(--primary)" stroke="rgb(255,0,255)" stroke-width="1" opacity="1" d="M 766.5 642 L 768 642.5 L 768 676.5 L 766 677.5 L 767 643.5 L 766.5 642 Z " /><path fill="var(--primary)" stroke="rgb(255,0,255)" stroke-width="1" opacity="1" d="M 242.5 643 L 243 676.5 L 242 676.5 L 242.5 643 Z " /><path fill="var(--primary)" stroke="rgb(255,0,255)" stroke-width="1" opacity="1" d="M 263 643 L 265 643.5 L 263.5 680 L 263 643 Z " /><path fill="var(--primary)" stroke="rgb(255,0,255)" stroke-width="1" opacity="1" d="M 268.5 645 L 269 680 L 274 680.5 L 269.5 681 L 268 679.5 L 268.5 645 Z " /><path fill="var(--primary)" stroke="rgb(255,0,255)" stroke-width="1" opacity="1" d="M 749.5 645 L 749 646.5 L 750 681.5 L 748 680.5 L 748 646.5 L 749.5 645 Z " /><path fill="var(--primary)" stroke="rgb(255,0,255)" stroke-width="1" opacity="1" d="M 741.5 646 L 743 647.5 L 743 682.5 L 740.5 684 L 740.5 683 L 742 682.5 L 742 647.5 L 741.5 646 Z " /><path fill="var(--primary)" stroke="rgb(255,0,255)" stroke-width="1" opacity="1" d="M 745.5 646 L 746 682.5 L 744 683.5 L 745.5 646 Z " /><path fill="var(--primary)" stroke="rgb(255,0,255)" stroke-width="1" opacity="1" d="M 293 647 L 295 647.5 L 295 649.5 L 293.5 684 L 293 647 Z " /><path fill="var(--primary)" stroke="rgb(255,0,255)" stroke-width="1" opacity="1" d="M 327.5 647 L 334 647.5 L 322 649 L 323 689.5 L 315.5 691 L 315.5 690 L 321 689 L 320 648.5 L 327.5 647 Z " /><path fill="var(--primary)" stroke="rgb(255,0,255)" stroke-width="1" opacity="1" d="M 265.5 648 L 267 656.5 L 266 671.5 L 267 677.5 L 266 679.5 L 266.5 681 L 265 679.5 L 265.5 648 Z " /><path fill="var(--primary)" stroke="rgb(255,0,255)" stroke-width="1" opacity="1" d="M 296.5 648 L 297 683.5 L 296 683.5 L 296.5 648 Z " /><path fill="var(--primary)" stroke="rgb(255,0,255)" stroke-width="1" opacity="1" d="M 313.5 649 L 320 650.5 L 320 686.5 L 315.5 687 L 315.5 686 L 319 685.5 L 319 650 Q 312.6 651.5 313.5 649 Z " /><path fill="var(--primary)" stroke="rgb(255,0,255)" stroke-width="1" opacity="1" d="M 323 650 L 325 650.5 L 325 688 L 323 687.5 L 323 650 Z " /><path fill="var(--primary)" stroke="rgb(255,0,255)" stroke-width="1" opacity="1" d="M 326 650 L 329 650.5 L 327 651 L 326.5 688 L 326 650 Z " /><path fill="var(--primary)" stroke="rgb(255,0,255)" stroke-width="1" opacity="1" d="M 360.5 650 L 361.5 652 L 359.5 652 L 354 652.5 L 354 691.5 L 353.5 694 L 344.5 695 L 344.5 694 L 352 693 L 352 651.5 L 359.5 651 L 360.5 650 Z " /><path fill="var(--primary)" stroke="rgb(255,0,255)" stroke-width="1" opacity="1" d="M 715.5 651 L 718 651.5 L 718 689.5 L 717 689.5 L 717 652.5 L 715.5 652 L 715.5 651 Z " /><path fill="var(--primary)" stroke="rgb(255,0,255)" stroke-width="1" opacity="1" d="M 344.5 652 L 351 653.5 L 350.5 691 L 350 653 Q 343.6 654.5 344.5 652 Z " /><path fill="var(--primary)" stroke="rgb(255,0,255)" stroke-width="1" opacity="1" d="M 719.5 652 L 721 689.5 L 719 690 L 719.5 652 Z " /><path fill="var(--primary)" stroke="rgb(255,0,255)" stroke-width="1" opacity="1" d="M 875.5 656 L 876 684.5 L 875 684.5 L 875.5 656 Z " /><path fill="var(--primary)" stroke="rgb(255,0,255)" stroke-width="1" opacity="1" d="M 356.5 662 L 357 688.5 L 356 688.5 L 356.5 662 Z " /><path fill="var(--primary)" stroke="rgb(255,0,255)" stroke-width="1" opacity="1" d="M 237.5 667 L 238 678.5 L 239.5 680 L 245.5 679 L 245.5 680 L 239.5 681 L 236 679.5 L 237 674.5 L 237 672.5 L 237.5 667 Z " /><path fill="var(--primary)" stroke="rgb(255,0,255)" stroke-width="1" opacity="1" d="M 785.5 676 L 792 677.5 L 773.5 683 L 774.5 681 L 781 679.5 L 779 678.5 L 780.5 678 L 784.5 679 L 788 677.5 L 785.5 676 Z " /><path fill="var(--primary)" stroke="rgb(255,0,255)" stroke-width="1" opacity="1" d="M 211.5 679 L 212 703 L 209 702.5 L 211 702 L 211.5 679 Z " /><path fill="var(--primary)" stroke="rgb(255,0,255)" stroke-width="1" opacity="1" d="M 213 681 L 217 681.5 L 214 682 L 213.5 715 L 213 681 Z " /><path fill="var(--primary)" stroke="rgb(255,0,255)" stroke-width="1" opacity="1" d="M 940.5 690 L 946 691.5 L 946 706.5 L 944.5 708 L 945 706.5 L 945 691.5 L 940.5 691 L 940.5 690 Z " /><path fill="var(--primary)" stroke="rgb(255,0,255)" stroke-width="1" opacity="1" d="M 939.5 692 L 944 693 L 944 705.5 L 942.5 707 L 939 708.5 L 941 709.5 L 934.5 713 L 934.5 711 L 920.5 718 L 921.5 716 L 943 706 L 943 694.5 L 941.5 694 L 939.5 695 L 939.5 694 L 941 693.5 L 939.5 692 Z " /><path fill="var(--primary)" stroke="rgb(255,0,255)" stroke-width="1" opacity="1" d="M 699.5 701 L 699.5 703 L 702 703.5 L 699.5 704 L 698 703.5 L 696.5 705 L 692 702.5 L 694.5 702 L 697.5 703 L 699.5 701 Z " /><path fill="var(--primary)" stroke="rgb(255,0,255)" stroke-width="1" opacity="1" d="M 447 703 L 450 703.5 L 448 704 L 448 712 L 451.5 712 L 451.5 713 L 447 711.5 L 447 703 Z " /><path fill="var(--primary)" stroke="rgb(255,0,255)" stroke-width="1" opacity="1" d="M 208.5 704 L 212 704 L 212 715.5 L 214.5 716 L 214.5 717 L 211 715.5 L 211 705.5 L 208.5 705 L 208.5 704 Z " /><path fill="var(--primary)" stroke="rgb(255,0,255)" stroke-width="1" opacity="1" d="M 669.5 710 L 672 710.5 L 669 711.5 L 669.5 713 L 660 711.5 L 669.5 710 Z " /><path fill="var(--primary)" stroke="rgb(255,0,255)" stroke-width="1" opacity="1" d="M 870.5 744 L 869.5 746 L 851.5 755 L 851.5 753 L 848 754.5 L 850 755.5 L 843.5 759 L 843.5 757 L 839.5 759 L 840.5 757 L 856.5 749 L 856.5 751 L 870.5 744 Z " /><path fill="var(--primary)" stroke="rgb(255,0,255)" stroke-width="1" opacity="1" d="M 368.5 767 L 371 767.5 L 354 773 Q 352.7 769.7 357.5 771 L 368.5 767 Z " /><path fill="var(--primary)" stroke="rgb(255,0,255)" stroke-width="1" opacity="1" d="M 801.5 779 L 800.5 781 L 790.5 786 L 790.5 784 L 786.5 786 L 787.5 784 L 795.5 780 L 795.5 782 L 801.5 779 Z " /><path fill="var(--primary)" stroke="rgb(255,0,255)" stroke-width="1" opacity="1" d="M 745.5 780 L 747 780.5 L 743 782.5 L 745 783.5 L 739.5 786 L 739.5 785 L 743 783.5 L 741 782.5 L 745.5 780 Z " /><path fill="var(--primary)" stroke="rgb(255,0,255)" stroke-width="1" opacity="1" d="M 556.5 797 L 558 797.5 L 554 799.5 L 556 800.5 L 550.5 803 L 550.5 802 L 554 800.5 L 552 799.5 L 556.5 797 Z " /><path fill="var(--primary)" stroke="rgb(255,0,255)" stroke-width="1" opacity="1" d="M 752.5 804 L 751.5 806 L 725.5 819 L 725.5 817 L 714 822.5 L 716 823.5 L 713.5 825 L 713.5 823 L 709.5 825 L 710.5 823 L 738.5 809 L 738.5 811 L 752.5 804 Z " /><path fill="var(--primary)" stroke="rgb(255,0,255)" stroke-width="1" opacity="1" d="M 671.5 845 L 670.5 847 L 642.5 861 L 642.5 859 L 630.5 865 L 631.5 863 L 657.5 850 L 657.5 852 L 671.5 845 Z " /></svg>