<svg xmlns="http://www.w3.org/2000/svg" viewBox="0 0 1024 1024"><path fill="#1a190f" stroke="#1a190f" d="m630.5 253 6 1 3-1q39.6.4 70 10l2-1 7 3 3-1v2l3-1q25.9 6.6 41.5 23.5l.5 1.5 2.5 1.5 3.5 6.5 1.5.5q7.9 13.6 10 33v2l1 13-2 10 1 2-7 40-5 16q1.6 27.1-3 48l-8 32-22 43-50.5 76.5-2.5-.5 10.5-14.5 2.5-1.5-1-2 12-18-3 2-60 68-64 81 2.5-1.5 1.5-.5 47.5-50.5 3.5-1.5q-2.7-1.8 1.5-3.5l2.5-.5-1-2 41.5-50.5-.5 1.5v3l-14 19-37.5 41.5-1.5.5-2.5 4.5-5.5 4.5-8.5 10.5-1.5.5-18.5 20.5-1.5.5q-28.9 28.1-51.5 62.5l-2 1-1.5-2.5 30-41 69-86-39 38-11.5 12.5-19.5 18.5-17 27 5 4-1.5 2.5-6-3-4 2-.5-2.5 1-3-1.5-.5-12.5 15.5 8 10-3.5 1.5-10-4-5 6-1.5-.5 3-8-16.5-12.5-3 1-.5-1.5q3.2-2.3-2.5-4.5l-53-42 9.5 10.5 21 25-1.5.5-24-26-3.5-2.5-18.5-21.5-45.5-38.5-5.5-6.5-2.5-1.5-.5-1.5-6.5-4.5-2.5-3.5-2.5-1.5-1.5-2.5-6.5-5.5-.5-1.5-4.5-3.5-41-48q-16.7-22.8-28-51l-18-26q-10-18-15-41l-1-31q4.3-28.7 16-50v-7l10-38q9.2-23.8 24.5-41.5l19-13 22-5h2l16-1 19-9 15-2h2l19 1h2l4 1h2q39.1 6.4 60.5 30.5l34.5 63.5 28-52 1.5-.5 2.5-3.5 1.5-.5 4.5-8.5 4.5-3.5 7.5-8.5 2.5-1.5 3.5-4.5 1.5-.5.5-1.5 12.5-7.5.5-1.5 10-6 25-8h2l4-1h2zm6.5 2q-42 3-65 25-20 18-35 42l-18 34-4 10v5h2l5-8 9-25 21-28q23-23 55-38 26-12 62-14l-25-2h-2zm26 6q-25 2-43 9v1l5-1 20 1 13-2q37-1 61 13h1q-9-12-23-18-13-6-34-3Zm40 2 18 14 4 7 20 12q14 14 18 38l1 34q7 16 8 38 9-25 10-59v-2l1-3q-2-37-22-55-22-19-58-24Zm-316 6-23 7v1l22-5h15l22 6q21 10 37 26h2q8-1 11 3 16 19 28 43l2 1-27-49q-17-17-40-27l-29-6zm271 3v1l17 5 19-1 2 1h3q-16-8-41-6Zm-31 1q-26 3-41 17l-8 9h-1l-5 6-3 2 1 1q17-14 40-24l30-10zm-243 3 3 2q22 3 39 11l31 19h1q-14-16-34-26l-20-6zm-12 4 2 2 16 3h11l-19-5zm312 0 1 2 27 11 20 13 3 3-9-17q-12-15-42-12Zm-346 1-23 5-11 7q-22 20-32 51l1 2q7-16 19-28 20-25 52-36zm25 1-11 5-1 2 25-4zm-14 1q-26 10-44 26-27 23-38 61h2q14-30 34-53l16-14 13-6 19-13zm288 0q-22 5-36 16v1l18-5h6l28-11zm33 1 42 25 1-2 1 4 11 7h1l-1-2q-15-16-34-27-9-5-21-5Zm-11 1-22 8q30-2 50 6h2q-12-10-30-14Zm-260 1-1 2 28 7h2q-11-8-29-9Zm-31 4v1h11l24 4h3q-15-7-38-5Zm364 1q17 23 28 55h1q-1-27-13-42zm-374 4-13 3-10 11 1 1 15-4 2 1q10-8 26-11zm216 1-14 11q-19 16-30 41l1 3q18-28 40-51l4-3zm-188 1-19 6v1l13-1 3-1 9 1 13-3zm29 0 7 3h3zm218 0q-13 1-20 7l-27 17-1 2 6-2 2 1 12-1q20-13 49-18l28 1 25 11h2q-26-22-76-18Zm-294 2-20 14-4 5 15-7 9-10zm70 3-21 6q15 2 25 9l1 2q-13-8-30-10-30 12-50 34l-24 29-2 13h-2l1-4v-2q-13 11-11 36v2l-1 5v2l2 22-1 2 1 11v2l5 24 29 51q4 1 1 3l-7-11-1-3-2-4-2-2-13-21h-1q10 38 29 68h2l2 4 6 4v2l20 16 3 3-30-45 1-2v2l2-1v4h2l-1 2h2l-1 2h3l3 8h2v3h2l-1 2 7 9 1 3h2l2 5h2l8 14 52 46v2l3 1v2l5 3v2l3 1 24 27h2l1 3 11 9 3 5q20 19 46 34l3-4 2-1 45-52 3-2 4-5 2-1 20-24 35-56 2-1 74-112 9-27 1-35 2-1v5l-1 18 1 12 9-64q1-17-3-28l-12-30-3-2 4 20v6l-6-29-24-13-16-4-25 1-32 11-1 2 11-1h2l27 4 25 12v2l14 9v2h2v2h2l4 7h2l3 7h2q10 13 12 35v2l1 11 1 1-7-28q-5-18-16-29-16-19-39-29l-32-6-21 1q-21 10-37 24-23 18-35 47l-3 1-2-2 2-5v-2l-7 10 5 13h-3l-4-6-2 3 2 7-3 1-9-19-2 1 2 7-1 5-3-4-5 12 1 7h-4q1-14 6-22v-3l-2 1-3-1 2-5-9-24-19-26-13-13-2 1 2 5 4 2 19 21 6 8v3h-1l-17-20-4-4h-2l21 33 11 10v2l-4-1q-23-25-39-56-18-18-47-24l1-2 19 7h1l-18-12zm198 0q-21 6-35 19l-9 10-3 2-1 2-1 2 52-34zm-185 1q12 10 30 17v-1q-12-11-30-16Zm-39 1-10 2 7 1 10-2v-1l-5 1zm81 3 8 11 3 1 14 18 3 2-15-22-8-9zm264 0 14 24 2 1-5-14zm-364 1q-17 2-24 12l-22 25q-6 6-7 18l1 2 12-15 12-11v-1l10-8v-1l21-15 10-4-2-1h-2zm376 2 1 6 3 2zm-398 1-12 4q-24 32-41 70l-10 32 4 17 19-65q8-22 22-37l21-20zm375 6 20 18v-1zm-395 1-16 11q-20 17-28 46h2l4-7 3-2q-7 9-10 23l2 16 5-16 30-56-1-2 1-2 2 1 7-11zm272 5-5 1h-2l-8 2-31 21q-16 14-22 38l1 6 9-13q2-5 4-2l22-26 15-14-3 5 25-17zm152 1q2 19 12 32h1q-3-20-13-32Zm-21 5 11 31q3-4 1-13h1l-1 16 2 26v2l1 3q1 17-3 30l-12 35q-3 21-10 38l1 1 24-48 4-13 6-41q1-36-13-56zm-232 10 5 11 3 2zm3 15 1 6 3 2zm-186 5-7 17 1 2q5-6 6-16zm447 1 2 13h1q1-9-3-13Zm-4 7 1 17-1 5 1 24 3-11q2-22-4-35Zm-484 7q-6 6-6 18l1 5 5-20zm468 13-8 51 1 4 8-36zm-463 2-2 11-1 3 1 4 2-12zm490 0q-2 27-7 51l-19 57 1 2q21-41 26-97l-1-2 1-3-1-2 1-2zm-504 6-5 10-7 29q-2 25 4 42 7 24 20 42l2 1-9-33-3-20 1-4-7-23v-20l2 1-1 6 3 22h1zm508 3q-1 24-7 42l1 4 7-25zm-492 4-1 15h1zm-7 4-2 12-1 3 1 6v2l-1 2 5 27h1zm24 2-8 28 1 11 9 23h1q-4-21-3-46zm463 8-4 11 1 8 3-15zm-478 5-3 16v12l6 25h1l-1-8 1-22zm491 8q-11 27-16 59l-9 28-8 17 1 1q27-37 32-96zm-19 6-17 52 1 2q12-21 16-49zm-465 12q-4 27 4 46l20 44 9 12 7 6-10-20-16-52zm-19 9v8l2 1zm0 9 8 44q4 20 16 33l4 3-11-26-12-42zm469 3-13 24 1 1 3-4 1 1-1 2 1 2 8-23zm-459 2 3 17h1zm477 2-16 39-30 54-50 65 1 1 61-70 20-38 6-19v-2l8-26zm-35 1-24 40-81 121 1 1 20-23 5-4-38 45-15 24h2v-1l4-3q50-56 91-122l2-1 2-3-2-1 2-1 5-8 2-1-1-2h2l12-22 11-35zm7 23-19 26-19 42-15 21 1 1q18-18 31-41l4-11 13-22 4-14zm8 5-28 51 1 1q17-21 27-49zm-438 22q14 32 35 59l3 2-25-42zm-5 1 1 8 14 26 8 7zm403 19-47 67 1 1q29-27 46-66zm-403 2 4 12 18 28 39 45h2l1 3 56 50h1l-34-41-29-27-1-1-1-1-6-6-4-4q-21-20-35-45l-1-1zm421 6-80 103 1 1 51-61 28-41zm-390 5 17 29 4 1 8 12 5 3v2h2l2 2zm-7 15q6 14 19 26l11 10zm30 6v4l14 18 42 46h2l16 17h1l-12-16-1-1-29-37zm331 8-24 29 1 1 24-29zm-316 25 2 6 14 16 21 17h1l-12-13-2-2-2-2zm31 9 5 10h2l28 36 4 2 4 8 16 12v2l11 6 34 29 12 15-1 2-6-4-2 1 14 12 9-11-40-32-24-24-8-8-1-1q-26-30-57-55Zm253 0-11 12 1 1 2-1 8-10zm7 2-28 31 1 1 27-30zm-38 38-6 7 6-5zm-205 4v3l36 31v-1q-16-19-36-33Zm199 3-13 14 1 1 12-13zm8 3-27 29 1 1 26-28zm-28 2-41 46h2l31-32 8-12zm-176 3 9 15 17 16 41 33h1l-6-7-48-44-2-2zm56 31 28 26h1zm94 8-10 11-4 3-1 2-14 12-1 2 7 3 23-31zm-23 14-11 12 1 1 11-12zm-57 7 24 23 1-3zm48 11-3 3 4 4 5-3zm-13 5-3 4 10 7 6-7-5-4-4 3-2-2zm-7 7-2 4 15 11 2-3z"/><path fill="#1a190f" stroke="#1a190f" d="m415.5 319 13.5 8.5.5 1.5 1.5.5-.5 1.5zm137 35 1.5.5-9.5 13.5-.5-2.5zm169 4 2.5 13.5h-1zm-344 18 8 4h5q3.3-3.2 11-2l2.5 1.5-.5 1.5-13.5 1.5 1.5 2.5 9 8 2-1L501 548.5l1 5-1.5.5-20-32-.5 1.5 25.5 47.5 1.5-.5 1.5-3.5 1.5.5-1 12 2.5 3.5 3-5 .5 3.5-3 4 3 9-1.5.5-4-6q-3.7 4.3-2.5 13.5-3.1 9.9-10.5 15.5l-12 6-34 6-1.5-2.5q5-3-2-6l-1.5-2.5-4.5-2.5-11.5-15.5-8.5-4.5-21-37-32-45-28-55q2-3.2 4 0l-5-8 3 1-8.5-25.5-3.5 11.5 1 3-3.5.5-1.5-6.5 6-14v-6l-1-7 4.5-7.5 23-12zm-1.5 4-5 3-2 3 13-4zm8 4-3 1-1 2 7 1-1 2-3-1q-18-1-26 7l-14 19-3 1q-5 2-3 11l4 1 1-9q7 43 26 75l84 128h2l2 3 13-3-13-3-4-3 2-3 12 4 9-1 22-18 5-5 4-12-46-84-67-106-6-7zm18 15 11 21h1q-3-14-12-21Zm-58 1-6 4-3 8 1 2 9-13zm-4 31q-1 12 6 21h1zm90 9 23 42 2 1zm-72 45q7 22 20 40l2 1zm35 53q5 16 17 29l3 2zm21 31 5 11 3 2zm3 12 4 11 7 6zm89 13-7 12 1 2 6-11zm-10 8-6 5-5 6 12-10zm3 8-16 8-2 3q12-1 18-9zm146.5-186 4.5 1.5-5.5 8.5-3.5 2.5-8 17 16 14 1 3-2.5 1.5-18-11-26.5 34.5 17.5 23.5q8-1.5 9.5 3.5l1 9q-2.2 5.3-10.5 4.5l-5.5-4.5-1-5 2-3-19.5-20.5-2.5 1.5-26 32 16 12 1 2-1.5 2.5h-5l-15-10-10 13-2.5-.5-1-3 7-16-3.5-4.5q-7.6 1.1-9.5-3.5l-1-5q1.2-4.8 8.5-3.5l5 9 5 3 28.5-35.5-20.5-23.5-7 1q-5.7-1.2-4.5-9.5l5.5-7.5 6-1 5.5 4.5-1 8 22.5 19.5 25.5-33.5-8.5-7.5-6 3q-3.5-2-1.5-9.5l5.5-2.5 5.5 3.5 1.5 3.5 8 5q11.9-9.1 17-25zM621 466l-6 7 1 1 5-6zm-6 8-15 18 1 1 14-17zm-16 26 5 6v-1zm-7 2-25 29 1 1 24-28zm-26 38 7 6v-1z"/><path fill="#1a190f" stroke="#1a190f" d="m414.5 445 4 1 2-1 1.5 2.5-2 1 12.5 22.5.5-1.5-4-10h1l13 26 21 34-4-3-1.5-2.5-.5 1.5 5.5 8.5 5-2 .5 1.5-3 6 3 7-3.5.5-3-5-4 5-21 18-8 5-4.5.5 2 7-1.5.5-5-7-1.5-.5v-3l-28-38-20.5-38.5-4 2-.5-1.5 3-4-1-3 2.5-1.5q2 3 4-2l3.5-2.5 4.5-5.5 23-16 .5 1.5-19 15 1.5.5 25.5-16.5zm1.5 6-37 26-1-1 7-5 5-6-17 13 1 3 1-2 6 8 37 60-1 2 5 5 23-13 4-5 11-9-42-74zm-31 48q7 20 20 37l3 2zm44 56-6 3 2 2 5-4zm115.5 8 1.5.5.5 1.5 1.5.5-1.5 3.5-3.5-.5-1-2zm-70 189 6.5 4.5 4 5-1.5.5-3-4-3.5-2.5-.5-1.5z"/><path fill="#fafaf9" stroke="#fafaf9" d="M.5 0 1024 .5l-.5 1023.5L0 1023.5zM365 236l-7 2-1 2-12 10-6 1-1 2h-2l-2 3-4 1-25 32-2 1-2 3h-1l-1 2h-1l-10 11 1-2-2-1-1 2h-1l-9 10-2 1q-2 4-4 0-4 2-2 11l-5 13-6 5-5 9v5l-5-1-1 3v2l-3 8h-1l-4 6 1 4q-5 4-5 13l-5 4-9 22v2l-1 4 4 1 4 7-1 13 2 10q-1 13-6 22l8 2 2 4-1 2-8-2-2 3h5l-2 5h3v2l2 1-1 2-2-1-1 2h-1l-1-3-5 2q-2 9 3 11l8-1 1 3-3 5 3 4 1-5v-2l1-2-1-2 2-5-2-3 1-2-2-1 3-1v-2l2-4-1-4 1-7-3-1 3-1v-1l2-1-1-1 7-5v2h2l2-4 12 34-1 2 2-1-1 2 5 20 4 8-1 4 3 6-2 1-4 2-3-1h-2l-2-1-2 3-4 2h2v2l6 3 10 1v2h2v4h-1l-1-2-1 2h-1l-2 3h2l1-2 3 2 1-2 3 5-2 4 1 2 4 1v2l3 1 5 10 3 1 1 3-5 12 5 2h2l-1-2 4-2 1 4h-1l-1 2 3-1v3h3l15 22-1 2h2l2 3 4-2 4 3-1 4-4-3-2 1 1 5h2l4 9 3 2-1 2 1 3 9 6 10 15-1 2 7 3 1 4 4 2 1 3h2l2 6 4 1 1 3 10 2 5-1 3-1 7-2 7 9 6 2 2 4 9 6v2l13 9q11-2 17-10l25 26h1l-23-28v-2l49 40-1 2h5l15 12-4 7 4 1 5-6 8 4h4l-1-5-6-5 12-17 1 1-1 2 1 3 5-2 4 3 2-1-4-5 17-28 11-10 22-23 2-1v-1l35-34-82 102-18 27 3 1q25-37 56-67l2-1 2-3 2-1v-1l2-1 19-22 3-2q30-31 56-66l2-4v-2l-37 46h-1l-1 2h-1l-6 9-1-1-25 28-5 4-2 3-24 23 64-80 64-73 2-1-24 35 2 2 53-80 21-42q12-35 11-81 8-21 10-47v-2l1-11v-2l1-3-1-4 1-2q-2-39-23-57-15-13-35-19l-52-10-16-1h-2l-2-1-2 1-8-1-9 1-2-1-4 1-2-1-25 6-20 10-1 2-15 10-2 3-3 2-16 20-2 1q-19 24-30 55h-1l-34-61q-13-16-33-25l-22-7-12-1h-2l-5-2-2 1-3-1-12 1-1-9-2-1-1-2 2-1-1-1 1-2-1-3-2-2-2 1-3-7-3-1-3-1q-2-3-7-2ZM219 521l-2 4 2 6 3-2-1-7zm256 230 10 14h2l1 2h1l-7-9zM57 828l-4 1-2 5 1 2 3-1v-1l2-1 1-2z"/><path fill="#fafaf9" stroke="#fafaf9" d="M626.5 256q22.1-1.6 39.5 1.5-33 2.5-57.5 13.5-35.6 15.9-60.5 42.5l-15 20q-8.3 13.2-12 31l-4.5 5.5-1.5-.5q16.3-48.7 48.5-81.5l2.5-1.5 1.5-2.5q21.5-22 59-28Z"/><path fill="#fafaf9" stroke="#fafaf9" d="M667.5 261q15.2-1.2 26 2 16.2 6.3 26.5 18.5l-1.5-.5q-17.3-8.7-40-12h-2l-3-1-6 1-4-1-17 3-23.5-1.5q19.1-7.4 44.5-8.5Z"/><path fill="#fafaf9" stroke="#fafaf9" d="M702.5 263q43.5 6 66.5 32.5 8.6 11.9 12 29l1 30-1 3q-1.4 26.6-9.5 46.5-1-22-7.5-38.5l-1-34-10-26-10.5-11.5-17.5-10.5-8.5-10.5zm-310 6q26.3-.3 45 7 22.3 8.7 37.5 24.5l26 46-2-1q-11.7-21.8-27.5-39.5l-9-3-3 1q-14.2-15.3-34-25l-18-6-15.5-2.5zm266 3h17l23.5 5.5-1.5.5-8-1h-2l-12 1-15-4zm-28 1 7.5 1.5-24.5 7.5q-24.7 10.3-44 26l20-21q15.5-12 41-14Z"/><path fill="#fafaf9" stroke="#fafaf9" d="M388.5 276h14l18 5q22.1 9.9 37.5 26.5l-1.5-.5-28-17-21-8-18-4zm296 4h2l25 2 13.5 8.5 10 18-4.5-3.5q-19.3-14.7-45-23zm-294 2 9.5 2.5-4.5.5zm249 1 12.5.5-24.5 10.5-27 6v-1q15.8-11.7 39-16Zm31 1q15.4 1.1 25 8 18.7 11.3 32.5 27.5l-2.5-1.5-12.5-9.5-.5-1.5-1.5.5.5 1.5-30-19-10-4zm-10 1 27.5 13.5-1.5-.5q-20.5-7-49.5-5.5z"/><path fill="#fafaf9" stroke="#fafaf9" d="M399.5 286q17 1.5 28.5 8.5l-1.5.5-27.5-7.5zm-16 5 18.5 2.5-5.5.5-13-2zm348 0 14.5 10.5q12.9 14.6 14 41h-1l-6-16zm-159 6-5.5 6.5-36.5 46.5-.5-1.5q12.4-27.6 34.5-45.5zm61 0q51.3-3.2 77.5 18.5l-1.5.5-27-12-30-1q-27.9 5.6-49 18l-2-1-9 2v-2l-8 3v-1l32-20zm-242 1 12.5 1.5-.5 1.5-13 1v-1l1.5-.5z"/><path fill="#fafaf9" stroke="#fafaf9" d="m410.5 302 19.5 10.5-1.5.5-17-6-.5 1.5 34.5 14.5 14.5 12.5 25 41 11.5 12.5 4 1 .5-2.5-10-9-23-35 14 13 9.5 12.5 1.5-.5.5-3.5q8.6 10.9 10.5 28.5l-1 3 2.5 1.5 2-1 .5 1.5-6 16v7l2.5 1.5 1.5-2.5-1-3 4.5-14.5 2 4 3.5-2.5-3-9 2-1 8.5 18.5 3.5-1.5-2-7q1.5-3 3 0l3.5 4.5 2.5-1.5-5-12 6.5-9.5-.5 1.5-1 5q2.5 5 5 0 11-27.5 32.5-44.5 16.2-14.8 37-25l30-1q41.4 5.6 62.5 31.5l4.5 6.5 1.5.5q14.3 20.7 17.5 52.5l2.5-.5-2-5 1-4-1-3q-4.1-26.4-17.5-43.5l-2.5-1.5-8.5-10.5-16.5-10.5-.5-1.5q-11.6-8.9-29-12h-2l-13-2h-2l-15.5-.5 29.5-10.5 27-2 19 5 22.5 12.5 5.5 28.5.5-8.5-3-16 3 2q12 20.5 14 51l-1 3-1 7v2l-3 23 1 3-4.5 25.5-1.5-.5 1-28-1.5-.5-1.5 5.5 1 9-1 3 1 5-3 22-12 26-66 97-41 65-24.5 28.5-4.5 3.5-29.5 34.5-1.5.5-11.5 13.5q-.2-8.3-5-12l-3.5-2.5 1-7-13.5-16.5-8.5-6.5-4.5-5.5-6.5-4.5 4.5-1.5 6 3h2l5 1 4-1 1.5.5.5-1.5h2l2 1 1-2 3 1 2.5-1.5-2.5-4.5-2.5-.5 1.5-3.5 8 1 2.5-6.5-8-11 1-7-20-32 5.5-18.5 3 5 3.5-1.5-3-9 2-6-2 1-1.5 2.5-1.5-.5-1-5 2-8-2.5-1.5-2 3-1.5-.5-24-45 2 1 18.5 29.5 1.5-2.5-79-127-2-6 9-28 1-3 10-33-3.5-5.5-1.5-.5-3.5-8.5-7-3-2 1-2-4-9.5-2.5-.5-1.5-16-4-2 1h-2l-3.5 2.5-7.5 14.5-2 1-1.5-2.5 3-5-1-3 9-19-2-5 7.5-.5q20.9 7.6 37 20l-4-5-23-14-15.5-4.5 10.5-2.5 2 1 2-3zM722 357l1 16h1zm-77 67q-7 15-17 25l-8-4-3-4-2-2-3-1-4 1-3 7 3 4 5-2 9 8-25 32-17-15-6-5 1-1-1-8-4-3-7 1-5 7 1 8 6 3 6-1 18 22-27 35-8-5 1-2q-1-5-9-4l-3 8 14 9-7 18 5 1 9-13 18 11 2-1 1-3-16-12 23-30 5-4 7 9 8 6v2l4 3q-3 1-2 7l7 5q8 1 10-4 1-8-2-11l-4-3-3 1-19-23 27-35 12 9 2-1 5 3 1-3-6-5-2-2-8-7 8-19 4-2 4-9zm-99 138-4 4 3 4 2-1 1-4h-2l1-2z"/><path fill="#fafaf9" stroke="#fafaf9" d="m607.5 302 2.5.5-54.5 36.5 9.5-10.5 3.5-4.5q15.1-15.4 39-22Zm-185 1q17.4 5.6 29.5 16.5l-1.5-.5q-17-5.8-28-16Zm294 0 6 7zm-253 4h3l8.5 7.5 16 23-2-1zm266 2 7.5 6.5 6 14-2-1zm-12 9 15.5 11.5 2.5 3.5 1.5.5 1 2-9.5-8.5zm-122 5 3.5.5q-16.5 8-28.5 20.5l7-9-14.5 12.5-21.5 25.5-1.5-.5 1 2q-3-2-6 4l-8.5 12.5-.5-5.5q5.8-24.7 22.5-38.5l27-19 6-3zM554 353l-10 12 1 3 10-14zm191.5-28q9.7 10.8 12.5 28.5h-1q-9.1-11.8-11.5-28.5Zm-284 3 13.5 11.5 18 24-5-4-20.5-22.5-2.5-1.5zm263 1 8.5 6.5.5 1.5 2.5 1.5 1 18-1.5 2.5zm-231 12 6.5 8.5-3-2z"/><path fill="#fafaf9" stroke="#fafaf9" d="m737.5 342 3.5 2.5q9.2 19.8 9 49l-7 46-4 12-22.5 44.5-.5-1.5 9-35 12-35q4.7-15.3 3-37l-3-24 1-20zm-242 13 5.5 7.5-3-2zm261 5 3.5 10.5h-1zm-389 8 1.5.5-2.5 7.5-2.5-.5zm386 2q4.8 11.7 3.5 29.5l-3.5 12.5-.5-2.5 1-3-1-27v-2z"/><path fill="#fafaf9" stroke="#fafaf9" d="m736.5 390 .5 16.5-7.5 32.5-.5-1.5zm27 0 .5 18.5q-5.7 51.8-25.5 89.5l-.5-1.5 18-52 7-44v-2zm4 11 1.5 15.5-6.5 23.5-.5-3.5q5.4-15.1 5.5-35.5Zm-12 16 .5 1.5-3.5 15.5-.5-5.5zm-339 11 51.5 82.5 26 51 10 15 1 5q-1.2 10.3-7.5 15.5l-3 2-1-4-2.5-1.5-.5-2.5-4.5-2.5 1.5-2.5-1.5-.5-.5-1.5h-2l-2.5-1.5-.5-3.5-1.5-.5-2-5q2.7-1.8-1.5-3.5l-1.5-.5-.5-3.5-1.5-.5-.5-2.5-2.5-1.5v-2l-.5-1.5-6.5-1.5 1-3-2.5-5.5-3 1-7.5-5.5 13.5-10.5 3 5 2.5-1.5-3-10 3-2 1-2-2.5-1.5-4 3-6.5-10.5 3 2 2.5 4.5 2.5-1.5q-21.4-28.1-36.5-62.5l-.5 2.5 1 3 4 9-2-1-11-21 3-1-1.5-2.5-4 1-3-1-2 3-3 2 2.5-3.5 5-17zm352 2 .5 1.5q-2.1 30.9-10 56L737.5 532l-.5-1.5 10-23z"/><path fill="#fafaf9" stroke="#fafaf9" d="m749.5 436 .5 2.5q-4.2 27.3-15.5 47.5l-.5-1.5 10-36zm-319 6 25.5 41.5-2-1zm-14 9 43.5 75.5-10.5 7.5v-2l-3.5-1.5.5-1.5-3.5-1.5 1-3-4.5-2.5-5 6-1.5.5.5 2.5 1.5.5 1 2q-2 4.5-4 1l-6-12 2-8-10-6 5-11-4.5-3.5-5 2-10-21-1.5-.5 5-15-1-2zm-164 11 1.5.5 3 23h-1l-6-22zm370 2-1.5 2.5-20.5 25.5 2.5-3.5zm112 5 .5 1.5-7.5 21.5-1-3-2.5 1.5-2.5 3.5.5-1.5zm18 4 .5 1.5-13 45-16 33-35.5 44.5-3.5 2.5-28.5 32.5 2.5-3.5 49-65 31-57zm-35 2-.5 1.5-7 27-13.5 26.5-3.5 2.5 1 2-9 11 .5 1.5-1.5.5 1 2-3 1 1 2-4 3q-40.8 67.2-93.5 122.5l.5-1.5 16-25 35-42-5 4-18.5 21.5-.5-1.5 2.5-3.5 1.5-.5 34-55q35.8-47.2 66.5-99.5Zm-132 10 7 8-1.5-.5zm138 12 1.5.5-4 13-15 30q-13.9 25.6-33.5 45.5l.5-1.5q20.3-26.2 32-61z"/><path fill="#fafaf9" stroke="#fafaf9" d="m733.5 499 .5 1.5q-10.2 28.8-27.5 50.5l.5-1.5zm-134 1 8.5 9.5-7-6zm-7 1-1.5 2.5-25.5 30.5 2.5-3.5zm-145 34 1.5.5-11.5 8.5-1.5-5.5 3.5-.5 3 1 4.5-2.5zm0 11-.5 1.5-2.5 4.5-2.5-.5zm243 1 .5 2.5q-18.7 35.3-45.5 62.5l1.5-2.5zm20 4-.5 1.5-28 42-52.5 62.5 3.5-4.5zm-33 32-1.5 2.5-24.5 28.5 1.5-2.5 10.5-14.5 1.5-.5 6.5-8.5zm-173 14-.5 1.5-3.5 7.5-.5-2.5zm140 20-2.5 3.5-11.5 13.5 2.5-3.5zm5 4-.5 1.5-28.5 32.5 3.5-4.5zm-315 3 2.5 1.5 1 5-2 1-.5 1.5zm175 8 5.5 4.5-.5 1.5q-5.7.8-6.5-3.5zm-169 10h2l2.5 1.5 10 20-2.5.5q-3.8-1.7-3-8l-2.5-.5-7-10zm275 13-5.5 6.5-20.5 24.5 1.5-2.5zm1 11-3.5 4.5-25.5 28.5 2.5-3.5zm-32 6 .5 1.5-8 12-26.5 27.5-4 3 5.5-6.5zm-222 1 5.5 6.5-2.5 1.5-5.5-6.5zm220 13-8 9zm-22 26-.5 1.5-24.5 32.5-4.5-3.5 6.5-7.5 19.5-18.5zm-107 3 15.5 12.5 12 13-4.5-3.5-24.5-19.5zm83 13-5 6zm-57 6 25.5 19.5-2.5 3.5-13.5-12.5-.5-1.5zm27 11 6.5 1.5q-3.5 7-7 0zm21 0 5.5 3.5-2.5 3.5-5.5-3.5zm-12 5 1.5.5.5 2.5 6-2 4.5 2.5-6.5 7.5-8.5-7.5.5-2.5zm-7 7 13.5 11.5-.5 2.5-15.5-11.5z"/><path fill="#efe947" stroke="#efe947" d="M364.5 236q5.8-1.2 7 2l3 1 3.5.5 2.5 7.5 2-1 2.5 1.5 1 3-1 2 .5 1.5-1.5.5.5 2.5 2.5.5-.5 9.5q-19.8 1.7-32 11l-17 2h-2l-21 4-10 6 .5-1.5 24.5-31.5 4.5-1.5 1.5-2.5 2.5-.5.5-1.5 6-1 12.5-10.5.5-1.5zm22 33 5.5.5.5 1.5 1.5.5-3.5.5h-2l-1.5-.5-.5-1.5-2 3-12 2-1.5-.5-.5 1.5-7 1v-1l15-5 1 2 1-3zm-15 11q12.3-1.2 19 3l2-1v1l-1.5.5 4 1-5.5.5-16-3z"/><path fill="#efe947" stroke="#efe947" d="m337.5 281 6.5.5q-32 12-52 36-11.9 12.1-19.5 28.5l-.5-2.5q7-22.5 21-38l-1-1 11.5-11.5 11-7z"/><path fill="#efe947" stroke="#efe947" d="m351.5 282-1 2-19 13-13 6-15.5 13.5q-20.4 23.6-34.5 53.5l-1.5-.5 1-3q11.2-35.8 36.5-57.5 19.9-17.1 47-27Zm11 0q6.5-1.5 8 2l3-1-1 2-3 1q-14.2-.2-23 5v-1zm10 8 14.5.5-7.5 1.5-7-1zm213 0-7 8zm-228 5 14.5.5-.5 2.5-19 9-2-1-15 4-.5-1.5 9.5-10.5zm28 2 8.5.5-3 1 1 2-10.5 2.5h-2l-13 1v-1z"/><path fill="#efe947" stroke="#efe947" d="m338.5 299 .5 1.5-9.5 10.5-17 9 6-7zm-52 4 3.5 1.5q-15.5 19-23 46l-6 26v7q-9.2 17.3-14 39-3.9 15.1-2 36l2 9-2.5 4.5-1.5-.5-.5-1.5-6.5 4.5.5 1.5-1.5.5-.5 1.5-2.5.5 3 1-1 7 1 4-2 4-.5 2.5-2.5.5 2 1-1 2 2 3-2 5 1 2-1 2v2l-2.5 7.5-.5-1.5v-2l-1-3 3-5-1.5-2.5-8 1q-4.7-2.2-2.5-11.5l4.5-1.5 1 3 1.5-.5.5-1.5 2 1 1.5-2.5-2-1-.5-1.5-2.5-.5 1.5-4.5-4.5-.5 1.5-2.5 8 2 1.5-2.5-2.5-3.5-7.5-2.5q5.4-8.6 6-22l-2-10 1-13-4.5-6.5-3.5-1.5 1-4v-2l8.5-21.5 5.5-4.5q.3-8.7 5-13l-1-4 3.5-5.5 1.5-.5 3-8v-2l.5-2.5 5 1 .5-3.5v-2l4.5-8.5 6.5-5.5 5-13q-2.2-8.2 1.5-10.5 2 4 4 0l2.5-1.5 8.5-9.5 1.5-.5zm96 1 2 1 5-1v1l-10 2-1-2 5 1v-1zm177 3-8 9zm-196 1 9 1h2l2.5.5-10.5 4.5-20.5 14.5-.5 1.5-9.5 7.5-.5 1.5-11.5 10.5-12.5 15.5-.5-2.5q1.3-11.2 7-18l21.5-24.5q7.9-10.1 24-12Z"/><path fill="#efe947" stroke="#efe947" d="m382.5 309 8.5 1.5-4 1 2 5-7 12-2 9v2l-2 5 2.5.5 2.5-1.5 8.5-15.5 2-1 2 1h2l15.5 3.5.5 1.5 9.5 2.5 1.5 3.5 5-1 5.5 4.5 1.5 5.5 1.5-.5-1 2 3 2 2 6-5 18-7 15v2l-1 8-7.5 19.5-19-28-1.5.5 1 3 2 3-4-3 1-2-11-10 .5-1.5 13.5-1.5-.5-1.5-9-1-9 2-8-4-11 7-1.5-.5-1.5 2.5-28.5 16.5q-5.1 3.4-4 13l1 7-6 17 1.5 3.5 3.5-.5-1-7 3.5-7.5.5 2.5 10 26-2-1-1.5-2.5-.5 1.5 5 7-3.5-2.5-1.5 1.5 28 55 32 45q9.4 22.1 23.5 39.5l9.5 5.5 9.5 13.5 4.5 2.5 4 5-2 3 7.5 1.5 11-4 20-3 14.5-10.5 1.5-3.5 19.5 29.5 1 8-1 2 8 12-2.5 4.5-8-1-1.5 3.5 3 1 2 4-4.5 1.5-1.5-.5-.5 1.5-2-1-2.5.5-.5 1.5-4-1-2 1-5-2h-2l-8-2q-4 2.5 2 5l7.5 5.5 4.5 5.5 9.5 7.5q6.2 4.3 8 13l-1 5 6 5 2 10-1.5 2.5-1.5.5-3.5 4.5q-25.2-14.7-45.5-34.5l-3.5-4.5-10.5-9.5-1.5-2.5-1.5-.5-24.5-26.5-2.5-1.5-.5-1.5-4.5-3.5-.5-1.5-2.5-1.5-.5-1.5-51.5-46.5-8.5-13.5-1.5-.5-2.5-4.5-1.5.5 9 13-4-3-.5-1.5-1 1-9-9-9.5-7.5-.5-1.5-5.5-4.5-2.5-3.5-1.5-.5q-19.6-29.9-30-69l2 1 12.5 21.5 1.5-.5-19-34-5-24v-2l-1-11 1-2-2-22v-2l1-5v-2q-1.6-24.6 10.5-35.5l.5 1.5-1 4 1.5.5 2.5-13.5 23.5-28.5q20.1-21.4 49-34ZM368 368l-4 8h3l2-7zm-42 157-2 2 6 11q2 3 3 0zm15 24-2 2 2 5q2 3 3 0l-1-1v-1l-1-1zm3 8 5 11q2 4 4 1l-1-1-1-2-1-1-4-7zm9 13 5 11q2 3 3 0zm157 62-2 3q1 4 7 3v-1zm208.5-323 6 7z"/><path fill="#efe947" stroke="#efe947" d="m341.5 311 2.5.5-2.5 3.5-17.5 16.5q-14.1 15.4-22 37L282.5 434l-3.5-17.5 10-32q17.4-37.6 40.5-69.5z"/><path fill="#efe947" stroke="#efe947" d="m321.5 318 1.5.5-7.5 11.5-2-1-.5 1.5 1 2-30 56-5.5 16.5-1.5-16.5q2.7-13.8 10-23l-3 2-4.5 7.5-1.5-.5q7.9-28.6 27.5-45.5l5.5-2.5.5-1.5zm-12 41 .5 2.5q-1.3 11.7-7.5 18.5l-.5-1.5zm-39 11 .5 1.5-6.5 17.5-.5-5.5zm105 10 6.5 1.5-13.5 4.5 2-3zm8 4h3l6.5 6.5 25 38-7 19-.5 2.5-1.5-.5-.5 1.5-17 11-.5-1.5 5-3 2.5-3.5 5.5-2.5 2-4-2.5-.5-25.5 20.5-2.5 3.5-7.5 3.5 1 3-3 5 1.5.5 3-2 20.5 38.5 28 38 .5 3.5 3.5 2.5 2.5 4.5 1.5-.5v-4l-4-6 11.5-6.5-3 4-6.5 4.5 4.5.5 16-13-3 5 4.5-2.5 2.5-5.5 9 5 2-1 3.5 6.5-1.5 2.5 6.5 1.5 1 2 .5 2.5 1.5.5.5 2.5 1.5.5.5 3.5 3.5 2.5v2l.5 2.5 1.5-.5-1 2 2 1 1.5 4.5 2 1 1.5-.5.5 1.5 1.5.5q-3.7 1.8-.5 3.5l3.5 1.5 1.5 3.5 1.5.5-1.5 5.5-18 15-9 1-12-4-1.5 2.5 3.5 3.5 13.5 2.5-13.5 3.5-2-3-1.5-.5-84-128q-18.9-31.6-26.5-74.5l-1 9-3.5-1.5q-2-8.5 2.5-10.5l3.5-1.5 13.5-18.5 5-3 1.5.5.5-1.5 3-1 1.5.5.5-1.5 14-1 3 1 1-2-6.5-1.5.5-1.5zm370 4 .5 18.5h-1zm-480 1 .5 5.5-2.5 12.5-.5-4.5 1-3zm-14 6 1.5 48.5-1.5.5-2.5-18.5 1-6-2-1v20l7 23-1 4 3 20 6 24 5 12-2-1q-11.1-14.9-18-34l1-8-3.5-16.5-4 2q-3.7-12.2-1.5-30.5l7-29zm89 2-2 3-4.5 3.5-6.5 10.5-.5-2.5 2.5-7.5zm53 3 6.5 5.5 6 12-1.5.5-1-3-2.5-1.5zm-126 2 .5 14.5h-1zm-7 4 3.5 49.5h-1l-5-25 1-2v-2l-1-6 1-3zm24 2 .5 13.5v2q-1.4 25.9 3 46h-1l-9-23-1-11zm480 6 .5 15.5h-1zm-495 7 4.5 22.5-1 22 1 8h-1l-6-25v-12zm143 4 4.5 7.5-2-1z"/><path fill="#efe947" stroke="#efe947" d="m339.5 431 3.5 8.5-2 1 1-2-2-1-1-4zm4 10 4.5 12.5h-1l-5-11zm-59 10 1.5.5 13 31 13 44 11 24-.5 1.5 2.5 1.5 1 2-8-7-9-12-19-41-6-25zm121 6 1.5 3.5-5 10v4l2 1 9.5 20.5 6-2q4.3.8 3.5 6.5-5.7.8-5 8l10 6-2 11 7.5 10.5q4.2-1.7 1.5-3.5l-.5-1.5-1.5-.5.5-2.5 3.5-2.5 2.5-3.5 4.5 2.5-1 3 4 2-.5 1.5 4 2 4.5-3.5-8 6 .5 1.5 1.5-.5-5 4-.5-2.5-3 1-4-1-.5 3.5 2 3-16.5 9.5-4.5-5.5 1-2-37-60-6.5-7.5-1 2-.5-3.5 14-10 1.5-2.5 1.5.5-12 10 .5 1.5zm-140 8 1 3 1.5.5 15 50 12 27-5-4q-11.7-12.8-16-33zm10 5 3.5 11.5-1.5.5zm83 18 1.5.5 19 34-1.5.5q-12.1-15.7-19-35Z"/><path fill="#efe947" stroke="#efe947" d="m258.5 502 1.5.5-.5 1.5 1.5.5-.5 1.5 2.5 1.5 16 24q11.3 28.2 28 51l44.5 51.5 1.5.5 5.5 6.5 2.5 1.5 1.5 2.5 3.5 2.5 1.5 2.5 5.5 3.5 1.5 2.5 6.5 5.5.5 1.5 48.5 41.5 17 21q-5.5 7.5-16.5 9.5l-12.5-9.5-.5-1.5-8.5-6.5-2.5-3.5-5.5-2.5-7.5-8.5-7 2-3 1-5 1-9.5-2.5-1.5-2.5-3.5-1.5-2.5-5.5-1.5-.5-1.5-2.5-3.5-2.5-1.5-3.5-6.5-3.5 1-2-10.5-14.5-8.5-6.5-1-3 1-2-3-2-4.5-8.5-1.5-.5-1-5 1.5-.5 4 3 1.5-4.5-4.5-2.5-4 2-2-3-1.5-.5 1-2-15.5-21.5-6.5-2.5.5-2.5 2 1 .5-2.5q-2.5-3.6-5 0l1 2-2.5.5-4.5-2.5 5-12-1.5-2.5-2.5-1.5-5.5-9.5-2.5-1.5-.5-1.5-3.5-1.5-1-2 2-4-3.5-4.5-1 2-3-2-1 2-1.5-.5 1.5-2.5 1.5-.5.5-1.5 1 2 1.5-.5-.5-3.5-1.5-.5-.5-1.5-10-1-5.5-3.5-.5-1.5-1.5-.5-.5-3.5 4 2 2-3 2 1h2l3 1 4-2 2.5-1.5-3-6 1-4-4-8v-5l-3-5zM335 624l1 9v-1l2-1-1-5zm6 18-1 4 8 10h2q1-10-5-12l-2-2zm10 14q-3 6 2 8h2q1-7-4-8Zm12 17-3 2 6 6 2-1zm22.5-171 1.5.5 5 8-.5 1.5 1.5.5-.5 1.5 2.5 1.5 8 13-.5 1.5 2.5 1.5 1 2-1.5.5-1-3-2.5-1.5zm219 10 6 7zm-386 9 2.5.5 1 7-3.5 2.5-1.5-6.5zm164 1 7.5 11.5-3-2z"/><path fill="#efe947" stroke="#efe947" d="m288.5 523 3.5 4.5-.5 1.5 1.5.5-.5 1.5 2.5 1.5 16 28-.5 1.5 2.5 1.5 2 3-1.5.5-6-8-2.5-1.5-15-29v-2zm9 6 2.5 1.5 29 46-1.5.5q-6-3-4-6l-2.5-1.5zm93 6 5.5 7.5-.5 1.5 2.5 1.5 2 3-.5 1.5 2.5 1.5 4.5 8.5 2.5 1.5 2 3-1.5.5-12.5-16.5.5-1.5-1.5-.5.5-1.5-2.5-1.5zm-101 11 3.5 2.5 6.5 8.5 1.5.5q14.2 25.8 34.5 45.5l4.5 3.5 5.5 6.5 1.5.5.5 1.5 29.5 26.5 34 41-1.5.5-55.5-50.5-1.5-2.5-1.5-.5-39-45q-13.9-17.8-22.5-38.5Zm30 9 2 3 2.5 1.5 31 39-2 1 6 4-.5 1.5-3.5-2.5.5-1.5-5.5-3.5-.5-2.5-2.5-1.5.5-1.5-3.5-2.5-2.5-3.5-3.5-1.5zm91 11 2.5 1.5 3 4-1.5.5z"/><path fill="#efe947" stroke="#efe947" d="m311.5 569 32.5 36.5-1.5.5-1-2-8.5-7.5-16-19 .5-1.5-4.5-3.5zm106 7 2.5 1.5 4 6-1.5.5zm-74 1 33.5 30.5 28.5 37.5 1.5.5 11 16-3-2-1.5-3.5-13.5-11.5-42-46-14-18zm-15 1 2.5 1.5 5 8h-1zm90 7 2.5 1.5-.5 1.5 2.5 1.5 5 8-7-6-2-4 .5-1.5zm77 17 1.5.5-13.5 11.5 1-2 1.5-.5.5-1.5 1.5-.5 1.5-2.5 3.5-1.5zm-139 6 24.5 23.5 1.5 2.5 2.5 1.5 15 16-3.5-2.5-21.5-17.5zm301 0-6 7zm-158 1-.5 1.5-3.5 4.5q-5.2 5.3-15 6l2-3zm-111 9 58.5 55.5.5 1.5 8.5 7.5 23.5 24.5 40.5 31.5-9.5 11.5 2-4-6-1-1 1-8.5-8.5 1.5-.5 6 4 1.5-2.5-12.5-14.5-34-29-10.5-6.5-.5-1.5-15.5-12.5-4.5-7.5-3.5-2.5-28.5-35.5-1.5-.5zm258 6-3 6-1.5-1.5zm-239 39 35.5 32.5-.5 1.5-33.5-30.5-.5-1.5-1.5.5zm-4 4 5.5 6.5-2-1zm7 7 11.5 10.5 1.5 2.5 30.5 27.5-3.5 2.5-31.5-28.5-9-12z"/><path fill="#efe947" stroke="#efe947" d="m464.5 704 3.5 2.5 1.5 2.5 1-1 4.5 4.5.5 1.5 1-1 6 6 15.5 14.5-3.5-2.5-20.5-17.5-.5-1.5zm90 4 2 1 1.5-.5-4.5 3.5-2.5-.5.5-2.5zm29 1-7 8zm-117 2 6.5 5.5-2.5-1.5zm-25 2 11.5 9.5-2.5.5zm108 0-3 4-3 2 2-3zm7 3q3 1.5 0 3l-1-1-5.5 4.5zm-20 11 1.5.5-3 2 1 1-9.5 9.5.5-1.5zm-46 18 9 10zm-434 83 1.5 2.5-1.5 2.5-1.5.5-.5 1.5-3 1-.5-2.5 1.5-4.5z"/></svg>