<svg viewBox="0 0 1024 1024" version="1.1" xmlns="http://www.w3.org/2000/svg" desc="Created with imagetracer.js version 1.2.6" ><path fill="currentColor" stroke="rgb(0,0,0)" stroke-width="1" opacity="1" d="M 507.5 155 Q 516.8 153.7 521.5 157 Q 693.4 295.6 859 440.5 Q 862.3 445.2 861 454.5 L 857 462 Q 852.7 467.5 840.5 466 L 831.5 461 L 783.5 419 L 782 420.5 L 782 547.5 L 784 704.5 L 783 706.5 L 784 730.5 L 782 834.5 Q 781 845.5 773.5 850 L 768.5 852 Q 509.4 850.9 254.5 854 L 245 848.5 L 241 840.5 L 241 634.5 L 242 419.5 L 240.5 420 L 189.5 463 Q 185 467.1 175.5 466 L 165 458.5 Q 161.3 454.2 163 444.5 L 172.5 433 L 387.5 251 L 507.5 155 Z M 512 193 L 272 393 L 275 456 L 274 821 Q 509 818 749 819 L 750 794 L 749 573 L 749 440 L 752 394 Q 635 290 512 193 Z " /><path fill="currentColor" stroke="rgb(0,0,0)" stroke-width="1" opacity="1" d="M 503.5 435 Q 542.4 433.6 567.5 446 Q 595.6 458.9 615 480.5 Q 632.8 499.7 643 526.5 L 650 553.5 L 651 586.5 Q 642.2 647.7 603.5 679 Q 586 694.5 562.5 704 Q 538.8 714.3 503.5 713 Q 476.9 711.1 457.5 702 Q 432.3 690.7 414 672.5 Q 391.8 650.7 380 618.5 Q 371.2 595.8 373 562.5 Q 381.5 500.5 420.5 469 Q 450.3 440.3 503.5 435 Z M 506 468 Q 465 473 442 495 Q 412 519 406 568 Q 405 592 412 609 Q 420 629 433 645 Q 457 674 506 680 Q 524 681 539 677 Q 563 670 580 656 Q 611 631 618 581 Q 617 531 592 505 Q 576 485 551 475 Q 532 467 506 468 Z " /><path fill="rgb(255,244,255)" stroke="rgb(255,244,255)" stroke-width="1" opacity="0.0392156862745098" d="M 0 0 L 1024 0 L 1024 1024 L 0 1024 L 0 0 Z M 508 155 L 388 251 L 173 433 L 163 445 Q 161 454 165 459 L 176 466 Q 185 467 190 463 L 241 420 L 242 420 L 241 635 L 241 841 L 245 849 L 255 854 Q 509 851 769 852 L 774 850 Q 781 845 782 835 L 784 731 L 783 707 L 784 705 L 782 548 L 782 421 L 784 419 L 832 461 L 841 466 Q 853 468 857 462 L 861 455 Q 862 445 859 441 Q 693 296 522 157 Q 517 154 508 155 Z " /><path fill="rgb(255,244,255)" stroke="rgb(255,244,255)" stroke-width="1" opacity="0.0392156862745098" d="M 511.5 193 Q 634.7 290.3 752 393.5 L 749 439.5 L 749 572.5 L 750 793.5 L 749 819 Q 509.2 817.8 274 821 L 275 455.5 L 272 392.5 L 511.5 193 Z M 504 435 Q 450 440 421 469 Q 382 501 373 563 Q 371 596 380 619 Q 392 651 414 673 Q 432 691 458 702 Q 477 711 504 713 Q 539 714 563 704 Q 586 695 604 679 Q 642 648 651 587 L 650 554 L 643 527 Q 633 500 615 481 Q 596 459 568 446 Q 542 434 504 435 Z " /><path fill="rgb(255,244,255)" stroke="rgb(255,244,255)" stroke-width="1" opacity="0.0392156862745098" d="M 505.5 468 Q 532.5 467 550.5 475 Q 575.5 485.5 592 504.5 Q 617 530.5 618 580.5 Q 611.4 630.9 579.5 656 Q 562.8 670.3 538.5 677 Q 524.5 681 505.5 680 Q 457 674.5 433 644.5 Q 419.6 629.4 412 608.5 Q 405.4 591.6 406 567.5 Q 411.5 519 441.5 495 Q 464.5 472.5 505.5 468 Z " /></svg>