<svg xmlns="http://www.w3.org/2000/svg" viewBox="0 0 1024 1024"><path fill="#0f0e0c" stroke="#0f0e0c" d="M697.5 209q20.5-1 28.5 10.5l3 6-2-1-5.5-6.5q-7.5-6-21-6-12.7 1.3-18.5 9.5l-3 9v2l-.5 4.5-3.5-1.5q1.8-6.8-1.5-8.5-4-3.5-13-2l-3.5 2.5q4.7 4.8 4 15l-4.5 7.5-8 1q-6.1-3.4-4.5-14.5l6-10q-5-4.5-15.5-3.5-13.8 4.2-21.5 14.5-7.2 7.3-8 21l4 10-4-3-3-12q3.9-16.6 15.5-25.5 7.4-10.1 27-8l10 4q4.5-4.5 15-3l7 3 8-10zM653 230l-6 11 2 6 3 1 2-1 3-4-1-10zm-291.5 37 2.5.5-19 15-5 15 2.5 4.5 11-2 4.5 3.5-4.5 7.5-6 1-6-5-11.5 16.5-1 12 6.5 10.5q3.7 4.8 13 4 3-11 11-17l9-2 4.5 3.5v7l-6.5 7.5-15.5 6.5-1 13q3.8 16.2 15.5 24.5l16.5 11.5-2.5.5-19.5-12.5q-11.7-9.3-14-28l2-10q-13.1-1.4-19-10-5.8-5.7-3-20 4.4-13.1 14-21-3.3-3.7-2-12 3.4-11.1 11.5-17.5zM349 303l-5 3q1 4 9 3l3-4zm16 31-5 3-7 12 1 1 11-4q5-2 5-10zm148.5-65 4 1 13-1h2l11 1 3 1q37.1 5.9 58.5 27.5l22 27 12 20 10 38v16l-1 9-2.5 3.5-6 1-12.5 12.5q-19.1 26.4-42.5 48.5l-1.5.5-.5 1.5-4.5 3.5-58 65 3 2v4l-7 12-2 17 5 22v15l-9 24-15 21-3 18v2l2.5 5.5 24 2 22.5 5.5 1 5-77 69-5.5 6.5q-2.8 5.2-12 4L431 747.5l-32-73 5.5-3.5h2l38 7 3.5-26.5q7.9-18.1 21-31l3-18-5-27v-12l2-12 6-14-16-33-24-41-15-41-26-49 2.5-.5 26.5 47.5 14 38 9 18 15 23 20.5 39.5 1.5-.5-8-31q-7.2-49.8-19-95l-2-22h1l15 67 9 50 7 29 2.5 3.5 8 1 29.5-63.5 17-43 13.5-23.5 1.5 2.5-15 29-13 35q-16.9 28.6-28 63l3.5 1.5 47.5-75.5 19.5-26.5.5 1.5-14 18-50 83 6.5.5 2.5-1.5q13-22 32.5-37.5l6.5-5.5 21.5-25.5 19.5-18.5 33.5-39.5 5.5-4.5-9.5-14.5q-7.4-7.6-23-7l-27 44 .5-1.5 17-32 8-10-2.5-.5q-10.4-.9-16 3l-18 12-7 1-19-28q-14.2-13.8-43-13-26.9 5.6-41 24l-3.5-2.5q-4.4-11.6-13.5-18.5-7.7-7.2-23-7l-8 3h-2l-4 2-2-1-3.5 2.5-.5 1.5-4 1q3.3-2.3-.5-4.5 11.3-35.7 36.5-57.5 11.6-13.4 28-22l33-12zm-5.5 6-46 14q-19 8-30 23-22 19-34 48l1 1 22-6q14 1 23 8l10 14 3 1q8-50 36-79 12-15 31-23zm27 1q-21 8-35 22-28 27-38 73l-1 3 1 1q15-16 45-18 22 1 36 12 12 11 20 27l4-25-1-3 2-20-8-45-13-24zm18 3 11 23 8 37-4 45-3 10 1 1q11-11 31-14l19 1q12 3 20 11l4 7 2-1-1-19-9-32-10-18-26-30q-16-16-43-21Zm-74 266-5 13v10l-2 2 2 11v-9q5 12 5 30l-4 22-21 30q-4 12-4 29l-3 1h-9l-30-8h-2l45 94h2l8-10 67-59-8-3-24-2-9-3-3-6v-15l4-15 4-8 12-14 7-20v-13l-5-20q-1-18 5-28v-3l-3 1-9-3-1 2-2 1v-4l-7 1zm256.5-276 4.5 3.5q7.9 7.6 6 25-3.1 18.4-15.5 27.5l-2.5 1.5 2 12q-3.5 17.5-15.5 26.5l-7.5 4.5q3.7 5.8 2 17-5.9 22.1-22.5 33.5-17.3 13.7-43 19v-1q32.3-9.2 51.5-31.5l10-19v-13l-1.5-2.5-12 5h-11l-7.5-4.5q-3.4-2.6-2-10l4.5-7.5q4.1-4.9 15-3 9 2.4 13.5 9.5l2.5 4.5 10.5-8.5q9.2-8.3 9-26l-1.5-2.5q-7.7 4.3-21 3l-7.5-4.5q-3.2-3.3-2-11l3.5-4.5 12-4q9.9 2.1 14.5 9.5l2.5 4.5 7.5-5.5q10.9-10.6 9-34l-8-11zM707 312l-5 2q-5 2-4 10l10 5q9 0 15-4l-3-6-9-7zm-20 42-8 3-5 8 1 5q3 5 12 5l16-7-2-4z"/><path fill="#0f0e0c" stroke="#0f0e0c" d="m479.5 378 1.5.5 2 33-1.5.5q-3.8-15.4-2-34Zm5 75 4.5 41.5v23h-1q-5.2-29.6-3.5-64.5Z"/><path fill="#fefefe" stroke="#fefefe" d="M.5 0 1024 .5l-.5 1023.5L0 1023.5zM701 208q-12 1-18 7l-6 9-8-4q-9-1-13 3l-13-4-12 1-15 9-1 2h-1l-12 20q-2 15 7 19h1l-4-8 1-12 9-15 17-11q11-2 16 3l-6 13 2 9 5 3 6-1 5-6q2-12-3-17l5-3 10 2q4 2 2 10l4 1 3-15q5-8 16-10 15-1 23 5l7 8h1l-3-7q-8-10-25-11Zm-330 56q-15 3-23 11-9 6-11 19l2 9q-9 9-14 23-2 13 4 20t18 9l-1 11v2q1 11 7 18 11 13 29 20v-2l-15-11q-12-8-16-22l1-16q10-1 16-6 6-4 6-14l-4-4q-8-1-11 2-9 5-10 17l-12-4q-7-4-8-12 1-18 13-26l5 4 8-1 4-7-6-5-10 3-2-3q0-10 4-15 10-18 37-18zm166 4-50 2-7 2q-30 9-50 27l-8 10h-1q-17 16-27 40l3 1h1l-7 13 2 4-2 3 2 2 2-4 2 1 1-2 9-4 2 1 6-3q20-1 29 10l8 14q1 4 7 3l2-3q21-15 54-17h2l12 5 2 5 10 7 5-1 13 22-16 28-18 45-28 61-8-1-10-33-23-115q-1-3-3 0l3 25 26 122h-1l-19-37-24-41-15-40-24-45-3-3-2 1 11 25 15 26 14 39 24 41 17 36-5 7-4 23 5 25-1 21-2 6q-12 10-19 26l-4 14q2 10-1 16l-29-7h-13l-3 3 7 21q13 20 21 46l17 35 5 4h4l8-5 7-9 68-59 7-9-1-2-4-4-23-4-2 1-20-4q-1-15 3-24l14-19q8-12 10-28l-1-16-4-15q-2-23 9-33l-3-5 54-61 3-2 1-2 10-9 47-54 2 1 6-2 4-5 2-12v-12l-9-43-15-31q-2-6-9-6l-2-2-7-8-20-13q-18-9-40-13l-4-3-1 2zm200 0-3 3q7 4 8 14l1 3q-1 24-15 34l-5-6-11-8q-9-1-12 2l-7 9 2 8q3 5 12 6h7l11-4 1 8q-2 11-8 19l-11 9-3-4q-5-8-14-10l-12 2-8 12 3 9 10 4q13 0 21-6l1 5q-1 25-16 36-19 17-47 25l-1 2h3q26-6 45-21 17-11 21-35l-2-14 9-6q10-8 13-22l-1-15 3-2 10-12 5-16q1-21-10-29ZM480 377q-3 28 4 49v-11l-3-37zm5 59-2 17 2 50 3 19h2l-1-1 1-3-1-2 1-9-5-53 1-7-1-4 1-6z"/><path fill="#fefefe" stroke="#fefefe" d="m652.5 231 3.5 2.5 1 7-4.5 6.5-3.5-1.5-1-7zm-146 45 14.5.5q-15.7 6.8-26 19l-22 30-10 23-7.5 28.5-10-13-4.5-2.5 8-7 3-9-2.5-1.5-3 2-.5-1.5 5-9-1.5-3.5-4-1-1.5.5 24-29q-3.3-2.2 2.5-4.5l7.5-4.5-1-4 26.5-10.5zm33 2 4.5.5.5 2.5 3.5 1.5-4 3-.5 8.5-2.5-7.5 3-4-1.5.5-1.5-.5zm13 1q28.9 5.6 45.5 23.5l9 11-2.5 1.5-16-19-7-2-2 4-22.5-10.5zm-19 11 1.5 2.5-6.5 2.5 3-4zm20 3 1.5.5q7.1 11.4 8 29h-1l-4.5-19.5-1.5-.5zm9 3 9.5 6.5 1 8 11 19 6 29 2.5 3.5 4.5-1.5.5-8.5 6 19q5.5 1 6.5-2.5l1.5-2.5 4.5 12.5-1.5-.5-5-2q-4.5 2.5-1 5l-19 1q-14 3.5-23 12l-.5-2.5 4-22-1-2 3-9 1-15-7-36zm-27 4 1.5 3.5-8 7-21.5 24.5-6 5 2.5-3.5 23.5-28.5 4.5-3.5zm-185 3 4.5 1.5-1.5 3.5-5 1-3.5-2.5 1.5-2.5z"/><path fill="#fefefe" stroke="#fefefe" d="m494.5 308-1.5 2.5-15.5 19.5.5-1.5q4.6-11.4 13.5-18.5zm210 5q13.5-1.5 16.5 7.5l2 4q-5.9 4.6-17.5 3.5l-6.5-4.5-1-5 2.5-3.5zm-253 1 .5 1.5-22.5 28.5.5-1.5q7.5-17.5 21.5-28.5Zm140 2 4.5 8.5q-1.5 3-3 0zm-53 2 1.5 5.5-8.5 5.5 1.5-2.5zm-175 17 6.5 1.5q-.9 7.1-6.5 9.5l-9 3-.5-2.5 6.5-9.5zm111 1 1.5 3.5-9.5 16.5-.5-1.5zm-56 1-1.5 2.5-11.5 18.5-7 3 .5-1.5 7.5-14.5q8.5-1.5 12-8Zm91 8 .5 1.5-1 3 3 4-10.5.5-.5-1.5zm-76 2 1.5.5.5 1.5 2.5 1.5-3.5 7.5-16.5-3.5 3.5-2.5 3 2zm90 2 4 6q6.4.9 8-3l.5 6.5-1.5-.5-17.5-4.5zm160 6h4l11.5 6.5 3 6q-6.2 6.8-19.5 6.5l-6.5-3.5-1-8 4.5-5.5zm-121 30 1.5.5-2.5 7.5-3.5-5.5zm35 4 4.5.5-29 49-20 27q-22.1 40.4-48.5 76.5l-1.5-2.5q11.1-34.4 28-63l13-35 14-27 2.5-9.5 2 1 21-13z"/><path fill="#fefefe" stroke="#fefefe" d="m605.5 389 8 1 22.5 19.5-.5 2.5-13.5 12.5-22 27-39.5 41.5-3.5 2.5-7.5 9.5-15.5 14.5-18.5 23.5-5.5-1.5 49-81 18-24zm-127 156 9 5 5-2 2.5 1.5.5 3.5 2.5-1.5 1.5-2.5 11.5 3.5q-7.1 11.4-5 32 5.8 12.2 4 32l-8 20-13 16q-5.7 11.3-6 28l1 10 3.5 3.5 11 3 28.5 3.5-39 35-2.5 3.5-29.5 25.5-3.5 4.5-1.5-.5-23.5-50.5-2.5-1.5-18-40 1.5-.5 27 8 10 1 5.5-2.5 1-9-1-2 1-3 5-20 19-26q4.7-11.3 3-29l-5-23v-9z"/><path fill="#cbad53" stroke="#cbad53" d="m721.5 218 5 6zm-42 14 .5 4.5-3.5 1.5-1-2 3 1zm-309 32 2.5.5-3 1-.5 1.5-4-1v1l1.5.5-3.5 1.5v-2l-1.5-.5 5.5-1.5zm4 0 2 1 2-1 4.5 2.5-1.5-.5-7.5-.5zm112 6 15.5.5-12.5 2.5-37 14-29.5 25.5q-15.8 14.7-24.5 36.5l-1.5.5.5 1.5-3.5-2.5q9.8-23.2 26.5-39.5l1.5-.5 7.5-9.5q23-20 57-29Zm-133 4-8 9zm154 1 16.5.5-2.5 1.5-14-1z"/><path fill="#cbad53" stroke="#cbad53" d="m500.5 276 5.5.5-29 13 1 4-11 8 1 2-24 28 1.5-.5 4.5 1.5 1 3-5 10 1.5-.5 2-1 2.5 1.5q-.3 9.2-6.5 12.5l-5 4-6.5-3.5 4-8-3-2-.5-1.5-11 7-3-2-2 3 1.5.5-15.5 3.5v-1l2.5-1.5 10-17-4.5 3.5-6 2 .5-1.5q9.5-18.5 24.5-31.5l24-20zM452 314q-14 11-22 27l1 2 21-27zm82.5-38 12.5 2.5 1 3-1.5-.5-2.5-.5-.5-2.5-4.5.5 2.5 4.5 2-1 .5 1.5q-5 2-2 4l1.5 6.5 1-9 4-2 5.5 9.5v2l2.5 8.5 1.5.5 4.5 19.5 1.5.5 4 24-1.5 19.5-1-2-.5 7.5 1 6-2.5 6.5-5 4-5.5-7.5 1-3-.5-1.5-1.5.5 1 2-2-1-8.5-9.5q-13.5-10.5-36-12-29.7 1.8-45 18l-.5-1.5 1-3 3.5-15.5 1.5.5-1-3h1l.5 1.5 8.5-15.5-1.5-2.5-1.5.5 3.5-6.5 1.5-.5-.5-1.5 1.5.5-1-2 3-1-.5-1.5-1.5.5q4.5.1 9-7l5-7-1.5-.5-6.5 5.5 14.5-17.5 22-16 2 1v-2l1.5.5.5-1.5 2 1v-2l3-1zm1.5 24-4 5-4 3-24 28 1 1 3-2 21-24 8-7zm3 18-6 8 1 1 6-3zm-29 27-9 8 1 1h10l-3-4 1-3zm14 4-7 5 18 4 1 1v-7q-2 4-8 3zm56.5-68 8.5 4.5-1.5-.5zm-23 7q13.6 2.4 22 10l2-4h4l9.5 8.5 9.5 12.5 2.5-1.5-.5-1.5q20.2 17.8 29.5 46.5l-1 2 2 1v2l3 14-1 5h1l.5-3.5.5 3.5-1 2q3.7 4.3 2 14l-2 1-4.5-6.5-8-6-16-5-4.5-3.5q1.8-4.2 3.5-1.5l5 2 .5-3.5-4.5-9.5-4 5-5.5-1.5-4.5-17.5-2 10-4.5-1.5-7-31-11-19-1-8-3.5-3.5-7.5-3.5zm34.5 28 1 9q2 3 3 0z"/><path fill="#cbad53" stroke="#cbad53" d="m600.5 293 14.5 11.5 1.5 2.5q7.3.3 9.5 5.5l12 23 4 17h-1q-4.6-15.9-14-27zm-246 7 4.5 3.5-1.5 3.5.5-1.5-2.5-4.5zm-15 3 .5 1.5-6 5zm259 0 5 6zm-257 4 3 4-3-3-4.5 3.5zm396 11-6 7zm-412 7 .5 11.5h-1zm373 30 5 6zm-201 9q32-.5 46.5 16.5l3 4-1.5-.5-5 1-9.5-7.5-2.5-4.5-12-5h-2q-31.8 2.2-52 16l8-9q11.3-7.7 27-11Zm-144 21 6 7zm6 1 6 7zm290 0 .5 12.5h-1zm-35 4q10.5 2.5 16.5 9.5l6 11h-1l-4.5-5.5q-11.2-5.6-17-15Zm-132 4 .5 15.5h-1zm75 9 2.5 4.5-1.5 4.5-2-1-1.5.5 4-6zm137 3-5 6zm4 2-10 11zm-51 1 .5 1.5-4.5 5.5q-6-1-7 3-2.1-3 3-6h2l5.5-2.5zm-166 3 1.5.5-1 5h1l.5-1.5.5 9.5h-1zm149 4-8 9zm3 3-6 7zm-55 10 2.5.5-3 1 1 2-3.5 5.5.5-1.5-1-3zm-94 7 1.5.5-1 6 1 4q-3.4 8.1-2.5 20.5l-.5-14.5 2-7zm134 0-5 6zm-21 18-18 19zm0 7-9 10zm-20 13-11 12zm-11 19-5 6zm-10 4 .5 1.5-6 5zm-8 8-14 15zm4 4-17 18zm-26 29-6 7zm-16 63 .5 13.5h-1zm-13 41-5 6zm44 58-6 7zm-23 7-8 9zm5 8-10 11zm-17 3-11 12zm4 9-15 16zm-83 12 3.5 7.5h-1z"/></svg>