<svg xmlns="http://www.w3.org/2000/svg" viewBox="0 0 1024 1024"><path fill="#12120e" stroke="#12120e" d="M499.5 147q18.6.4 33 5h2l15 1 2-1 3 1h2l4 1 2-1 1.5 2.5-2.5.5-15-2 1 2q16.5 3.5 24.5 15.5l3.5 4.5 3.5 1.5 1.5 2.5 3-1q10.9 3.1 16.5 11.5l8.5 14.5 1.5-.5 4.5-5.5 14-5 5 1 4-1 8 2 20 11 2-1q16.8 3.3 26.5 13.5l2.5 3.5 1.5.5 10 16 3 13-1.5 3.5q-5.8-23.2-21-37l-21-9-.5 1.5q9.3 8.7 13 23l20 28 12.5 30.5.5-7.5-1-3 1-6-2-6 1-3-2-6v-2l.5-2.5 1 2 .5-2.5-1-2h1l2 6-1 2 3 12v31q10.5 25.5 12 60l-2 3 2 1-2 1 2 1-3.5 1.5.5-1.5 2-8-3-4v-2q1.8-10.3-2-15l1-4-7.5-25.5-1.5 3.5-3 20v2l-2 9 1 16-6 27 8 11 3 16-1 2 1 3-13 30-2 11-15 33 3-2 8.5-14.5 1.5-.5 15-31 11-46-1-4 1.5-8.5 2.5 1.5-.5 2.5-1-2-.5 5.5 2 1-3 14 1 2-6.5 25.5-1.5.5 2 1-1.5 3.5-2.5 1.5 1 3-7 19-14 21q-10.5 26-26 47l3.5 4.5q6.8.8 7.5-4.5l7.5-14.5.5 3.5q-3.5 11.5-11.5 18.5l-4 1-3.5-2.5-1.5-4.5-5.5 2.5 1 10-1 3 3 23-2.5 4.5-3.5-1.5-2.5-16.5q-4.1 4.9-2.5 15.5l1 3 .5 6.5 15-1 1.5 3.5-8.5 2.5-3-1-5.5 3.5-.5 4.5-4.5-1.5-1.5-3.5-6-1 1 2 2.5.5-.5 1.5-16.5.5-1 4 1 3-1 5 2 14-1 2 1.5 9.5 1.5.5q-.8 16.8 4 28l10.5 10.5 11 7 4.5-6.5-2.5-3.5-19.5-15.5.5-1.5h6l20 13 18-20q5-5 15-5l8.5 5.5q5.8 7.2 6.5 19.5l2-1-1.5 2.5.5 3.5 15-1q29.9 3.1 49 17l2-3 1.5-.5-1-2 3-12-1-5v-2l-3-11 .5-1.5-13-4-23 6-1-2-1.5-.5 8.5-3.5h2l19-3q8.3.8 11.5 6.5l4 18-6 21 8 7q8.5 6.5 7 23l.5 2.5q22.3 2.2 37.5 11.5l-3.5 2.5-9-4-26-5-1.5 7.5 2.5 6.5 5 1-.5-1.5-4-7 3.5-1.5 10 13 33 12q13.9 5.1 22.5 15.5-.1 8.4-5.5 11.5l-18.5 7.5 12 21 3 11-3.5.5-16-28-.5 1.5 5 15-6.5 2.5-4-3-.5 2.5 1 2-1 2 3 19 5 11-1.5 5.5-4.5-2.5 1-2-4-12-1.5-13.5-2 3-4.5-1.5-14.5-24.5-27.5 19.5-2.5 3.5-23 17-10 3-2.5-4.5 11-21-1.5-.5-14 5-38 23q-20.9 10.6-46 17l-3-1-14 2q-9.4-1.1-13.5-7.5l-1-8v-2l10.5-21.5 1.5-.5-.5-1.5 6.5-5.5 6-9-1.5-.5q-6.2 4.8-18 4l-8-2h-2q-12.6-1.1-19.5 3.5l-7.5 24.5-3.5-1.5 5-23-2.5-.5-16 8-2.5-1.5.5-1.5 2 1 9.5-5.5-3.5-.5h-2l-14.5 3.5-1 6 2.5.5 6-2v3l-11.5 6.5 1 7-1.5 2.5-4.5-.5-.5-7.5-7 4 3-4 5.5-2.5 1-5-.5-1.5 1.5-.5 1-5-2-1 4-2 6-13-6-5-1.5-2.5q-13.8 4.2-33 3l-3-1-2 1-6-1-2 3 1.5.5q-10.2 2.8-16 10l1.5.5 15.5-9.5.5-1.5 4-1 1.5 2.5-8 7 2.5.5 3-1 21-4q3.6 2.5 0 5l-3 1h-2l-34 5-17.5 8.5-2 3 2.5 1.5 7-2 2.5 1.5-.5 1.5-7-1-3 2h-24l-71 23-52 12-33 1-14-5-22 4h-2q-27 1.5-43-8l-1 10-4.5-2.5-1.5-10.5q-6.7 11.3-8.5 27.5l1.5.5 4-7 .5 2.5-5.5 13.5-4.5-.5v-11l9-29-4-3q-9.1-9.9-11-27l1-2-1.5-.5q-9.3 7.2-26 7l-5.5-3.5 4-12 13.5-15.5 26-19 30-15 7-1 8.5-5.5 6.5-8.5v2l4.5-3.5-1.5-.5-1.5.5 15-11-1.5-.5-1.5.5 19-11q-2.8-1.7 1.5-3.5l4-1 2 1 2.5-1.5-.5-1.5-2 1 1-2 6-2 1 2 9-3v1l-23 10Q274 733.5 259 749.5l-3 5 1.5-.5 19-5 39-26 25-8h2l10 1 11.5-8.5-.5-1.5-3 1-5-1-8 1-2-1-16 2-1.5-.5-.5 1.5-1.5-.5-.5-1.5-1 2-4 2-1-2-5 1v-1l29-6h2l2 1 1.5-.5.5 1.5 1-2 9 1h2l6-1 3-1 5.5-2.5 3.5-4.5 31-23 14.5-7.5q4.2-7.3 4-19l-4-17 1-2 .5-2.5 4.5 9.5 2 20-2 11 1 4-1 4h1l2-7-1-2q5.2-4.8 5-15l-1-4 1-10-3.5-4.5-1.5-.5-1.5-4.5-8-5-16 3h-10l-.5-2.5 5-4-13.5-.5q-4.1 1.9-3 9l-4.5-.5-.5-10.5-12 2-2-1-2 1-4.5-2.5 1.5-2.5 18.5-2.5-1.5-11.5-2 1-4.5-16.5-5-41-8-12-6.5-19.5-6 1q-14.7-3.2-22.5-13.5-10.7-10.8-17-26l-13-48v-2l-1-14 1-3-10-26-2-24 5-23 9-21 7.5-10.5 1.5-.5 8.5-11.5 4.5-3.5 11.5-13.5 4.5-3.5 2.5-3.5 1.5-.5q11.6-35.9 35.5-59.5l1.5-.5.5-1.5q16.2-15.8 38-26l49-20 26-7 2 1zm-1.5 5-20 5 16 1 20-3v-1l-9-2-2 1zm25 3-17 4q24 4 45 12h6v2l13 8h1l-1-3-4-3-1-1q-3 2-6-2h6q-15-15-42-17Zm-48 6-14 2-21 7q-28 12-50 30l-3 4h-1l-15 15-1 4-3 1-14 21v1l12-9v2h2v-3l7-10 8-7 1 2v-2l3-1v-1l3-2v-1q19-15 44-24l15-11 36-16q-2-4-9-2Zm17 1q-26 9-47 22l-2 3 26-9 13-2h18l20 3 19-6q-20-9-47-11Zm51 12-5 2h3l7 5 17 4h2q-9-9-24-11Zm-61 5q-29 4-51 15l-15 12-7 8 48-24 33-10zm98 2 5 9 16 12h1l-4-7q-7-10-18-14Zm-61 1-37 7-19 8h4l1 3-1 3-7 3-1-1 2-1 1-3-2-2q-16 2-26 11l1 2-2 8-17 23-2 3 7-5v-1l3-1v-1l4-3h1l-23 21-5 6h-1l-4 5-5 4-2 3 10-1 10-15 2-1 13-15 3-2 1-2q5-2 2-4l1-2v2h2l-1-1 2-3 2 1-1-1 25-21 2 1v-1l23-14 3 2-7 12h-1l-1 2-12 13 42-28 2 2-3 5-1-2q-34 18-59 44l-18 20 1 1 87-56-2-7q0-13 5-19zm8 1-7 14q-2 8 2 11l11-7 3 2-14 9 4 7 8 5 34-18 1 3-25 17h16q15-2 25-8l-8-18q-12-10-30-14l-2 7-4 3h-2l4-6-1-3q-6-4-15-4Zm-43 1-26 9v1l30-9zm143 14q-11 3-16 11l1 1 22-5 4 1 14-1v-1q-8-8-25-6Zm-145 2q-22 11-38 26l-40 45 1 1 41-32v-1l16-14v-1l3-2 17-20zm-66 1q-21 10-36 24l-10 13q-3 6-5 1l-3 2 1 1 2-1v3h-1l-14 25 1 1 19-26 39-35v-1l8-6zm167 0 5 14 3 1v-1l2-1v-1l-1-1-1-3zm59 7-5 2 14 3 22 15h1l-9-13q-3-6-10-7l-2 1zm-13 4 4 2h6zm-200 1-10 5-1 2-5 1-3 5-2-1-30 25 1 1 6-4 2-3 2-1 2-3 2 1-3 2-1 2-5 4-1 2-4 3-1-2-1-1-9 11h2l6-7 2 1-8 9-2 1-5 8h-1q-9 7-12 20v1l9-4q3-1 2-6l-2-1 1-3 11-4 1-5 2-1 2 6 6-2 4-5 4-3 8-9 2-1 2-3 5-4 25-36zm90 1-14 10-26 28 1 1 49-25 1-2-3-2-7-9zm97 3-2 2 3 3 8-4zm-208 2-16 11-6 7h-1l-6 7 1 1 29-25zm223 0-8 4-5 6 1 10-1 4h-2l-3-4-6-3-19 12q23-1 40 4l1 2h9l-1-6q-2-8 2-9l-9-6h-4l-2-2q5-6 16-6h2l3-1 13 3v-1q-8-8-25-7zm-45 3-9 6-1 2 10-6v4l-12 7-9 12 1 1h16l21-13v-1l-7-6-3 2-5-1 1-6zm20 4-2 1-1 2 6 2 1 1-1-4zm-36 1-17 3-13-1-5 6h-1l-11 15 1 1 15-1 27-13 7-9zm-38 1-49 28-8-1v-4l7-9 12-13-9 6-2-1-1 2-40 26-1 2 12-2h2l44-7h2l18-3q5-15 17-23zm106 0-3 1-1 2 16 10 19 22 12 31 5-9v-2l-4-17v-8l-10-16q-9-15-34-14Zm-75 13-11 6-1 2 9-1 3-4zm79 0 2 13 5-1h2l2 1 3-1zm-283 4-15 16-10 33 1 4 13-32 11-19zm78 5-17 14-4 5 8-1 14-17zm137 0-10 1-2 3 1 3 12-5v-1zm10 0-10 6-1 2 33-3 2 1 12-1v-1q-8-4-20-3h-2zm-33 1-24 6-10-2h-2l-68 11v1l28-1h2q22-4 49-3l32-4 1-7zm71 7-7 1h-2l-18 2 2 1 18 1h2l10 1 7-2 3 1v4l-9 2h-2l-43 4-2-1-19 1-7 2-7-1-16 1h-2l-26 2h-2l-37 6-40 4-5 2-3-1q-9 3-21 2h-2l-2 1-2-3 11-2v-2l-15 1-6 4-3-2-2 3 1 10-1 5 1 33v2l1 2-1 2 1 3-1 8v2l1 2-1 8v2l1 20v2l2 21-1 3 2 7 1 20v6q3 15 2 36l2 9-1 4v2l2 25v2l3 22 1 33 3 11-1 5h-3l-2-9-1-1-1 3 1 11h7l13 4 16-2q-1-6 3-8l10 6 39-4h2q24-4 54-3l6-3 1 2 42-4 2 1 21-3 2-6 5-2 1 7 1 2 15-1 6-4 7-8 1 1-8 11 11 1h5v-6l-2 3-3-1 5-13-1-3-1-3-3-13 1-2-1-15 1-2-1-2 1-26-1-3 1-2-1-4 2-9-1-2 2-1-2-4 2-1-1-3 2-14v-2l-1-4v-2l-3-12-3-34 1-5-1-12v-2l1-3-1-2 1-5-1-2v-2l1-2-1-3-4-1 5-9 2-62-2-8 1-2-2-26-2-4-3 1-3-1-3 1-2-1-2 1zm26 0-2 2 2 6 2-3 3 1 2-5zm12 0-7 15v9l8 1 1 3v8l-5 17v10l2 3 18-25-3-13-2 1-2-3-2-2-2-2v-2l4 1 2 4 2 1-10-22zm29 1 8 31h1q-1-19-9-31Zm-324 3q-18 20-29 48l-9 35h2v-1l2-1 15-19 2-1 1-3 2-1 9-14v-5l3-1-1-5-10 5-7-1q7-20 20-33zm321 0q3 7 2 20 2 3 4-1l-3-7v-2l1-3-1-1zm10 3 7 24h2q-2-15-9-24Zm-160 2-40 5h24l3-1h2l4 1 55-3 4-1zm-203 5q-21 17-35 41-10 18-13 44 1 21 8 37l2 1-1-5q0-14 5-22v-8l2-1v-5l2-1v-6l8-24 3-4v-5l2-1 3-12 2-1 5-11 1-3 2-4 2-1 2-6zm148 3-25 3h-2l-13 3-38 3-1 2 3 1 81-11zm169 11q-3 19 2 31l1-7zm4 0 2 16 2-15zm37 3-2 2 1 7 3-2zm-5 4-5 6 2 7 3-2zm-359 1q-15 26-23 59h2l12-22 9-35zm44 2-2 3 2 17 1-2v-2zm324 3q-7 2-5 14v2l-1 3h2l6-8zm-17 5-19 27 1 8 20-27-1-7zm29 5-2 3 1 12-1 10h2l1-9-1-9 1-2zm-348 3q-14 23-32 41l3 6 29-45zm339 1q-8 5-10 17l3 10q6-7 8-19zm-336 1-22 34 1 1 22-24v-10zm319 2-22 29 1 3 6-5h1l-8 9 3 8 22-33-2-10zm-27 6-2 10 2-1zm-329 1q-7 13-7 33l1 2-1 2 1 10-1 2h2v-4l1-3-1-12q4-5 3-15v-2l2-7zm37 7-30 34 5 14 25-46zm323 3-22 34h2v-1l11-10-11 14 3 10 15-26 2-14zm13 1-6 11 2 12 4-16zm-334 1-26 49h2l25-36zm-48 5-14 27-3 13 1 9 2-3v6h2l12-14-2-18 2-15zm373 10-3 4-1 10 1 7-6 19 1 2 10-21zm-324 4-23 43 1 5h2l7-11 3-2 9-15 1-10zm333 4-4 15v2l-1 2h2l3-12zm-52 4-3 11v2l1 5v2l-1 3 1 3-1 2 1 2-1 2 1 25 3 10v-42zm36 0-14 24 1 2 12-14 2-11zm23 0-5 17 1 6 3-4 2-18zm-376 6-4 4v24h2l7-11zm39 6-2 11 1 15 3-6zm294 0-3 4 2 14 3-5zm-298 7-17 37 2 7 8-12 5-4 1-1v-17l1-2zm292 0v15h1q2-11-1-15Zm-311 1-5 6v3h2l3-7zm332 0-7 10 1 3-1 11h2l4-9h-2l3-10zm-361 2-5 7h-1l-1 2-7 4 1 15 4 6 16 14h1l-3-17-5 7h-3l7-15-2-7 1-3q-3-4-2-12zm21 8-10 14 1 10h2l8-16zm329 2-7 10v2l1 1 6-8zm-315 4-7 9 2 5 5-12zm19 1-4 10-1 22 1 7-1 5 1 3-1 3 1 2-1 7 1 3-1 2 3 11-1 2 2 9 3 1 2 2-2-33 1-4-3-35v-2l1-4zm327 3q-3 7 4 9l2-6zm-357 1-6 10 1 2 3-6 2-1zm350 0-13 28 1 3-1 3-1-1-9 23 5-3-4 8v5h2l20-54zm19 1-6 23 2 9 5-16zm-43 2-6 7v9h2l5-8zm-368 3v10l-1 2 5 24 8 24 15 25 3 1v2q7 8 21 11h3l-7-20-12-21-13-11-13-18zm382 4-7 8 2 6 6-13zm-342 3-7 9 4 17 5-16-1-9zm20 1-9 13 3 5 6-15zm5 0-8 20-1 3 1 2-1 3 2 8 6 10h1l-1-23v-2l1-2-1-2 1-6zm332 2-2 8 1 3 3-5-1-5zm-389 1q1 17 11 29h2v2l10 8h1l-6-22zm361 7-5 7 4 12 6-15-2-1-2-2zm23 6-3 9 1 4 2-7zm10 2-17 35h2l15-25zm-357 3v14l-1 2 2 4 2-4zm316 2-2 2 1 21-1 3h2l4-10-3-15zm-323 2 3 12v-11h-1zm42 4v37l2 22h1l-3-44 1-2zm302 4-8 22 1 2 7-21zm-329 4v6l3 2-2-7zm-6 7-1 3 6 10h1l-2-10zm310 0-1 11h1zm-301 5 5 17h1q0-12-6-17Zm310 1-7 10 1 11 7-15zm28 3-19 29-13 11 1 24h2l2-10-1-2 1-4-1-2 2-5 1 12 3 2-2 4 1 2v-1l2-1 14-23v-2l-9 6-2 1 18-38zm-43 5-2 2 1 3-3 30h2l3-7zm17 5-7 16h2l6-10zm-314 1 1 6 5 4-3-6-1-1zm19 10 4 29 1-2-1-26zm-19 1 7 12h1l-6-10zm3 13 9 25h1l-1-12-1-1-7-11zm294 8-3 4v23h2l2-17-3-1 3-8zm-280 11v17l3 17v2l5 28h1l-1-17 1-6q-4-11-3-25zm281 18-3 7 1 13 2-1zm-265 15-2 4 2 22h1q2-16-1-26Zm204 35-17 2v1l24-1v-1zm30 7-8 1-3 6-1 14 1 2 3-8 5-3 2 3 2-6v-2l-2 3h-2l5-9zm-56 1-2 1-1 2 17-2zm-19 1-3 4 10-1 2-2zm-156 1-1 6h4l9-1zm141 0-4 4 1 1q8 0 11-4zm65 0-14 2-14 15-4 5 15-10v3l-27 20 1 1 25-15 6-10 4-2v2h3v2h-1l-5 8 4 3-5 3 4 16 3 1v-1l2-1 5-7-1-19v-2l-1-2 1-5v-2l2-4zm31 0-5 15q0 22 7 38l4 3-3-17-2-1 2-3-2-9 1-2-2-20 1-3zm-148 1-27 4 2 2 27-4v-1zm35 0-2 1-2 3v1q11 2 14-4zm-14 2-3 4q6 1 7-3zm71 0-9 2-2-1-2 1-24 25 29-21 2-1-6 10-6 7 22-21zm-93 3-20 4 1 1 22-2 3-2zm67 0-7 1-27 27 1 1 35-28zm-122 1-16 4 3 1 20-2v-1zm127 0-33 26-6 7 7 1 26-27 6-5zm-26 1-5 6h-1l-1 2-16 17 29-24zm-19 2-3 2-1 2h-1l-17 18v1h3l27-22zm-13 1-2 1-2 3-2 1-10 11h-1l1 2 20-17zm-9 1-8 9 9-8zm-14 1-6 3 4 4 7-6zm-20 3-1 5 1 3 1 11h2l1-10-2-1 1-3-1-3zm59 2-13 11-7 8 3 1v-1l5-4 13-14zm110 1-2 7q-1 15 6 22h1l-3-7 1-3-2-4zm-68 2-24 19-1 2h-1l-1 2 7 1 21-23zm31 2q-12 8-18 21l-3-1 6-10 2-1 2-3-25 13-30 34h-3q8-16 21-26l-2-1-26 27-13 14 55-22 2 1q-34 11-63 27l-9 10-1 13-2 3 1 1 46-13 13-1v3l-60 21-8 5h-2l-8 3-11 8-2 3 20 13q21 1 37 8l2-1 26 7 8-2 22-19 9-29 10-18 3-2-1-1 11-15-2-10v-2l-1-3v-2l-1-2q-2-15 2-22l-6-21-1-1-1 2-3-1 4-5zm-68 3-14 13 1 1 14-13zm35 7-2 1-2 3-8 7 1 1 11-10zm-75 3-4 4 1 3 4-6zm10 3-7 6-1 2h-1q-6 2-5 11h2l16-17zm115 1-6 7 3 8 4 3-2-8v-2l1-6zm-104 2-16 13-11 12 1 2 1-2 2-1-4 6 1 1 3-2 2-4 24-23zm120 0q-1 13 6 22 2 3 3 0zm-109 1-12 10-16 17h-1l-8 9v7h2l8-10 2-1 4-5 30-26zm193 1-11 6-15 18 16 11q7-6 21-6l4-3v-8l-5-12q-3-6-10-6Zm-178 2-25 23-23 24 3 6 7-3 11-13 7-6 21-23 2-1 3-5zm83 5 1 8 3 2zm-12 2-2 5q-2 19 4 31l11-12-1-5 2-1v-2l-3-3-10-12zm-131 8-4 10h2l2-4zm171 2q0 10 8 15h1zm-201 4q-8 18-22 30l-1 2 17-10q6-6 6-17zm-7 1-43 31-3 4 12 2q8 2 11-2l19-23 5-11zm37 3-5 6 1 10 3-4 3-4-3 1-2 1 5-6-1-3zm210 0-1 3 13 9 1-2zm-28 1 4 9 8 5 4-1zm76 2-6 18 1 2 19-17 4 1v2l-15 13-3 6q8 9 25 10l4-5 2-1v-1l5-4 1-2 2-1v-1l12-8h4q5 3 6 10l2-6q-14-11-35-15zm-235 2-7 8 7-6zm229 0-5 2-1 2-2 1-4 6 8 5 5-15zm-10 1-10 5 6 3 3-2q4-2 1-3l1-2zm-95 1-1 2-2 1-11 12 3 9 10-18 1 1-10 20 6 19 3 1 8-10 14-10-10-16-6-4h3zm58 0-3 5 17 10v-1zm22 5-3 4 8 5 3-4zm-224 1q-8 3-9 13l1 8v3q9 2 11-3l-1-4 1-2-3-1 2-5-1-8zm-25 2-4 2-5 7 3 1 2-1 5-8zm13 0-5 5-4 15 1 2 8-17zm209 0-1 2 6 3h2zm37 3-4 5 1 3 10 4 3-5zm-73 1v4l9 12 9 7 2-5-8-7-6-7zm145 0-17 13-6 7 24 5q4-5 5-14l-2-9zm15 2-10 24 18 4 4-1-1-9 1-2-5-9zm-193 5q-15 17-23 40l-1-3-3 19 4-2-6 6-1 25h14l-1-5 2-1q0-12 6-18h-2l2-6 1 5 19-28-7-18-1 3-1 3-3 7v2l-1 3-2-1 5-13-1-2 2-3zm-140 3-6 9 1 1 5-1zm263 0-2 3 6 1h2zm-288 3-12 8 1 1 11-6 1-2zm12 1-8 11 1 1 4-1 3-7zm34 0-2 1-2 4 3 1 1 3h-2l-2 4 1 8q6-6 4-20zm199 0 6 4h2zm-299 1-13 10 1 1 21-7 1 2 8-2v-1zm284 1-2 1-1 2 17 9h2l-1-2-9-8-3 1v-1zm53 0q10 8 28 11v-2l-8-5zm-81 2-8 6-14 15 8 11 14-29zm-220 2-4 2-3 4v1l8-6zm225 0-11 20 1 1 13-12v-1l3-2zm-182 1-9 2-5 12 1 1 18-14zm11 0-22 16-6 9 1 2 31-12-1-2 2-10zm-38 1-8 10-2 3 8-6 3-6zm224 0-3 4 4 2 2-3zm96 1-1 2 10 5h14zm-347 2-3 1-5 6v1l8-4 1-3zm16 0-14 10-3 4q13-4 21-13zm-70 1q-25 6-41 19l-2 3 5-2h2q16-9 38-14l6-4-6-1zm312 0-3 4 10 4h1zm-150 1-31 10-2 3v1l33-12zm139 1-6 11 1 1 5-7q4-3 0-5Zm-5 1-21 21-1 4 8 5 14-27zm64 0 8 5h2q-2-6-10-5Zm-341 1-20 8-2 3 23-9v-1zm71 0-9 7-1 2h-1l-8 10 6 2 10-8 5-12zm216 2-21 29 3 1 7-3 1-2h1l-3 4 1 1q8 1 11-3l21-19-3-3-2 1zm48 0-5 5q10 8 27 10l2-3zm74 0-3 5q11 8 27 11v-12zm-33 2-1 2 22 9 2-3-3-3zm-319 1-12 8-2-3q-12 0-17 6-3 2 0 3l8-1 12 1 5-4 8-9zm261 1-3 4 5 3 3-4zm-347 3-20 8v1q14 1 21-7v-1zm134 0-5 6 6-5zm-86 1-7 5v1l8-3 1-2zm80 1-27 10-3 3 4 2 18-7 8-6zm143 0q-17 17-25 44l2 6v-1l2-1 16-23 2-1v-1l3-2 7-9zm86 0-4 6 18 12 5-1 3-4zm-15 1-6 8-23 15-17 16-20 22 1 1 13-2 27-14 29-42zm90 0-2 4 27 14v-1zm-25 3 4 5h2zm-55 5-18 27 1 1 33-15v-1zm-313 1-14 7-1 2 4 2 12-10zm29 0-15 1-9 18h5v-1q16-4 23-16zm9 1-7 8 13-5v-1zm329 0-2 3 13 6v-2zm60 0v4l11 8h1l-2-7zm-445 1-5 3 1 1 8-3zm371 0-2 2 8 3v-2zm-346 1-13 10 4 7h2l8-16zm67 0-8 4 1 1 9-3v-1zm312 0-3 3 9 7 1 3 7 5 8-3 2-3zm-454 1-30 12-5 6 31-14 3-1 5-2zm34 0-26 12-3 4-2-1-12 8-2 3v1l47-26zm83 1-5 3-9 10 17-8 2-3zm191 0-23 30h-1l-3 7h6l1 3-13 5 2 6q11 0 16-6l10-13 6-31zm108 1-10 6 13 7 6-8zm16 0-2 2 8 3v-1zm-120 1-4 21 3-2 1 2 1-2-2-1 7-14zm201 0q9 24 27 41l14-5v-1l5-3 3-4-1-4q-20-16-48-24Zm-384 2-4 2-2 3 2 1h-1l-10 18v1q15-8 37-10l-17-13-2 1h-2l1-2zm321 0-15 22 9 4 6-3 3 1-7 4 25 11 8-11-12-12-8 3-1 2-3 1-1-1 10-6v-1zm-402 1-58 33-1-4-7 4-22 26v1q54-21 94-56zm54 1q-14 4-21 13l-1 2-4 5q18-6 28-19zm327 0-8 11 11 7 9-13zm-464 1-16 5-7 9-2 3 26-16zm546 0 1 7 4 3zm-188 1-5 8 1 1 2-3 2-1v-1l2-1v-1zm-205 1-26 13-16 12-5 6 1 6 16-8 6-9q2-3 3 0l-2 5-6 6-16 10 11 8 26-30 9-18zm211 0q-14 10-21 28l1 1 5-6 6-5v-1l16-15zm74 0-15 13-27 30-2 3 17-1 16 1 24-37zm-9 1-32 16-18 24h5v1l-5-1-4 3-3-1-1-1-4-2h-15l-14 7q-3 2 0 3l27-1 8-2h2l12-1 9-11 4-3 2-3 24-23v-1l3-2zm-335 1-38 27-3 4 47-23zm421 1-11 6 1 2 12 8 6-11q-2-5-8-5Zm-502 2-18 9-2 3 3 1q2-5 4-2l3-2v-1l12-7zm276 0-6 4-1 2-12 10-3 4 18 2h4l-1-5 2-16zm-314 1q-30 12-53 30l-1 2h-1l-8 9-7 5v2l-4 9 1 1h11l17-6 9-15 22-16 4-5 3-1 8-14zm139 0-9 5 2 5 8-9zm-65 2-15 8-2 3-2 3 20-12v-1zm478 2-8 12 17 12h2l-4-10 1-4-1-3zm-73 1-24 36 6 1 4-1 25-29zm-469 1-6 4-1 2 8-5zm204 1q-27 2-43 13-12 7-14 25l6 5 13 5 2-1 6 2 4-1 4 1 8-3 4 1 1-2 3 1h-1v1l42-4 8-6 3-4 10-6v-1l-18-5zm-91 1-53 27-31 22-9 10q22-3 39-11 18-19 44-31l10-15zm103 0-1 2q19 15 49 20l10-8zm-98 1-5 7 1 2 4-2zm-93 1-7 5-3 4 11-6 1-2zm541 0-1 4 8 12h1q-2-11-8-16Zm-83 3-13 17 1 1 7-6 2 1v-1l6-5 2 1 1-2 2 1-20 13-1-2-1 2v2l-5 3-4 5 12 1 2 4-11 4-4-1v2l-17 4-4 5 43-3 20-9v-1l6-3 11-14zm-81 3-7 9 1 1 7-9zm152 0 3 14 4 2h2l-6-13zm-552 2-2 1-4 5 7-5zm19 1-11 5-11 13 1 1 26-17 1-2-2 1zm512 0-8 10 1 2 7-1 7-5zm-417 1-7 4-5 6 12-7 1-2zm163 1-7 5-4 5 10 1h2l25-3 1-1-1-2-1-2zm114 0-19 11 13 1 7-11zm-417 2-8 6 1 1 7-5zm334 1-2 2 2 2 10-2-2-1zm-331 1-19 12-9 11 1 1 17-9 4-4q-1-8 4-9l-3 4 2 3 3-6zm563 0-9 8 3 1v1l-5-1-14 8-6 7 1 2-2 1q-10 10-15 24l1 1 13-6 37-27v-1l9-6 1-3zm-426 1-22 16 1 1 15-6 6-9zm236 0-11 16h2l9-14zm-334 3-21 14-10 15v1l4-1v-1l28-27zm294 2-1 2 6 3 2-4zm-255 1-51 27-3 4 1 7 10-2 5-7 39-28zm38 0-23 16-4 5 14-5 14-15zm246 2-9 4-1 2 6 1 4-5zm14 0-4 5 1 1 9-4 1-2-3 1zm-236 1-4 3-10 12-23 17 1 1 20-5 1 2 2-2 9-1 9-8 4-5 2-1 1-2-5-4-5-5zm26 1-8 9 6 3h2l-1-2 1-8zm419 0-3 2 8 16 2 1-6-18zm-571 3-6 6 1 1 2-1 3-4zm-20 1-3 2-2 4h2l4-5zm346 0-6 9 1 3 8-2h2l8-1 2-4-9-5-2 1zm252 0 4 18h1l-3-15zm-466 2-17 7-10 15v1q17-8 29-22zm278 2-7 2 4 1 6-1v-1zm39 0-20 2-13 15 2 1-4 2 6 1v1l-7-1-12 24 1 4 8 5h14l30-8 52-26v-2l-16 2-4-1-15 2-3-1-1 2-2-1-7 2-12 14-3-1 8-13-1-1-3-1-9 2-7-2-2 1-4-1q16 0 29-3l2-4-4-1q7 0 10-5l-1-1 4-6zm-457 1-15 7-3 6q1 15 9 24l4 2 3-10-1-4-4-3 1-6 7-10 1-5zm477 0-11 16 1 1 11-10 5-6zm15 0-9 7 1 1 2-1 3 1v-1l11-4zm-451 1-3 4-3 2-3 4 6-2 4-7zm129 1-3 2-12 13q5-3 16-2v3l-20 2-19 14-3 5-29 11-6-1-6 1-1-2 2-1-2-5 3-10v-2l-12 2-5 10 1 7 6 1h1l-1 3 6 1 3 1 33-2 34-8h2l71-22-23-7-5 2-1-3-18 1v-3l9 1 2-1zm-151 3-5 6 2 5 1-5q-3-2 2-4zm28 1-6 5 1 1 6-4v-1zm217 3-51 7 10 2 2-1 5 2h9l29-9zm-159 2-14 6-1 2-3 2-4 5v1l11-2 12-13zm8 0-13 12 1 1 7-2 5-9zm-79 1-7 4-1 2 10-5zm226 2-11 4-1 2 8-1v-1l6-3zm-226 3-11 5-1 2 6 2 6-1zm49 1q-14 6-31 8-5 2-1 4l9-1 2 1 16-3 6-8zm-75 2q-6 9-6 25l5 3 25 7 10-1 2 1 23-4 1 2 3-2-1-2q-2-10 2-14l1-2-11 2q-18 2-25-6l-19 2-7 11-6-3 1-5-2-1 6-7zm132 1-29 5-3 5-1 3-1-7-10 2-5 9 2 7 23-5 27-18zm214.5-674 7.5 3.5-1.5.5-6.5-2.5z"/><path fill="#12120e" stroke="#12120e" d="M580.5 159q10.9 1.6 15.5 9.5l-.5 1.5-5-6zm17 14q3.6 3.9 2.5 12.5h-1zm-198 60 .5 1.5-6.5 4.5 3-4zm196 54 5.5 1.5 1.5 3.5 18-2 2.5 1.5-1.5 2.5-4.5 1.5v22q6.1 22.9 6 52v2l-1 7v2l1 41v2l-1 11v4l-1 16 1 4-1 3v2l1 28-1 7 6 43-3.5 2.5-2.5-3.5q2.4-12.9-1.5-19.5l-1.5 31.5 7 3-1.5 2.5-5.5 1.5 2 7-2.5 4.5-2.5-1.5-1.5-8.5-5-2-16 5-50 9-2-1-4 2-37 5-3-1-17 2h-2l-8-2-3 1-19-1-2 1-6-1h-2l-3 1-2-1-14 2-1-2 17-3h4l14 1 2-1 3 1 2-1q14.3 3.2 33 2l30-5h2q25.6-1.4 46.5-7.5l-7.5-.5-28 3h-2l-29 2h-2l-35 3-45 1-3-2-1 5-2.5 1.5-.5 1.5-3.5-2.5-1-3 1-2-2-4q4.2-2.2 2-11l-8-36-3-40 1-2v-2q3.1-5.4 2-15l-3-47v-30l-7-46 4-17-1-3v-4l-2-4 2-1q-1-5.5 2.5-6.5l3 7 5.5-1.5.5-1.5 7 1 21.5-5.5-13.5-.5-17 3 3-4 3-1h2l38-2 3 1 21-1 35-5 2 1 37-4h37zm-71.5 9-49 6-2-1-34 5v1l18-1h2l22-4 29-2h2l16-2v-1zm74 0-27 3-4-1-41 2-58 8-67 6 1 6 1-3 3-1 2 51v2l2 19-1 2v2l1 3-1 24v2l3 18 3 42v52l3 1 1 3-4 1 3 16v13l2 1 4-2 4 2h16l79-14 21-2h4l3-1 10 1h15l25-6 1 5-15 2 8 1h17l-3-32-4-20 1-3-3-14 1-7-2-7v-2l1-2-1-2v-2l1-2-1-4 1-2-1-4 1-5v-2l-1-2 2-20-1-5 1-3-1-5 2-3-1-4 1-5-1-4 1-8v-2l1-2-1-4 2-5-1-2 3-28-1-11-3-1 1-6-1-2 4-19h2l1-4v-3l-10 1zm-195 40 3 61h1v-22l-3-38zm211 9v12l-1 3 1 2h1v-14zm4 4v11l-1 10v2l1 2-1 9v2l1 2-1 19v2l2 39 1-10-1-13 1-36v-2l-1-3 1-3-1-30zm-8 3-1 23v2l-1 7v2l-3 33 1 3-1 2 1 59v2l6 37 1 17h2l1-9-1-2 2-18-1-2 1-2-3-64 1-2-1-9 1-3-1-23v-2l-3-47zm-205 50-1 19v2l2 20-1 4v2l1 15v2l1 5v4l2 9v2l2 9-1 2 2 10 1-4v-4l-2-38-2-7v-15l-2-7zm0 77-1 6v2l2 19h1q2-17-2-27Zm144 75-23 2-18 5h-8l-19 4v1l34-3 35-7zm20 1-39 8 1 1 19-2 2 1 39-5v-1zm158.5-182 .5 2.5v4l-.5 2.5-2.5-1.5zm-35 125 .5 6.5-3.5 13.5-1.5-.5zm-55 68 .5 1.5-8.5 14.5-.5-1.5 4-6v-2zm1 37 2.5 1.5-7.5 15.5-.5-3.5zm-226 21 7.5.5-.5 1.5-25 7-2.5-3.5 2.5-1.5 3 1zm142 15-6 7-3.5 2.5-1.5 2.5-1.5-.5 5.5-6.5zm185 14 1.5.5-2.5 4.5-2 1 1-3-2 1-.5-1.5zm-11 6-2 5-2-1 .5 1.5-1.5 2.5-1.5-.5-.5-1.5-3 2 2-3zm-73 74 1.5.5-1.5 2.5-1.5.5-1.5 2.5-4 2zm-11 9 2.5.5-6.5 5.5-.5-1.5 2-1zm-165 63 2.5.5 1 2-2.5 1.5h-2l-14 4v-1l5.5-1.5 1.5-2.5zm73 12 1.5.5-.5 1.5-7 2h-2l-2.5-.5zm113 3 5 1 1.5-.5-.5 1.5-3-1-1 2-4 1v-1l1.5-.5zm-274 1 2.5.5.5 2.5 2.5-1.5-1.5 2.5-5.5-.5zm144 0 2.5.5.5 1.5 4 1 1.5-.5 1 2-1.5-.5-3 1-3-1-5 2-4-1-3 1-8 2-3 1-3 1-1-2-2 1 1-2 3.5-1.5-3-1 2.5-.5 2 1 7-2 2 1 7-2 2 1 1-2zm-123 3 3.5.5-.5 1.5-29 9v-1l1.5-.5.5-1.5 5-2 2 1 6-4 1 2 1-2zm90 1h2l1.5.5-1.5 2.5-6.5-.5zm97 1 15.5 1.5-18.5.5v-1zm-225 9 2.5.5-1.5 2.5-24 7-3.5.5 1.5-2.5 4-1h4l1.5-.5.5-1.5 8-3 2.5 1.5 1.5-2.5zm118 1 2.5.5-16.5 6.5-2.5-1.5 9.5-4.5 3 1zm15 18 2 1 2-1v1l-6 3 .5-1.5zm-6 4 1 2-6 3 1-2 3.5-1.5zm-7 2 .5 1.5-2 1 1 2-2.5 1.5-.5-1.5 2-1-2-1zm-57 1 1.5.5-1.5 3.5-3.5.5-.5 1.5-2.5.5-.5 1.5h-2l-11.5 8.5 1.5.5 4.5-3.5-4.5 5.5-1.5.5-6 9 10.5.5 3-1 2 1 7-4 1 2 1.5-.5 1.5-2.5 3-1 3 1 1-2 3-1 2 1 3-2 3-1 1.5.5q-19.2 11.8-48.5 13.5l-2.5-1.5-1-2 13.5-16.5zm30 12-.5 1.5-.5 2.5-5 2h-2l-1.5-.5z"/><path fill="#f7f7f7" stroke="#f7f7f7" d="M.5 0 1024 .5l-.5 1023.5L0 1023.5zM513 136l-24 4-28 11q-9 1-12-3l-3-4-1-1-2-2-3-2-8 2-23 13-1 2h-1l-1 3-5 2-1 2-11 7-1 2-6 4-1 2-3 2-2 3h-1l-6 7h-1l-4 6-6 2-1 2h-1l-2 4q-1 5-7 4l-1 4-2 1-5 9-2 1q-5 2-5 9l-4 3-5 8-2 1-6 10-2 1 1 2-1 6-3-1q-4 1-3 8l-5 2-5 15-2 1h2v2h-1l-1 4-2 1-1 2v2l1 2-3 7-4 2 2 7-3 1-2 4v2l-6 30 1 3v2l-2 12v2q-4 5-3 15v2q2 12 11 18-2 11 2 18l8 3 1-2 12 45q6 15 17 26h2l5 8 1-3 11 6-1 2 1 14 4 15-1 3 1 9 3 2-2 6 2 14v2l2 3 7-1 1 4h1l-1-2 2-1 2 8v12l-3-3v-3l-3 5 1 4h-1l-2 3 1 4-1 2 2 16 4 3 4-1 16 6 3-4 7 2h2l9-1 18-6v-3h-7l-12 4-2 1 2-3 8-3 17-1v2l4 2q4 2 1 4l3 1 2 6v2l1 3-1 2 1 7-5 14h-1l2-14-5-24-3-2-2 7 5 16-4 17-16 9-39 30-13-1-25 3-2-1-26 8-30 19-1 2h3l-11 6-9 11h-1q-6 2-3 5l-15 5-30 15-24 18q-14 9-20 26l1 4 6 3q15-1 26-7 0 16 8 26h2v2l4 3-7 23-2 17 5 2q5-6 7-16l-1-1-4 6h-1q1-16 8-26-2 10 4 13l3-2-1-4 1-4 21 7 2-1 9 2 21-1 12-3h6q4 5 15 5l30-2 33-7 86-27 14-1h2l2 1 2-1 2 1 6-1h2l18-2 3 1-7 2-1 2-1 2 21-7 17-2 4 1 8-1 1-2 1 2 3-1 1 5-15 7-4 4h-3l-3 4v-2l-5 2-2 3-1 2 31-16 1 1-1 6 5 1 3-4-1-1-1-4q5-7 16-8l3 1 3-1 4 2-1-4-2 1h-8l17-10 1 1-2 8-2 1-1 2 2-1v2l-2 1 2 1-2 8 2 3 4-3-1-2 3-9 2-1-1-1 3-10 15-3 10 2q13 2 21-3l1 1-10 13h-6l-5-1-1 2 10 1h-1l-7 12-4 14v2l1 4q4 6 14 7l19-1 21-6 29-13 36-22 9-3 2 1-11 21 1 2 4 2 10-4 24-18v-1l29-20q5 16 16 26l4-1 1 6-1 2 5 19 3 1q4-2 2-11l-2-2-3-6 1-2-4-20 1-2 5 3h2l3-2-3-13v-2l15 27 3-1-2-10-13-21 21-10 4-9-1-2q-8-10-21-15l-35-13-8-11-2-2-3 2 3 7 2 2-7-2 1-13 24 5 12 5 2-4-5-4-33-8 1-5q-2-19-15-26l5-19q2-15-4-21-3-6-11-7l-26 5-31 18-6-16-11-9-15 6-17 20-20-13h-2l-4-1-1 4 22 18-4 6-14-10q-10-6-10-20v-2l-2-10 1-3-3-2 4-2 1-2-1-3-1-1-2 5-2-32 17-1q3-2-1-3l3-1 2 5h3q1 3 3-1l-1-2 6-4 11-1 1-2-2-3h-16v-21l2-2 2 17 4 1 2-4-2-13 1-2-1-22 3-1 1-2 2 6 3 1 6-1q8-7 11-19l-1-2 4-9 3-23q14-14 19-36v-2l3-3 6-22 5-37-3-1 1-3-1-1-2 2q1 15-2 26v2l-13 45-10 18-1-5-2 9-6 9h-1l27-67-1-19-9-15 6-31-1-6 6-38 6 25-1 2 2 3 1 16 2 2q-4 7-2 20l4 2v-34q-3-27-12-47l1-5v-2l-1-15 1-4-5-26v-2q-3-15-11-24-7-11-19-17l-21-5q-9-8-21-11h-15l-16 10-10-15-3-3-1-1-19-10-4-4q-8-11-23-15v-1q26 0 42 10l5 7 4 15h1v-7l-4-11-6-7-20-8-6 1-1-1-2-1-15-2-5 1-14-2v-1l-3-5zM334 512l2 9 2 1zm305 91-5 7-2 9 2 2 7-17zm-31 221v2h-5l-8 2 5 1h2l2-1 7 1 6-1v-1h-3l2-1v-1zm-113 8-20 9-1 3-1-1-12 4-1 2 2 1-2 1-4-1-3 4-1-1-3 1-2 3-4 1 1 2-2 1 1 1 10-6 3-1 8-4 3-4 2 1-1-1h2l27-10 2-4zm21 20-5 2-3-1-3 5-2-1-3 1-1 2h-2l-8 3-2 3h-4l-2 4 1 1 6-3 2-3 3 1 2-4 2 1 20-10zm-77 8-24 17-7 11-3 2 3 4q14 1 25-3l40-16v-2h2l5-2-3-3-4 2-2 4-2 1v-3l-10 5-1 3h-5l-9 3-1 2-1-2-19 6h-11l3-5 4-3 2-3 4-3v-1l17-11-1-1-1-1z"/><path fill="#f7f7f7" stroke="#f7f7f7" d="M530.5 157q21.7 1.8 33.5 13.5l-.5 1.5-3-1-11-1-19.5-6.5 2-4zm-6 12 11.5 2.5-.5 1.5-10 5h-14l-4.5-1.5 17-6zm38 5 7.5 4.5-.5 1.5-7.5-4.5zm-21 1h7l16.5 8.5-2.5.5-14-3zm-148 7 3.5 1.5-25 20-3.5 5.5-2.5 1.5-2.5 3.5-1.5.5-.5 1.5-1.5.5-.5 2.5-1.5.5-.5 1.5-1.5-.5-1 3 .5 1.5-2.5.5 1 2-6 3 3 2-2.5 5.5-.5-1.5 2-3-2.5-.5-1 2-3.5 1.5-3.5 5.5-2.5 1.5-6.5 10.5-1.5.5-2.5 4.5-1.5-.5 12.5-23.5 1.5-.5 1.5-3.5 3.5-2.5.5-1.5 1.5-.5 2.5-3.5 1.5-.5.5-2.5 5-3 1.5.5.5-1.5 2.5-1.5 1.5-3.5 1.5.5.5-1.5 1 2 1-8 2-1 2 2 4.5-4.5 1.5-6.5 1.5-.5 3.5-4.5 2 1q3.3-6.6 6.5-4.5l.5-1.5zm187 0 14.5 9.5 6 10-4.5-3.5-12.5-10.5zm-66 1 6.5.5q-6.9 7.1-5 23l1 4-49.5 30.5-.5-1.5 2-1-3.5-1.5-10 3 1.5-2.5 1.5-2.5 47-34 2 3 3.5-7.5-3.5-.5-39 26 3-4 4.5-3.5 12-15v-4l-4.5-.5-16 9 .5-1.5.5-4.5 3.5-2.5.5-2.5zm12 1q10.8-1.3 15.5 3.5l-4 8 2.5.5 5.5-3.5 1-4-.5-1.5q18.8 3.3 30.5 13.5l7 17q-14.6 8.9-38.5 8.5l4-5 19.5-11.5-.5-3.5-2-1q-13.4 12.1-33 18l-8.5-6.5-2-5 13-9-1.5-2.5-13 7-.5-13.5zm-134 15-1.5 2.5-4.5 6.5-1.5.5-.5 1.5-3.5 2.5-2.5 4.5-3.5 2.5-.5 1.5-1-3-2 3 .5-1.5 7.5-9.5 7.5-5.5 3.5-4.5zm233 0q16.9-2.4 24.5 4.5-21.5.5-38.5 5.5l4-5z"/><path fill="#f7f7f7" stroke="#f7f7f7" d="m480.5 201 1.5.5-28.5 30.5-20 17-6 2-3 1-6 3-.5-1.5 5.5-6.5 1.5-.5 20.5-21.5q15.1-14.4 35-24Zm103 1 5.5 4.5 2 9-3-2zm-120 3 1.5.5-21 15-.5 1.5-27 22-.5-1.5 18.5-25.5h2l11-7q2 4 4 0zm175 4h19l8.5 7.5 7 10-2.5-1.5-16-10q-5.7-4.8-16-5zm30 2q17 4 26.5 15.5 10.2 13.3 15 32l2 30h-1l-1-6-10-21-20-28-2-7zm-150 3 9 11 2.5 1.5-50.5 26.5.5-1.5 19.5-22.5zm101 3 2.5 1.5-5.5 3.5-1.5-3.5zm17 2 3 1q10.3-.2 15.5 4.5l-3.5.5-17-1-10.5 5.5.5 3.5q9 .5 13.5 5.5l-1.5 14.5h-8l-6-3-23-3-2 1-7.5-1.5 15.5-10.5 6.5 2.5 2.5 4.5 2 1 2.5-7.5-1-3 2.5-8.5q5.4-5.6 16-6Zm-49 3 1.5 3.5-1 4 2.5 1.5 5-3 7.5 5.5-20.5 13.5-16 1-.5-2.5 5.5-8.5 15.5-10.5-.5-2.5-1.5-.5zm-5 2 1.5.5-7.5 5.5 3-4zm24 2 2.5 1.5 1 3-2.5.5-4.5-2.5zm-35 1 1.5.5-6.5 8.5-27 13-16 2 .5-1.5 15.5-19.5q18.8 1.3 32-3Zm-38 1 1.5.5q-11.2 9.3-17.5 23.5l-5 1h-2l-29 4v-1l7-2z"/><path fill="#f7f7f7" stroke="#f7f7f7" d="m642.5 228 2 1h2q16.5.5 23.5 10.5l11 17v7l4 14v9l-4.5 6.5q-6.5-33.5-29-51L634 230.5zm-222 1 .5 1.5-25.5 29.5 2.5-3.5 1-4 13.5-13.5 1.5-.5 1.5-3.5 1.5-.5zm73 0-5 6-2.5 1.5-8.5 10.5-1.5-.5 1-4-1-2zm-69 11-6.5 7.5-11.5 12.5-4 1 2-3 1.5.5 6.5-8.5 8.5-6.5.5-1.5z"/><path fill="#f7f7f7" stroke="#f7f7f7" d="m642.5 241 12.5 11.5-6.5.5h-2l-3.5-.5zm-81 1 1.5.5-3.5 5.5-9 1v-1zm3 9 9.5.5-11.5 5.5-.5-1.5zm18 0q20.7-1.7 35.5 2.5l-20.5 2.5-2-1-23 3v-1zm-35 1 10.5.5-1 5 .5 1.5-43 4h-2l-15 1h-2l-28 2-2-1-11 1v-1l65-10q2.6 3.4 10 2zm-74 1 2.5 3.5-9.5 2.5 1-2zm180 5 1.5.5-3.5 5.5q-2.2-3.9-4.5-.5l.5-4.5zm6 0 5.5 5.5 8 17-2.5-1.5-4-2-1.5 2.5 6.5 8.5 1.5-.5 3 12-17.5 23.5-1.5-8.5 1-2v-2l5-22-3.5-6.5-5.5-.5-1-4zm-40 1 19.5.5 3 24-1 7 1 10-1 2 1 31-1 25-5 10 4 2-1 17 1 4-1 2 1 2v2l1 20v2q-1.2 11.2 2 18l-1 2q4.6 10.4 4 26l-1 11-1 3 1 3-2 6 1 5-1 2 1 3-2 13 1 3-1 7 1 2-1 3v2l2 20-3 7 2-1 .5-1.5 3.5 19.5-5 10 2.5 3.5 3-2 .5 3.5-1.5-.5-13.5-1.5 7-11-1.5-.5-9 10-8 3h-2l-9.5-.5q1.5-7-2.5-8.5l-4.5 3.5-1.5 4.5-7 2-2-1-55 6-2-3-5 3-11 1-5-1-46 3-5 2-3-1-26 4-2-3-9-3-2.5 5.5-.5 2.5-15 1-1.5-2.5v-2l1-16-1-4 2-6-2-4 1-4-4-9 1-2-1-3 1-7q-5.5-2.5-5-11l1-2-3-14v-2l-6-18v-8l2-1-2-8 1-2-2-6v-2l1-7-2-3 1-3 1-3-4-14 1-3v-2l-2-6v-2l1-2-3-8 3-1-1-5 .5-1.5-2.5-.5-1-5 2.5-3.5 1 2 .5-2.5-3-2 1-3-1-4v-2l3-18-4.5-2.5-3.5 2.5v-22l1.5-1.5 2 1 5.5-12.5v-6l-1-3 2.5-6.5 1.5-.5 4-13v-2l.5-1.5 1.5-.5 1.5-2.5 18-8 3-1 5.5-2.5.5-1.5 83-11 18-1 3 1 10-2 3 1 49-4h2q15.1 1.6 24-3h2l11 1 9.5-4.5-2.5-3.5-6 2-7-2-8 1-13.5-2.5zM595 287q-3 4-10 2h-2l-2 1-8-1-3 1-3-1-21 2-2-1-13 2-2-1-58 7q-28-2-49 2l-2-1-9 1-5 4 2 2 3-2 18-2 4 2-15 3-7-1q-2 4-9 3l-1-4-2-2-4 8 3 12-5 16 3 19 2 3 1 17v2l1 8v2l1 33v4l2 28-1 2 1 18h-1l-1 14v2l2 25 8 38-1 17 1 3 3 6 3-1 3 2 9-2 6 1 2-1h2l16-1 13 2 2-1 23 1h2l72-10 39-10 7 1 1 9 4 2 2-4-1-8 6-2 1-2q-1-4-6-3l-2-7v-2l2-20 1 7v2l-1 2 3 9 4-1-2-22v-2l-2-6-1-18 1-3-2-4 2-38v-96l-5-32-1-25 6-3q3-2-1-4l-11 1-5 1-3-1-1-2zm43 275-7 13h-1v2l-2 5h2l8-12 1-7zm-10 15-5 8h2l4-7z"/><path fill="#f7f7f7" stroke="#f7f7f7" d="m540.5 267 3 1 10-1h2l7 1h2l6-1 2 1 1.5-.5-.5 1.5-16 1-4-1-2 1h-2l-10 1-2-1-30 1v-1zm158 5 6.5 15.5q-1.5 3-3 0zm-233 5 6.5.5-19.5 2.5v-1zm189 9 3.5 1.5-2.5 13.5zm-5 4 1.5 9.5v2l1 14h-1zm36 4 .5 1.5-1 5 1 2-3 2-1-6zm-80 2 6.5.5-1.5 5.5-2.5.5-4 26 1.5 2.5 2.5.5-1 12 1 5-2 8 1 3-2 19v4l-2 16 1 7-1 6v4l-1 10v2l1 8-1 3-1 3 2 12-1 22 1 2-1 2 2 16 2 2-1 7 7 48-2.5 1.5h-2l-17.5-1.5 13-2-2.5-4.5-24 5-36 1-3-1-5 2-3-1-49 10-45 6-2-1-2 1-9-2-3 2-1.5-6.5 1-2-3-22 4-2-4-3-1-8 1-2-1-8 1-27-1-2v-2l-1-11 1-2-2-9 1-3-5-46v-2l1-34-1-2v-2l-1-12 1-5-3-30v-2l1-7-3.5-.5-2.5 1.5v-2l1.5-2.5 61-4 43-5 5-2 2 1 30-4h2l32-1 9 1 5-2zm-100 2 9.5.5-25.5 3.5-1-2zm188 2 1.5.5 2 9-3 2-3.5 5.5-.5-12.5zm-224 2 7.5.5-13.5 2.5h-2l-22 2v-1zm209 2 1.5 6.5-20.5 28.5-.5-5.5 2-6zm28 6 .5 15.5h-1zm-9 4 1.5 5.5-2 8-6.5 11.5-.5-2.5-1-10zm-17 3 2.5 10.5-21.5 31.5-1.5-8.5 8-9-1.5-.5-7 6 .5-1.5zm3 18 .5 8.5-2 11-14.5 24.5-2.5-8.5 12-16-2.5 1.5-6.5 5.5-3.5 4.5-.5-2.5zm13 3 .5 3.5-3.5 14.5-1.5-11.5z"/><path fill="#f7f7f7" stroke="#f7f7f7" d="m403.5 341 2.5 20.5-1 3v2l1 18h-1zm285 10 1.5 20.5-8.5 18.5-.5-2.5 5-12q-1.6-15.1 2.5-24.5Zm-7 11 .5 3.5-2.5 9.5-3.5 2.5-6.5 9.5-.5-1.5zm-71 1q5.1 45.9 3.5 98.5l3 30-1 2 1 2-2.5 40.5-2.5-7.5 1-4-4-20-4-42 1-3-1-2 1-8v-2l-1-5 2-37v-2l1-11-1-2zm8 0 .5 66.5h-1zm78 0 .5 4.5-2.5 7.5-.5-6.5zm-51 3 1.5 6.5-1 28v2l1 11-1 3 1 2v2l-1.5 2.5-1.5-10.5v-45zm58 2 1.5 3.5-3.5 11.5-1.5-.5zm-42 7 2.5 10.5-3.5 5.5-1.5-13.5zm15 8 .5 1.5-4 14 1 3-2.5 4.5-1.5-8.5 3-6-3 1zm-12 12 1.5 3.5-5.5 7.5-.5-4.5zm32 7 5.5 2.5-1.5 6.5q-6-2.8-4-9Zm12 3 .5 16.5-3.5 11.5-1.5-8.5zm-43 2 1.5 6.5-5.5 6.5-1.5-.5q-1.4-10.4 5.5-12.5Zm23 0 1.5 3.5-9.5 26.5-2.5-7.5zm-8 6-.5 1.5-5.5 11.5-.5-6.5 4.5-5.5zm-275 2 5.5 55.5v2l1 28h-1l-2-18v-2l-3-25 1-2-2-16 1-3-2-18zm-94 3 1.5.5-1 2 5 3q-2.7 1.7 1.5 3.5l3 1 1.5-.5-.5 3.5-12.5-11.5zm23 3-.5 3.5 1.5 4.5 2-1-.5 3.5-2.5 7.5-3.5-14.5zm-32 5q5.9 22.6 22 35l8.5 6.5 2.5 5.5 1.5.5 4 7-1 3 3 1h-2l1 9-2 8 1 3-1.5-.5-14.5-11.5q-20.2-24.8-25-65h1l.5 1.5z"/><path fill="#f7f7f7" stroke="#f7f7f7" d="m307.5 426 4 2 1.5-.5.5 1.5 10.5 7.5 6 22-1.5-.5-11.5-10.5q-8.2-8.9-9.5-21.5Zm10.5 9-1 7q2 3 3 0l-1-2v-2zm348.5-7 1.5.5.5 1.5 2-1 .5 4.5-5.5 11.5-1.5-2.5v-2l-1-7zm11 7 1.5 6.5-9.5 26.5-1.5-3.5 5-10-1.5-.5-3.5 2.5 6.5-19.5 2 1zm22 1 .5 3.5q-4.6 17.9-15.5 29.5l.5-1.5zm-41 4q4.6 5.4 3.5 16.5l-3.5 7.5zm-313 24 3.5 1.5-1 3 2 1-.5 2.5zm318 3 .5 7.5-5.5 10.5-.5-10.5zm27 5 .5 1.5-18 37 3.5.5 7-5-.5 1.5-14.5 22.5.5-1.5 3.5-9.5 2.5-1.5-.5-5.5-6 9-3-10-1.5.5q2.1 13.6-1.5 21.5l-1.5-10.5 1-2-1-11 7-6 .5-1.5 4.5-2.5zm-25 9 .5 4.5-5.5 9.5-.5-2.5zm-260 4 .5 12.5h-1zm242 5 1.5.5q2.5 13-2.5 18.5l-.5-4.5 1-3zm44 8 .5 1.5-5 22q-3.3 12.7-12.5 19.5l-3.5-1.5-1-4q12.9-16.6 21.5-37.5Zm-335 10 4.5 7.5-2 1zm293 5 .5 1.5-3 8 2 1-1.5 15.5-1.5-7.5 1-8-1-7zm-1 33 .5 13.5h-1zm-108 9 6.5.5-35.5 7.5-26 2v-1l24-3 15-3 2-2 5 1zm25 1 24.5 1.5-47.5 5.5h-2l-7.5-.5zm-7 9 6.5.5-24.5 4.5-2-1-42 7-2-1-14 2-40-3-18 3h-2l-1.5-.5.5-5.5 1.5.5.5 1.5 9 1 16-2 14 1 56-5h2zm56 35 5.5.5-4 9 2 1-.5 2.5-2-3-5.5 3.5-1.5 6.5-.5-8.5 2.5-10.5zm-63 1 .5 1.5-10.5 2.5-.5-1.5zm-22 1 6.5.5q-1.9 4.6-9.5 3.5zm67 0-1.5 2.5-1 17 2 14-8.5 10.5q-5.3-6.2-4.5-18.5l4-1-1.5-3.5-1.5-.5 4.5-7.5 1.5-.5-.5-1.5-2.5-.5-1.5-2.5-4.5 3.5-8.5 11.5-21 12 4-5 22.5-16.5-.5-1.5-12 7-.5-1.5 14.5-15.5zm28 0 2.5 34.5-2 3 3 1 2 16h-1q-9-15.5-8-41zm-109 1 5.5.5q-2.8 5.6-12.5 4.5l-.5-1.5zm-46 1 5.5.5-23.5 3.5 1-2 5-1 2 1zm31 1 1.5.5-7.5 3.5 2-3zm71 0 .5 1.5-2 1-.5 1.5-1.5.5-5.5 6.5-1.5.5-1.5 2.5-6 5 7.5-8.5 3-7-1.5-.5-30 23 5-6 1.5-.5.5-1.5 3.5-2.5 6.5-7.5 1.5-.5 3.5-4.5zm-148 4 4.5 2.5-20.5 1.5v-1zm49 0 7.5.5-13.5 1.5v-1zm65 0 5.5.5-32.5 26.5 6.5-7.5 2.5-3.5 7.5-6.5.5-1.5 1.5-.5 3.5-4.5 1.5-.5.5-1.5zm10 0L536 621.5l-7.5 8.5-13 12h-4l-2.5-1.5 12-10 .5-1.5 20.5-14.5.5-1.5zm-21 1-4 5-24 20 21.5-22.5.5-1.5zm-21 2 4.5.5-28.5 22.5-.5-1.5 20.5-20.5zm-17 2 4.5.5-19.5 15.5 2.5-3.5 3.5-4.5zm-23 2 5.5.5-6.5 5.5-2.5-4.5zm41 4-18 19-2.5-1.5zm-58 5 2.5 5.5-2.5 5.5-1.5-7.5z"/><path fill="#f7f7f7" stroke="#f7f7f7" d="m546.5 625-8.5 9.5-6.5 8.5-1.5.5-2.5 3.5-5.5-2.5zm69 0 2.5 14.5-1 2 3 7h-1l-5-15zm-37 1-.5 1.5-3 6q2 3.2 4 0l7 18-3 11 1 5-1 2 4 26-7.5 10.5-1.5.5-13 23-8 28-3.5 3.5-5.5 3.5-.5 1.5-18 15-22-4-29-9-20-2-17.5-13.5 13.5-9.5 7-2h2l2.5-1.5.5-1.5 66.5-24.5-1.5-3.5-12 1-14 5h-2l-30 9-.5-1.5q3.4-5.1 2-15l9.5-10.5q28.6-15.9 62.5-26.5l-1.5-2.5q-29.9 9.1-55 23l7.5-8.5 29.5-31.5 3-1-12.5 13.5-9 12 3.5 2.5 25-29 2.5-1.5 4.5-5.5 8-4-1 2-9.5 7.5.5 2.5 3.5-1.5 3.5-4.5 7.5-6.5.5-1.5 8-5-3.5 4.5q-4.9 1.6-4 9l2.5 1.5 9-13zm-71 5-7.5 8.5-.5 1.5-1.5-.5zm39 3-4.5 5.5-4.5 5.5-3 2zm-65 7 2.5 1.5-16.5 17.5-.5-1.5 1.5-6.5zm113 2q-1.4 10.4 2.5 15.5l-4-3-3-6zm-104 2 4.5.5-11 10-3.5 4.5-7.5 5.5-6.5 8.5-.5-1.5 3-5-2-1 23-20zm15 0 4.5 1.5-39 36-3.5 4.5-1.5-6.5 13.5-14.5 15.5-13.5.5-1.5zm107 1 7.5 19.5-2-1q-6-7.4-5.5-18.5Zm82 1q10-1.5 11.5 5.5l5 18-1.5 2.5-25 7-14.5-10.5 4.5-6.5 1.5-.5 1.5-3.5 4.5-3.5.5-1.5zm-177 1 6.5 2.5-27.5 28.5-2.5 1.5-15.5 17.5-6 2-1.5-5.5 36.5-37.5zm248 1q9.6-1.1 14.5 2.5 4.7 7.3 4 20l-4.5 16.5-17-9-17-5-24-2-2 1-4.5-1.5 2-1q-2.7-1.8 1.5-3.5l2-1 1 2 11.5-7.5-3-1 4.5-1.5v2l6.5-3.5 1.5-3.5 1 2z"/><path fill="#f7f7f7" stroke="#f7f7f7" d="m589.5 656 12.5 15.5-2 3 2 4-6.5 7.5-2.5 1.5-2.5 3.5q-4.2-13.7-2.5-33.5zm39 10 7.5 12.5-3-2zm-207 4-.5 1.5-4 9-22.5 26.5-13-3-2 1-3.5-1.5zm6 0-.5 1.5q1.3 14.3-6.5 19.5l-15 9 6.5-7.5q9.9-9.1 15.5-22.5Zm30 4 1.5 3.5-5.5 4.5-.5-1.5zm210 0 13.5 8.5-.5 1.5-2 1-4.5-3.5-.5-1.5zm48 3h26l28.5 9.5-5.5 1.5-10.5 7.5-2.5 3.5-4.5 3.5-6.5 8.5q-16.4-1.6-24.5-11.5l9.5-10.5 8.5-6.5-2.5-4.5-21 18-.5-1.5zm-72 1 11.5 8.5-2.5 1.5-8.5-6.5zm64 1 2.5.5-4.5 13.5-7.5-4.5 7.5-8.5zm-10 1 2.5.5-4.5 5.5-4.5-2.5zm-93 1 1.5.5-1 2 1.5.5 2-1 4 6 4.5 3.5 8 14-18 15-4.5 5.5-7.5-19.5 10-22-1.5-.5-10 18-1.5-8.5 9.5-10.5 2.5-1.5zm58 0 8.5 6.5.5 1.5 1.5.5 1.5 2.5 1.5.5 1 2-1.5-.5-14.5-9.5zm23 4 6.5 4.5-3.5 4.5-6.5-5.5.5-1.5zm-225 2 1.5.5 1 6-3 5 3 2q1.5 7-2.5 8.5l-7 1 .5-1.5-1-15zm312 1 5.5 3.5-1.5 4.5zm-338 1 1.5.5-3.5 6.5-4 1-.5-2.5 3.5-4.5zm13 0 .5 6.5-6.5 9.5-.5-1.5 3-10zm247 2 10.5 7.5-2.5 3.5-11.5-5.5z"/><path fill="#f7f7f7" stroke="#f7f7f7" d="m768.5 692 1.5.5q3.5 4 2 13l-4.5 11.5-23.5-5.5q8.9-13.1 24.5-19.5Zm-146 1 6.5 4.5 3.5 5.5 9.5 7.5-2.5 3.5-9.5-8.5zm159 2 8.5 7.5 4 12v2l-1.5 5.5-20.5-4.5zm-193 5 2.5 10.5-2 2-7 29 1.5.5 9-28 6.5 13.5v4L581.5 757l-2-4-2.5 8.5v2l-4 11 1 2-3 2 2 4-12.5 1.5-1.5-3.5 1-2-1-5v-2l1-11 2.5-4.5 4.5-3.5-.5-1.5-4 3-.5-1.5q7.7-31.8 26.5-52.5Zm-5.5 43-3 5v2l1 2 2-3zm-134.5-40 .5 6.5-4.5 1.5-.5-1.5zm-28 3 3.5.5-10.5 6.5 5-6zm-80 1h2l7 1 13-1-2 3-9 6-15-1-22 8-37 25-21 6v-1l1.5-.5 9.5-10.5q17.5-16.5 41-27 13.4-6.6 32-8Zm30 0 15.5 3.5-5.5 1.5-5-1-17 7-.5-1.5zm64 0 1.5.5-2.5 8.5-4 1-.5-1.5zm274 1 20 5 6.5 4.5-2.5 1.5-17-6zm-50 2 10.5 8.5-.5 1.5-12.5-6.5zm-34 1 1.5.5-14.5 29.5-6.5-11.5zm-218 1-3 4-4 2 .5-1.5.5-1.5zm224 0 5.5 4.5-4.5 5.5-1.5.5-.5 1.5-1.5.5-3.5 4.5-3 2-.5-1.5zm-178 1-4 5-12 9-.5-2.5 3.5-8.5zm7 0 4.5 1.5-1.5 13.5-30 12-.5-1.5q1.1-8 7.5-10.5zm-37 1-3.5 4.5-4.5 6.5-.5-1.5zm45 2 2.5.5-3.5 10.5-.5-1.5zm275 0 19.5 4.5-12.5.5zm-347 1-.5 1.5-3.5 4.5-4 1 .5-1.5 2.5-3.5zm18 0-2 3-1.5.5-2.5 3.5-13 6v-1l12-10z"/><path fill="#f7f7f7" stroke="#f7f7f7" d="m336.5 719 11.5.5-6.5 4.5q-24.3 5.2-43 16l2-3q15.3-11.7 36-18Zm315 0 8.5 5.5-2.5.5-7.5-3.5zm-10 2 2.5 1.5-6.5 7.5.5-1.5zm-210 1 .5 2.5q-2 10-9.5 14.5l-6 3-4.5-1.5 11.5-12.5zm63 0 2.5.5-27.5 10.5 3-4 12-4 3-1zm141 0 1.5.5-14.5 27.5-7.5-4.5 8.5-11.5 11.5-10.5zm-281 2 1.5.5-16.5 7.5 2-3zm292 1 13.5 4.5-.5 1.5-17.5 12.5-.5 1.5-5.5 3.5-.5 1.5q-1.6 3.9-8 3l-.5-1.5zm47 0 25.5 10.5-2.5 3.5q-15.6-2.4-25.5-10.5zm75 0 24.5 3.5-1 9 .5 1.5q-16.1-1.9-25.5-10.5zm-351 2-2.5 3.5-5.5 6.5-2.5 1.5-.5 1.5-21.5-.5q5.4-6.6 16.5-7.5l2 4zm-23.5 9v2l9-1zm344.5-8 20.5 5.5-2.5 3.5-17-7zm-76 2 4.5 1.5-22.5 20.5-9 2 4-5 7.5-5.5.5-1.5 6.5-3.5 1.5-2.5 1.5-.5 1.5-2.5zm-333 2 1.5.5-11.5 6.5-3.5-1.5zm128 2-2 3-22 11-4.5-2.5zm144 0 7.5 10.5-30.5 37.5-.5-8.5q8.2-23.3 23.5-39.5Zm86 0 21.5 11.5-4.5 5.5-19.5-12.5zm-15 1 4.5 3.5-28.5 40.5-29 15-8 2-2-1-1.5.5q11.2-17.8 27.5-30.5l32.5-24.5zm90 0 8 3 17.5 13.5-1.5-.5-3.5-1.5-.5-1.5-21.5-10.5zm-80 7 16.5 11.5-33.5 16.5.5-1.5zm-314 2 1.5.5-8.5 7.5-4 1-2-3zm24 0 9.5.5-4.5 5.5-19 12h-2l-1.5-.5 7.5-16.5 5.5.5-1 2q1.5 3 3 0l.5-2.5zm16 0 5.5 1.5-12.5 6.5.5-1.5 3.5-4.5zm328 1 11.5 5.5-1.5 2.5-11.5-6.5zm61 0 8.5 2.5 2 7-1.5-.5-8.5-5.5zm-421 1 .5 1.5-7.5 15.5-5.5-6.5zm68 0 1.5.5-8.5 4.5 1-2zm311 0 24.5 12.5-10.5 4.5-15.5-14.5zm-460 3 2.5.5-29.5 14.5 4-5zm35 0 1.5.5-21.5 12.5v-3l3-1zm87 0 6.5.5-1.5 2.5-17 8v-1l1.5-.5 3.5-4.5zm192 0 .5 4.5-5 25-8.5 12.5q-6 6.5-17 8l-2.5-5.5 13-6-.5-2.5-6.5-1.5zm107 1 9.5 3.5-5.5 8.5-11.5-7.5zm98 0 36 15 12.5 9.5v2l-3.5 5.5-19 8-12.5-15.5zm-200 1 5.5 3.5-7.5 11.5-1.5-.5zm137 1 12.5 11.5.5 1.5 1.5.5-11 7-.5 1.5-8 4-8.5-4.5zm-322 1 3.5.5-3 2 2.5.5 4-1 15.5 10.5-.5 1.5-15 2-20 8-.5-1.5 8.5-16.5 4.5-2.5-3-1zm-81 1 7.5 2.5-34.5 25.5-59 31-.5-1.5 23.5-26.5 5-2 .5 2.5.5 1.5 30.5-17.5.5-1.5zm54 1 .5 1.5q-9.6 11.4-24.5 17.5l.5-1.5 9.5-10.5zm327 0 13.5 3.5-9.5 12.5-9.5-6.5zm-465 1 1.5.5-20.5 12.5-1.5-1.5 5-5 .5-1.5zm360 0 2.5 1.5-6 5zm-205 1 .5 1.5q-12.2 28.3-34.5 46.5l-8.5-5.5-1-3q12.7-4.8 21-14l2-7-1.5-.5-2 1-1-2-1.5.5 2 5q-7.2 10.3-21.5 13.5l.5-1.5 1.5-7.5 19-14zm285 0 12.5 8.5-24.5 37.5-30.5-1.5 17.5-20.5 3.5-2.5 2.5-3.5 1.5-.5 3.5-4.5 3.5-2.5 1.5-2.5zm-74 1 6.5.5-9 8-.5 1.5-1.5.5-14.5 15.5.5-1.5 9.5-16.5 1.5-.5.5-1.5 1.5-.5.5-1.5 1.5-.5.5-1.5zm-271 2 6.5 5.5-.5 1.5-45 22v-1zm334 0-5 6-2.5 1.5-.5 1.5-3.5 2.5-.5 1.5-13.5 12.5-1.5 2.5-3.5 2.5-9.5 11.5-10 2-5-1-9 3-3-1-13 2-3-1-3 1-3.5-1.5 14.5-7.5 12-1 7.5 2.5.5 1.5 11-2 2 1 .5-1.5-6-2 2-1 14.5-20.5zm89 0 6.5 3.5q-1.1 8.4-6.5 12.5l-10.5-9.5.5-1.5zm-502 2 1.5.5-12 6-2.5 3.5-2.5-1.5zm275 0 .5 3.5-1 16 .5 1.5-21.5-2.5 6-4 .5-1.5 2.5-1.5.5-1.5zm-252 1 2 1 2-1-1 2-16 9 3-4zm-64 1 2.5.5-5.5 8.5-1.5.5 1 2-4 2-5.5 6.5-22.5 17.5-7 11 .5 1.5q-9.5 6-24 7l-3-1-1.5-.5 4.5-10.5 5.5-4.5 10.5-11.5q22-17.5 50-29Zm77 1-2 3-15 9 .5-1.5 1.5-2.5zm62 0-.5 1.5-3.5 5.5-1.5-.5v-2l.5-2.5zm343 3 9.5 6.5-25.5 29.5-7.5-1.5 16-24-1-1 5-5zm46 0 12.5 10.5-7.5 12.5-23.5-11.5zm26 0 7.5 6.5-1 4 5 12-1.5.5-6.5-4.5-.5-1.5-9.5-5.5z"/><path fill="#f7f7f7" stroke="#f7f7f7" d="m448.5 771 2 1 8-1q20.7 18.3 52.5 25.5l-11 6 1 2-9.5 7.5-9 2-2-1-8 2-2-1-14 2v-1l7-2h2l28-7 3-1 2.5-.5-2-1-.5-1.5-2 3-2.5-.5 1-2-3.5-.5-2.5 1.5 1 2-4.5 1.5-1-2-11 2-4 3h-2l-9.5 1.5 1 2-3.5-.5-2.5.5 1.5 2.5 1.5.5-1.5.5-2.5-1.5-.5-1.5-6 3-5-1q-3.8 4.2-14 2l-5-2-4 1-1-2-3 1-9.5-5.5-3-4q3.1-16.9 15.5-24.5 14.7-7.8 34-11Zm-85 1 1.5.5-9.5 14.5q-26.2 12.8-46 32-15.3 7.7-36 10l-.5-1.5q17.5-17 39.5-29.5z"/><path fill="#f7f7f7" stroke="#f7f7f7" d="m468.5 772 56.5 12.5-8.5 7.5h-4q-27.4-5.5-44-20Zm-191 1q3 1.5 0 3l-9 5 3-4zm540 1q6.4 4.1 7.5 13.5l-2-1zm-83 3 7.5 3.5-19.5 12.5 1.5-2.5zm72 3q6 5.1 7.5 14.5l-1.5.5q-6.6-4.8-6-15Zm-533 2 2.5 1.5-.5 1.5-23 15-.5-1.5 3.5-5.5 2.5-1.5 2.5-3.5zm470 0 26.5 12.5-10.5 13.5-25 13-44 3v-1l5-4h6l24.5-7.5-1.5-4.5-12.5-2.5 28-19 .5-1.5zm41 0 6.5 5.5-11.5 6.5-2.5-1.5zm-417 2-2 3-8 5-.5-1.5zm162 1 23 2 4.5 2.5-.5 1.5q-13.5 4-32 3l-3.5-1.5zm114 0 1.5.5-5.5 9.5q-9 2.5-11.5-1.5zm-82 3 9.5.5-8.5 2.5zm232 1 14.5 8.5q-1.8 4.3-3.5 1.5l-9.5.5 3.5 1.5h2l2.5.5q-24.9 21.6-54.5 38.5l-.5-2.5 12.5-21.5 4.5-2.5-1-3 2.5-3.5 14-9h4l5 1-1-2-2.5-1.5zm-427 1 .5 1.5-4.5 7.5-16 7 3-4zm236 1-.5 1.5-7.5 11.5-1.5-.5zm-380 2 1.5.5-1.5 7.5-19 10 2.5-3.5 5.5-6.5zm46 0 1.5.5-6 5-1.5 2.5-9.5 8.5-3.5 4.5-10 8-.5-1.5 10.5-14.5zm79 2-2.5 3.5-.5 1.5-1.5.5-1.5 2.5q-7.1 10.4-22 13v-1zm205 1q8-1.5 9.5 3.5l.5 1.5 3.5 1.5-7.5 13.5-41 9-3-1h-2l-12 1-3 2-11-1-2 1-2.5-.5 2.5-3.5 14-7 42.5-7.5-.5-4.5-2-1-23 5 1-2 2.5-1.5.5-1.5 2.5-1.5-2-3 10.5-.5 2 1zm-247 1-1 2q-20.8 11.2-36.5 27.5l-3.5 4.5-9 1-.5-3.5 3.5-6.5zm301 0 5 1 1.5-.5-8.5 4.5.5-1.5zm-236 1 5 6 7.5 4.5-17.5 16.5-28 4 1-2 16.5-11.5zm220 1 1.5.5-3.5 4.5-4.5-1.5zm-195 1 .5 3.5-1 3 2 4-1.5.5-6.5-3.5zm418 0 3.5.5 4 13-2-1zm-300 1 1.5.5-15.5 8.5v-1zm57 3h7l7.5 3.5-1.5 3.5-7 2-3-1-8 3-.5-1.5zm252 0 1.5.5 3 12h-1zm-465 1-9 10-18 12 .5-1.5 9.5-13.5zm324 2 7.5 1.5-7.5 10.5h-4l-1.5.5 2.5 1.5 1.5-.5-2.5 4.5-25 2h-2l-2.5-.5 3-2 1-3-2.5-.5-1 2-6 1-.5-1.5 10.5-12.5zM663 820l-1 3v1l15-1-2-3zm-445.5-12 1.5 3.5q-7.3 6.2-9 18l4 8-2.5 8.5-3.5-2.5-8-18v-7l2.5-3.5zm477 0 5.5 1.5-14.5 12.5 3.5-4.5z"/><path fill="#f7f7f7" stroke="#f7f7f7" d="m707.5 809 9.5 1.5-11 3-.5 1.5-2-1-2 1 2-3zm-450 1-1.5 2.5-2.5 4.5-4 2zm129 1 20.5 8.5-16.5 1.5-3 2-7-1-8 2 2-3zm195 3 .5 1.5-3.5 1.5-3 1-3 1-.5-2.5zm-17 3 6.5.5-.5 3.5-8 2-.5-1.5zm-89 1 2.5.5-26.5 8.5-3-1h-2l-15.5-2.5zm-146 1-.5 1.5-5.5 9.5-5 1zm225 0 3.5.5-1.5 3.5-4 1-3.5-1.5.5-1.5zm-303 1 .5 1.5-7.5 3.5 1-2zm68 0 2.5.5-4 3-6.5 8.5-11 2 9-10zm85 4 4.5.5-12.5 5.5h-2l-14.5 3.5.5 2.5h6l29-10 9-1 20.5 5.5-65.5 20.5h-2l-14 3-2 2-2-1-31 7-2-1-15 2-5-1-8.5-2.5 10.5-2.5 10 1 16-7 42.5-13.5 1-3-2.5-.5-24 8 2-3 14-11h11l4-2zm-155 2 1.5.5-.5 6.5-11.5-1.5zm467 0 5 1 7-1v1l-51 26-26 7-12 1-11.5-4.5-1-7 10.5-20.5 30 1 7-1 .5 1.5-7 13 2.5 1.5 14-16q7.3 1.8 9-2l3 1 3-1 3 1 3-1zm-418 1 1.5.5-6.5 7.5q-10.7 3.3-26 2l1-2zm-74 2 1.5 5.5-3 2-1.5 2.5-.5-1.5z"/><path fill="#f7f7f7" stroke="#f7f7f7" d="m358.5 829 .5 1.5-27.5 17.5h-5l-14 5-3.5-1.5q-1.3-10.8 4.5-14.5l9-2-.5 1.5 1.5 5.5 1.5-.5 2.5-7.5 5-1 3 1zm-108 8 14 6 12 1 12-2-.5 1.5-2 12 1 3-21.5 3.5h-2l-23-1-20.5-7.5v-11l1.5-1.5.5 1.5-1 2 4.5 5.5 3.5-.5 6.5-10.5zm55 1 1.5.5q-4.5 3.5-3 13l2 3-13.5 3.5-2.5-6.5 5.5-11.5z"/><path fill="#c8c76e" stroke="#c8c76e" d="m512.5 136 12.5 7.5 3 5-.5 1.5 2.5.5-4.5.5-8-3-4 1-14-2-10 2-2-1-3 1-1.5-.5-.5 1.5-9 2-1.5-.5-.5 1.5-2-1-1 2-2-1-3 2-1.5-.5-.5 1.5-46 19-3 1-9 5h-2l-1.5.5.5 1.5-4 2v-2l-3-1-4.5 2.5-.5 1.5-1-1-5 5-1-1-4.5 3.5-.5 1.5-1.5.5-3 8 .5 1.5h-6l-1.5.5-.5 7.5-1-2-1 2-1.5-.5-2.5 4.5-1.5.5-.5 1.5-2-1-5.5 4.5.5 1.5-3.5 2.5-.5 1.5-1.5.5-2.5 3.5-2.5 1.5-.5 2.5-1.5.5-12 23 1.5.5 3-5 1.5-.5 7.5-11.5 3.5-2.5 1.5-3.5 3.5-1.5.5-1.5 3.5 1.5h-2l1 2h-2l1 2-1.5 2.5-1.5.5 1 1-4 6-4.5 12.5-1.5.5.5 1.5-2.5.5-.5 1.5-1.5.5q3.3 2.3-2.5 4.5l-2.5 1.5-13.5 15.5-1.5.5-8.5 11.5-4.5 2.5-.5 2.5-1.5.5v2l-11 24-5 25 1 10v2q1.7 19.8 10 33l1 3-1 5 2 13-1 3 1 2-1.5 2.5-7.5-3.5q-3.9-6.1-2-18-8.7-5.8-11-18v-2q-1-10 3-15v-2l2-12v-2l-1-3 6-30v-2l1.5-3.5 3.5-1.5-2-7 4-2 3-7-1-2v-2l.5-1.5 2.5-1.5.5-3.5 1.5-.5-.5-1.5-1.5-.5 2-1 4.5-14.5 5.5-2.5q-1.2-6.2 2.5-7.5l3 1 1.5-6.5-1-2 2-1 5.5-9.5 2.5-1.5 4.5-7.5 3.5-2.5-.5-1.5 1.5.5q.1-6.4 4.5-8.5l2.5-1.5 4.5-8.5 2.5-1.5.5-3.5q6.8.8 7.5-4.5l1.5-3.5 1.5-.5.5-1.5 6.5-2.5 3.5-5.5 1.5-.5 5.5-6.5 1.5-.5 1.5-2.5 3.5-2.5.5-1.5 6.5-4.5.5-1.5 11.5-7.5.5-1.5 5.5-2.5.5-2.5 1.5-.5.5-1.5 23-13 8-2 3.5 1.5 1.5 2.5 1.5.5 2.5 4.5q3.5 4 12 3l28-11z"/><path fill="#c8c76e" stroke="#c8c76e" d="m497.5 152 5 1 2-1 9.5 1.5-.5 1.5-2-1-12 4-2-1-4 1-4-2-4 1-1-2-1 2-5.5-.5 3.5-1.5 1.5.5.5-1.5 3.5.5.5 1.5 2-3 4 1zm69 2 4.5.5.5 2.5 1.5.5-1.5.5-7.5-2.5zm-44 1 6 2 3-1v1l-1.5.5 2 4-5.5 2.5-20.5-5.5 4.5-.5 3-1zm-48 6q7.5-2 9.5 1.5h-2l-.5 1.5q-19.3 5.2-34 15l-15 11q-24.2 9.3-43.5 23.5l-.5 1.5-2.5 1.5-.5 1.5-2.5.5-.5 2.5-1-2-7.5 6.5-7 10v2l-.5 1.5-1.5.5q2.5 4 5-2l9.5-12.5 32-22 1.5.5.5-1.5.5 1.5-6 4 .5 1.5-39.5 34.5 1 1-4.5 4.5-1.5.5-1 3-2.5 3.5-1.5.5q3 2-2 4l-2.5 3.5-.5-3.5 2.5-4.5 1.5-.5v-2l3.5-6.5 1.5-.5.5-2.5 1.5-.5-.5-2.5-2 1-1-2-9 6 .5-1.5 1.5-2.5 2.5-.5-.5-1.5-1.5.5 4.5-6.5 1.5-.5q-2.8-1.7 1.5-3.5l1.5-.5q-2.8-1.7 1.5-3.5l1.5-.5-.5-1.5 3.5-1.5 5.5-8.5-1.5 4.5.5 2.5 3-4 1.5-.5 4.5-6.5 1.5-.5.5-1.5 1.5-.5 5-7 .5-2.5 2.5-.5 2.5-3.5 42-24 21-7zm109 0 7 3v-2q6.5 2.6 7.5 10.5l-2 1 1-2-4-3-2.5-3.5z"/><path fill="#c8c76e" stroke="#c8c76e" d="m491.5 162 28.5 4.5.5 1.5 2-1 4.5 1.5-3 1-.5 1.5-16.5 5.5 4 1-3.5.5-3-1-23-1-32 8-1-2q19.3-12.2 43-20Zm73 1 7 8zm-14 7q6.7-1.2 9 2l1.5-.5.5 2.5 3.5-.5.5 1.5 1.5.5-1.5.5-3-2-2 1-1-2-2.5-.5-.5-1.5q-7 1.5-6-1Zm-12 5 3 1 6.5 4.5-3.5-2.5-4-2z"/><path fill="#c8c76e" stroke="#c8c76e" d="m481.5 179 8.5.5-4.5 1.5-2-1v2l-6 1-1-2-1 3-7 2-1.5-.5-.5 1.5-17 6-41 21 7-8 15-12q22.4-10.6 51-15Zm98 2 1.5.5-1 1 3.5 4.5zm-91 2-1 2-7 2-2.5-1.5z"/><path fill="#c8c76e" stroke="#c8c76e" d="m470.5 188 .5 1.5-9.5 3.5-.5-1.5zm115 1 5 6zm-115 4 1.5.5-2.5 4.5-2 1-1-2-3.5-.5zm156 5 12.5.5-12.5.5zm-167 1 2 1 1.5-.5-2.5 4.5-1.5.5-1.5 3.5-8 4-3-1-11 7-1.5-.5-.5 1.5-.5-1.5 2-6v-2l.5-1.5 11-5 1.5.5.5-1.5 5-1 1.5.5.5-1.5 2.5.5.5 1.5zm8 2 1.5 2.5-4.5 3.5v-2l-3 1v-1l5.5-2.5zm183 2 1.5.5-.5 1.5-11.5-.5zm-265 1 1.5.5-6.5 5.5zm71 7-3 4-6 4 2-3zm17 0-7 8zm155 1 11.5 2.5-1.5-.5-10-1zm-200 1 1.5.5 1 2-9.5 14.5-1.5-.5 1 2-4 2 1 2-4 2-.5 1.5-14.5 13.5-2 5 1 1-8.5 8.5-2.5.5-5.5 7.5-1.5-.5-.5 1.5-4 1-.5-2.5-1.5-3.5-1.5.5-1.5 5.5-1.5-.5-.5 1.5-8.5 2.5-1 3 2 1q1 5.5-2.5 6.5l-5 3-1.5-.5-.5 1.5-2.5-.5 12.5-20.5 1.5-.5 4.5-7.5 2.5-1.5 8-9-3.5-.5-4 5-1.5.5.5 1.5-1.5-.5 8.5-10.5 1.5-.5 1.5-2.5 2.5-.5 11.5-12.5 4-3 1.5.5 1.5-2.5 7-5 2 1 3-5h2l3.5-1.5.5-1.5zM397 235l-3 1v2h-2l1 1 5-3zm-9 8-1 2-8 6-1 3h2l3-4 2-1 4-5zm-27.5-25-1.5 2.5-4.5 6.5-1-2 2.5-.5v-2l.5-2.5 1.5.5.5-1.5zm326 0 6.5 5.5-4.5-3.5zm-282 3 .5 1.5-13.5 10.5-2.5.5 1 1-12.5 12.5-.5-1.5 2-1 5.5-7.5 1.5-.5 5.5-6.5 4-3 1.5.5 2.5-3.5 2-1 1.5.5zm38 1-3 4-3.5 2.5-.5 2.5-2-1-1.5 2.5h2l-6 4-1.5 3.5-3.5 1.5 1 1-5.5 5.5 2-4-7 6 6-7 2 1 2-5-1.5-.5 4-3-2 3 4-3 .5-2.5 2 1 3-5zm1 4-16 17zm92 2-6 7zm4 1 9.5.5q-10.8-1.8-13.5 4.5zm-57 3 1 4-2 1 .5-1.5-.5-1.5-4 2 1-2zm-26 5-1 3 10-3 3.5 1.5-2 1-1.5 3.5-1.5-.5-.5 1.5-2.5.5-.5 1.5-28 19v-2l-1.5-.5 16.5-17.5zm19 3 1.5 5.5v2l-2.5 6.5h-2l-6.5 4.5.5 1.5-8 1-3 1-2-1-8 2-1.5-2.5 29.5-19.5 1.5.5zm176 2 12 13zm-293 3 .5 1.5-3 2v2L342.5 281l-1.5.5v2l-3 5 .5 1.5-2-1-1 2-.5-2.5 9-28zm290 0 7 8zm-81 2 14.5.5-14.5.5zm-128 1-10 11-1.5.5q3 2-2 4l-2.5 4.5-6 1-2.5-.5 11.5-10.5 1.5.5 3.5-4.5zm198 0 .5 5.5-9.5.5v-1l8.5-.5zm-205 1-2 3-1.5-.5-2.5 3.5-18 15-1.5-.5-.5 1.5-2 1-.5-1.5 13.5-16.5h2l7-4h2zm151 1 10.5.5-10.5.5zm128 2 .5 1.5-1 2h2l-1.5 3.5-1-2-1.5.5zm-306 4 .5 2.5-3 1 3.5.5 2.5-1.5-5 3 .5 1.5 1.5-.5-5.5 8.5-1.5.5-.5 1.5-5-1-4 2-.5-1.5 2-1-.5 1.5 1.5-.5 3.5-5.5 1.5-.5q-3.3-2.2 2.5-4.5l1.5-.5zm-39 4-1.5 2.5-.5 2.5-1.5-.5 1 2-5 3 2 1-5.5 6.5-1.5.5-.5 2.5-1.5.5-.5 2.5-1.5.5.5 1.5q-3-1.5 0-3l1.5-.5 1-3 1.5-2.5 1.5-.5.5-2.5 1.5-.5v-2zm229 0 9.5 1.5-8.5.5zm90 2 3 6 1.5.5-.5 2.5-2-3-1.5-.5zm-101 5 3.5.5-9.5 1.5v-1zm-26 2 10.5.5-10.5.5zm-57 1 4 1h2l10.5.5-14.5.5-2-1-3 1v-1zm92 1 12.5.5-12.5.5zm96 1-.5 1.5 1 2-1 6 3-1q-2 4.5-4 1-2-7.5 1.5-9.5Zm-358 1 1.5.5-2.5 7.5-1.5.5-2 4-1 3-5.5 11.5-1.5.5-3.5 12.5-1.5.5v5l-3 4-8 24-.5 6.5-1.5.5v2l-.5 3.5-1.5.5v8q-5 8.5-5 22l1 5-2-1 1-3h-1l-.5 1.5-.5-1.5.5-1.5-1.5-.5q-5.6-13.4-6-32 3.4-25.1 13-44 13.1-23.4 33.5-39.5Zm230 0 14.5.5-14.5.5zm-142 9 9.5 1.5-7.5.5-2-1v2l-4-1-11 3-1-2-1.5.5.5-1.5 11-1h2l2 1zm297 1 .5 14.5h-1z"/><path fill="#c8c76e" stroke="#c8c76e" d="m385.5 285 6.5 1.5-2 1 1.5 3.5 2-1h2q12.8 1.3 21-2l3 1 3-1 .5 1.5-7.5 4.5h-2l-18.5 8.5-.5 1.5-1.5.5-1 2 1 2-4.5 12.5-1.5.5-3 7 2 2 1 8h-1l-.5-1.5-5 12-2-1-1.5.5-1-5 1-2-1-2v-2l-1-33 1-5-1-8 1-3 .5-1.5 1 2 4-2zm285 0 1 2 2-1 1.5 5.5h-1l-1.5-4.5-2.5-.5zm-341 2 .5 2.5-5.5 13.5-1.5.5 1 3-6.5 24.5-1.5.5.5 1.5-1.5.5-1 3-4.5 8.5-2.5.5 2 1-3.5 6.5-1.5-.5q7-27.5 18.5-50.5l1.5-.5v-2zm361 2-.5 1.5.5 6.5 2.5-1.5-3.5 2.5-.5-7.5zm-330 5 2.5 4.5-3 1v5l-9.5 14.5-1.5.5-1.5 3.5-1.5.5-14.5 17.5-1.5.5.5 1.5-2.5.5.5 1.5-1.5-.5 2-3-1-4q4.4-23.6 14.5-41.5l2.5.5 1.5 2.5h5zm9 4q4.1 3.9 2.5 13.5v2l-1 2 .5 1.5q-4-7.5-2-19Zm69 0 10.5.5-10.5.5zm111 0 17.5.5-17.5.5zm68 2 .5 17.5h-1zm-258 11-.5 1.5-1.5 2.5-1.5.5v2l-.5 1.5-2.5-.5zm346 0 .5 11.5h-1zm-344 3 1.5.5-1 7 1 3-9 9-8.5 9.5-1.5.5 1 1-5 5-2.5 3.5-.5-1.5 3.5-4.5 1.5-.5q-3-2 2-4l16.5-26.5 1.5.5zm-15 15 2.5.5-18.5 27.5-2.5-.5-1-4h2l-1-2zm15 1 .5 1.5-2 1v2L336.5 378v-2l-1.5-.5-3-12 23.5-26.5 1.5-.5-1-1zm359 3 2.5 8.5v2l-.5 1.5-1.5-2.5 1-2zm-79 1 .5 12.5h-1zm-320 2 2.5.5-1 3q1.5 6.5-2 8l1 2-2 1 .5 3.5-1.5-.5.5-11.5 1.5-.5-1-4zm81 0 1.5.5-1.5 9.5zm-41 3 2.5 1.5 1 7-20.5 29.5-1.5.5q3.3 2.3-2.5 4.5l-1.5.5.5 1.5-1.5-.5zm305 2 1.5.5-4.5 5.5zm-53 4 1.5 2.5v14l-1.5.5-.5-2.5 1-3zm-301 1 2.5.5-1 13 2 18-9.5 11.5-1.5.5-1.5 2.5-1.5-.5v-2l-.5-3.5-2 1-.5-7.5 3-13zm297 6 1.5 10.5-1.5 3.5zm13 1 .5 15.5h-1zm-258 1 .5 9.5-2 9-.5 2.5-1.5.5v2l-3.5 5.5-1.5.5v2l-1.5 3.5-2.5 1.5-7.5 11.5-1.5-.5 1-2-2-1 20.5-41.5 1.5.5-1-2zm-46 1 2.5.5-.5 9.5-1.5.5-.5 3.5-.5-9.5 1.5-2.5-1.5-.5zm355 1-5 6zm-345 12v2l1.5.5 3 9-.5 1.5 1.5.5-1.5 4.5-1.5.5v2l-1.5 2.5-1.5.5.5 1.5-2-1-.5 2.5h2l-2.5 1.5-.5-24.5zm52 1 4.5 2.5-3 18v2l1 4-1 3 3 2-.5 2.5-1-2-2.5 5.5 1.5 3.5 2.5.5v2l-.5 4.5-2.5.5 3 8-1 2v2l2 6v2l-1 6 4 12-2 3 1 3 1 7-1 2 1 3 1 6v2l1 7-2 1v8l7 19-1 5 3 11-1 5 5 9-1 5 1 3-1 3q4.9 2.6 4 11v2l1 3-2 9 1 2-1 15v2l1.5 2.5 1.5.5-1.5.5-13-4h-2l-4.5-.5-1-11 .5-2.5 1.5.5-1 4 2.5 5.5 3.5-.5 1-5q-4.9-12.6-4-31v-2l-3-33v-2l-1-16v-2l1-2-1-2-1-5 1-4-1-6-1-3 1-10-1-4v-2l1-3q-3.7-4.3-2-14l1-3h-1l-.5 1.5-.5-1.5.5-2.5 1.5.5-.5-6.5-1 3-.5-5.5 1-4-2-1 1-11h-2l-1-6 2-3-2-1 1-14-1-2 1-9h-1l-.5 3.5-.5-13.5v-2zm346 3 1.5.5-3 5v2l.5 1.5 2.5 1.5-.5 3.5-3.5-2.5.5-10.5zm-80 1 .5 13.5h-1zm-240 1 .5 12.5-1.5.5-.5-1.5zm3 2 .5 10.5h-1z"/><path fill="#c8c76e" stroke="#c8c76e" d="m345.5 380 .5 1.5-3.5 7.5-1.5.5.5 1.5-1.5-.5v-3zm18 1 .5 7.5-1 2v17l-1.5 1.5-4.5 3.5-8.5 12.5-1.5-3.5v-2l14.5-34.5 1 2 .5-2.5-1-2zm4 1 1.5 4.5-.5 2.5-1.5-.5.5 1.5 2.5 1.5-.5 2.5-1.5-.5 1 2-2.5 4.5-.5-15.5h1l.5 1.5.5-2.5zm303 0-.5 1.5.5 1.5 2.5-1.5-4 2-.5 2.5-.5-2.5zm-14 1 .5 9.5h-1l-1-8zm-341 1 1.5.5q-1.3 8.3 2 12l-1 3 2 7-8 15 2.5.5 2.5-1.5 3.5-5.5 1.5 3.5 1 8-2.5 1.5-2-1 1 3-12.5-12.5.5-1.5-3.5-2.5-2-17 3-1 .5-1.5 3.5-1.5.5-1.5 1.5-.5zm409 2 1.5.5-.5 1.5-1.5-.5 1.5 2.5 2.5.5-.5 4.5-1.5.5 1 2-1.5.5-.5-5.5h1l.5 1.5.5-2.5-2.5-1.5-1 8-.5-10.5zm-105 1 .5 35.5h-1zm27 1 .5 12.5h-1zm-246 1 .5 11.5h-1zm217 0 .5 16.5h-1zm-281 3 1.5 4.5v2l-4.5 8.5-1.5.5.5 1.5-1.5.5v2l-.5 1.5-1.5.5 1 2-1.5.5-.5-3.5-1-3 1-3v-2zm337 4 2.5.5-2.5 6.5.5-1.5zm-324 3 1.5.5-1.5 3.5-2.5.5.5 1.5 1.5-.5-2.5 5.5-2.5-3.5zm19 3 1.5.5 1 7-1 4v2l3 35-1 4 2 31-.5 2.5-4.5-3.5-2-9 1-2-3-11 1-2-1-3 1-7-1-2 1-3-1-3 1-5-1-7 1-22 3-5zm-71 7 .5 2.5.5 6.5 2-3 .5 2.5-1 2h2l-1 4 2 1-1.5 4.5-1-2-1 3-1.5-7.5.5-1.5-1.5-.5 2-1q-3.5-1.5-2-8zm41 7 .5 1.5-1 2h2l-1.5 8.5-3 1-2.5-5.5 1.5-3.5 1.5-.5.5-2.5 1.5.5zm24 1 .5 2.5-1 7 1 5-1 2 1 2-1 2v2l1 23h-1l-1-2 .5-1.5-1.5-.5.5-1.5-2.5-1.5-4-11 1-3-1-2 1-3 3.5-10.5 1.5-.5v-2l.5-2.5 1.5.5-1-3zm-6 2 1.5.5-2 1v2l-1.5 4.5-2-1 1.5 2.5-.5 1.5-1.5.5 1 2h-3l-1-3 3.5-4.5 2.5-.5-.5-1.5-1.5.5 3-2zm-51 1 6.5 7.5-2.5.5-1.5-.5-.5 1.5-.5-1.5.5-1.5-1.5-.5.5-1.5 1.5-.5-3-2zm300 3 .5 18.5h-1zm14 1 .5 12.5-1.5 2.5-.5-1.5 1-5-1-2zm59 10 2 3 1-2 .5 1.5-2.5 4.5q-3.1-1.6-1-7Zm-336 4 1.5 4.5-1 2h2l-1 3 2 6-3 2-1-2 1-2zm280 0 .5 11.5h-1zm-284 4 .5 9.5-1.5.5.5-1.5zm276 0 .5 19.5h-1zm102 3 1.5.5-3.5 6.5 1.5-2.5-1-3zm-339 1 1.5 12.5-1 2 1 6h-1zm-58 4 6 7zm352 4 1.5.5-1.5 2.5-4.5 1.5.5-2.5q2 3 4-2Zm-327 7 4.5 2.5-.5 1.5-3 1v-2l-1.5-.5zm261 2 .5 10.5h-1zm16 0 .5 12.5h-1zm-266 5 4.5 12.5-1.5.5-3.5-8.5 2-1-3-1zm23 6 1.5 10.5-2-1 1-2zm270 1 .5 14.5-1.5.5-.5-9.5v-2zm9 1 1.5 9.5-1.5.5zm-317 5 1.5.5 1 2-.5 1.5 1.5.5 7 20-.5 1.5 1.5.5-3.5.5-7.5-3.5-1-7 2-8zm39 5 1.5 18.5h-1zm36 1 .5 26.5h-1zm-9 2 .5 12.5v2l-.5 2.5-1.5-7.5zm-36 2 3 1 1.5-.5-1 18 1 2-1.5.5-.5-4.5 1-2h-2zm-19 1 2.5 1.5-.5 1.5 1.5.5-.5 1.5 2.5 1.5-.5 1.5 1.5.5-.5 1.5 3.5 2.5 2 5-2-1-1.5-4.5-3.5-2.5-4-7 .5-1.5zm-8 17 5 1 4-1 6.5 18.5-.5 1.5 1.5.5 5.5 10.5 1.5.5 5 41 4.5 16.5 2-1 1.5 3.5-1 7 .5 1.5-18.5 2.5-1 2 5.5 2.5 2-1h2l9-1 2.5.5.5 10.5 4.5-.5q-1.5-7 2.5-8.5l13.5.5-4 1-1 3 .5 2.5 7.5.5-3 1-1 2 .5 1.5h-2l-4 1-2-1-1.5 2.5 1.5 2.5h-2l-7-2-3 4-16-6-4 1-3.5-3.5-2-16 1-2-1-4 1.5-2.5 1.5-.5-1-4 2.5-4.5.5 2.5 2.5 3.5.5-10.5v-2l-2.5-7.5-1.5.5 1 2-1.5.5-1-4-7 1-1.5-3.5v-2l-2-14 2-6-3-2-1-9 1-3-4-15-1-14zm331 3-.5 1.5 1 4-3 2-2.5 4.5-2.5-1.5.5-2.5q2 3 4-2l2.5-.5-.5-1.5-1.5.5zm-316 3 1 2 2-1 2.5 1.5 1 7-1.5 3.5-1.5-2.5.5-1.5-2.5-1.5zm289 7 2.5.5-.5 8.5-1-8-1.5.5-.5 7.5-.5-7.5z"/><path fill="#c8c76e" stroke="#c8c76e" d="m368.5 524 1.5 3.5-1 2h2l4 10q-.9 14.9 3 25l-1 6 1 17h-1l-1-4-1-3-3-21v-2l-3-17v-4zm293 0 1.5 9.5-1.5.5zm21 13-.5 1.5-4.5 5.5 3.5-4.5zm-33 5 .5 18.5-2 1 1-15v-2zm-31 6 1 5q5.5-1 6.5 2.5l-1.5 2.5.5-1.5-1.5-2.5-5.5-1.5zm-56 3 13.5.5-13.5.5zm-151 5 .5 9.5-2 1zm-28 4 1 3 1.5-.5-1 13 1 2-2 1 1-10v-2l-.5-2.5-1 2zm254 2 1.5.5-5.5 8.5.5-1.5zm17 6 .5 10.5h-1zm-207 4 13.5.5-13.5.5zm185 0-1.5 4.5-1 3 .5 1.5-2-3-2 1 1-2 2 1 .5-1.5-.5-1.5 1.5-.5zm-215 4 1.5.5-.5 1.5-1.5-.5 1 2-2.5.5-2.5-.5-1-2 2.5 1.5 1.5-.5zm160 17 3 1 2-1v1l-11 1v-1zm69 4-1 2-16.5-.5zm-259 5 8 4 3-1 1 2h-2l-7 1h-2l-1.5-.5v-2l1-2zm232 4 .5 1.5-1.5 3.5-2-1v2l-2.5-1.5 4-2zm6 0 .5 12.5h-1zm-104 4 5 1 1.5-.5-3 2 .5-1.5q-5 1-4-1Zm24 0 2.5.5-5 4zm-65 4 1.5.5-3 2-5.5 6.5-1.5-.5 2-1 .5-1.5 1.5-.5zm55 1-3 5 2-1-1 2-4 3 2-4-2 1 1-2zm25 0 1 2q-1.7-2.7-3.5 1.5l1 1-7.5 7.5-1.5-.5 8-7q-3.2-2.3 2.5-4.5Zm-63 1-16 17zm44 0-5 6zm-15 2-6 7zm-21 2 1.5 1.5-13.5 13.5zm-56 1 .5 1.5-2.5 5.5-.5-2.5-.5-3.5 2 1zm65 0-5 6zm64 4v3l-1-1-7.5 6.5zm-66 2-1 2-1.5.5-9.5 10.5-2.5.5.5 1.5-1.5-.5 7.5-8.5q1.7 2.8 3.5-1.5l2.5-3.5zm4 1-.5 3.5-3.5 3.5-2.5.5-2.5 3.5-1.5-.5 3-2zm28 0-5.5 6.5-6.5 7.5 5.5-6.5zm-17 2-12 13-2.5-.5zm28 7 1.5.5-6.5 7.5 3.5-4.5-1-1 .5-1.5 1 2zm-71 5 .5 1.5-17 16zm7 6-7 8zm192 0-9 10zm-169 2-6 7zm228 1 2.5 1.5-.5 1.5 2.5.5-3.5.5-1-2-3 5 .5-1.5 1-3-.5-1.5zm-212 1-12 13zm-4 1-23 24zm-36 2-10 11zm28 1-17 18zm13 0-7 8zm62 0 3.5 1.5 1.5 4.5zm139 0 3 1 2-1v3l-1.5-.5-.5 1.5-1.5-.5.5-1.5-3 1-1.5-.5.5 1.5 2.5.5-2.5.5-1.5.5-.5 2.5-3 1-2.5-.5 2.5-1.5 1.5.5-1-3 3-1 1.5-2.5 1.5.5zm-145 3 .5 17.5h-1zm49 4 5.5 6.5-6-5zm83 1 2.5 1.5 1 2-1.5.5-1-2-2.5.5-1 2 1.5.5 1.5-.5-4.5 2.5-.5-1.5.5-1.5-1.5-.5.5-2.5 2 3zm-253 3 1.5.5-2 1 5 1-4.5 2.5-1.5-1.5zm25 0-.5 1.5-2.5 3.5-1.5.5-.5 1.5-.5-1.5zm166 0 6.5 4.5-1.5.5zm-165 4-10 11zm147 3 2 3 3.5 1.5h-2l1 2-2-1zm76 2 20.5.5-21.5 1.5zm-235 2 .5 1.5-7.5 6.5 1-2 1.5-.5.5-1.5 1.5-.5.5-1.5 1.5-.5zm302 0 .5 4.5-1 2 2 3h-1l-.5-1.5-2 1 .5-1.5zm-83 1 1.5.5-1 2q4.2 2.2-.5 4.5l-2-1-2.5 1.5 5-6zm-96 3-1 2-5 4 4-5zm-106 1-5.5 6.5.5 1.5-3.5.5zm-17 1-9.5 10.5-.5 1.5-.5-1.5zm10 1-6 7zm-30 1 1.5.5-6.5 5.5zm307 1 4.5.5.5 1.5 1.5-.5.5 3.5zm-50 2-6 7zm-309 2-6 7zm3 1-5 6zm270 2 3.5 2.5-.5 1.5 1.5.5-1.5.5-2-4zm102 1 5 6zm-303 7-5 6zm-13 5-.5 1.5.5 2.5 3.5 1.5-.5 6.5-1.5-3.5 1-2-4-3zm-158 3 4.5 3.5-1.5.5-2.5-1.5-.5-1.5-2 3-.5-1.5zm217 0 6.5 1.5-1.5 3.5.5-1.5-.5-2.5q-6 1.3-5-1Zm-78 3 4 1 1.5-.5-4 3 1.5-2.5zm-27 1-1.5 4.5-.5 2.5-1-3-2.5 1.5zm196 2-8 9zm-325 2-2 5-3 1 1-2 1.5-.5zm278 2-.5 1.5 2 5-1.5 2.5-.5-1.5 1-2q-2-3.2-4 0zm192 0 2.5 1.5-14.5.5v-1zm-128 3 2.5.5-1.5 2.5-1-2-10.5 9.5zm123 1 6.5 1.5-3 2 1.5-2.5-5 1zm-97 5q3.5 2-1 4l-1.5-.5-.5 1.5-1-2 2-1 1.5.5zm-75 1 1 2-1.5.5 1 2-2.5 7.5-1.5-.5 1.5-7.5 1.5-.5v-2zm-121 1 1.5.5-6 5 1.5-2.5 1.5-.5zm-62 1 2.5 3.5q-3.2 3.8-11.5 2.5l-.5-1.5 3.5-.5h2l4.5-.5zm252 1-5 7 2-1-1 2-5 1v-1zm-91 1 2.5 5.5-1.5 3.5-1-7-1 3-.5-2.5zm59 1-6 7zm115 2 2.5 1.5.5 1.5 2.5.5-.5 1.5zm-352 1v2l7.5.5-7.5.5q-3-1.5 0-3Zm-121 1-2 5-1.5-.5.5 3.5 1.5-.5q-3.5 6-7 2zm318 4 .5 5.5-2.5 3.5-.5-2.5 2-1-.5-2.5-1 2-.5-1.5zm-199 1 8.5.5-2 1-1.5 3.5-1.5-2.5.5-1.5q-5 1-4-1Zm269 0-6 7zm-12 1 2.5 1.5-7.5 6.5v-2l-2 1 1-2 1.5-.5.5-1.5 1 2zm-305 2 2.5.5-6.5 3.5.5-1.5.5-1.5zm419 0-.5 1.5 6.5 7.5-7.5-7.5zm30 0q5.8 3 2 6l1.5.5-1.5.5q-3.2-1.7.5-3.5zm-388 3-5 6zm356 2 10 11zm-173 1 2.5 4.5-4.5 6.5-.5-2.5.5-1.5 2.5-1.5zm64 4-7 8zm-332 1 1.5.5-4 3 2 1-3.5 2.5-.5-2.5 2.5-3.5 1.5.5zm-40 1-2 5-1.5-.5-.5 1.5-1.5-.5zm89 0 5 6zm413 2 1 2h-2l-3 1-1-2 2 1zm-160 4-.5 1.5.5 1.5 1.5.5-1.5 2.5-1-2-2.5 1.5.5-1.5 1.5-.5-1-2zm-58 1 .5 11.5h-1zm238 1 7.5 6.5-6.5-5.5zm68 0 5 6zm-596 2 1 4q-2-3-4 2l-2-1-1.5.5 2.5-3.5 2 1v-2zm394 0 1.5.5-1.5 2.5-1.5.5-.5 2.5-1.5-.5 2.5-3.5 1.5-.5zm100 0-1 2-2.5 1.5 1 2-2.5.5-2.5-.5 3-1 2.5-3.5zm-218 1-8 9-3 2 2-3zm-304 2-.5 1.5-2.5 4.5-2.5-.5 4-2-1-2zm387 0 2.5 1.5-10 9 8.5-9.5zm-324 1-.5 1.5 1 2h-2l-1.5 2.5-1.5-.5zm380 0L669 785.5l-2.5 3.5-3 2 2-3 2.5-1.5zm-407 2q2 2.5-2 5l-2 1-1.5-.5-.5 1.5-2 1 4-5 2 1zm342 5-5 6-.5-1.5 2-1-.5-1.5q2 3 4-2Zm-203 3-5 6zm324 0-3 4-1.5.5.5 1.5 3-2-1 2-6 4v-1l3.5-2.5-1.5-2.5zm-453 3-10 11zm331 0-5 6zm-384 2 .5 2.5-1.5 3.5-1-2-1.5 3.5h2q-1.5 3-3 0l-.5-2.5-1 6-.5-6.5 2-1 1.5-2.5zm293 1-2 4 2.5.5-3.5.5-.5-1.5zm200 1q3.7 2.2-1.5 4.5l1 2-4 3 2-4 3-4zm-6 2-11 12zm-450 1 1.5 1.5-4.5 4.5zm129 1-11 12zm167 0 5.5.5-5 1 2.5 3.5zm-377 1-7 8zm-7 1-5 6zm36 1-3 4-5 4 4-5zm431 0 5.5 1.5-.5 1.5-1.5-.5.5-1.5-5 1zm149 2 3 1h2l4-1 .5 1.5-3 2 .5-1.5-3-1-2 1zm-133 1v2l14.5.5-18.5 1.5v-1zm-401 1-8 9zm133 0-5 6zm98 1 .5 1.5-.5 1.5 3.5-1.5.5-1.5 1 2 1.5.5-4 1-.5 1.5h-2l-4-1-3 1-1.5.5-.5 1.5-1.5-.5v-2l.5-1.5 1 2 4.5-1.5-1-2h1l.5 1.5 3.5-1.5zm186 0 12.5.5-12.5.5zm-338 1-7 8zm16 2 2.5.5-10 9 8-8zm6 1-5 6zm109 1 1.5.5-3 2-.5 1.5-3.5.5 3 1-2.5.5-2-1v2l-3-1-5.5 2.5 3 1-4.5.5-2-1-4 1v-1l5-1 2.5-.5v-2l.5-1.5 6 1 4-3h2zm-203 2 2.5 1.5-1.5-.5-3.5 1.5 2 1-1.5.5q-3-1.5 0-3zm524 0-5 6-2 1 1-2zm-29 2 1.5 2.5-3.5 2.5v-1l1.5-.5-.5-1.5 1.5.5zm-380 1-8 9zm327 0 1.5.5-2 1 4 2-2.5.5-5.5-2.5zm-475 1 .5 1.5q-5 3-2 6l-1.5 3.5.5-1.5-.5-2.5-1.5.5 1.5-4.5 1.5-.5zm80 0-5 6zm244 2-1 2-2.5.5 2 1-7.5 2.5 1-2 2.5-.5.5-1.5zm13 0 2.5.5-3 1 .5 2.5 2-1v3l-3.5-2.5-.5-1.5-4.5-.5zm119 1-6 7-1.5.5-.5 1.5-.5-1.5 5-4 .5-2.5zm-284 3 2.5 1.5-2.5 1.5-7.5-1.5zm136 0 5.5 2.5.5 1.5 3 1 4-1v1l-1.5.5 1 3h-1l-1.5-2.5-3 1-1-2-1 2-4-1-4 2-3.5-1.5 4-2-3-1-1-2 4.5-.5 3 1v-1zm2.5 2-5 2 2 1h-1l-1 2 7-3zm-218.5-1-9.5 10.5-.5 1.5-.5-1.5zm335 0 2.5.5.5 2.5 2.5-.5.5-1.5 2-1v2l1.5-.5.5-1.5 4.5 2.5-3-1-.5 1.5-8 1-2-1-2 1 .5-1.5zm-272 1 .5 1.5-2 1 5 2-5.5.5-.5-3.5zm4 0 4.5 1.5-.5 1.5 5.5.5-7.5.5.5-1.5-.5-1.5q-1.7 3.8-3.5.5zm175 0 6.5 1.5-2 1 8 2-4.5.5-3-1-7 2 1-2 2.5-.5-.5-2.5zm26 0 1.5 3.5-2 1 .5 1.5 3-1v1l-2.5.5 4 1-3.5.5-2.5-3.5zm54 0 1 2 1-2 .5 1.5-1.5 2.5-2-1-1 5-8.5-2.5 4-2 .5-1.5 5.5-.5zm-173 1 .5 1.5-4 2-.5 1.5-1-2-1 3-6.5-.5 7.5-3.5 1.5.5.5-1.5zm352 0 1.5 5.5-4.5 1.5v-1l3.5-1.5zm-421 1q8.3-2.2 10.5 1.5l-2 1-.5-1.5-6 1zm197 0 11.5 1.5 1 3-1.5.5v-2l-11 1v-1l3.5-.5zm-94 1 3 1 3-1v1l-8.5 4.5 1.5.5 1.5-.5-1.5 2.5-1.5-.5-.5 1.5-3 1h-2l-7 3-3-1v1l1.5.5-2.5 1.5v-2l-3.5 1.5.5 1.5q-5-2.5 0-5l2-1 3 1 3.5-1.5-3-1 4.5-.5 1.5.5.5-1.5 5 1 .5-1.5-11-2 1.5-2.5 2.5.5-.5 1.5 9 1v-1l-2.5-.5 1.5-2.5zm179 0 10.5.5-10.5.5zm-390 2 1.5.5-4.5 5.5zm186 2 6.5 1.5-5.5.5h-2l-1.5-.5zm-27 2 10.5.5-10.5.5zm-70 1 1.5.5-2 1-.5 1.5-1.5.5.5 1.5-2-1-4 1-.5-2.5zm160 2-2 5-6.5 2.5-.5 1.5-6 3-2-1v2l-2 1-2.5-1.5 1.5-2.5 2 1 2-3 1 3 1-3 6-4 1.5.5.5-1.5zm-280 1 1.5.5-3 2 9 1-8.5.5q-3.5-2 1-4Zm208 6v2l1.5.5-.5 1.5-3 2-4-1-2 3-2-1-3 4-8 4-3 1-3 2 1.5-2.5-1-2 1.5-.5 1.5.5 2.5-3.5 4 1 2.5-1.5-2-1 .5-1.5 3 1 1-3 3 1v-2l3-1zm-128 2-.5 1.5.5 2.5 3-1 1.5.5-8.5 2.5v-1l1.5-.5zm176 3 1.5.5v2l-.5 1.5-1.5-.5-.5 1.5-2.5-.5zm-17 8 4 2v-2l2.5.5-.5 1.5-3 1-3-2-2.5 1.5zm-59 1-.5 1.5-.5 3.5-2-1-1 3-6 3 .5-1.5-1-2 1.5-.5 1 2 1.5-.5.5-1.5 1.5-.5-1-2 4-1zm-146 1 1.5.5-.5 2.5-5.5 1.5.5 1.5-1.5-.5 1.5-4.5 1.5.5-.5 1.5 2.5-.5zm199 2 5 1 1.5-.5-7.5 4.5v-2l-2 1-1.5-.5-.5 1.5-1.5-.5.5-1.5 2-1 1.5.5.5-1.5zm-10 4v2l2-1 1 2h-2l-1.5.5-.5 1.5-1.5-.5-1.5 2.5-2 1v-2l-1.5-.5 3-1 1.5-2.5zm148 3 10.5.5-10.5.5zm-210 1-2 4 2-1 .5 1.5-6 4 .5 1.5-3 2-3 1-1.5-.5 3.5-5.5 2 1 2-4v2l2.5-1.5q-3.2-2.3 2.5-4.5Zm-122 1 14.5.5-14.5.5zm169 2 1 2-2.5.5-2.5 4.5-1.5-3.5zm-18 9v2l2-1h2l1.5.5-7.5 3.5zm-3 2-1 4-3-2-3 2-1-2 5-1zm-44 9 10.5 1.5-10.5.5z"/></svg>