<svg xmlns="http://www.w3.org/2000/svg" viewBox="0 0 1024 1024"><path fill="#0d0d0b" stroke="#0d0d0b" d="m534.5 165 14 5 1.5-.5 2.5 3.5 1.5-.5-1-2 3 2 1.5 3.5 3-1 1 2 6.5 4.5 13.5 23.5 7.5 6.5 1 17 3 14-1 6 1 9-1 3 2 32-1 2 1 7 .5 2.5 15 3 18.5 8.5 2.5 3.5 12 4 17.5 11.5 4.5 8.5 2.5 1.5 10 16-1 2 18 54 4 7-1.5 2.5 1.5.5 6.5 28.5 1.5.5-1 2 4 15-1 2 7 39q-1.5 3-3 0l-1-5 1-4-1.5-.5-1.5 3.5 1 3-1 2 1 3-1 3 2 4-1.5 2.5-8-55-1.5.5 6 67 2 8v12l3.5 17.5.5-5.5-1-6 1-2-2-9 1-3-2-7 1-2v-2l-1-2 1-2-1-8 2 1 3.5 23.5 1.5-.5.5-3.5.5 13.5 5 31 1 3 2 10-2 1 2.5 5.5 2.5.5-1 3q6.6 6.9 8 19l17.5 22.5 5.5 3.5 2.5 5.5 14.5 11.5q4.1 2.9 3 11l-2 3-1 32 1 7 5 7q-6.4-.4-8 4l-.5 1.5-1.5.5-1 11-3.5 6.5-3-12-1 2-13 5-13 9-33 11-21 4-3-1q-1.5 3.5-8 2v-2l-3.5.5.5 1.5 1.5.5-4.5 1.5-2-1-17 5-27 3-15-2-5.5 1.5-4 9v6l-6 12-17.5 21.5-25 18-19 6h-7l-8-2-2 1q-34.5-7.5-58.5-25.5l-.5-1.5-1.5-.5-19-27-5-16 1-2-3.5-4.5-50-6-5-2-2 4-33-9-3 1-24-4-10-4-2 1-25-9-15.5-9.5.5-1.5 7.5-1.5-10-5-1.5-4.5-6.5-2.5.5-2.5 4.5-1.5-2-7 3-29-1-4 2-7v-2l2.5-5.5 8.5-4.5 1-2-1-4 11-11 24-40 14-31 3-21-1-2 2-10-1-3 3-14-1-2 3-30-1-2 5-34-1-2 4-23-1-4 4.5-20.5 3 1 .5-1.5-1-3 4-13v-7l9-22 18.5-23.5 27-20 43.5-22.5 1-17-1-9 1-5v-2l-1-7 1-2-1-6 1-6-1-17 4-17q8.4-8.1 12-21l10.5-11.5 9-4-1.5 2.5.5 1.5 32-11h2l14-1 5-2 2 1 2-1h2zm-2.5 7-1 2q19 2 30 13v-1l-16-13zm-17 13-23 3-4 2h-2l-8 3-1 2h-1l-3 4h-1l-1 2h-1l-12 20-1 9v2l1 9-2 14 1 2-1 8 1 2-1 5 1 5-2 6 1 6v2l-1 3 2 10-1 2q2 3 11 1v2l-6 5h-6q-5 2-4 10l-3 2-1 2-6-4-33 22q-26 21-41 52l-6 15-6 34 1 6-1 2 1 2-2 10 1 2-2 5 1 4v2l-1 16-3 13 1 2-4 22v2l-3 20-3 4 1 3-2 6q3 22-2 37-12 30-33 52l-11 8-2 5h-1l-8 9-2 17 1 2 35-15 10-1 10-4 28-6 63-8 41-3 7 1 3-1 2 1 7-1h22l2 2 3-1 6 2 4-12 6-6 24-10 7-15 10-41-1-3 6-4 1-2 12-8-1-1q-6-6-8-16-2-19 5-29 5-8 15-10 14-1 22 5v2h2q6 6 7 18 0 15-8 23l3 6 16 6q9 6 11 20l-1 4 4 24-1 3 5 22 1 17 15 7q6 3 6 13l40 12 18 10h2q1-24-10-34l-4-4q-23-19-36-46l-11-30-4-18v-10l-2-24-2-5 1-12v-2l-2-39-6-42 1-2-6-34 1-2q-8-24-22-41l-14-14-18-11-20-4-3 1-1-1-8-7-5 2-3-7-5-2-2-3 5-2 1-19-2-7 1-2-2-11-2-49-9-17-7-8-21-7-2 1-5-2-2 1zM367 353l-2 3h-1q-13 14-19 36l1 2 21-38zm239 165-12 4-5 6 7 4-1 11-4-1 1-8-3-1-2 4q0 11 4 18 4 4 15 2l1 4q-4 3-12 2h-2l1 2q-4 1-3 7l-7 2-5 8-7 35-5 14 1 1 6-3 2-2 3-15 2-21 3-3 2 5-1 3 1 2-2 19-5 12 1 4-37 18-8 7 1 2-6 20v2l-3 25 1 15-8 5-5 6-2 3 23-8 6-43 4-15 8-5 3-5 9-7 32-14 1 4q-11 11-27 16-11 8-11 27l1 12 2 3-2 11 2 10-1 9 1 2-3 1-9 14 2 2 23-16-1-8 3-31-2-4v-4l4-4 3-10 4-1v4l6-3v-1l27-14 5-9q1-14 7-23l-8-27 7-3 11 40v4l4 13-1 2 4 14 4 2 2-4 17 6v-2l-10-6-6-5-6-41-6-26-6-14-3 4-4-9-10-9-3-3-3-2 5-19q-1-15-9-21zm33 135q-1 10-6 15l5 1h5zm-179 14-25 3-2-1h-2l-5 2-2-1-38 5v1l25-1 63-6v-2l-12 1zm58 11-4 1h-2l-101 6q-9 5-21 5v-2l-6 2 4 1-8 2h-8l2-1v-1l-29 5-26 8-23 10-17 11-1 2 16 9 31 9 31 6 49 6h2l24 3h20l20 3 3-1h2l3 1 54-1 3 1 23-1 2 1 2-1 3 1 2-1 3 1 13-2 8 1h2l9-2 3 1 9-1h2l23-3 42-9 56-21v-2l-75-29h-10l-27-6-2 1-20-3-3-5-7 2-7 15v2l1 2-2 20h-1l-5 22h-3l-13 11-11 4-6-1-4-7 1-8 10-17-1-11-2-2v-15l-7 24 1 2q-5 2-4 10l-18 9-9 2q-9 1-13-2 0-11 5-15l4-3 9-10 1-6-1-8 1-6-1-18zm-249 66-2 3 21 8h2zm385 31-5 2-34 3-1 2 16-1 2 1 25-5zm-204 10q4 19 17 32l20 13 13 2h2q30-3 49-17 13-9 19-25l-2-1h-4l-9 2-3-1-4 1-22-2h-2l-2-1-6 1-2-1-8 1-48-3-1 2z"/><path fill="#0d0d0b" stroke="#0d0d0b" d="m501.5 208 20 1 12.5 6.5 11 16 1 13q-1.1 16.9-11.5 24.5l-9.5 5.5-.5 1.5-10 4h-2q-19.4-5.1-30.5-18.5-7.2-7.3-8-21v-2q3-15.5 13.5-23.5zm11.5 14-9 5q-7 5-9 16-1 9 3 14l11 6 13-2q8-6 10-18l-3-13-8-8zm-31 19-2 2 2 7 1-5zm-31.5 106 .5 1.5-6 4 1.5 3.5 2.5 1.5-4.5 6.5-10.5 8.5-13 24-15 58-1 3-1 3 2 8-3 22 1 2-1.5 8.5-1-8-1.5.5-1 18v2l-2 13 1.5-.5 1.5-.5.5-4.5.5 4.5-1.5 2.5-1.5.5v2l-2 14 3 1-.5 2.5-2-1-1.5 5.5v2l1 7-2 3-3 18 1 2-1 3-12 30-16.5 23.5h-5l-5.5 4.5-.5 1.5-9 3-1-2-2.5-1.5 3-6-4-3 2.5-3.5 3.5-2.5 17-48 3-33-1-2 1-2v-2l2-20-1-2 3-20-1-2 4-32 8-40q10.2-36.8 32.5-61.5l16-15 11-4 6 3zM415 380l-4 4-17 34-9 31-7 49 1 2-2 8-1 20v2l-2 11 1 2-2 31-9 30 1 1 12-26q1-16 7-27l4-29v-24l5-44 2-3 1-10 13-49 6-11zm298.5 136 1.5 1.5 1 14-1.5.5zm-109 14 5.5 2.5-1.5 3.5-3 1-2.5-1.5-1-3zm111 4 1.5 7.5v2l-1.5 2.5-1.5-6.5zm-121 11 6.5 2.5-.5 2.5-8.5-.5-1-3z"/><path fill="#f9f9f5" stroke="#f9f9f5" d="M.5 0 1024 .5l-.5 1023.5L0 1023.5zM526 165l-39 7-16 7h-2l2-1v-1l2-3-14 7-8 9-13 22-5 25 1 3-1 2 1 5 1 3-2 4 2 35-2 7 1 5-27 12-39 26-21 23-12 28 1 5-3 5-2 11h-1l-4 10-9 83 1 3-1 9v2l-1 19-3 12 1 2-2 22-4 14-19 38-21 31h-1l-6 7 1 4-9 5-3 5-2 18 1 2-2 11 1 19h-3l-2 3 7 3 2 6 5 1 1 3-5 2 1 2 17 9 37 11h2q5 4 16 3h2l10 1 23 8 11 1 1-3 32 5 19 1 11 31 12 16 9 8 16 9 21 9 29 6 17-3q12-4 20-13h3l1-2 10-7 16-20 6-12q0-10 4-15l4-2h2l8 1q21 1 37-3l39-9h10l19-7h2l16-5 28-16 3 12 4-7-1-5 1-5q2-7 11-7v-2l-6-5 1-16-1-5 1-3-1-15 2-1 1-3q1-9-4-11l-5-4-2-2-10-7 1-2-1-2-3-2q-18-14-25-39-5-3-1-5l-2-5-1-1-1 2-1-3 2-1-2-7v-2l-4-14 1-2-4-23 1-2-2-17 1-7-2-14v-2l-8-55-1-3-6-20-1-10-1-1v-1l-12-32q-2-17-9-28v-5l-10-16-1-1-5-7-7-8-6-1q-7-7-18-9l-1-1q-14-11-35-14l1-2-2-26v-2l1-5-1-29-4-28-6-6-9-17-20-19-1 3-2-3-6-3-2 1q-6-3-15-2z"/><path fill="#f9f9f5" stroke="#f9f9f5" d="M535.5 172q17.4 2.1 25.5 13.5l-1.5.5q-9.5-10-26.5-12.5zm-25 14h11l20 5 12.5 10.5 8 15 3 43-1 3v2l3 24-1 15-.5 2.5-4.5 2.5 1.5 2.5 6.5 2.5q-1.2 6.3 2.5 7.5l6-2 3 4 5 3q15-1 24 4l18 11 14.5 14.5q12.6 16.4 20 38l10 78 2 34-1 2 2 15-1 7 2 12v2l1 18 4 22 11 30q13.7 27.8 35.5 47.5l7.5 6.5q5.9 7.6 7 20l-1 2 1 9-1.5-.5-19-10-37.5-11.5q-.4-9.1-6.5-12.5l-15.5-8.5v-14l-4-17 1-2-2-5v-2l-3-25 1-2q-1.4-16.1-12.5-22.5l-15.5-6.5-3-4 7-12 1-16-6.5-13.5q-6.3-7.1-19-8l-2 1-2-1q-10.5 1.4-15.5 8.5-8.9 9.6-7 30 1.8 11.7 9 18l-12 8-.5 1.5-5.5 4.5-7 35-8.5 23.5-26.5 11.5-.5 1.5-3.5 2.5-4.5 12.5-1-3-1 2-14-2-3 1-3-1-54 2-39 5h-2l-36 4-14 4h-2l-33 7-37 15-.5-3.5q.3-15.2 8.5-22.5l2.5-1.5 3.5-5.5 12.5-10.5q16-16.5 26-39 6.5-10.5 7-27l-1-2 1-8-1-2 2-18 2-2 3-14v-2l5-34v-2l2-12-1-2 2-14-1-2 2-22v-2l4-30 7-21q12.7-26.8 33.5-45.5 17.3-16.7 40-28l6 3 4.5-3.5 3.5-9.5q10.1.1 13.5-6.5l-1.5-2.5-2 1-7.5-1.5-1-25 2-20-1-9 2-27-1-3 6-12 8.5-10.5 1.5-.5 2.5-3.5 18-7zM500 208l-9 4-9 10h-1q-7 7-8 21 2 12 9 20 11 11 27 17h9l14-8q11-7 14-23 3-22-8-29-7-10-20-12l-2 1zm-63 139q-13 5-20 15l-2 3-2 1-5 6h-1l-1 2h-1q-20 27-29 64l-3 24-4 16-5 50 1 6-2 10v22l-2 16-14 43-4 7-5 4 3 5-2 4 4 6q8-1 13-7v-1l8-2 7-13 8-9 1-6 11-20q1-20 6-34l-1-3 1-4v3l2-1-1-4 2-13v-2l2-10-1-5-2-1 3-1 1-2-2-1-1 2h-2l1-2 3-1v-1l-3-2 2-10-1-3 2-1-1 2 1 3v2l-1 3h2l1-23 2-5-1-16 1-3-1-2 3-2-1-3v-2l14-53 16-28 8-5 4-5v-3l-4-3 6-4v-1l1-2-8 4z"/><path fill="#f9f9f5" stroke="#f9f9f5" d="M510.5 223h11l7.5 7.5q3.4 5.1 2 15l-8.5 14.5-11 3q-10.1-.4-13.5-7.5-3.1-5.4-2-15 2.1-8.9 8.5-13.5zm-144 131-1.5 2.5-18.5 34.5-.5-1.5q6.3-21.7 20.5-35.5Zm47 27 1.5.5-7 13-8 29v6l-5 13 1 2-4 12-5 55 1 3-2 13v2l-4 28-8 27-5.5 11.5-.5-2.5 6-23 1-33 3-22-1-2 5-45 7-33 7-22zm288 93 7.5 56.5-1 2 3 34h-1l-5-55-4-25zm9 37 2.5 4.5-1 3v2l-.5 1.5-1.5-3.5 1-2zm-103 7 5.5 3.5 7 14v7l-5 16 1.5 2.5 2.5 1.5 1.5 2.5 10.5 7.5 3.5 10.5 3.5-.5.5-2.5 4.5 7.5 10 48-1 2 3 9-1 4 3 10 4.5 4.5 10.5 5.5-.5 1.5-9-4h-2l-7-1-1 3-5.5-14.5-3-21-5-13-4-19-4.5-7.5-6.5 3.5 3 5 5 23q-5.9 7.6-6 21l-6.5 10.5-31 16-1-3-4.5 2.5-6 12v5l1 7-3 29 2 3-1.5 4.5-22 15-.5-1.5 7.5-12.5 3.5-1.5 1-9-1-3-1-12 2-8q-4.4-6.1-3-18l2-9v-2l5.5-11.5q18-6.5 30.5-18.5l-1.5-3.5q-23.2 6.3-40.5 18.5l-5.5 7.5-6.5 3.5-11 57 .5 1.5-22 9 .5-1.5 6.5-7.5 5-4 2.5-.5 1-4-1-15 3-21-1-3 1-2v-2l4-8v-2q-.7-9.7 5.5-12.5l33-17h2l4.5-2.5 6-27v-17l-3.5-1.5-2.5 3.5q.2 22.2-6.5 37.5l-5 2 .5-1.5 11-49 4.5-6.5 7.5-2.5-1-3 4-3-1-2 1.5.5q8 .5 11.5-3.5l-1.5-4.5-9 1-5.5-3.5q-4.5-6.5-3-19h3l-1 6 2.5 3.5 3.5-1.5 1-11-7-4 1.5-3.5zm-2.5 11-3 3 1 5h6l2-3-1-2zm-12 16-2 1-1 2q2 5 10 3l2-3q-2-4-9-3Zm118.5-22 1.5.5 1 6v2l-.5 10.5-1.5-4.5v-2l-1-6v-2z"/><path fill="#f9f9f5" stroke="#f9f9f5" d="m638.5 654 4.5 13.5-6.5.5-2.5-1.5q5.5-3 4.5-12.5Zm-170 13 4.5 1.5-58.5 4.5v-1zm48 12 2.5.5 1 28-2 10-10.5 10.5-1.5.5-5 11v2l1.5 5.5 5 1h2l2-1h2l12.5-2.5.5-1.5 2-1h2l10.5-5.5 4-10 4.5-21.5.5 2.5v7l3 6-1 2 1 6q-7.8 8.2-11 21 .2 8.3 5.5 11.5l1.5.5-7.5 1.5-11-1-2 1-24-1h-2l-30-1-6 1-3-1h-2l-23-2-2 1-22-3h-2l-59-7-31-6-22-6-22.5-11.5q36.1-26.9 91.5-34.5v1l-2.5 1.5 1.5.5 34-6 6-3h9l2 1 3-2v2l1.5-.5.5-1.5 32-3 2 1 11-2 2 1 2-1h36zm83 4 5 6 5 1h2l52 7 74.5 28.5q-28.1 14.9-62.5 23.5l-33 7-31 4-3-1-33 3h-2l-17 1-5-1-1.5.5.5-1.5 12-3 18.5-13.5 2-4 1-15 3-3 1-11-1-2 1-12 6.5-12.5zm-331 62 19.5 8.5-1.5.5-18.5-7.5zm383 31 4.5.5-30.5 5.5h-2l-7.5-.5 7.5-2.5 22-1zm-192 10 17 2h2l9 1 3-1 2 1h2l8 1 23-1 12 2 3-1 15 1 14-1-.5 1.5-13.5 18.5q-21 20-61 21-18.3-4.2-28.5-16.5-10.8-10.7-16-27l1.5-.5 6 1z"/><path fill="#88866c" stroke="#88866c" d="M525.5 165h2l6.5.5-7.5 1.5zm10 0 7 2 2-1 6.5 2.5 1.5 3.5 1-3 6.5 5.5-2.5 1.5-3-5-1 2-3.5-2.5-.5-1.5-3 1zm-64 9 1.5.5-2 3 .5 1.5-2-1-1 2-.5-1.5 1.5-2.5-1.5-.5zm97 8 5.5 6.5h-1zm-83 8 2.5.5-10.5 4.5-.5-1.5zm89 0 5.5 10.5-3-2zm-28 3 7 8zm37 12 5 6zm7 13 .5 10.5h-1zm-67 6 5 6zm-28 18 1.5 10.5h-1zm69 6 .5 10.5h-1zm-82 14 6 7zm84 27 .5 14.5h-1zm-112 25 1.5.5-2 1-2.5 6.5-.5-3.5zm115 3 2 3 5-2v1l-5 2zm-130 7 6.5 3.5-2.5.5-4-3-1.5.5zm-79 22-5 6zm47 0-6 7zm-12 12-6 7zm277 116 .5 12.5h-1zm1 16 .5 13.5h-1zm37 19 1.5.5 1.5 5.5 1.5-.5-.5 2.5-1.5-.5-.5 2.5-.5-2.5-1-3-.5-2.5-1 2-.5-1.5zm-333 6 .5 2.5-1.5 7.5-.5-6.5zm23 0 2.5.5-1.5 2.5-2.5.5 2 1-2 3 2 4-1 4 .5 1.5-1.5.5 2 3h-2l1 2-2 6 .5 1.5-2.5-.5 1.5-9.5 1.5-.5-1-4 .5-2.5 1.5-.5-.5-1.5-2 1-.5-1.5 2-4-1-4 2-1zm312 5 1.5 7.5h-1l-.5-4.5-1.5.5-.5 3.5-1.5-.5-.5 3.5-.5-6.5h1l.5 1.5zm-121 8 5.5 3.5-.5 3.5-3-6zm-11 3 .5 13.5h-1zm-206 14 .5 14.5h-1zm-11 5 .5 11.5h-1zm230 12 1 2 4-1v1l-3.5.5-.5 1.5-3 2 1.5-4.5zm47 3 10.5 9.5-.5 1.5-8-9zm-60 2-2.5 3.5-1.5 2.5-3 2 2-3 1.5-.5zm74 21 .5 1.5-1 2 1 5h-1l-1-6zm-4 30 1.5 9.5h-1zm11 23 .5 12.5h-1zm53 5 9 10zm-411 11-6 7-1.5-.5zm201 3q6.9-.9 9.5 2.5l-2.5.5zm108 1 2.5.5-7.5 3.5v-1zm65 3 5.5 7.5h-1zm-268 8 9.5 1.5-5.5.5zm-9 1 10.5 1.5-8.5.5-2-1-16 3 1-2zm87 7 22.5.5-22.5.5zm43 2 .5 2.5-1.5 7.5-.5-6.5zm-120 3 10.5.5-2.5 1.5-8-1zm140 15 .5 14.5 2 2-3-2-2-8h1l.5 1.5.5-2.5-1-2zm-23 6 1.5 14.5h-1zm-280 1 .5 11.5h-1zm328 10 1.5 10.5-2-1zm-60 3-6 7zm61 10 .5 3.5-9.5 7.5 4-5 4.5-2.5zm201 0 4.5 6.5h-1zm-242 8-3 4-3 1-.5-1.5zm-278 2 4.5 2.5-8.5 2.5 1-2 3.5-.5zm221 22 24.5.5-24.5.5zm26 0 23.5.5-23.5.5zm-136 13 4.5 1.5-1.5 3.5-4.5-1.5zm210 55-6 7z"/></svg>