<svg xmlns="http://www.w3.org/2000/svg" viewBox="0 0 1024 1024"><path fill="#0b0b0a" stroke="#0b0b0a" d="m512.5 299 2.5 1.5 57 91-2.5 3.5-36-11-.5 9.5 10 121-1.5 1.5-15 1-2-1-3 1h-2l-5.5-1.5.5-4.5 22.5-1.5-10-115v-16l4.5-1.5 29 10 .5-1.5-48.5-77.5-48.5 78.5 1.5-.5 27-9h5l.5 14.5-10 120 5.5.5 15-1 .5 5.5-20.5.5-6.5-2.5 10-130-1.5-.5-28 10-8 1-.5-5.5 56.5-89.5z"/><path fill="#0b0b0a" stroke="#0b0b0a" d="m510.5 481 10.5 3.5q3.8 3.2 2 12l-8.5 5.5-.5-3.5 5-7-3.5-4.5q-6.5-1-8.5 2.5l-1 3 3 9-1.5.5-3.5-2.5-3-7q.4-8.1 6.5-10.5zm6 71 5.5 2.5 1 7-2.5 1.5-2-8-2.5-1.5zm-4 4 2.5 1.5-.5 1.5-2.5 1.5 1.5 6.5 5.5 1.5 1 2v2l1 21-7 19 11 12-3.5 1.5-11.5-13.5 9-23-2.5-19.5-3-1-1.5 1.5v17l-1.5 1.5-1.5-1.5v-18l1-3-1-5z"/><path fill="#0b0b0a" stroke="#0b0b0a" d="m509.5 590 1.5.5-10.5 18.5-1.5-.5zm-33 5 8 3 6-1 2 5 1.5.5 1 4-2.5 3.5-1.5-.5 1-5-3-2-.5-2.5-6-1-2.5 4.5 2.5 6.5 2.5 1.5-.5 2.5-5 1-6.5-5.5-2-7zm19 15 2.5 1.5q1 5.5-2.5 6.5l-4 1-3.5-1.5.5-2.5 5 1zm-9 10 .5 2.5-3 10-2 18 9.5 17.5 3.5-2.5-6-19 3.5-14.5 13.5 11.5-1.5 2.5-10-9-2.5 13.5 10 23q-5 2-2 4l-1.5 5.5-5.5-2.5-2-8 1.5-.5 3 8 1.5-.5q-1.5-6.5 2-8-2.2-5.7-4.5-2.5l-5 1-8.5-15.5-1-8 2-18zm43 11 2.5.5.5 1.5q15.2 1.8 24.5 9.5l-.5 1.5-25-9-14 15-6 2 6-7 1.5-.5z"/><path fill="#0b0b0a" stroke="#0b0b0a" d="m559.5 646 1.5.5 9 31-1.5 2.5 13.5 4.5-.5 3.5-17 3-3.5-2.5-1.5-6.5-4.5-2.5-6.5-23.5-12-3-.5 1.5 6 10 1 11-3 21-2.5 5.5-1.5.5 9 10v3l-3.5 1.5-15.5-7.5 1-8-3-2 3-25-14-21 1.5-.5q11.4 7.6 15.5 22.5l-2 22q1.8 3.3 8.5 1.5l4.5-30.5-11-20 2.5-1.5 19.5 8.5 7.5 22.5 7.5-2.5zm4.5 35 1 7 11-2zm-34 21-1 5 9 5h2l-6-9zm-69.5-26 2.5 1.5-1.5 2.5-1.5.5-1 3q1.7 4.3 3.5 1.5l4.5-1.5-3-5 1.5-.5 4.5 3.5-2.5 5.5-8 1-3.5-5.5zm69 53 3.5.5q-1.2 6.3 2.5 7.5l6.5 4.5-1.5 3.5-11 8h-3l-8.5-18.5zm.5 3-9 4 8 14 9-7-2-2z"/><path fill="#fefefe" stroke="#fefefe" d="M.5 0 1024 .5l-.5 1023.5L0 1023.5zM513 270q-4 2-2 10l3 1q3-2 1-10zm22 13-6 5 1 2 6-2 1-4zm-45 2q-2 6 4 7h2l-1-4zm22 3-4 8-10 6 1 3 4 3-3 9-47 74 3 5 34-11 1 1-10 126 1 4 3 1h24l3 34q1 7-3 9l1 7-2 4 1 8v11l-11 19h3q9-8 12-23l-1-11 1-5 4 2-1 2 2 11v8l-8 17v4l13 14-4 6-12 10-1-1-12-12-3 3-2 10v8l5 14-2 1-9-15 2-22 3-10-1-1q-7 7-7 22v13l10 17 5-2 3 3-2 3 1 2v3l-4-9-2 1q-1 7 3 11l4 1q4-1 2-8l3-2-11-24 2-11 2-1 1 3 6 4 1 5 6 1 18-20 1 1-9 11-8 7-1 3h2l2 7 11 14-2 26 3 2-2 7 16 8 5-1-1-4-8-9 2-1 1-1 4-28q-1-12-7-18v-2l12 4 6 24 5 2 4 8 17-2 2-3q-5-6-14-6l1-2q-2-19-9-33l-2 1 7 30-5 2-9-23-19-8-3 1 10 21-3 27v2h-9l2-16 2-1 3-5-3-8-1-1-7-12-6-5 3-2 11-12 22 9h-2l-1 4 6 1 1-3-2-1 1-4q-10-8-24-10l-2-4 6-23-2-18-13-22 2-4-1-5-4-4-3-4-2-30 29-2 1-2-11-127 1-2 31 10 7-1-1-5-47-75v-7l5-6q-2-5-8-4l-5-6zm-34 306-2 1-5 7 2 9 6 4h5l2-3-2-2-3-6 2-4 2 1 3-1 3 5-1 5 3 1 2-3v-4l-4-8-4 1zm18 15-2 2 1 3-6 1-2 3 3 1 7-1 2-3-1-4zm-34 66-6 6 1 6 4 2q7 0 10-4l-6-9zm23 18-11 13-9-6q-12-1-16 5l-4 7 3 8-5 7 1 10q3 5 11 6l8-1v2l9 5 12-2 5-6 5 1 5-1 6-7-1-6-1-3-2-10-4-4-5 2 4 1 4 6v2l-3-2q-7-1-8 3l2 7 6 6-1 1-5-1-4-5-3 2 1 7-5 4q-11 2-13-3 5-3 4-11l-5-2-5 10-10-1-4-4 1-7q2-6 5-3 7 2 8-2l-3-6-6 1-2-2 1-4 10-6 7 1q4 1 3 7h3l13-17zm22 0-4 4 1 4-1 3q2 4 11 3l1-2-4-10zm-17 2-3 3-5 16 3 1 6-16zm73 21-4 13 3 3 11-4-2-6-5-6zm-32 12-13 7v4l9 15 15-9 1-2-6-6-4-4 1-2-1-2z"/><path fill="#fefefe" stroke="#fefefe" d="m512.5 316 5.5 3.5.5 1.5 2.5 1.5 40 63-1.5.5-30-10-2.5 1.5-1 9 10 123-1.5-.5-20 1-.5-6.5 9-6 1-9-5.5-6.5-10-1-6.5 5.5-1 9 5.5 6.5 2.5 1.5-.5 7.5-20.5-.5 11-132-5.5-2.5-28 10-.5-1.5 39.5-62.5z"/><path fill="#fefefe" stroke="#fefefe" d="m511.5 487 6.5 3.5-2.5 5.5-2-4-3.5 1.5-1.5 2.5-1.5-5.5zm9 84 10.5 17.5 1 20q-1.1 9.4-6.5 14.5L515 612.5v-3l7-17v-7zm44 110 9.5 4.5-9.5 1.5-1.5-4.5zm-34 21 2.5.5 5 8-1.5.5-7.5-4.5z"/><path fill="#b8a160" stroke="#b8a160" d="m512.5 270 2.5.5q2.3 8.3-1.5 10.5l-2.5-1.5q-2-7.5 1.5-9.5Zm22 13 2.5.5-1.5 4.5-6 2-.5-2.5zm-45 2 5.5 2.5 1 4-2.5.5q-6-1.5-4-7Zm22 3 4.5 2.5 4.5 6.5q6.9-.9 8.5 3.5l-5 6v7l2 3-2-1-9.5-15.5-2-1-3.5 2.5-5.5 9.5-1-4-3.5-2.5-1-3 10-6z"/><path fill="#b8a160" stroke="#b8a160" d="m512.5 308 8.5 13.5-1.5-.5-1.5-.5-3.5-4.5-11 7 2.5-3.5zm-1 184 2.5.5 1.5 3.5 2.5-1.5q-4.7.8-4 7l2.5.5 6-5-4 5-4.5 1.5.5 6.5 3.5.5-4 1 1 5-1 5 2 26 2 4-2 1 1.5 2.5 2.5 1.5-.5 1.5-1-2-1.5.5 1.5 3.5 1.5.5.5 2.5 1.5.5 13 23 2 18-6 23 1 3-6 2-3 5h2l-14 12 .5 1.5h-2l-5.5-1.5 2.5-5.5 12.5-10.5 4-6-.5-1.5 2.5-1.5-11-14h1l10.5 12.5q9-9.5 6.5-30.5L520.5 571l-1.5.5v-2l-.5-1.5-2.5-1.5-2.5-6.5-1 2-.5-1.5 3-2-1.5-2.5-3 2 1.5-2.5-4-53 1-5 1-3zm16 24 13.5.5-13.5.5z"/><path fill="#b8a160" stroke="#b8a160" d="m512.5 575 .5 10.5h-1zm-3 13 2.5.5-5.5 4.5 2.5-3.5zm-22 8 4.5 1.5 1 4-2-1-.5-3.5zm3 12 1 2 2-1h2l2.5 1.5-1.5-.5-2 1h-2l-2.5-1.5zm5 24 10 11zm33 7-8 9zm26 5 2.5.5-.5 1.5 1.5.5-1.5 3.5-5.5-1.5.5-3.5zm-38 6q6.8-.7 7.5 4.5l6.5 12.5 1.5.5 3 8-3.5 5.5-1.5.5-.5 6.5-.5-11.5 1-3-15.5-20.5-3.5-.5zm-18 14 4.5 9.5-2 1 1-3q-5.5-1.5-3.5-7.5Zm-37 11 3.5.5 3 4-2.5-1.5-1.5.5 3 5-5.5 2.5-2.5-3.5h2l-1-2 3-2zm23 18 2.5 1.5-13.5 17.5-2.5-.5q.8-5.7-3.5-6.5l-7-1-9.5 5.5-1 4 1.5 2.5 6-1 3.5 5.5q-1.5 4-8.5 2.5-2.2-3.2-4.5 2.5l-1 7 3.5 4.5 10 1 5-10 5.5 1.5q1.3 8.8-4 11 2.3 5.8 12.5 3.5l5.5-4.5-1-7 2.5-1.5 4 5 5 1 1.5-1.5-6-6-2-7q1.3-3.7 7.5-2.5l3 2 .5-2.5-4.5-5.5-3.5-1.5 4.5-1.5 4.5 3.5 2 10 1 3 1 6-6.5 7.5-5 1-5-1-5 6-12 2-8.5-5.5-.5-1.5-8 1q-7.4-1.1-10.5-6.5l-1-10 5-7-3-8 3.5-6.5q4.8-5.7 16-5l9 6zm22 0 4.5 1.5 4 10-1.5 2.5q-8.3 1.3-10.5-3.5l1-3-1-4z"/><path fill="#b8a160" stroke="#b8a160" d="m489.5 695 1.5 3.5-6.5 16.5-2.5-1.5 5-16zm73 21h3l5.5 5.5 2 6-11.5 4.5-2.5-3.5zm-33 16 6 9 2.5 1.5-9.5 7.5-7.5-14.5 1.5.5 1.5-.5-.5-1.5z"/></svg>