<svg xmlns="http://www.w3.org/2000/svg" viewBox="0 0 1024 1024"><path fill="#0a0a09" stroke="#0a0a09" d="m622.5 234 2 1 6-1 7 3 6 1 16.5 14.5q6.2 4.3 7 14l-7 4-1.5 2.5-44.5 24.5-7 21 2-1 13.5-15.5 8-2 4.5 3.5-2 14-14 22 1.5.5 14-10h7q4.5 2.5 3.5 10.5-7.8 17.2-21.5 28.5l-1.5.5-34 35 30.5 1.5 45 8q19.1 4.9 32.5 15.5l3 10-4 6 1 2-12 86 1 2-8 84-16 96-4 41-3.5 5.5-4.5-2.5-1-3 7-57 15-87 5-57 2-7-1-2 4-34 11-62-1.5-.5-16 7-58 14q-33.9 4.6-72 5l-3-1-30 1h-2l-125-10-19-4-22-9-.5 4.5 13 89v2l11 69-1 2 7 61v2l6 60 7 27-2 3 54.5 15.5 2-1 28 5 33 1 9 2 19-1 3 1 12-1h2q28 0 51-5l2 1 32-12q12.5-4.4 20-14l5-1 1.5 3.5q-2.4 8.6-9.5 12.5l-36 16-18 4-27 3-2-1-18 2-3-1-18 1-3-1-12 1-12-2-6 1-2-1-5 1q-24.1-1.4-44-7h-2l-21-3q-20.8-5.2-36.5-15.5l-.5-2.5-4.5-2.5-6-22-6-49 1-3-3-14-7-84-14-87 1-2-3-20 1-2-2-8 1-2-1-3-1-22 3-2-2-6 1-2-7.5-1.5-5.5-4.5-8-19v-14q4.5-11 13.5-17.5l87.5-55.5q-9.3-7.2-8-25 2.3-12.7 11.5-18.5 21.5-16.5 48-28 10-6 26-6 10.4 2.1 15.5 9.5l9.5 12.5q46-25 100-42Zm.5 9-12 3-48 20-92 46q-69 38-132 80-9 5-13 16-1 19 8 29l7 4 4 7 21 8q34 6 74 7l8 2 4-1 41 3 3 1 3-1 3 1 1-11q15-33 24-70v-5l-8-20-1-14-118 64 1 1 46-7 43-2 6 1 3-1 16 2v2l-6 2-50 1h-2l-72 10-38 21h-3l3-4 94-58 37-18 46-27 91-46q2-5 4-2v-1l3-1 5-2v-1q12-11 30-17v-2l-17-17q-6-4-17-3Zm-136 20q-33 13-59 32l-9 13q-1 14 6 21l91-49-6-7q-5-12-23-10Zm120 39-11 6-19 31-6-3 5-15v-2l-13 6-13 27-4 3-4-1-10-14-10 6 4 18 7 18-1 15-6 20-20 51 28 1 11-2 3 1 4-1 4 1 4-1-1-1 13-50 9-14 8-7v-1l15-14 3-4 2-1q17-15 30-35l-1-5-17 12-5 6-9 7-4-2 1-7 21-30 4-11v-4l-4 2-25 33-6 5-2-1-2-2 3-10 14-28zm-54 28-16 8 5 10 4 1 8-18zm32 78-7 13-4 21v2l-8 22v1l17-1h2l11-1h2l22-3 31-8v-2l1-7-3-2-15 1-6-7 1-6v-5l-19 10-2 4h-4l2-4q10-10 26-14l1 2v13l2 1h13l8 1q5 2 2 5-2 6 2 8l19-5 10-6 2-5q-14-12-34-16l-40-7-18-1z"/><path fill="#0a0a09" stroke="#0a0a09" d="m662.5 317 2.5 1.5q5.3 7.2 4 21-1.2 12.3-8.5 18.5l-.5-1.5q7.5-10 6-29zm19 15 1.5.5 1 14q-2.7 11.3-10.5 17.5l-2 1-.5-2.5q9.3-8.7 11-25zm-122 20 4.5 2.5-2.5 5.5-4.5-1.5q-1-5.5 2.5-6.5Zm13 5 2.5 1.5-6 11 2 3-5.5 1.5-2.5-3.5zm9 7 4.5.5 1 4-4.5 3.5q-3.5-1-2.5-6.5zm-267 4q3 1.5 0 3l-11.5 9.5q-13.2 14.3-11 44l2 8-1.5.5q-6.7-9.2-4.5-27.5 3.5-19 14.5-30.5zm-34 9 1.5.5q-9.8 9.7-10 29l3 11-1.5.5q-5-4.5-5.5-13.5.5-19.5 12.5-27.5Zm272 0 18.5 7.5 1 4-5.5.5-16.5-9.5zm38 62 12.5 3.5-5.5.5h-2l-4.5 1.5q.5 13-6.5 18.5l-2.5-.5q5.6-7.9 6-21zm-184 65 7.5 3.5q7.2 14.3 10 33l3 30 3 12 4 53v2l2 30 6 33-1 2 2 8v2l1 6-1 8q3.1 8.4 2 21l-5.5 8.5-5 1q-8-1-10.5-7.5l-6-20-3-32-8-47v-2l-7-59 1-2-2-6-3-64 6.5-11.5zm.5 6q-6 4-7 13l2 9q0 37 5 69l-1 2 8 58 6 27 1 15v2l5 29 5 14 5 3 3-4 1-29-6-35 1-4-2-2-2-11-6-56v-2l1-2-9-69-8-25zm220.5-5q8.3-1.3 10.5 3.5l2 5v25l-3 29v2l-2 43-6 40 1 2-2 8 1 4-3 36-5 26q-2.3 15.2-12.5 22.5l-5 2-8.5-4.5q-5.3-8.2-4-23v-2l1-19-1-3 3-34 2-5v-2l5-60 10-62 5.5-14.5.5 11.5-10 70q-1.5 40-8 75l-1 57 3.5 8.5 4.5-1.5 7-14 5-23 3-28v-17l6-45 2-5 5-65v-2l1-31-2.5-4.5-5.5 2.5-7.5 16.5-1.5-7.5q1.1-9.4 6.5-14.5zm-111 4q9-1 11.5 4.5l5 19 2 60-1 4 1 7-1 7 2 55-1 3 2 17-1 3 1 18-1 2 1 2q-4.3 13.7-2 34-1.2 9.8-7.5 14.5l-7 2-4.5-2.5-1-3 4.5-1.5 3 1 5.5-7.5 2-17-1-8 2-13-1-3 1-16v-2l-2-29 1-2-1-9 1-3-2-5 1-2-1-8v-2l-1-16v-2l1-7v-2l-1-5 1-2-1-5 2-11-2-8-1-39-3-13-2.5-2.5-5.5 2.5q-6.1 5.9-6 18l-1 132 3 30v2l-1 4 1 31 3 21-2.5.5-5.5-9.5-2-29v-2l-4-49 1-3-1-5v-2l1-2-1-17 1-3-1-2 2-27-1-2 2-22-1-18 3-34 3-13 4.5-6.5z"/><path fill="#fefefe" stroke="#fefefe" d="M.5 0 1024 .5l-.5 1023.5L0 1023.5zM621 234q-53 17-98 41l-12-14-11-7h-12l-15 5q-29 12-51 30-9 7-11 20 0 15 8 23l-67 41-23 17q-11 6-11 22v4q2 13 9 23 3 5 12 5l-1 2 2 6-3 2 4 56 7 41-1 2 9 50 6 77 8 68 7 25 5 2 1 4 42 15 44 7 32 2q52 3 96-4 30-6 52-20 7-4 9-13l-1-3h-5l-10 9-16 8-23 8-39 5-3-1-16 2-2-1-3 1-48-1h-2l-60-7-38-12-2 1-5-2v-1l-9-49-11-118-9-49-13-95 1-7q15 9 37 12l115 10q63 3 117-4l60-14 16-7 1 1-12 71-5 58v2l-7 52v2q-12 54-18 116-1 7 3 9l6-2 7-60 14-82 9-106 9-57v-10l3-4-2-11q-16-13-39-18l-43-7-24-1-1-1 5-4 2-3 5-4 11-12 4-3 5-6 2-1q13-11 21-27l-1-11-3-3q-12 1-17 7l-3 2q12-12 15-31l-1-4-5-4-9 4-11 13-2 1 6-18 12-8 2 1 33-15 9-12q2-10-2-13l-1-1-3-4-18-9h-2q-8-6-23-4Zm86 13-11 22 1 3 2 2 3-1 14-15v-4zm38 47-21 10 2 7 7-3 19-1 1-3-6-2-1-1 2-1 1-4zm-82 22-2 2 4 8q2 19-5 30l1 3 8-15q3-18-4-26zm19 15q0 22-12 32l1 2 4-1q7-7 10-19 2-11-3-14Zm41 28-2 1-5 6 9 5 9 10 4-6-1-7zm-410 9-7 4q-16 12-19 37-2 16 6 24h1l-2-12 1-17 9-21 14-12v-2zm-31 8-2 1q-10 7-12 21-1 10 2 17l5 4-2-8q-1-22 9-32zm127 127-7 3-7 13 2 9-1 2 2 29-1 2 9 88v2q8 35 11 76 2 14 8 25l7 5 9-1 5-9-2-17 1-11-2-5 1-2-7-45v-2l-3-22-2-45-7-54q-3-21-11-37zm220 1-2 1q-8 5-9 17h-1l-6 13-11 70-10 103 1 11-1 2 1 3-1 3v4l4 18 7 4 9-2q9-7 11-20 7-24 7-53v-2l10-95-1-2 2-32v-2l2-11q2-17-3-26-2-5-9-4Zm-113 5-2 1-8 12-4 28 1 2-2 20v2l1 9q-3 36-2 77l-1 3 5 63v2l1 4-1 4 3 17 5 5 3-1 5 4 9-2q7-6 7-20v-2l-1-3 3-30-1-24-1-3 1-2-1-42v-2l-1-41v-2l1-5-2-40v-2l-2-19-5-10q-3-4-11-3Z"/><path fill="#fefefe" stroke="#fefefe" d="m595.5 253 1.5.5-2.5 5.5-8.5 5.5-1 3v2l2 6-2 6 3 1-2.5 3.5-1.5.5-1.5 2.5-10.5 7.5-1 4 5.5 2.5 41-19-3 4-1-1-4 4L488 354.5l-.5 1.5-48 24-95.5 57.5-1 2 .5 1.5-3-1-6.5-4.5q-7.5-9.5-8-26l7.5-12.5q119.1-83.9 262-144Zm-106 10q11.5-1.5 15.5 4.5l10 12-90.5 48.5q-6.1-6.8-4.5-21.5l8.5-11.5q26.1-20.4 61-32Zm116 40 .5 2.5-2.5 3.5-3.5-1.5.5-1.5zm23 3 .5 1.5q-3.1 13.9-11.5 22.5l.5-1.5 5-12-2-4zm-55 14 1.5.5-1.5 4.5-4-1-5.5 3.5-8.5 14.5-.5-1.5 8.5-15.5zm-20 10-.5 1.5-7.5 16.5-2.5-.5-6-9zm83 6 2.5 1.5-9 15-29.5 29.5-2.5 1.5-20 21-7 12-12.5 50.5-26 1-25.5-1.5q14.5-29.5 24-64 3.5-9 2-23l-1-4h1l4 5 1 14 4.5 4.5 5.5 2.5 1.5 2.5 12 3 14-6 22.5-18.5 1.5-2.5 2.5-1.5 17-19 1-9-1-1 5.5-5.5zm-106 5 3.5 2.5 1 2-6 2 3 26h-1q-6.5-11.5-8-28zm-15 8 2.5 1.5v9l8 21v9l-25 75 1 2-14.5.5-14.5-2.5 6-2 3.5-6.5 11.5-5.5-1.5-3.5-5 1-3-5q-11.3.2-17 6l7.5-8.5 1-4-1.5-2.5-4 1h-2l-4 1 .5-1.5 2-5q-1.7-4.3-3.5-1.5l-26 18 1.5-2.5.5-1.5 1.5-.5.5-1.5 1.5-.5.5-1.5 5.5-4.5 4-8-4.5-1.5-33 22 15.5-16.5.5-1.5 1.5-.5 1-4h-2l.5-1.5-21 12-.5-1.5.5-1.5-24.5 21.5-2 3 2.5 1.5 36-27 .5 1.5-22 24 1.5 2.5 5-1 30-22 .5 1.5-6 5-3.5 4.5-4.5 3.5-6 10 .5 1.5q-27.7-.3-51-5l-17-5-6.5-4.5-1-3 45.5-23.5 44-5 5-2h2l71-3 4.5-2.5-.5-1.5-6-2h-2q-27.8-1.3-51 2l-3-1-51 7 1-2zM410 426l-26 15-4 5q12-12 30-18z"/><path fill="#fefefe" stroke="#fefefe" d="m584.5 409 10 3 45 5 26 6q14.7 3.8 24.5 12.5.8 5.8-3.5 6.5-10.9 7.1-27 9l-1.5-6.5 1-3q-3-4.5-10.5-4.5l-3 1-8-1-3 1-1.5-6.5 1-8-4.5-2.5-23.5 13.5-2 7 2.5 1.5 2-6 19-10 .5 11.5 3 4-17.5 12.5-3-7h-6l-15 10-.5-1.5 4.5-13.5 2 1 6-1 2.5-.5q-4.4-4.6-14.5-3.5l-7.5 23.5 2.5 1.5 4-5 2 1 18-10 2 9h7l8-5 4.5 2.5-1.5 2.5-38 6h-2l-22 1 1.5-2.5q8.4-19.1 11-44z"/><path fill="#fefefe" stroke="#fefefe" d="m632.5 444 18.5.5-1 4 1 4h-1l-2.5-7.5-5.5.5 4 8-8.5 2.5.5-1.5 1-3-4.5-6.5zm-155 7 .5 1.5-5 6-1 3-1 2 .5 1.5-30.5-2.5 12.5-9.5-1.5 2.5q-1 5.5 2.5 6.5h4zm-42 5-3.5 4.5-.5 1.5-4.5-.5zm-28 54 7.5 20.5 6 39v2l7 77 11 63v2l-1 29 1 2-2.5 5.5-5.5-3.5-7-26-2-24-12-66-9-107q-.1-10.1 6.5-13.5Zm223 0 3.5 2.5 1 14-6 82-6 32-5 56v2l-6 33-7.5 13.5-2 1q-7.7-15.3-4.5-41.5l9-96 11.5-78.5 1.5-.5q2.7-12.2 10.5-19.5Zm-113 6 4.5 1.5 3 10 2 36v2l1 56-1 2v2l2 31v2l1 8-1 12 2 16-3 51-4.5 8.5-7-1-2 1-3.5-36.5 1-10-3-29v-2l1-69-1-2 1-3v-73z"/><path fill="#cfbf67" stroke="#cfbf67" d="m631.5 234 9.5 2.5-3.5.5zm13 3q7.8 1.3 11 7 7-1.5 8.5 2.5l2.5 4.5 1.5.5q4 3.5 2 13l-9.5 12.5-33 15-.5-1.5 33-19 .5-1.5 6.5-3.5-2-8-9.5-10.5-11.5-9.5z"/><path fill="#cfbf67" stroke="#cfbf67" d="M622.5 243q11.2-1.2 17 3l17.5 16.5-.5 2.5q-17.2 5.8-29.5 16.5l-.5 1.5-5 2-2.5.5-.5 1.5q-2-3-4 2l-4 2 3-5-40 17-2.5-4.5 3.5-4.5 9.5-6.5.5-1.5 3.5-2.5-.5-1.5-2.5-.5 2-6-2-6 1-3 2.5-4.5 6.5-3.5 2-5-.5-1.5 23-8 5 1v-1zm84 4 9.5 6.5v4L701.5 273l-3 1-1.5-2.5-1-3zm-196 27 5 6zm234 20 4.5 1.5-1.5 4.5-1.5.5.5 1.5 6.5 1.5-1.5 3.5-19 1-7 3-1.5-7.5zm-124 9-6 7zm-21 3 1 2 3 1 1.5-.5-15 34 1.5 2.5 2 1 6.5-5.5 24.5-32.5-3.5 4.5 2 6-5 10 1 1-4 4-11 17-1 7 3.5 2.5 9.5-7.5 4.5-5.5-.5 3.5-1 9-18.5 20.5-2.5 1.5.5 1.5 1.5-.5-2.5.5-22 18q-5.7 5.8-17 6l-10.5-4.5-1.5-2.5-8.5-5.5-1-14-4.5-5.5-1 2-.5-2.5 1-8q-4-7-3-19l6.5-1.5v2l1.5.5 4.5 5.5 4 1 4.5-3.5 4.5-10.5 1.5.5-1-2h2l-1-2h2l-1-2 3-1 5.5-8.5 7-2 .5 2.5-2 9 5.5 3.5 19-31zM560 352q-4 1-3 7l5 1 2-5zm13 5-10 14 3 3 5-1-2-3 6-11zm9 7-2 2q-1 5 3 6l4-3-1-4zm-29 13-3 3 17 9h5l-1-4zm112.5-50 .5 12.5h-1zm-40 30-17 18zm97 2 14.5 8.5 1 7-4.5 6.5-9-10-8.5-5.5 4.5-5.5zm-92 3-7 8-1.5-.5zm-9 9-5 6zm-311 2-7 8zm-31 4-5 6zm333 3-11 12zm-23 23 15.5 1.5-16.5.5zm-112 1 11.5.5-11.5.5zm-190 4 .5 11.5h-1zm188 2 14.5.5-14.5.5zm154 11 4.5 2.5-.5 7.5-2-9zm-199 1 3.5 1.5-1.5 4.5-1.5.5-16 17 1.5.5 26-19 9-3 1.5 3.5-8.5 10.5-1.5.5-.5 1.5-1.5.5-.5 1.5-1.5.5-2 3 1.5.5q10.9-11.6 26-19l2.5 4.5-3 4 2.5.5 3-2h2l3.5.5 1 4-9 10 1.5.5q5-6 16-6l3 5 5-1 1.5 3.5-12 6-4.5 7.5-4.5.5 2 1-7.5.5v-1l4.5-.5v-2l2-3q-3-2 2-4l2-4-1.5.5-18 10h-4q-3.5-1-2.5-6.5l1.5-2.5-12.5 9.5 10 2-3.5.5-18.5-2.5 3-1 3-4-1.5-.5q-4.2 7.3-18 5v-1l4.5-.5-1-2 9.5-12.5 4.5-3.5 2.5-3.5 3.5-2.5-.5-1.5-30 22-5 1-1.5-3.5 22-24-1.5-.5-36 27q-3.2-1.7.5-3.5l5.5-6.5 20-17-1.5 2.5.5 1.5zm-21 4 .5 1.5q-18 6.5-30.5 18.5l4-5zm-60 8-2.5 3.5-3 4 2.5.5 1.5-.5-4 2 1 2-2-1-2.5-3.5-6.5-4.5 4.5 3.5 3 1 3-4zm255 6 3.5.5-2 1 .5 1.5-2-1-2.5 1.5.5-1.5-1.5-.5 1.5-.5 1.5.5zm25 0 3 5 4.5 2.5 2 5-2 3 3 1-7.5 1.5-1.5-.5-.5 1.5-1.5-.5 1-2-4.5-2.5-8 5h-7l-2-9-19 10-1.5-.5-3.5 4.5-1.5-.5 4-3 1.5-3.5 1 1 4-4 11-6h6l3 7 17.5-12.5zm-296 2 6.5 1.5-1.5 3.5-.5-1.5 1-2-5.5-.5zm309 3 6.5 1.5 1.5 6.5 1.5-.5-6.5 2.5.5-1.5zm-302 5 .5 1.5-3 2-.5 9.5-.5-9.5 3-2zm166 16 25.5 1.5-25.5.5zm29 1 8.5.5-10.5 1.5v-1zm17 8 13.5.5-13.5.5zm82 39 .5 11.5h-1zm6 1 .5 18.5h-1zm-239 4 .5 3.5v2l-.5 6.5-1-7-1.5.5zm215 3 1.5.5 2 7-2 1-.5 4.5-.5-8.5-1-3zm-220 7 .5 14.5h-1zm113 7 .5 64.5h-1zm173 21 .5 10.5h-1zm-155 14 1.5 7.5-1.5 10.5zm-26 2 1.5 9.5-2-1zm129 7 .5 10.5h-1zm-129 4 .5 19.5h-1zm-70 13 .5 11.5h-1zm69 18 .5 17.5h-1zm8 9 .5 44.5h-1zm27 8 .5 32.5h-1zm-6 35 .5 11.5h-1zm91 0 .5 12.5h-1zm-29 22 .5 11.5h-1zm7 3 .5 11.5h-1zm-157 9 1.5.5 1 10-1.5.5-.5-2.5zm149 6 .5 10.5h-1zm-147 7 1.5 4.5-1.5 8.5-.5-7.5v-2zm68 4 .5 17.5h-1zm24 1 .5 13.5h-1zm-97 5 .5 18.5h-1zm90 9 .5 10.5h-1zm86 12-5 6zm-106 9 5 3 2.5.5-2.5.5zm146 18-6 7zm-109 21 10.5.5-11.5 1.5z"/></svg>