<svg xmlns="http://www.w3.org/2000/svg" viewBox="0 0 1024 1024"><path fill="#0c0c07" stroke="#0c0c07" d="m547.5 175 2.5.5 1 2-6 18 2.5 1.5q6.8-8.7 18-13l1.5 2.5-9 17 5.5 3.5 18-9 2.5 3.5-12 17 2.5 4.5 14-3 2.5 3.5-13 17 1.5 6.5 6.5 2.5-1 7-5 9q4.9 1.6 4 9l-9 17q27.5 8.5 46 26l12.5 17.5 2.5 1.5 3.5 4.5 3.5 1.5 5.5 7.5 5.5 4.5-4.5-3.5-1.5.5 12.5 17.5.5-2.5-12-28h1q10.2 15.3 15 36 15.4 17.1 25 40l-2-1-10.5-18.5-1.5.5 5 27 2 31 2 5 3.5 29.5 1.5-.5-1-10 2-20 1.5-1.5 1.5.5q-.6 37.1 6 67v2l4 40h-1l-9-68-1.5-23.5-1.5.5q-1.7 27.2 2 49v21l5 51q14 32 33.5 58.5l23.5 13.5-.5 1.5-4-2-.5 4.5 3.5 9.5 6.5 5.5 3 7h-1l-3.5-5.5-1.5-.5-3.5-4.5-.5 2.5 3 16v2l-1 7 1.5 1.5 5.5-5.5 2.5-3.5 1.5.5-12 14q1.4 8.9-2.5 12.5l-1.5-4.5.5-1.5-1.5.5-6.5 12.5-5 2-4-1-23 8-89 24q-3-1.5 0-3l17-3 53.5-16.5-2.5-.5-17 5-23 3-43 12q-3-1.5 0-3l20.5-5.5-7.5-.5-39.5 5.5-1 9 2-1 1.5-4.5q3.8 1.3 2.5 7.5-7.6 28.9-24.5 48.5l-.5-1.5 8-15-4 3-12.5 16.5q-9.7 11.3-32 10l-33-9q-12-4.5-19.5-13.5l-16-22q-4.3-7.7-4-20l1-6-70.5-7.5v1l3.5 1.5-.5 1.5-38-8-2 1-4-1v1l26 7 30 2 44.5 7.5-6.5.5-38-6-36-3-33-11-16-2v1l2.5 1.5-1.5-.5-43.5-16.5 3-9-2-4 3-2 2-19-1.5-5.5-7 4-.5-2.5 10-9-.5-4.5-2.5-.5 6-8-1.5.5-2 1-.5-1.5 8-5 .5-1.5q16.5-7.5 27.5-20.5 8.8-9.2 12-24l-4 3-4.5 5.5-1.5.5-1.5 2.5-12.5 11.5-3.5 6.5-.5-1.5q5.3-12.7 16.5-19.5l11.5-10.5 2-8 4-49v-2q-1.2-13.7 3-22l-1-2 2.5-11.5 1.5.5 1 5v2l1.5 12.5 1.5-6.5v-28l-1-7v-2l1-12-1-2 1-3-1-2 2-13-1-6 1-4-1.5-.5-5 18-2.5-.5 9-31-1-31 1-5v-2l1-4-2-1 .5-1.5 1.5.5-1-4h2l-1-3 5.5-13.5.5 2.5-5 18-1 39h1l21-61-3 2-9.5 13.5-1.5-.5-1-3q4-15.5 13.5-25.5l1.5-.5 19.5-23.5 7.5-5.5.5-1.5 13.5-11.5.5-1.5 16.5-13.5q-2.7-1.8 1.5-3.5l30.5-17.5q-10.7-12.8-11-36l7-20q7.6-7.9 11-20l8.5-8.5q13.9-10.6 36-13l1.5.5.5-1.5 11-1v1l-9.5 1.5 13 3-19.5 1.5-12.5 5.5 4 2-2.5.5-3-1-15.5 12.5-10 18-2 23q1.3 15.7 7.5 26.5l18.5-4.5q-4.7-10.8-4-27 .8-13.7 8.5-20.5l18-9 2 1 20-4 9.5 7.5q8.3 13.7 9 35l-1 2v2l-1 5-10 13 4 2-2.5 2.5-7.5 1.5-.5 1.5q-3.8 4.7-14 3-6-4.5-19-2l-18 4-6.5 3.5 5 2-3.5 2.5-3-2-.5 2.5 1 4-2.5.5-4-5-2.5.5-.5 2.5-3.5 1.5q-12.4 13.1-20 31l1.5-.5 7.5 1.5-.5 2.5-14.5 10.5-.5 1.5-3.5 2.5-24 31-22.5 53.5-1.5-.5-1-7 11-39-1-2q11.4-27.6 32.5-45.5l15.5-9.5q7.8-18.2 20.5-31.5l2.5-1.5-2.5-.5q-32.9 15.6-55.5 41.5-19.9 22.1-32 52-5.3 36.7-15 69v2l-10 49v14l3.5 19.5 4.5-22.5 1.5-37.5 1.5.5-1 6 1 2-1 4 3 1 1 7-5 26-2 42v2l1 2-1.5 11.5-.5-31.5 1-3-1-3 1-3-1.5-.5-7.5 27.5 1 5-3 6-4 26 2-1 5.5-9.5 2.5.5-11 17-5 15 1.5-.5 15-8-2 3-17.5 13.5-4.5 5.5 1-3-13.5 12.5-2.5 5.5-.5-1.5 1-2-3.5 2.5-7.5 6.5-2 4 1.5.5 7.5-5.5 1.5-2.5 30-22 1.5 2.5-12.5 8.5-38.5 37.5.5 1.5 48-44 14-9 .5 2.5-13.5 11.5q-2-3-4 2L295 695.5l-12 17 1.5.5 31-34 30-22 17-8 .5 2.5-18 19 1.5.5 23-13 .5 2.5-5.5 6.5-9.5 8.5 1.5.5q10.5-10.5 27-15l.5 1.5-53 50 1.5.5q22-24 52-40l.5 1.5-46 43 1.5.5q22.9-24.6 55-40l.5 2.5-24.5 25.5-13.5 12.5-11 13 1.5.5 39-31 23-13 .5 2.5-12.5 13.5-21.5 20.5 1.5.5q22-21.5 51-36l.5 2.5-30 33 1.5.5 34-25 17-8 1.5 3.5-21 34 2.5.5 37-23 1.5 7.5 2.5 2.5 16-5 8 6h7l13-4-1 2-17 5-6.5-3.5-1.5-2.5-19 4q-4.7-1.8-4-9-17.9 6.6-30 19l-8 3-1.5-3.5 20-34-1.5-.5-15 8-39 27-.5-3.5 31-33-1.5-.5q-28.9 17.6-53 40h-3l.5-1.5 3.5-5.5 4.5-3.5 5.5-6.5 1.5-.5 2.5-3.5 19.5-18.5-1.5-.5-18 11-43 33-1.5-2.5 42.5-44.5 1.5-.5 5-6-2.5-.5-20 13-43.5 37.5.5 1.5 23 7 2-1 104 12h47l108-10-1 2q-43.8 1.7-83 8l-40.5 1.5 27.5 4.5h2l14 1 2-1h2l82-4 24-4 4 1 3-1 17-3 50.5-17.5-1.5-4.5q-29.9 14.1-65 23v-1l40.5-14.5-2-1 13.5-5.5v1l-4.5 2.5 1.5.5 15.5-7.5-3-10 1-2v-2l.5-2.5 4 16q20.2-9.3 33.5-25.5l-4.5-20.5-1 2-7-10q-16.9-18.6-38-33l-.5 1.5q5.8 13.3 16.5 21.5l2.5 1.5-.5 1.5-6.5-3.5-10-12-14-29-8-31-3-30v-2l-1-14 1-4-1-73-4-20-11-44-19-46-9.5-13.5q-13.2-12.3-31-20l2 3 12.5 10.5 2.5 3.5 2.5 1.5 25 45 6 17 5.5 28.5 2-1 .5 4.5-1.5 3.5-2.5-1.5-1-5v-2l-7-35-23.5-43.5-3.5-1.5 1.5.5 2.5-.5-15.5-17.5-22-15-11-1 1 2 6.5 4.5-.5 1.5-11.5-6.5 1.5-2.5q11-2 16 2l-1-2-9-4-1 2-13-4-3 6-3.5-1.5 5-11-3-2-.5-2.5-6.5-1.5 3.5-.5 2 1-1-3 3-2 6 2q2.3-12.7 9.5-20.5l-2-4 5-7v-7q-8 1-10-4l9-13-2.5-7.5-11 2-1.5-3.5 6-12-4.5-2.5q-2.8 4.7-11 4l-1.5-3.5 3-10-3.5-1.5-9 6-1.5-5.5 1-4-6.5-2.5-11 10-2.5-4.5 2-6-3-1 3-1 2.5-8.5 2.5 1.5.5 7.5zm-3.5 9-9 9 6 2 3-7zm14 10-4 3-2 3 3 1 3-5zm-76 5-14 7-1 2 17-8zm92 7-8 5 4 2 5-6zm-105 2-4 2-6 6-8 18 1 2q4-18 18-27zm53 16-5 2 12 5 7 7-3-8q-3-6-11-6Zm59 1-5 2 1 6h2l6-7zm-71 8-5 3q-10 8-12 24-1 12 4 19l6 2-3 1 1 1 10-1h2l2-1 6 2-17 1-1 2 3 1 20-1q11-8 14-24l-1-7-7-13q-6-10-22-9Zm-61 1q-8 9-9 25l6 23 2 1q-3-6-2-15l-1-3 1-2-1-2 4-25zm45 9-7 16 2 6v-4l5-16zm-46 12-1 12v2l6 19h1zm127 16-1 7h2l3-5zm-88 10 1 5 4 1v-1zm-9 2-14 5 3 7 19-7-3-4zm9 6-16 6v1l16-5zm-37 4-11 6 1 1 11-4v-2zm0 4q-17 4-28 14l1 1 30-12v-2zm121 2 2 3q21 7 37 20h1q-16-16-40-23Zm21 2 2 3 16 10q5 2 2 5l9 4 4 4-4-6q-12-13-29-20Zm-165 10-11 5-3 4 15-8zm12 1q-23 10-40 26l-14 16-18 32h2l4-8q2-6 5-3l1-2h-2l18-27 3-2-4 6 1 1 6-7q17-19 39-31zm-3 32-3 1-1 2-1-1-12 7q-20 16-30 43v2l-11 38 1 4 20-49 24-32 16-14zm-54 4-14 19 1 2 14-20zm262 9 18 48 11 52h3l-1 2 2 6h1l-7-47q-10-34-27-61Zm-279 9-16 22 1 1 15-20zm292 1 10 28h1q-3-17-11-28Zm-280 9-9 13 1 4 8-15zm291 5 11 55h1l-6-41 1-2zm-302 8-7 13-5 20 1 2 11-27zm-3 22q-15 25-18 62v2l1 2-2 4-1 21v2l-1 3h2l5-25-1-2 15-66zm-18 24-5 14-3 20 1 18 7-47zm330 35v82l5 39 6 21h1l-2-29-5-24-3-29 1-23 1 4q-1 24 3 44h1l-2-34v-2l-2-33zm9 8 2 57 5 19h1l-3-49zm-342 61-4 30 1 15 6-24zm-13 5-2 15v2l-6 57 1 3 6-31 2-25v-2l1-2-1-16zm359 20 4 32h1l-4-31zm-354 5-2 9 1 7 1-2zm-2 25-3 11h2l1-3zm358 0 2 28 5 11 11 8h1l-3-5-3-3-5-5v-6zm12 13-1 5 5 16 16 19h1zm-371 11-7 17h2q5-6 6-16zm-4 21-9 12 1 1 8-11zm31 14q-27 14-47 34l-24 27v1l60-49-1-2 1-2 3 1 2-1 7-8zm-49 5-7 8 8-7zm57 3q-22 11-38 27l-13 14-2 1-15 17 1 1 68-59zm375 2 2 5 4 3-1-5zm-362 1q-43 24-74 58l-2 3 7 3 6-2 1-2 57-53 3-4 2-1zm-75 13-20 15-4 8 1 1 24-23zm72 2-50 42-4 5-5 4 6 2 5-6 49-46zm-84 1-8 9 5-3 4-5zm38 3-37 30-4 5 6 3 10-12 26-25zm418 16-2 3q-13 14-32 23l2 3 9-2 1 5-21 8v1l24-9-1-1v-1l3 1v-1l8-5 2 1 4-2q5-3 5-10l-1-12zm-460 2-3 2-3 6h2l5-7zm-10 6-2 3 1 4 3 1 1 1-2-8zm6 12 5 14 17 5 2-1 2-6-8-5-7 5-1-1 4-5-3 1h-3l1-3zm-13 6-2 10 23 9h1l-11-8-6-11-1 8h-1zm474 0q-11 11-28 15v1l24-7 5-8zm-430 7-7 6 10 3 38 7h2l-21-8-2 1h-3l3-1zm38 10 2 2 32 9 12-2 3 1 2-1 2 1 5-1 10 1h16l-63-9zm-48 2-1 2 8 3h3zm104 9 6 3 30 3h2l2 1 2-1 2 1q7 2 9-2l5 2h44l-42-6h-45zm88 10-1 2q10 2 14-1zm63 1-53 5 32 3h18l9 1v1l-40-1-31-4-12 18 1 1 7-8 9-8 1 1-2 6-11 15 1 1 14-17 3-2q1-4 3 0l-16 29 1 1 16-17 3 2-10 21 1 2 13-11 1 2v11h2v2h-2l-2-1v-10l-12 10-4-1v-4l7-14v-2l-10 11-6 5-1 2q8 7 22 9 26-3 42-16 15-13 17-39h2l1-3zm-108 1-2 2q-2 16 4 25l2 1-5-19 2-6zm19 2-7 9 2 2 7-10zm7 1-7 9 1 1 8-9zm8 0-10 14 1 1 12-14zm-8 6-4 5h-1l-3 4h-1l-1 5h2l8-12zm9 1-16 18 1 2 3 1 13-20zm5 8-16 17 4 5 12-20zm10 0-20 25 6 4 14-27zm-39 15 5 12 15 10h1l-7-6zm87 14q-10 9-25 11v1q18-1 26-11zm-4 12q-14 8-36 7l9 2q20 2 28-8z"/><path fill="#0c0c07" stroke="#0c0c07" d="M591.5 291q24.1 5.4 38.5 20.5l16 21-2-1q-7.3-13.7-19.5-22.5l-25-14-2 1zm-220 21 .5 1.5-13 12-26 37-5.5 17.5-.5-3.5q13.2-38.8 41.5-62.5zm116 8 4.5.5-.5 2.5-13 4q-3-1.5 0-3l4.5-1.5.5-1.5zm-90 3-5 6-26.5 24.5-9.5 14.5-.5-4.5 27.5-29.5zm284 5 7.5 5.5 4 8-2-1-6.5-8.5-1.5.5 1 4q-2 3.5-4-1zm-352 1 2.5 1.5-12.5 21.5-.5-3.5zm223 100h7l17.5 11.5 2.5 5.5 2.5.5v2l2 13-1 6h1l1.5-4.5.5 3.5-12.5 25.5-4 2-1.5-2.5 9-16 1-18q-2.7-11.2-10.5-17.5l-8-3-2 2-12 1-7.5 6.5-4 8 1.5.5q1.8-2.8 3.5 1.5l-1.5 5.5-2 1q-1.7-3.7-3.5-.5-1.2 20.2 8.5 29.5l14.5 4.5-.5 1.5-7.5.5 6 2-6.5.5-6-2-48 24-17.5 15.5-6 13v7q3.1 10.5 11.5 15.5l4 1 4.5-10.5-11-15 5-2q.9-13.1 8.5-19.5l13-5 9.5 3.5.5 1.5 8-4 17-2 4.5 3.5 16.5 27.5 18-27 1.5.5-3 7 1.5-.5 1.5-.5 3.5-5.5 2.5.5-26.5 38.5-25 2-20-1-16.5 3.5.5 2.5 1.5.5-2 4 1.5 1.5 27 1 35 4 5-6 23.5-21.5 10-12 3-13-6-20-6.5-6.5-16.5-8.5-1-3 1.5.5 6.5-.5.5-1.5 7 3 20.5 17.5q4.3 5.7 2 18l-4 9q11 30.5 13 70l-14 31 19.5 1.5h2l1.5.5-.5 1.5-3-1h-22l-2.5 1.5.5 1.5 30-1 14.5 3.5-.5 1.5-31 7-.5-1.5 19-5-8.5-.5-53 4h-2l-4.5.5q13.3 3.2 31.5 1.5l9 3 30.5 4.5-.5 1.5q-15.3.8-26-3l-3 2-20 1h-51l-2-1-5 1-3-1-43 5-25.5 5.5 6.5.5 32-1 5.5 1.5-2.5 1.5-4-1-5 1v-2l-6 1-4-1-2 1h-2l-24 1-2-1-11 1-.5-1.5 67-12-3.5-.5-50 5h-2l-41 2-1.5-2.5 40-6-37.5-4.5-23.5-.5 5-2-13-4 .5-1.5 6 1 7-2 37 4 7-1 11 1 .5-1.5-8-2 .5-1.5 3.5-1.5-6.5-.5-16 2-2-1-22 2-1-2 49-4 12-9 14.5-6.5 6-51-9-8q-4.5-4.5-3-15l3-14 4.5-5.5q26.4-23.1 62-37h2l1.5-.5-6-5q-7-7.5-5-24 1.6-22.4 15.5-32.5zm.5 2-1 2q8-1 12 3v-1q-3-5-11-4Zm18 7 1 4 5 4-2-4zm-42 36 3 14 2 1-4-14zm70 34 6 24h1q1-17-7-24Zm-62 17 6 5h1zm-8 3-9 4-11 30 1 2q8-4 24-2l3-9 1 9 9-1q7-2 9 2 4-2 1-3l2-3-14-19-10-9zm-29 1-6 6-6 17 7 15 11-2-2-2 3-20 5-10q-3-5-12-4Zm104 17-6 8 3 1-12 14 2 1-14 12 12 17h-1l-6-6h-1l6 16-2 1-13-24-8 3-3-2h-27l-2 8 3 1 1 4 2 1-2-6 2-1 17 36 10 7v2l10 4 7-1-15-5v-1l18 4 6-1h2l2-1 2-4 4-2q7-5 9-16l-1-8 1-4-2-10v-2l1-12q-4-15-4-33zm9 24 3 44 2-6zm-133 7-2 5 1 4 2-8zm5 0-2 8v2l-5 21 1 8-3 16-22 11q-5 2-1 4l19-2 17-12 2-3-1-3 7-31 1-12zm21 7-1 2v2l-2 10 2 1-7 31 1 5-3 1-2 3-15 8-3 4q18 1 30-4l3 1 5-1 3-12v-3l-2 4h-2l5-12 8-30 2 1 3-8zm27 13-1 5h2l3 6h1l-4-10zm-2 12 1 9h1zm-5 13-5 16 1 3h18l-13-18zm-5 20-1 4v1l29-2v-1l-6-2-9 1zm75 5-3 1v1h22v-2l-5 1zm-58 1 5 2h23l-4-2zm-152 2 2 2 12 2h15l-1-2zm76 3-40 2-2 2q22 3 50 2v-1l-1-1-3-3zm46 0-18 4v1h24l40-4zm47 2-44 4h-2l-12 2v1l73-5zm27 3v1l14 1v1l-38-1-22 1 1 2h58q3-4 12-2zm-126 4-39 5v1l54-4v-1l-1-1-3 1-2-1-2 1z"/><path fill="#0c0c07" stroke="#0c0c07" d="m555.5 456 3.5.5 1 4-2.5 3.5-4.5-1.5zm-12 2 2.5.5-3 12 3 2-.5 1.5-4 1-3.5-2.5zm-170 21 .5 8.5-3 15v2l1 16q-1.5 3-3 0l-1-13 1-3 1-7-1-2zm169 2 6.5 1.5-.5 2.5q-6.7 1.7-8.5-1.5zm170 28h2l1.5.5-.5 6.5h-2l-1.5-.5-1-5zm68 161 3.5 1.5 3 23-1.5.5-2.5-1.5-.5 1.5-.5-1.5 2-5q-4.8-7.1-3.5-18.5Zm1 26 .5 1.5-6.5 17.5-.5-2.5zm-541 26 1.5.5q3 15 15 21l-2.5.5-11.5-10.5-4-10zm443 10 1.5.5-18.5 5.5v-1zm-451 14 3.5 2.5 2.5 3.5 6.5 4.5-2.5.5-10.5-7.5zm387 42 1.5.5-9 24 6-4-5.5 8.5-3.5-.5z"/><path fill="#f7f7ef" stroke="#f7f7ef" d="M.5 0 1024 .5l-.5 1023.5L0 1023.5zM547 175l-5 4-5 6h-1l-5 6-2 1h-2l1-4-1-3-2-1-3 8-9-2-29 6-21 11-8 9-10 18-7 18q-2 26 11 39l-32 18q-5 2-2 4l-1 2-31 26q-25 20-39 51l1 7h2l7-11 4-3-20 57h-1l1-33 6-26-1-1-9 25 1 3h-1l-1 2 2 1v39l-8 25 2 4 2-2 3-15h1l-2 37v2l1 24 1 3-1 14-3-16-1-1-2 2-4 28v17l-5 48-18 17q-10 7-13 21l1 2 8-16 2-1 20-19q-4 15-14 25l-35 26h4l-1 3-3 2-1 2 3 1-1 5-10 8 1 2 6-2 2-1-1 22-3 4 1 2-1 8h-1l-1 2 4 3 32 10 9 5h2l-2-2v-1l17 3 29 10 32 3h2l49 7v-1l-48-9-24-1-26-6v-1l42 7-2-4q30 6 67 7l1 2-1 2q-2 14 3 22l6 11 15 17 17 9 36 9q16 0 25-8l14-17 4-3-8 13 2 2q17-20 24-50l4-1-2-1-2-3-3-3-1-2 34-5 9 1-19 5 1 2 46-12 23-3 8-3 2 1-65 18 1 2 18-3 97-29 5 1q6-5 9-14l2 6 2-3 1-11 4-3 7-10-1-1-9 8 1-10-2-8v-2l-1-5v-2l9 12h1q0-8-5-11l-2-2q-6-4-6-13v-2l4 1v-2l-12-7-1-1-1-1h-2l-8-5-32-55-6-58 1-2-2-26 1-32v11l11 87h2v-3l-10-81-2-37-2-1-3 28-5-28-2-29-5-24 1-7 11 21 2 1-6-15-20-29q-4-18-12-31l-15-23q-17-22-46-30l-1 3 8 4 3-1q15 6 27 17v2h2l2 4 4 2 8 12 15 32v2l-9-12-1-3 4 3v-1l-3-3-7-7-2-2-13-12-11-16q-18-15-42-22l8-16q1-7-2-9l-2-1 7-13-1-4-5-2-2-4 2-6 9-10 1-5-3-3-10 3-5-1 1-5 10-13-1-5-18 8-6-2 8-16-2-5-16 13h-3l5-19zM371 312l-4 3q-28 24-41 64l1 5 5-18 7-12q14-24 34-41zm36 4-27 21-20 21-5 7v4h2l7-12q19-22 43-39zm274 12-2 4v2l1 3 4 1 1-5 5 7 3 2-2-6-7-8zm-352 1-10 19v4h2l11-22zm4 84-4 9 1 2 3-7zm-16 58-3 10 1 4 3-13zm395 38-2 2 1 4 6 1v-5zm69 160-2 3 1 9 3 4-1 10q-7 10-9 27l1 2 9-29 3 1h1l-1-6 1-3-3-16zm-552 20-4 5 2 2 3-4zm11 33-2 3 5 10 11 9 4 1v-1l-4-4-12-15 1-2zm-7 24-2 3q5 7 15 9v-1l-4-3-7-7zm34 19-2 2 8 5zm353 22-12 29 2 2 4-1 5-7v-2l-5 4h-2q8-9 9-24z"/><path fill="#f7f7ef" stroke="#f7f7ef" d="m543.5 185-.5 1.5-2.5 7.5-4.5-1.5zm-36 8 13.5 1.5-1 9 3.5 1.5 3.5-2.5 5.5-6.5 2-1 5.5 2.5-2 7 1.5 2.5h4l8-5 1.5 2.5q-3.8 3.2-3 11l4.5 1.5 9-5q5.8 2.3 2.5 4.5l-5 8v4l6.5 1.5 6-2 1.5 7.5-8 11v3q2.2 4.3 10 3l-1 5-1 3-3 9-1 3-7.5 18.5-6-2-3 4-2-1q-3 1.5 0 3l7.5 4.5-4 12 3.5.5 4-6 10.5 4.5-5 2 2.5 4.5 10 4 .5-1.5-8-6 1.5.5q9.5-1.1 14 3 15.9 9.6 27.5 23.5l4 6-1.5-.5-1.5.5.5 1.5 4.5 1.5 20 38 11.5 48.5 2.5-1.5-.5-8.5-1.5.5-.5 1.5-5.5-29.5-5-15-20-38-19.5-21.5-4.5-3.5 1.5.5q17.9 8.1 30.5 21.5l8 13 18 44 13 54 2 18-1 22v2l1 2v2l-1 5v2l1 45 7 50 5 16 13 27 13.5 15.5 4 1 .5-1.5-9-8-9-14 2.5 1.5 22.5 17.5 9.5 10.5 4.5 2.5 6.5 9.5 1.5.5 2 17-9.5 10.5-23 14-4-15-1.5.5 2 16-11.5 5.5 1-3-19 8-20.5 5.5 2.5.5 19-5v1l-42 15-31 4-42 2-2-1-2 1h-2l-21 2-2-1-17 1-30.5-3.5 13.5-1.5h17l80-9h2q16.3 1.3 27.5-2.5l-.5-1.5-112 10h-2l-51 2h-2l-104-12-2 1q-19.1-.4-30.5-8.5 28.1-28.9 63.5-50.5l.5 1.5-37 36-2.5 3.5-1.5.5-7 11 3.5 1.5q26.6-24.9 59-44L370 728.5l-1 4 2.5.5 36-29 18-11-23.5 24.5-7 11 3.5.5 36-26 16-8-.5 1.5-19 34 4.5 1.5 36-22q-1.1 7.1 3 9h8l11-4q1.5 7.5 12 6l21.5-8.5-2.5-.5-18 6h-6l-4-5-6-1-9 4h-6q1.1-7.1-3-9l-10 4-28 19-.5-1.5 21-34-1.5-2.5-6 1-11 6-36 26 2.5-3.5 28-31-4.5-1.5-48 35 2-3 1.5-.5 1.5-2.5 2.5-1.5 4.5-5.5 20.5-19.5 1-3-2.5-1.5q-33.2 19.3-61 44l5.5-6.5 23.5-24.5 15.5-14.5 4-7-4.5-.5q-30.5 17-54 41l9-10 34.5-30.5 3-6-2.5-.5q-24.2 15.3-44 35l9-10 36.5-33.5 1-2-3.5-1.5-26 16 2-3 12.5-11.5 1-3-4.5-.5-21 13 5-6 12.5-11.5 1-4-3.5-.5q-16.6 6.9-29 18l5-6 10.5-8.5 1-3-2.5-.5-11 7q3.7-2.7-1.5-5.5l-.5-1.5-2.5 1.5 1 2-24.5 19.5.5-1.5 4.5-7.5 3.5-2.5 4.5-5.5.5 1.5-1 2 6-5 1.5-3.5 18.5-13.5-.5-2.5-15 9-.5-2.5 15-30-1.5-.5-8 11 .5-1.5 3-22 3-7v-7l6.5-25.5.5 12.5-1 4 1 2-1 5v2l1.5 15.5 1.5-1.5 1-30v-22l5-27v-10l-3-2-.5-13.5-1.5.5-1 2 1 2-1 2 1 2-2 23v12l-3.5 16.5-2.5-11.5v-2l1-2-2-4 1-3-1-2 6-37 10-41 9-49 21-39 25.5-27.5q18.1-16.9 42-28l-6.5 7.5-17.5 27.5q-14.3 6.2-23.5 17.5-14.8 15.2-22 38l-1 3-9 33v9l1.5 2.5 2.5-1.5 21-52 30.5-37.5 13.5-10.5-.5-1.5-2-1-2 1-5.5-1.5q9.1-17.9 22.5-31.5l2.5-1.5.5-1.5 5 6 3.5-2.5-2-4 1.5-.5 3 1 3.5-2.5-5-2 6.5-3.5 24-4 20 3 10-7 3 1 3.5-2.5-.5-2.5-2.5-.5 10-14 2-13-6-23-8.5-12.5q-3.7-3.3-12-2l-23 5-14.5 11.5-3 7-2 15 4 21-17.5 3.5q-8.3-12.7-6.5-35.5l4-20 16.5-19.5 9-3 2 1 .5-2.5-3-1 8.5-4.5 21-2 2 1 .5-1.5q-2.9-3.6-10.5-2.5zM490 319l-7 2-1 2-5 2 1 2 13-3 2-3zm109 9v9l-4 4 2 1 2-1 2 1 3-1-4-2 2-3-1-1-2-2 1-2 2-1v-1zm9 11-1 2 7 2h2zm-53 89-14 7-10 13-5 21v10l6 13h2l3 4-2-1q-37 15-64 39l-4 5-3 18 4 12 9 7-7 47 1 2-1 3-14 5-12 9-21 2-2-1-24 2-2 3-16 1-1 2 12 4h-3q-3 2 0 3l15-1 36 5-29 4q-5 2-1 4h27l43-5 15 1-55 10 1 2 23-2 39 1v-1l-1-2-13-1h-2l-13 1h-12l48-8 39-1h2l2 1 6-1h2l3 1 3-1 7 1 37-3 27 3 1-2-1-2-16-1-21-4v-1l10 1v-1l-31-1 42-4 9 1-18 4 1 1h8l27-7v-1l-16-4-2-2-1-2-21-1 14-31q-3-38-13-68l4-12-1-2 1-3-3-12-19-17-9-3-1 2-3-1h-3l6-9 7-19-1-2h-1l-1-11-2-3 1-2-3-2-2-4-15-11zm-182 51-3 8-3 27 2 8q2 3 3 0l-1-6 3-29v-2l1-5zm291 217-3 4 2 3 3-4-1-2zm-91.5-489 1.5.5-4.5 5.5-1.5-.5-1-2zm-103 1-2 3-3.5 2.5-6.5 8.5-.5-1.5 5.5-8.5z"/><path fill="#f7f7ef" stroke="#f7f7ef" d="M519.5 225q11.1-1.6 13.5 5.5l1 4-4.5-3.5zm63 0 1.5.5-5.5 6.5-2.5-4.5zm-75 9h13l9.5 5.5 9 16v8q-3.2 13.8-12.5 21.5l-14 2-8.5-1.5 18-3-1.5-1.5h-11l-8 2-1-2 3.5-.5-8-4q-3.7-7.2-2-20 3.3-14.7 13.5-22.5Zm-60 2 .5 2.5q-5 13.5-3 34l2 8h-1q-6.3-9.7-5-27l1-2v-2zm45 9-.5 1.5-3.5 16.5-.5-8.5zm-44 18 4.5 24.5h-1l-4-16zm126 8 3.5 1.5-3.5 5.5-.5-1.5 1-4zm-95 12 4.5 2.5 1 2-17.5 7.5-3.5-7.5zm-31 11 2.5.5-9.5 4.5 1-2zm3 3 1 2-29 12 3-4zm120 2q22.6 6.9 37.5 21.5l-2.5-1.5q-15.6-11.4-35.5-18.5zm22 3q18.2 7.3 29.5 21.5l2 3-8.5-7.5zm-158 12-1 2q-21.6 12.9-37.5 31.5l-1.5 2.5.5-1.5 2-5-1.5-.5-28 42-.5-1.5 19-32 15.5-16.5zm-2 31 3.5.5-11 9-28 37-19.5 47.5.5-1.5 10-42q9.1-21.9 24.5-37.5l16-12v2zm-52 4-1.5 2.5-11.5 17.5-.5-1.5q4.6-11.4 13.5-18.5Zm263 9q16.4 27.6 26.5 61.5l6 40h-1l-.5-3.5-1.5-.5-11-49zm-280 8-.5 1.5-3 8-11.5 13.5.5-1.5q5.1-12.9 14.5-21.5Zm293 3 9.5 22.5h-1z"/><path fill="#f7f7ef" stroke="#f7f7ef" d="m373.5 382-.5 1.5-4.5 8.5.5-1.5q.1-6.4 4.5-8.5Zm294 0 6.5 8.5v11l5 28h-1l-7-29v-7zm-302 8 .5 1.5-2 11-8.5 18.5-.5-1.5q2.5-17.5 10.5-29.5Zm-4 24 .5 2.5-18.5 86.5-.5-5.5 2.5-19.5 1.5.5-1-14 4-21zm-17 24-.5 1.5-5.5 35.5-1.5-.5 3-24zm215 0q9 1 12.5 7.5 6.2 7.8 6 22-2.6 15.4-11 25l3.5 2.5 2-1 2 4q12.3 3.7 20.5 11.5l8 25-2 3 1 2-21.5 26.5-18.5 15.5-.5 1.5-2 1-38-5-2 1-20.5-2.5 2-4-1.5-2.5-1.5.5 21.5-4.5 2 1 11-1 4 2 4-2 3 1 11-2 4 1 22.5-29.5 5-11-2.5-.5-5 7 .5-1.5 2-5-2.5-1.5-18 27-19-30-9-1-12 3-5 4q-4.2-6.2-16-5l-12.5 9.5-4.5 14.5-4.5.5v3l10 13v4l-2.5 6.5h-4l-9.5-9.5q-3.4-5.1-2-15 4.8-13.2 15.5-20.5l8-6 48-24q3.2 3.8 11 3l1-2-1.5-.5 4-2-.5-1.5q-11.9-.6-17.5-7.5-6.6-8.9-5-26l1.5.5 4.5-2.5 1-4-5-3 9.5-12.5 12-1zm-2.5 17-2 1-2 8 5 1 2-7zm-13 2-7 16q2 4 9 2v-3l-3-1 3-13zm-1 23-3 3 2 3 8-1v-2zm132.5-7q5 13.5 3.5 33.5l-2 1v31l8 47 2 25h-1l-6-23-5-51v-2zm9 18 1.5.5 4 30v2l1 28h-1l-4-24v-2zm-85 19q6.5 5 5.5 17.5h-1z"/><path fill="#f7f7ef" stroke="#f7f7ef" d="m679.5 514 2.5 32.5h-1zm-177 15 8.5 3.5-5 12-2.5 20.5-9 2 .5-1.5v-3l-6-8v-4l2-8 6.5-11.5zm24 0 9 1 12.5 11.5 11 15-3.5 4.5 1.5.5-1.5.5-6-2-11 1-2-9q-4.3 2.7-4 10l-22 1-.5-4.5 10.5-26.5zm-185 11 2.5 23.5-5.5 19.5-.5-5.5 1-3zm-12 5 .5 22.5-5.5 35.5-.5-7.5 3-41zm274 1 4.5 32.5-1 11 2 15-1 2 1 11-7.5 13.5-5.5 3.5-2.5 3.5-11 1-16-4-3 2-5.5-4.5-8-12-12.5-27.5-2.5 1.5 1 2h-1l-.5-1.5-1.5-.5 1.5-7.5 24 1 3 1 9-3 13 24 2 1 2.5-1.5-5-13 4.5 3.5 2.5-1.5-12-17 13-11-1-2 7.5-8.5 3.5-2.5-1-6zm85 21 3.5 21.5h-1l-1-3v-2zm-355 4 .5 9.5-2 1zm151 7 13.5 6.5-9 43 1 2-2.5 3.5-15 11-14 1-2-1-4.5 1.5q9.2-9.8 25-13l-1-3 4-14-2-3z"/><path fill="#f7f7ef" stroke="#f7f7ef" d="m505.5 584 24.5 3.5-2.5 6.5-2-1-12.5 43.5 1.5.5 1-2 .5 1.5-2.5 9.5-5 1-5-1-5 3-23 2 1-2 23.5-14.5-1-7 7-28-2-5zm109 8 1.5.5 2 10-1.5 7.5-1.5-2.5 1-4zm76 6 7.5 30.5 4.5 5.5 4.5 3.5 1 2-1.5-.5-11.5-9.5z"/><path fill="#f7f7ef" stroke="#f7f7ef" d="m702.5 611 18.5 33.5-2-1-.5-1.5-2.5-1.5q-12.5-10.3-13.5-29.5Zm-372 8 .5 2.5-4.5 11.5-.5-1.5zm195 4 1.5.5 12 16-17.5.5-.5-1.5zm41 15 13.5 3.5-3.5 1.5zm-241 2 .5 2.5-7.5 9.5-.5-1.5zm196 2 7 1h2l15.5.5-11.5 2.5-3-1-6 2h-4l-1.5-.5zm83 2 23.5.5-15.5 1.5-8-1zm-164 1 1.5.5-4 2 1.5 2.5 4.5.5-22.5.5-21.5-2.5zm113 4 10.5.5-10.5.5zm-164 2 20 1 2.5 1.5-11.5.5-11-2zm-31 2-8 9-3-1-2.5 1.5 1 3-58.5 49.5-.5-1.5 30.5-32.5q18.1-16.4 41-28Zm105 0 2.5.5 2 4-4.5 1.5-25-2-2 1-14.5-1.5 12.5-1.5h2l21-1h2zm46 0 17 1 6-1 3 1 1.5-.5-.5 1.5-8 1-2-1-8 2-28 1v-1zm44 3 12.5.5-13.5 1.5zm-221 1-3 4-44 40-.5-1.5 2-1 8.5-9.5 25-24zm207 0 11.5.5-11.5.5zm6 4 19.5.5-11.5 1.5-8-1zm-213 1-3.5 4.5-2.5 3.5-31.5 29.5-10.5 13.5-.5-2.5 16.5-19.5zm32 0 1.5.5-64.5 55.5-.5-1.5 31.5-32.5zm86 1 15.5.5-23.5 1.5v-1zm291 0 4.5 3.5 1 3-5-4zm-364 2-9 10-58 53-7.5-3.5q31.9-35.1 74.5-59.5Zm54 0 9.5.5-16.5 1.5v-1zm-127 4 .5 1.5-6.5 8.5-4 2 .5-1.5zm-3 10-14 15-6 5 .5-1.5 2.5-5.5zm74 1-1 2-54 49-2.5-1.5q25.7-27.8 57.5-49.5Zm-48 5-6 7-14.5 13.5-12.5 14.5-5.5-2.5 1.5-2.5zm420 15 2.5 11.5q-1 9-7.5 12.5l-2 1-3-1-11 5-1-3-9 2-1.5-3.5 27-18zm-459 1-2.5 3.5-2.5 3.5-1.5-.5.5-2.5zm-4 18 7.5 3.5.5 4.5 4-2-2.5 3.5-1 2 2.5 1.5 7-5 7.5 3.5-3.5 6.5-16-4-3.5-3.5zm426 7 2.5.5 1 2-5.5 3.5-50 16-13 2v-1q35.2-8.8 65-23Zm34 0-.5 1.5-4.5 6.5-17 5v-1zm-474 1 2 6 2.5-.5.5-3.5 2.5 1.5 2.5 5.5 5.5 2.5 1 2-3.5.5-13.5-6.5zm44 5 19.5 7.5-2 1 2.5 1.5 4-1 13.5 4.5-4.5.5-38.5-8.5.5-1.5zm43 11 69.5 7.5-42.5 1.5q-16.3-2.8-27-9Zm-52 2 8.5 3.5-1.5-.5q-6.8.5-7-3Zm106 9 34 1 12-1 3 1 11 1h2l26.5 2.5-33.5.5-5-2-2 2h-21l-27-4zm158 10h2l1.5.5-.5 2.5-2.5.5-.5 4.5-23-1h-2l-32.5-2.5zm-99 4 1.5.5-6.5 8.5-.5-1.5zm15 1 2.5.5-9.5 10.5 1.5-2.5zm10 0 16 3h2l37 3 4-1 3 1 12-1-.5 1.5q-2.5 22.5-17.5 32.5-11.6 9.4-30 12l-1-5-1.5-.5q1.7-8.2-1.5-11.5h-3l-10 10-.5-2.5 7-13 2-9-2.5-.5-9.5 8.5-6.5 8.5-.5-1.5 16-28-3.5-1.5-16 18 .5-1.5 11-18-2.5-1.5-7.5 6.5-6.5 7.5 1.5-2.5zm-20 8-2.5 3.5-3.5 6.5-1.5-2.5zm10 0-1.5 2.5-10.5 16.5-1.5-4.5 2-1z"/><path fill="#f7f7ef" stroke="#f7f7ef" d="m490.5 785-2.5 3.5-8.5 15.5-2.5-4.5zm10 0-1.5 2.5-12.5 23.5-3.5-2.5zm6 11-.5 1.5-7 16 2.5 4.5q9-2.5 13-10-1.6 8.6 3 11l2.5.5-.5 1.5-6 2q-14.1-2.4-23.5-9.5l5-4zm-43 4 12 14 6.5 4.5-1.5-.5-13.5-10.5zm79 17-1 2-9 3v-1zm2 8-1 2-14 6h-9l-8.5-2.5q20.5 1.5 32.5-5.5Z"/><path fill="#868569" stroke="#868569" d="m543.5 184 .5 2.5-.5 1.5-1-2-7.5 6.5zm11 6-5 6zm-40 1 2.5.5-12.5 2.5v-1zm-52 16-5 6zm13 3-7 8zm54 21q2.8 5.4 5.5 3.5l1 3zm-43 6 1.5.5-4.5 7.5-.5-2.5zm-39 18 1.5 7.5-1.5 4.5zm39 26 5.5 4.5-.5 1.5-1.5-.5q2.7-1.8-1.5-3.5l-1.5.5.5-1.5zm-45 16 3.5 2.5-1.5.5q-1.8-3.7-3.5-.5l.5 1.5-1.5-2.5zm-17 11q-3.2 2 0 4l1.5-.5-.5-1.5 2.5 1.5-8.5 5.5-1-2 1.5.5.5-1.5 3.5-1.5-2-1zm152 0 2.5 1.5-2 1 2.5.5 1.5-.5q-2 3.5-9.5 1.5v-1l4.5-1.5zm54 4 7 8z"/><path fill="#868569" stroke="#868569" d="M573.5 313h2l6.5.5-7.5 1.5zm41 1 6 7zm-248 1-9 10zm-2 5-5 6zm35 1 .5 1.5-6 5 3.5-5.5zm-4 8-8 9zm211 0 6 7zm-193 2-7 8zm270 1 5.5 4.5-6-3zm-37 3 2.5 1.5.5 3.5 1.5-.5-1.5 3.5-2.5-5.5.5-1.5zm-267 2-14 15zm19 1-6 7zm-18 1-14 15zm26 2-7 8zm237 2 5.5 6.5-6-5zm-208 1 3.5.5-5 4 2.5-3.5zm-54 4 1.5.5-2 1-.5 2.5-4.5 1.5zm267 3 2 1q1.7-2.8 3.5 1.5-2.5 3.6-5 0l.5-1.5zm-233 1-7 8zm-41 20-.5 1.5.5 1.5 4-3 .5 1.5-8 3zm41 0-5 6zm-42 9 1.5.5-2 1 .5 1.5-3.5-.5-1 2 .5 1.5-2.5-1.5.5-1.5 1.5.5-1-2q2.8 2.4 5.5-1.5Zm-37 17 1.5 2.5-1.5 4.5-1-4 1.5-.5zm-2 8 2.5.5-2 5 1 5h-1l-2-6 2-1zm206 29-5 6zm9 0 3 1 2-1 2.5 1.5-5.5.5-2-1-3 2v-1zm24 1 5.5 7.5h-1zm-3 2 4.5 3.5-.5 2.5-3-5zm-27 3-5 6zm35 7 1.5.5 2 7h-1zm-45 13 1 2-1.5-.5-.5 11.5-.5-11.5zm-7 7 .5 10.5h-1zm146 4 .5 21.5h-1zm19 2 1.5.5-1.5 32.5zm-124 18 3 2 3-2 1 2h-2l-3 1zm117 1 .5 10.5h-1zm-95 2 7.5 6.5-1.5-.5zm90 1 .5 11.5-.5 2.5-1.5-.5zm-329 6 .5 12.5h-1zm251 2 7 8zm-94 8 1.5.5-9.5 5.5 1-2zm185 0 .5 10.5h-1zm-358 1 .5 13.5h-1zm198 8q8-1.5 10.5 2.5l-1.5-.5-9-1zm-51 4-1 2-7 6 6-7zm2 5-8 9zm190 10 .5 11.5h-1zm2 1 .5 10.5h-1zm-345 7 .5 12.5h-1zm20 3 .5 14.5h-1zm186 1 2 9 7.5.5-8.5.5-1-9-2 3-.5-1.5zm53 4-7 8zm-33 3 1 2-2.5.5.5 1.5-6.5-2.5 4.5-.5zm-84 6 8 9zm107 1-7 8zm-111 2 5 6zm30 2 2.5 4.5-2 3 7 1-6.5.5-.5-2.5 1-3-2-1zm87 4-4 5-3.5 2.5 1 2-2-1 3.5-4.5zm-106 3 1.5.5-2.5 8.5-.5-4.5zm129 0 .5 2.5-1.5 10.5-.5-10.5zm-259 10 .5 10.5-2 1zm186 0 23.5.5-23.5.5zm157 1 .5 2.5v2l1 4-2-1-1-6zm-360 4 .5 1.5-1.5 8.5-1.5-.5zm249 0 6 7 1.5-.5-2-3 3 2-1.5 2.5-5-4-1.5.5zm-45 1 2.5 1.5-1.5-.5-4 2-1-2 2 1zm-4 4 1.5.5 2 6-.5 1.5 1.5.5-.5 1.5 1.5.5-1.5.5-3-6-1.5-.5 2-1-2-1zm-214 25 .5 4.5-.5 1.5-1-2-8.5 6.5.5 1.5-1.5-1.5zm174 1 .5 1.5-3.5 6.5.5-1.5-1-5h1l.5 2.5zm6 6 1.5 5.5-5.5 3.5 1-2 3.5-1.5zm201 1 6.5 5.5-2.5-1.5zm-150 1 6.5 5.5-1.5.5-2-3-1.5.5.5-1.5zm17 4 5.5 1.5-2.5.5-3-1v1l1.5.5-2 1 2 1-1.5.5-2.5-3.5zm-260 1-8 9zm302 0-.5 1.5-1 2 7 1-7.5.5-.5-1.5zm-70 2 1.5 2.5-18.5.5v-1l17.5-.5zm-238 1-5 6zm303 4 20.5.5-20 1 8 1-10.5.5-.5-1.5h2zm36 3 7.5 2.5-.5 1.5-1-2q-5.7.8-6-2Zm-244 1 3 1 16-1v1l-22 1v-1zm200 0 14 1 5-1 .5 1.5-6.5.5h-2l-7-1-7 1v-1zm-58 1 24.5.5-19.5 1.5zm-205 1 3.5 4.5-2.5-1.5-2 1-1.5-2.5h2zm112 1 2.5.5-.5 1.5-10.5-.5zm-120 3-5.5 6.5.5 1.5 1.5-.5-5 4 2.5-3.5-1.5-.5 2.5-3.5 1.5-.5-1-2 1.5-.5zm38 0-11 12zm175 0 9 1 2-1-1 2-8-1q-2.6 3.4-10 2v-1l7.5-.5zm39 0 10.5.5-9 1 31 1-.5 1.5-10-1h-2l-23.5-.5 4-1zm-219 2-6 7zm29 0 1.5.5-2 1 15 1-14.5.5q-3-1.5 0-3Zm80 0 3.5 2.5-.5 1.5-5.5-.5 4-1zm78 1 17.5 1.5-8.5.5-3-1q-7 1.5-6-1Zm-42 1 11.5.5-11.5.5z"/><path fill="#868569" stroke="#868569" d="m533.5 657 14.5 1.5-13.5.5h-2l-1.5-.5zm190 0 4 4 1-1 4.5 3.5-2 1 1.5 2.5zm-278 1 17.5.5-17.5.5zm62 1 2 1 3-1 1 2-17 1v-1zm90 0 4.5.5-7.5 3.5h-39v-1l20-1 10 1 10-1zm-269 2-10 11zm207 0 17.5 1.5-16.5.5-2.5-.5zm-190 1 1.5 3.5-8 7 7-8zm287 0 4.5 1.5-1.5 2.5-6.5-.5 7-1-.5-1.5zm-300 1 2.5 1.5-4 2-.5 1.5-2 1 .5-1.5-.5-1.5-2.5 1.5zm51 0-7 8zm52 1 15.5 1.5-9.5.5-6-1zm50 0 10.5 1.5-2.5.5-8-1zm-123 1-6 7zm59 1 7.5 1.5-5.5.5h-2l-5.5-.5zm-58 1-3 6-2.5-.5zm-41 3q.9 4.5-6 9-.9-4.5 6-9Zm-21 1-6 7zm10 2-15 16zm163 0 10.5.5-10.5.5zm-107 2-5 6zm2 1-10 11zm-66 1 1.5.5-16 15 9.5-11.5q1.8 2.7 3.5-1.5zm34 2-4 5v-2l-1.5-.5 2.5-1.5zm7 2-5 6zm-15 2 1.5.5-4 4 1 1-12.5 12.5 11.5-12.5-1.5-1.5-1.5.5 4-2zm46 0-5 6zm17 2-14 15zm-37 1-6 7zm-45 1-11 12zm45 2-4 7-3.5.5z"/><path fill="#868569" stroke="#868569" d="m320.5 690 .5 2.5-13.5 13.5 12.5-13.5zm-18 2-7 8zm104 0-18 19zm-113 1-3 5 2-1-3 6-.5-2.5-1-2zm454 0 .5 3.5-5 4zm-461 1-6 7-.5-1.5 2-1-1-3h1l.5 2.5zm77 0-5 6zm64 1-20 21zm-95 1-6 7zm11 1-14 15zm78 1-19 20zm-47 1-20 21zm-29 1-3 4q-2.3-3.3-4.5 2.5l-5.5 6.5-1.5.5-.5 1.5-1.5.5-.5 1.5-7 6 20-21q2 3 4-2Zm7 1-7 8zm1 2-5 8q-2.3-4 5-8Zm44 1-6 7zm-75 1-9 10zm433 0 1 6 5.5-4.5-5.5 5.5-1.5-1.5zm-414 1-8 9zm29 0-12 13zm-25 6-5 6zm-18 14-5 6-1.5-.5zm-28 1-4 5-2.5-1.5 1.5.5zm388 3q3 1.5 0 3l-4 2-1.5-2.5 1.5.5 1.5-.5-.5-1.5 3 1zm-21 6 4.5 1.5-2.5.5-2-1-3 2-2.5-.5zm-314 6 3 1 7-1v1l-8 1zm292 6 3.5.5-3 1 .5 1.5h-2l-3.5-.5zm-217 2 9.5 1.5-14.5.5v-1zm48 1 27.5.5-27.5.5zm-67 2 14.5.5-12.5 1.5zm78 0 16.5.5-13.5 1.5zm-25 4 2.5.5q-3.2 3.8-11.5 2.5v-1q7.3 1.8 9-2Zm4 1 34 1 5-1 6.5 1.5-44.5.5zm31 5 13.5.5q-4.2 3.8-14.5 1.5zm84 0 1 3 3.5 2.5-3.5-.5-1.5-.5zm-7 1 .5 2.5-3 1-1.5 6.5-2-1h-2l-7.5-.5 12-1 1.5-5.5 1.5.5zm-307 1 6 7-2.5-1.5-1.5-2.5-1.5.5-.5-2.5-1.5.5zm276 0 10.5.5-10.5.5zm-30 2 13.5.5-18.5 1.5v-1zm-27 1 3.5.5-5.5 6.5 4-6-3 1zm-10 3 1.5 1.5-5.5 5.5-.5-1.5 5-4zm24 0 2.5 1.5-2.5 5.5.5-1.5 1-4-1.5-.5-1.5.5zm30 2 11.5.5-11.5.5zm-50 4 1.5 1.5-5.5 5.5.5-1.5 1.5-2.5 1.5-.5zm23 1-5 6zm-12 2-9 10 1.5-2.5 1.5-2.5 1.5-.5.5-2.5q2 3 4-2Zm4 0-2.5 3.5-.5 1.5-2.5 1.5-.5 2.5-1-1-4.5 3.5zm8 2-.5 1.5-.5 1.5-1.5.5v2l-1.5 2.5.5-1.5-.5-1.5-1.5.5zm6 7-7 8zm-18 1 1.5 1.5-4.5 4.5.5-1.5 1.5-2.5 1.5-.5zm-9 4-4.5 5.5-.5 1.5-.5-1.5zm23 4 1 2-1-1-7.5 6.5zm-49 1 7.5 8.5-7-6zm105 0-7 8zm-46 4 1.5.5-7.5 6.5zm4 2 1 10 1.5.5.5 4.5 1.5.5-2.5.5-1-2-4.5-2.5-.5-8.5-8.5 7.5 9.5-8.5.5 9.5 1.5 1.5 2.5-.5-.5-1.5-1.5-.5zm50 0-.5 1.5-.5 1.5-1.5.5.5 1.5-2.5-.5zm-98 3 6 8 1.5-.5-.5-1.5q4.5 2 1 4l-4.5-3.5 1-1zm85 1 1.5.5-5.5 4.5-3 1-3 2-1.5-.5-.5 1.5-.5-1.5 3-1 .5-1.5 4-2 3-1 1.5-.5zm10 9-5 6-1.5-2.5 2-1-1 2zm-18 5 1.5.5-7.5 5.5v-2l-1.5-.5 1.5-.5 2 1v-2l1.5.5.5-1.5z"/></svg>