<svg xmlns="http://www.w3.org/2000/svg" viewBox="0 0 1024 1024"><path fill="#11110e" stroke="#11110e" d="M556.5 128h6l4 3 18 5 7.5 6.5 12.5 23.5 5.5 2.5-2.5.5-2.5-1.5 7 15 7 25v18l5 24 5 41q-2.8 40.7-26.5 60.5l-15.5 7.5-9.5 11.5-2.5 1.5-.5 1.5q-9.4 7.6-24 10l1-2q15.5-3 24.5-12.5l.5-1.5 1.5-.5 7-8-2.5-.5-6 1-15 8-3.5-1.5 3-1-.5-1.5-33.5 5.5.5 1.5 3 1 9-2-1 2-2.5.5 1 3-5.5 1.5-2-3-12-1-7 3h-2l-7-5-2 1-5-1-1 3-5-2-8 4-1.5-2.5 16-6-4.5-.5-9 1-3.5 3.5-4 6 1.5.5 3-1-2 3q-5.7-.7-6.5 3.5l-3 13 2 1-2 1 1 2-1 7 2.5 4.5 2-1 1 2 1.5-.5-1-5 2-1-2-3 2-1 1 5-1.5 2.5 1.5.5q-3.2 2.3-2 9l2 5-1.5.5-1-5-1.5-.5-.5-2.5-1.5.5 2.5 8.5 3 1 1.5-.5 2 6-2 4 1.5.5 1-2 .5 4.5-1 2 2.5 3.5 1.5.5-.5 1.5-1.5-.5 1.5 3.5 1.5-.5.5 1.5 1.5-.5-.5 1.5 2.5 1.5-1 2h2l-3 4q15.5 38.5 35.5 72.5l.5-2.5-2-5h1q7.7 23.3 22 40l-3-2-3.5-5.5-1.5.5-3.5-5.5-.5 1.5 4.5 6.5 1.5-.5v2q6.2 13.8 16.5 23.5l15 7h4l4.5-3.5 6.5-8.5 4 1 5-10 .5 2.5-1 2 1.5.5 17.5-14.5q-1-7.5 4.5-8.5l19-14 13-4 6.5 1.5-.5 1.5-9-1-17 10-1.5-.5-2.5 3.5-1.5-.5-2.5 3.5-6.5 5.5 1.5.5 33-11 26 11 22 18 13.5 7.5 3 5h-1l-5.5-6.5-2-1-.5 1.5 4.5 6.5 7.5 6.5-.5 1.5 2.5 1.5v2l13.5 33.5.5-4.5q-1.7-16.3-11-25l3.5 2.5 2.5 1.5 1 3 1.5 3.5.5-1.5-.5-1.5q4.8 11.3 4.5 27.5l7 16-1 2 3 9q-5.4 6.6-4 20l1 5-4.5 6.5-7.5 4.5-9 10 1.5.5 8.5-6.5 2.5-3.5 7.5-6.5 9.5-15.5 1.5.5-12.5 19.5-1.5.5-.5 1.5-9.5 6.5-2.5 3.5-14.5 11.5-.5 1.5-2.5.5-.5 1.5-1.5.5-.5 1.5-5.5 2.5-1.5 2.5-.5-2.5 12-9 .5-1.5 5.5-4.5-1.5-.5-20.5 13.5v4l15.5 23.5h2l3.5 1.5-4 10h2l-.5 1.5-2.5.5 16 20q4.7 4.8 3 16l-3 7 1 3-1 2h2l.5 3.5 3.5.5-.5 1.5-1.5.5 1 15-1 2 1 4-5.5 15.5-2.5.5 1 2-14.5 5.5-2-1-7.5 2.5q-3.5 15.5-15 23 .5 14-7.5 19.5l-1.5-.5-2.5 3.5-1.5.5-.5 1.5-8 2-2-1-1 2-7.5-2.5.5-1.5 2 1h2q17.6-.4 23.5-12.5l3-10-1.5.5q-8.3 8.2-24 9l-16-5-5 6-8.5 5.5.5 1.5 14.5 3.5-4.5 1.5-3-1-1.5.5-.5-1.5-2 1-1-2-4-2h-2l-14 1-10.5-5.5-4.5-7.5-16 1-15.5-8.5-8.5-12.5-13 2-8-2-9-7-13-5-10 1-13.5-9.5-2.5-3.5-10 1-17-9-6 7-9.5 4.5-5.5 7.5q-9.6 1.6-13.5-2.5l.5-1.5 1 2 2-1 3 1 4 1 5.5-3.5 2-4q-11-.5-17.5-5.5l-3.5 8.5 1.5 2.5-3.5.5-4.5 6.5-12 3q-9.9-1.1-15-7l-7.5 15.5 3-1-3.5 5.5-2.5-.5-1-3 3-8-2 1-3.5 7.5-.5-1.5 1-3 9-16-2.5-1.5-11.5 10.5-15.5 30.5-2.5-.5-1-2 11-22 8.5-11.5 10.5-8.5-1-3 2.5-1.5 1 3 19.5-14.5.5-3.5 1.5.5.5 1.5 8.5-4.5q-3.5-4-2-13l2.5-4.5 3-1q6.9 5.1 9 15l8-2 2 1 6.5-1.5.5-1.5q1.3 3.3 7 2l-.5-1.5-2-13 3.5-6.5 3-1 6.5 5.5 4 15-1 3 15.5 6.5q-2.3-19.8 7-28l5-2 8.5 5.5q4 5 3 15-1.6 11.9-7.5 19.5l-1.5.5 3.5 1.5v-2l8 5-.5-1.5q-3.5-6.5-2-18l3.5-6.5 6.5-5.5-1-2 1.5-3.5 1 4 5.5-1.5.5-1.5 23-6q11.3 1.2 15.5 9.5l5 8-2 5 1 2-2-1 1-7-4.5-6.5-10-7h-10L512 827.5l-1.5 8.5-.5-2.5 1-4-1.5-.5q-7.2 4.8-6.5 17.5l5.5 12.5 8 4 .5-4.5q-3.6-6.9-2-19l7.5-12.5 7-2 7.5 4.5 1 11-15 25 4.5 6.5 4.5 2.5-2 1 11.5 4.5q3.1-3.4 10.5-2.5l-8-14v-7l12.5-13.5 3 1q3.2-4.3 11-4l1 2-4-1-.5 1.5 7 4-1 4 1.5 2.5.5-3.5-.5-1.5 1.5.5 1 11-8.5 14.5-5.5 3.5 15 8-2.5.5-17-6 .5 1.5 7.5 11.5q6.7 7.8 23 6l2.5-1.5-2-5 1-3-1-14q.1-10.9 6.5-15.5l7-3q8.1.4 10.5 6.5l2 11q-2.9 16.1-14.5 23.5l-3.5 1.5v3l6.5 7.5q4.4 3.1 13 2l1.5-2.5-2-1 1.5-.5q2 5 4 2 9-2.5 13.5-9.5l-13-11q-7.5-10.5-6-30l6.5-10.5 4-2h7l8.5 7.5q4.9 6.6 5 18l-1 12-5 12q6.2 6.3 20.5 4.5 12.1-2.4 18.5-10.5l2-17q-19.4-.1-26-13-6.1-5.9-6-18l7.5-11.5q5.2-5.8 16.5-5.5-3.8-2.5-1-5l-5-9 6.5-8.5q5.5-5 17-4 14.3 3.3 21.5 13.5l.5 1.5 1.5-.5q1-22.5-10.5-32.5l-9-5-5 4-3.5-2.5-2.5-3.5-7.5-4.5-4.5-5.5-16-13-4-1-17.5 6.5.5 1.5 9.5 1.5q-3.3 3.2-11.5 1.5l-10-1-3 1-2.5.5-.5 1.5-7 3-.5-1.5 5-3-10.5-.5-9 2-20-7h-2l-3 1-3-2-10-1 10 11 14 9 3-1-.5 1.5.5 1.5 10.5 6.5-1.5-.5-16-6-11 2-.5-1.5 11-2q-14.6-7.9-24.5-20.5-14.5-1-22.5-8.5l.5-1.5 16 5v-1l-6.5-5.5-3.5-4.5-11.5-9.5-.5-1.5-17.5-16.5-11.5-15.5-1.5-.5q-17.2-33.8-44.5-57.5L435 622.5l-18-22-16-32-8-18-19-61-28-54q-6.7-14.3-9-33l-3-5 1-2h-2l-2-4 2 1 .5 1.5 1.5-.5-4-17-1-23q-4.2-1.2-3-8 4.9-3.1 3-13l-5-1q8-8.5 5-28l-2-7 3-23 4.5-15.5 1.5.5 1 2-4 5-2 23 1.5.5 1.5-.5-1.5 2.5-1.5-.5-1 3 1 2-1 2v2l1 7v2l.5 4.5 3-7 1.5-.5 11-25-3 2-.5 1.5-1.5.5-.5 1.5-3.5 2.5-.5 1.5-.5-1.5 1.5-4.5 1.5-.5.5-1.5 11.5-10.5 4.5-6.5 4.5-3.5 5-6v-6l-1.5-.5-6 8-1.5-.5 8-9v-4l-4-16 1-9 8-15 5.5-16.5 28-16 11-2 25 11 1.5-3.5-1-2 21-15-2.5-.5-21 13q-3.5-2 1-4l12.5-6.5-1-2 1.5-.5 2 1 35-19h2l5-3v2q15-.5 25-6h2q7 1.5 8.5-2.5l-.5-1.5 2.5.5-1.5 2.5 5-2 6 1 10-3 .5 1.5-4 1 .5 1.5 17 4 16.5 15.5 13.5 17.5 2 1 1-2-3.5-2.5-1-3 3-1-.5-1.5-2 1-4.5-5.5v-3l3 1-9.5-15.5-30.5-9.5zM540 139l-1 2h10l2 4 8-1 2 1v-1q-7-7-21-5Zm-6 2-8 3-2 3 10-3 1-2zm3 1 1 2-4 3 8 1-11 3-12 7q-12 9-16 26l-7 42 2 13 1-3 2 1-3 4 2 1-2 4 2 5v-1h1l-1 6h2l-2 3 1 5h2v-1h1l-1 2 1 2 1-2 2-1-4 7 1 6h2v-1h1l-1 2 1 10h2l4-7-2-12h-2l1-9v-2l-1-4 1-2-1-8v-7l-4 7-2 1 4-8 2-1-1-1 1-2-1-4 2-6-1-9 1-2v-2q4-18 12-30 6-10 19-13v-4h2v-3l2-1v-2l1-5 3-1 2 1h-1l-7 13 1 1 7-4-1-1 2-1v2l5 1 4-7 2 1-4 6 10 4 1-3 2-1v-1h1l-1 5-2 1h4v4h2l3 7 4 1 1-2 2 2-2 3 11 23 3 14v13l2 13v2l2 4-1 2h2l-1 2 1 2-1 3 1 2v2l-1 2v2l-2 4 1 3-3 2v-1l-1-3 3 1v-1l-3-2 2-6v-2l1-2v-10l-2 1-1-1v-9l-2-8-1 3-1 2 2 9h-1l-2 3-4-12-2 1 1 5v24q-4 5-2 17l1 2 4-3 1 1-4 13-11 15 1 1 6-4 1-2 4 1h-3v2l-2 3-7 6-1 2-9 2-9 22 1 2 13-6 5-10h1l-2 6 1 1 7-4 7-9-1-3 2-7 1 6 10-19 5-25-1-1-1 2h-1l4-10 1-16-3-23v-2l-1-16-9-30-13-22-7-4-1-2 4 1 1 1-1-3-16-10-12 2h-8l4-1v-1zm-16 5-3 4 2-1 3 1h-2l-2 3 1 1 4-3 1-3zm-14 1-20 7q-16 16-19 46l-6 5 5 12h-1l-4-7-2 1 1 12v3l-2-1v-16l-4-6-4-3-2-2-1-1-3-5-2-2-3-3q-6-7-18-8l-18 1-20 12-10 18 1 42 2 10q7 16 19 27l15 8 9 15 3 1 7 10q4 5 15 5l10-2 3-6 1 4q5-5 6-15l-1-10 4-2 1 10 2-11 2-1-2-7 1-3 3 12-1 3-2 13 1 3 2-1 5 11h3l-8-22 4-6 1 3-1 3 1 4h2l13 29 8 7-10-20h-1v-1q-7-9-8-23l3-1 6 15 2 1-5-14 1-4 1 2h1l-5-13-4-41v-2l-1-5 1-8v-2l-1-2 1-2-1-6 2-8-1-2 10-31v-3q-7 10-9 26l-3 2-1-2 12-32 3-2-1-1 1-2h4v-1l-3-1 7-11 2 1h2l-2-1 3-2zm10 3q-20 19-25 54v2l-1 2 1 5v-2h1l-2 5-1 21 2 1-1 2 1 7 1 2v-1h1l-1 5h2l-1 2 1 2-3 1 2 5 1-3 2-1-2-7 1-5-1-1v-1l-1-8v-4l-2-3 2-4-1-7 4-18h-2l2-2 8-30 12-17zm86 17 13 49 2-1-2-16q-4-19-13-32Zm-46 1 2 2 5 5-1-3q-1-5-6-4Zm-147 4-6 3v1l20-1q-5-4-14-3Zm41 3-7 6 3 1 4-5zm95 2-16 31h2l16-30zm5 1-7 15h2l2-5 1 2v-2l6-8zm-11 1-4 4-8 18 1 2 11-21zm17 2-6 10 2 7-1 3h2v2h-2l2 6 3 1 5-9-1-3 4-2 3-5-6-6-1-1zm-103 1q-9 4-1 8l1-4zm130 8-1 4 9 24 2 1-5-18zm-60 1-8 16 1 5 8-20zm79 0 6 25h1q-1-16-7-25Zm-34 3-2 4 1 5 2-1v3h-3l-1-1-1-1-2 3h-1l-4 9 1 4v2l-1 3-5 2-8 16-1 5-1-1-4 7 1 5-2 1-2-1-2 3v2l1 2 2-1 1 3 2-1 1-2v-2l3-6q4-2 0-4l2-6 5-4 1-2-2-3 4-2q4-2 3-8h2l1-5 4-3-1-2 2-1v-1l2-1v-1l2-1-1-5 3-1 2-3v7h-1l-6 11 2 4q2 4 5 0l-1 2 1 5h-3l-3-3 2-1v-1l-1-1-3-1-2 3h-1v2l-6 10 1 2 4 2 3-4v-2l3-1 1-2 3 2-1 4h3v-1h1q-3 2-2 9l-4 3-1 2h-2l-5 12 1 2 3 1h1l-1-2 1-4 6-3v-3l2-1 2 4-2 9-3 2-3 7h-1l-2-2 1-3h2v-2l-7 3-4 5 3 1-2 1 1 1 2-1v2l3-2q3 2-1 4h2l-1 2h3l2-3 2 1-2 6 2 6h2l1-2 5-4-2 4 1 2-2 1-1 2h2l-1 3h2l2-5-1-4 1-5h-1v-1l-2-1q-6-2-3-4l-2-1-2-3v-2l2 1 2-3-1 2 3 7 4 2 4-11v-7l1-7-3-1v2l-2 1h-2l2-1-1-1 3-2-1-1 3 1h1q2-11-2-15l-3 2-2-3 1-3 3-1 1 4h2v-3l-2-2-1-1q-3-2 2-4l-1-4v-2l-2-9-1 2-1-1-1-1-1-1v-2l-1-2h3l-7-17zm-28 4-7 15v2h2l6-11zm4 7-7 11 6 2 1-2 1 3-2 1 1 7 3 1 2-3 1-10 4-2-2-4-1-1-1 2h-1v-1l-1-4-2 1zm-15 5-8 14 1 1 8-14zm3 5-9 17 3 1 6-9-1-1-1-1 2-1 1-2zm-166 1-3 6 2 10 1-8zm5 8-2 5 1 11h1zm162 4-2 3 1 4-1 2h2l3-6zm11 0-3 4v2l-1-1-5 7 3 5q5-2 2-4l1-2 2-1-1-1 3-2v-2zm-22 7-6 10h2l3-6 2-1zm7 1-1 2v2l-3 7h2l1-3 2-1 2-3-2-3zm-5 2-5 7 1 1 4-6zm88 0-2 3 1 3-1 2 2 8v1h1q2-11-1-17Zm-56 4-2 3 1 7v2l-3-1q-3 2 0 3l2-1-1 2 1 3 3 1 2-5 2 1v-1l-1-3 2 1-1-1 1-3-2-1 1-2-2-1v2l-3-3 2-1zm64 4-4 32 1 5-2 4-1 16-7 21-15 27v1l8-4q21-16 24-49v-2l2-9-5-29v-11zm-95 2-1 2h-1l-5 8h2v-1l3-2 2 3 5-3-3-5zm23 9-4 9 7 3 2-4-1-1-1 3-2-3h2l-1-3 1-2zm63 3-8 44 1 3 7-26 1-20zm-114 2-4 7 5 17h2l2-3-1-8-1-1-2 3h-1l2-7-1-7zm-128 1-12 15-1 5 1 2-5 14 1 3 7-18-1-2 3-7 4-3 1 1-2 7 3 1v-1l4-3 1 3h2l1 1-5-17zm159 1-1 2h-1l-4 6 1 5h2l2-6v3h2l2 1-2 6-1 3-1 3h2l5-14v-2l-2 1-2-3h3l-2-4-2 1zm16 2q-2 7 2 11l-2 4-1-3-2 1 2 4-4 9 1 1 9-16v-4l-4-3v-1zm-27 12v8l2 1zm35 0-2 7 3-2 2 1-2 4 1 2h3v-2l2-1 1 3-2 3 1 3h2l3-5-1-2-2-1-2-3-6-4 1-2zm-187 2-9 17 1 1 8-14zm8 0-1 3h-1l-13 29 1 6 9-20 1-7 4-2 2 6 2-1-1-3 3-1 5 9 2-4-2-4-8-7-2 3-2-1 1-3zm121 2q1 15 8 26h2l1 2v-1l2-1v-1h-1l-3-1 1-2v2h2l2-4-1-4-2 5h-2l-1-3v-2l-7-15zm19 1-5 8 2 9h4l-1 2 2 4 4-8-1-4-2 3q-1 3-3 0l3-5-2-8zm25 0-6 10-2 1 1-4q-1-3-3 0l5 11 7-16zm-183 3q-9 8-11 22l2 1-1 6h2l4-14-2-1 1-3 2 1 3-10zm148 0-2 2 1 8h2l1-2-1-7zm42 4-1 2h-1v2h-1l-4 7h-1l-2 3 4 6 7-19zm-22 4 2 8 2 1zm32 0q-6 3-7 12h2l5-9zm-153 2-1 2 11 8h1l-2-3zm157 0-5 8 1 3 4-8zm-168 1v4l11 8v-2zm-22 2-4 11 4 2 1-4q2-7-1-9Zm151 0-2 2 1 3-1-1-2 3h2l-1 2q-1 6 4 7l3-2v2l-2 1 1 6h2l1-2 2-1-1-1 3-6-2-3-1-1v2l-1 2-2-2 1-2zm-135 1-1 3 6 7h1l-4-8zm180 0-2 3 1 2-3 5-4 2-1 3-3 1-2 3 9 2q9-1 12-8v-2l-3 2-1 2h-3l2-1-1-1 2-1v-1l-2-1 3-8zm-189 2-2 3 1 8h2l2-3-1-6zm169 4-4 7 8 4 1-7-1-1-1 2-1-1-1-1zm-149 2 17 37 3 2-10-18-7-18zm-11 1 2 8h1zm-14 1v2l-1 2 2 1-1 2 1 2h-1l-1-1-1-1-9 25 1 9 8-17 1-9 2-1 3-5-3-8zm-6 1-6 15 2 1q-4 1-3 8h2l2-5v-4l5-11zm40 1 9 22 2 1zm101 0 1 6 3 1 3 7 3 2-7-13zm9 0-2 2 5 9 2-4-4-6zm16 0v4l-2 1v2l-3 5 4 6 3-7-2-4 2 1 2-4zm-151 2-2 3 5 11 2-3-4-10zm102 0 4 14 3 2zm-66 4 14 30 3 2-8-18 4 2 1-1-2-2zm-76 1-2 2q-2 24 5 40h1l-2-12 1-2-1-7 2-15-1-3zm15 1-2 5-1 3h2l2-7zm140 2 4 11h1zm46 1-2 2 2 1-5 14 5 3 6-15zm-165 1-3 8 1 3h-2l-9 26v6l3 7h2l7-16-2-8 2-6 2 4 1-4-3-4 2-3 2 1 2-4-4-9zm160 1-4 7 2 4 4-10zm-149 1-3 5 3 3 2-1zm12 1v5l4 3-3-7zm82 1v5l9 11h1l-8-15zm44 0q-2 6 2 9h1l-1-2 1-2-1-3zm26 0-3 9-1-2-5 10 1 2 4-8 1 6-1 2 1 1h5v-4l-2 1-1-1 3-2 1 2v-4l2-1-1-1 4-9zm42 1-3 4-11 13h2l12-15zm-199 3 2 7 4 3zm69 0-3 3 3 14 5 6 2-1-7-14 3-1-2-6zm-107 2-3 7 1 10h2l1-16zm98 2-4 2 2 4h2l2 3h1l-1-8zm-64 1-2 2 2 5 6 4h1l-5-9zm44 0 6 13h1l-2-8 1-3zm13 0-5 2 4 5 3 2zm70 1 6 7v-1zm-44 1 3 10q3 6 5 2zm32 0 7 15 7 5 2-1zm73 1-12 7-1 2q10-1 14-8zm-196 3-4 11h2l3-7zm114 0 3 8h2l1 1zm98 0-4 5-6 4-2 3 5-1 8-10zm-75 2-1 2 8 5v-1zm-132 1-5 9v3l8 7 1-3 2 1-1 2 2 3 4-11-1-1-2 4q-1 3-3 0l2-4h2v-1zm14 0 1 6 4 2v-3zm58 0 1 7h-2l-3-1 3 6 6-2zm43 0 4 6h1l-2-3zm-170 1-1 5 5 14h1l-4-18zm17 1-2 3 2 29 5 18v-6l3-2-1-1-1-1 3-5 1 1-2 3 2 1-3 4 3 2h-1l-1 3h-1l-1 2h2v4l-1-1-1 3 1 3q16 45 39 83l-1 2h2l12 24v-2l2-3v4l1 2-2 3 13 24 2-1-3-1 1-6-1-7-2-2v-1l-1-4-1-1-5-11-5-1-1-3v-2l1-2-5-14-2-1v-1l-5-12-1-1-1-1-2-1-1 2-2-4 2-1h2l-5-13-5-4-2 1 1-3-2 1h-2l4-3q4 2 1 4h2l1 1-3-7-2 1-1-2h-1l-1-1 3-1-1-4-2-1 1-3-1-1-1-2-1 2h-1l2-3-1-5-2-1-3 2 1-3 2-1-6-21-7-12 1-2-3-8 1-16-1-1-3 5q-2 3-4-1l1-6-2-12zm170 2 4 7 3-1zm28 0-2 2 4 1h5zm-136 3 4 6h1l-1-3zm34 0-3 2 2 4-2 1-4-3-2 3 3 6 14-5q3-2-1-4l-2 3-3 2 1-8zm61 0q-2 5 2 6h4l-2-2-1-1zm-128 4-10 20 1 3 3 1 6-20zm23 1-5 12 9 3 1 1-1-7-1-1zm-20 2-4 16 1 2v4l-2-4-3 12h2l1 1-1-3 2-4 1 4 1-3 1 1-1 2 2 5h2l3-7h1l-3 7h2l2-3 1 1-1 5-2 1 12 9 2-3 3-26-8-4-3 7h-1v9h-3l1-4-2-1 6-12-3-3-1 3-4 9h-1l-2 3-2-3 2-1 1-3v-2l1-2 2-1 2-3-4-6zm-49 1v14l5 25 4 5h-2l8 28 17 34 2 1-9-33-6-14-5-22zm77 0-1 2v2l-1 2 3 2-2 6 4 1 2-1 5 2 4-2v2q7 1 9-3l4-5-3-5-1-1-2 3h-1l-4 5-2-2-1-1-1-1-4-4-5 3-2 1 2-3zm-1 17-4 14 2 2 3-6 3-1 4-7zm14 2-4 6h-1l-12 17 6 21h1l-1-3 2 1-1 3 2 10h2l-1-1 4-6-1-5-1-1v-1l-1-7-2 4h-2l1-2-2-3 3-2 3-14 8-12v-4zm-59 1-1 2h2l3 7 2 1-1-6zm73 2-4 6 1 1 5-6zm-59 12-4 7-3 1 1 1 2-1v2l-1 3 3 8 3 1-1 2 3 9 1-2v-2l1-2v8l2 14 9 17 1-5 1 1-1 6v4l5 10h2v-1h1l-1 3 7 13v-2l2-1v-1l-1-1-2 1 2-5 5-1v-1l-1-1-2-4-2-2v-1l-4-10h-1l3 10h-2l-1-2-2 1 1 2h-2l-1-2 2-4-2-5 2-1 1 1-3-15-3 2-3-1-1-1 3-1-1-4-2 1-1-1 2-1 1-2-3 1-4-10h2l2-1-1-3-1-1-1 3h-1l-3-6 1-5-1-1-3-7-3 6-1-2 2-16zm9 5 3 17 3 1 4-6-2-5zm48 8-3 8 1 1 3-5zm-29 4-3 2 5 8h1zm-7 2-6 9 5 14 2 1-1-9 1-3-1-3-1-1-1-1 3-1v-5zm6 8-2 3 4 12 3 1-1 3 3 2-1 3 3 8h-1v-1l-1-3-4 3 2 3-1 3 2 7 3 1 1 3-1 2 5 13h2l1-4 3-1 2 6-3 5v2l1 3h3l-1 3 1 2v-1l2-1-2 5 2 5 5 2v-1l2 1h-1l-1 2 2 1-3 4 3 6h1l-2-4 1-2 4 2h1l-1 4h2v-1h1l-2 4 3-2-2 3 1 3 3 1 3 7-1 2h2v2h-1l-1 2 3 1-2 3 5 2-1 4v1l2-1 2 1-3 1h2v2h3v-1l2-1-1 2 3 8-1 2 2-1v3l-1-1-3 2 1 3 1-3 2 1 2-1 3 2-2 3 1 2 8 5-3 1 1 2h2l1 3v2l-1-2-3 1-1-2-1-1v-1l-3-2v-1l-1-3-1-1-1 2-2 1 2 4 6 4h-2l1 3 3 1v-1l2-1-1 4 2-1v2l-1 3 1 3h2v2l2-1-2-4 2-1q2-4 4 0l-4-12-3-2v-1l-9-22-24-45-13-31-1-1v-1l-2-6-1-1v-1zm16 8-4 7 5 14h2l1-6-1-1v-1l-1-2-1-1v-1zm42 3-2 4q3 6 5 2zm-60 1-3 6 4 10h2l1-3-4-8 1-4zm-34 10q9 38 28 68h1l-8-22zm77 5-3 6 2 4 3-8zm-19 1-1 5 3 11h2l3 7h1q-2-14-8-23Zm38 1-1 2 4 2 4 6h1l-2-5zm-15 3-4 11 3 6q4-5 3-15zm5 8-4 13 5 10 3-15-3-7zm13 2-4 5 1 2q-6 8-6 23l3 5 8-33zm9 0-2 1-4 6-8 32 3 6v-4l3-8v-2l4-10-1-5 2-1 4-12zm3 4v4l-1-1-10 34 1 3-2 4v4l6 10 1-5-2-4 1-3 2 1 2-4-1-2 2-3 1 1-2 8 1 7h-1l-3 6 4 10h3l-1 2 9 14 5-1v2l-4 1 11 5 1 1-1-2 1-4-1-1-1-1 2-1v-2l-2-1 2-4 2-1v-1l-2-1 2-4 2 5-3 13 3 1h-2v2l-1 3 5 2 1-8-1-4 4-12-2-1 2-1-3-8-3-2 1 5-1 4h-1l-2-2 1-4v-2l2-3-11-22-1-1q-3-15-12-23l1-2zm-41 14v2l-1 3 7 14-1 2h2l3 9 2 1-1 2 5 10v2l2 3h2l-1 2 6 10v5h2v4h2v3l3 2-1 3h3v2l2 1-1 4h2l4 8v2l1 4 5 2-2 1h2l-1 2h3l-1 2h2v3l2 1h-1l-1 2 3 1-2 1 7 12 7 2h-1q-2-3-4 2h2l3 8 3-1-4-6 3-1h1l-2-4-3-3-2-4-2 1 1 3 1 1-3-3 1-2-29-53-29-64zm-24 1-2 4 1 5-2 4 1 3q4 2 0 4l4 6 2-1v2l-2 1 4 6 3-5-1-1-1-1 2-1-2-2 1-2v-5l-2 4h-1v-3l-1-2 1-2-3-6v-2zm-34 15v6l10 23h-2l2 5-1 3 28 61q14 21 33 37h1l-25-37q-14-38-36-67h2zm18 6 14 41v2h2l12 20 1-2zm-7 1q5 23 18 43l3 2-11-26 1-2-1-1zm35 9-2 3 1 3-2 4 4 2-2 3 2 3 1-4 2-1v2l3-1-2-5-1-1v-1l-3-4 1-2zm6 15-3 2-2 3 7 16h2v2l2 1-1 2 6 13 3 1-1 2 2 2 3-1 1 3h-4l8 17 4 1h-1l-1 3 3 1 4-2 1 2h1l-5-12-3-2v-1q-2-13-9-21l-5-4 1-2-4-3 3-1-3-8-3-3v-1l-2-4-1-1v2l-1 2h-1l1-2-2-1 2-1 1-4zm82 10-1 6v2l-1 6q2 4 4 1l-1-5 3-1zm12 3 2 7 2 1zm-101 2-2 2h4l-2 5 1 1 3-1v2l2 1v1l-3-1h-2l2 6 3 1 1 5 1-2 2 1 1-2-3-1-1-2 2-1 1 1-4-9-3-2 1-2zm94 4-2 9 3 1v-2l2-1zm127 2-2 2 4 1h5zm-165 4 5 14 3 2zm42 1-1 6h-2v-1l-2-2-1 5q-3 1 2 3v-1l1-3 2 1-1 4-1 3 3 2h1l-1-2 3-9zm112 0-4 2-2 3 3-1 12 1 16 11 13 4v1l-3-1-2 1 15 10q15 13 25 32 7 9 8 25v6l-2-4-2 8h3l2 6q0 14-7 20l-4-1v2l-2-2 2-1 2-3-3-15v-11l-6-15h4q-2-18-13-27l-10-7-2 1 6 7v1l-2-1-6-7q-9-13-27-16l-6 1-1 2-3 2 1-2-1-1q-4-2-3-8l12-7 10 1v-1l-18-10q-11-1-15 4l-6 7-5 13 1 4 2-4 2 1-5 9 1 25 16 36 3 1v2l3 1 1 3h2l8 12 23 19 25 8q11 1 15-5l-2-1 8-9 2 1-9 12h4l8-10v-10l1-24 2-9q1-11-3-16l-26-39-13-10-1-2 6 3 2 2-10-14q-17-14-45-16Zm-123 1-2 5 1 2-1 4 3 1h1l-1-2 2-6-1-2zm-58 3 1 4 2-1v2l-3 1 4 1 1-2-1-4-3 1v-1zm73 3-1 2h2l1 8 3 2v-2l1-2-1-3zm-94 4 8 18h1l-1-7 2-1v-2l-3 1-1-1 3-1-2-5-1-2-4 3 1-2zm-10 2 5 9h1zm4 0 6 11 2 1-5-11zm189 0-4 5v2l-4 9 1 3 4-6 4-12zm-99 3-2 2 3 3 2-1-1 2 5 2v-2l2-1-4-3-2 1-1-1zm132 2-4 1-1 2 11-1zm-44 3-2 1-1 2h-1l-1 2h-1l-13 14 4 1h-2l-4 1-2 3 2 3v-1h1l-1 3-1-1h-1l1 5v2l3 10 1-4 1 9h2v7h-1l-1-1h-1l1 3 2-1v2h2v-1l2-1q1-4 3 0l-6 4-1-2-2 1 1 4v2l5 17 15 24 1-2 4 3v2l14 11 8 4 2 4 13 7h2l-10-7q-5-2-2-3l-10-9-2-3-4-4-3-3 1-2 3 1 5 7h1l-7-11 1-3 6 9 3 1h1l-1 2 4 1v-1l4 2h3l-1-1-4-5-2-2-18-26-4-4-2-2 2-1q-9-15-13-34l-2 1v7l9 21h-1l-10-18q1-12-2-19l2-11v14l1 2h1l-1-15 4-18zm-79 1-1 2 2-1 3 6h1l-1-2 1-3zm-96 1q5 17 16 30l4 3q-7-20-20-33Zm262 1 25 39 2 1q-7-20-20-33zm-266 3 10 22 2 1zm19 0-1 2 2 1-1 2 2 3v1l-1-1-1-1-1 2q2 4 4 1l5 9h2q-2-12-8-18zm92 2-2 2 5 2h2l2 1h2zm74 1-4 7 3 17h1zm-96 2 8 5h1zm-13 1v4l4 3-3-6zm34 2-1 2 7 3h2l-3-2-1-1zm19 3-1 2q2 4 9 4h2l2-1zm-20 2-1 2 9 4v-1zm-73 1-1 2-2 1 4 9h2l1 5 3 1 1 3v2l2 4h2l11 21 4 2 2-3-4-9-2-1v-1l-10-20-4 1-1-6-5-8-1-1-1-1zm19 4-1 2 3 1v2l-1-1q-3 2 0 3l2-1v2h2l7 12 3 2-6-16-2-2-1 2h-1l-2-3 2-1v-1h-1zm212 0q9 15 14 36h2l1-5v2h1l-3-10zm-238 2-1 2 2 1-2 1 4 1 1 2h1l-2-4zm80 0 5 4h2zm-83 2-1 3 7 10h1zm126 1-2 3 3 15h1l-2-10 1-7zm-98 4-1 2 7 3v-1l-4-4zm44 0 1 5h5v-1zm-42 5-1 2 2 1-1 2 10 17h1l-1-4 1-3v-5l-4-6zm28 1q-2 5 1 8l-1 2 3 1-1 2h2l2 4-1 2 2-1 2 5 8 7 1-1 10 4 1-2 2 1 2-6 1 1-1 2h2l9-11-1-3-5 1q-25-2-38-16Zm61 2-4 3-12 16 2-1 2 2h-1l-12 20-2 8 3 18h2l2-7-1-6 2-1q5-8 6-21l14-26zm-120 3 10 18 3 2zm47 6-3 3 6 1q3-1 0-3l-2 1zm70 4v2l-8 27 1 4-1 4q-2 12 4 16h-1l-2-3-2 3 1 4-2 1 2 4 3 2-1-2 1-5 6 3 1 1-2-4 1-2 9 17h3l1-2-5-9-4-4-2-2-2-1 1-3 8 6v-1h1l-1 2h2l7 8h1l-2-5 1-4 7 2 2 2-14-26-13-34zm11 0 3 13h1zm-82 2-2 6v2l-1 2 2 5h3v-5l2-5-1-2 2-1-1-2-2 1zm-28 2q-1 10 7 17h2l7 11-1 2 2-1 4 2 1-2-2-2h-2l-7-11h-1l-9-15zm34 4v2l-1 2 1 3-2 9 5 3 1-3 2-1v-2l-1-1-1-2 2-1-1-1 1-4-2-1v-3l-2 1zm50 1q-9 4-11 16l1 3 10-17zm-73 1 3 10 3 2zm247 5-1 22v2l-1 3 1 9q4-6 4-16 1-13-3-20Zm-195 2-2 2 3 5 4-3zm51 1 1 7 2 1zm-58 1-1 3-3 2 8 13 6 4 3 6h1l-11-24-1-1zm-11 4v7l-2-4q-1-3-3 0l2 4-3 9 3 6 1-2v-2l-1-6 1-3 2-1 1 2 1-3-2-3 1-3zm23 1-4 2 5 9 1-10zm-17 3v3l-1 2h-1l-2 4v2l2 4-2 6 1 3h-2l2 2 2-3 1 1-1 2 3 7h2v2l3 1v-1l2-1-2 3 2 1-1 2 6 3 1 3 4 2h1l-1-3 2-1v-2l-1-1-1-3-3 1-2 3-2-2-2-1 8-2 1-2q2-11-4-13l-2 5-3-1 2-4v-2l-2-5-1-1-3 4-2-1-3-9h3zm38 4-3 9 1 3-1 2 1 8 2 1zm-72 4 2 7 17 20 10 9 1-1v3h3l-1 2 2 3 9 7v2q11 11 27 18h5l-2-1h-2l2-1-1-2-2 1-2-1-3-3-3-2-1-3-1 2v2h-1l-1-1 1-2-2 1h-2l1-4h-1l1-2-3-6-1 2h-1l-3-5-4-3 2 5-3 2-1-2-1-1-3-3h2v-1l-1-1-8-11-2 4-2-5-2-1-3-4-1-1-10-12-3-2q-5-2-2-3l-1-2zm150 1 13 16h1l-10-12zm-137 3-1 4 4 6 3 1v-3l-3-5zm54 9-4 10 2 7 6 3 2 6 9 7h2l-7-12-5-5-1 2-3-5 2-3zm57 6 3 8 18 13v-2l-14-11-2-3zm125 1-3 6-1 2 3-1 1-2zm-87 1q5 10 20 14h2zm-105 2-1 11 7 5h1l-4-14zm90 2-1 2 11 7 3-1zm-29 3 2 6 4 3zm-39 1 5 9 7 5 1 1-8-10-1-1-1-1zm26 2-1 3h2v2l10 8h1l-5-5-4-5zm68 7 6 4h3zm-116 2v4h2l-1 2 1 4 15 8v-1l-1-1-3-3-8-6-1-2 2 1v-1zm47 0 1 5h2v2l2 1-1-4zm42 0-1 2 5 3 2-1 3 4h4zm42 0-1 2 4 1h7zm-92 1 7 9h1l-5-6-1-1-1-1zm28 0-1 2 6 4v-1zm43 0 1 2 14 5v-1q-5-6-15-6Zm33 2 3 2-1 2h9l2-3zm-15 4-1 3 10 3 2 4 4-2zm-94 1-1 2h2v2h2v3l10 7h1l-7-7-2-2zm28 0 1 4 7 5 1-2q-2-6-9-7Zm82 0v2h-4l-1 2 5 2 6-3v-2zm-38 1-1 2 14 5h3zm10 0-1 2 20 6v-1zm-86 2 5 7h1l-1-2zm-12 1 7 9h1l-2-3-3-3-1-1zm32 1 5 6v-1zm8 2 4 4h3zm-31 1 3 6 5 2h1zm84 4 4 4-2 3 4-3zm-95 1 2 2v2h2v2l6 3-1-1 1-2q-3-5-10-6Zm27 1-1 2 8 3h2zm57 2 4 6 3-1 1-2zm-106 1 13 11h1zm132 1-6 1-1 2 8-1zm-33 1 4 6 4-1zm45 2-7 6 2 3 2-4 3 16h1l-1-14 1-3zm-88 2-1 3 8 2h4q-3-6-11-5Zm-37 1 8 6h2zm75 0-2 5 1 1 4-1 1-2zm-9 1v4l-1 2-4-2-3 2-9-1-2 1-2 3q-2 3-8 1l-3-6-5 1 1 2q5 2 2 4l1 1q23 1 39-6v-1zm-54 3-1 2 7 3v-4l-2 1zm117 1 2 19 2-4-2-13zm-34 4-25 8v1l26-7v-1zm41 3-1 6 3 9 4-3 2 1 2-1-3-4-1-1zm26 43 2 13h1q1-10-3-13Zm-32 10-13 8 1 4 15 9q13 0 22-5l-1-3q-7-12-24-13Zm-234 12-3 3q0 10 5 16h4q1-14-6-19Zm37 0-2 1q-6 4-7 13l2 14 8 4q7-6 7-20l-2-7zm231 2-3 3 3 8 2 1q1-9-2-12Zm-6 7-5 6h-2l1-2v-2l-4 2h-18l-4-2-2 1 10 8 7 18 1 12 12-6q8-6 7-21l-1-1-6 7-1-2 2-1v-1l4-3 2-4zm-299 1-2 3q-1 7 3 10l3-2zm111 4-3 2-5 9q-2 13 3 20 9-8 13-21l-1-7zm141 1-9 6 1 2 2-1v3l-1 1 9 9v2l-5-4 1-1-2-1-5-6-4 3v7l7 11 13 8h8v-1l-2-2-1-2-2 1-1-1h-2l1-3 4 2q1 4 3 1l-3-5 1-3v-2l-1-1 1-2 2 8 11 5 1-4q-1-15-9-22-4-9-18-8Zm56 0-2 2 1 4q0 14-6 23l-8 6v1l8-3 8-15v-15zm-289 6-11 4 1 2q11-4 26-3l-1-2-6-1-1 2h-1l-1-1zm28 2-1 3 18 7v-2zm-18 3-1 4h-1l-1-3q-12-1-18 5l1 4q4 6 17 5l1-5-1-4 2-1 1 10 6-3 4-5v-3l-5-3h-2zm-33 2-6 3q-4 2 1 4l8-4v-1zm50 0-2 2 1 2 13 8h8v-3zm104 3-3 1q-7 4-9 13-2 11 4 15l4-2 9-12-2-12zm-163 2-10 9 1 1 11-7-1-2zm14 0-8 4-1 2q5 2 2 4l-1-2h-1l-1-2-13 7-5 6 12 6 8-1 6-6v-3l-1-1 1-2 2 1 3-10zm213 2-4 2-5 9 4 22h2q5-5 5-15l-2-9-4-3 1-2 3 1v2h2l2 10-1 3-6 15 3 6 9 4 5-12q2-18-4-26-2-7-10-7Zm-78 1-6 8 4 10q-1-11 3-17zm-63 3 1 6q4 6 13 8l7-1-1-3q-7-8-20-10Zm-101 3-5 5 2 2 4-6zm215 4-4 2-5 9v19l3 5 5-3q7-6 10-17l-1-10q-1-6-8-5Zm83 1-1 4 8 2v-2l-2-1zm3 10-3 1-3 14h2q5-5 7-14z"/><path fill="#11110e" stroke="#11110e" d="m470.5 142 3.5.5-17 10-1.5 2.5-.5-1.5zm25 11 1.5 2.5-4 2 1 2-5.5 3.5 1.5-2.5zm-8 11 .5 1.5q-9.7 12.3-12.5 31.5l-.5-5.5zm-6 1 2.5.5-3 2v2l-7.5 16.5-.5-1.5z"/><path fill="#11110e" stroke="#11110e" d="m488.5 167 .5 3.5-8 19 1 2-3 7-4.5 27.5-1.5-.5 4-21-3-6h1l.5 2.5 1.5-.5 2-3-1-5zm-16 20 1.5 3.5-3.5 6.5.5-1.5zm-50 3 4.5 1.5 1.5 3.5 8.5 5.5q8.8 14.2 13 33l-3.5 2.5-1-2-1.5.5-4.5 12.5-1.5.5 1.5 4.5 11-10 .5 3.5.5 2.5 3.5 1.5v4l-7 11 4.5 5.5 8.5 4.5q-1 12-7.5 18.5l-7 1-7.5-6.5-4.5-9.5-13 1-6-4 .5 1.5-.5 1.5-4.5-8.5v-2l-3-11v-9h1l1.5 7.5 4-13 2 1 1-2 1.5-.5 2.5-4.5 15.5-11.5-3.5-7.5-4.5 1.5-.5 1.5-13 8-5.5-4.5.5-2.5 4 3 .5-3.5-2-8 1.5-3.5 4 15 1.5-3.5-3-5 2-1-2-9 1.5-3.5 2 6 1-6 5 10 .5-1.5-5.5-12.5-7.5.5-.5 1.5-9 1-2 2h-2l-2.5 1.5-2.5 4.5-1.5.5-1 10h1l1.5-7.5 2.5-.5 2.5-4.5 2.5-.5 3.5-4.5 1.5 3.5q-9.5 15.5-13 37 2.7 26.3 17.5 40.5l6.5 5.5.5 1.5 3-1 7.5 11.5-2-1-4.5-8.5-3-1 .5 1.5 5 10-1.5.5-3-5-1 3-6-7-4.5-3.5h2l-1.5-2.5-2 1-18.5-21.5-9-21v-9l1-15q4.4-5.6 4-16l3.5-5.5 16-8 15-1 1 2 3.5-.5-.5-1.5zM394 203l-2 1-3 4 1 2-2 3 2 7 2-8-1-3 4-5zm42 12 2 8q2 3 3 0l-2-5zm-47 6-2 7 1 10h2l1-7-2-1 1-2zm52 3-4 6 1 3h2l2-4zm-14 13-2 4h-1q-5 5-6 14h2l4-12 2-1 2-4zm-40 3-1 7 3 12 4 7 4 3zm43 5-1 4-1-1-2-1-2 9-1-5q-5 4-4 14l-2 1 1 5 5 2h2l6 1 1-7v6l7 2v-3h-1l-3-9 2-1v6h2l1-9v-3l-9 6 1 4h-1l-1-6 8-7-1-2 1-4-1-1-2 3-3 2-1-5zm16 27v8h2l-1-1h2v-4zm-3 2-2 2 1 8h1l-1-6 1-2zm132.5-41 2.5.5-.5 1.5-2.5.5 1 2-2.5 1.5.5-1.5-1-3h2zm0 15 2.5.5-1 4 1.5 2.5-1.5-.5-.5-1.5-1.5.5.5 1.5-1.5-.5 1-2-1.5-2.5 1.5.5.5 1.5.5-2.5zm-108 19 3.5 17.5h-1zm130 12 1.5.5-1 3 1 4-2 4 2 1 4.5-9.5.5 2.5-10 20-2.5 12.5-2.5-4.5 1-2v-2l4.5-15.5 1.5-.5-1-8zm-34 34 1.5.5v2l1 2-3.5 2.5-1.5-3.5zm-247 2 2.5.5q-4.9 7.6-3 22l1 10-1 3-1 10 1 4-1.5.5-.5-9.5 2-11-2-17 1-2v-4l1-3v-2zm268 1 .5 1.5-6.5 9.5-.5-1.5 2-1-1-2zm-62 61 12.5 2.5-.5 1.5-2-1h-2q-6.7 0-8-3Zm18 4 4 1 1.5-.5.5 1.5 1-2 1.5 2.5-3.5.5zm-63 8h2l2.5 1.5-3 1-1.5 3.5-1-3-2 4-1.5-.5 2.5-4.5 1.5-.5zm-82 63 4.5.5-1 3 .5 2.5 2.5 1.5-1.5.5-2.5-1.5-1.5-3.5-2 1 .5-1.5zm-11 5 1.5.5 1 3 1 3-1.5 3.5-1.5-.5 1-2-3-2 2-1zm104 2 5.5 3.5-1 2 4.5 7.5 1.5.5-1 3 2 3-2-1-7-14 1-2zm-72 4 1.5 2.5-1 2 .5 1.5-2.5-1.5-.5-2.5-1.5.5.5-1.5zm3 7 2.5.5-1 2 3 7-3.5 1.5-1-2 1.5-.5-2-4 1-3zm-12 7 1 3 2-1 .5 1.5-3 2 .5 1.5-1.5-.5-2-5zm73 17 3.5 1.5-3 2 2 1-2.5 7.5-2.5-.5v-2zm-49 2 2.5 4.5-2 1-.5 1.5-.5-1.5 1-2zm2 7 2.5 4.5-3 1 .5 1.5-2.5-1.5 2-1-3-2 2-1 .5 1.5 1.5-.5zm46 22 4.5 2.5-1.5 4.5-2-6zm11 0 1.5 2.5-1 9 2 3-3 2-.5 1.5-1-3-1.5-.5 1-5 1-3zm-44 35 1.5 3.5-2 1 1 2-1.5.5-.5-3.5zm97 5 7.5 8.5-8-7zm89 15 2.5.5-.5 1.5-3.5 2.5-4 7 3-1-2.5 3.5-2.5-3.5zm-175 6 2.5.5 3 7-1.5.5v-2l-1.5-.5-.5-2.5-1.5.5 1-2zm139 4 1 2 1.5.5-1 2 1 2-4 7 1 4-1 3 6 20h-1l-1.5-3.5-2.5-.5 1-3-4-16 2-7q-1.5-3-3 0l-.5 1.5-.5-1.5 2.5-4.5 1.5-.5 2-3zm52 7q6.3-1.2 7.5 2.5l3 7q-2.2 3.8-9.5 2.5-5.7-1.2-4.5-9.5zm29 10 4.5 3.5 1 5q-1 4.5-7.5 3.5l-3.5-2.5-1-5zm10 4 1 2 1.5.5 3 5h-1l-.5-1.5-2.5-.5.5-1.5-3.5-2.5zm-44 9 8.5 4.5 1 5q-1.7 5.3-10.5 3.5l-3-4-1 2-.5-2.5 1-2q-3-2 2-4l.5-1.5zm23 5 6.5 4.5 1 9-3.5.5-1-2-6.5-3.5-1-4zm22 10q6.9-.9 8.5 3.5l-1.5 7.5-6 1-2.5-1.5-1-7zm-30 13q9-1.5 10.5 4.5l1 6-1.5 2.5q-9 1.5-11.5-3.5zm-19 10q6.8-.7 7.5 4.5l-1.5 3.5-2-3-1.5-.5-1.5-3.5zm47 0 7.5 4.5 1 3-2.5 4.5-5 1-5.5-4.5-1-4zm-34 11 1.5 3.5-.5 1.5 2-1q4.5 2 1 4l-5.5-4.5zm-180 5 2 4 2.5.5-3.5.5-1-2-1.5-.5 2-1zm186 3 1 2 10.5 6.5.5 1.5q15.5 9 38.5 10.5l-11.5.5-28-10-11.5-8.5zm-38 1 2.5 3.5h-2l-.5 2.5-1.5-2.5zm-91 7 3.5 1.5 2 6-1.5.5-4.5-2.5-1-2zm182 85 10.5 5.5 2.5 4.5 2-1 1 2-1.5-.5.5 1.5 1.5.5.5 1.5 1-2 2.5 1.5-1 2 4 2 2.5 5.5 1.5-.5-1 2 2 7-1 2 1 2-4 7q3.3 2.2-2.5 4.5l-1.5.5v2l-1.5 2.5-2.5-.5.5-1.5 1.5-.5q7.5-7 8-21l-3.5-8.5-1.5-.5-.5-1.5-8.5-6.5-.5-1.5-12.5-8.5zm-155 3 9.5 2.5-.5 2.5-9.5-3.5zm103 42 2 1h2l7.5 2.5 1 4-1.5.5-3-4-2 1q-1.2-3.2-7-2l-3.5 6.5v2l1 3-1.5.5-1.5-6.5 2-1-1-2 3-2 .5-1.5 1.5-.5zm-254 11 .5 1.5-3 2-1.5 10.5-1.5-.5q-1.4-9.4 3.5-12.5zm296 7 .5 2.5-1.5-.5-1.5.5-.5 1.5-3.5-1.5zm-38 4 10.5 4.5.5 1.5 2.5 1.5 2 3-1.5.5-5-6-9.5-2.5zm-1 13 1 3 1.5.5.5 1.5 4.5 2.5-2 1-.5-1.5-5.5-4.5zm9 1 7.5 5.5-.5 1.5-3.5-1.5-.5-2.5-2 1z"/><path fill="#f7f7f3" stroke="#f7f7f3" d="M.5 0 1024 .5l-.5 1023.5L0 1023.5zM544 114l-60 29-1 2-27 14h-2l3-5q7-9 19-11l-2-2-14 7-10 14-13 8 2 3 18-11h1l-18 13 1 2v2l-18-9-9-2-10 3-28 16q-6 6-6 18l-8 16v11l4 15-2 1-15 20h-1l-5 8h-1l-7 11h-1l-2 1 4-24 3-1q1-6-2-7l-6 15-3 25-31 47 1 4 10-19 6-5 1 22-2 12 3 17 2 1-1 3h3l16 23 8 31 29 57 15 46v2q14 42 37 76l8 6 5 8 19 16 26 32 10 17h-2v-1l-9-8-5-5-1-1-1-1-3-3-7-7-1-1-1 2h-1l1-3-2-2-4-4-1 1-1-2-1 3 3 1 2 5h2v2h2l3 5h2l2 4 3 1v2h2l1 3 8 4v2l7 6h3l8 6 7 12 21 18 17 18-14-5-3 1 1 2q8 6 22 7 8 12 22 18l2 3q-17 2-25-5l-1 2 14 6q10 2 16-2l20 10v-1l-15-9 19-6v-1h2l21-9h2l2 1q11 2 17-1l-12-3 19-7 35 30 6-3 8 4 4 5 6 16h-3l4 7v4h-1l-2-2q-7-9-18-12-15-2-21 5l-5 4 7-10 10-5q15 1 24 9l2-1-4-5-20-6q-10-1-13 4-8 5-9 17l1 3v2l-2-1-9 1-4 11v2l2 5-3 8v9l7 12q8 10 25 12l-2 15q-7 9-22 11l-17-4q6-7 6-18 2-17-5-25l-9-8-11 3q-6 5-7 15 0 15 6 25l-14 9h-5q10-7 13-21 1-10-2-14l-7-6q-8-1-11 3-7 6-7 19l1 12-2 1v-1q-4-5-3-14l-2 1q-1 10 3 15l3 1 2 4-4 1q-12 0-18-5l-10-12 1-2 22 9v-1l-18-10 3-2q8-6 11-17 0-14-7-20l-10 3-2 1 3-5q2-11-4-14l-12-10q-21 0-32 9l-2-11-1-1-1-1-7-6-19-7-20 2-20 8-6 10v2l3 11-1 3-15 1-7-13 5-2 2 1 10-2v-3l-12 1h-2l-9 3h-2l-15 4-5 4 1 1 8-4 2 1 9-3 1 1-2 5 2 11-7 3-1-4-1-3 4-7v-3l-3 2-4 7 2 11-19 13-1-2-2-2-1 7-5 4-13 15-11 22 1 4h3l14-29 13-12 1 1-9 15v4l1 2 1-3 2-1-1 2 3 5 2-1 2-6-3 1 7-14 13 6q9 2 14-2l7-8 9 4 9-1 5-8 12-6 4-5 14 9 12-1 2 5q5 7 16 9l9-2 26 14q11 3 16-2l1 4-1-1-2 1 5 2 1 3q7 11 24 13l12-2 3 7q4 6 14 7l9-1 8 2v2l14 2 2-1h2l10 2 12-2 7-5q7-7 8-20 11-8 14-22l4-3q14 1 21-5l6-16-1-19 4-8 2-1 8-15q2-14-5-18-11-13-27-20l3-8-5-3-14-20 14-9 2-3 26-22 2 3q3-2-1-3 13-13 18-33l-1-3-10 22-4 5v-1l-1-10 4-14-2-16-7-15-1-16v-2l-2-7-2-2-13-16-5-5-6-7 2-1 8 10h1l-4-6-36-28-25-11h-6l-14 6-4-1-3 2 2 1q-8-1-10 3l-1-1 21-16 12-5q15 2 26 9v-1l-19-10q-11-1-16 2l-25 18-12 6q-8 5-11 15l-7 4-7 10h-1v-1l-6-1 6-15-1-1-1 2-2 1-6 11-3-2-14-20q-26-58-59-109l1-2-1-5-2 1-3-6-1-1-5-13 1-2 1 2 1-2-1-3 1-4q-4-2 0-4l-2-6-1-3-1-2 2-1 1-2v-2l-1-4 9-5q3-3-1-6l-5 1-12 8-2 1q0-9 4-13l6-2 1-2-4-1 1-2 2-1 5-6 5 1h1l-8 3q-5 2-1 4l11-4v2l3 1 1-4 8 1 4 4 36 9h10l20-9 14-15 17-9q12-11 19-28 5-14 6-32l13-36v-10l3-15-2-11 1-2-2-10-1-1v-1l-4-13-4-6-3-3-1-1-4-4-1-1-5-4-1-1-13-7-14-24-7-6-23-8-15 4q-9 2-11-2l-30 10h-7l46-23zM323 397l-2 3 1 2v2l1 4 2 1-2 1 3 7-1 3q4 2 0 4l3 10 2-1v2l-2 1 1 2h2l-1 2 2 1-1 3h2v2h-2l4 16 3 5-1 4 2 4v-1l2-1-5-16 1-2-1-2-2-1 2-1-7-25-2-1 2-4-1-1v-1l-1-7-1-1v-1l-3-9 1-3zm19 77-3 2 1 4 2-1v3l-1 2 1 2 1-2h2v-1l-1-1v-1zm1 13-1 2 3 2-1 3q2 3 3 0l-2-6zm4 8v7h3l-1 2 2 2h1zm5 0 3 8-1 2 5 11h2l1 4-1 2h2l1 3v2l3 6 4 2 8 18 2 1-1 3h2l1 3h2l3 5-1 2h2v2h2v3h2v2l2-1 6 12h2l-15-24-1-1-4-7-1-1-22-39-7-17zm52 90-2 3 1 2h2v2l3 1-1 2 2 4 5 3h2zm10 18v4l5 2-1 2 7 9 1-2-1-2-1-1-5-8h-1v-1zm13 16-2 2h3q-4 2 0 4l2-1 1 7 4 1-6-11zm312 6v4h2v2l2 1-3-6zm-300 10-2 3 2-1v3h3v3l2-1zm86 120-1 2 11 4v-1l1-2-3 1v-2l-2 1v-1zm-139 72-1 2-6 4h4l4-2-1-2 2-1z"/><path fill="#f7f7f3" stroke="#f7f7f3" d="m557.5 130 26 8 4.5 3.5 6 11-3 2 6 12-1.5.5-17-21-2.5-1.5-2.5-3.5q-7-7.5-20.5-8.5l.5-1.5zm-15 9q12.5-1 18.5 4.5l-10.5.5-3-4q-6 1.2-5-1Zm-1 4 4.5 1.5-8.5 1.5 1-2z"/><path fill="#f7f7f3" stroke="#f7f7f3" d="M554.5 146q18.8-.8 25.5 10.5l-1.5.5q-16.3-7.7-41-7v1l8.5 1.5-8.5 15.5q-9.6.8-13 8l-.5-1.5 11.5-24.5zm-54 4 2.5.5-5.5 3.5-2-1-5.5 4.5 2.5-4.5zm31 1 1.5.5-12 20-4.5 12.5-1.5.5-4.5 8.5-1.5.5 1 2-.5 1.5 2.5-1.5 1.5-3.5 1.5-.5.5-2.5.5 2.5-6.5 15.5-2.5.5v2l-3 6 1 2-7.5 10.5-.5-6.5 10.5-20.5 1.5.5-.5-4.5-1.5.5-2.5 4.5-1.5-.5 21-44 5.5-5.5zm-16 1 .5 1.5-11.5 15.5.5-1.5z"/><path fill="#f7f7f3" stroke="#f7f7f3" d="m550.5 152 10.5 3.5-4.5 6.5-3.5-.5-1.5-2.5-3.5 2.5-.5 2.5-3 1-.5-1.5zm-63 3-2.5 3.5-2.5 3.5.5-1.5zm76 0 6 2h2l4 2h2l5.5 3.5 4 8v2l4 14-1 2q2.3 5.7 4.5 2.5l1.5.5.5 2.5 1.5.5q6.4 12.6 8 30l-5.5 15.5-1.5-3.5v-2l-1-20-3-12 2-5-2-1-.5-3.5-1.5.5v2l-.5 1.5-8.5-14.5 2-5-1.5-.5-4 2-4.5-6.5.5-1.5-2.5-.5v-2l-1-4 1-4-1.5-.5-4 6-8.5-3.5zm-66 1 1.5.5Q488.5 171 483.5 191l-.5-4.5 10-25zm23 2-.5 1.5-5 7v5l-13 26v2l-1.5 3.5-.5-4.5q3.4-25.6 18.5-39.5zm-32 2 .5 1.5-13.5 26.5-.5-3.5q4.3-14.7 13.5-24.5Zm118 9q15.2 6.3 24.5 18.5l8 16 3 11-1 3 1 19-4 23-9.5 24.5-.5-12.5-8-44-1-24q-4.7-19.9-12.5-34.5Z"/><path fill="#f7f7f3" stroke="#f7f7f3" d="M588.5 172q6.5 6 8.5 16.5l-1.5.5-3.5-2.5-1.5-10.5-1.5-.5zm-178 1 12.5 2.5-3.5.5-7-1-6 1v-1zm92 0 .5 1.5-10.5 32.5-.5-4.5q2.3-17.7 10.5-29.5Zm102 0q7.8 12.2 11.5 28.5l1 12h-1zm-121 2 .5 1.5-6.5 17.5-.5-3.5zm-34 2 .5 1.5-3.5 4.5-2.5-1.5zm97 1 .5 1.5-7.5 12.5-.5-1.5zm-73 1 .5 2.5-2.5 6.5-.5-2.5zm78 0 2.5 1.5-5.5 7.5-1.5-.5zm-141 1q19.3-.2 29.5 8.5l1.5 2.5 3.5 2.5 1.5 4.5 8.5 6.5 4 7-1 13 1.5 3.5 1.5-.5.5-15.5 4 7 2.5-1.5-4-11 3.5-4.5 1 3 1.5-.5 1.5-7.5 2-1 .5 1.5-1 2 3 7-4 20 1.5.5 6.5-22.5-.5-1.5 2 1 3-2 .5 2.5-1.5 7.5-1.5.5-3 20v2l3 16-1 2 1 2-1 3 1.5 5.5 2.5.5v8l4 18-.5 1.5 1.5.5-2 5 4 13-2-1-3.5-9.5-1.5-.5 1.5-2.5-1.5-.5 1-3h-2l-1-3 3-1 1-2-3.5-5.5-1 2-1.5.5 3 21 4 12-.5 1.5 1.5.5-.5 4.5-7-15-1.5-.5-.5-8.5-4.5 2.5v6l7 18q-1.5 3-3 0l-4.5-10.5-1.5.5 1.5-16.5 1.5.5-7.5-33.5-1.5.5q.1 17.4 6 29l-3 2-.5 4.5-3-5-3.5 2.5 1 14-5.5 10.5-1-7-1.5.5 1 3-1.5 5.5-5-1 1 3-6 1q-12.1.1-16.5-7.5l-3.5-5.5-5.5-4.5-9.5-14.5q-11.2-3.3-17.5-11.5-11.5-10.5-16-28l3-2-2.5-1.5-1.5.5-1-26v-2q-3.4-24.9 9.5-33.5 9.4-10.1 26-13Zm13.5 9-17 2-18 9-8 23 1 4-1 12v2l-1 3 10 24 19 22 5 3q5 2 2 5l4 1 1 2 2-1 2 3h1l-5-11 2-1 5 10q2 3 3 0l-4-8-12-9-11-12-8-26v-10l13-32-1-2q7 0 9-4l6 1v3l-1-1-5 3 1 8v1l-2-3-1-1-2 3 1 10 1 1-3-2-3 1 1 3 5 3q11-3 18-11l4 7-9 6-9 10-7 3-1 2 3 1-3 8-1-9-3 2 2 14v2q1 10 7 17l4 1v-1l-2-1-1-1v-2l8 4 5-2 6 1 3 10q2 7 14 5l4-4 5-12-1-4-10-6-2-2 7-15-1-2-4-2 1-2-1-4-4 3-6 7h-2l6-16 2 1 4-2-5-16-9-18-8-6-1-2zm56 77-1 3v2l-1 2 3 9h1zm77.5-84 1.5 3.5-6.5 9.5-1.5-2.5zm5 5 4.5 5.5-2.5 3.5-4.5-2.5zm7 8 2.5 7.5-2.5.5-1.5-5.5zm-48 2 .5 1.5-3.5 7.5-.5-2.5zm37 0 1 2 1.5.5-5.5 10.5-1.5-5.5zm-18 3 1.5 3.5-6.5 9.5.5-1.5z"/><path fill="#f7f7f3" stroke="#f7f7f3" d="m400.5 203 .5 2.5-4.5 6.5.5-1.5q-1-6.5 3.5-7.5Zm206 0 2.5 10.5h-1zm-42 2 1.5.5 2 4-5.5 6.5-3 2-.5-4.5zm-20 2 3.5.5-.5 1.5-1.5.5-3.5 9.5-2.5-5.5zm27 6 1.5.5 1 3-3.5 8.5-3.5-2.5zm-22 2 .5 3.5-2.5 9.5-2.5-1.5zm-183 4 .5 2.5-1.5 9.5-.5-9.5zm210 2 1.5.5-2 6v2l-1.5 2.5-1.5-.5zm-47 2 .5 2.5-3.5 5.5-.5-1.5zm26 4 .5 3.5-2.5 4.5-2.5-1.5 1.5-5.5zm9 0 2.5 6.5-1.5 2.5-3 1-1.5-.5-2.5 5.5-1.5-2.5 2.5-4.5 1.5-.5zm-64 1 .5 3.5-3.5 5.5-.5-1.5v-2l1.5-3.5 1.5-.5zm6 6 .5 1.5-7.5 14.5-.5-5.5zm34 1 1.5 3.5-3.5 6.5-1.5-3.5zm8 2 1.5.5 1 4-4.5 2.5-.5-2.5zm-55 1 .5 8.5-1.5 2.5-1.5-7.5zm82 1 1.5 3.5-3 1 2 1-2.5 4.5-1.5-3.5zm31 0 1.5 28.5-9.5 23.5-.5-2.5 4-15-1-2 2-5 2-26zm-19 1 5 15 1-5 2.5 1.5-1 6v2l-4 25h1l3.5-9.5 1.5.5-5.5 21.5-3.5 2.5-6.5 12.5-5 4 1.5-2.5 10-15 4-12-2.5-1.5-4 3-.5-6.5 3-32zm25 0 1.5 10.5h-1zm-190 4 .5 2.5-4.5 7.5.5-1.5zm86 2-.5 3.5-6.5 13.5-.5-5.5zm-78 1 1 6 5-4 .5 4.5-6 4-.5 1.5-1.5.5 2 13-4.5.5q-3.4-9.1-1.5-23.5l2.5-1.5 1 8 1.5-.5-1-6zm152 2 .5 9.5-2-1-.5-1.5-4 6-1.5-4.5 5-2zm-217 1 1.5.5-1.5 6.5-2.5 1.5-15.5 18.5-1.5.5-.5 1.5-3 2 1.5-2.5zm193 1 1.5.5-2.5 9.5-1.5-.5-1-3z"/><path fill="#f7f7f3" stroke="#f7f7f3" d="m422.5 253 .5 13.5 1 3-.5 3.5-2.5-.5-1-16zm176 0 .5 8.5-1.5 2.5-.5-6.5zm22 1 5.5 35.5-15.5 29.5-.5-1.5 7-24-1-4 3-6-1-8zm-230 1 5.5 11.5-3-2q-4.3-3-2.5-9.5Zm118 0 .5 2.5-3.5 5.5-.5-1.5zm41 3 1.5 2.5-2.5 6.5-2.5-.5zm-115 1 1.5 13.5-2.5.5-1.5-11.5zm75 1 .5 4.5-4.5 10.5-1.5-5.5zm-139 4 5.5 15.5-2.5-1.5-4.5 1.5-.5 1.5-1.5-.5 2-7-2.5-1.5-7 10-1.5-.5 1-4zm127 0 1.5 7.5-2.5 4.5-1.5-7.5zm82 5 1.5.5-1 2 2 1-.5 3.5-1.5.5.5 1.5-1.5-.5-2-4zm31 0 1.5.5v2l-2 19-4.5 11.5.5-1.5zm-100 4 1.5.5 1 6-4.5 8.5-1.5-5.5zm50 2h2l1.5.5-3.5 7.5-1.5-2.5-1-3zm-60 1 1.5.5 1 4-2.5 6.5-2.5-8.5zm75 0 3.5 8.5-1.5.5-2.5-1.5-2-3zm-9 3 1.5.5-2.5 7.5-1.5-2.5zm-220 3 .5 1.5-10.5 21.5-2.5 1.5-1.5 5.5-.5-17.5 6.5-8.5-.5 1.5-1 3zm167 2 3.5 7.5-4.5 7.5-1.5-.5-1-8zm58 0 3 4 1.5.5v3l-4.5 5.5-2.5-6.5zm33 0 .5 4.5q-2.3 20.7-12.5 33.5l-.5-6.5 2-9zm-227 1 8.5 10.5-1.5 2.5-1.5-.5-3.5-7.5-2.5.5-.5 1.5-1.5-.5-1-2zm118 0 8.5 22.5-2-1zm-124 1 1.5.5-.5 2.5-1.5-.5-2.5 7.5-1.5-.5zm165 4 1.5.5-2 1 1 2-3.5 7.5-2.5-4.5 1.5.5 1.5-.5-1-2zm-18 6 .5 2.5-3.5 7.5-.5-3.5zm-152 1 .5 2.5-3.5 8.5-1.5-.5zm37 1 9.5 7.5-1.5-.5zm221 0 .5 3.5q-4.9 30.1-23.5 46.5l-8 4 2.5-3.5zm-232 1 10.5 9.5-1.5.5-7.5-5.5zm-64 1 1.5 17.5-5 14 3.5 1.5 1.5-.5-4 18 3 2 2 21v2l3 17h-1l-4.5-7.5-1.5-.5-9-14-2-13 1-37zm212 0 1.5 2.5-3.5 7.5-2.5-4.5zm-171 2 1.5 3.5-2.5 6.5-1.5-3.5zm17 0 4.5 7.5h-1zm135 0 4.5 5.5-4.5 7.5-3.5-5.5zm-144 1 2.5 6.5-2.5 4.5-2.5-7.5zm-27 1 .5 1.5-3.5 9.5-.5-4.5zm214 4 1.5.5-1.5 2.5-1.5.5-3 7 1 2h-1l-.5-1.5-1 2-3.5-1.5zm-167 2 5.5 7.5 2 7-2-1zm131 0 1.5 2.5-4.5 9.5-1.5-3.5zm-163 3 1.5 3.5-4.5 9.5-1.5-.5zm141 0 4.5 6.5-3-2zm9 0 4.5 7.5-1.5 2.5-1.5-.5q-3.2-3.2-1.5-9.5Zm-135 3 1.5.5 4 8-2.5 3.5-4.5-9.5zm103 2 5.5 10.5-2-1zm98 0-3.5 4.5-1.5 3.5-1.5-2.5 3-2 .5-1.5zm4 1 .5 2.5-1 3 2-1 2.5-4.5.5 1.5q.2 10.2-5.5 14.5l-8 5-.5-1.5 6-9-3-1zm-245 2 3.5 2.5-2 17 1 9-2-1zm29 0 .5 12.5-7.5 15.5-.5-8.5zm160 0 3.5 2.5-2.5 6.5-2.5-5.5zm-109 3 2 3 1.5.5 2.5 3.5 3.5 2.5-2.5-1.5-2.5.5 2 5-2-1zm70 1 2.5 4.5 2.5 3.5 1.5-.5 1 3-.5 1.5 2.5 1.5 1 2-1.5.5-1-2-3.5-2.5zm52 0 5.5 3.5-6.5 14.5-3.5-2.5zm29 0 3.5.5-6 9 1.5.5 1-3 1.5-.5 1.5-2.5 1.5.5-4.5 13.5-13 7 2-3 2.5-1.5 4-8-5 4-3.5 5.5-.5-3.5 7.5-16.5zm-194 1 3.5 8.5-1.5 3.5-3.5-1.5-1-6zm160 0 .5 2.5-3.5 6.5-.5-3.5zm15 3 3 1 4.5.5-7.5 12.5-3 2-.5-6.5zm-71 1 2.5 1.5 5 9-3-2zm-87 3 5.5 8.5h-1zm14 0 7.5 12.5-2-1zm56 0 1.5 5.5-2 1-.5 1.5-2.5-5.5zm126 2-1.5 2.5-2.5 3.5-1.5-.5 1.5-2.5zm-234 2 1.5.5-1.5 12.5-1.5-.5zm99 0 1.5.5-1 2 1 5h-1l-4-6zm-65 2 3.5 2.5 3 6-1.5.5q-5.6-2.6-5-9Zm45 0 4.5 1.5 1 7-3-2zm-64 1 2.5 11.5-5.5 11.5-1.5.5-.5 3.5-2.5-.5zm103 2 6.5 9.5-1.5.5zm102 1-3 4-7 3 1-2zm-112 3 1.5.5 4 8-2.5.5zm129 0-1.5 2.5-5.5 6.5-2.5-.5zm-73 1 5.5 4.5-.5 1.5-4.5-3.5zm-188 1q5 4.5 4.5 14.5h-1zm55 0 5.5 3.5 2 4-4.5 8.5-1.5-.5-.5-4.5-1 3-1.5-.5-2-7zm-38 2 2.5 5.5v2l-1 9 1.5 2.5 1.5.5 1 4-1 3 3 8-3.5 10.5q-5.5-19.9-4-45Zm166 2 5.5 6.5-3.5.5-4.5-5.5zm-54 1 1.5.5 1 3-5.5 1.5-1.5-3.5 1.5-.5zm-14 1 1.5 2.5-3.5 7.5-6 2-1.5-3.5v-2l.5-1.5 4 3 2.5-1.5-1-5zm132 5 3.5.5-10.5 11.5q-10.2 9.3-29 10l-28.5-6.5.5-1.5 6-1 8.5 2.5.5 1.5 3 1 10.5-3.5-.5-1.5-6 1-.5-1.5 10.5-6.5 12-2-1 2-8.5 4.5.5 1.5 9-4 2 1zm-182 1-.5 1.5-2.5 6.5-1.5-.5zm4 1 1.5.5 1 3-1.5 2.5-1.5.5-1.5 3.5-2.5-1.5zm-19 1q4.5 1 3.5 7.5l-2 1zm50 2 4.5 5.5-7 6-1.5 2.5-2-1-2 1 .5-1.5zm-62 1 1.5.5-3.5 7.5-.5-3.5zm47 0 3.5 1.5 2 5h-1l-.5-2.5-5 6-2-1-1 2-3.5-.5 3.5-8.5z"/><path fill="#f7f7f3" stroke="#f7f7f3" d="m543.5 365-1 2-3 2-11 1-.5-1.5zm-210 1 12.5 31.5 5 19h-1l-12-18zm42 0 .5 3.5-4.5 11.5-1.5-4.5zm24 10 3.5 1.5q.5 15.5-3.5 26.5l-2.5-4.5v-2l-2-6 1-2-1-5zm9 3 7.5 1.5-.5 1.5-1.5.5-.5 1.5-1-3-1.5.5-2 10-2.5 2.5-.5-4.5zm15 2 2.5 1.5-5.5 11.5-1.5-.5 1-8zm-59 2 4.5 3.5 1 3-1.5.5-3-6zm53 6 .5 3.5-1 3 1 3-2.5 5.5-2.5-1.5 2-5-1-3zm-24 3 .5 2.5-1 2 2.5 5.5 1.5.5-.5 1.5-7.5-6.5 2.5-4.5zm-16 5 2.5 1.5-1.5 10.5-3.5-4.5.5-1.5-1.5-.5zm97 0 .5 1.5-3 5v2l-1.5 4.5-1.5-.5-2-5 1.5-4.5 3-2zm-115 1 3.5 6.5-2 1q5.6 3.9 6 13l-1 3 3.5 7.5 1.5.5-1 2 2 4-1 2 5 3v2l2 10 4 6-1 2 3 5-3-2-18-40-4-14 1-2zm51 1 1.5 4.5-1 3v2l1 7q-1.5 3-3 0l-2-13zm-24 3 9.5 7.5 1 2-4.5 6.5-1.5-.5zm-45 5 14.5 24.5 9 33h-1l-16-32q-5.8-11.4-6.5-25.5Zm43 16q3.5 1 2.5 6.5l-.5 1.5 1.5.5 4 12-2.5 1.5-1.5-2.5 1-3-2-1-1-2 1-4-3-6v-2zm31 0 2 4 1-2 .5 1.5-2.5 6.5-1.5-.5-1-7zm-2 22q5.9 7.6 7.5 19.5v2l-.5 1.5-1.5-.5v-4l-7-16zm-44 2 26.5 60.5-2-1Q377.6 480 369.5 447Zm76 3 1.5 3.5-2.5 6.5-.5-6.5zm5 5 1.5 6.5-3.5 9.5-1.5-6.5zm-53 4 .5 2.5-1 3 4 6-1 2 .5 1.5-1.5-.5-4-9zm92 3 21.5 41.5 10 24-2-1q-18.3-30.3-29.5-64.5Zm-35 2 1.5.5 2 8-1 3-1 4 1 3-1.5 2.5-3.5-11.5zm24 9 3.5 10.5-1.5 8.5-3.5-1.5.5-1.5 1.5-.5-3-7zm-86 2 1 3 1-2 .5 2.5-1 2 6.5 12.5 1-3 1.5 3.5-2 1 .5 1.5 2-1 2.5 5.5v8l-.5 1.5-15.5-32.5zm73 0 .5 5.5-5.5 17.5-1.5-3.5 2-1-1-5 2-10zm-62 4 1.5.5 3 11-2-1zm23 1 1 3 1.5-.5-1 2 1 3h-1zm43 0 1.5.5-1 3 1 3-3 9 1 2-2.5 5.5-.5-11.5zm16 5 4.5 8.5-3.5 11.5-2.5-1.5-1-4zm-54 3 13.5 29.5-.5 2.5-2.5-1.5 1-2-5-4-5.5-18.5-2 1-.5-1.5 1-3zm42 4 2 5 1-2 1 2 1.5.5-2 6v2l-2.5 9.5q-5.4-2.6-4.5-11.5zm18 7 1.5 6.5-2 1v2l1 5-1.5 3.5-1.5-.5-1-5 2-3v-2z"/><path fill="#f7f7f3" stroke="#f7f7f3" d="m513.5 502 28.5 56.5 7 10-1.5.5q-23.5-27.9-34-67Zm-66 1 1.5.5 3 8h-1l-.5-1.5-1.5-.5-2-4zm-65 1 3.5 8.5h-1zm99 3 2.5 5.5v6l-1.5 6.5-4.5-5.5zm-89 2q11.1 15.9 17.5 36.5l-2-1zm103 2 1.5.5-1 2 3 1 1 2-2.5 1.5q-3.7-2-2-7Zm-94 1 13.5 26.5-1 2 1.5 2.5 1.5.5 8 17-.5 1.5 2.5.5-2.5 1.5-10.5-17.5zm51 1 5.5 10.5-1.5.5-2-4-1.5-.5zm17 0 4.5 7.5v4l-2-1-4-9zm25 4 1.5.5 2 7q-4.7 4.3-3.5 14.5l-1.5-.5-2-4 1.5-6.5 2 1 .5-1.5-2-6zm-82 2 2.5.5 4.5 11.5 2.5.5-1 5v2l-.5 3.5-9.5-20.5zm74 1 1.5 3.5-1 4 1 4-2-1-1-5zm-29 5 2.5 1.5 4 10h-1zm20 0 3.5 8.5-1.5 4.5-3.5-10.5zm-86 6q20.9 28.6 34.5 64.5l24 36-19-18q-27.2-34.8-39.5-82.5Zm60 2 1.5.5 4.5 11.5 1.5.5-.5 2.5-6.5-2.5 1-2-2.5-5.5-1.5-.5 1.5-2.5 1.5-.5zm32 1 2.5 1.5 1 6-1 3 1 2-2 1-3-6v-2zm16 1 2 3 1.5.5-1.5 8.5-1-2-1.5-.5-1-7zm15 6 3.5 6.5-2.5.5-.5-2.5-1-2zm-23 1 1.5 10.5-3.5 1.5.5-1.5q-2.2-8.2 1.5-10.5Zm16 1 2.5 1.5-1.5 6.5-1.5-.5-1-2 2-4zm103 14 .5 2.5-17.5 15.5-.5-1.5 10.5-12.5zm24 0q5.8-1.2 7 2l5-1 27 8 7.5 6.5 8 11-1.5-.5q-10.5-8-26-11l-11-9-16-4-5 2v-1zm-96 4 1.5.5 3 6 18 19-1.5.5-11.5-9.5z"/><path fill="#f7f7f3" stroke="#f7f7f3" d="M632.5 563q17.6-1.1 24.5 8.5l-1.5.5-5-1-18 8-6.5 6.5-1 7 1.5 2.5 2.5-1.5.5-1.5 1.5.5-1 6 3 12-1 3 2 4v2l.5 2.5 1.5-.5-1 3 1 3 3 8 .5 2.5 1.5-.5-.5 1.5 1.5.5-.5 1.5 3.5 1.5-1 2 2.5 5.5 3.5.5-2 4q1.5 3 3 0l.5-1.5 3.5 1.5 5.5 8.5 6 2-1-3 4.5-2.5 1-2-5.5-9.5-6-1-4 6-12.5-19.5 1.5.5q6.9.9 8.5-3.5 1-6.5-2.5-8.5l-8-2-3 4q-5-6.5-4.5-18.5h1l.5 1.5 2-1-.5 1.5 4.5 8.5.5-2.5-8-15v-8l4-3 .5 2.5 3.5-1.5 1.5-2.5 13 1 17.5 11.5q15.3 16.2 26 37l4 11q-.6 15.6 4 26l-5 7v2l.5 1.5 7.5-4.5 6-10v-11l-2.5-4.5-1.5.5.5-6.5 1 3 2.5-1.5q-.8-19.2-9-31L688.5 591 673 578.5l1.5.5 19.5 10.5 27 39q6 7 4 22l-2 10-1 28v2l-6.5 9.5-4 1 .5-1.5 8-11-1.5-1.5-6.5 6.5-.5 1.5-14 1q-21.6-4.4-35.5-16.5l1.5.5 14 5 8.5-4.5-.5-1.5-4 2-2-1-4 1-14.5-8.5-.5-1.5-2.5-1.5-5-8 .5-1.5-2.5.5-.5 4.5q-20.1-16.4-27-46l-1.5.5 1-3 1-10-2.5-1.5-1.5 4.5 1 2-1.5 3.5-3.5-10.5 1-2-1-8 5-9-3-1q.2-14.3 9.5-19.5zm17.5 33-6 5 2 6 5 3q6 0 8-3l-1-5-5-6zm27 11-4 2-3 4 1 3q2 4 9 4v-1l2-1 2-3-2-5zm-11 18-2 3h-1l-1 6 11 6 2-7-2-4zm24 9-5 7 1 4 5 3 4-1 3-4-1-4zm-4 24-5 5 1 5 6 3h4l3-4-1-5q-2-4-8-4Zm10 27-1 2h-1l2 3h4l-1-4-2 1zM451.5 567l1.5.5 3 7-2.5.5-1-3-1.5.5-1-2zm16 0 1.5.5.5 1.5 1.5.5-1.5 3.5-3.5-1.5.5-1.5 1.5.5zm12 0 7.5 13.5-2.5.5-4-9-2.5-1.5zm-45 1 4.5 7.5-1.5.5zm171 9-.5 1.5-3.5 15.5-2.5-1.5 3-9-1-2zm8 0 1.5.5-5.5 9.5.5-1.5zm-182 4q12.6 11.4 18.5 29.5h-1q-11.2-13.2-17.5-29.5Zm23 0 1.5 2.5v2l1 5-2-1-3-7z"/><path fill="#f7f7f3" stroke="#f7f7f3" d="m635.5 581 1.5.5-5 4-3.5 4.5 2.5-3.5zm58 0q17 14 25.5 36.5h-1zm-95 3-.5 1.5-4.5 10.5-6.5-.5 1.5-2.5zm-150 2 6.5 13.5-1.5.5-4.5-7.5zm41 0 4.5 7.5h-1zm122 1 .5 9.5-1.5 10.5-1.5-16.5zm-55 8 7.5 2.5-1.5 2.5-5.5-2.5zm34 3 1.5.5-6.5 10.5-.5-2.5zm8 0 .5 5.5v2l2 20-2-1q-4.1-8.9-3-23zm-136 1 2 3 2.5.5-3.5 1.5-1.5-1.5v-2zm131 2 .5 1.5-2 7 1 3-2.5 10.5-1.5-.5 1-11-1-3zm88 0 9.5 6.5 12 20-1.5.5-3-4-1.5-.5zm40 6 6.5 10.5 2 13h-1zm-106 1 4.5 17.5 3 4-1.5.5q-7.1-8.1-6-22Zm84 1 9.5 16.5 1 8-2-1-9-20zm-106 8 3.5 14.5-4.5 3.5-1.5-6.5zm11 0 12.5 31.5-1.5.5-11.5-23.5zm-93 1 24 13 19.5 1.5-9.5 11.5-1-5-1.5.5-1.5 7.5-2-2q-2 5-4 2l-4.5-2.5 2-7-1.5-.5-4 8-2.5-1.5-1.5-2.5-1.5-.5-12-21zm60 1 .5 4.5-5 6-6.5 15.5-2-10-1.5-.5 1.5-2.5 2.5-1.5 8.5-10.5z"/><path fill="#f7f7f3" stroke="#f7f7f3" d="M602.5 630q4.4 14.1 14 23l4.5 2.5 3.5 9.5 2.5.5 1.5 3.5 1.5.5 5 8-1.5.5-1-2-1.5-.5-.5-2.5-3.5-2.5-1.5-2.5-1.5.5-.5 2.5-2-1-.5 1.5 9 14-1.5-.5-3.5-2.5-.5-1.5-1.5-.5-5-10 1-2-2.5-1.5-.5 9.5 13 21-5.5-4.5-7.5-5.5-16.5-30.5-1.5 2.5 9.5 15.5 1.5.5 3 7-1.5-.5-2.5-1.5q-10.2-11.3-15-28h1l1.5 3.5 3 1 .5-1.5-2.5-3.5-1.5-.5-2-10 5.5-9.5zm-120 3 2 5 2.5.5 1 2-2 1-.5-2.5-1.5.5zm87 0 2.5 8.5-1.5-.5-3.5 2.5-2 7 2 4 2.5 7.5 2.5.5-3 1 9 22-4.5-3.5-2-1-3 2q-5-7.5-5-20l-1.5-.5 1-12zm-100 2 8.5 15.5-2-1zm29 1 2.5.5-2 5 1 2-1.5 3.5-1.5-.5-1-5v-2l.5-2.5zm60 4-.5 1.5 1 8-4.5 15.5-7.5-3.5 2-7zm-6 2-1.5 2.5-6.5 10.5-.5-1.5q1.3-8.7 8.5-11.5Z"/><path fill="#f7f7f3" stroke="#f7f7f3" d="m571.5 643 3.5 2.5 13 32 7 11-1.5.5-2.5-1.5-6.5-9.5-2.5-1.5 2-1-3-1-.5-1.5-4-1-.5 1.5 3 1-.5 1.5-2.5-.5-1-3 1-3-1.5-3.5-1.5-.5 1-2-.5-1.5 1.5.5.5 2.5 1.5-.5-5-9-2-10zm6.5 22-2 2 3 5 3 1h1zm-73.5-19 3.5 2.5v2l.5 1.5 1.5.5-3 2-.5 2.5-3.5-1.5-1-2zm224 3q3.9 8.6 1.5 23.5l-2.5 7.5-.5-26.5zm-248 2 2 4 1.5.5 2 5h-1zm150 1 1.5.5.5 1.5 2.5.5-.5 1.5 2.5 1.5 8.5 10.5 3.5 2.5 4.5 5.5 3.5 2.5 2.5 3.5 28 14 19 3 2-1-3 4h-12l-23-8-23.5-21.5-8.5-11.5-6.5-5.5zm-99 7 3.5 6.5-4.5 1.5-2.5-5.5zm-13 5 2.5 1.5q3.4 2.6 2 10l-1.5.5-3.5-7.5v-2zm28 2 2 3 2-3-.5 3.5-1 2q3.3 1.2 2 7l-1.5 3.5-3.5-9.5 1-2zm-60 1 5.5 3.5 2.5 5.5 3.5 1.5 3.5 6.5 1.5.5.5 2.5 2.5.5.5 2.5 2.5.5.5 2.5 1.5.5 1.5 3.5 1.5.5-2.5.5-17-21-2.5-1.5zm154 4 7.5 8.5-7-6zm-141 1 3.5 1.5 1 5h-1z"/><path fill="#f7f7f3" stroke="#f7f7f3" d="m579.5 680 2 1 2-1-.5 1.5.5 2.5 1.5.5 3 11-6-5zm-44 1q5.5 2 3.5 11.5h-1l-.5-1.5-2.5-1.5-1-4zm18 0 2.5 7.5-1 4v2l-.5 1.5-2.5-1.5-1-8zm18 6 7.5 6.5 4 6-1.5 1.5-3.5-1.5-.5-2.5-1.5-.5zm54 1 2 3 1.5.5 2 4-1.5.5zm26 1 14.5 9.5-1.5.5q-9.5-3-13-10Zm-107 1 2.5 1.5 3 12-4.5-3.5-2.5-1.5 1-4-1-3zm22 6 11.5 12.5-1.5-.5-1.5-.5zm-7 1 4.5 3.5 6 11-1.5-.5-8.5-7.5zm33 0 8.5 10.5-1.5-.5-4.5-3.5zm29 0 10.5 7.5-2.5.5-2.5-1.5-2.5-3.5zm110 2 2.5.5-13.5 12.5-.5-1.5 7-6 2.5-4.5zm-92 6 9.5 6.5-1.5.5zm-119 1 5.5 4.5 2 3zm62 1 5.5 6.5-3-2zm75 1 8.5 3.5-.5 1.5zm33 1 2 1 6-1 .5 1.5-3.5 2.5-5.5-2.5zm-145 3 6.5 3.5.5 1.5q2.3-3.2 4.5 2.5l.5 1.5 2.5 1.5-1.5-.5q-8.5-1.5-12.5-7.5zm-12 3 6.5 3.5v2l4 7-2.5-1.5-10.5-8.5.5-1.5zm73 0 7.5 4.5 1 2-3.5.5zm54 0 9.5 4.5-1.5.5-8.5-3.5zm29 0 4.5.5-6.5 3.5-3.5-1.5.5-1.5 5 1zm-116 2 5 6zm137 1-8 9-10 6-1.5-2.5zm-148 1 6 7-3.5-2.5zm20 1 7.5 5.5-.5 1.5-7.5-5.5zm-10 3 6.5 5.5-1.5.5-4.5-3.5zm-23 4 4 5 3.5 2.5-1.5.5-7.5-5.5zm13 1 6.5 4.5-.5 1.5-6.5-4.5zm82 2 7.5 3.5-3.5 2.5zm-105 2 7.5 6.5-2.5-1.5zm97 1 7.5 4.5-3.5 1.5zm44 3 1.5.5-1 8 1 3h-1l-2.5-7.5-1.5.5-.5 2.5-.5-3.5zm-86 1 9.5 4.5-1.5.5-8.5-2.5zm28 3 5.5 3.5-.5 1.5-5 1 .5-1.5zm-5 3 2.5 3.5-21.5 3.5v-1l4.5-1.5.5-2.5 10 1zm68 1 2.5 1.5 1 13-2-1zm-39 5 1.5.5-10.5 3.5v-1zm46 2 9.5 10.5-6.5 2.5zm-134 3q7.7 3.8 20 3l19 7q6-4 17-3l-1 2q-13.4 7.6-32 10L565 761.5l-.5-1.5-1.5-.5-.5-1.5zm150 17 25.5 19.5q4.1 4.5 3 14-2.9 11.1-10.5 17.5-3.4-2.6-2.5-9.5 4.2-3.8 3-13l-4-9-13-15zm-235 29 3 1 4-1 22 7 6.5 6.5 1 11q-7.3 4.2-9.5 13.5l-.5-2.5 1-14-5.5-8.5-8-2-6.5 5.5q-5.6 6.9-4 21l1 3-1.5-.5-13.5-5.5q.8-15.8-7.5-22.5l-5-1-3.5 2.5-1 13 2 6-1.5.5-5.5-14.5 4.5-10.5 4 1zm211 4q17.8-.8 24.5 9.5l2 4-13.5 5.5h-11l-10.5-7.5-2-4 1.5-2.5z"/><path fill="#f7f7f3" stroke="#f7f7f3" d="m451.5 816 4.5 3.5 3 12-1.5 2.5-4.5-1.5q-3.6-6.3-1.5-16.5Zm37 0q5.5-1 6.5 2.5 3.7 4.3 2 14-1.1 9.4-6.5 14.5l-7.5-4.5-1-17 4.5-8.5zm49 1h7l12.5 9.5 2 8-1 2 1 2-14 15-2 9q2.3 9.2 9 14l-5.5 1.5q-13-1.5-20.5-8.5l-3-5q13.4-10.6 16-32l-5.5-6.5-8-1-6.5 5.5q-6.1 5.4-5 18l3 14-2.5-1.5-7.5-4.5-4-15 6.5-11.5.5 4.5-1 3-1 9 1.5 2.5q3.9-7.6 2.5-20.5l2.5-2.5zm124 1 11.5 6.5q-10.6.9-15.5 7.5-3.2-1.7-1.5-8.5l2.5-4.5zm59 0 2.5 5.5-1.5 3.5-2.5-7.5zm-6 6 2.5 8.5-8.5 11.5-1.5.5-2 5 7-6 .5-1.5 2.5-1.5.5-1.5 1.5-.5.5-1.5.5 7.5q-2.6 10.9-10.5 16.5l-8 3q-.1-16.9-7.5-26.5l1.5-.5 5 1 14.5-11.5zm-299 2 4.5 9.5-3.5 1.5-2.5-8.5z"/><path fill="#f7f7f3" stroke="#f7f7f3" d="m683.5 827 10 2 14-2-1 2q-4.3 6.7-17 5zm-156 2 6.5 3.5 1 4q-3.4 14.6-13.5 22.5-3.6-6.9-2.5-18.5l6.5-10.5zm142 1q10.2-.2 14.5 5.5l9 15 1 12-2.5.5-7.5-4.5q-3.1-12.4-11.5-19.5l-13.5-2.5zm54 1 1.5 10.5q-.8 12.7-7.5 19.5l-6 4 6.5-7.5q6.6-9.4 5.5-26.5Zm-293 6 10.5.5-15.5 4.5-.5-3.5zm33 1 16.5 8.5-1.5.5-16.5-6.5zm36 1q-.6 10.1 3.5 15.5l-1.5-.5-6.5-3.5z"/><path fill="#f7f7f3" stroke="#f7f7f3" d="M663.5 840q9.1.4 12.5 6.5l4 9-1.5-.5-15.5-13.5zm-226 2 4.5.5q2.1 9.6-1.5 13.5-10.9-.1-15.5-6.5l1.5-4.5z"/><path fill="#f7f7f3" stroke="#f7f7f3" d="M444.5 842q7.5-2 9.5 1.5l1 3-5.5 6.5-5 2-.5-2.5 1-6zm212 0q2.2 11.8 11 17l1.5.5.5 1.5 13.5 6.5-5.5 1.5q-11.9-2.6-17.5-11.5l-5-12zm-244 1 1.5.5-.5 2.5-7 3q-3-1.5 0-3z"/><path fill="#f7f7f3" stroke="#f7f7f3" d="m660.5 843 11 12 10.5 6.5-.5 2.5-14.5-9.5zm-199 1 19.5 7.5 1 2-5.5 1.5q-10.4-2.1-15.5-9.5zm102 3 4.5.5 3 11-7.5 12.5-7 3-2.5-11.5 6.5-13.5zm-161 2q3 1.5 0 3l-8 5 1.5-2.5 1.5-2.5zm13 0 4.5 2.5-3.5 9.5-5.5-4.5-2-4zm213 2q8.6-1.1 10.5 4.5 6.5 7 5 22l-5.5 17.5-9.5-6.5-2-3 7-16v-2q1.4-9.4-3.5-12.5l-4.5-2.5zm-77 1-.5 1.5-2 9 1 5h-1l-2-10zm-62 2 14 5 6.5 6.5q-2 3.5-9.5 1.5l-10.5-8.5zm-86 1 4.5 1.5 5.5 6.5 1.5.5-5.5 7.5-11 1-9.5-5.5zm20 0 16.5 6.5-3.5 4.5-8 1-7.5-3.5z"/><path fill="#f7f7f3" stroke="#f7f7f3" d="m624.5 856 5.5 3.5 1 10-4.5 12.5-1.5-.5-3-12v-10zm-23 6q6.5-1 8.5 2.5l2 9q-2.6 12.9-11.5 19.5l-4 2q-3.9-7.6-2.5-20.5.1-8.4 5.5-11.5zm84 1 7.5 3.5-5.5.5zm6 9 .5 1.5-7.5 12.5.5-1.5q-2.5-9 1.5-11.5zm-69 18 3.5 2.5 1.5 2.5 7.5 5.5q-4.4 7-13.5 9.5l-2.5-1.5-5.5-6.5-1.5.5 6 8-10.5.5-7.5-6.5-2-4 2.5-1.5v2l2-1 6 1zm57 7 .5 2.5q-2.1 9.9-9.5 14.5-5.7 5.8-19 4l-14-1-10.5-3.5.5-1.5 13-10q7.4 5.1 21 4 11.8-1.7 18-9Z"/><path fill="#7f7e77" stroke="#7f7e77" d="m543.5 114 .5 1.5-36.5 18.5-1.5-.5-.5 1.5-5 3-2.5.5 2 1-3.5.5h-2l-4 2-3 1-4 2-.5-1.5zm-12 15 5.5 1.5-.5 1.5-4 1-3 1-4-1-3 2h-2l-1.5-.5zm5 13 4.5 1.5-4 2 13 2-11.5 1.5v-1l3.5-.5-6-1 2-3zm13 0 1 2 7.5.5-7.5.5zm-40 5-1 2-2.5 1.5 2 1-2.5.5-2-1-4 6-2-1-4 3-1-2-2.5 3.5 1.5-.5 2.5.5-4.5 9.5-1-3-1 2-1.5.5v2l-.5 1.5-1.5.5 1 2-2-1-1-2 3-1-1-3 3-1-1-2h2l-1-2 3-2q-1.7-3.2-3.5.5l-1.5.5-.5 2.5-1.5.5-.5 2.5-2-1-2.5 1.5.5 1.5-1.5-.5 1.5-3.5 1.5.5 1-2v-2l1.5-2.5 3 1 3.5-2.5 1-3q-3.5 4.9-7 3l5-3 .5-1.5 3-1 .5 1.5-1 2 3-1 .5 2.5 1.5-3.5.5-1.5 3 1 3-4-1.5-.5zm11 0 4.5 1.5-1.5 3.5-4 3-.5-1.5 1.5-2.5 2.5-.5-3.5-.5-2.5 1.5-.5 1.5-.5-1.5 3-2zm-61 1-2 5-2.5-.5zm76 1 13.5 1.5-3 1-.5 2.5v-2l-10-2-1 4-1.5-.5 1 2-2 1v2l-5.5 11.5-1.5.5.5 1.5-1.5.5.5 1.5-1.5.5 1.5 1.5 5.5-4.5-9 8v2l-4.5 8.5-1.5-.5 1 4-1.5 2.5-.5-1.5 1-2-1.5-.5-2.5 4.5.5 1.5-2-1-1 5-1.5-.5.5 2.5 1.5-.5-1 2 2 1 2.5-6.5.5 1.5-3 8v2l-1 2 1 9h-1l-.5-2.5-2.5 4.5 3 1-1 3 1 4-1 2 .5 1.5-1.5.5.5 1.5 1.5-.5-.5 4.5-1-2-2 3 .5-1.5 1-3h-2l1-2-4 3-2.5 4.5.5-1.5-.5-1.5-1.5-.5 3-4-1-3 1-5h-1l-.5 1.5-2 1-1.5-5.5h1l.5 2.5 7.5-11.5v-2l1-2-.5-1.5 1.5.5 1-3-1-3-.5-1.5-1.5 3.5 1 2h-1l-.5-1.5-6 9-.5-7.5 2-4-1-5h1l.5 2.5 2.5-4.5v-2l12-25v-5l5-7-1.5-.5-5.5 4.5 15.5-11.5-4.5 5.5-8.5 17.5-2.5.5 2 1-8 18 .5 1.5-2.5.5-2 5 1.5.5 3-5 2.5-1.5-1-2 2-1 4.5-8.5 1.5-.5v-4l16.5-29.5zm15 1 1.5.5.5 1.5 5-1 2.5 1.5.5 1.5 1-2 10.5 2.5.5 1.5 2-1 1 4-5-3h-2l-5-1-2 1-10.5-3.5zm-76 1 1.5.5-2.5 3.5-4 1 .5-1.5.5-1.5q2 3 4-2Zm-20 3 2.5.5-3 2 .5 3.5-6 3v-1l1.5-.5.5-1.5 2.5-.5-.5-1.5 1.5-.5v-2z"/><path fill="#7f7e77" stroke="#7f7e77" d="m544.5 155 1.5.5-1.5 3.5-1.5.5-2.5 7.5-2 1-.5-1.5zm-78 1-2 3-4 2-1.5-.5-2.5 3.5v-2l-3.5 2.5.5 1.5-2-1-1 3v-2l-1.5-.5zm126 1 4 5 2-1 1.5 2.5-3.5 1.5-1.5-1.5zm-42 2 2.5 1.5.5 1.5 3.5.5-3.5.5-2-3-1.5.5.5 1.5-2 1-.5-1.5zm-53 1v2l2.5.5-.5 1.5-3.5-.5-1 2 .5 1.5-2 1 .5-1.5zm105 3 15.5 8.5.5 1.5 5.5 3.5-1.5.5-3-2v2l-3-4h-2l-6.5-3.5 2-1-3.5-1.5-1 3-.5-2.5.5-1.5zm-98 4 2.5.5-3.5 6.5-2.5-.5 2.5-4.5 1.5-.5zm81 0 4.5 5.5-1 3 1.5.5 2.5.5h-2l2.5 11.5 4.5 1.5-.5 4.5-1.5-.5-.5-2.5-2 1-3.5-4.5v-2l-4-14v-2zm-29 2h2l4.5 3.5-4-1 .5-1.5-2 1zm-66 4 .5 1.5-4.5 9.5-.5-1.5zm41 1 .5 1.5-6.5 5.5zm91 4h2l4.5 3.5.5 1.5 3.5 2.5 4 6 4 13-.5 1.5 1.5.5 2 10-1 2 2 11-1.5 10.5-1-3-1 3-.5-2.5 1-19-1-3v-2q-4.3-23.8-18.5-35.5Zm-78 2-.5 1.5.5 1.5 1.5-.5-2.5 3.5.5-1.5-.5-1.5-1.5.5zm-7 2 2.5.5-2.5 3.5-1.5-.5 1 2-2 1v2l-.5 1.5-1.5.5 1 2-2.5 4.5-2.5-.5 1.5-2.5 1.5.5-1-2zm16 0-1.5 2.5-3 4-.5 2.5-1-2-2 5-1.5-.5 2.5-6.5 2 1zm-82 1 2 3 1.5-.5.5 2.5 1-2 .5 1.5-1 3 4.5 9.5.5-2.5-2-4 2 1 .5 2.5 1-2 .5 1.5-2 4 2.5 1.5 2-6 .5 2.5-.5 5.5-1-2-5.5 3.5-.5 1.5-.5-1.5q3.8-2.5 1-5l-.5-2.5-2 3-1.5.5.5 1.5-.5-2.5-.5-2.5-1 2-.5-1.5 1-2-1.5.5-1.5.5-1.5 7.5-1.5-.5-.5-2.5-4 6-1.5-2.5 6-5 3-4-2-1 1.5-9.5 2 3 .5-1.5zm88 0 2 3 6.5 5.5-1.5 2.5.5-1.5-4.5-5.5-2.5 6.5 5 3-5.5 2.5-1-2-5 11-1.5-4.5h2l-.5-1.5-1.5-.5 1-3-2-4 3-1z"/><path fill="#7f7e77" stroke="#7f7e77" d="m482.5 187 1.5 6.5h-1l-.5-1.5-1.5.5 1-2-1-2zm-59 2 4.5 2.5.5 2.5 2.5 1.5-1.5-.5-2.5-1.5-1.5-3.5zm-12 1q9-2.5 11.5 1.5l-.5 1.5-1.5-.5-.5-1.5h-9zm162 0 5.5 9.5h-1zm9 0 8.5 17.5-1.5-.5-1.5-.5-1-3 1-2h-2zm-44 1 2.5.5-5.5 9.5-1.5.5v2l-.5 1.5-1.5.5 1 2-2.5 1.5-.5-1.5zm-135 1 9.5 1.5-7.5 1.5-1-2-2 1zm190 1 1.5.5.5 3.5 1.5.5-2.5 7.5-3.5-8.5h2l1-2zm-97 4 .5 2.5v2l-2.5 13.5-2-4-1 3-.5-5.5 4-4-1-1 .5-1.5 1.5-.5v-2zm76 3 3.5 8.5-.5 1.5 1.5.5 1 3-2 1-1 2 1.5 2.5 1.5.5.5 1.5 1-2 2.5 8.5v2l1 4q-5 2-2 4l.5 1.5 2.5 1.5h-2l.5 1.5 1.5.5-.5 1.5-1.5-.5-1.5-3.5-2.5.5-.5 1.5-2-3-1.5 3.5 5.5 3.5 2-1q4.8 3.7 2.5 14.5l-1.5.5h-2l-2.5 1.5 2.5 1.5v-2l3.5.5-.5 4.5-1-4-5 4-1.5-.5-.5 2.5-1-4-.5 4.5 2 1 .5 1.5 2-4 3 1 1.5-.5 1 2-4.5 14.5-4-8-2 4-2.5-4.5 2-4-2.5 1.5-1.5.5 3 6-2.5-1.5-1.5.5 2.5 4.5 2.5.5-2 1-1.5 5.5-.5-2.5 1-2-2-1-2.5 3.5-2.5-.5.5-1.5-1.5-.5q3.8-1.7.5-3.5l-3 2-2-1 1 2 1.5.5 2 5-2-1-.5-1.5-1.5.5.5 2.5 2.5 1.5v2l.5 1.5 2-3-.5 1.5-1.5 2.5-1.5.5v2l-2 5 1 2h-1l-.5-1.5-2 3-.5-3.5 1.5-2.5 1.5.5-1-2h2l1-2v-2l-2.5-5.5-2.5-.5-1-2 3 1 2-3-2.5-1.5-1 2-.5-1.5.5-1.5-2.5.5.5 1.5-2.5-.5 1.5-6.5 2.5.5-1 2 2.5 1.5 1-2 2.5.5-.5 1.5 2.5-1.5 1.5-4.5 1.5.5 1 4-2 4q1.5 3 3 0l1-6-1-2 2.5-5.5 3.5-2.5 2-9-2.5-3.5-1.5.5v2l-.5 1.5-5.5 2.5-1 4 1 2-1.5.5-2.5-1.5-1-2 1-5-.5-1.5 1.5.5-1.5-3.5-1.5.5-.5 2.5-.5-2.5 1.5-2.5 1.5-.5-1.5-3.5-1.5.5-3 7 1.5 2.5 1.5.5-1.5.5-3-5-2.5-1.5 5-3 1-4-2-3 2-4-.5-1.5q1.8 3.8 3.5.5l1.5-4.5h2l2.5-.5 1-5-2.5-3.5-4 8-1.5.5-1.5 3.5-.5-1.5 5-7-.5-1.5 1.5-.5 1.5-2.5 3 1 1.5-.5-2-3 2.5 1.5 1.5-.5 3-8-1.5-3.5-2 1 .5-1.5.5-1.5 1.5-.5v-2l-.5-4.5-2 3-2.5.5 1 5-2 1-.5 1.5-1.5.5-.5 1.5-1.5.5 1 2-4 3-1.5 5.5-1.5-.5-1 5 1 2h-1l-.5-1.5-2 3-5.5 1.5-2 6 1.5.5 1.5-.5-4 4 1 1-2 4 2.5 3.5-2.5.5-.5 2.5-1-3-1.5 3.5 2 1-1.5 3.5-2-1-1 2-4 1-.5-2.5v-2l1.5-2.5 1.5-.5.5-1.5 1 2 1.5-.5-1-5 6-9v-2l1-3-1-2h1l.5 1.5 3.5-8.5-.5-1.5 3 6 1.5-.5 5-13v-2l2.5-3.5 5.5-4.5 1-3-1.5-2.5 3.5-.5.5-2.5 1.5-.5zm4.5 21-4 10-1-3-2-1-1 2-2 1 3 3 5-1 1-2v-2l2-6zm-9 15-1 2h-2v2l-1 2-4 4-1-1-3 2h4l2 1-1 2h2v5l-2 1 2 2v-1l3-1 1-2 2-1 2 4v-1l1-3-1 2h2v-3h2v-1l-2-1-3 2 3-5 1 2 2-4-2-2-1 2h-1l1-2-2-1-1-2 1-2zm13 11-2 2-3-1v2l-1 3h2l1-3v3h2l1-4zm2 2-3 6 1 3 2 1zm-3 20-3 5 2 4h2l-1-1 2-1v-3l-1-1v2h-2l2-4zm-175.5-68 3.5.5 1 2q-2.7-3.6-5.5 1.5l-1.5.5.5 1.5-2.5-.5 1.5-4.5zm17 0 2.5.5-.5 1.5-2-1-1.5 2.5 1 3h-1l-1-5zm118 1-.5 1.5-3 8h1l1.5-2.5.5 1.5-.5 2.5-1.5-.5 1 2h-2l-.5 1.5-1.5-.5v-2zm-116 2 1.5.5 2 7-2-1zm96 0 .5 1.5-1.5 3.5-1-2-.5 2.5 1 2-2.5 3.5-.5-1.5 2.5-8.5 1.5.5zm-127 2q-3.5 2.5 1 5l1-2 1.5-.5.5-1.5 1.5 4.5q-2 3.2-4 0l1 4-1.5 4.5-.5-3.5 1-2-2.5-4.5-2 1-.5-2.5.5-1.5zm155 0 1.5.5 1 3-.5 1.5 1.5-.5.5-1.5 1.5.5-2.5 3.5-2-1-.5 2.5 1.5-.5 5-2 .5 1.5-4 2-.5 2.5-1-3-4 10-1.5-4.5 2-1-1.5-2.5-1 2-.5-1.5 3.5-8.5 1.5-.5zm-132 3 2 4 1.5-.5.5 2.5 1.5.5-1.5.5-2-1 .5 1.5 1 2-2 1-1-3zm45 2 1.5.5-1.5 11.5zm69 0 1.5.5-2.5 4.5-1.5.5v2l-.5 1.5-.5-2.5zm-71 1 .5 12.5h-1zm24 0 1.5.5-1 6 1 6-1 2 1 2v2l-1 8 1 5v2l1 17-2.5.5-1.5-5.5 1-3-1-3 1-3-3-14v-2zm137 1 .5 12.5h-1zm-87 3 1 2-1.5-.5-1 3 2 1-2 1 .5 1.5 1.5.5-6.5 9.5-2.5-1.5 2.5-4.5-.5 1.5.5 1.5 1.5-3.5-.5-1.5 2.5-.5q-1.2-7.2 2.5-9.5Zm-39 1-.5 1.5 1 8h-2l1 3 1 3-.5 1.5-1-2-1.5 2.5 3 1-1 3-1.5 2.5.5-1.5-.5-1.5-1.5-.5 1.5-19.5z"/><path fill="#7f7e77" stroke="#7f7e77" d="m549.5 219 .5 6.5-2.5 3.5-2.5-1.5 1.5.5 1.5-.5zm-161 2 1.5 6.5-1 2 2 1-1.5 7.5-1.5-.5-1-10zm130 4 .5 2.5v2l-1.5 3.5-.5-1.5 1-2v-2zm87 0 .5 4.5v2l1 4v2l-4 11 1 7-1.5.5.5-1.5-.5-1.5-1.5.5 1-2-2-4v-2l-1-7h1l.5 1.5zm-176 4-1 2-6 5 5-6zm20 0 1.5 4.5-3.5 2.5v-3l2 1 .5-2.5zm84 0 3.5 2.5-2 5 1 2h-1l-.5-1.5-2 1-.5-1.5v-2zm11 0 1.5 4.5-.5 2.5-2.5 1.5.5 1.5-1.5.5 1 2-4.5 4.5-1.5-1.5-1-4 2-1 1 2h-2l1.5 3.5 3.5-8.5q-1.5-3-3 0l-.5 1.5-1.5-.5.5-2.5 7.5-1.5zm-169 1 .5 22.5h-1zm53 5 1.5.5-4.5 6.5-1.5.5-.5 2.5-1.5-.5-1.5 2.5.5-1.5 2.5-4.5 2.5-.5-.5-1.5 1.5.5-1-2 2-1zm94 1 2.5 4.5-2 1v2l-3.5 4.5.5-1.5.5-1.5 1.5-.5-.5-3.5-3 5-1.5-.5zm-127 1 .5 5.5-1.5 7.5-1.5-7.5h2zm134 0 1.5.5 2 3-2.5 3.5-1.5.5-1.5 3.5-1.5-.5 3-7-.5-1.5 1.5-.5zm-25 3-.5 1.5-1 3h2l-1 2 3-2 .5-1.5 1.5.5-1 3 .5 1.5-1.5-.5-1.5 2.5-1.5-.5 1 3-3.5 4.5-1.5-3.5 1-4v-2zm103 0 .5 12.5h-1zm35 1 .5 2.5-1 3q1.3 9.3-2.5 13.5l-1.5-5.5zm-46 1 .5 7.5v2l.5 1.5 2-1 .5 9.5-1 2v2l-.5 1.5-1-2-.5 2.5 1 2-1 2 2.5 1.5 2.5.5-.5 1.5-1-2-1 2-2.5-1.5-.5 1.5-1.5.5-4 10 .5 1.5-2-1-1.5.5 3-2 5-26-1-2h2l-2.5-6.5-1.5-.5 2-1-2-5h1l1.5 4.5zm2.5 11-2 9 1 2 1-2zm-189.5-8 .5 6.5h-1l-.5-4.5-1 8-.5-8.5zm20 0 1.5.5-2 8 1 2-1.5.5-.5-6.5zm11 0 .5 1.5-1.5 2.5-2.5-1.5-.5 1.5-5 4-.5-1.5 4-3 1.5-2.5 3 1zm-75 2v2l1.5.5-4 3-1.5 2.5q-1.8-2.7-3.5 1.5l1.5.5 1.5-.5-11.5 13.5-1.5.5 1 1-4 4-1 3q2.8 1.8-1.5 3.5l-1.5.5-.5 1.5-1.5.5-1 2q2 3.2 4 0l-2.5 2.5-2-2q-2 5-4 2l-1.5-.5v-2l.5-4.5 1 5 1.5-.5 6.5-10.5 1.5-.5 4.5-7.5 1.5-.5 14.5-19.5zm255 0q3.5 2 1.5 9.5h-1zm-201 1 1 3 2.5.5-2.5 4.5-2.5-1.5v-2zm89 1 1.5 2.5-1 2 1 4-1 3-1.5 3.5-2.5.5 1 3-2 1 1-2h-2l-.5-2.5-1.5-.5 3.5-2.5 1 2 3.5-7.5-2.5-.5-2 3 .5-1.5 1.5-3.5 1.5.5-1-2zm17 0 2.5 1.5 3 5-3 1 1.5 2.5 1-2 2.5 1.5-3.5 4.5-2-3 1.5.5-1.5-3.5q-1.7 3.8-3.5.5l-.5-1.5-2.5 1.5-.5 1.5-1.5-.5 4.5-7.5 1.5-.5zm-101 1 .5 12.5-1 3v2l.5 1.5 1.5-.5.5 4.5 4.5.5-4.5.5-2-1-1.5.5 2-3q-5-2-2-4zm69 1 3.5 4.5v2l-.5 2.5-3-2-1 3-.5-2.5 3-1-1-2 .5-1.5-1.5-.5zm-77 4 .5 8.5-2-1 1-3-1-2zm-80 1q3.5 1 2.5 6.5h-3l1-3-.5-1.5-1.5-.5zm102 0 1.5.5-1.5 11.5-1.5-.5 1-7h-1l-.5 1.5-1.5-.5.5-3.5 3 1 .5-1.5h-2z"/><path fill="#7f7e77" stroke="#7f7e77" d="m419.5 257 1.5 15.5h-1l-.5-2.5-1.5.5 1-2h-2l.5-3.5 1.5-.5zm218 3 2.5 1.5-3.5 10.5-1-2-1.5.5zm-87 1 2 4 1.5.5-2.5 4.5-6-3-.5 1.5.5 2.5 3 1 2-1v1l-1.5.5 1 2h-2l-.5 2.5-2.5-1.5-1-8 2.5-.5 2.5-.5zm-115 3 2 8 1.5-.5-.5 3.5-6.5-2.5.5-4.5 1 5 2.5-.5zm89 0 1 2-1.5-.5-1.5 3.5-1.5-3.5h1l.5 1.5zm4 1 1 2 2-1 2.5 3.5-1.5.5-1.5-.5 1.5 3.5 2-1 .5 1.5-3 1 2 1-4.5 12.5-1.5-.5 1-3 1-3 2-6-2.5-.5-2 1-1.5-.5-.5 2.5-1.5-.5-1-5 3.5-5.5 1.5-.5zm-20 3 2.5.5 1 4-3 1 1 3-2 1 1 2-1.5 2.5-2-5-1.5-.5.5-2.5 1.5.5.5-2.5 2.5-.5-2-1zm-116 2 14 15 .5-1.5-.5-1.5 5.5 7.5.5 3.5-3.5-4.5-.5-2.5-1 1-6.5-6.5zm235 1 .5 11.5h-1zm-182 1 3.5 2.5-1.5 5.5-1.5-.5zm53 0 .5 1.5-1.5 7.5-1.5-4.5zm66 0 2.5.5-.5 1.5-1.5-.5-.5 2.5-2-1-1.5.5.5-1.5zm-122 2 .5 1.5-1 2 1 6h-1l-1-8zm39 0 .5 7.5-1.5.5-1.5-6.5h2zm-68 1h2l2.5 1.5-1 3 .5 1.5-1.5-3.5.5-1.5-2 1zm146 0q-3 2.5 0 5l-2-1-1.5.5zm38 1h2l1.5.5-1.5 8.5-1-2-1.5.5 2-4-1.5-.5-1.5.5zm7 1 1 2 1.5.5-2 3 1 3h-1l-1.5-3.5-3 6-.5-1.5 3.5-6.5 1.5.5zm27 0 2.5 1.5-4.5 11.5-1.5-5.5zm-258 1 2.5 1.5.5-1.5.5 3.5-1.5-.5-1.5.5v2l-1.5 2.5-2.5 1.5-.5 1.5-.5-1.5 2.5-3.5 1.5-.5 1-4zm169 1 1.5.5.5 2.5 2-3 2.5.5-2.5 4.5-1-2-.5 2.5v2l-4.5 7.5-.5-1.5 1.5-3.5 1.5.5-1-2 3-2zm-59 2 3.5 5.5-1.5 2.5-2.5.5 1.5 3.5 1.5-.5-1 3 2 1-1.5 2.5 1.5.5-2.5.5-3.5-16.5 2-1zm-125 1 2.5 1.5-2.5 5.5-2.5-1.5 2 4-2-1-.5-1.5-1 3-1.5-.5 1 3h-2l1.5 4.5 2-3 .5 1.5-3.5 7.5-.5-1.5 1-4h-2l.5-1.5-1.5.5.5 2.5 1.5.5-2 4 1 2h-1l-.5-1.5-2.5 1.5 1 2-1 5 .5 1.5-1.5-.5 1-6-1.5-.5-2 1v-1l1.5-.5 1.5-5.5 1.5.5 1-4-.5-1.5 1.5-.5v-2zm161 1 .5 1.5v2l.5 1.5 1.5.5 1 5-2-1-3-7zm-133 1 6.5 5.5-1.5.5-4.5-3.5zm29 0 6.5 4.5-2 1 2 1-1.5.5zm123 0 2.5 1.5-2.5 4.5-2.5.5 2 1-.5 1.5q-1.7-3.7-3.5-.5l1.5 2.5 1.5-.5-2.5 4.5.5-1.5-1.5-3.5-.5 1.5.5 1.5-2-1-1.5.5-1-3 1.5-.5 1 2zm37 0 3.5 1.5-.5 1.5-3-2-1 3-2-3zm-199 1-.5 1.5-2 3 .5 1.5h-2l-2.5-.5 1.5-2.5 1.5.5.5-1.5 1.5.5zm2 0 6 7z"/><path fill="#7f7e77" stroke="#7f7e77" d="m603.5 285 .5 1.5-3.5 6.5-.5-1.5zm-9 1 1.5 6.5-2 1-3.5 10.5-1.5.5-.5 1.5-1.5.5 1.5 2.5 1.5-.5v2l-1 2 4 10-2 1-.5-5.5-3.5 1.5 1 2-2 1-.5 2.5-.5-2.5 1-3-3 1-.5-1.5-3.5 4.5 2 1 1.5-2.5-.5 1.5-3 5 3 1-5.5 8.5.5-1.5-.5-3.5-2 4-.5-1.5 2-6-1.5-.5-2 3-1.5.5-.5 2.5-1.5-.5 6-9-2-1 2.5-.5 1 2 1.5-3.5-.5-1.5 2.5-.5-1-1 4-4 2-3-3-1 5.5-9.5 2.5-.5-2-1-1-2 3.5-1.5 1.5-.5 1.5-5.5 1.5-.5zm-18 2 2 1 1.5-.5-2 6 1 4h-2l1 3-1.5 2.5-1.5-.5-1-4 3-2-1-2 1-3-4 3-1 2 1 2-1.5.5v-2l-1.5-.5.5-1.5 1.5.5zm-159 1 5.5 10.5-2.5 1.5.5-1.5zm6 0q5.8 2.3 2.5 4.5l.5 1.5 2.5.5 1 3h-1l-1.5-3.5-1 2-3.5-5.5zm202 1 .5 6.5-.5 2.5-2.5.5-.5 1.5-1-2 1.5-.5-.5-1.5 1.5.5-1-2zm-226 1 6.5 4.5-1.5-.5zm99 0 4.5 7.5v2l.5 3.5 2.5-.5.5-2.5 1.5 3.5-1 2 3 7-.5 2.5-2-3 1.5.5-2-3 .5-1.5-1.5.5-.5 1.5-1-2-1.5-.5 2-3h-2zm47 0 1.5.5-6.5 16.5.5-1.5 1-4-1.5-2.5-4 5 .5-1.5.5-1.5 1.5-.5 1.5-3.5 2 1 .5-2.5h-2l3-2-.5-1.5 1.5-.5zm-55 1 2.5 7.5-1.5.5-1-2-1 3-1.5-4.5zm-162 1 .5 2.5-1 3-1 3-1.5 3.5-2.5.5 1 2-1.5 2.5-2-1 1 3-1.5-.5 1 2-5 2-1 2v2l-1 3 .5 1.5-2-1-4.5 4.5-10.5 19.5-.5-4.5zm86 0 5 6-3.5-1.5zm-48 1 1 2 1.5.5-1.5 3.5-1-3-1.5.5zm20 0 2.5 5.5h-1l-1.5-3.5-2 4-1-2 1.5-.5zm89 3 1 3 1.5-.5-2.5 3.5-.5-1.5-.5-2.5-1.5.5zm38 0 3.5 1.5-2 7 .5 1.5-1.5-4.5 1-2-1.5.5-2.5-.5.5-1.5 1.5-.5zm40 0 2.5.5-4.5 6.5-3-1-2.5 1.5-.5 1.5-1.5-.5 1.5-4.5 4.5 1.5z"/><path fill="#7f7e77" stroke="#7f7e77" d="m520.5 300 3 4-2.5-1.5-1.5 4.5-2.5-.5-1-3 2-1-1 2h3l-1-3zm44 0 5.5 2.5-3 8 2 1-.5 1.5-2.5.5 2 1-2 1 3 1-2 1-1.5 3.5-5 1-1.5-2.5 4-8-7 6-1 2 2 1-1.5.5-2-3-1 2-.5-1.5 5-3 .5-2.5 4.5-2.5 3.5-4.5q1.8 2.8 3.5-1.5l-.5-2.5-3.5 1.5-.5 1.5-.5-1.5 1-2zm-.5 13-3 4 2 3h1l-1-3h2v-3zm56.5-12 1 2-1.5.5 1 2-14.5 22.5.5-1.5 2.5-7.5 2.5-.5-1.5-2.5 2.5 1.5-2-4h1l.5 1.5 5-9 1 2 .5-2.5 1-3zm-291 2 .5 12.5h-1zm246 3 .5 2.5-5.5 7.5-1-2 3.5-2.5 2-3zm-30 1 1 3 1.5.5.5 1.5 1-2 1.5.5-1.5 7.5-1-2-1.5.5.5 1.5-5.5-4.5zm-183 1 1.5.5-4.5 10.5-.5-6.5zm162 2 2 3 1-2 .5 1.5-3.5 5.5-1-2 1.5-.5-.5-1.5-3 2-3.5-4.5h1l2.5 3.5zm-153 1 1.5.5 2 5-2 1 1.5 2.5 1-2 .5 1.5-3.5 5.5-1.5.5-.5 6.5-1-11-1.5.5 1.5-3.5 1.5.5.5 1.5 1.5-.5-1-2 1-2-2-1 1-2zm34 2 11.5 22.5-2-1zm67 0 1 3 2.5.5-.5 2.5-1-3-2 1zm-61 4 4.5 9.5h-1zm120 0 2 3 1.5-.5-2.5.5-1.5.5 3 5-3.5 5.5-1-2 1.5.5 2-6-5.5-3.5-2 3-1.5-.5.5-1.5 1.5.5 1.5-3.5h2zm-115 2 5 6-4.5-2.5.5-1.5-1.5-.5zm73 0 7.5 12.5q-2 3.2-4 0l-.5 1.5-1.5-2.5h2l-1-2q2.8-1.7-1.5-3.5l-1.5.5-1-2zm-149 1 3.5 2.5-2.5-1.5-1.5.5-.5 19.5-.5-19.5zm15 1 1.5.5-2.5 7.5-1.5-.5 1-3zm144 0 4.5 8.5-2-1zm5 0 7.5 10.5-4-3zm-188 2 .5 14.5h-1zm88 0v2l2.5 1.5 3 7-2 1 .5-1.5-1.5-.5-2-5 .5-1.5-2.5-1.5zm136 0 6.5 4.5-3.5-2.5-3 1-2.5-1.5zm-180 1 1 2 2.5 1.5-1 3-2.5 5.5-1.5-.5q-.9-6.4 3-8l-2-1zm235 3-.5 1.5-1.5 3.5-1.5.5-.5 2.5-1.5.5-.5 2.5-2.5-.5zm-196 1 1.5.5-1 2h2l-1 2h2l-.5 1.5 1.5.5-.5 1.5q-4.7-2.4-4-8Zm-85 1 1.5 15.5-2-1zm67 3 .5 2.5-2.5 4.5-2-1-1.5 2.5 3 4-1.5 4.5-2-4-1.5 5.5 2 8-1.5 2.5-1-3-2.5 3.5 2 4-1.5-.5-1.5.5 1.5 2.5q-1.7-2.7-3.5 1.5l.5 3.5 1-2 .5 1.5-1.5 2.5-1.5-.5-3-7 3-1 .5-3.5 1.5-.5 5-11-3-13 1.5-2.5 2.5-.5.5-1.5 1 3 3 1zm130 1 3.5 1.5 2.5 4.5 6.5 5.5-.5 1.5q-4.7-7.5-9.5-7.5l1-2zm38 1 .5 3.5-1 7 2.5-1.5 1.5-.5 2.5-4.5 1 2-1.5.5-1.5 5.5-4 1-2-7-1 2-.5-3.5 1.5-2.5 1 2zm-88 2 4.5 9.5-2.5.5zm41 0 4 6 6 5 2-1 1 2 1.5.5-.5 1.5-8.5-4.5zm-7 1 3.5 2.5.5 1.5 3.5 1.5-.5 2.5zm42 0 3 6 1.5.5-1.5.5q-4.9-1.4-3-7Zm29 0 .5 3.5-6 4 2 1-1.5 3.5v-2l-2.5 1.5.5 1.5-2.5-.5v-2l.5-3.5 1 3zm-115 1 5 7 1-2 .5 2.5-1.5.5-2-3-1.5-.5zm-33 1 1.5.5 1 2-.5 1.5 2.5 1.5-1.5.5zm167 0 .5 2.5-.5 1.5-1.5.5-2.5 3.5-3 1v-1l6.5-5.5zm-157 1v2l1.5.5 2.5 4.5 1-2 .5 1.5-1.5 2.5 1.5.5-.5 1.5-6.5-9.5zm150 1 1.5.5-2 1-2.5 3.5q-3-1.5 0-3l1.5.5zm-217 1 1 7 3-7 .5 1.5-4.5 8.5z"/><path fill="#7f7e77" stroke="#7f7e77" d="m382.5 344-.5 1.5.5 1.5 1.5.5-2.5 5.5-1.5.5.5 1.5-1.5-.5-.5-2.5-1.5-.5.5-1.5q1.8 3.8 3.5.5zm-41 5 2.5 1.5-1.5 8.5zm8 0 1.5.5 2 12h-1l-1-5v-2zm161 0 3 2v-2l1.5 3.5-1.5.5zm-117 3 4 5 1.5.5-.5 2.5-1.5.5 1 2h-1l-.5-1.5-2 3-2.5-1.5-1.5 3.5q-5.7-2.2-2.5-4.5l.5-2.5 1 5 1.5-.5 4-9zm41 4 1.5.5 3 5-2 1zm14 1-.5 1.5.5 4.5 4-5-.5 1.5-1 2 .5 1.5-1.5-.5-.5 1.5-3.5-.5zm-70 1 .5 3.5-2.5 6.5-1-2-2 3 .5-1.5 1.5-3.5 1.5-.5-.5-1.5 1.5-.5-1-2zm60 0 4 3 2-1v1l-3 1zm-123 2 1.5 5.5-2 1 .5 1.5 2-1 1.5 4.5-1.5.5-1-3-1 2-1.5-5.5 2-1zm271 0-7 8z"/><path fill="#7f7e77" stroke="#7f7e77" d="m381.5 361 3.5 2.5-3-1 2.5 8.5 2-5 2.5 3.5-2 3 .5 1.5-2-1-1.5 2.5v2l-.5 1.5-1-3-.5 3.5.5 1.5-1.5.5 1.5 3.5 2-3 1.5-.5 2.5-6.5 4-1-.5 1.5-4 9 1.5.5 1.5-.5-2 5 2.5.5.5-7.5-.5-1.5 1.5-.5 2.5-6.5 4.5 1.5-5 9v4l1 2v2l2 6v2l1.5 3.5 1-3 .5 2.5-2.5 3.5-4.5-4.5 1-1-2-6 1-3-1.5.5-1.5.5-2 4 2.5 3.5-4.5-3.5 2-1 1-5-1.5-.5-2 3-1.5.5-.5 1.5-1-2-1.5-.5-2-5 1-2-1.5-.5-1 3-1-4-1.5 3.5 1 3h-1l-.5-1.5-1.5.5 1-2-1-3 2.5-6.5 2 4 1.5-2.5-.5-2.5-1.5-.5zm6.5 25-1 2-3 1-1-1-2 1 2 2 2-1-1 2 1 2 3-5zm24.5-22 .5 1.5-1 3-.5 1.5-3.5-2.5 1.5.5 2.5-.5v-2zm14 0 1 2 2.5 1.5-6.5 10.5-3-1h-2l-4-1-2 1v-1l1.5-.5.5-1.5 2 1 5-6 1 3 1-3 2 3 3.5-4.5-3-2zm-69 1 .5 1.5.5 2.5 1.5-.5-.5 3.5-1.5-.5.5 1.5 1.5.5-1 7 3 8-1 2 7 12 2 8-.5 1.5 1.5.5 3 11-2 1 .5 2.5 3-1 1.5 5.5v2l.5 1.5 1.5.5-1 3 2 1 1 4-3 1 .5 1.5 1.5-.5.5 2.5 2-1 3.5 6.5-.5 1.5 2.5 1.5 5 13-2.5.5-1.5.5 1.5 4.5 1-2 2.5.5.5 1.5 1.5.5 7 15-3 2-6-13 1-3h-1l-.5 1.5-1-3-3 4-8.5-14.5h2l-2-5-1-3-2-4 3.5-1.5-1 3 3.5-2.5q-1.7-4.3-3.5-1.5l-2 1-3.5-9.5q2.7-1.7-1.5-3.5l-2.5-.5 1-3-2-4 .5-1.5-1.5-.5-3-9 1-3-6-11 2-1-3.5-6.5-.5 8.5 1 2-1.5 2.5-1.5-2.5-1-3-1-3 2-1 .5 2.5.5-3.5-2-1 .5-1.5 1.5-.5-1.5-2.5h2l1.5-.5-3-2 .5-1.5-2 1-.5-1.5 2.5-.5 1.5.5 1-2-2.5-1.5-1.5.5 1-3-3-10v-2zm27.5 92v5l-2 1 3 1h2l-1-3-1-3zm18.5-92 1 2 1.5.5 1 7-1.5-.5-8.5-3.5 1.5.5 2.5-1.5.5-2.5 1.5-.5zm139 0h2l2.5.5-7.5 5.5.5-1.5 1.5-2.5 1.5-.5zm15 0 4.5 2.5-1.5.5-3-1-7 4-.5-1.5zm-21 6 1 2 6-1 .5 1.5-7.5 2.5.5-1.5zm-23 2 1.5.5.5 1.5 4.5.5-.5 2.5-8.5-3.5zm-196 4 9.5 6.5-7-4-.5-1.5zm52 0 2 4 1.5-.5-.5 1.5-2-1-.5 1.5 1.5 2.5-2.5-1.5-1-4zm-37 3 1.5 9.5h-1zm84 0 .5 1.5-4.5 6.5-2.5.5-.5 2.5-.5-5.5 2.5-4.5 1.5.5.5 2.5 1-2 1.5-.5zm122 0 4.5.5-3 1 5 2-2.5.5-5.5-1.5 2-1zm-116 1-1.5 2.5-2 10 1 2-2.5 1.5-.5-1.5 1-3-.5-3.5-3.5 5.5 1 3-2 5 2.5 1.5 1-2 .5 4.5-2.5 5.5-1.5.5v2l1 2-1 2 1.5.5 2-4 1.5 6.5-.5 1.5 1.5.5 1 5-1 3h2l1 5v2l-1 2 2 1 1 2-.5 1.5 1.5.5-1.5 6.5-1.5-.5-4-9h2l-.5-2.5-2 1-.5-3.5 2-5-3 2 .5 1.5-1.5-.5-2.5-10.5-1.5-.5-2-8 3-1-1-7v-2l1-5-1.5-2.5-1.5.5 8.5-12.5 1.5-.5zm-6.5 42-2 3 2 7 2-1zm-93.5-41 7.5 4.5 3 5h-3z"/><path fill="#7f7e77" stroke="#7f7e77" d="m363.5 382 5.5 3.5-4-1 .5-1.5-2 1zm121 2 2 5 1-3 1.5.5-1.5 3.5-8.5 4.5 1 4v2l-1.5 2.5-1.5.5 1 2 .5 2.5 1-3 .5 2.5-1 3 2 4q-4 2 0 4l-1 4 1 3-2 3 1 5-1.5 2.5-1.5-.5 2-6-2.5-4.5-2 1-2.5-1.5 2.5-.5 1.5-.5-1.5-4.5-1 3-1.5-2.5 2-1 .5-1.5 2 5 1-3 1.5-.5-2-1-.5-1.5-2.5-.5-.5-3.5-1.5-.5-.5-1.5-2 1v-1l2.5-1.5 1-4-1-2 3-5-5.5 2.5-1.5.5-.5 3.5-.5-3.5v-2l.5-1.5 1.5-.5-2-1 .5-4.5 1 3zm-6.5 5-1 2h-1l-3 5h2l2-4 1 3 1-3 3-1-2-2zm-2 15-1 2-2 1 2 5 1-2-1-1 1-2zm-38.5-18-4 5 1-4zm-117 1v4l1.5.5 1 4-1.5-.5-1.5-.5 1-2q-5.7-2.7-.5-5.5Zm57 9 3.5 2.5-2 16 2 1 1.5-4.5 3 7 1.5.5-1 5 .5 1.5-2.5-1.5 1 2v2l.5 3.5 2-3 1 2 1.5-.5.5-2.5 1.5.5 1 3-2.5 1.5-1.5-.5 2 5h-1l-2.5-5.5-1.5.5 1 4v2l.5 1.5 1.5.5-1 3 1.5 2.5 2.5-1.5.5-1.5 3-1-1 2-1.5.5.5 1.5 2-1 1.5 3.5-3 1 .5 1.5 3 1 3-2 3.5 14.5-1.5-.5-1.5.5 2 5-2 4 .5 2.5 2.5-.5-1-2 1.5-.5 1 2 1.5-3.5-2-7h1l4 10-.5 1.5 2.5 1.5-2 1 3 2 .5 1.5 1.5.5-.5 1.5-4.5.5-2 5 1.5-.5 1.5.5-.5 1.5-1.5.5-.5 2.5-2-3 1.5.5-1-4-1-3-1.5-4.5-2 1 .5-1.5-.5-2.5-1 2-1.5-.5-1-3 2-1-1-2v-2l-3-5 2-4-2-1-.5 1.5-1-4-1.5.5-.5 4.5-1.5-2.5 1-2h-2l-8-21 1-2-1-4-.5-4.5-2 3-2.5-9.5.5-1.5-2.5-1.5-3-8 1-3-.5-1.5-2 1-.5-1.5 4.5-.5.5 2.5 2.5 3.5 1.5-10.5zm18.5 56-1 3v1l2-1 1 4 3 1h1l-2-2-1-2 1-3zm12 25-3 2 2 5h2l-1-1 3-2v-2l-2 1zm-85.5-80 1.5.5-1 3 3 9-.5 1.5 1.5.5 1 7-.5 1.5 1.5.5-2 4 2 1 6 23-2 1 3 1-2 1 2 1 1 2-1 2 5 16-2 1 .5 1.5 2-1 2.5 6.5-.5 1.5 1.5.5-.5 1.5-1.5-.5-1.5 2.5-.5-2.5 1-2h-2v-2l-3-9 1-4-3-5-4-16h2l-.5-1.5-1.5-.5 1-3-2-1 .5-1.5-1.5-.5-1-2 2-1-.5-1.5-1.5.5-3-10q4-2 0-4l1-3-3-7 2-1-2-1-1-4v-2l-1-2zm17 5 2 4 3.5 2.5-.5 1.5 1.5.5-2 1-2-3 .5-1.5-1.5.5-.5 2.5-1.5-5.5zm11 11 .5 1.5-1 2 2 1 2 9h-1l-7-12q2 3.2 4 0zm55 0 3.5 9.5-1.5.5-2.5-3.5 1-2h-2l-1-3zm-7 2 1.5.5-.5 5.5-2.5.5.5 1.5 2-1-.5 1.5 1 3-1 3 1 2h-1l-.5-1.5-2 1-2.5-4.5 1.5-4.5-1.5-.5 2.5-3.5 2 1 .5-2.5h-2zm6 8 1.5 2.5h-2l.5 1.5 2.5.5 1 6 7 12h-2l-1.5 2.5-.5-1.5 1-3-3-2 1-3-3-1-4-12zm47 9 3.5 4.5q-2.5 4-5-2l4 2zm11 2 2.5 3.5-2-1-.5-1.5-.5 2.5 4 2q-2.5 4-5-2zm-60 1 1.5.5.5 2.5 1.5.5-.5 1.5-1.5.5 3 7-1 3 .5 1.5-2.5-1.5-4-10zm78 0 1.5 4.5-.5 1.5 2.5.5 2.5 6.5 2-1 1.5 4.5-1 2 5 8h-2l-1.5 2.5-1-2-1 2-2.5-5.5 2-3-1-2-.5-2.5-2-1-.5 1.5.5 1.5-1.5-.5 1-4-3-1 .5-2.5 1.5.5-.5-1.5-2.5-1.5-2-5h1l.5 1.5zm-22 11 1.5.5-1 2 3 1-.5 1.5-1-2-2.5-.5zm-46 3 7 19 1.5-.5-1-2 1-4-1-2h1q1 11.5 7 18l-.5 1.5 1.5.5 2 6-.5 1.5 1.5.5-5 3 .5 4.5 1.5-.5 1.5-4.5.5 2.5-1 2 1.5-.5 1.5.5-2 4 1.5 2.5 1.5-.5-1-2h1l4 14 3.5 3.5 1.5.5-1 2 2.5 1.5v-2l2 3-1.5.5 1.5 5.5 1-3 1.5.5 5 10h-1l-.5-1.5-2.5-1.5-.5-1.5-.5 2.5 3 2-3 2 .5 1.5 1.5.5 2 6-.5 1.5 6 2 1-2 1.5 2.5-2 1 1.5 2.5 2.5.5h-2l1.5 3.5 1-2 7.5 14.5-1.5.5-1-2-1.5.5 1 3h-2l.5 1.5 3 1q1.8-3.7 3.5-.5l5 13-.5 1.5 3.5 1.5-3 1 1.5 2.5 1.5-.5-.5-1.5 2.5 1.5-.5 1.5-1.5.5.5 1.5 2.5.5 1 5q-2-3.2-4 0l4.5 1.5 1.5-.5 1 2-1.5-.5-1.5.5 1.5 3.5 1.5-.5.5-1.5 2.5 1.5 6 16-3-2-1-2h2l-.5-1.5-3.5-1.5-4.5-6.5-1.5-.5-.5-1.5-5 2-.5-2.5-.5-1.5-1.5-.5-1-3 1-3-.5-1.5-1.5.5 1-4-2 1-.5 1.5-2.5-1.5-1-3 .5-1.5-4.5-2.5-2-4 2-1 .5-1.5 1.5.5 1 3-.5 1.5 3.5 1.5-.5 1.5 1.5.5.5 2.5 3-1 1 2 .5-2.5-1.5-2.5-1.5-.5-1-2 3-1-8-5-1-2 2-3-3.5-1.5-2 1-2-1v3l3.5.5-2.5 4.5-2.5-8.5 2.5-1.5 1.5.5-.5-2.5-1.5.5 1-2-3-8 .5-1.5-1.5.5-.5 1.5-2.5-.5-.5-1.5-3-1-1.5.5 3-6-5-2 2-3-3-1 .5-1.5 1.5-.5-.5-1.5-2-1-1.5.5 3-1-3.5-7.5-2.5-1.5 1.5.5 2.5-.5-.5-2.5-2 1v-2l-2 1-1.5-2.5.5-1.5-2 1 .5-1.5-.5-3.5-1.5.5-.5 1.5-.5-1.5.5-1.5-2-1-.5 1.5 2 4-1.5.5-2.5-6.5 3-4-2-1-.5-1.5-4.5-2.5-2-5 2-5-2 1-.5 1.5-.5-2.5 1-3-1.5.5-1.5-.5-1-3v-2l3-5-2.5-5.5-3.5 1.5 1 2-2.5 1.5-1.5-3.5 1-2h-2l-2-4 1-3-.5-1.5-1 3-.5-2.5 1-2-1.5-2.5-2.5-1.5-1-3 .5-1.5-1.5-.5 1-5-2-3 4-3zm7.5 21v2l-1 3 2 4h-1l1 2 3-1-3-7 1-2zm5.5-20 7.5 14.5h-1l-.5-1.5-.5 2.5 1.5 4.5 1.5-.5 2 6h-1l-.5-1.5-2.5-1.5-1.5-5.5-1.5-.5-3-11zm39 2 6.5 4.5-.5 1.5 1.5.5 1 3-1.5.5-4-6-3.5-2.5zm-104 5 3 5 1.5-.5-1.5 2.5zm133 6 1.5.5 9 15-2 1 3 1 12 20 .5 4.5 1.5.5 15 28-2 1 3 2 3 5-3 1 2.5 1.5 1.5-.5q8.1 21.9 22 38l-.5 2.5-4.5-2.5.5-1.5-13.5-12.5 4.5 1.5 3.5-.5-3.5-1.5-5.5-1.5-2-3q1.5-3 3 0l-.5 1.5 4 3 .5-1.5-32.5-61.5-1.5 2.5 2 1 2 6-1 2h2l1 2-1 2h2l1 3-1 2h2l-2 3 1.5.5 1-2 .5 1.5-1 3h1l.5-1.5 1.5 3.5-2.5.5-3.5-1.5-1-3 2-3h-2l1-3-21-44h2l-1.5-2.5-1.5.5 2-4-2-1zm-18 1 2.5 3.5-3 8 .5 1.5-1.5-.5-.5 3.5-1.5.5 1 5-4 10 .5 1.5-1.5-2.5 3-10v-2l-.5-2.5-1.5-.5 3-11 2.5-2.5 1.5-.5zm-8 1 2.5 1.5-3.5 12.5-1-4-3.5 2.5 3-6-1-2zm12 4 4.5 10.5-1 2q4.5 2.5 2 12l-2.5.5-2.5.5-2 9 .5 2.5 2.5-.5 2-7-2-1 2.5-1.5.5 2.5-1 3 2.5 3.5 1.5-.5 2.5-10.5 2.5 4.5-3 9v2l-1 3 1.5 4.5 3.5-.5-2-1 1-3-1-4 .5-2.5 1.5-.5.5-3.5 1 3 1.5.5 1 3-2 1 3 1 6 14h-1l-.5-1.5-1.5 3.5 2.5 1.5v-2l3.5 1.5-2 3v2l-1 4 1.5 2.5 1.5-.5 1-4-1-5 3 2h-2l1.5 4.5 3.5 1.5-.5 2.5-1.5.5 2 1-.5 2.5-1.5-.5-2 10 1 4-1.5 8.5-1-5-2.5 1.5.5 1.5 1.5-.5-.5 2.5-2.5-4.5.5-2.5 2.5-.5-3-1 2.5-8.5 1 2 2.5-1.5-.5-5.5-2.5 1.5-.5 2.5-.5-2.5-1-3-.5-2.5-1 3-1-5-2.5-1.5-.5-1.5-1.5 7.5 1.5 2.5 1.5.5.5 1.5 2-3 1.5.5-.5 1.5-1.5.5-2 4 2 1-.5 2.5-1.5.5.5 1.5 1.5.5-1 4 1 2-4-1 .5-1.5-2 1-3.5-2.5-.5-1.5-1 1-4.5-4.5-3-5 2-3-1-3 1-2-2.5-6.5-1.5.5-1.5 4.5-2.5-.5 2-8-3.5-5.5-1 2-.5-1.5 1.5-2.5 1.5-.5-1-2h1l3.5 4.5 1.5-12.5-2.5-5.5-1 3-1-3-2 1-.5-2.5v-2l2-6-1.5-.5-2.5-.5-2-5 3.5-13.5.5 2.5-1 2 4 8h-1l-.5-1.5-1.5.5 1.5 2.5 2.5-.5 1-11-3.5-7.5-1 4-.5-3.5zm16.5 42q-2 5 2 7l2-1-1-2-3-1 1-2zm-1 6-2 5 3 7 2-4-2-7zm-8 3-2 6 1 5 2 1-1-4 1-4zm4 5-2 2 1 6-1-1-1 3-1 5h2l1 3v-1l3-2-1-2v-2l1 3h2v-9l-2-2-1 6h-1l1-6zm1 17-5 3h2l2 8h2zm-53.5-59 1.5.5 1 3-.5 1.5 1.5.5 2 4-2 1 1.5 2.5 2.5.5 1 2-1 2h2l-.5 1.5 1.5.5-2 1v2l.5 1.5 1.5-.5v2l.5 1.5 2-1-.5 1.5.5 1.5 1.5-.5 2 4-2-1-.5-1.5-.5 2.5 1.5 4.5 1.5.5q-2.8 1.8 1.5 3.5l3.5 1.5-1.5-.5-1.5.5 5.5 9.5.5-1.5-.5-1.5 2.5 5.5-3 1 2.5 1.5 2.5.5 2 6-2 1 .5 1.5 2-1 3.5 6.5-.5 1.5 1.5.5 5 12-1 2 3 2q-.4 6.4 3.5 8.5l3.5.5 3 5h-2l1.5 2.5 2.5.5-1 2h2l-1 2 3 1-.5 1.5 1.5.5 1.5 4.5 1.5.5 1.5 3.5 3.5 2.5-.5 1.5 2.5 1.5 5 7-2 1-3.5-6.5-2-1-1 6 2-1 1.5 2.5-4.5 2.5.5-1.5-2.5-7.5-1.5-.5 2.5-3.5-4.5-.5 1-2-5-3-3-7 2-1-3-1 .5-1.5 1.5-.5-2-1-.5-2.5-1.5.5-.5 1.5-2.5-1.5 3-1-3-1 1.5-2.5-2 1 1-2 1.5-.5-5-2-1-4v-2l-4.5-7.5-1.5-.5 1-4-1.5-.5-1.5.5 1-2-3-1 1-3-3-2-.5-2.5-1.5-.5-.5-3.5-1.5-.5v-5l-6-10 .5-1.5-1.5-.5-2-3v-2l-5-10 1-2-2-1-3.5-8.5-1.5-.5 1-2-7-14 1-3zm-24 1 2.5 5.5v2l3 6-1 2h2l-2 3 .5 2.5 1.5-.5 1.5-3.5.5 4.5-1 2 1.5 2.5-1.5.5.5 1.5 2.5 1.5h-2l-2.5 4.5-3.5-6.5 2-1-.5-1.5-2 1-4.5-8.5h1l.5 1.5q3.3-1.7-.5-3.5l-1-3 2-4-1-5zm-72 3 2.5.5 2 6 1 3 4 9-1.5.5-1.5-2.5.5-1.5-2.5-.5-3-10 .5-1.5-2.5-1.5z"/><path fill="#7f7e77" stroke="#7f7e77" d="m433.5 491 5.5 12.5-2-1zm-30 1 4.5 11.5-1 2h2l-2 5 6 1 4.5 11.5 1.5.5 1 4-.5 1.5 2.5 1.5-2.5.5-5-12-2.5.5-1.5 2.5.5-1.5 1-2-1-2v-2l-.5-1.5-1.5 2.5-.5 2.5-4.5-8.5h2l-1-2 1-7-2.5-5.5-2 1-.5-1.5 2-1zm62 1 1 10 1-2 .5 1.5-2 3v2l-.5 2.5-2.5-6.5q3.4-3.1 2.5-10.5Zm-114 2 1.5.5 7 17 13 22-.5 1.5 1.5.5 1 3 4 6v2l2.5 4.5 1.5.5 2 4-.5 1.5 1.5.5.5 1.5 1.5.5 12 18-.5 1.5 2.5 1.5q4.7 12.3 14 20l-2.5.5-4.5-3.5-2-4 .5-1.5-2.5-1.5-.5-1.5-1.5-.5-1-2 1-2-4-2-4.5-10.5-1.5.5-.5-1.5-1.5-.5-.5-2.5-1.5-.5-.5-1.5-1.5-.5 1-2-3.5-4.5-1.5-.5-1.5-2.5-1.5-.5 1-3-2-1-8.5-17.5-3.5-2.5-1-3-2-3v-2l-1.5-2.5-2.5-1.5h2l-2-3 .5-1.5-1.5-.5-5-11 1-2zm46 9 5.5 8.5-1.5 2.5-.5-1.5.5-1.5-1.5-.5zm73 5 4 6 2-6 1.5 2.5-2.5 4.5-2-1-.5 2.5 2 4h-1l-4.5-8.5-1.5.5zm-84 2 .5 2.5-.5 1.5 1.5.5-.5 1.5 1.5.5 4 12-3 2 .5-1.5 1.5-.5-3-1 .5-1.5 1.5.5-6-14zm40 4 2.5.5-1 2 3 4-.5 1.5 1.5.5 2 5-2 1 4 1-3 1 3 2-.5 1.5 1.5.5 2 4-.5 1.5 3.5 2.5 2 5-2 1 3 1-.5 1.5-2.5.5 4 3-1 2 5 4-.5 1.5 1.5.5 2 3-2 1 .5 2.5 1.5.5-2 1 .5 1.5 1.5-.5.5 2.5 3.5.5 2 7-.5 1.5 3.5 1.5-1 2h2l-1 2 4 3h-2l1.5 3.5 1.5-.5-.5 2.5-1.5-.5-.5-1.5-2.5.5 2 1 .5 1.5 1.5.5 2 4 .5 2.5 2.5 1.5.5 6.5 4-1 2.5 3.5-2 1 3 1 4 7-.5 1.5 1.5.5 8 16-2.5 3.5-3.5-2.5-2-4 2-1 .5 2.5.5-2.5-.5-1.5-3 1-9-15-1.5-.5-2-4v-2l-1.5-2.5-2.5-1.5-1.5-4.5-1.5-.5 1-2-3-2-2-5 2-1-.5-1.5h-2l-1.5-.5.5-2.5 1.5-.5-4-1-1-2h2l-2-6v-2l-.5-1.5-2.5 1.5 2 4-2-1-4-10 1.5.5 2.5-.5-1.5-2.5-3 1-1.5-2.5.5-1.5-2.5-1.5-2-4h1l.5 1.5.5-4.5-1.5-2.5-1 2-2.5-1.5-1-4 1-2-2-1-.5-1.5-1.5-.5 1-4-1.5-2.5-2 1-1.5-3.5 1-3h-1l-.5 1.5-2.5-5.5 1-2h-2l-1-3 2-3-4-2 2-4-2-4h2zm20.5 45-2 4 1 3h1l-1-2 2-1zm11 26 1 1 1 5h2v2h1l-3-7zm-58.5-66 3.5 2.5-1 2 1 2h-1zm11 10 4.5 7.5h-1zm11 2 1.5 5.5-1 6 4.5 1.5 1.5-.5-.5 1.5 2.5 1.5-1 2 3 2 4 9-1.5-.5-1.5.5.5 2.5 5.5 2.5 4 8-3 1 .5 1.5 3-1 2.5 4.5-1 3 3 1 2 3h-2q-.3 6.8 4 9l-7-4 .5-1.5 1.5-.5-1-2 1-2-1.5-.5-1.5.5 1-2-2-4 1-2-1.5-.5-.5 5.5 1 2-1.5.5-5.5-9.5 1.5.5 1.5-.5-3.5-5.5-1 2-.5-1.5 1-2h-2l-1.5-6.5-2.5-1.5-1-3 .5-1.5-1.5-.5 1.5-2.5v2l3 1 .5-1.5-2-1-.5-1.5-3 1-.5-1.5 1.5-4.5-6.5-2.5-3-6h1l1.5 3.5 1.5-4.5zm15.5 32-1 2-2-1-1 2 4 1-1 2 3-2zm211.5-30 8.5 1.5-.5 1.5 3-1 .5 2.5-1.5.5-4.5-2.5-.5-1.5q-6 1.2-5-1Zm13 3 11.5 6.5-.5 1.5-5.5-2.5-.5-1.5-5.5-1.5zm-247 2 1.5.5 7 14-2-1-4.5-9.5-1.5-.5zm-5 4 4 8 1.5-.5-.5 3.5-6.5-8.5zm117 0 7 12 3-2-2 3-2.5-1.5zm-12 1 .5 1.5.5 2.5 3-1 2.5 3.5-1 3 1.5.5v-2l5.5 9.5-3 9 1 2-1.5.5-2.5-2.5 1-3 2-4-3.5-.5v2l-1.5.5 1 3-1.5 2.5-1.5-.5 2-1-2-1 .5-1.5 1.5-.5-2-2 1-3 1-3-1-3 1-6-2.5-.5-.5 1.5 1 4q-2 3.5-4-1l1-6v-2zm100 8-5 6-3-1-2 4v-2l-1.5-.5 5.5-3.5 1.5.5.5-1.5zm-134 2 7.5 11.5-.5 1.5 1.5.5 1 3-3-2zm-57 1 4.5 10.5-1.5 2.5-5.5-7.5q2 3.2 4 0zm113 1 2.5.5-1 2 3 1-3.5 2.5-3.5-4.5zm-82 4 1.5.5-.5 1.5 3-1 1.5 3.5-1.5 2.5-3.5-1.5 3-1-.5-1.5-2 1zm146 0 1.5.5-2.5 4.5-2-1-.5 2.5q2.8 1.8-1.5 3.5l-1.5.5-1 3-.5 1.5-.5-1.5 1-3 .5-2.5 1.5-.5-1-1zm-89 1 2 3 1.5.5-1 2 1 2-1.5.5-.5-2.5-.5-1.5-1 3-.5-2.5 1-2zm-15 1 6.5 5.5-1.5-.5-5.5-3.5zm31 1 5.5 4.5 1 3-1 2-1 3-.5 1.5-.5-1.5-1-3-1.5-7.5-1.5-.5zm-106 3 5.5 6.5-.5 1.5 2.5 1.5 1 2-1.5.5-1-3-2.5-1.5zm235 1 4 5-1.5-.5-.5 1.5-1.5-.5-1-2 1.5.5 1.5-.5zm-229 2 3.5.5-2 1 3 1 4 9-2-1zm209 0 1.5.5-4.5 7.5-1.5-.5 1.5-3.5 1.5-.5q-2.7-1.7 1.5-3.5Zm-63 2 1.5.5-2 4-4 11 1 2-1.5.5v-2l-3.5.5 2 1-.5 1.5-5.5-2.5-1-2 3-1-.5-1.5q1.8 3.8 3.5.5l2.5-5.5 1.5-.5v-2l.5-1.5 2.5-1.5zm-56 1v2l2-1 1 2 2-1 4.5 2.5-2 1-.5 2.5-4.5-2.5.5-1.5-2 1-2.5-3.5zm73 0 .5 3.5-3.5 4.5-3.5-1.5 6-4zm26 0 .5 1.5-2.5 3.5-2 1 .5-1.5-1-2 1.5.5 2.5-1.5zm-113 1 3.5 2.5-.5 4.5-3.5-2.5 1-3zm135 3-1.5 2.5-.5 2.5-4-1-7 10-.5-2.5 7.5-8.5zm31 0 4 1 2.5.5.5 1.5h2l1.5.5.5 1.5 1.5-.5.5 1.5 1.5-.5-2.5.5-5-2v2l-1-3-2 1zm-174 1 4.5 7.5h-1l-.5-1.5-1.5-.5.5-1.5-1.5-.5-.5-1.5-1.5.5zm31 1 2.5.5.5 2.5 2.5.5v2l-.5 1.5-2.5-1.5-1.5-4.5-1.5.5zm-96 1 5 6-4.5-2.5.5-1.5-1.5-.5zm261 0 8.5 7.5-8-5zm-74 1 1 5 2.5.5-2.5 3.5 1-3-2.5-.5-1-2zm70 1 3.5 4.5h-3l1-2-3 1zm-88 1 2.5 1.5-2 4v2l-1.5 2.5-3 2-.5-3.5 3-5-9 7z"/><path fill="#7f7e77" stroke="#7f7e77" d="m633.5 582 2 1 1.5-.5 2.5 4.5 1.5.5-1.5 2.5-1-3-4 3-2.5.5 3 1v7q6.3 6.2 8 17l-2-1-3.5-7.5-1.5-.5-.5-1.5-1.5 6.5h2l1 6-3 1 2 1 .5 1.5 1-2 1.5 5.5v2l-1 4h1l.5-1.5 14.5 20.5-3 2v2l-1 2 .5 1.5q-4.2-1.7-1.5-3.5l-1-2h2l-.5-1.5-3.5-.5-2-5 1-2-4-2 .5-1.5-3.5-2.5 1-2-3-7-1-3-2-6v-2l-1-5v-2l-2-16v-2l-.5-1.5-2.5 1.5 3.5-5.5 1.5.5-1-2zm-207 1 5.5 8.5-.5 1.5 1.5.5 1 2-1.5.5zm115 3 5.5 3.5-2.5.5-2-1-1.5.5 1-2zm171 2 2.5 3.5-2 1 1.5 2.5-4-5 1.5.5zm-176 3 4.5 1.5.5 1.5 3.5 1.5-2.5.5-5-4-1.5.5zm63 2 2 1 1.5-.5-1 4 1 15h-1l-1-2v-2l1-3-1.5-8.5-1 2-2.5.5-.5 1.5-.5-1.5 3-4z"/><path fill="#7f7e77" stroke="#7f7e77" d="m615.5 595 1.5 8.5v2l2.5 9.5 1.5-.5.5 1.5.5-2.5-2-1 2-1 1-5-2-1 1.5-.5 1.5 2.5-1 9 1 3 5 15-4-2-1 2 8 5q5.2 15.8 17.5 24.5l2-4 2.5.5-1 2 6.5 8.5 1.5.5 2.5 3.5 15 6 2-1 2 1 6-4 .5 1.5-3 1-2.5 3.5-7 2-13-5v2l-4.5-3.5-.5-1.5-.5 2.5 1.5 2.5-3.5-4.5q4.3-2.2-.5-4.5l-2.5 1.5.5 1.5-7-8-1.5-.5-5.5-6.5-1.5.5-1-3-1.5-2.5-1.5-.5.5-1.5-3 1-1-2 1.5.5-.5-1.5-2.5-.5.5-1.5-1.5-.5-3-7 1-2h-2l.5-2.5 1.5.5-1.5-2.5-1.5.5-3-7 1.5.5 1.5-.5-3-4-5-18zm24.5 63 1 1 1 4h2l2 3 1-3-2-1h-2l2-1zm-104.5-62 3.5 1.5-.5 1.5 2-1-1 2-4.5-2.5zm56 0 1.5.5-6 5-.5 1.5-1.5-.5 1 3-1 3h1l5.5-9.5 3.5 1.5 1 3h-2l-.5 3.5-.5-3.5 1-2-2 1-3 8 1 3-1.5 6.5-2-3-1.5-.5.5-1.5 1.5-.5-3-2 1-2-2-6 3-5 1.5-2.5 2 1zm123 0 3.5 2.5 6 8-3 1-.5 1.5-4.5-9.5-.5-2.5zm-103 1 .5 12.5h-1l-1-2zm81 3q6 3 4 6l2.5 1.5-.5 4.5-1.5-3.5.5-1.5-2.5-1.5.5-1.5-2.5-1.5zm-172 1 1.5.5-3 2 1.5 2.5 1.5-.5q-2 3.5-4-1zm-107 2 5.5 3.5 4.5 8.5 1.5.5 1 2-1 2 1.5-.5 2.5 1.5 8 14-1.5.5-2-4-2.5-.5-1.5-6.5-1.5.5.5 1.5q-4.5-2.5-1-5l-4.5-2.5-5-8 .5-1.5-4.5-2.5zm38 0 3 4 2.5-1.5-2-1 .5-1.5 3.5 2.5 2 4-1.5.5-1-2-3-1-.5 2.5 5 8-1.5.5-3.5-5.5.5-1.5-1.5-.5zm84 0 3 2h2l2.5 1.5-2.5.5zm147 1 6.5 8.5h-1l-.5-1.5-2 1-2.5-3.5h2zm-124 1h2l2 1 1.5-.5-2.5.5-2 1-2.5-.5zm133 3 5.5 6.5h-1zm31 0 4 6 .5-2.5-1.5-2.5 4.5 3.5-1.5 2.5-4.5-1.5-.5 2.5-1.5-3.5h2zm-278 1 4.5 7.5-2-1zm36 1h2l4.5 3.5-.5 1.5-6.5-3.5zm-55 2 6 7zm167 1 1.5.5 1 5h-1l-1.5-2.5-.5 2.5 1 6h-1l-1-8z"/><path fill="#7f7e77" stroke="#7f7e77" d="m686.5 613 3 2q2.3-3.2 4.5 2.5l1 2-3.5.5-1.5-2.5 2-1-2.5-.5zm-204 2 4.5 1.5.5 2.5 1.5-.5-.5-1.5 1.5 2.5-.5 1.5 2.5.5-1 3 1.5.5 1.5-.5-1 8 .5 1.5-2-1-1.5.5-4-7 1-2h-2l-2-5 1-2-2-1zm-44 6 10 10 1.5-.5-.5 1.5 2.5 1.5-1.5.5zm254 0h2l2.5 1.5.5 1.5 3 2 1-2 1.5 2.5h-2l.5 1.5 2.5.5 3 12-2-1-2.5-6.5-2.5 1.5.5-1.5-2.5-1.5 3-1-4-1-2-3q3.8-1.7.5-3.5zm-238 4 1 3 2.5 1.5.5 2.5 2.5 1.5-.5 1.5 2.5 1.5-1.5.5-2-4-3.5-2.5.5-1.5-2.5-1.5zm145 0 3.5 4.5-5 3-.5 1.5-2.5.5 3 1-4.5 5.5-1.5-.5 3.5 11.5 1.5.5 22 38-3-1 1 2-2 1 2.5.5 2 1 1-3q3.3 1.8-.5 3.5l2.5 2.5 5.5 3.5-1.5-.5-1.5.5 1.5 2.5-3-5-1.5.5.5 1.5-3-5-1.5.5.5 1.5-6.5-7.5.5-1.5-2.5-1.5-2-5 1.5.5 2 1 .5-1.5-3.5-6.5-1.5-.5-9-16 .5-1.5-3.5-1.5-1.5-3.5-1.5.5 1-4h-2l1-4h-1l-.5 1.5-.5-2.5v-2l-1-4 2-1-.5-1.5-2 1-.5-3.5h1l.5 1.5 1.5-.5.5-4.5 1.5 7.5-2 1 .5 1.5 4.5-2.5-2-2q5-2 2-4l.5-3.5 2.5.5.5 1.5.5-2.5zm-161 1 8 9zm60 1 1 2 2-1q3 1.5 0 3l-5.5-1.5zm243 1 3.5 7.5h-1zm-31 1 3.5 12.5-2-1zm-129 1 1.5 3.5-2.5 3.5-.5-1.5 2-3-3 1 .5-2.5 1.5.5zm-84 3 2 1 2-1 1 2-1.5.5 1 2-1.5 2.5-.5-1.5 1-2-2.5-.5-1.5.5zm-59 2 5.5 6.5-2 1-.5-2.5-2.5-.5-.5-2.5-1.5.5zm12 2 5 6zm81 0 1.5.5-2 7 3 2-1.5.5-4-2-2.5-.5h2l1.5-4.5 1.5-.5zm51 0 2.5 8.5h-1l-3-7zm-24 1 1.5.5 1 7-1.5 2.5-2.5-7.5zm-55 1 2 1 2-1 2.5 4.5q-3.9 2.3-.5 4.5l-5-2-1 2-.5-1.5v-2l1-4zm40 0 1.5.5-.5 2.5-1.5.5-1.5 5.5-2-1-1 2-1.5-1.5 2.5-4.5 2 4 1-6 1.5-.5zm7 0-5 6-1.5-.5.5-1.5 1 1zm-36 1 5 9 1-2 .5 1.5q-1.5 3-3 0l-1.5-3.5-1.5-.5zm39 0 .5 1.5-3 2 .5 1.5-1-1-5.5 4.5zm19 0 1.5 3.5-1.5-.5-1.5.5-1 6 13 23-2 1 .5 1.5 2.5.5-2 1 7 6 2.5 5.5 5.5 2.5-.5 1.5-9-4-1 2-2-6-1.5-.5 1-3-1.5-.5h-2l-1.5.5-.5 1.5-2-3-.5 1.5 1 2h-1l-7-19 3-1-3-1-3-8-1-3 4.5-9.5 2 1zm1.5 22v2l-1 2h2l3 7h3l-1-1-2-3-1-3-1-1-1-2zm-93.5-21 7.5 12.5-4-3zm131 2 4 6 2.5.5-2 1 1 2-5-4 2-1-4-2 2-1zm-164 2 1.5.5 5 9-3-2zm76 4 3.5 2.5.5 1.5 1.5.5 3 5-4 3 2 4-2-1-6-10 3-2-.5-2.5zm60 0 3.5 7.5-2-1zm-105 1 2.5.5-1 2 3 1-1 2 .5 1.5-.5-2.5-.5-1.5-3-1-1.5-.5zm178 1q-1.1 7.1 3 9l8.5 1.5-3 1 1.5 2.5h-3l-5.5-4.5-3-7zm-142 3 1.5.5-1 3 2 3-1.5 3.5-1-2-1.5.5-.5 2.5-1.5.5.5 1.5 1.5-.5-.5 5.5-1.5-.5-.5-2.5-.5 3.5 3 1-1.5 2.5-2.5-6.5 3-9-2-4q1.5-3 3 0l.5 2.5zm-30 2 3 6h2l2.5 1.5.5 1.5 1.5.5-1.5.5-3-1-3-1-1.5.5 1-2v-2l-.5-1.5-2.5-.5h2zm-30 1 1 2 1-1 4 4 2.5 1.5.5 1.5 1.5.5-.5 1.5 10.5 8.5.5 1.5 1.5.5-2.5.5-1-3-2.5 1.5 2 1-1.5.5-4-6-1.5.5-3.5-4.5-1.5-.5-.5-1.5-1.5-.5-2.5-4.5-2.5-1.5zm66 1 4.5 7.5-1.5.5-1.5-.5 2.5 9.5 2 1 3-4 1.5.5 2 5v2l2 5-1 3 2.5 3.5 1.5.5.5 1.5 1-8 .5 7.5-1.5 2.5-7.5 1.5 2 1 1.5 2.5 2-3 3-1 1 3 1.5.5-.5 2.5-1.5.5 1 3-1.5.5-3.5-2.5-1.5-2.5-5.5-3.5 1-2-5-3-.5-1.5-1.5-.5-3-7 1-2-1.5-.5-2 3-2.5-4.5h1l1.5 2.5.5-2.5v-2l1-5-2-4v-2l.5-1.5 1.5 2.5-1 2 3.5 6.5 1.5-.5q1.5-8-2.5-10.5l-2.5-1.5 2-1 1-2zm9.5 27-2 4 1 2h3l1-2v2l1 2h1l-2-6zm57.5-27 4.5 7.5-2-1zm-26 1 1 4 1.5.5v7l4.5 12.5 1.5-.5.5 2.5 1.5.5-.5 1.5-2-1-.5 1.5 3 1-1 3 .5 1.5-8-5-1.5 4.5 2 1-.5 1.5q-4.2-1.7-1.5-3.5l-.5-3.5-1 3-1.5-2.5 2-1-1-4 1.5-2.5 2 3 1.5-.5q-6.4-3.6-4-16l1-4zm-15 1 1 2 7.5 3.5-.5 1.5-1.5.5-.5 2.5-1.5.5 1 6h-1l-2-5 2-3-2-1-.5 1.5-2-3-1 3-.5-3.5zm177 0 .5 19.5h-1z"/><path fill="#7f7e77" stroke="#7f7e77" d="m558.5 662 .5 22.5-2-1-1-8h1l.5 1.5.5-2.5-2.5-3.5 2.5 1.5-1-7zm-25 4 1.5.5 5 11-1.5.5-3-6-5.5-4.5zm220 0-.5 1.5 1 2-5.5 14.5-.5-1.5.5-1.5-2 1 .5-1.5 3.5-8.5 1.5-.5-1-2zm-137 1 2.5 1.5-1 3 2 4 3 4-3.5 1.5-2.5-1.5-1-6 2-1q-3.2-1.2-1.5-5.5Zm20 0 4.5 3.5-.5 2.5zm-12 1 2.5 1.5.5 1.5 1.5-.5.5 2.5 1.5.5.5 2.5 1.5.5.5 1.5 1.5-.5-.5-1.5 3.5 4.5-3-1 1.5 2.5 5.5 2.5-1.5-.5-1.5.5 6 4 .5 1.5 1.5.5-3.5.5-3.5-2.5-.5 1.5-3.5-1.5-.5-1.5-2.5-1.5-6.5-8.5-1 2-.5-2.5.5-3.5-3-2-1.5.5.5-1.5 2 1zm-135 4 5 3 3.5 1.5-1.5-.5-4-2q-2.2 3-3-2Zm237 0 1.5 8.5-2 1zm-223 2 2.5 3.5v2l-.5 1.5-2.5-1.5 1-4zm138 0 5.5 3.5.5 2.5 4.5 3.5-1.5-.5zm8 1 6 7zm-151 3 9 11 1.5.5-3.5 1.5-5-6 2.5 1.5-.5-2.5-1.5-.5zm-25 1h4l14 12 1.5-.5-.5 1.5 2.5 1.5.5 1.5 4.5 3.5 1 2-1.5-.5-15.5-11.5-.5-1.5-7.5-4.5.5-1.5zm231 0h2l3.5 1.5-5.5 2.5-.5-1.5zm-83 2h2l1.5.5 1 2-1.5-.5-1.5.5 3 7-.5 1.5 2.5 1.5 1.5 2.5 1.5-.5-2.5-4.5-1.5-.5-1-2 4 3 1.5 3.5 11.5 9.5-2.5.5-12-6-5.5-5.5h2l-1-2 .5-1.5-1.5-.5-3-5zm-48 1q2 5 4 2l2-1 2.5 6.5-1.5-.5zm-61 1 2 5 2.5 1.5-.5 1.5q-4.7-2.4-4-8Z"/><path fill="#7f7e77" stroke="#7f7e77" d="m628.5 685 2.5 1.5 2.5 4.5 8.5 4.5-2 1 1.5 2.5-5.5-4.5.5-1.5-2 1-2-3-2.5-1.5zm18 0 4.5 3.5.5 1.5h2l2.5 1.5-1.5-.5-1.5.5 2.5 3.5zm49 0 1 2 2-1 1.5 3.5-4.5.5-2-3 1.5-.5zm-113 6q3.3 6.6 6.5 4.5l-.5 1.5zm-9 1 3 5 5 4 1.5-.5-1.5 2.5-2.5-.5zm30 1 9.5 11.5-6-5zm139 0-3.5 4.5-1.5 2.5.5-1.5-.5-1.5-6.5 5.5 2.5-4.5 3.5-1.5.5-2.5 1.5.5-2 1 1.5 1.5zm-231 1 2.5.5 1.5 5.5 2-4 2 3-2.5-1.5 2 6-1.5.5-1-3q-2.2 3.3-4.5-2.5l2-1-2-1zm44 0 1.5.5.5 2.5 1-2 5.5 4.5-3.5-2.5-1.5.5-.5 2.5-6.5-4.5 1.5.5 1.5-.5zm38 1 4 5-2-1-3 1-1.5-.5.5-2.5 1 2 2.5-.5zm117 0v2l1.5.5-.5 2.5-2-1-3.5 2.5 3-4-10-1zm-165 5 3.5 2.5.5-1.5.5 1.5-.5 1.5 1.5.5-1.5.5zm108 0 3.5 1.5.5 1.5 4.5 2.5-1.5.5zm-132 3 5.5 4.5-1.5 2.5-3-4h-2l-1.5-.5zm50 0 7.5 5.5-.5 1.5-1-2-1.5.5-.5-2.5-1 1zm155 1-1 5 2.5-1.5-.5-1.5 1.5 1.5-4.5 4.5.5-1.5-1.5-2.5-1.5.5z"/><path fill="#7f7e77" stroke="#7f7e77" d="m530.5 705 7 11 1.5-.5.5-1.5 5 7 2.5 1.5 2 5-1 2 .5 1.5-4.5-2.5-.5-1.5-2.5-.5 3.5-1.5 2 1 .5-1.5-3-2-.5-1.5-2 4-2.5-5.5-.5-2.5-5-2-2.5 1.5 3 4-4-3-.5-1.5-8.5-7.5 6.5 3.5 1.5.5.5 2.5 3.5-2.5-.5-1.5-1.5.5 1-2zm100 0 10.5 5.5.5 2.5 1.5-.5-.5-1.5q3 1.5 0 3l-3.5-2.5-.5-1.5-2 1-1-2 1.5.5-.5-1.5-3-1v2l-2-3zm-40 1 4.5 3.5 1 4-2-1-1.5-4.5-2.5-.5zm20 1 2 3 1.5.5.5 1.5 1.5-.5 1 2-1.5-.5-5.5-4.5zm43 0h2l2.5.5-.5 1.5 3-1v1l-1.5.5.5 1.5zm-106 1 2.5 3.5-1.5-.5-1.5.5 3 2-1.5.5-3.5-2.5zm139 1 3.5.5.5 1.5 4.5 1.5-5.5.5v-2zm-38 1 5.5 3.5-2.5.5-1-2-2 1zm-139 2 10 11zm162 1 4.5 2.5-.5 1.5 2-1 4.5 2.5.5 1.5 4-2 1 2-2-1-2.5 1.5 3 1-3.5 1.5-1.5-3.5-.5-1.5h-4l-3.5-1.5 2-1-2.5-.5-1.5.5zm-73 1 6.5 5.5-1.5.5-5.5-4.5zm89 0 6.5.5-5 1 .5 1.5-4.5-.5 3-1zm-38 1 3.5 1.5.5 1.5h2l3.5.5-.5 1.5-7.5-2.5-.5-1.5-1.5.5zm65 0-6 7 1-4 1.5.5.5-1.5zm-140 2q6 3 4 6l1.5.5-1.5.5-5.5-5.5zm-13 1 1 2 1.5-.5.5 2.5q1.8-2.7 3.5 1.5l.5 2.5 1.5.5-1.5.5-3-5q-2.2 3.3-4.5-2.5zm108 0 5.5 1.5-6.5 1.5-2.5-1.5 1.5-.5 2 1zm-76 1 5.5 4.5 1 2zm118 2-2.5 3.5-2.5 3.5-3 1v-1l1.5-.5-1-2 3-2 .5 2.5zm-40 2 3 2 5-1 .5 1.5-2.5.5-5-2-1.5.5zm-54 1 4.5 3.5-2 1-.5-2.5-2.5-.5zm40 3 3.5 2.5-2 1-1.5 2.5.5-1.5 1-2-2-1zm-91 2 3.5 4.5-.5 2.5-3.5-2.5 1.5.5 1.5-.5zm-30 1 2.5 1.5 1.5 2.5 2.5.5q-4 2.2-6.5-4.5Zm159 1-.5 1.5-.5 3.5-3.5-1.5.5-2.5 2.5 1.5zm-140 1h2l4.5 3.5-5.5.5zm-11 3 4.5 5.5-2-1-.5-1.5-2.5-.5zm115 1 2 1 5.5-.5-4.5 2.5zm-86 7 5.5 3.5-2.5.5-1-2-1 2zm17 5 4 2 3-1 1 2-9.5-.5zm-37 6 12 13zm-29 1 8.5 2.5-.5 1.5 3-1-.5 1.5 1.5 2.5 1.5.5-1.5.5-9.5-4.5 2-1-3.5-1.5v2zm98 5-1 2-4 2-3.5-1.5q1.8-3.2 3.5.5l1.5-.5.5-1.5zm-13 4 1.5.5.5 1.5 4-2-1 2-8 3-1.5-.5-.5 1.5-2-3 3-1 3 1 1.5-.5zm99 2 2 3 1.5.5-1 2 .5 1.5-2.5-1.5 1-2h-2zm-111 3 1 2 4-1v1l-8 2-1.5-2.5 1.5-.5 1 2 1.5-.5zm82 1 8.5 6.5-2.5-1.5zm43 6 3.5 2.5.5 1.5q2.3-3.2 4.5 2.5h-2l-.5 1.5-1-2-1.5.5.5 1.5-.5-2.5-.5-1.5-2 1-1.5-3.5zm-127 5 5.5 3.5-.5 1.5-7.5-3.5zm136 3 4.5 3.5q6.8 4.7 5 18l-3.5 7.5-1.5-.5 4-8-1-2 1-4-3.5-6.5-1 2-1.5-3.5h1l.5 1.5.5-2.5-1.5-2.5-2.5 1.5 1.5-2.5-2.5-.5zm-49 6 3.5.5-.5 1.5 2.5-.5-.5-1.5q19.2 1.8 28.5 13.5l-.5 4.5-4-7-2 1-11.5-6.5-.5-1.5-4 1-8-2-8 3-1-2-1 3-1.5-.5.5 1.5 1.5.5-5 3 1 2-2 3 4-2q-4.8 2.2-5 9l.5 2.5 4.5 3.5-1 2 3 1-1.5 3.5-4.5-.5 3-1-2-1 1-3-1.5-2.5-4.5-1.5 2-2-2-4q1.4-11.1 8.5-16.5l6-3v1l-2.5 1.5 2.5.5 2.5-1.5zm-210 7 3 1 8-1 12.5 5.5.5 1.5 1-2 12.5 7.5.5 1.5 1.5.5 1 11h-1l-.5-3.5-1.5.5 1-3-9.5-11.5-1 2-6.5-2.5-.5-2.5-1 2-2-3-1.5.5.5 1.5-11.5-3.5 2-1-2.5-.5-1 3-3-1-5 1-1.5-.5-.5 1.5-2-1-1 2-14 6-1-3-1 3-2-1-4.5 10.5 5 14-5-1-.5 1.5-.5-2.5v-2l1-5-2-1-1-4v-2l5.5-9.5 9-3 1 2 1-3 1.5.5.5-1.5zm264 17-1.5 2.5-2.5 4.5-.5-1.5-.5-2.5-2 3-.5-1.5q1.8-4.3 3.5-1.5zm-310 1 3.5.5.5 1.5 1.5-.5.5-1.5 2.5.5.5 2.5 1.5.5-1.5.5-6-2-5 3-2-1-3 1-1.5-.5 2 4-4.5-3.5-1 1-2.5.5-.5 1.5-2-1-9 3-2-1-8 4-.5-1.5 4.5-3.5 15-4h2l9-3h2zm231 0 1.5.5-.5 1.5-1.5.5.5 1.5 3-1v1l-3.5 1.5-1.5 4.5-1-2-1.5.5 1.5 6.5 2.5 1.5-2.5 4.5-2.5-7.5v-2l3.5-10.5zm-129 1 5.5 2.5-4.5 1.5v-1l1.5-.5zm25 3 8.5 11.5h-1l-1.5-2.5-.5 1.5 1 5-1.5 2.5-.5-1.5 1-5-2-3h2l-1.5-2.5-2.5-.5h2zm-43 4 .5 1.5-6 5z"/><path fill="#7f7e77" stroke="#7f7e77" d="m677.5 823 5.5 3.5.5 1.5 2-1v1l-1.5.5q2.6 7.4 14 6l-3 1 3.5 1.5 1-2 1.5.5q-1 3.5-6.5 2.5l-2-1-1.5.5-.5-2.5zm-200 3 .5 11.5h-1zm231 0 .5 1.5-1.5 2.5 1.5.5-6.5 5.5-1-3-2 1v-1l7.5-4.5-2-1 1.5-.5 1.5.5zm-323 1 3.5 1.5-1.5-.5-1.5.5 1 2-2.5 1.5-1-2-1 3h-2l-5 3 2-3 7.5-4.5zm124 2 1.5.5 1 11h-1l-.5-3.5-.5 4.5 1 4-2 1 1 2h-1l-1-2 1-3 1-7-.5-1.5 1.5.5-1.5-5.5-2.5 1.5zm208 2 .5 1.5q-3.8 2.5-1 5l-.5 1.5-1-2-1.5.5.5 1.5-2.5.5-.5 1.5-1.5.5.5 2.5 1.5-.5-7 6 2.5-5.5 1 2 .5-4.5zm-318 2 1 7 1.5-.5.5-2.5.5 3.5-2 1-.5 1.5zm44 3 1 2 4.5.5-8.5.5v-1l2.5-.5zm56 1q3.8 2.3 1.5 10.5h-1zm163 0 .5 4.5 11 11-3-1 1 3-11-9 6 9-2 1 3 2-.5 1.5-4-5 1.5.5-.5-1.5-1.5-.5-.5-2.5-1 2-3.5-4.5 1.5-2.5-2 1-.5-1.5 2-1-2.5-1.5-1 3-.5-2.5 3-2-.5-1.5q5.8 2.2 2.5 4.5l.5 1.5 2.5-2.5-1-3zm-103 1 1.5 2.5-1.5 3.5-3-1-11.5 10.5 15-13-1.5-.5-1.5.5zm109 0 8.5 5.5-1.5-.5-1.5.5 5 3h-2l.5 1.5 2.5.5 1 2-2.5 1.5v-2l-1.5-.5-5-7h2l-1.5-2.5zm-100 1 4.5 2.5 3 6-2 1 1 4h-1l-1-2v-2l1-2-4.5-4.5-1 1-1.5-.5-.5-1.5-2.5-.5 2.5-.5 4 1v-1zm-163 7 1 4-2.5-1.5 1 2-2 1-.5-2.5-1.5.5zm3 6 2.5 3.5h-2l.5 2.5 2-1-.5 1.5.5 1.5 3-1 1 2-2.5.5 2 1-1.5.5-5.5-7.5v-2zm190 0-4.5 5.5-1.5 2.5-.5-2.5 4-3 .5-1.5zm27 0 3.5 2.5-1.5.5-1.5-.5.5 1.5 3.5 2.5-2.5-1.5-3-1-1.5.5zm73 2 1 10 1.5.5-2.5.5zm-83 1 1.5.5 1 3h-1l-.5-1.5-6.5 1.5 3.5 4.5-4.5-4.5 1.5-1.5z"/><path fill="#7f7e77" stroke="#7f7e77" d="m668.5 855 3.5 4.5.5 2.5 1-3 1.5 4.5-1.5-.5-4.5-2.5 1-3zm10 0 2.5.5-1 3 1.5 2.5-3.5-2.5 1-2zm-291 2 1.5.5-2 1 .5 1.5q-1.8-2.7-3.5 1.5l.5 1.5 1.5-.5q-1.5 3-3 0zm103 2 5 6zm-70 3 1 2 1.5.5.5 2.5 1-2 .5 1.5-2.5.5-2.5-.5 2-1zm238 0 6 7zm-27 1 1 5 1.5-.5v2l-.5 1.5q-3.8-2.3-2-8Zm-44 2 1.5.5-4 6v2l-.5 2.5-1.5-2.5zm-213 3-6 7zm256 2 1.5 6.5h-1l-.5-1.5-1 2-.5-1.5zm-101 2 8.5 3.5-3 1 4.5.5h2l4.5.5-4.5 2.5-3-2h-2l-8.5-3.5zm54 5 1.5.5q-1.2 9.7 3.5 13.5l1.5-.5.5-1.5.5 2.5v2l1 4h-1l-2.5-3.5-2.5-1.5q-4.9-5.1-2.5-15.5Zm101 0 1 8 1.5-.5-3.5 2.5v-1l1.5-.5zm-302 4-1 4-2.5-.5.5-2.5z"/><path fill="#7f7e77" stroke="#7f7e77" d="m577.5 884 4.5 3.5-.5 1.5-5.5-2.5 2-1zm112 3-6.5 7.5-.5 4.5-.5-4.5zm-67 1 .5 1.5q-5.2 10.3-19.5 11.5h-2l-3.5-1.5 10.5-8.5-5 7 7-1zm12 11 1.5 1.5-6.5 6.5 5.5-6.5zm-22 3 6.5 5.5-2 1 2 1-1.5 2.5-8.5-.5 9-1zm68 3-.5 1.5-3.5 5.5 1.5-2.5zm-59 9 2 1h2l3.5 1.5.5 1.5 2-1 .5 1.5-3.5.5-1-2zm20 3 1.5.5.5 1.5 4 1 1-2-4.5-.5 6.5-.5-.5 1.5.5 1.5 2.5.5-6.5.5-3-1-2 1-8.5-2.5 2.5-.5 4 1z"/></svg>