<svg xmlns="http://www.w3.org/2000/svg" viewBox="0 0 1024 1024"><path fill="#0f0e0c" stroke="#0f0e0c" d="m252.5 60 3.5 1.5-1.5 3.5-2 1-2.5-1.5zm215 66 2 1h4l5.5.5-14.5 1.5h-2l-9 2v-1zm15 20 8.5.5-.5 1.5-25 5-.5-2.5zm92 5h11l14.5 5.5-5.5 1.5-16-4q-21.8 7.7-35.5 23.5l-.5 1.5-8-2-16 4-7.5 6.5-5 9 4.5.5 7-9 3.5.5-4 8 6.5.5 6-7 2.5.5-7.5 13.5-1.5.5q-4.3 7.7-3 21l2-1q5.8-18.2 16.5-31.5l1.5 3.5-10 20v12l1.5.5 9.5-19.5 5.5-6.5 7-1 2.5 19.5 1.5 1.5 3.5-2.5 3-9-3-11q2.6-13.3 12.5-19.5l9-6 12-1 1.5 2.5q-9.2-.2-14 4l.5 1.5 5.5 3.5 6 18-1 2 2 10v2l-1 6v2q.2 9.7-4.5 14.5l-1.5-.5 3-12v-17l-2-15-5.5-9.5-5-3-8 9-2.5.5 1 3h-2l-3 4 1 2v2l2 11-7.5 13.5-2.5 1.5 5.5 27.5q22.4 4.1 40 13l14-17 1.5-.5.5-1.5 4.5-3.5.5-1.5 11.5-10.5 1.5-2.5 1.5-.5 4-5-5-3 1.5-2.5 7 2 5-4 .5 1.5-1 3 12.5 8.5 4.5-2.5-1-3 13.5-6.5 18-1 10 6h4q10-5 27-3l21 4 4.5 2.5-4.5.5-14-4-18-1-2 1h-2l-11.5 2.5 1 2-2.5.5-6.5-1.5-2.5-4.5-17-1v1l3.5 1.5-1.5 2.5-7 1h-2l-10.5 4.5 1.5 2.5 5 1 7-3 2.5 3.5-6 3 5.5 4.5h3l6-2 .5 2.5-4 3 .5 1.5 6 4 6-2 3.5 2.5.5 2.5 2.5 1.5 1 5-3.5 5.5-4.5 3.5.5 3.5q10.2-1.8 15.5-8.5l4.5-13.5 6-2 3 1 14-1q13.1.9 19.5 8.5l-.5 4.5-6-5-.5 1.5 1 10q-6.8 20.2-21.5 32.5l-12 6 .5-1.5 1.5-2.5 16.5-13.5 11-18 1-12-4.5-6.5-18 1q-1.5-3.5-8-2l-4.5 13.5-4.5 5.5-17.5 6.5-11 36 17 14 8.5 10.5 2.5-.5-20.5-23.5-5.5-4.5 1.5-.5 18.5 16.5 8.5 11.5 45.5-14.5.5-3.5 8 2 2-1 .5 1.5-2 3 1.5-.5 2-1 3 1q7.1-4.4 20-3 11.1 2.4 16.5 10.5l2.5 4.5q27.2 13.3 47.5 33.5 5.6 4.4 4 16l-3.5 4.5-1.5-.5q3.9-1.6 3-8-3.1-12.9-13.5-18.5L810 340.5l1-3q-5.1-7.4-15.5-9.5l-3 1-2-1-8 4-2-1-6.5 2.5 5.5 6.5 12-2 .5 2.5-9 3 1.5 3.5 10-2 .5 2.5-8 4 2.5 3.5 9-1q3.5 2-1 4l-5.5 1.5 2.5 3.5 13-3 1.5 2.5-5 3 1 5-4 7 3.5.5 5.5-4.5 7.5-9.5 3-1 .5 2.5-4 3 .5 1.5 18.5 12.5 3 8h-2q-4.5 24-21.5 35.5-8.6 10.4-27 11l-.5-2.5 3.5-2.5 5 1q14.4-5.1 23.5-15.5 11.6-10.9 13-32L815.5 372l-7 8-4.5 2.5 2 8-2.5.5-2-3-12.5 11.5-.5 1.5-5.5 4.5-16.5 20.5-2.5-1.5-.5-2.5-5.5 7.5 9.5 36.5 42 9 2-1 5 3 2-4 1.5.5 3.5 4.5q8.3-1.2 11.5 2.5l-1.5 2.5-5.5.5 1.5 4.5q16.1 1.4 23.5 11.5l2 3 1 11 19 25 5 11 1 8-2 4 1 3-7 3-.5 1.5-1.5.5-7.5 8.5-6.5 3.5.5 1.5 12-6 .5 1.5-1.5 2.5q-23.1 12.9-53 19l-4-1-2 1-17-3-4.5-2.5 2.5-1.5 16 3 36-7q17.9-11.1 31.5-26.5l2.5-3.5 2.5-.5-8-20-18-23-1-5 1-2-7.5-11.5-3-1-3 1-11-4-.5 6.5 7 4-.5 2.5-6-1-.5 3.5 6 4-1.5 2.5-4-1-1.5 3.5 7 4-1 4 2 1 1 4q-1.9 4.1-9 3l.5 1.5 13 3 3-4 4.5 2.5q5.3 6.7 6.5 17.5l1.5-.5 1.5-5.5 2.5.5q-.5 11-6.5 16.5-18.3 20.2-61 16l-.5-1.5 2.5-1.5h21l12-2q13.3-3.7 21.5-12.5l3-6q-1.3-11.7-7.5-18.5-2 4-10 2l-7-2-.5 1.5 1 2-5.5 9.5-4-1-40 9-8-1-3.5 5.5-9 36 10 9 4.5 5.5 26 22 1-2 1.5.5 3 5-1 3 4 4-1.5 1.5-4-2-3.5 8.5 10.5 15.5 2-1 3.5 13.5-2 7 1 3-3 9q5.5 9 3 26l-5.5 19.5-1.5.5-1.5 3.5-2.5-1.5 7-20 1-14-2.5-11.5-2.5-.5 4-14v-10q-3.4-13.1-12.5-20.5l-2.5 1.5 4 9-2.5 1.5-5-5-1.5 1.5-1 3 3 5-2.5 1.5-4-3-2.5 4.5 5 7-3.5.5-6-3-1.5 3.5 7 7v4l-3.5.5-8-2-2.5 3.5 11.5 7.5 9.5 2.5-4 3 1 13-2 8 1.5.5 3-1 .5 1.5q-6.2 6.8-19.5 6.5l-2-1-2 1q-29.8-4.7-44.5-24.5l-3-7q1.5-3 3 0l2.5 4.5 1.5.5 8.5 9.5 22 12 19 1 5.5-1.5 3-11-1-2 1-2-1.5-9.5q-10.6-1.9-16.5-8.5l-2.5-3.5-3 2-.5-2.5-.5-1.5-14-2-31-10-26 27-1.5.5-4 6 15.5 44.5 5-2 2.5 1.5-6 9 2 5-2.5.5-3-5q-6.5 1-5.5 9.5l3 12q-2.1 15.9-11.5 24.5l-4 3-3-1q-5.7 5.3-6.5 15.5L658.5 850l-1.5.5-11.5 12.5-11 7-6 1-1.5-3.5 6.5-.5 9.5-6.5q17.8-17.2 28.5-41.5h3l7.5-5.5 8-19-3.5-12.5-4.5 2.5 1 10-2 1-.5 1.5-1.5-4.5v-2l-.5-3.5-4.5 2.5-.5 5.5-2.5-.5-1.5-3.5-3.5 2.5-.5 4.5-2.5-.5-.5-1.5-4.5 2.5q2.1 9.6-1.5 13.5l-4 1-2.5-1.5-4.5-6.5-4.5 2.5 9.5 14.5 4.5.5q-2.1 10.4-10.5 14.5l-16 8-12 1v-1l13.5-3.5-2.5-.5-3 1-7-2-20.5-15.5q-6.6-7.9-7-22l1.5-2.5q1.8 18.2 13 27l13 9 10 3q10.7-.3 15.5-6.5l2.5-3.5 1.5-.5.5-1.5 1.5-.5-12.5-19.5-1.5-.5 1-4v-2l-3.5-5.5-16.5-15.5-7.5-9.5-1.5-.5-6.5-9.5-39.5 12.5-4 28-6 21 1.5.5 5-1 1.5 2.5-10 3-3.5 11.5-2.5-1.5-.5-7.5-8.5 1.5q-3.4 15.1-13.5 23.5l-14 7-1-2-30 21-26 7q-8.2-.7-11.5-6.5l-18-38q-5.5-15.5-5-37l3.5-7.5 1.5.5-2 17 5 26 19.5 39.5 7 3 1-2-6.5-2.5 1.5-2.5q6.5 4.5 19 3l9-3 31-22 1 2 4.5-2.5-.5-1.5 1.5.5.5-1.5q9.6-1.9 13.5-9.5l5-12-1.5-.5-4.5 1.5-5.5 12.5-2.5-1.5 4-10-3.5-1.5-6 11-2.5-.5 3-9-5.5-1.5-3 5-2.5-1.5 1-8-3.5-.5-6 11-3.5-1.5-2.5-8.5-2-1-3.5 10.5 6 5-.5 2.5-7.5 1.5q3.3 2.2-2.5 4.5l-18 6-2.5-5.5 1.5-.5 1 2 8-1 14.5-8.5q-4.7-2.8-3-12l2-6v-4l-7-22v-6l-6.5-24.5q-22.6-2.9-40-11l-27 31-7.5 5.5-3 5 3 2 1 4-2.5.5-7-3-6 4-.5-2.5 2-4-4.5-1.5-5 6-15 10q-4.4 3.1-13 2-3.4-6.1-13-6l-20 2-26.5-10.5-7-20-2.5-14.5-1 3-1.5-.5 1-29 2-8q4.7-15.3 15.5-24.5l10-4 1.5 2.5-21 35q-4.7 6.3-4 18l2 5v2l1 13 5 14 6.5 7.5q10.8.7 17 6h9l15-1 9.5 1.5-.5 1.5-1.5.5 9.5 2.5q14.9-4.6 23.5-15.5l-5.5-2.5q-.7 5.8-8 5l-.5-2.5 5-6-4.5-1.5-6 4-.5-2.5 4-5-4.5-3.5-3 4-2.5-.5-1-2 3-4-4.5-3.5-9 6-3.5-2.5 2-9-2-1-.5-1.5-3.5 1.5-4 11 1 5-2.5 3.5-3 1-18-4-9.5-8.5-5-16 1-2-1-3 6-23 7.5-10.5 14-6 .5 2.5-13 12-6 13-1 21q1.1 11.4 8.5 16.5l9 2h2l5.5-1.5q.5-11 6.5-16.5l2.5-1.5-1-4 3-1 1-8 13-32-29-27-5.5-8.5-41.5 13.5 2 3-4.5 1.5-5-4-5 1-1.5-2.5 4-2-3.5-2.5-5.5 4.5-1.5 2.5q-6.4 4.1-18 3l-33-12h-5L170 675.5q-6.3-4.2-5-16l3.5-8.5 1.5.5-2 12q3.1 10.9 11.5 16.5l7 4-1.5-2.5.5-2.5q12.5 12 33 16l1-2 20 4 2.5-1.5 1.5-2.5 7.5-4.5-2.5-4.5-8 2-.5-2.5 7-4-1.5-2.5-7 2-.5-2.5 5-3-2.5-5.5-7 1-.5-2.5 1-3-3.5-4.5-3.5-.5 2-5-3.5-5.5-5.5 10.5v2l-1.5 7.5h-6l-7.5-5.5-4.5-5.5-.5 1.5 3 5-2.5.5q-7.3-6.7-6.5-21.5 5.9-33.1 28.5-49.5l10-6 .5 2.5-10 8 2.5.5 3-1 3.5 1.5q-11.7 2.3-17 11l-15 29-2 10 5.5 7.5 3.5 2.5 1.5 2.5 7 4 3.5-15.5q5.8-.7 5-8l-1-3 1-2-1-4 2-1 .5-1.5 3 5 2-4 3-1 3.5-2.5 2.5-3.5 20.5-15.5.5-1.5 11.5-7.5-12.5-41.5-16-3h-2l-1.5.5.5 1.5-20-6-10-1-1 9q-5-3-5-11l-12.5-3.5 6.5-2.5 2 1 .5-2.5-16.5-6.5-9.5-7.5-14-19 1-3-6-12v-2q-5.2-9.7-3-27 1.1-9.4 6.5-14.5l40-24q11.9-3.6 29-2l8.5 4.5-.5 1.5q-9.3-4.7-25-3l-10 2-34.5 19.5-.5 1.5-4.5 3.5-1 3 1.5-.5 1.5.5-.5 3.5-2.5-.5-.5-2.5-3.5 2.5-1 20 8.5 23.5 1.5.5.5 1.5 2.5 1.5-1.5 4.5-2.5-1.5 15.5 18.5q7.3 6.2 19 8l.5-2.5-5-3 .5-1.5 4.5-.5-1.5-3.5-5.5-1.5.5-2.5 5.5-.5-.5-5.5q-6.5 1-8.5-2.5l10-2-1.5-5.5q-6.9.9-8.5-3.5l1.5-2.5 9.5-5.5-1.5-2.5-13-1-5 8-4.5-.5 2-7-4-14 1-2v-2l11.5-16.5q11.3-13.7 33-17l8.5 2.5-8.5 1.5-6-1q-17.5 8-29.5 21.5l-7 11v5l2.5 4.5q-.3-8.8 5-12l.5 2.5-2 10 1.5.5 3-2 12 5 3.5-4.5-4-2 2.5-3.5 12-4 46.5-7.5q1.9-22.6 10-39L253.5 411l-.5 1.5 9 12-1.5.5-20-23-2.5-1.5-7.5-8.5-6 10-2.5-.5-1-7 4-7-4.5-5.5-2.5-1.5.5-1.5 5 1 .5-1.5-3-4 2.5-.5 2 3 1.5-.5 2-6-11-9q-4.7-9.3-3-25l1.5-4.5 3.5-1.5q-3.1-7.4-2-19l6-23-1-3 2.5-4.5 2 1 2-4 13-6h14l34 7q16.8 6.3 26.5 19.5l1 5-2.5.5q-1.6-7.9-8-11l-19-11-22-5-22-2-15.5 7.5-8 27v16l1 7-3 2-1 16 1.5 2.5 3.5 2.5 8.5 12.5 2.5-5.5-7-10 3.5-.5 6 8 3.5-5.5-6-8 3.5-.5 5 4 2.5-4.5-4-7 2.5-1.5 5 4 2.5-3.5-5-8 2-1-.5-1.5 3 1 2-1 5 1 3.5-1.5-5.5-7.5q-9.8.8-13.5-4.5l.5-3.5 5 2 .5-15.5 3.5-5.5 1.5.5-1 2 1.5.5q6.8-7.2 23-5 18.7 7.8 32.5 20.5l2 4-2.5 1.5-4-5-29-18h-10l-13.5 7.5-1 9 2.5 5.5 6.5 2.5 2.5 3.5 1.5.5 2.5 6.5q25.8 6.7 47 18l24-27 7.5-5.5-17.5-45.5-1.5-.5-2-6 2.5-3.5 3.5-2.5-1-7q2-3.5 4 1l1.5 3.5 7.5-5.5-1-16q3.3-11.2 11.5-17.5l8.5-5.5q7.3-24.7 24.5-39.5l5.5-3.5-1.5-.5-4 3 3-4 11-4 4.5 1.5-2 1 .5 1.5 5 1 25.5 21.5q13.5 15 19 38l-1.5.5-2.5-.5-.5-2.5-1.5-.5-2-5h1l.5 1.5.5-3.5q-8.8-21.7-25.5-35.5l-18-13h-7L379 180.5 362.5 213l-1.5.5-.5 1.5q-7.2.3-9.5 5.5-7.1 5.9-7 19l2.5 5.5q5.8-2.3 2.5-4.5-1.8-7.8 2.5-9.5l1.5.5q-1.7 6.8 1.5 8.5l3.5-2.5-1-5 2.5-1.5 2 4 3.5-2.5 1.5-6.5 2.5.5.5 2.5 1.5.5.5 3.5 4.5-1.5 2.5-10.5 5 1h2l9 6 .5-3.5-3.5-6.5-1.5-.5-.5-1.5-1.5-.5-3-4 2.5-2.5 6.5 6.5q4.8 3.7 4 13l-2 3 23.5 27.5 7 6 42.5-9.5 1-11 9-36-8-2 11-7 4.5-10.5.5 2.5.5 1.5 1.5.5.5 4.5 12.5-1.5 11.5-16.5q10.3-6.2 27-6 14.6-13.9 34-23ZM513 205l-4 11 1 7 9-17zm37 0-5 6h2v-1l3-1h2l-1-3zm-60 2-5 13-2 17 1 2-4 15 1 1 12-2 3 1 4-1v2l-1-1-7 2-2-1-10 2-1 2 4 1 1 4-10 1-5 19 1 1 39-15 1 1v2l-3-1-36 14-4 7-1-4-4 1-2 1 5-3 4-18v-4q-22 5-39 15l1 2 28-7 5 1-31 8-9-4-3-4-24 12-1-1q9-9 22-13l-29-35-6-7-3 3 5 16q2 6-1 8l-4-1-3-1 1 3-1 2-2 1-2-1-6-6-2-1 1 3-1 6h-3l-5-5-2-1 1 6-4 1-7-10-8 6 16 46h2l1 3v1l14-8 6 1v2l1 1-2-1q-13 2-19 11l4 8 4-2 1 4-1 2q18-16 43-27v3l-26 23-12 13-8 9 23-16 7 2v5l-7 16-29 43 1 1 20-14 1 1-18 12q-16 15-26 37l1 2q17-25 39-45l1 1-37 45-3 2h-3l1-3v-3l-17 23-3-1 22-34 14-15 23-35q11-16 18-35l-1-3-12 5-20 16q-28 25-46 59l1 1 3-4 27-23 2-1-20 17-2 3h-1q-27 23-33 67l-1 3 1 7-1 3-2-3q1-32 14-51v-2l-2 3-3 2h-2l-12 28-4 18 1 14h-1l-2-3 2-23 17-47q15-36 38-63l3-4-21 17-1 2h-1l-10 15-4 3h-4q8-25 26-39l-2-1-2 3-7 6 6-10-49-20-5 4 10 13-1 6-4-1-3 1 2 7-2 1-7-3-2 1 3 6q3 1-1 3l-7-2-2 1 3 4-1 4-6-1-3 5 2 4 9 6v2l28 22 4-6 2 1-1 5 2 7-1 4-3 1 3 2v5l-10 30-1 3-2 5-5 1-3 8-2-4 1-2v-2q-24 3-42 11l-10 1-1 13 20 4 2 4-5 4 5 1v4l-12 6 6 1 1 4-8 4 2 4-6 2 23 3 27 9v-8l2-1 2 8 6 3-1 2q4 23 16 40h1l-12-48 1-5 5 14 7 34 11 31 11 19 25 30 11 9 3 3-9-14 1-5-1-1-1-1 2-1 4-8-19-26 1-2 12 17 8 6 7-10 1 1-7 12 5 7q22 26 53 45l60 26v2l-10-1-17-6-32-18-18-7-37-23-9-7 11 18 13 11v2l30 20 16 4v1q-9 1-12-2l-3 1 13 6 1 2-36-19-2 1 1 2 12 10v2l11 5 2 3-16-10-13-14-12-10-3 9 7 5 2 3-10-5-7 14-13 39 7 3 4-7 10-9 3 2-3 11 1 1 4-5 7-3 1 3-2 7 6-5 4 2-4 13 2-1 4 2-2 11 5 1 20-24 12-11q6-3 0-6l3-5 4 1h3l6-6 3 3-1 2 3 1-5 2q17 9 40 12v-4l-33-9 2-1 1-2 33 8v3l2 6q2 4 12 1v3l-10 1 10 42-3 1 2 11 5 1 6-25 4 1 4 9 3-7 5-2q3 6 3 16l2-8 5-3q3 3 3 10l5-2 3 12 6-1-1-1 6-28v-4l-7 22-2-2 1-9 10-28v-3l-6 1q-7 1-8-2l15-4 6-14 2 2-2 8h2l1-2q2-4 4 0l35-12 1-5 3 2 14-6v2l-11 8 39 47 7-4-4-13 3-9 4 1 2 5h1l-2-11 5-2 6 8v-7l3-2 8 12q-2-7 3-9l7 6v-1h3l-15-41-2-2v-1l-2-9-29 24-16 10h-2q18-11 33-26v-1l13-11-3-11 2-1 4 7 3-2-2-6 1-3 4 6 10-9 13-15-6-4 3-4 9 2 8-10h1l-2 4h2q13-16 19-39l2 4q-4 25-15 43l42 17q2 3 4-2l-8-7-5-5 3-5 7 2h2l-5-4-5-5 3-5 11 4v-1l-1-1q-5-2-5-8l3-2 10 4h1l-4-5 2-6q9 0 14 5l2-5-12-10h-3l-16-14-1-1-9-8-3 6-2-1 2-4v-4l-3 1h-3l1-6-5-7 5 3h1l-3-5 2-4 3 2q7-15 10-35l-7-1-1-1 7-2 2-3 3-1 2-7 2 1-1 3 2 4q13-5 32-5h2l17-3 2-13-18-4-2-3 4-3-4-2-2-4q3-5 13-4v-1l-9-3-1-3 8-4-5-3 1-4q5-4 15-3v-1l-51-11-1 7-3 1-3-7q-2-4-9-2l-2-2 3-1-7-41-3 2-3-1 4-6-3-9 2-1 4 6 46-39-8-14-12 7-5-1 1-4 4-5-5 2q-6 1-7-2l3-6-5-1-3-4 6-5v-1h-1l-6-2 1-4 4-5-43 16 3 4v4l-9-6-2 1-6-3 1-2-1-1-2-2-1-1-1-1-17-17-7-8-3 1h-2l1-2-3-5 4-2 9-19 12-33v-2h-3l-17 14-6-1q0-9 5-13l2-3-17 10-4-2q2-11 9-16v-2l-11 4-2-2 5-9-9-6-35 42 2 3-1 2-2-1-5 1-1-3-9 5-2-2-26-11-1-1-4-3-6 1 3 16-1 2-6-19-7-3-1-1 6-1-8-43-5 11q-1 5-7 4l-4-8-3 5-2 1-2-1-3-9-3 5-5 1-3-4 2-10-1-1-2 4-3 2-2-1-2-2 1-7zm-114 30-5 4 10 14h1l-5-17zm283 4-4 5 1 1 4-2 1-2zm-292 1-3 2 9 15h1l-6-16zm187 1v11l2 1zm-195 4-3 2 4 10 2 1-2-12zm311 0-12 15 1 1 18-11zm-319 5-3 3 2 4 2 1zm332 2-11 15 1 1 16-12zm-111 14 23 11 4-2q-11-7-27-9Zm-174 41q-27 16-49 36l-6 7h-1q-22 23-37 54l1 2 53-59 26-25 1-2 2-1v-1l11-10zm-47 13-12 12 3 1 10-6zm2 9-20 15-7 8 4 1 1 2 3-2 22-23zm416 5-8 8 1 1 10-2zm-512 7-3 5 9 5h2l-6-8zm518 4-11 6-1 2 13-4zm-523 5-3 4 8 5h2zm526 3-8 5-3 4 13-5v-2zm-456 3-2 1-18 22 1 2 24-23zm-77 4-2 3 7 3 1 1-1-3zm538 2-2 1-3 4 5-2 1-2zm14 2 1 6h2l2-5zm-471 23-19 22-5 3-11 23h3l32-46zm12 34-13 18 1 1 12-17zm416 24 4 25 2-1zm-530 31-16 5 1 2 19-6zm588 14-2 2 11 3v-3q-2-4-9-2Zm-4 10 2 2 11 2v-2l-1-2zm-599 3-1 5 5 1 12-2zm598 7-4 2 18 2v-2l-1-2zm-598 3v5l17-3-10-1h-2zm600 6-1 2 7 1 6-1-1-2zm-600 5 1 3 9-1zm9 18v1l8 1h2zm56 27q-1 16 8 27l2-1zm16 27-1 3-1-1-7 5 8 19-1 3 12 18 4 2v-1l2-1 9 17h4l-2 3 5 6 4-1q-23-31-36-72Zm-12 10q-20 19-44 33l5 11 16-7 6 2-1 5v1l2-1 5 2q0 7-5 10l1 1 4-2 4 3-3 5 7 3-1 4-13 10-1 2 4 2 1-4 16-7v-1q14-10 32-14l-6-10-3-3-2-5-1 2 1 1-12-16-11-26zm-72 11-5 10 1 2 4-8zm526 26-17 27 3 1 3-1 11-25zm-475 3-16 8 2 4 14-10zm524 0 6 9 2-4zm-464 1 1 6 10 13h4l-4-5-1-1zm32 4-4 7 2 7q21 18 49 30h1l-24-20-2-2-1-1-2-2-6-6-1-1zm423 2-1 2 11 9 2-4zm-510 1-17 10 3 4 9-5 6-8zm502 7-1 2 3 1v2l11 7 2-4zm-500 5-13 7 2 2 12-8zm45 3-22 8-2 3 27-8v-1zm25 0-2 3h2l1 3h2v2l24 19 4 4-5-7zm-64 3-15 8 3 4 10-7 2-3zm60 0-2 1-1 2 12 9v-1l-1-1zm432 1q2 6 10 8l1-3zm-446 5-8 4 35 32 3-6-12-11-16-18zm36 15v3q3 6 5 2zm14 3 4 8 10 5h1zm323 7-8 7 1 1 8-7zm-396 4-2 1q-13 10-17 29l1 4q7-19 19-33zm134 4q12 9 31 14h3zm173 36-10 4v1l11-3v-1zm90 6 3 11h1zm-333 3-11 13 5 2 6-13zm9 6-11 13 4 2 8-14zm294 2 4 16 3-1zm-285 3-11 14 4 1 7-13zm296 0 2 8h1zm-19 4 3 14 4-2zm-275 8-3 2-3 5 5 1 2-7zm124 21q-4 7-3 20h4l1-2q2-13-2-18Zm12 1-5 18v1l6-1q2-12-1-18Zm10 6-4 11 1 3 3-1zm8 6-4 6 2 2h2z"/><path fill="#0f0e0c" stroke="#0f0e0c" d="m595.5 159 4.5 3.5 8 20 4 28-1 2v2q1.3 9.3-2.5 13.5l-1-4-4 19-2.5-1.5 5-27v-22l-3-15zm-288 9-1 2-15 8 1-2zm-65 7 2.5.5-28 24-.5 1.5-1.5.5-5.5 6.5 1.5-2.5 11.5-14.5zm46 3 1.5.5-.5 1.5q-25.7 13.3-44.5 33.5l-2 4 .5 1.5-1.5-.5-.5 1.5-1.5-.5 1-5 8.5-9.5q17.3-15.7 39-27Zm561 3 17 23 2.5 1.5-.5 1.5-10.5-7.5-.5-1.5-1.5-.5-8-15zm-448 5 2.5.5.5 1.5q12.6.9 17.5 9.5 11.8 12.7 17 32l-2.5 1.5q-6.1-21.4-20-35-5.9-5.1-17-5l-4.5 3.5-7.5 12.5-2.5-.5q3.4-11.1 11.5-17.5zm478 0 16.5 31.5-2-1zm-606 25-.5 1.5-5.5 6.5-.5-1.5zm505 32 1.5.5 1 15-2 10 1 6q-5.7 19.8-20.5 30.5l-21 17-6 2-1.5-2.5 9-5 1.5-4.5q16.8-7.7 27.5-21.5l5-10-3 1 5-15v-2zm-257 49q10-2.5 12.5 2.5l-.5 2.5q-1.5-4.5-9-3l-13.5 6.5 1.5 2.5 2.5 1.5-3.5.5-3.5-2.5 1.5-4.5zm-76 5 1.5.5-12.5 6.5v-1zm144 15 23 7q22.1 10.9 39 27l14 3 13 6q15.3 9.2 26.5 22.5l2.5 3.5.5-1.5-15-26-13.5-14.5-7.5-5.5 3.5-.5 13.5 11.5q14.6 16.9 23 40l7.5 7.5 9.5 6.5 1 2-1.5-.5-25.5-21.5-13.5-14.5q-14.1-10.4-34-15l1 2 20.5 18.5q24.3 26.2 39 62l-1.5.5q-19.7-44.8-54-75-7-10-21-13l6 7 8.5 6.5.5 1.5 16.5 14.5 7 10 8 19-1 4 2 8-1 6-2.5 2.5-6.5-4.5-7-12 5 4 6.5 9.5 2.5-1.5q1.3-11.2-2.5-17.5l-2.5-1.5 2-1-2-6q3-2-2-4-4-11-12.5-17.5l-26-13-.5 1.5q6.9 15.6 19 26l-1.5.5-4.5-3.5-14-20-2-7 2.5-.5 21 10v-1L635 343.5l.5-2.5 6 1-2-3q-19.6-17.9-50.5-24.5zm-135 6 1.5.5-20.5 8.5-.5-1.5zm7 5 8.5.5-.5 1.5-9 1-.5-1.5zm-293 12 4.5.5-2.5 8.5-6 2-1.5-2.5 3-5zm265 3 2.5 1.5-1.5 2.5-14 9h-6l-2.5-1.5q9.9.4 14-5l3.5-4.5zm88 1 22 2 22 11q22.6 2.9 38.5 12.5l-1.5-.5-32-9 1 2 20 16q13.6 4.9 23 14l.5-1.5-5-6 1.5-.5 42.5 30.5 1.5 2.5 10.5 8.5 3.5 4.5 4.5 3.5 11 14-4-3-6.5-8.5-1.5-.5-.5-1.5-3.5-2.5-.5-1.5-2.5-1.5-3.5-4.5-13.5-10.5-.5-1.5-9-6 1.5 2.5 16 31 16.5 44.5.5-18.5-.5-1.5 1.5.5 1 16-1 2v10l5 23v24q-3.7 32.8-13 60l5-4 7.5-8.5-.5 1.5-14 17-9.5 23.5-.5-1.5 4-13-4 3-24.5 26.5-29 20-51 23q-21 10-49 13l-1.5-5.5 4.5-3.5-3.5 4.5 1 1 .5 1.5 5-1h2l16-3 33.5-13.5-7.5-.5-20 1-21-2-4 2-27 4-18-4-17-9q-26.9-17.6-48.5-40.5l-7.5-8.5-10.5-9.5-6-8 3.5 2.5 1.5-.5-7-10q1.8-3.2 3.5.5l1.5.5.5 1.5 1.5-.5-12-28v-2l-.5-1.5-1.5.5 1-9q-7.8-16.7-8.5-40.5l-1.5 3.5v26l2 16v2l6.5 16.5 2-1 .5 1.5-2.5 1.5-4.5-2.5-9-34-2-16 1-2-1.5-25.5-6.5 34.5-1.5 28.5-1.5-2.5v-2q.4-41.1 11-72l1.5-27.5.5 2.5-1 12v2l.5 3.5q14.9-48.1 43-83l1 2 11.5-10.5 1.5-2.5 1.5-.5 2.5-3.5q10.1-9.9 27-13l.5 1.5q-17 5-28 16l1.5.5 33-19 9.5-2.5.5-1.5 37-16zm-.5 3v1l8 2 27 5h1q-13-10-36-8Zm-7 1-20 7h20q13 5 32 5 17 3 31 10h1l-17-13zm-13 15-13 3 6 1 4-1 39 1v-1q-15-5-36-3Zm1 6-1 2 15 2 39 14 15 3 16 8 4 6q4 1 1 3l-1-1-12-11-19-4-46-16-23-4q-26 6-46 17l-3-1 1-2v-2l-22 15-7 9-5 4q-19 17-30 41l1 1 14-22 4-3v-1q26-32 70-46l1 1q-29 10-50 29-37 30-52 82-2 20 2 35l3-16v-25l7-15 2-1-1-1 6-17 2-1q1-4 3 0l-17 39 1 7q6-28 21-48l3-2v-1h1l-12 20-13 37 2 22 10 41q8 22 22 38v1l-2-1q-28-33-33-88l-1-1-4 19q5 29 16 53l5 3 2 4 27 23 3 4-21-16-9-7 15 23 25 19 23 4 4-2 12 7 32 10v3l12 1h2l4 1q18 0 28-8v-1l-8 1q-18 1-29-3l-2-3 19 4q15 0 27-4 8-3 9-12 2-3 3 0l-4 8-2 3q22-4 36-18 13-11 21-28 2-3 3 0l-10 15 1 1 9-11 2 2-6 9-8 8-25 17q-13 7-29 9l-9 7v1l10-2 18-9 12-2 29-21q38-36 45-103l-1-14q-9 49-25 90l-2 1 15-48 10-48q-1-23-12-36-4-6-12-7l1-2 10 3q10 12 15 30l2-9q-1-26-14-38l-3 1q-4-2-2-8l-1-1-1 8-3-1 2-9-3-5-2-2-18-21-27-20-30-13-1-2q27 7 46 22v-1q-16-17-40-24l-2 1-18-3-2 1-13-1h-2l-2 1zm-25 1q-19 3-31 13l-1 2-2 1 1 1q16-12 40-15zm-57 18-15 10q-10 8-15 22l1 1 16-20 14-12zm204 7 27 43h1l-14-28-6-4 4-1v-1zm-231 12q-33 38-45 96l1 5v2l-1 5v2q0 22 5 39l1-57v-2l1-3-1-2 8-29 2-1-4 11v2l-2 4 1 2 12-32 23-41zm229 3 18 25h1l-13-19zm41 70v8l-3 11 2 12q2 25-4 44l1 3q6-21 7-47 1-19-3-31Zm8 2 1 23 2 2-1 13 1 3-1 10-1-4-5 24-15 41 1 2 4-8 5-4-10 15-1 6-24 30h-1l-1 2q-14 16-33 27l-1 2q21-8 37-23 20-17 35-39l11-40 3-32v-2l1-2-1-6v-2l1-3-2-13-2-1 1-2-2-1 1-5zm-303 64-1 6 7 22 2 1zm290 12-5 13 1 2 4-11zm-281 22q1 13 9 23l5 4zm269 23-19 22 1 1 5-4 13-17zm-267 6-1 2 11 9 4 4-3-5zm29 19 4 8q9 9 24 14h1zm219 2-42 29-21 10-15 2-2-3q-11 5-27 5h-2l-10-1-12 1 30 5q31 3 51-6 28-17 50-40zm-186 17q20 14 52 19h13l-21-3 1-2 7 1h4l-33-13-3 1zm142 4-17 7-1 2q12-1 19-8zm-157 1 4 4v2q14 12 32 20l18 4 24-3 1-1-48-13zm-16.5-296-2.5 3.5q-25.9 27.1-38.5 67.5l-1.5-3.5q13.4-40.1 40.5-66.5zm-235 24 1.5.5.5 1.5 3.5 1.5-1.5 3.5-5.5-1.5 1-2-1-2zm184 1 1.5.5-2.5 3.5-13 9-.5-1.5 5-3 .5-1.5zm503 6 .5 10.5q-4.9 18.6-17.5 29.5l-13 10-30 17 7-8q24-10.5 40.5-28.5l7-12z"/><path fill="#0f0e0c" stroke="#0f0e0c" d="m493.5 402 34 1 16 3 30 14 9.5 7.5 11.5 16.5 1.5-.5-4-17 4.5-2.5 2.5 4.5 5 28q-1 3.5-6.5 2.5L574 445.5l-.5-1.5-4.5-2.5 3.5-1.5 20 9 .5-1.5-15-13-.5-1.5-1.5-.5-6.5-8.5q-13-10-31-15l-31-2-45 12-19.5 13.5-.5 1.5-6.5 5.5-11 14-3 10-12 23q-3.1 10.4-2 25h1l14.5-21.5 2.5 4.5q-10.1 9.9-15 25l1 3-3 2-.5 1.5-1.5.5-.5 2.5-16.5-35.5q2-4.5 4-1l9.5 18.5 1.5-20.5 6-20 16-30 12.5-12.5 22-13 25.5-9.5.5-1.5zm5.5 2-11 3-1 2 15-4zm75 20 1 4 8 6 1 1-2-4zm-222.5 24 .5 2.5-1.5 7.5-.5-8.5z"/><path fill="#0f0e0c" stroke="#0f0e0c" d="M510.5 454q26.1-2.6 37.5 9.5 9.8 10.2 15 25 3.5 13 2 31-2.7 22.8-17.5 33.5-15.2 12.8-44 12-22.9-4.1-35.5-18.5-9.5-9.5-9-29l1-3v-4l2-13q6.8-16.7 18.5-28.5 12.3-10.2 30-15Zm3.5 2-11 3-1 2 2-1q23 0 38 9 13 13 19 35 0 31-17 47h2q9-8 14-19l3-20q1-27-11-40-11-17-38-16Zm7 13 1 2 19 11 9 14 1 8v2l1 2v4h-1q-1-12-6-20-11-16-31-21-15-1-22 6l-5 6h-1q-8 8-10 23-2 18 6 27l8 6v2l13 6 15-1 22-8q10-10 14-27 2-18-6-26-8-14-27-16Zm-45 19-7 14 1 16 1-3-1-2q0-15 6-23zm-12 27q-3 20 7 30l3 1v2l12 7h1q-20-12-23-40Zm89 9-10 16 1 1 9-14zm-73 10-1 2 8 6zm55 8q-10 6-24 7v1q18 2 25-7zm-1 11-13 4-10-1-2 1-8-2-5 1 12 4q18 2 27-6zm162.5-94 7.5 10.5-1.5.5zm30 23 5.5 1.5v6l-12 25 11.5 1.5 6.5 4.5 1 16-1.5 7.5-.5-20.5-2.5-3.5q-4.3-3.7-14-2l-3.5-2.5 1-6 11-19 1-6-4.5-.5-6 4 3-4zm-10 7 2.5.5-5.5 9.5-.5-3.5zm-431 3 1 6 4-6 .5 2.5-3.5 5.5-2.5-.5-1-5z"/><path fill="#0f0e0c" stroke="#0f0e0c" d="m613.5 495 4.5 3.5v6l8 23v2l-1.5 3.5-2.5-1.5-8.5-25.5-.5 11.5-5 24-8 20-7.5 8.5-1.5.5-4.5 6.5-1.5.5-.5 1.5-1.5.5-5.5 6.5q-16.4 16.1-41.5 23.5l6.5.5q12.7-2.8 20-11l.5 1.5q-12.4 17.1-46.5 12.5l-2.5-1.5-.5-1.5-12 1-30-7v1l15.5 7.5-1.5.5q-30.6-8.9-50.5-28.5l-6.5-9.5-.5 3.5 3 12-2.5 5.5-2.5-2.5-5-17v-2l-2-11 5.5-2.5 27.5 9.5 1 2-4.5 1.5-20-6 .5 1.5 14.5 19.5 9 5-4-5-1.5-.5.5-2.5q14.5 13 36 19 17.4 5.1 42 3 16-2.5 27.5-9.5l-3.5-.5-16 1-1.5-2.5 9.5-3.5-1 2-2.5 1.5 8.5.5 16-5 23.5-19.5q12.7-13.8 19-34v-2l5-25h-1l-8.5 12.5-6 2-.5-2.5 14-21-1-1zm89 7-.5 1.5-7.5 16.5-1.5-.5zm-394 7 4.5 2.5 1 4v2l-2.5 11.5-1.5-5.5 2-9-3.5-2.5q-5.3 3.7-4.5 13.5l3 5q-2.5 4-5-2l-1-8 5.5-10.5zm626 22 1.5.5 2 18-1 3 1 3-6.5 27.5-1.5-.5 5-22v-2zm-646 19 3.5 10.5 5.5 5.5 1.5.5-.5 1.5-5.5-3.5-6-10 1-2zm446 16 .5 2.5q-5.5 33.5-20 58-21.4 40.6-52.5 71.5l-2.5-.5q29.6-31.4 52-70 15.7-26.3 22.5-61.5Zm-510 11 .5 2.5q-15.8 7.7-26 21l2 1-18 21q-7.2 12.8-8 32l1 3 1 5-1.5.5-2.5-5.5-1-17 7.5-19.5 3.5-2.5 8.5-11.5 5.5-4.5q5.8-12.2 16.5-19.5zm135 2 8.5 17.5-3-2zm-54 4 4.5 1.5-.5 2.5-2-1-.5 13.5 4 12 1 3 1 3-1.5.5-5.5-14.5v-2l-2-15zm384 2 1.5.5-31.5 60.5-.5-1.5 14-30-4 3-20.5 21.5-1.5.5-.5 1.5-13 9v-1l1.5-.5 1.5-2.5 29.5-26.5q14.4-14.6 23.5-34.5Zm-356 10 3.5 1.5 4 6q5.3 10.2 5 26l2.5 2.5 21 6 17.5 14.5 1 5-2.5 1.5 1.5-2.5-2.5-4.5-13-10q-8.3-6.2-22-7l-4.5-3.5q-.3-14.2-5-24l-7-9z"/><path fill="#0f0e0c" stroke="#0f0e0c" d="m708.5 609 1.5 5.5-21 34-45.5 54.5-.5-2.5 49-60q11.2-11.3 16-29l-1.5-.5-17 14 2.5-3.5.5-1.5zm222 3 1.5.5-3.5 8.5-.5-4.5zm-618 8 2.5 1.5 5 11h-1l-6-9 .5-1.5-1.5-.5zm117 3 6.5 7.5-2-1zm299 0 2.5.5-6 5-47.5 59.5.5-1.5q20.7-33.8 47.5-61.5zm-42 3 1.5.5-11 10-.5 1.5-1.5-.5zm-14 14-8 9-2 1 6-7zm-14 7-.5 1.5-2 5 1.5-.5 3-2-6.5 7.5-18.5 36.5-.5-1.5 15-31-8.5 7.5-14.5 11.5-.5 1.5q-15.1 14.4-38 21l-3.5-1.5-1-4 1.5-3.5 1.5.5-1 5 6.5 1.5q34.3-17.2 59.5-43.5zm201 0 2.5 1.5 4 9-1.5 2.5-6.5-4.5-1-4 2-1zm-487 8 10.5 2.5-11.5.5-1.5 1.5 3.5 7.5 10 3 12-1 4.5 2.5 9 18-1.5.5-11-18-3-1-2 1-2-1-2 1h-2l-12-2-5.5-5.5-1-5 1.5-2.5zm223 24-.5 1.5-5.5 8.5-.5-1.5zm40 21-.5 1.5-2 7q2.2 3.7 4.5-1.5l4-3 .5 1.5-5.5 6.5-5.5-1.5 2.5-9.5zm-84 5 1.5.5-27 37-8 16 1.5.5 8-7-4.5 5.5-2.5 3.5-3 1-1.5-3.5q9.1-22.9 24-40l-1.5-.5q-4.9 5.1-16.5 3.5l-3.5 4.5-10 4-.5-2.5.5-1.5 10.5-3.5-1.5-2.5-13.5-7.5.5-1.5 13 7 2-1q1.5 4.5 9 3l16.5-7.5zm88 6 .5 1.5-7.5 8.5-4 2zm-226 7 46 17 38 7h9l5.5 2.5q-2.2 3.8-10.5 1.5-52.3-5.2-88.5-26.5zm294 5 3.5 1.5 15.5 18.5 21 10 28 7 13 1q7.5-.5 10.5-5.5l2.5-3.5 2.5 1.5-5.5 7.5q-5.3 4.2-15 4l-3-2h-9l-29-8q-17.4-6.1-27.5-19.5zm-500 6 .5 2.5q18.7 41.3 47 73l-10-9-30-44-8-16zm-48 6 1.5.5q14.3 34.7 36 62l-4-3q-23.2-24.8-33.5-59.5Zm77 23 2.5.5 8 18 24 37-5-4q-18.7-21.8-31-50zm592 13 1.5.5-7 6-2.5 3.5-42 33-.5-1.5zm-613 3 3.5 2.5 2 9-2-1-4-7zm362 15 1.5.5v2q-2.1 16.6 4 25 12.8 22.2 31.5 38.5 6.9 7.1 19.5 8.5l-.5 1.5-2 1-15-5-25.5-19.5-7-10-10-35zm8.5 37q1 10 10 16h1zm-148.5-35 2.5.5q-4.4 10.1-4 25l7 21h-2l9.5 17.5 5.5 2.5-.5 1.5-2 1-8.5-5.5-11-21-1-14v-2l-2-18 2.5-4.5.5 1.5-1 4 1.5.5zm-.5 36 1 8 3 2zm335.5-11 2.5 1.5-18.5 13.5-8 3-.5-1.5zm33 3 2.5.5-1.5 2.5-12.5 10.5 3 1-14.5 8.5-1.5-1.5 11.5-11.5zm-238 8h2l1.5.5 1 4-2.5 3.5q-4.2-1.7-2-8Zm263 12-5 6-11 5-.5-1.5zm-688 6 1.5 2.5.5 2.5 2-3 2.5 5.5-2.5 1.5-3 1-4.5-.5.5-2.5 2.5-.5-1-2zm511 114 4.5.5.5 1.5q7.5-1 8.5 4.5l-1.5 2.5-5.5-1.5-2.5-4.5-3.5 1.5-.5 1.5-1.5-3.5zm-226 15 2.5 1.5-1 2 2 3-1.5 2.5-5 1-1.5-2.5zm217 44 .5 2.5-2.5 3.5-3.5-.5.5-1.5 1.5-.5.5-1.5 2.5-.5z"/><path fill="#f7f7f5" stroke="#f7f7f5" d="M.5 0 1024 .5l-.5 1023.5-221-1-13 1-2-1-143 1-.5-1.5 3-6-1.5.5-1.5.5-.5 1.5-2.5.5-1.5 2.5-1.5.5.5 1.5-367.5-.5 1-2-2.5-1.5-.5 2.5.5 1.5-4.5-.5-.5-1.5-1.5.5-.5 1.5-262.5-.5L.5 517l2.5-1.5-3-2L.5 377l2.5-.5-.5-2.5-2.5-.5zM254 59l-2 1-3 4 6 2 2-3-1-2zm4 31-2 2 1 2-3 5 3 1v-1l2-1zm205 36-11 5 1 1q8-4 22-4h2l2 1v-1l-2-2zm26 19q-15 0-25 6l1 2 25-4 1-2zm88 5q-21 8-35 23l-21 3-9 5-10 15-11 2-4-9-1-1-4 11-11 7 2 3 2-1 4 1-3 8 1 2q-7 16-9 37l-22 3-18 5-4-2-27-30 1-2-1-11-8-10-4 2 9 12v4l-1-1q-3-5-10-5l-3-1q-5 3-4 11l-3 2-4-7-2-1-3 4 1 3-2 3-2-3-2-2-2 8-2 1-2-2 1-4-3-2-3 13-3-1v-12l7-11 8-4 5-5q3-19 14-29l18-16 7 1 20 15q14 12 21 33l-2 1 7 11 2-1-4-16-15-24-1-1-1-1-2-2-1-1-20-17h-4l1-2-2-2q-11-1-15 4l-4 5 3-1-4 3-1 2-2 1q-14 14-20 36l-8 4q-9 7-12 21v2l2 10-7 5-2-3-3-2q1 11-6 14l2 4-1 3h3l17 45-12 10-3 4h-1l-16 19q-21-12-46-19l-2-4-8-9h-4l-1-12q5-8 17-9l9 1 24 15 4 6 4 2 1-4q-15-16-36-24-15-2-21 5l-1-3-5 6-1 15-3-2-3 2 1 4q3 4 12 3l6 5-2 4-7-1-3-1-3 1 5 10-1 3-1 1-4-4-4 2 5 7-1 3-2 1-1-1-4-4-4 2 6 8-2 4-7-8-3 2 7 12-3 2-12-15-1-6 1-10 2-1 2-3-1-2v-22l7-24 14-8h14l26 5 22 10 12 14 2-1-2-6q-11-13-27-20l-36-7h-10l-15 7-6 7 1 5-6 17 1 24h-1l-4 9v10l3 12 12 10-2 4-5-3-2 3 3 3-3-1-2 3 4 2 2 4-4 8 2 8h3l6-10 26 30 4 2h2l-6-9-1-3 15 14q-9 15-10 38l-47 8-12 4-2 5 3 1-2 3-14-4-2 1 2-12-1-1q-6 3-5 13l-2-2v-8l6-9q11-14 29-22l8 1 17-3-6-2-9 1-4-2q-18 4-28 14-11 8-17 21v9l4 11-2 3 2 3 2-1h2l4 1 1-2-5-1 5-6 12 2v3l-5 1-5 7 9 3v5h-3l-3-1-2 1-1 3 9 3v4l-4-1-2 4 6 2v2l-5 2 6 4v1l-17-6-17-18h2l2-1-1-4-1-1-6-7-5-16v-19l3-5 1 3h2l2-3-2-2-1-1 7-7 24-13 3-1v-1l19-6h2l20 3v-1q-4-6-13-6-18-1-28 4l-33 20-8 9-3 9v15l9 26v2l10 16q9 13 29 16v3l-8 1-1 2q4 4 13 3l6 12 1-2v-2l-1-2 1-4q16 2 29 8l3-2 8 2h-1l-2 3 2 13 11 33-21 16-1 2-9 6-1 2-2-3-4 3 1 10-6 8-2 13-4-1-5-5-1-1-7-7 1-10 17-32 14-9 2 1v-1l-2-2-6 1h-2l11-9v-3l-14 9-5 6h-1q-15 14-20 38-2 16 4 24l5 2 2-3q3 6 11 7l3-1 2-2 1-12 4-5 2 4-2 5 5 2 2 4-1 3 2 3 6-2 2 6-3 1-1 2q-3 1 2 3l6-2v2l-7 4 2 2 8-1 1 4-7 4-1 2-3 2-17-4-4 1q-22-4-34-17-4 2 1 5v1l-9-7-7-10 1-15-1-1-5 13q1 10 8 16l17 11 8 1 7 4 28 8q15 0 21-10l2 2-3 2 3 3 3-1 7 4 3-1-1-4 40-14 18 23h2v3l3 1 1 3h2q2 5 4 2v2l2-1-1 2 3 1-12 31-1 8-4 2 2 3-3 2-5 8-2 10-16-3-7-13q-3-28 9-39l11-10-1-3-16 8-5 6-7 23q-2 17 5 26l4 1 1 3q9 7 26 7l3-5-1-3q0-10 6-14l2 4-2 4q-1 5 4 6 7 0 10-5l3 2-2 4 2 3 5-3 3 3-4 5 2 3 8-5 2 3-6 6 2 2 5-2 3-4 5 3q-9 9-21 14l-10-1v-1l-1-3-2 1-4-1-20 1-8-1q-6-6-16-6l-6-7-5-14-1-16-2-5 6-19 19-30-1-6-10 4q-16 13-19 39l1 9-1 23 2 3 1-11 8 31 3 2 9 2v2l15 5 15-1h2q9-2 13 2v2l5 2h5l10-4 18-15 3 2-3 5 5 1 3-4 7 3q1 3 3-1l-5-6 12-10 26-30q17 7 39 10l7 32 7 20-3 13 1 7 3 1v2l-1-1-2 1-1 2q-6 5-16 7l-4-3-2 5 2 2-4-1-9-14v-5l-7-21 4-20-1-5-2 1-2-1-4 9 2 23v2l-1 2 1 7 13 24 6 3 5-1v-1l20-8q5-2 2-4l3-2 4 1 1-3-6-5 1-8 3-2q0 8 6 11 5-3 6-11l4 1-2 7 4 2 3-5 3 1h1l-3 9 3 1 7-11 2 1-3 10 3 1 7-13 3 1-6 13q-4 6-13 7l-2 4-3-2-29 21q-7 5-18 5l-13-3-2 3 7 2v1l-5-1q-19-24-26-60v-17l2-4-1-3 6-4v-1l4-2-1-3-2 1-1 2-5 4q-7 4-7 14 0 18 5 32l19 41 9 5h6l22-6 31-22 1 2 16-8q8-8 11-21l6-3 3 1-1 7 5 1 2-10q7 0 10-4l-1-4-2 1h-5q8-20 10-45v-2l4-3 36-10 17 22 18 17-1 2-1 3 15 21-3 2-3 4-9 6-13-1-17-11-9-12-3-15-2 3v9l7 15 19 13 11 4-9 1q-3 2 0 3 17-1 28-10l9-10 1-4-2-2-2 1-6-7-1-1-3-6 4-2 2 4q1 4 8 3l3-5-1-9 4-3 1 3h2l2-5 3-2 3 4 5-9 2 8-1 5h2l3-5-1-8q-3-3 3-5l3 12q-1 11-7 19-3 5-11 6l-1 5-11 17-16 19-8 6h-2l2-1v-1l-18-8q-16-12-26-28l-10-16-2-10 1-13-2-1-4 7 2 15 7 21 5 8q12 13 28 22l12 4v2l-2 1 2 3 8-1 10-6 21-23 4-9v-2l3-7 4-2-2 3 1 1q13-9 17-27l-3-19 6-5 4 5 2-1-3-6 6-7-2-4-5 3-4-12 2-1 2-3 4 2 1 1v-8l-5-10-1-3-1-2-1-1-2-3-1-1-3-3-4-4 29-29 44 12 2 4 3-2q6 9 19 12l-1 2 1 4q1 10-2 17l-11 2-15-2-19-11-14-16-3 1 3 9h2v2q14 14 36 21l22-1 8-5v-3l-2 1h-2l2-11-2-9 4-2-1-4-2 1q-12-1-17-8l2-4 9 3 3-2-2-5-6-5 3-4 8 4 1-2-1-2-5-4 3-4 3 2h3l-3-6 1-2 3-2 3 4h3l-4-8 1-3 2-1q11 9 12 28l-3 8 1 2-2 7h2l2 9-1 9 1 4-9 27-8 6-19-1-24-6-21-10-19-21-2 1 11 17q10 10 26 16l39 9q9 1 14-2l12-16 5-24v-2q1-13-4-19l4-15-2-16-3-1-10-14 3-8 4 2 1-3-4-4 1-1-2-5q-2-5-4-1l-28-24q12-17 15-42l-1-6-1-1-1 2-1-4 37-9 3 1 3-1 4-10v-2l10 2 7-2 6 14q1 6-2 9l-16 11-25 4-8-1-9 3 5 2q20 1 36-3l20-12q8-5 8-19l-1-1-3 6-9-18-4-1-1 3-14-2 7-2 2-3-3-5 1-3-7-4 1-4 5 1v-3l-4-3-1-3h2l5-1-7-5 1-7 12 5 1-2 2 1 7 10 1 10 18 23 7 18h-1l-9 11-24 19-38 8-17-3-1 3 17 4h16l46-17 3-4 1-2-11 5h-2l19-17 2 1 2-8 1-3q-8-26-26-41l1-2q0-12-7-16-7-8-20-9l-1-2v-2l5 1 1-4-12-3-2-2-3-2-1 3-33-7-1-3v-2l-7-39 20-15 4-5-2 1-2-4-7 3-2 1 6-5-3-1 11-10q2-3 4 2l2-1-3-8 6-3 5-7 6 2 10 8 2 4q-2 18-12 29t-25 17l-3-1-4 1-1 2q-3 1 2 3l11-2 17-11q15-11 19-33l3-1-3-7-19-14 4-5-1-3-6 4-7 10-4 2-3-1 5-7-1-4 5-3-1-3-15 2-1-2 7-3-1-4-9 2-2-3 7-3v-1q3-2-1-4l-9 3-2-2 10-4-2-4-11 2-5-5q3-4 12-2l-1-1 3-2q16-1 21 9l-1 3q26 12 48 30l8 12-2 12h2l4-7q0-12-6-16-20-19-45-32l-5-6q-6-9-18-10h-2l-15 4-2-1-3 1h-2l2-1v-3l-3 1-6-3-2 5-35 10-3 1v-1l-2-4q-13-15-32-24l7-26 20-9 7-17 11 2 3-1 2 1 10-1 4 8-3 13-14 20-12 8-2 3v1q10-1 16-8 13-12 19-32l-1-6 1-3 2 1 2 3 2-1-1-4q-7-8-20-8h-2l-2-1-16 1-5 5-3 11-10 7h-5l1-3 2-1 5-6v-5l-5-8-7 1-5-2-2-2 4-3-2-4-6 3-6-3-1-1 5-2-1-5-9 3-3-1-2-2 21-7-2-3 6-1h2l6 1 2 5 7 2 4-1-1-2 10-3q23-2 38 4h2l17 9v-1q-18-15-49-16h-2l-12 2h-2l-7 2-1-1-11-6-18 2-13 8 1 2-2 1-14-8 2-3-2-2-3 4-8-1-2 4 4 2-39 42q-16-10-38-13l-1-2-5-25 3-2 6-11-2-18 4-2 10-13 3 1 6 10 3 21q0 14-4 24h4q6-9 4-26v-2q0-15-5-24l-6-6-1-1 14-5-3-3q-16 1-23 10l-10 15q-2 9 2 13-1 8-5 12l-3-19-2-3-5 1-7 7-9 19h-2l2-16 9-17-3-2q-11 13-16 31l-2 1q0-13 4-20l2-1 6-13-2-2-4 5q-2 4-8 3l3-4-1-6-3 1-6 8h-4l6-10 7-5 19-4 2 3q15-18 40-26 6 5 19 4h2v-1l-18-7zm18 9 7 17 3 11v10l1 3v11l-5 32 3 1 4-17 2 1 2-6v-19l-3-18q-2-14-9-23zm-283 6q-32 15-57 35-11 6-16 19l5 1 1-5 26-23 43-26zm46 3-2 1-2 3-2 1-3 4 1 2 8-9zm3 4-15 17-2 1-2 3h-1l6-11 2-1-1-3q-15 12-21 33l1 3h3l-1 2 2 5 6 1 7-22 20-27zm454 0v5h2l2 2-1-4-1-1-1-1zm-573 3-15 12-20 23 1 1 3-4 2-1v-1l13-12v-1l2-1 1-2 15-11 1-2zm607 6-1 5 6 10 9 7 8 8-1-4q-12-11-19-25zm-448 5-5 3q-8 6-11 18l3 1 11-16q10-1 16 3 15 14 22 36h2q-4-22-17-34-4-9-17-9v-1zm478 0 17 35 2 1-15-32zm-196 10-11 3-5 4 2 6 3 1v2l6 1h2l27-2h2l2-1 5 1h2l6-1h3l-5-4-28-3 3-1h2l2-1 5 1 8-2-1 2h3v-1l-9-3h-2l-11-2-4 1zm-406 13-4 2-5 6q-4 1 0 3l1-2 9-7v-1zm502 34-2 2 1 6q-2 17-8 31l3 1-9 13-25 18 1 2-7 4q-5 2-1 4l9-3 24-20q12-10 16-28l-2-5 3-12-1-12zm90 25-2 2 3 9h1l-2-5 1-5zm-662 18-4 5-9 24-3 20 1 5-1 4 4 17q1 3 8 2l2-3-1-10q-1-18 3-30l-1-5 1-2-1-1-3 5h-1l5-28zm594 16-2 2-5-1-3 5 50 32v-1l1-1-5-5 1-2 6 3h3l-1-2-3-3-1-1-1-1-3-3q-15-15-37-22Zm-613 7-2 3 1 1q6 1 8-2v-2l-4 2-1-1zm-19 25-6 10 2 2 8-3-1-2 2-4zm-138 8-2 3h-2l-1 2h4l2-4zm134 6-3 2-1 4-1 2 3-1 2-4zm10 26-3 7 5 2 2-1 1-3-3-2-1-2zm687 7-7 21-5 9q-17 20-43 31l-6 7q23-9 41-24 16-12 21-36zm-737 28 2 5h3l1-2q-1-4-6-3Zm14 20-2 4 3 1q1 3 3-1zm-3 16-3 4 5 2 1-4zm-92 67-2 1-1 2 3 1 4-2v-2l-2 1zm890 10v6l-1 5 1 12 1 3-3 28-5 14 1 2q8-13 10-31v-22l-3-16zm-711 55-12 8-1 2-2 1-25 30-3 2-9 23q-1 13 5 21l2-1-2-4 2-22 4-11q7-14 19-23v-3q11-14 28-21zm708 34-4 10h3l2-5zm-71 36-3 4q0 8 6 10l3-2-3-10zm-29 19-4 2q-5 3-4 12v2l3 34 3 9 3-1 2-4q0-14 4-23l-1-8v-2l1-6-2-12zm-653 24-1 3h2v2h2v2l-5-5-6 1 1 4q17 20 52 24l2-1 3 1 4-1 1-3 5-4-2-5-4 1-1 2-5-1-2 1h-2l-23-8-1-1-10-6-1-1zm-45 16-3 6h2q1 3 3-1zm74 23 1 10 14 26q14 23 33 41h1l-30-41-16-29-1-6zm-47 5q-1 12 6 21 11 22 27 41l6 5q-22-30-38-66zm77 23-2 2 12 25 20 28 6 5-26-41-7-16zm603 3-5 4-1 2h-1l-1 2q-37 35-82 63-5 2-1 4 44-26 80-61l11-12zm-624 13-2 2 6 11h2l-3-10zm485 41-10 17-5 3-19 32v2l1 4 3 1 4-2q20-22 32-52h-1v-3l-2 1-3 6h-2l3-6zm106 4-26 22 1 2h4l12-8-2-1 2-3v2l2-1-1-2 5-4 4-6zm-240 9q-3 6 2 8l3-1-1-6zm268 8-5 5-17 9 2 2q13-4 20-14zm-690 8-5 2-1 3-1-1-2 1 5 8 8-2-1-6-3-1 1-3zm6 10q-4 2 0 4l-1 2 1 1h2l-1-3 1-2zm384 3-24 12 2 2 2-1v2q-18 15-42 25l2 3 10-3 1 1-3 1-2 4h6q25-10 43-29l2 9 3-1q5-6 7-16l-2-4-3-2-1-2zm343 5-2 6 3 1 2-5zm-742 1-2 4 2 1-1 3 1 1-2-1-1 2h4v-1l1-3-1-5zm69 86v9h2l2-5zm14 5-2 1-2 3 4 2 6-1zm437 5-3 1-1 6h3v-1l3-1 1 4 6 2 2-4zm-233 15-2 7 3-1-1 5 3 1 5-3-1-7-2-2-2 3q-1 3-3 0l1-2zm230 14-1 2 7 2v-1l-2-1zm11 1-3 3 3 4q3-1 2-6z"/><path fill="#f7f7f5" stroke="#f7f7f5" d="m514.5 205 3.5.5-8.5 16.5-.5-1.5 3.5-14.5z"/><path fill="#f7f7f5" stroke="#f7f7f5" d="m495.5 207 1.5.5q-2.2 8.3 1.5 10.5l6-3q-1.4 9.4 3 13 5.8.8 6.5-3.5l1.5-2.5 2 8 4 1 4-5 3 7 2 1 4.5-2.5 6.5-12.5 6.5 30.5v2l1 8-6 3 .5 1.5 7.5 1.5 5.5 19.5 2.5-.5-3-18 1.5.5h6q10.4 10.6 28.5 13.5l.5 1.5 1.5.5.5 1.5 6.5-4.5.5-1.5 1.5.5.5 3.5 5-2 4 1 1.5-2.5-3-3 9-9 25.5-32.5 9.5 5.5-5 10q1.8 4.2 3.5 1.5l8-3-1.5 2.5-6 10v5l5.5 1.5 14-9-2.5 3.5-4 11 5.5 2.5 21-15-.5 1.5-16.5 43.5-1-2-2.5 1.5.5 1.5 2.5.5-.5 1.5-8-3v1l1.5.5 3.5 4.5 1.5.5-1.5 2.5-3.5.5 2.5 9.5 4-1 5 6 8.5 6.5 15 16-1 3 5.5 3.5q2.5-4.5 5 1l6 4 3-4 4 2 1-6 2.5-1.5 1.5-4.5 27-10-.5 1.5-3 5 2.5 3.5 4.5.5-5 4 1.5 5.5 5.5.5-3 5 2.5 3.5 2 1 6-2-1.5 2.5-1 5 5.5 1.5 11-6 8.5 12.5-10.5 6.5-36 32-5-6-1.5.5 3 10q-4 1-3 7l3.5.5 2-1 7.5 38.5-4 2 1.5 2.5 9.5 1.5-2 1q-1.7 7.8 2.5 9.5l3 2 4-3 4 11 2 1 1-3 2 1q2-4 4 0l1.5-.5 2-8-1-2 1-4-.5-1.5 12 1 22.5 5.5-10.5 1.5-4.5 3.5.5 4.5 3.5 1.5-8 4 2.5 4.5 5.5 1.5-10 4-1 4 7 3-4 2-1 3 3.5 2.5 16.5 2.5-1 12-1.5 1.5-38 4-12 3-1-8-2.5 1.5-1.5 5.5-3.5 2.5-.5 1.5-7.5 1.5 1.5 3.5 5.5.5q-2.1 19.4-9.5 33.5l-4-1-1.5 2.5 3 5-1.5.5-4-2-.5 1.5q5.8.8 5 8l-1 2 3.5 2.5 3-2 .5 1.5-2 7 1.5.5 3-5q4.2 1.8 1.5 3.5l1.5 5.5 1.5-.5.5-1.5 3-1 1 3 4 1q8.8 11.3 22.5 17.5l.5 1.5 5.5 3.5-2.5 3.5-9-5h-5l-2.5 5.5 5 6-1.5-.5-11-3-2.5 3.5 6 7-1.5-.5-10-2-2.5 3.5 7.5 8.5 1.5.5-2.5.5-6-1-2.5 3.5 7.5 8.5 5.5 3.5-1.5 3.5-43.5-17.5q12-17.5 15-44l-2.5-3.5q-5.9 22.1-18 38l-.5-1.5 1-2-1.5-.5-9 12-5.5-2.5 8.5-11.5 1.5-.5 14-26-1-1 4.5-4.5 1.5-.5-.5-2.5-5 2 .5-1.5-.5-2.5-3 2-.5-2.5 1-4-1-4 11-30 2-16h-1q-4.4 25.6-14.5 45.5-2-3-4 2l-2.5 1.5-16.5 26.5-1.5.5-17.5 24.5-1.5.5-7.5 9.5-1.5.5-5.5 6.5 3.5-4.5 26-32 14-21 6-15-4.5-1.5-9.5 6.5-.5 1.5-5.5 4.5-.5 1.5-6.5 4.5-1.5 2.5-7.5 6.5-1.5 2.5-11.5 9.5-.5 1.5-5 4 .5-1.5 34-68-1.5-.5-13.5 23.5-17.5 19.5-24.5 20.5-.5 1.5-2.5 1.5 1.5.5 10-6 24.5-23.5 4.5-5.5-.5 1.5-21.5 43.5-7.5 5.5-.5 1.5-1.5.5-.5 1.5-34 25-12 6h-7l-.5-3.5 10-19-3 2-9 16v5q1.5 4 8.5 2.5l24-13 32-27-1.5 2.5-14 32 3-2 17-36 14.5-14.5 1.5-.5 1.5-2.5 1.5-.5.5-1.5 6.5-4.5.5-1.5 8.5-7.5 1.5-2.5 18-14 .5 1.5-15 26-41.5 51.5-1.5.5-1.5 2.5-12.5 9.5-.5 1.5-.5-1.5 1-3-1.5.5-1.5.5-2.5 4.5-13.5 9.5 1.5 2.5 3.5.5-1.5 2.5 4.5 1.5-1 4 2.5.5q22.3-9.7 40-24l2.5 8.5-27.5 25.5-22.5 14.5 2.5.5q18.2-7.3 30.5-20.5l.5-1.5 14.5-10.5.5-1.5 3-2 .5 2.5-.5 1.5 1.5.5-.5 1.5-2-1-2.5 6.5 2 4-2 1 11.5 17.5 3-1 1.5 3.5-2 1 4 3q.1 7.9 5 11l-1.5.5-2-1-1 2-4-5-4.5 1.5-1 5 .5 1.5-7-11-4.5 1.5 1 6-3-2-1.5-3.5-4-2-2.5 1.5-1 2 2 7-3.5-2.5-2-1-4.5 7.5 4 15-6.5 3.5-32-42-5.5-3.5 1.5-2.5 8.5-5.5-.5-2.5-13 6-5-2-.5 1.5 1 2-35.5 13.5-1-2-2.5.5-1.5 2.5-.5-1.5 1-7-2.5-.5-5 13-15.5 3.5 1.5 3.5 11-1 .5 2.5-10 30v9l2 1 4.5-14.5.5 2.5-4.5 22.5-5.5-.5q1.5-9-3.5-11.5l-4 2-2-9-5.5 1.5-1.5 5.5-1.5-.5v-2q1-8-3.5-10.5l-4.5 2.5-2.5 6.5-3-8-5-1-4.5 11.5-1.5 13.5-3.5-1.5-2-11 2-1-2-8v-2l-8-32 13-2-15-4-2.5-8.5-32-8-5 2-2.5-1.5-1.5-3.5h-3l-6 6-7-1-2.5 4.5 3 3-7.5 7.5-1.5.5-26.5 30.5-3.5-1.5 3-11-5.5-2.5-1.5.5q4.8-3.7 4-13l-2.5-1.5-6 4-.5-1.5 1-6-4.5-1.5-7.5 6.5 3-9-1.5-2.5-2-1-8.5 6.5-6.5 9.5-5.5-2.5 18.5-52.5 22 12-1-2-17.5-11.5-2-3 2.5-7.5 15.5 13.5 11.5 12.5 1.5.5.5 1.5 17 8 .5-1.5q-19.2-6.8-30-22l1.5.5 40 19-1-2-14.5-7.5 1.5-.5 9 2 2.5-1.5-16.5-4.5-7-4-34.5-27.5-13-19 5.5 4.5q17.3 14.7 39 25l16 6 36 20 18 6h9l.5-1.5-10.5-6.5-52-21-37.5-30.5-16.5-18.5-1.5-.5 7.5-15.5q17.2 5.3 27.5 17.5l-.5 2.5-2 1-12-2-4.5 3.5q-1.1 8.6 4.5 10.5l8 3h16l2.5 1.5 10.5 17.5 2.5-.5-.5-1.5-2.5-1.5-6-14-3.5-3.5-7-2-12 1-8.5-5.5-1-4 7.5-1.5 4 1 7.5-2.5-2.5-6.5-15-12-24.5-8.5-1-13-4-13-7.5-9.5-2.5 1.5 8 12 3 10v10l3.5 5.5 9.5 2.5-.5 1.5-1.5.5-6.5 9.5-27-35-.5 1.5 24 33-4 2 .5 2.5 3.5-1.5.5-1.5 1.5 3.5-3.5 7.5-2-1-.5 1.5 1 5 9 16-17-16-22-27-10-18q-13.1-32.9-20-72l-3.5-6.5-1.5.5 13 52-1.5.5q-10.4-16.6-15.5-38.5l2-3-6-2-3.5-9.5-2.5 1.5 1 7-2.5.5q-18.9-9.1-44.5-11.5l3-2-1-4 7-3-2.5-5.5-3.5-.5 12-6-1.5-4.5-3.5-.5 4-3-1.5-4.5-19.5-4.5.5-12.5h7l29-9 14-2 1 7 2.5-.5 1.5-7.5q6.4-.1 8.5-4.5l-1-3 12-35 1-3-2-4 1-4-2-4 2-6-3.5-1.5-4 6q-21.2-13.3-37.5-31.5l1.5-5.5 6 1 1.5-6.5-2-3 1.5.5 7 1 1.5-5.5-2.5-3.5 8 2 2.5-4.5-3-4 1.5-.5 4 2 3.5-2.5-2-8-8-10 4.5-2.5 47.5 18.5-5 10 1 2q-12.8 11.7-17 32l1.5.5 1-3 6.5-2.5q4.8-14.2 16.5-21.5l14-11-3.5 4.5q-21.4 27.1-36 61l-16 44-3 20 1 3 1.5 5.5 1.5-.5-1-6 1-2v-2l3-20 11.5-28.5 4.5-1.5.5-1.5.5 1.5q-11.1 18.9-13 47l2 5-1 8 3.5 2.5 4.5-9.5-1.5-.5-4 6-.5-5.5 2-4-1-14q6.3-29.2 20.5-50.5l1.5-.5.5-1.5 1.5-.5 14.5-15.5q14.7-14.8 33.5-25.5l.5-1.5 1.5-.5-.5-2.5-38.5 30.5-.5 1.5-11 10 1.5-2.5q15.8-27.2 36.5-49.5l25-21 14-7 .5 3.5Q367 387 335.5 423l-1.5.5-20 30-2 6 2.5.5 16-21 1 5 7.5-5.5 31.5-38.5 4-3-.5 1.5-6 14-1 9 1.5.5q14.3-42.7 42.5-71.5l-1.5-.5q-20.9 19.1-34 46l-1-2-14.5 12.5-25.5 31.5.5-1.5q8.7-23.3 26.5-37.5l16.5-10.5-.5-1.5-8 3-12.5 9.5-.5 1.5-.5-1.5 28-41 8-21-1.5-2.5-5-1q-14.4 5.6-24 16l4-5 1.5-.5 18.5-19.5 22.5-19.5-1.5-3.5q-22.9 10.6-41 26l-.5-2.5-.5-1.5-5 1-3.5-7.5q6.4-7.6 17.5-10.5l3 2 .5-2.5q-1.7-4.2-9.5-2.5l-10 7-2-3-2.5-1.5-16-45 7.5-4.5 7 10 4.5-1.5.5-5.5 5 6 4.5-2.5.5-6.5 5 6 5 1 2-6 5 2 2.5-6.5-5-19 2.5-.5 33.5 40.5q-12.9 4.1-21 13l1.5 2.5q9.2-8.8 23-13l2 4 9 4h6l27.5-8.5-2.5-1.5-32 7-.5-1.5q16.7-9.3 38.5-13.5l-.5 1.5-2 16-2.5 3.5-30 15-2-1 2 3 20.5-9.5.5-1.5 10-5 2 4 1.5-.5 1.5-5.5 38-14q1.7 2.8 3.5-1.5l-.5-1.5-8 1-32 14-.5-4.5 4.5-15.5q7.5 2 9.5-1.5l-.5-3.5-3.5-1.5.5-1.5 22.5-2.5-1.5-1.5h-16l-4 1-.5-2.5 7.5-43.5zm29.5 84-13 5-5 7 12 4 3 6 2-1-1-3-12-7q7-7 19-8l2 6 2 1-1 3h-1l-1 2 3 2 6 1 9-1-1-6 2-1v-1l-10-2-1 2h-1l-1-2-2 1-1-5q-2-4-9-3Zm47 9-3 2h2v3l6 1v2h-6l-3 4 17 3 49 26v4l19 14 4 5-19-9-3 1 2 8 11 16 9 7h1q-12-11-19-26l1-2 28 15 9 16 1 3 1 4 1 1-4-2-3 1 8 4 3 10-1 9-12-15-2 1 6 11 7 6h3l2-3q1-10-2-15l2-1v-1l-1-1-3-8v-2l6 11q2 11 8 19v4l3 3-1 2h2l10 32 1-2-1-3 1-2 3 2 1 3-1-1-1 2 3 1 2 3h1l-2-7q2 3 4 0l-1-2 1-2-1-3v-2l-1-4 1-3 2 3 2 11h1l-3-14 2-1 3 11h1q-1-16-7-27l-2-1-1 2h-2l2-3h-1l-3-1 1-5-1-1-1-1 3-1-7-16-1-1-18-29-4-6 8 6v2l18 16v2l18 13v-1l-14-12-19-33-10-13q-5-9-16-11l-1 2 12 8q14 14 22 35l2 2-4-4-17-16-1-1-2-1v-1l-6-11-1 2-5-5-2 1 10 11 2 2-5-3v-1l-4-4-1-1-7-6-1-1-15-11v-1l14 9v-1l-24-15v2l-2-1v-1l-25-12q-15-1-23-7zm-116 17-22 9 1 1q14-1 22-9zm7 5-3 4h8l3-1v-1l-2-2-2 1zm-30 16-4 2-4 5-5 3q-7-2-9 2l4 2q11 0 17-7l4-6zm86 1-7 2-3-1-1 2-17 5-43 19h-2l-4 3-1-1-1-1h-2q-16 4-26 13l-10 11-7 6-2-1q-28 33-42 80h-1l3-34v-3l-4 14-2 36-8 34q-3 17-2 40v2l5 16h2l1 2h1q-6-6-6-16v-2l-1-5 1-4v-2l-1-6 5-37 3-6-1 2 1 14-1 2 1 8v2l10 44 11 21h1l-9-18 1-2 2 3 2-1-1-6-1 3-7-15 1-2-2-11 1-31 2 19v2q5 7 4 21l1 3-1 2 1 6 2-4 10 26-2-2-3 1 8 12-7-5 8 12h2v2l22 19 5 7h2v2l34 26 17 9 15 4 29-3 8-3q10 3 26 2l3 1 14-2 2 1q-21 10-46 16h-10l1-3 3-2 1-2-4 1-4 8 4 2q21-3 39-10l49-21q25-11 44-29l22-25 2-1-5 16 1 2 10-26 16-20v-2l-9 10-5 4q11-30 14-66 1-23-5-38v-27l-5-23-2 1 5 25-1 3v2l1 2-1 2-13-34-18-36-1-3 21 17 21 24 3 2-7-11-15-15-1-1-4-4-1-1-47-35-2 3 3 3q-22-11-38-26l-1-2q30 6 53 19h1l-31-16-31-8-19-10q-11-4-27-2Zm-163 88-3 10 1 2 2-7zm341 31-1 3 9 13h1q-2-11-9-16Zm29 24-8 5q-6 4-6 14h2l4-10 7-6 5 1-13 25v6l17 3 3 7-1 18h2l2-12q1-9-2-13l-7-5q-9 2-11-1l12-23 1-6q-1-4-7-3Zm-23 19-10 16v4h2l8-17zm-395 8-2 1q-6 4-5 15v2l4 5h2l-2-5 1-12 5-2 1 4-2 11 3 1 1-7-1-11zm-19 40-2 2q-1 8 3 11 2 5 10 6v-1l-4-3zm448 6-3 9h2l1-6zm-430 27-3 3 2 22 6 17 17 24 2-1-18-28-4-12-1-17 2-1v-5zm315 70-3 2-3 4 6-4zm-10 8-10 11h-1l-4 5 1 1 14-15zm-59 44-2 1-3 4q-6 8-17 10-9 1-13-2l-3-1-11-5-1 2 14 7 1 3-11 5 1 2 12-4 3-5 3 1q8 1 12-3l1 1q-14 16-23 37l1 5h3l9-9v-2l-8 7h-2q13-30 34-51zm-139 14-1 3q38 21 94 26l5-1 1-2-2-1h-2l-47-8zm178 5-12 7 5 2-5 4 3 1-1 2 2 2q12 0 17-8l-2-1-2 1 1-4-1-3z"/><path fill="#f7f7f5" stroke="#f7f7f5" d="m374.5 238 2.5.5 4 16-3-2-6-13zm-8 4 6.5 15.5-2-1-6-13zm-8 5 2.5 10.5h-1l-4-8zm311 1 6.5 3.5-16.5 10.5-.5-1.5zm13 7 5.5 2.5-15.5 12.5-.5-1.5zm-107 14 22.5 7.5q-1.7 4.2-3.5 1.5l-18-7zm-180 42-14 15-20.5 19.5-7.5 9.5-3.5 2.5-43.5 48.5.5-1.5q16.9-36.1 44.5-61.5 19.8-18.2 44-32Zm-45 12 1.5 4.5-11.5 6.5 2.5-3.5 5.5-6.5zm3 8 1.5.5-11.5 13.5-1.5.5-.5 1.5-10 9-4.5-2.5 7.5-8.5zm415 6 2.5 5.5-9.5 2.5zm-246 5q19.8-.8 31.5 6.5l-1.5.5-30-6zm-266 2 4.5 3.5 3 5-1.5-.5-7.5-4.5zm254 0h8l8 3 35 6 14.5 10.5-1.5-.5-27-8-22-2-19-4h-2l-9 1v-1zm263 4 2.5 1.5-12.5 5.5 1-2zm-522 5 6.5 7.5-1.5-.5-6.5-4.5zm525 3 3.5 1.5-12.5 6.5 4-5zm-271 2q16.1-1.1 27.5 2.5l-41.5.5v-1zm-185 1 6.5.5-23.5 21.5-.5-1.5 12.5-16.5zm-75 3 5 6-6.5-3.5zm537 2 1.5.5-.5 1.5-7 4 2-3zm-276 1h40l8 2 3-1 4 2 4-1q18.3 5.8 31.5 16.5l.5 1.5 1.5.5.5 1.5 2.5 1.5-1.5-.5-33.5-17.5.5-1.5-5 1-5-2-.5 2.5 32.5 14.5 29.5 22.5 18 21 1 6-2 6 3.5 1.5.5-2.5.5-2.5 1.5.5.5 5.5 3-1q15.3 11.7 14.5 39.5l-1.5 5.5-8.5-20.5-7.5-8.5-10-2-.5 1.5q9.9 1.6 14 9 7.9 12.6 11 30l-1 3-9 47-16 51 1.5.5q18.9-39.6 26-91l.5 18.5q-2.1 25.9-11 45l-16 32-13.5 16.5-11 9-1-2-6 7-14 10-14 3-24 10 2-3 6-4q16.3-2.2 28-9l30.5-22.5 8-13-3.5-.5-3 4 1.5-2.5 4-7-2.5-1.5q-11.2 19.8-28 34l-9 6-21 8-.5-1.5q6-2.5 6-11l-2.5-.5-.5 3.5-10.5 10.5q-12.9 4.6-32 3l-14-3 2 3 25 4 12-2v1q-12.1 9.4-36 7l-8.5-2.5-1.5-2.5q-24.7-5.3-44-16l-3 1-3-1h-2q-10.9 1.4-17-2L404 613.5l-12-18 3.5 2.5 37.5 30.5 1.5 5.5 2.5-.5q-.4-8.1-6.5-10.5L386 584.5q-14-24-17-59l2.5-11.5 7.5 34.5 7 21q6.9 17.6 18.5 30.5l4 2 .5-1.5-1.5-2.5-1.5-.5q-11.2-13.8-18-32-10.3-28.7-14-64 7.9-35.6 26-61l-7 6q-12.8 17.7-18.5 42.5l-.5-6.5 13-26 3-11-2.5-.5-2.5 1.5q10.2-21.3 27.5-35.5 26-25 65.5-36.5l-.5-1.5q-16.3 2.2-28 9v-1q17.7-10.8 43-14l21 4 40 14 23 5 10.5 7.5 3.5 4.5 1.5-.5-5.5-8.5-12-7-15-3q-23.9-11.1-53-17zM471 391l-28 17q-17 14-29 33l1 2h-2l-1 3h-1l-15 34-2 11-4 2 1 4q-4 10-3 26v4l-1 2 1 3-1 4 6 25 3 5h2l-1 2 7 13 3 1v2l8 6 1 3 23 17 6 2v-1l-16-12-19-19-3-8-2-1 1-2-6-15v-2l12 21 1 5h3l-1 2 2 3 5 2v3h3l-1 2 2 5 4 1 2-4 3 3-3 1 2 3 2-1v3h3l1 3 18 9v1l-2-1-2 1 7 3 6-1 3 1v2l-2 1 12 4 20 4 2-1 7 1h2l10 1 3-1 5 1v-1l2-1 5 1 4-1h2q15-1 27-7l20-15v-1l4-3 1-2 2-1 3-4 2-1 6-8 2-1v-1l-3-2 1-2 4 2 2-3 2-1-1-2h2l1-2 1-3 2-1-1-1h2v-3l3-4-1-2h2l1-3-1-3 3-3 9-37v-8l-1 3h-1l-1-3-1 4h-1l-1 2h-2l2-4-2-4-1 2 1 1-2-5-1-1-4 12-4-14-4-4-4 5h-1l-15 25q-3 1 2 3l3-1 8-10 2-1-1 6h-1v-1l-1-1q-7 25-23 39h-2l4-10 2-1 2-6-1-2 1-7v-2l1-5-1-9 1-2-1-7-3 9-2-10-2 4-2-2-1-1-1 2h-1l-2-5-3 1v-1l-2-2-2 3 1 2-1 2 3 2-1 2 3 4h-1l-1 2h-1l-1-1-2-1-2 1 2-3q0-30-14-46-10-14-30-16-13-1-20 3l-23 13-13 19q-1 3-3 0 1-10 7-13 6-9 18-13v-1l12-6v-2l-4 1-1 2-2-1-1 2h-1v-1l-1-2 7-4 1-2 2-1v-1l10-5 2 1q4-4 13-4v-2l-8-1 10-4 1-2-3-1v-1l-5-1h-2l-15 4h-5l9-4 1-2 2-1-11-2 6-3 17-1v-1l2-1-8-3 12-3 18 3 21 11 6 8 13 10 4 6 2 2-16-8-6-1-2 3 4 1 1 3 28 13 3-4-6-29-2-3-5 2q-1 10 3 16v1l-9-12-11-11-24-12-18-5-17-1 5-2-4-4q-24-2-36 7h-3l1-2-1-1-2-4-5 2h-2l2-4z"/><path fill="#f7f7f5" stroke="#f7f7f5" d="m473.5 366 7.5.5q-20.5 4-35.5 13.5l1-2zm-37 4 .5 1.5-23.5 12.5 2-3zm4 9 2 5 2-1-1 2q-23.4 10.6-39.5 28.5l-.5 1.5-3.5 2.5-3.5 4.5-3.5 2.5-13.5 21.5.5-1.5 8-15 27.5-32.5 9-7 .5 1.5-1 2 1.5.5 1-6zm-22 5-2 3-15.5 14.5-9.5 12.5.5-1.5q4.7-13.8 15.5-21.5zm206 7 10.5 7.5-3 1 2 5h-1zm-302 2-2.5 3.5-19 31-8.5 9.5-.5-2.5 9.5-19.5 4.5-2.5zm69 10 1.5.5-23 41-8.5 23.5-.5-1.5 1-3 2-8-3 1q11.5-30.5 30.5-53.5Zm244 1 3.5 2.5 13 25-2-1q-10.9-11-14.5-26.5Zm149 1 1.5 2.5-3 1-.5 1.5-2.5-.5zm-161 2 17.5 22.5-1.5.5zm-128 17 5.5.5-25 12-.5 1.5-7 3-17.5 14.5-.5 1.5-1.5.5-1.5 2.5-1.5.5-5.5 7.5-1.5.5-6.5 8.5-.5-1.5 9.5-18.5 1.5-.5 4.5-5.5 24-18zm78 0 9.5 8.5-.5 1.5-5.5-4.5zm-239 4-.5 1.5-7.5 10.5 1.5-2.5zm435 0 1.5.5 3 17h-1l-5-16zm-386 21 .5 2.5-13 27-1 18 1 2v2l-3.5 17.5-1.5-25.5 9-30z"/><path fill="#f7f7f5" stroke="#f7f7f5" d="m464.5 450 1.5.5-7 6-.5 1.5-7.5 5.5-.5 1.5-7.5 6.5-.5 1.5-1.5.5-7.5 11.5-1.5-.5 7.5-13.5 3.5-1.5 4.5-5.5 3.5-1.5 2.5-4.5 1.5-.5.5-1.5 3.5-1.5 2.5-3.5zm291 5 3.5 15.5-1.5.5zm-238 1q21.4.6 31.5 12.5l10 17 3 19h-1q-4.7-22.2-18.5-35.5-14.5-9.5-38.5-9.5zm-159 7 .5 2.5-5 19-2.5 58.5-2.5-16.5 1-2-1-33z"/><path fill="#f7f7f5" stroke="#f7f7f5" d="M523.5 470q15.6 2.9 23.5 13.5 7.5 9 7 26l-1.5 3.5q.5-25-15-34z"/><path fill="#f7f7f5" stroke="#f7f7f5" d="M507.5 471q24.5 2.5 35.5 18.5l5 10 3 19q-4.3 12.7-13.5 20.5l-4 1-1.5-4.5 1.5-2.5 1.5-.5-1.5-2.5-3 2q-3.8-2.3 1.5-4.5l-.5-1.5-3 2-.5-1.5 3-4-2.5-.5-1.5.5 1-6-2.5-.5-2 1-.5-3.5 1-2-1.5.5-19 11-1.5-5.5q0-10 5-15l-1-2 2-1 4.5-7.5 1.5-.5.5-1.5 2.5-.5-2.5-7.5-1.5-.5 1-2-7-2-.5-4.5-1.5-.5zm-8 2 1.5.5-4 2-12 21-1 3-.5 1.5-1.5-.5 1-10v-2l6.5-9.5zm-280 6 5.5.5-16.5 4.5 2-3zm444 2q3.4 12.6 1.5 30.5l-2.5 19.5-.5-7.5 1-14-2-18zm150 11 6.5.5-.5 4.5-9.5-3.5z"/><path fill="#f7f7f5" stroke="#f7f7f5" d="M675.5 500q3.2 13.3 1.5 31.5l-3 24-11 42-26.5 31.5q-18.2 19.3-44 31v-1l26.5-20.5 2.5-3.5 1.5-.5 28-34 2-8 10-15-1.5-.5-8 11-.5-1.5 14-37 4.5-22.5 2 7 .5-32.5zm136 2 3 1 2-1 3.5 1.5 1 2-1.5.5-8.5-2.5zm-603 4 15.5 2.5-15.5 1.5zm185 1 .5 1.5v2l-1 21 3 15v2l1 8 8 17h-1l-10-19-3-24v-2l-1-7zm221 2 2.5 10.5-6.5 14.5-.5-2.5zm195 3 10.5 1.5-.5 2.5-15.5-2.5zm-601 4 16.5.5-15.5 3.5zm351 7 1.5.5-2.5 8.5-1.5.5.5 1.5-1.5-.5zm-191 22 6.5 22.5h-1zm223 6 1.5.5-8.5 9.5 2.5-3.5zm-36 5 1.5.5-4 3-.5 1.5-2 1-.5-1.5 3-2 .5-1.5zm-105 8 7.5 6.5-3.5.5-2-3-1.5-.5zm-188 10 9.5 24.5-2.5 1.5zm115 3 12.5 22.5-4-3zm-102 2 8.5 17.5-2.5.5zm266 1 2.5.5q-5.4 6.6-18.5 5.5v-1zm39 3 .5 1.5-4 3-.5 1.5-7.5 5.5-.5 1.5-5 2v-1zm-294 17 1.5.5.5 1.5 2-1 5.5 16.5 24 44-3.5-.5-1.5-.5-8.5-15.5-2-1q-2.2 4.3-4.5-.5l-11-17 1-2-7-14-1-7z"/><path fill="#f7f7f5" stroke="#f7f7f5" d="m643.5 601-.5 1.5-11.5 14.5-1.5-.5zm-264 4 10.5 9.5-.5 1.5zm-102 4 1.5.5 10 24 12.5 18.5 6.5 5.5 5 8-21.5 7.5-27.5 15.5-1.5 3.5-1.5-3.5 12-9 2-7-4.5-2.5-1.5.5 2-6-6.5-1.5-1.5.5 5-9-1.5-2.5-2-1-4 1 .5-1.5 1-2-3.5-4.5-19 8-5.5-11.5 33.5-23.5 4 3 .5-2.5-2-3zm286 8 1.5.5q-4.5 5-13.5 5.5l1-2zm-18 5 4.5.5q-6 4-16.5 3.5h-2l-1.5-.5zm-136 3 20.5 15.5-2.5.5-16.5-12.5zm217 0-3.5 4.5-.5 1.5q-19.7 20.3-45 35-17.1 8.4-44 7l-35.5-5.5 3.5-.5 19 2 26-5 2 3 17-3 18-9q23.8-12.7 43-30Zm-183 18q8.2 3.3 21 2l28.5 10.5-9 1 .5 1.5 1.5.5-4.5.5q-22.2-6.1-38-16Zm-16 5q33.5 17 76.5 24.5l-18.5 3.5h-9q-32.2-7.3-49-28Z"/><path fill="#f7f7f5" stroke="#f7f7f5" d="m577.5 648 2.5.5-13.5 5.5v-1zm203 0 8.5 4.5-1.5 3.5-1.5-.5zm-525 1 1.5.5-13.5 10.5-2.5-3.5zm474 0 .5 1.5-10.5 21.5-3.5-.5zm-412 2 13.5 16.5-2.5.5zm32 2 28 29 17.5 13.5-1.5.5q-27.3-12.2-47.5-31.5l-1-3zm423 3 11.5 6.5q-2.7 5.3-5.5-.5zm-512 1 1.5.5-7.5 8.5-6 4-2.5-4.5zm59 6 6.5 5.5-4.5 1.5-3.5-5.5zm445 1 14.5 7.5-2.5 3.5zm-500 4-3 4-9 5-.5-2.5zm70 3 1.5.5 9.5 10.5 14.5 13.5.5 1.5 2.5 1.5-1.5.5-29.5-26.5zm-27 1 3.5.5-.5 1.5-2-1-1 2-21 6 1-2zm388 1 6.5 3.5-17.5 18.5-6 5-2.5-5.5 3.5-4.5 1.5-.5 2.5-3.5 1.5-.5 6.5-7.5 1.5-.5zm-427 2 1.5.5-12.5 9.5-2.5-3.5zm59 0 4.5 2.5 7 8-6.5-5.5zm435 1 10.5 4.5q-1.7 4.3-3.5 1.5zm-438 14 8 9zm348 6 2.5 7.5-2.5 1.5-2.5-6.5zm-304 5 10.5 8.5-1.5-.5-9.5-6.5zm-77 9 .5 1.5q-11.8 12.2-17.5 30.5l-.5-2.5q4.1-19.4 17.5-29.5Zm140 5 26.5 10.5-2.5.5q-14.7-3.9-24-11Zm3 32 36.5 9.5-.5 3.5q-21.6-2.9-37.5-11.5zm-79 12 .5 1.5-6.5 12.5-2.5-1.5zm10 6-.5 1.5-6.5 11.5-2.5-.5zm294 2 7.5 12.5-3.5 2.5zm-287 5 .5 1.5-5.5 9.5-3.5-1.5zm279 2 6.5 11.5-2.5 1.5zm-276 8 1.5.5-1.5 6.5-4.5-2.5zm125 22 1.5.5 1 12-1.5 5.5-3.5-.5zm12 0 .5 17.5-4.5.5-.5-2.5zm10 6 .5 7.5-1.5 4.5-2.5-.5zm64 18 10.5 13.5-5-4z"/><path fill="#cdb26d" stroke="#cdb26d" d="m257.5 90 1.5 7.5-2 1-.5 1.5-2.5-1.5 2.5-4.5 1.5.5zm130 74v2l3-1-1 2-3 2 .5-1.5-.5-1.5-2 3-.5-1.5zm-76 1 2.5.5-6.5 4.5-1-2 1.5.5.5-1.5zm46 3 .5 1.5-9.5 11.5-1.5.5-5 9 1.5-.5 2.5-1.5 14.5-16.5 4.5.5-20 27-7.5 22.5-5.5-1.5-5-10q6.4-20.1 20.5-32.5l1.5.5 2.5-5.5 2.5-1.5 1.5-2.5zm32 2-10 11zm160 1-6 7zm-255 3-1 2-2.5 1.5 2 1-2.5.5-1-2zm278 16-1.5 2.5-1.5 2.5-1.5.5.5 1.5-1.5-.5 1.5-4.5zm-64 2-.5 1.5-1 2 3.5.5 2.5-1.5q-1 3.5-6.5 2.5l-.5-1.5zm174 4 7 1 4-1 11 2h2l9.5 2.5-.5 1.5-8-1-2 1-5-1-2 1h-2l-2.5.5 27.5 3.5 5.5 3.5-1.5.5h-2l-6 1h-2l-5-1-2 1h-2l-27 2h-2l-5.5-1.5-.5-1.5-2.5-1.5-2-6 4.5-3.5zm-427 7-10 11zm294 2 1.5.5-3 2 2.5 1.5 1.5-.5-2.5.5-2-1-1.5.5zm317 1 2 1 1.5-.5 1 2-.5 2.5zm-590 3 1.5.5-.5 1.5-4 2-1-1-4.5 3.5q3-6 6-4l.5-1.5zm487 19 13.5 6.5-2.5.5-5.5-2.5-.5-1.5-2 1-1-2-2 1zm-129 7-10 11zm-82 6 2.5 8.5h-1zm117 6-6 7zm-56 9-7 8zm110 0 7.5 1.5-1.5-.5-7 1zm-319 3 5 6zm-47 2 6.5 4.5-2.5.5zm55 7 5.5 6.5h-1zm456 0 1.5.5-1 5 2 5-1.5.5-2.5-9.5zm-625 3 10.5.5-10.5.5zm357 8-4 5-2.5-.5zm-394 7 .5 2.5-5 28h1l2.5-4.5 1.5.5-1 2 1 5q-4.1 12.4-3 30l1 10-2.5 3.5q-6.2 1.3-7.5-2.5l-4-17 1-4-1-5 3-20 9-24zm58 3 10.5.5-10.5.5zm44 0 8 9zm152 0 1 2-1.5-.5-1.5 2.5-2 1-2.5.5-.5 1.5-2 1 .5-1.5 2.5-3.5zm-153 4 6 7zm223 1 4 5 2-1 1 2 1.5-.5.5-1.5 10.5 1.5-.5 1.5-1.5.5 1 6-9.5 1.5-6-1-2.5-2.5.5-1.5 1.5-.5 1-3-2-1zm-82 1 1.5.5-2 1 2 1-7.5 3.5v-1l4.5-2.5zm123 5 16 2q9 6 23 7l25.5 11.5-.5 1.5 3-1 23.5 14.5.5 1.5 13 10 1-2 9 14 17.5 15.5-10.5-9.5-1.5.5 2.5 3.5-7-9-21-11-14-3q-16.9-16.1-39-27l-23-7-.5 2.5q33.3 7.7 54 28l-1.5-.5-6-1-.5 2.5 2.5 3.5-3.5-2.5-.5-3.5-49-26-16.5-3.5 2.5-3.5 6.5-.5-.5-1.5-5.5-1.5-.5-2.5-1.5-.5zm92.5 39-1 2 8 5v2h2q5 2 2 5l4 1v-1zm-227.5-38v3l-2-1v2l-3.5-2.5 1.5-.5h2zm-189 1 .5 10.5-1.5.5.5-1.5zm553 0q22.4 7.1 37.5 21.5l2.5 3.5 1.5.5.5 1.5 3.5 2.5 1 2-3.5.5-6-3-.5 1.5 5 5-1 1-.5 1.5-49.5-32.5 2.5-4.5 5 1zm-286 1 6.5 3.5-.5 4.5-2-4-4.5-1.5zm160 0 1.5.5 1 3q-2-3.2-4 0l3 2-1.5 2.5-5.5-3.5-.5-1.5-1.5-.5 3.5-.5 2 1zm7 3 .5 1.5-3.5 7.5-.5-2.5zm8 0 1 3q18.7 8.8 31.5 23.5l3 6-8.5 2.5-20-23-8-5 4 5 7.5 6.5 14 17q-2.5 2-5-2L698.5 327l-12.5-9.5zm-468 3 .5 16.5h-1zm176 0 1.5.5-2 1-7.5 8.5 6-9zm-2 6-9 10zm-30 11q3.5 2-1 4l-7 5-.5-1.5 9-6zm15 0-19 20zm0 3-11 12zm425 3 5 6zm-543 3 1.5.5-4 3 3 4-4-3zm427 1 10 11zm79 0-7 8zm-427 2-6 7zm-127 1 .5 10.5h-1zm-184 3 1.5.5-2 1 2 1-4.5 2.5-1.5-.5.5-1.5 2.5-.5z"/><path fill="#cdb26d" stroke="#cdb26d" d="m639.5 344 13 6 24.5 23.5q23.4 24.6 37.5 58.5l1.5-.5q-18.4-44.6-51.5-74.5l-9.5-7.5 2.5-.5q16.5 4.5 28.5 13.5l.5 1.5 1.5-.5-1 1 4 4 17.5 29.5 1.5.5 7 16-1 3-1 5 2.5 1.5 1.5-.5 1.5 2.5 1.5-.5q5.7 11.3 7 27h-1l-3.5-10.5-1.5.5 4 15-1.5-.5-1.5-.5-1-11-2.5-2.5-.5 2.5 1 4v2l1 3-1 2 1 2-3 1 1 6-1.5.5-2-3-2.5-1.5 1-3-3.5-2.5-.5 1.5 1 3-1.5 2.5-10-32-1.5-.5 1-2-3-3v-4L683.5 393l-1 2-.5-1.5.5-1.5-1.5-.5.5-1.5-1.5-.5-6.5-11.5-1 3-4.5-5.5 3 2 .5 1.5 1.5-2.5-3.5-4.5-15.5-13.5-3.5-4.5zm-291 1-5 6zm-8 2-7 8zm72 1 6.5.5-7 1 7 2-4.5.5-3-2-2.5 1.5q2.7 1.7-1.5 3.5l2-5zm318 1-.5 1.5-1.5 4.5-1.5.5-.5 5.5-4-2-1 2-3.5-7.5zm-238 4 6.5.5-12.5 1.5v-1zm-175 3-9 10-.5-1.5 7-6-.5-1.5zm88 1-5 6zm-72 1-2 3-2.5 1.5q2.8 1.7-1.5 3.5l.5-3.5 3.5-3.5zm22 0-6 7zm178 2 3.5.5-.5 1.5-37.5-.5zm70 3 4 2 13.5 5.5.5 1.5 1.5-.5.5 1.5q1.7-2.8 3.5 1.5l-1.5.5-6.5-3.5-.5-1.5h-2l-1.5-.5-.5-1.5h-2l-9-4-1.5.5zm-381 1 6 7zm94 4-15 16 .5-1.5.5-2.5 1 1zm379 2 7 8zm-474 3 1.5.5-2 1 3 5-1.5.5-2.5-4.5zm246 2 4.5 1.5-5.5 1.5-2.5-1.5 1.5-.5 2 1zm-9 1 4.5 1.5-7.5 2.5-1-2 2 1v-2l3 1v-1zm247 0 1 3 1.5.5-1 2 4.5 5.5-7.5-7.5zm-56 1 8.5 9.5-1.5.5.5-1.5zm-204 1q3 1.5 0 3l-1.5.5 3 2-2.5 1.5-1.5-3.5.5-1.5 2.5-.5zm165 0-.5 1.5 5 7-2.5-1.5-2.5-1.5-1-3zm-281 2-5 6zm532 1 1.5 7.5h-1l-.5-6.5-1.5.5zm-447 5 1.5 1.5-4.5 4.5zm-88 2-.5 1.5-2.5 3.5-2.5 1.5-.5 2.5-3.5.5 8-7zm391 1 4 7-3.5-3.5zm-247 2 .5 2.5-2 4 1.5.5 5-2 2 4 1.5.5-1 2 2.5.5q12.5-9 36-7l4.5 3.5-5 2 10 1-23.5.5-9-1-6.5 2.5-1.5 2.5q-22.2 5.3-39 16L427 440.5l-18 35-4 15-1.5 20.5-10.5-19.5 3-12 14.5-33.5 1.5-.5.5-2.5 2.5-.5-1-2q11.9-18.6 28.5-32.5zm-240 1 7 8-7-7-1.5.5zm381 0 14.5 12.5-3.5-2.5zm110 0q5.9 4 5 8zm-317 1-5 6zm-70 1 .5 2.5-8.5 8.5zm39 0 1.5.5 1 2-2 1 .5 1.5-3.5.5 3-4zm-3 2-10 11zm36 0-5 6z"/><path fill="#cdb26d" stroke="#cdb26d" d="m673.5 396 2.5.5.5 1.5h2l2.5.5-2 1 .5 1.5zm119 0-2 4 3-1-2 4 4-1 1 2 2-1v1l-1.5.5.5 1.5 3-2-5 6-19.5 14.5 7 39v2l-.5 3.5-16.5-4.5-2-15-6-22 7-6-1 3 2.5 1.5 13-16 2-1 1.5.5.5-1.5 2.5-.5-1.5-2.5-1.5.5 6-5zM770 428l-2 2 4 14h1l-2-15zm-411.5-27-7 8zm272 0 4 2 1.5.5-1.5 2.5-1-3q-2.2 3-3-2Zm-245 3 2.5.5.5 1.5q1.8-3.7 3.5-.5l-4.5.5zm113 0 3.5.5-2.5 1.5-3 1-10 2 1-2 8-2zm-91 2-6 7zm-87 1 2.5.5-4 2 .5 1.5-4.5 1.5zm187 0 3.5.5.5 1.5 1-2 10.5.5-4 1 5.5.5 4-1-1 2q-8.2-2.2-10.5 1.5l8 3-2 1-.5 1.5-17 1-5.5 2.5 11 2-2 1-1.5 2.5-8.5 3.5 4.5.5 15-4h2l5.5.5-.5 1.5 3.5.5-1.5 2.5-9.5 3.5 8 1-.5 2.5q-8.7-.2-13 4l-2-1-9.5 4.5-.5 1.5-1.5.5-1.5 2.5-6.5 3.5 1 2-.5 1.5 1.5-.5.5-1.5 2 1 1-2 4-1 .5 1.5-12 6 .5 1.5 1.5.5-5.5 3.5 1-3-15.5 11.5q-6.1 3.9-7 13l3 1-1.5 2.5-1.5-.5 1 2-2 1v2l-4 16 1 3-1 6q.6 23.4 15.5 32.5l23 11 21 1 5-2v1l-1.5.5 2.5.5 2.5-1.5.5-1.5q18.5-4.5 28.5-17.5l7.5-17.5 1 3 .5-3.5-1-6 2-1 .5-2.5 2.5.5.5 1.5 1.5-.5.5-1.5 1.5-.5-3-4 1-2-3-2 1-2-1-2 1.5-2.5 2 1 1.5-.5-.5 1.5 3.5 1.5.5 3.5 1.5-.5.5-1.5 1.5.5 1.5 2.5 2-4 2 10 3-9 1.5 6.5-1 2 1 9-1 5v2l-1 7 1 2-2.5 6.5-1.5.5-4 10 1.5.5q16.6-14.4 23-39l1.5.5-.5 1.5 1.5.5-.5 2.5-1.5-.5 1 5-3 9 .5 1.5-1.5.5 1 2q-6.6 19.4-19.5 32.5l-15 13-1.5-.5-2.5 3.5-1.5-.5-1.5 2.5-1.5-.5-.5 1.5q-8.1 4.9-22 4l1-2 2.5-1.5-2.5-.5-7.5 3.5 1.5 2.5q13.1 2.1 20-2l-1 2q-18.9 12.1-53 9-32.8-4.2-52-22l-.5 2.5 9 7-1.5-.5-14.5-9.5-12-17 1.5-.5 22 6 .5-2.5-.5-1.5-30-9-2.5 5.5 3 9v2l-1 4 3 1-1 3 2 1-.5 1.5-2.5-.5-.5-2.5-4.5-2.5-2-3 .5-1.5-2.5-.5-1-5-11.5-19.5-.5 3.5 6 12-1 2 2 1 3 8 18.5 19.5 16.5 11.5.5 1.5h2l3.5 2.5-1.5.5-11-5-22.5-17.5-1.5-2.5-7.5-6.5-.5-1.5-2.5-1.5-7-13 .5-1.5-1.5-.5-3-5-6-25 1-4-1-3 1-2v-4q-1.1-15.6 3.5-25.5l2.5 5.5-1 3h1l.5-1.5 1.5 3.5-.5 1.5 1.5.5 9.5 19.5 1-3 1.5-.5.5-1.5 2.5-1.5-1-5 15-24-2.5-3.5-15 22-.5-14.5 2-11 12-23 3-10 16.5-19.5 1.5-.5.5-1.5 19-13zM496 424l-24 9-24 18-5 6h-1l-10 19 1 1 6-8 2-1 5-7 2-1 1-2 2-1v-1l18-15 7-3v-1l25-12zm-31 26-3 1-3 4-3 1-1 2-4 3 1 2 7-5v-1l7-6zm-14 13-3 1-5 6-3 1-8 14h2l7-11 2-1v-1l8-7zm-58 46-3 13 1 7v2l3 24 8 16 2 1-7-15-1-8v-2l-3-15 1-20zm59 56-1 3h2l2 3h3zm90 15-16 5v1q13 1 18-5zM245.5 408l5 6zm-121 1h2l4.5 2.5-1.5 2.5.5-1.5-1.5-2.5-1.5.5-.5 1.5zm223 0-5 6zm413 0-5 6zm-403 1-5 6zm297 0 3.5 2.5-1.5-.5-1.5.5 5.5 6.5q-8.4-4.5-6-9Zm-263 2 1.5 1.5-4 4-1.5 2.5.5-1.5 2.5-4.5 1.5-.5zm457 0-8 9zm-97 3 1.5 1.5-5.5 5.5zm-344 1-9 10zm417 1-7 8zm-162 2 2.5.5.5 2.5q2.3-3.2 4.5 2.5l-2 1q2.8-1.7-1.5-3.5l-1 1zm-450 3 11.5.5-11.5.5zm126 0-.5 1.5-.5 1.5-1.5.5-.5 2.5-1.5.5.5 1.5-3.5-1.5 3.5-1.5 1.5-.5q-3.2-2.2 2.5-4.5Zm17 5 .5 4.5-1.5 4.5-1.5-2.5zm319 2 4 5-4.5-2.5zm-379 5 2.5.5-1.5 3.5-1-3-2.5 1.5zm381 0q2.8 5.4 5.5 3.5l-1.5 1.5zm-349 3 1.5 1.5-4 4-.5 1.5-1.5-.5 2.5-3.5 2.5-1.5zm25 0 .5 6.5-2.5 5.5-.5-1.5 3-9zm-128 1 14.5 1.5-9.5 1.5zm208 1-1.5 2.5-3.5 5.5-.5-1.5 3.5-5.5zm374 3-4 7-2.5-.5zm-175 1 1.5.5-1 4h1l.5-1.5 1.5 3.5-1.5.5q-4-1.5-2-7Zm122 4 2.5 7.5-1.5 2.5zm-747 4 3.5 1.5-1.5 2.5-2.5-1.5 1.5.5 1.5-.5-.5-1.5zm358 2 .5 1.5-1.5 3.5-1.5-.5 1 3h-1l-2-3 2-1-.5-1.5 2.5-.5zm-171 1-8 9zm193 1 1.5 2.5h-2l1 2h-2l1 2h-3zm310 3 4 5-4.5-2.5zm-543 3 .5 1.5-1.5 16.5-.5-15.5zm3 2 .5 15.5h-1zm205 2 1 2-1.5-.5 1 2-2 3 .5 1.5-1.5.5-.5 2.5-.5-2.5 2-4v-2zm299 4 .5 10.5h-1z"/><path fill="#cdb26d" stroke="#cdb26d" d="m504.5 471 2.5.5-2 1 2 1 .5 4.5 5-1v2l1.5.5-1 2 2 1 2 7-3 1-.5 1.5-2.5 1.5-3.5 6.5-1.5.5 1 2q-5 5-5 15l1.5 5.5 20-12 .5 1.5-1 4 1.5.5 3-1 .5 4.5-1 2 1.5-.5 2.5.5-3 5 1.5-.5 2-1 .5 1.5q-5.3 2.3-1.5 4.5l3-2 2.5.5-1.5 2.5-1.5.5-1 3 1 4q-11.6 6.9-30.5 6.5l-12.5-6.5-.5-1.5-7.5-6.5q-7.7-8.8-6-27l2.5-9.5 1.5-.5-1-2 2-1v-2l1.5-2.5.5 2.5-1 10 1.5.5 2.5-3.5-1-2 12-20-.5-1.5 3 1 1-3 3 1zm250 4 7.5 1.5 2.5 7.5 3.5-1.5.5-6.5 20.5 3.5-5 1 1 4-1 2 1 4-2.5 5.5-3-2-3 2-1.5-.5-.5 2.5-2.5-1.5-3.5-10.5-4 3-5.5-4.5.5-7.5 1.5-.5-6.5-.5zm-384 9 .5 12.5h-1zm350 1-1 4-3.5.5-.5 1.5-.5-1.5zm-436 2 1 3 1-3 1.5.5-3.5 6.5-.5-2.5v-2zm-76 1 1 13 2.5.5-2.5.5-1.5-1.5zm265 3 1.5.5-1.5 3.5-1.5.5 1 2-3 6 1 4-1 5 1 2-1.5 3.5-.5-3.5v-2l.5-11.5 1.5-.5-1-3 2-1v-2zm199 1 1 3 1.5.5-1 2 2 1-1.5 2.5-2.5-1.5zm-7 1 .5 12.5h-1zm-52 1 4.5 3.5-1.5-.5-3-2-3.5 2.5zm-430 1 1 2 2.5-.5.5-1.5.5 1.5-3.5 1.5-2-1-1.5.5zm170 4 .5 10.5h-1z"/><path fill="#cdb26d" stroke="#cdb26d" d="m625.5 500 1.5.5.5 4.5 2-4 .5 1.5 1 3-2 5 1.5.5 1-2 1.5-.5.5-3.5 1 3 1.5-.5.5-2.5.5 7.5-9 37-3 3 1 3-5 9v2l-1.5 2.5-1.5.5-1 3-2.5 4.5-1.5.5-2.5 3.5-2.5.5 1 2-2 1-6.5 8.5-1.5.5-3.5 4.5-1.5.5-1.5 2.5-3.5 2.5-.5 1.5-20 15-28 8-3-1-2 1-5-1-1.5.5-.5 1.5-5-1-3 1-10-1h-2l-7-1-2 1-20-4-11.5-4.5 2-1-.5-1.5-3-1-6 1-6.5-3.5 1.5-.5 2 1 .5-1.5-18-9-1.5-2.5-2.5-.5-.5-2.5-2 1-1.5-3.5 3-1-3.5-2.5-1.5.5 1-2-3-15h1l12.5 15.5q18.8 14.7 45 22l-2-3-6.5-2.5.5-1.5q13.8 5.2 33 5l2-1 1 2 27 1q14.1-2.9 21.5-12.5l-.5-1.5q-8.3 10.2-26 11v-1l26-12 2 1 1-3 3 1 .5-1.5h-2l2.5-.5 2.5-1.5-1-1 5.5-5.5 3-1 1.5-.5.5-2.5 2.5-1.5-.5-1.5 1.5.5.5-2.5 1.5-.5 3.5-4.5 1.5-.5-.5-1.5 3.5-2.5 7-10 6.5-20.5 1.5.5-1-5h1l.5 1.5 7-15 2.5 6.5-1 2h2l1.5 4.5 2 1 1.5-3.5v-2l1-3-2-1-4-11zM561 618l-8 3-1 2 11-4zm-15 4-13 2 1 2q10 1 16-3zm16.5-121 .5 10.5-2 1 1-2-1-3zm3 1 .5 11.5 1.5 1.5 1.5-.5-4 1zm-220 2 1.5.5v2l-.5 13.5zm21 1 .5 10.5h-1z"/><path fill="#cdb26d" stroke="#cdb26d" d="m613.5 506 1.5 2.5-1.5 7.5-.5-7.5zm49 3 .5 13.5h-1zm-619 3 2 1 2-1 .5 1.5-4.5 2.5-2.5-1.5.5-1.5 1.5.5zm185 1 2.5 1.5-2.5 5.5 1.5-2.5-.5-3.5zm127 1 .5 3.5-1.5 26.5-.5-26.5zm108 1 1.5 9.5-.5 1.5 1.5.5q6.6 18.4 21.5 28.5l2.5 1.5-1.5-.5-14.5-8.5-.5-1.5-2.5-1.5q-10.2-9.2-7.5-29.5Zm217 2 .5 10.5h-1zm-328 1 .5 27.5-1.5.5-.5-2.5zm321 1 .5 11.5-1 2 .5 1.5-1.5-5.5zm-499 1 6 7zm634 1h11l1.5 1.5-1.5-.5-11 1zm125 1 1.5.5-1 4h1l.5-1.5.5 5.5-1.5.5.5-1.5q-3.2-2.2-1.5-7.5Zm-736 2 2.5 1.5-.5 2.5-5 1 1-2 3.5-.5-.5-1.5zm361 0 .5 2.5-2 5 1.5.5 1-2 .5 1.5-4.5 7.5-1.5.5-.5 2.5-1.5.5 1 1-7.5 7.5-2 1 5-6 1.5-.5q-3-2 2-4l3.5-8.5 2 1-1.5-2.5zm-8 4 .5 2.5-1.5 2.5-1.5.5-.5 2.5-1.5.5-4.5 6.5 1.5-2.5 5.5-9.5 1.5.5-1-2zm-72 5 13.5 11.5-1.5.5-11.5-9.5zm-215 8 2.5 1.5-1.5-.5-1.5.5-.5 6.5-.5-6.5zm-67 1 1.5.5-6 2 2 1-1.5.5-1.5-2.5zm338 0 1.5.5q-7.4 9.1-25.5 7.5v-1l17-4v2l1.5-.5.5-2.5 3 1v-2zm-314 2h2l5.5 1.5-2.5.5-2-1-2 1zm439 3 .5 2.5-4.5 14.5-1.5-.5zm-165 7 3 2 3-1 7.5 1.5-1 2 1.5.5 1-3 11 1 8-2 1.5.5.5-1.5 1.5.5-.5 1.5q-8.6 5.4-24 4l-3-2-2 1zm-243 3 8.5 1.5 4 16h-2l8 26-3 1-1.5 2.5-4 3q-9.6-20.4-13.5-46.5l1.5-2.5zm519 2 4 1 3-1 3 1 3-1v1l-2.5.5.5 4.5 1-2 1.5.5 1 6q-3.2 25.3-15 42l2.5 3.5q-6-3-4-6l-1.5-.5-.5-1.5-8.5-6.5 9.5-36.5 1 2 3-5 1.5-.5zm-431 1 .5 4.5-2 1-.5 1.5-.5-2.5v-2l.5-1.5 1 2zm534 2-5 6zm-509 1v2l1.5.5q-5 3-2 6l-.5 1.5-1.5-8.5zm289 2 1.5.5-4.5 8.5-.5-1.5zm-381 2 2.5 8.5-1.5.5zm389 10 1.5.5-3.5 6.5 1.5-2.5 1-3-4 2zm-300 2 2 1 1.5-.5-2.5 1.5-2.5.5-.5 1.5-.5-1.5zm319 1 .5 1.5-2 1 .5 1.5-1-1-6.5 5.5zm115 1 18.5.5-18.5.5zm-488 5 2.5 1.5-.5 1.5-1.5.5-.5 10.5zm-100 2-5 6zm184 1 9 10zm-182 1-8.5 9.5-.5 1.5-1.5-.5zm462 0-4 5v-3q2 3 4-2Zm-280 3 4 5-3.5-1.5.5-1.5-1.5-.5zm-5 4 3.5 1.5-.5 1.5 1.5.5 1 2zm353 0 5.5 7.5h-1zm-368 1 5.5 3.5-1.5 3.5-3-5-1.5-.5zm278 0 1.5 2.5-7 6 4-4-1-1zm-452 2-.5 1.5-4.5 5.5 3.5-4.5zm207 1 5 6zm-204 1-8 9zm267 0 9.5 3.5-.5 1.5zm-89 2 3 4 2.5.5-1 1 4.5 5.5-9.5-9.5zm239 3-1 2-2.5 1.5q3.3 2.2-2.5 4.5l-.5-1.5 3-2q-2.7-1.7 1.5-3.5zm39 0-5 6zm-244 1 9.5 8.5.5 1.5 1-1 5.5 5.5.5 1.5 1-1 5.5 5.5h-2l1.5 2.5 1.5-.5-.5 3.5-2.5-.5-1-5-9.5-10.5-2.5-.5-.5-1.5-2.5-.5-.5-2.5-1.5.5.5 1.5zm306 2 .5 2.5q-23.7 48.3-59 85l2.5.5q16.1-14.4 28-33l1.5-.5q-3-2 2-4l21-34 6.5-14.5 1.5 6.5-1 3 1.5.5 2.5-1.5-1 3 1.5.5 1.5-.5-12 11-32 44 3-2q16.3-25.7 37.5-46.5l1.5.5q-5.2 15.3-14.5 26.5l-1.5.5-8 11 .5 1.5-4-1-6 9-7.5 6.5-.5 1.5-3.5 2.5-.5 1.5-1.5.5-3 5 .5 1.5-3-1-3.5 2.5-.5 1.5-2-1-3 5-38 22-2.5-.5 1-4-5-2 1.5-2.5-4.5-1.5 5.5-6.5 9-5 .5 2.5-1 4 5.5 1.5 5.5-7.5-3.5 2.5-4 3-.5-2.5.5-3.5 1.5-.5-1.5-2.5-1.5-.5 2.5-1.5 1 3 12-9-4.5 5.5-1 4 4-3 9.5-11.5 1.5-.5.5-2.5 1.5.5.5-2.5 1.5-.5q-3.2-2.2 2.5-4.5l2.5-.5-.5-1.5-1.5.5 11-9 .5-1.5 1.5-.5 13-18h-2l4-2-.5-1.5-1.5.5 4-2-.5-1.5-1.5.5 2.5-.5 1.5-.5 17.5-27.5zM684 679l-6 7 1 1 5-6zm-44 32-11 12 4-2 7-8zM210.5 611l.5 1.5-6 9 .5 1.5-.5-2.5zm427 0-5 6zm115 0 7.5 6.5-3 2-.5 1.5-1.5-.5-1-5zm-78 1-1.5 2.5-.5 1.5-1.5.5.5 1.5-2.5-.5zm27 0-3 6zm-635 2 2.5 1.5h-2l1 2-2.5 1.5v-1l1.5-.5-2-1zm629 3q2.3 4-5 8l-1.5-.5-.5 1.5-1.5-.5 5-3-.5-1.5 2.5-.5q-2.7-1.7 1.5-3.5Zm-307 1 7 8zm389 0 9 10zm-112 1-6 7zm-260 2 4 5 2.5.5q-2.5 4-5-2zm261 0-15 16zm100 1 9 10zm-563 1 1.5 2.5-4.5 7.5-.5-1.5 1.5-3.5 1.5-.5-1-2zm423 3-3 4-2.5-.5zm16 1-8 9zm15 0-5 6zm30 0-7 8zm-357 2 6.5 4.5-3.5-.5zm305 0-8 9zm-345 1 7.5 9.5-6-5zm391 0-4 6 1.5.5-1.5.5-2.5-.5zm-60 1-10 11zm-301 1 5.5 7.5-.5 1.5 2.5 1.5 3.5 4.5 1.5.5 4.5 7.5 1.5.5-.5 1.5-3-5-2.5-1.5-2.5-3.5-1.5.5-2.5-5.5-2.5-1.5.5-1.5-2.5-1.5zm15 3 5.5 3.5zm312 1-6 7zm-85 1-8 9zm112 1 1.5.5-5 3 .5 1.5-2.5-.5zm-336 1 7.5 5.5zm277 1-7 8zm-443 1 .5 2.5v2l-.5 10.5-1.5-13.5zm250 3 5.5 3.5.5 3.5zm162 1-3 4-2 1v-3l2 1 1-2zm-270 1 7.5 8.5-5-2 .5-1.5-1.5-.5zm317 0 1 2-1.5.5.5 1.5 1.5-.5-.5 1.5-4.5-1.5.5-1.5zm33 0-.5 3.5-9.5 9.5 6-9 2.5-.5q-2.7-1.8 1.5-3.5Zm-282 4 4 3 1.5-.5-3.5 5.5-4.5-1.5 2.5-.5h2l1.5-.5-1.5-3.5zm239 2 .5 1.5-6.5 4.5v-1l1.5-.5 1.5-2.5zm150 3 1 2 1.5-.5 1.5 4.5zm-416 1 13 14zm-155 1 2 3 2.5 1.5-2.5 3.5-4.5-2.5 2.5 1.5 2.5-.5zm154 1 6 7zm-89 2-1 3 1.5.5-1.5.5-1.5-.5-.5 1.5-.5-1.5zm54 0 5.5 6.5-4.5-3.5-3 2zm292 0 .5 1.5-14.5 15.5-.5-1.5 2-1q-2.8-1.8 1.5-3.5l1.5.5zm37 1 1.5 2.5-3 2 1 2-2 1 1-2q-1.7-3.2-3.5.5l-1.5-.5zm67 0 1.5 3.5-1.5.5.5-1.5-.5-1.5-3.5 2.5zm63 1q2.7 5.1 5.5 1.5-3.6 5.7-5.5-1.5Zm-416 4 5 6zm468 0 5.5 2.5 2 12-1 6v2l1 8q-4.2 9.3-4 23l-2.5 4.5-3 1-2.5-9.5-3-34v-2q-.9-8.4 3.5-11.5zm-485 1 5 6-5.5-3.5zm-8 2 9 10zm301 1 2.5.5-6 5q5.4-2.7 3.5-5.5Zm-268 1 5 6zm-34 1 9 10zm298 1-3 6q-2.1-3 3-6Zm-302 5 5 7 1.5-.5-1.5 1.5-5.5-5.5zm5 0 6 7zm-22 2 2.5.5 13 15q-2.7 1.7 1.5 3.5l10.5 8.5.5 1.5 2.5.5-3.5 6.5-33-31-.5 1.5.5 1.5-2.5-3.5zm309 1-.5 3.5-3.5 3.5zm90 5 2.5.5-27.5 25.5zm-123 1-2 3-1.5.5.5 1.5-1.5.5-.5 2.5-1.5-.5 2-1v-2l1.5-2.5zm-237 2 5 6zm-177 1 9.5 4.5.5 1.5 10.5 5.5.5 1.5 23 8h2l2-1 5 1 1-2 4-1 2.5 4.5-5 4-1.5 3.5-4 1-3-1-2 1q-34-4-51.5-24.5l-1-4 5.5-.5 1.5.5zm184 0 6 7zm-12 3 1.5.5.5 1.5 2.5 1.5q-2.7 1.8 1.5 3.5l1.5-.5q-2.5 4-5-2l.5-1.5zm334 2-5 6zm-367 1 21.5 20.5.5 1.5q1.8-2.7 3.5 1.5l-1.5-.5-3.5-1.5-.5-1.5q-2 3-4-2l-1.5-.5-1.5-2.5-2.5-1.5-.5-2.5-1.5-.5zm49 2 1 2 1.5.5-.5 1.5-2.5-1.5-.5 1.5-1-2-1.5-.5 1.5-.5 1.5.5zm398 2 2 3q-2-4-4 0l-2.5-1.5 1.5.5zm-73 3 1.5.5-10.5 9.5v-1l1.5-.5.5-2.5 1.5.5.5-1.5 1.5-.5 1.5-2.5 1.5-.5zm-558 3 2.5 4.5-3 2 2-4zm155 1 1.5.5-6.5 5.5zm3 3-6 7zm92 1 6.5 4.5-1.5.5-5.5-3.5zm-6 1 2.5 1.5-1 1 10 10-.5 2.5-6-8-1 1-4.5-4.5 1.5-2.5zm-68 4 4.5 1.5-.5 1.5-1-2-6 3zm377 0 4.5 3.5 2.5 3.5 1.5.5 1.5 3.5 1.5.5 1 2 1 3 5 10v8l-1.5-.5-4-2-2 3-1.5.5-.5 1.5-11.5-34.5zm41 0 8 9zm-57 4 2 1 1.5-.5-1 2 .5 2.5 2.5 1.5-1 3h2l-1 3h2l5 15-3.5 1.5-12.5-18.5 1.5.5 1.5-.5-2-7zm-78 3 5 2 1.5-.5q-3.7 1.7-.5 3.5l1.5-.5-2 5 1.5-.5 2.5.5q-5 8-17.5 8.5l-1.5-2.5 1-2-3-1 5-4-5-2zm63 0-11 12zm-241 6 5.5 3.5-1.5.5-4-3-1.5.5zm305 5 8 9zm-677 3 .5 2.5-1.5 3.5-3.5-1.5 1.5-.5 1.5.5zm389 4-5 6zm202 1-1 4-2 1-1-2h2l1.5-.5zm-198 2 5 2 1.5-.5-.5 1.5-1.5.5 3 1-2.5.5-4.5-1.5 2-1-3-1zm369 1 .5 2.5-1 2 .5 2.5 1.5.5-2.5.5-2.5-.5 3-2-1-2zm-386 1-1.5 2.5 3 5-4 3q6-3 0-6zm207 1-.5 1.5-.5 1.5-2 1q-2-3-4 2l-1.5-1.5zm-96 4 .5 1.5-5.5 5.5-1.5-1.5q3-6 6-4zm65 0-2 3-6 2 1-2zm-324 4 .5 13.5h-1zm23 0 .5 10.5h-1zm313 5 3.5 2.5 2 3zm61 0 1.5.5-2 1-1 6 .5 1.5-.5-2.5zm173 0 .5 1.5-6 5 .5-2.5 2.5-.5zm-362 1 9.5 1.5-8.5.5zm-115 1-5 6 .5-1.5.5-1.5zm59 0-5 6zm-48 2-5 6 .5-1.5.5-1.5zm-102 3 1.5 5.5h-1l-.5-2.5-1 2-1.5-.5.5-1.5 1.5-.5zm92 0 1 2-1-1-6.5 5.5zm467 1 1.5.5-2 1 .5 1.5-3.5 1.5 1.5.5 1.5-.5-6.5 5.5-1.5-1.5zm-460 6 2.5.5-6 3zm40 0-5 6zm-69 2 2.5 1.5-1.5-.5-5 4zm34 0 6.5 3.5-.5 4.5-2-6-4 1zm444 5-6 7zm-201 1 5 6zm-267 6-1.5 2.5.5 2.5 6-4-4 5-3.5-1.5zm226 0 2.5.5-.5 8.5-1.5-6.5.5-1.5zm-389 1q2.8 5.4 5.5 3.5l-1.5 1.5zm246 1 2 1 2-1v1l-1.5.5-.5 1.5-4 3-.5-1.5 2-1-1-2zm249 0 .5 4.5-3.5 5.5-1.5-.5 2-1-2-1 .5-2.5 1 2 1-2 1.5-.5zm-258 1 2.5.5-2 1-.5 1.5-4 3-1.5-.5 1 4h-1l-.5-2.5-2 1 3-4zm-232 4 3.5 1.5-.5 1.5 2.5 1.5-.5 1.5zm54 3 6.5 4.5.5 2.5 4.5 3.5-3.5-2.5zm396 7 4.5 2.5-2.5-1.5-4 2zm-130 1 .5 14.5h-1zm-246 5 4.5 2.5 1 3zm511 0-.5 1.5 1 2-4.5 2.5-1-2 2-1 1 2zm237 0 2.5 1.5-.5 2.5-1-3-1.5.5.5 3.5 1.5.5-1.5.5-1.5-4.5zm-433 3 5.5 7.5-3-2zm118 0 1.5 2.5-3 6 1.5.5 3-6 2-1 1.5 4.5q-13.2 28.3-32.5 50.5l-4 2-2.5-1.5-1-4v-2l18.5-31.5 5.5-3.5zm-19 5-5 6 .5-1.5.5-1.5zm117 4-5 6zm-1 6 2.5.5-1.5 2.5v-2l-2.5 1.5q4.3 2.3-.5 4.5 3.2-2 0-4l-2.5 1.5zm-146 1-6 7zm-152 1 2 5 2-1-1 2-3.5-2.5zm335 4 .5 1.5-9 8 2.5-4.5 2.5-.5zm-234 5 14 15zm-8 2 6 7zm-447 1 .5 1.5-1 2v2l-.5 1.5-1.5-3.5.5-2.5 1.5.5zm334 1 1.5.5-2 1q3.3 2.2-2.5 4.5zm-340 1 2.5.5-1 4 1 2-3.5 1.5-2.5-5.5 1.5.5 1.5-.5zm316 4-.5 1.5 2.5 5.5 1.5.5-2 1-.5 1.5-1-2-1.5.5.5-1.5-1.5-.5 2-1-1-4zm196 1-8 9zm4 3-10 11-1.5-.5zm-121 3 1.5.5.5 2.5 3.5 1.5 2 4q-1.6 10.4-7.5 16.5l-3 1-2-9q-17.2 18.8-43 29h-2l-3.5-.5 1.5-3.5 1.5-.5-3.5-.5-6 2-1.5-3.5q24.4-9.1 42-25l-.5-1.5-2 1-1.5-2.5zm-399 6 1.5.5 1 5-1 3-.5 1.5-1.5-.5v-2l1-4h-2zm73 89 .5 2.5-2.5 3.5-1.5-.5.5-2.5 2.5-.5zm-1 11 2.5.5-2.5 3.5-2.5-1.5.5-1.5 1 2 2.5-1.5zm220 11 2.5 1.5-1.5-.5-1.5.5-2.5 3.5-1.5-.5.5-1.5 2.5-.5zm-218 6 1.5.5-2.5 4.5-1-4 1.5.5zm441 29 .5 3.5-2.5 1.5-1.5-2.5 2-1-1 2 1.5.5z"/></svg>