<svg xmlns="http://www.w3.org/2000/svg" viewBox="0 0 1024 1024"><path fill="#181715" stroke="#181715" d="m853.5 238 1.5 2.5-20 7 2.5.5 32-8h2l2.5.5-4 3-34 71 2-1q16.3-24.7 27.5-54.5l1.5.5-3 11 3.5-2.5 2.5.5-17 28-15 36-33 60-36 73-45 79q-13.9 40.1-33 75l-52 93-11.5 15.5-2.5-.5q17.6-44.9 40-85l-3 2q-33.9 54.6-62.5 114.5l-1.5.5 5 6-1.5.5-6-3-.5 2.5 6.5 3.5 1-2 3.5 2.5-.5 2.5-2 1-9-5-3 5-2.5-.5 1-4h-1L577.5 790l-2.5-1.5 12-22-5-4-2.5-4.5-36-15 2 3 1.5.5 3.5 4.5 9.5 8.5-.5 1.5-2 1-16-17-12-9-44-23-22-16-42.5 31.5-.5 1.5-9.5 8.5-29.5 35.5-.5-1.5q12.9-20.6 30-37l-4.5 3.5-27 21-4 1-2-1-12.5 11.5-1.5 2.5-1.5.5 2 3-1.5-.5-3 1-2-1-7 4-.5-3.5q6.9-2.6 8-11L337.5 714l-.5 3.5q4.2 28.8 13 53l-2.5.5-8.5-28.5-10-54-18.5-49.5-.5 3.5L336.5 749l1-5 .5 13.5-1.5.5-3.5-8.5-13-63-12-43-5-30 1.5-.5 16 45 .5-2.5-18.5-72.5-24-13-.5 1.5 5 3-.5 1.5q-18.7-15.3-43-25v1l53 39 11.5 5.5-2.5 3.5-44-31q-51.9-18.6-93.5-47.5l.5-2.5 13 3 38 16-1-2-40-23-15.5-6.5-.5-2.5-4.5-2.5.5-2.5 9 3 4.5-2.5-2-4 5.5-.5 4 2 .5-1.5-8.5-6.5-4 2-2-1-16 5-.5-1.5 19-7-.5-1.5-2.5-1.5.5-2.5 5 3h6l17-9 56.5-20.5-2.5-.5-60 14-.5-2.5q31.1-17.4 67.5-29.5l147-41q57.1-26.9 119-49l.5 1.5-93 38 2.5.5 75-23 30-12 39-12 .5 2.5-13 5 1 3-14.5 6.5Q502 367 464 382.5l2.5.5 51-16 8-1 .5 1.5-93.5 28.5-110 55-62.5 34.5 1.5.5q37.7-13.8 85-18h2l34-1q3.5 2-1 4l-12 4v-1l10.5-4.5-25.5-.5-39 5-27 7-3-1-2 2-39 11q-15.5 10.5-36 16-3.5-2 1-4 16.3-10.2 38-15l92.5-49.5-2.5-.5-88 28-66.5 28.5 34.5 23.5q32.5 8.5 60 22 15.3 8.2 26.5 20.5l-.5 1.5-33-9v1q23.6 9.9 40 27l21-15L454 497.5l-2.5-3.5-31.5-17.5.5-2.5 8 3 3.5-10.5 4.5-4.5 2.5-1.5 4.5-5.5 69-39-1.5 2.5-2.5 3.5-5.5 3.5 2.5.5 16.5-2.5-5-2 1.5-2.5q19.4-.4 30.5 7.5l-.5 1.5-3.5.5 2.5 3.5 16.5-24.5 8-31-1-6 11-21 5-30 3.5-8.5 5-1 9.5 7.5q3.9 11.1 2.5 27.5l7.5-6.5 24.5-32.5 13.5-11.5 2.5-3.5q6.2-6.8 17-9l3.5 1.5 1.5 5.5 2.5-1.5-1 6-28 39 6.5-5.5 18-15q12.1-3.4 19.5-11.5l1.5-2.5 8-2 5.5 2.5-1 2 1 8-11.5 15.5-9.5 8.5-11.5 12.5-2.5 1.5-2.5 3.5-1.5.5-5 6 1.5.5 35-21 10-5h5l2.5 1.5.5 1.5 1.5.5 1 5-2.5 3.5-1.5.5-7.5 10.5-37.5 25.5.5 1.5 27-5h12l2.5.5.5 3.5 1.5.5-1.5 4.5-9 7-24.5 11.5 1.5.5 9-3-1 2q-18.8 2.2-31.5 10.5l-.5 2.5-2-1-16.5 13.5 1.5.5 16-12 .5 1.5-23.5 19.5-21 7-2.5 2.5-10 16 8.5 5.5.5-1.5-4-8 1.5-.5 9 13 3.5 1.5.5 1.5 1.5.5 3 14-3 2 .5 3.5 1.5-.5 2.5-3.5 2.5.5-8.5 11.5-5.5 4.5-1.5 2.5-35 33-21 15-4-2-3.5 4.5 2.5 3.5-4-1-4 6-2.5-.5 4-9-2-1-.5-1.5-5-1-2 1-5.5-1.5-2.5-3.5-29-21q-56 42-107 89l-.5-1.5 10.5-11.5-18.5 13.5 1.5 2.5 2.5-1.5-1 2 17.5 13.5h2l20 12-3-4-15.5-14.5.5-1.5 78 60 25.5 15.5 1.5 2.5 39 27 23 12 4-5 1.5-.5.5-1.5 1.5-.5.5-1.5 4-3-4.5 5.5-.5 1.5-1.5.5-4 6 13.5 7.5 33.5-67.5-2 1-31.5 44.5-.5-2.5 15-31 36-54 10.5-20.5 1.5-.5q27.9-45.6 47-100l-2 1-40 76-4.5 14.5-.5-4.5q22.4-56.6 54-104l23-60 14-29 27-42 51.5-61.5-1.5 2.5-42 51-26 38-18 35-21 54h1l65-99 35-61 10-22h-2l4-4 21-44-.5-1.5 2.5-1.5 3-6-1.5-.5-16.5 12.5 1.5.5 7-4-4 5-13 11-.5-2.5 10-8-1.5-.5-13.5 10.5 1.5.5 2.5-1.5-5.5 7.5q-10.8 2.2-17 9l-68 58-5 2 4-5 25.5-21.5-1.5-.5-7 5v-2l-1.5.5-1.5 2.5-30 24-8 4-.5-1.5 20-16 6-11-3 2-5.5 9.5-.5-2.5 17-26-1.5-.5-15 11h-3l-.5-3.5 13.5-10.5 74.5-45.5-1.5-.5-55 20-28 5q-1.7-3.7-3.5-.5l.5 1.5-3-2-8 3-1.5-2.5 15-7 .5-2.5 38.5-14.5-3.5-.5-49 16v-1q34.8-15.2 77-23zm8.5 12-8 15 1 1 8-15zm-22 2q-53 16-101 36v1q56-14 104-36zm-8 13-84 50-11 18 1 1 10-12 17-14 3-2-3 4v1l22-14h4l42-31zm13 17-8 15 1 1 7-14zm-173 4-4 3-6 7 7-1q4-2 4-8zm-14 11-15 15-32 41-3 2-2 6-3 1-2-4-5 4h-3l1-3 2-1 2-3 3-17-4-18-2-1 1 2q1 8-2 12l-3 2-8 29-7 16 1 6-2 10 2 1q-3 2-2 9l1 3-2 3-2-1-5 7h-1l-18 31-48 73 5 2 5-3 3 1-5 4-1 2 25 14q3-6 2-16l4-12h1q-5 12-5 30l6 2 5-12v-5l-4 8h-2l6-13v-19l2-2 1 1-1 13 1 2 5-11v-2l1-12 2-1 2 10q6-13 7-31l2-1 1 6-1 3 1 7-1 3v2l1 5 5-9q-1-11 2-17l3-2 2-4v-21l2-1 2 18 6-13 6-5q5-3 5-11l4-2 1 2 6-2 8-11 1 1-2 5 1 1 1-2 2-1 11-12 1 1-5 7-3 4 8-5 7-8 3-2 1 2 2-1v-1l4-3h1l-3 5 1 1 9-12v4h2l1-2 14-7 4 1-4 2v1l24-9-2-2 1-3v-2l-28 7q-7 1-9-3l1-7 43-30-2-6 2-3q-23 10-41 25l-9 3-1-3-4-3-2 1h-2l2-3 4-3-1 2h2l5-6 17-16v-1l9-7 16-17-2 1-5-1q-5-2-2-3v-2l-22 17-1 2-4 3-5 6-21 16-2-2-5-2 35-48 1-2-9 2-1-1zm48 4-10 6 2 3 7-1 2-5zm76 1-17 10-6 6h-2l1-2-1-1-14 18h2v-1q17-17 38-29zm2 6-21 15-4 5 4-2 3-1 19-16zm56 11-12 18-14 32 1 1 25-48zm-247 2-3 9 1 2 2-3zm122 16-3 1-5 6 2 2 6-3 1-5zm100 26-36 63 1 2 24-38 11-24zm-344 11-78 25-37 16-1 2 35-11 84-31zm236 7-3 1-2 3 5 1 3-4-1-1zm-137 9-3 12 1 2 3-11zm-155 12-85 29-20 9-26 6-85 31-1 2 27-8 71-26 52-12 3 1 27-11 40-20zm-45 3-123 35-52 22-1 2 79-18q51-18 98-40zm404 8-61 92-22 53 1 1 53-87 29-57zm-130 1-18 13-6 2-2 3 3-1h2l17-10 5-6zm146 4-39 62-19 45 1 2q30-52 57-107zm-277 9q-17 3-28 12l-4 5 1 1 14-9h1l-9 10 1 1 11-10 1-3 5-4 1 1-5 8-3 4 13-8q1-4 3 0l-1 2h2l1 2 7-4 2-4 1 1-2 6 1 1 5-4 2 1-3 6 1 1 6-5 1 1q-4 14-13 23h2l19-28q-8-7-21-7l-2 1zm101 10-4 1-2 3 7-3zm-115 1-20 22 1 1 5-4 15-18zm14 0-5 6 5-4zm8 0-5 7h2l4-6zm-197 2-49 14-65 24-36 9-1 2 7 5 65-27 83-26zm182 1-6 4-7 9v1l3-1 11-12zm-26 1-11 7-8 10-1 2 16-12 4-5zm35 1-13 15 1 1 13-15zm9 1-14 17 1 1 13-16zm73 0-8 9 1 2 3-2 4-7zm-112 1-4 3-13 17 1 1 16-19zm44 5-8 9 1 1 7-8zm-68 4-4 2-13 15-1 2 7-4 12-14zm131 0-10 12 1 6 9-15zm-121 1-13 10-5 8v1l4-2 14-15zm16 2-4 3-9 11 1 1 7-6 5-7zm8 1-4 3-10 13h2l8-8 1 1 1-2h-2l4-5zm-47 3-6 4-6 6v3l3 1 8-11 2-1v-1zm26 3-4 3-9 11 1 2 4-3 8-11zm128 4-2 4 1 3 3-4 2 2-4 11 1 3 3-9q2-3 3 0l-1 2 2 1 3-2-1 23h2l6-11-5-13zm-103 1-8 10 1 1 7-9zm89 0-6 8 1 5 5-11zm-137 1-8 5-2 3 22 15 3 6 7-14 1-2-7 5-3 4h-2l4-10 1-2-8 5-3-1 6-12-1-1-3 4h-1l-4 5-3-1 1-3h-2l3-5zm128 0-4 11 1 2 3-6zm-101 1-4 3-6 9v1l5-3 6-9zm8 4-6 7h2l4-5zm-53 1-2 2 13 8h1zm69 0-15 19 1 1 14-18zm-13 2-9 11h2l7-9zm17 1-5 6 1 1 4-5zm73 4-4 7 1 5 3-6zm-100 1-7 9h2l6-8zm86 2-8 21 1 8 7-13zm-79 3-15 23 1 1q10-9 15-23zm124 0-5 19h2v-1l2-1 1-4zm-38 7-5 7-1 9h2l4-8zm-341 1-18 8v1l19-8zm243 0-7 5-2 4v2l2 10v2l2 17v8l-1-1-2-1-1 3 1 2 7-4 5-9v-2l-2 3-2 1 10-20v-2l-11 15h-4l9-15 3-4-3 1-6 9-2 1 3-6q-2-4-3 0h-2q3-4 2-11l4-6zm-18 3-95 59-38 26-4 5 1 1-10-5-2 1 3 7 2-4 9 29 7-35 1 1-1 12-2 2q-2 11 2 17 11-17 14-41 2-3 3 0l-5 17-7 47 1 8 2-4h1l-5 13 2 8 4-16-1-7 5-13q5-34 16-62l1 1-24 103 1 1 12-27 20-64 10-22 1 1q-14 64-33 123l1 2 1-3h1l-3 7h-2l5-24 26-94v-3l-29 88-10 20 9 30 6-25h1l-3 12 1 4 10-31h1q-5 23-15 43l5 23h2l15-82-1-1v-1l2 1v10l-4 17 1 4 4-19 2-1-1-8 2-1-1-1 4-20-2-3 2-1 13-46v4l-8 27 1 1 10-8 4-4 13-49 2-15h-1l1-2 2 2-5 24h2l-3 4-10 34 1 1 15-11 2-2 11-38 10-23 2-1-11 25-10 34 1 1 44-32-1-8-2-2q2-13-1-21-9 13-11 33h-1l6-26 6-8zm146 0-5 15h2l4-4-2-2 1-2zm-430 1-4 3 13 6v-1zm423 2-5 17v1l4-2-1-3 2-9zm-412 4q12 14 33 22h1zm371 3-6 13 1 7 5-9zm10 0-8 13 2 7 6-10zm170 3-39 74 1 1 23-37 15-35zm-13 5-50 86 1 1q29-38 49-85zm-226 1-15 19 1 1 13-9-1-1-2 1 5-10zm91 1-5 8v1l6-5zm-87 2-5 6 1 1 6-3v-2zm-325 2q33 23 74 40h2l-23-19zm51 1 38 25 34 11h1l-2-2-2-2-24-16zm329 1-5 8 1 9 2-4h1l-2 8h-1l-2-6-1-1-1 5h-2l-2 5 4 2q7 1 10-3v-8l-2 3-2 1 3-8h-2q3-3 2-10zm18 1-9 16 1 1 4-3 4-12zm5 0-4 9 7-6zm-1 13-9 7-4 5 14-11zm-194 3-68 40-1 2 4 2 66-43zm71 18-34 25-3 4v1l38-29zm260 3-33 52-49 102 1 1 55-97 26-55zm-16 8-34 50-16 30 1 2 13-20 1 2q20-29 35-62zm-283 18-15 11-3 4 1 1 14-10 3-4zm-77 13-8 16 4 15 4-26zm58 1-7 6-1 2-3 2h-2l-2 3 1 2 12-9 2-3zm-69 6-3 13h2l2-3zm2 12-2 3-3 2 8 26 1-9zm53 2-2 4 1 6 2-9zm8 7-3 11 15 9-7-9 14 5h2zm-3 12-10 43-3 33-10 40 1 1 3-4 2-1 1-2v-2l2-3 59-49-5-8-1 5v2l-1 3q-1 3-3 0l2-9v-4l-7-11-4 15 2 5v4l-1-2-3 10h-2l2-12v-5l-6-13q-4 21-12 37l-2 1q9-16 12-36v-6l-11-21 1-4 3 1 9 11h2v-3zm259 5-22 38 1 1 21-37zm-234 4-1 2 9 5h1zm-17 1-1 3 10 17 2-7-10-12zm41 0-1 2 31 21h1zm-27 7-1 4 5 7h2v-5zm11 4-1 2 7 5v-2zm17 2-1 2 17 14 3-2zm-29 1-3 8 7 13 2-11zm10 1-1 7 7 9 1-3v-5zm11 2q-2 6 2 9h2v-5zm9 8-2 7 6 4 2-1zm-10 1-2 7 6 7 1-2-1-3 1-2-4-6zm196 1-23 39 1 1 22-38zm-254 7-5 17 1 4 4-18zm-30 3 2 17 10 34h1zm118 2-53 42-8 9 62-48 1-2zm15 0-4 2-1 2 38 24h1l-22-21zm-11 2-5 4-2 3 7-4q3-1 0-3Zm-100 9-2 8 1 2-5 21v9l-2 2 4 12 2-12 1-29 2-12zm138 6 5 6 19 14 39 18h1zm83 45 8 7v-1z"/><path fill="#181715" stroke="#181715" d="m528.5 342 2.5.5-12.5 4.5 1-2zm101 6 1.5 2.5-3.5 4.5-.5-1.5 1-3zm-237 86q16.1-1.6 25.5 3.5l-2.5.5-23-1-3.5-1.5zm3 42 6.5.5-21.5 4.5-44 4v-1l46-5zm-145 20 8.5 2.5-3.5.5zm105 3 .5 2.5-37 23-2.5 4.5-.5-2.5 2.5-3.5 36.5-22.5zm93 10 .5 7.5-7 23v6l-8.5 24.5-.5-1.5zm-53 37 1.5.5-5 26 .5 1.5-1.5.5 1 2-2.5 1.5.5-1.5 5-25h-1L371.5 618l-1.5-.5 20-60zm224 21 4.5 1.5 20.5 31.5 6.5 2.5-5.5.5-6.5-5.5-16.5-29.5-4.5 2.5q-6.9 12.1-7 31v2l-1 20 1 2-2 22-4.5 14.5-.5-1.5 4-19 2-31v-2l1-24q1.6-11.4 8.5-17.5Zm-65 21 1.5 1.5 1 15 9 51 9.5 37.5.5-4.5q-5-24.5-4-55 1.5-3 3 0l-2 8 1 7v2q-1.1 13.6 2 23v2l1 7v2l5 48-2-1-3-24-9-33-10-52v-2l-5-31zm-185 31 .5 2.5-16.5 56.5-.5-3.5zm55 15 9.5 6.5.5 1.5h2q41.4 29.1 89 52l22.5 17.5.5 1.5 1.5.5.5 1.5 1.5.5-.5 1.5-32-24q-51.3-24.7-95.5-56.5zm117 37 .5 10.5-1 7v2l-.5 3.5-1.5-.5z"/><path fill="#f9f9f9" stroke="#f9f9f9" d="M.5 0 1024 .5l-.5 1023.5L0 1023.5zM852 238l-52 19q-46 9-84 25l-1 2 44-14 2 1-33 12-1 3-15 7 2 2 8-2 3 1 31-5 54-20 2 1-63 37-25 18 3 4 15-9h1l-16 25 1 2-7 5-11 11 2 1 9-5 27-23 8-3 2-1-27 23 2 2 6-4v-1l54-46 21-16 6-1 25-21 2-3-5 2h-2l13-10 1 1-2 4-2 1-2 9q-12 16-19 37l-33 41h-1q-29 30-49 68l-17 36-20 53q-27 42-49 90l-6 17v9l-5 12-42 64-16 33-14 13-21-11-38-26-1-2 12 5h2l-28-13-28-20-2-2-44-32-17-16-3 2 2 3 3 1 4 6 5 3 3 4-18-12-2 1-13-10-3-5-1-1-1 2-1-1 15-12-9 10 2 2 32-28 5-5 1 1h1l-1-2 69-55 11 9h-1q-6 5-6 15l4 1 9-11 3 2-4 9 4 2 6-8 4 2v2q2 4 4 1l3 2 6-1 1 3 2 1-5 8 3 1 3-4q2-5 5-1h1l-2-5 5-4v2l3 1 45-39 25-27v-3l-5 4h-2l4-5-3-12-5-5-6-7 20-16 1 2 9-2 21-22 3-2v-1q8-15 27-19l1 1 9-9-3-1-2 1 19-14-3-8-2 1-4-1 2-1-1-3-14 4-3 1-4 2h-2l2-1 3-5 19-17 2-3 2-1 7-10v-5q-2-7-12-5l-2 1 2-5-4-3-11 6-1 2h-1l-1 2-5 4h-2l6-8 9-7 8-11 2-1 3-7-3-3-1-3-5-4-8 3-3 4-7 4-1 2-1-1-29 22-4 3 29-41v-3l-3 1-1-3-5-4-5 2-2 1 5-8 3-2-1-2 1-4-2-2-8 5-44 47-1-1 2-1 6-13-2-2-4 2-11 15-2 1-1-12-2-2-4 5-2-1 2-7-2-2-6 10h-1l-6 11 1 2-30 76 4 4 4-2h1l-3 10-11 16-19-8-9-1q-6-1-7 3l4 3-12 1h-3l8-7v-2l-56 30-29 22-1 3h2v-1l2-1h1l-3 8-6-3-4 2q14 12 34 19v3l-6 3q-2 5-4 2l-131 78-1 2q-15-17-37-26v-1l29 9 1-3-25-20q-28-14-60-22l-35-23 70-30 82-26 1 1-90 48q-22 5-38 15-5 2-1 4 21-4 36-15l3 1v-1l21-8 35-9q31-7 69-8l2 1 2-1h2l1 1-27 12-6 1-3-1-8 3 1 1 40-4h2l25-5 2 1v-1l-4-2-37 6h-7l26-10 1-3-3-2h-19l-38 4-60 15h-2l64-35 108-54 93-28-1-3-38 11h-3l64-21 11-6-1-2 11-4q4-2 1-4l-139 45h-2q56-27 120-47l1-2-58 19-99 42-138 38-26 9-45 21q-5 2-1 4l54-12 2 1-51 18-18 9-7-3q-2-3-4 2l1 2h2v2l-15 4-3 3 2 2 20-6 8 6v1l-4-3-2 1-2-1-2 1 3 4-3 2-10-3-2 3 4 2 1 4 16 6 39 22 1 2-32-14-17-5-2 3q41 30 94 48 20 18 46 31l2-7 14 57v2l-13-39-4 1 24 109 11 35h2l-1-12 1-4 9 30h2l-10-41 1-4 13 41-4 6h-1l-1 2h-1l-2 3 2 2 7-3 6 1 2-8 12-10 2 1 29-21 3-2q-17 15-29 37l1 1 27-33q24-28 57-46 28 23 65 38l16 12 12 14 4-1v-1l-8-8-8-9 34 15 3 6 4 3-11 23 3 1 11-20v2l3 1 3-5 10 4 2-2-4-4 1-1-5-6 33-63 28-48 2-1-32 65-5 16h3l11-15 52-93q21-39 37-82l41-72 36-73q19-28 33-60l16-38 15-22 1-5-2-2-3 4h-1l4-11-2-2q-11 28-26 52h-1l31-66 5-3-2-1-3-1-12 3h-4l1-3zM391 434l-4 3h25l11 3v-1q-12-7-32-5Zm-141 62 4 3 13 2 38-1 2-1-8-1h-2l-22 1h-2l-3 1zm82 0-19 1-3 2h8l21-2 14 1 1 3-31 18q-9 3-8 15l5 4-3-5 1-6q15-14 35-22 4-1 3-6-8-6-24-3Zm289 70-2 1-8 16-3 34 1 7q0 26-8 45l1 1q11-20 9-53v-2l2-29 7-17 2-1 17 31 9 5 9-2 1-2-3 1-9-1-6-5-13-23zm-67 22-1 13h2l1 12v2l12 62 9 33 4 23h2l-9-72 1-26 11 30 2 1-13-33-2-1-2 11 4 41v5l-9-36-10-64zm-130 46-1 2 51 33 55 30 24 19v-1q-12-14-28-24l-45-24zm121 21q-7 16-6 40h2l4-11v-2l-2 4h-1q-1-11 2-17l-1-4 2-4z"/><path fill="#f9f9f9" stroke="#f9f9f9" d="m861.5 251-.5 1.5-4.5 9.5-.5-1.5zm-23 2 1.5.5-22.5 10.5-49 17-27 7v-1q46.4-19.1 97-34Zm-8 13-2 3-36 26-5 1-22 14 1.5-2.5 2-3 .5-2.5zm2 7-3 4-3 2 2-3zm-175 9-.5 1.5-5 9-.5 2.5-.5-4.5zm15 4 .5 1.5-2.5 5.5-5 2-.5-1.5 5.5-6.5zm-6 12 1.5.5-15.5 19.5.5-1.5 10.5-17.5zm-27 2-.5 1.5-2.5 4.5-1.5.5-1.5 3.5-1.5.5-5.5 7.5-1.5.5-11.5 14.5-1.5.5-1.5 2.5.5-1.5 22.5-28.5 1.5-.5zm65 2 1.5.5-1.5 5.5-7 1-1.5-2.5zm62 2-4 5-17.5 15.5-5.5 6.5 1.5-2.5 8.5-14.5zm11 1-1 2q-20 10.5-34 27l1.5-2.5 12.5-15.5 1 3 3.5-2.5.5-1.5zm-87 4 1.5.5q-25.6 23.4-44.5 53.5l-1.5.5-.5 1.5-5-2-25 22 1.5-2.5 22.5-27.5 4.5-2.5q-.7-6.7 4.5-7.5zm91 1-3 4-19 13v-1zm-88 3 7.5.5-17.5 16.5 1.5-2.5zm131 4-.5 1.5-7 16-35 61-63.5 95.5.5-1.5q14.4-44.6 36-82l22-33zm-180 1 .5 1.5-15.5 23.5.5-1.5zm194 3 .5 1.5-17.5 33.5-.5-2.5q6.6-18.4 17.5-32.5Zm-135 9 1.5.5.5 2.5 1.5.5-17.5 9.5 4-5zm-108 1 .5 2.5-6 20-5.5 8.5-.5-3.5 5-15v-2l1.5-5.5 4.5-3.5zm141 4-1.5 2.5-5.5 8.5 1.5-2.5zm-23 3 2.5.5-3.5 5.5-1.5-.5-1-3zm-132 8 .5 1.5-4.5 10.5-.5-2.5zm114 0 .5 2.5-7.5 4.5-27.5 25.5-1.5 2.5-.5-1.5 1-3 2.5-5.5 1.5-.5 1.5-5.5zm-79 7 1.5.5-5.5 7.5-2 1 .5-1.5zm8 1-.5 1.5-22.5 38.5-4 2 .5-1.5zm-18 7-.5 1.5-20 32-4.5 11.5-2.5-.5 24.5-42.5zm48 4 1.5 2.5-11.5 10.5 1.5-2.5zm158 2 .5 1.5q-12.4 31.1-31.5 55.5l-.5-1.5zm-229 3 .5 1.5-6.5 11.5-.5-5.5 2.5-5.5zm21 0 1.5.5-10.5 16.5-.5-1.5zm80 3 .5 2.5-5.5 3.5-3 1-1.5-.5zm-219 3 1.5.5-73.5 27.5-35 11v-1l30-13zm105 0 .5 4.5-5.5 14.5-4 2-.5-2.5zm-92 1 2.5.5-10.5 3.5v-1zm170 13-.5 1.5-10.5 13.5-.5-1.5zm-68 1 1.5.5-5.5 10.5-.5-2.5 2.5-6.5 1.5-.5zm42 2-12 13zm-17 8 .5 1.5-2 1-3.5 4.5-.5-1.5zm-190 1 1.5.5-65.5 31.5-6-1-40 9v-1zm208 3 .5 1.5-12.5 16.5-1.5.5-5 6 .5 1.5q-4.3-1.7-1.5-3.5l15.5-19.5zm-259 2 1.5.5-91.5 37.5-79 18v-1q28.6-14.9 62-25zm222 7 1.5.5-2.5 5.5-3 1 .5-1.5zm186 1-.5 1.5-27 54-52.5 86.5-.5-1.5 21-50zm-207 4 2.5 3.5-17.5 23.5-.5-1.5zm223 1 .5 1.5L732.5 526l.5-1.5 20-48zm-126 3-9 10-11 8-.5-1.5 5.5-7.5 4.5-3.5.5-1.5 2-1 .5 1.5-1.5 2.5zm-153 5q23.8-2.7 36.5 5.5L526.5 461l1.5-2.5 11-20-2.5-.5-5 3 .5-1.5 1-5-2.5-.5-2 3-2 1 .5-1.5 1-6-1.5-.5-4 5-5 3-3-5-14 9 .5-1.5zm-5 1 1.5.5-23.5 14.5-.5-1.5q8.6-9.4 22.5-13.5Zm-5 6-4 5-5 4 2.5-3.5 3.5-4.5zm135 5 1.5.5-2.5 3.5-14 11-.5-1.5 4-3-1-2zm-138 1-2.5 3.5-11.5 13.5-2 1 2.5-3.5zm-197 1 4.5.5L200.5 478v-1z"/><path fill="#f9f9f9" stroke="#f9f9f9" d="m317.5 442 2.5.5q-75.6 20.4-140.5 51.5l-6.5-5.5 4.5-2.5 31-7 59-22zm187 0 1.5.5-9.5 10.5-3 1 .5-1.5 4.5-6.5zm-26 1-.5 1.5-5.5 6.5-12 9 2.5-3.5 8.5-9.5zm36 1-.5 1.5-11.5 13.5 1.5-2.5 4.5-7.5zm9 1-1.5 2.5-10.5 12.5 1.5-2.5 7.5-10.5zm-40 1 .5 1.5-11.5 14.5-3 2 .5-1.5 9.5-13.5zm85 0-.5 1.5-10.5 13.5 1.5-2.5zm46 6 1.5.5-4.5 8.5-1.5-3.5zm-155 3-.5 1.5-10.5 12.5-5 3 6.5-7.5 7.5-8.5zm11 0-1.5 2.5-15.5 16.5-.5-1.5 6.5-8.5zm16 2-.5 1.5-5.5 7.5-5 4 1.5-2.5 3.5-5.5zm8 1-2.5 3.5-6.5 9.5-2 1 .5-1.5zm-46 3-5.5 6.5-4.5 7.5-2.5-3.5 2.5-3.5zm24 4 .5 1.5-5.5 8.5-6 4 1.5-2.5zm130 3 11.5 8.5q6.2 4.8 5 17l-5.5 7.5-.5-9.5v-2l1-11-2.5-.5-2.5 1.5-1.5-4.5-2 3-.5-1.5 2-4-2.5-2.5-3.5 2.5z"/><path fill="#f9f9f9" stroke="#f9f9f9" d="m449.5 471 .5 2.5-1 2 2.5 5.5 7-6 .5 1.5-4 7 3.5 2.5 7-5-.5 1.5-4 8 .5 1.5-20.5-15.5zm29 0-.5 1.5-7.5 9.5-2 1 .5-1.5 6.5-8.5zm19 0-.5 1.5-5.5 7.5 1.5-2.5zm-65 6 10.5 7.5-1.5-.5zm68 1-.5 1.5-11.5 14.5.5-1.5zm-14 3-3.5 4.5-2.5 3.5.5-1.5zm-14 3-.5 1.5-6.5 13.5-2.5-6.5zm50 3 .5 1.5-4 6-1.5 3.5-2.5-.5zm-37 3-.5 1.5q-3.6 12.9-12.5 20.5l-.5-1.5zm124 0 .5 3.5-1 10 .5 1.5-3 2-.5-5.5zm-138 9 1.5.5-4 8 1 2-2.5 6.5-1.5-12.5 5-3zm-248 1 1.5.5-9.5 4.5v-1zm231 1 1.5.5 2 17q-5.7 3.8-7 12l-4 23 2-1q1.5-19 9.5-31.5l1.5 19.5-1 3h1l.5-1.5 2.5 7.5-27.5 20.5-.5-2.5q3.7-19.8 13-34l-2 1-2.5 5.5-.5-1.5 7-24v-6l-1.5-.5-14.5 20.5q-11.5 24.5-18 54l-3.5 4.5-1.5-.5 3-21h-1l-3 23-1.5 1.5-9 7-.5-2.5 9-30 7.5-12.5 1.5.5-.5-4.5-7 10 .5-1.5 4-15v-8l-1.5-1.5-4.5 4.5-12.5 26.5-.5-3.5 3-13-2.5-1.5q-25.8 61.2-43 131l-2.5.5-1.5 4.5-.5-1.5q19.3-57.2 32-121-1.5-3-3 0l-26 78-13.5 32.5-.5-2.5 24-100-2.5-1.5q-10.6 27.4-15.5 60.5l-7.5 19.5-.5-11.5 6-40 5-20q-1.5-3-3 0-3.7 24.3-14.5 41.5l-1.5-12.5q3.9-7.1 3-19l-1.5-.5-3 10-2-4-.5 3.5q3.5 1.5 2 8l-3.5 15.5-8-26-3 1-2.5-3.5 2.5-.5 10 5 .5-1.5-1.5-2.5 37-26zm59 0-.5 1.5q-2.5 12.5-9.5 20.5l-3.5-2.5zm-343 1q6.8-.7 7.5 4.5l-.5 1.5-8.5-4.5zm430 3 1.5 5.5-4 3zm-415 4 27.5 17.5-1.5-.5q-17-6.2-26-17Z"/><path fill="#f9f9f9" stroke="#f9f9f9" d="m447.5 511-.5 1.5-15.5 60.5-12 9-.5-2.5 11-36 9-21zm145 1 1.5 5.5-4 3zm-115 1 .5 1.5-9.5 13.5-.5-8.5 1.5-3.5 2-1 .5 1.5-2 6 2-1 3.5-6.5 1.5-.5zm49 1 2.5.5-3 2-1 2 1 2-7.5 12.5-4.5-2.5.5-1.5 1.5-.5zm206 1 .5 1.5-14 33-20.5 32.5.5-1.5zm-250 2-.5 1.5-9 20 3-1-5.5 7.5-2.5-14.5 3.5-.5q1.7 2.8 3.5-1.5zm12 3-.5 1.5-5.5 11.5-6 4-.5-1.5zm91 1 .5 3.5-4.5 3.5.5-1.5zm134 0-.5 1.5q-19.3 44.2-46.5 80.5l.5-1.5zm-221 1q4.5 2 1 4l-6 4 2.5-3.5zm-323 3 50 20 22.5 17.5-1.5-.5q-39.7-15.2-71-37Zm52 1 43 16q15.2 6.3 25.5 17.5l-1.5-.5-30-9-30-18zm473 1-.5 1.5q-17.9 51.1-44.5 93.5l.5-1.5 1-11 4-9zm-124 1 3.5 1.5-6.5 5.5.5-1.5zm-44 2 .5 4.5-3.5 6.5-2.5-1.5zm37 1 .5 2.5q-.4 8.1-6.5 10.5l.5-1.5zm-158 4 .5 1.5-15 59-7.5 9.5-6 5-.5-2.5 12-40 11-25zm130 2 1.5.5-4.5 8.5-3.5-2.5 2.5-5.5zm5 6 3 5 1.5-.5.5-1.5 1.5-.5 1.5-2.5 1.5 4.5q-2.2 4.8-10.5 3.5l-3.5-2.5 1.5-2.5 2.5-.5zm-173 5-1 2q-30.3 15.7-55 37l-4.5-2.5zm-132 4q24.7 10.8 44 27l.5-1.5-4.5-5.5 21.5 12.5 1 4-5 3 .5 1.5 4-2v1l-1.5.5 1 3-1.5-.5q-33.2-19.6-60-43Zm152 2 .5 3.5-16.5 62.5-5.5-3.5zm57 9-2 3-32 24 4-5zm262 2-.5 1.5-24 52-53.5 94.5.5-1.5 45-95zm-340 11 .5 2.5-29 109 2.5 1.5 4-8 .5 2.5-5.5 19.5-7.5-28.5 18-44zm322 0-.5 1.5-23 44-9.5 13.5 1.5-2.5-.5-1.5-15 23-.5-1.5 17-32zm-282 15 .5 1.5-16.5 13.5.5-1.5 3.5-4.5zm-77 15 .5 3.5-3.5 21.5-3.5-11.5zm58 0 .5 1.5-8.5 7.5-.5-1.5zm-68 7 1.5 5.5-2.5 3.5-.5-3.5zm46 6 5.5 2.5-3 6 2 1-4.5 23.5-2-6-3.5 2.5-14.5 43.5-.5-2.5zm-44 4q4.7 10.3 3.5 26.5l-2-1-5-22zm62 9 19.5 14.5-1.5-.5-14-4-.5 1.5 5 4-1.5.5-10.5-7.5zm-4 12 19.5 14.5-.5 2.5-9-10-4-2-1.5 2.5 12 26-5 21-8.5 20.5-1-10-1.5.5.5 12.5 2.5-.5q10.7-16.8 14.5-40.5l1.5.5q5.5 6 4 19l-1 8q1.5 3 3 0l1.5-8.5 2 1 .5-3.5-2-9 2.5-10.5 6.5 8.5v9h-2l1.5 6.5 2.5-.5 2.5-9.5 3.5 6.5-45.5 36.5-14.5 14.5v3l-5.5 5.5-.5-1.5 7-25 6-48zm-73 1 15.5 41.5 10 54h-1l-2.5-7.5-.5 1.5 1 5h-1zm25 2 .5 2.5-3.5 12.5-.5-7.5z"/><path fill="#f9f9f9" stroke="#f9f9f9" d="m367.5 649 .5 4.5-15.5 76.5-5.5-21.5 6-12zm274 4 .5 1.5-4.5 7.5-.5-1.5zm-247 1q7.6 3.9 9.5 13.5l-1.5 4.5-8.5-15.5zm42 1 17.5 12.5-2.5-1.5zm-29 6 6.5 5.5-1.5 3.5-5.5-6.5zm229 2 .5 1.5-13.5 22.5.5-1.5zm-230 4 5.5 7.5v5l-1.5 7.5-5.5-10.5v-4zm31 1 16.5 11.5-.5 1.5-16.5-11.5zm-20 1 6.5 7.5-1.5 6.5-6.5-11.5zm11 2q4.2.7 3.5 6.5l-1.5.5-3.5-4.5zm8 8 2.5 1.5 3 8-2.5-1.5-4.5-3.5zm-9 1q5 2.5 3.5 11.5l-1.5.5q-4.8-2.2-3.5-10.5zm192 6-.5 1.5-6.5 12.5-.5-1.5zm4 5 .5 1.5-31.5 62.5-12.5-7.5 10.5-13.5 6.5-5.5.5-1.5 1.5-.5zm-166 1 .5 1.5-62.5 49.5 3-4zm14 0 10 6 22.5 20.5-1.5-.5-34.5-22.5.5-1.5zm-132 2 4.5 17.5h-1zm271 8-.5 1.5-8.5 14.5.5-1.5zm-109 9 51.5 30.5-1.5.5q-31.4-10.2-50-31Zm-142 4 .5 10.5-3.5 28.5-1.5-.5-1-9 2-4v-9zm224 40 6.5 4.5-1.5.5z"/><path fill="#c8b078" stroke="#c8b078" d="m843.5 244 2.5.5-10.5 3.5v-1zm-174 22 3.5 1.5-1 4 1 2-3 2-4 7 .5 1.5-1.5-.5-.5 1.5-12 8-.5-1.5 5-8-2 1q-4.8 3.2-4.5 11.5l-3.5 1.5-6.5 8.5-1.5.5-25.5 33.5-6 5-1.5-25.5-5.5-6.5-6-3-4 1v-1l1.5-.5 5.5-9.5 2.5 1.5-2 7 2 1 3.5-4.5 2.5 1.5.5 12.5 2.5-1.5 10.5-14.5 4-2 2.5 1.5-6 13 10-9 32.5-35.5zM634 306l-20 24 1 1 10-12 2-1 5-7 2-1 1-3zm201.5-37 2.5 1.5-5.5 4.5-3.5.5 4-2 1.5-2.5 1.5-.5zm-9 8 2.5.5-5.5 8.5-2.5-.5 1-2-1.5-.5-1.5.5 3-2 .5 1.5 1.5-.5-1 2 3-2-.5-2.5-1.5.5zm-159 12-1.5 2.5-1 3 2 1-3.5.5-2.5-.5zm138 3-3 4-4 3 3-4zm-103 2 5.5 2.5-2.5.5-4-1-6.5 3.5-1.5 2.5.5-1.5 2.5-3.5z"/><path fill="#c8b078" stroke="#c8b078" d="m657.5 297 1.5.5.5 1.5 3.5.5-9 15 3-1-4 2-1 2v2l-1.5 2.5-1.5.5-.5 2.5-1.5.5q3 2-2 4l-12 17 5 2 1.5 2.5 7-5-2.5 3.5-1.5 4.5-5.5 3.5-20 25 3.5-2.5 20-17 5 2 1-2 5-1 4.5 2.5-.5 2.5-1-2-8.5 10.5 1.5-.5 8-7 9-3 .5 3.5-1.5 2.5-1.5.5-2 5 1.5 1.5 11-11 23.5-18.5 1.5-3.5 6-4 1.5.5.5-1.5 1.5.5-2 6q4.8 2.7-1.5 5.5L664 378.5l-1 7-1.5 4.5 4.5-1.5-.5-1.5 6 2 2-1h2l24-6 .5 1.5-1 3v2l-.5 1.5-29 10v-1l11.5-4.5-4.5-.5-13.5 6.5-1.5 2.5-1.5-.5-.5-3.5-10 13 .5-1.5 3-6-1.5.5-3.5 2.5-.5 1.5-2 1-1-2-2.5 1.5-1 2 1 2h-1l-.5-1.5-15 12 4.5-5.5 5-7-1.5-.5-11 12-1.5.5-1.5 2.5-.5-1.5 2-5-1.5-.5-6.5 9.5 2 1-3.5 4.5-2.5-.5 2.5-3.5-6 2q-2.3-3.8 4.5-7.5l.5-1.5 7.5-6.5 6-11-3.5 2.5-2.5 1.5-15 19 .5 1.5-2.5 1.5q-.2 8.3-5.5 11.5l-5.5 4.5-6.5 13.5-2-18-1.5.5v21l-2.5 4.5-2.5 1.5q-3.4 6.1-2 17l-5.5 9.5-.5-5.5v-2l1-3-1-7 1-3-1.5-5.5-1.5.5q-.8 18.7-7.5 31.5l-2-10-1.5.5-1 12v2l-1 3h2v10l-5.5 9.5-.5-1.5v-2l4-15h-1l-3.5 7.5-.5-2.5 1-13-1.5-.5-1.5 1.5v19l-6 13 1.5.5 5-10 .5 1.5-3.5 8.5-7.5 3.5 1 4-2-1 4-28h-1l-3.5 18.5-1-4-6 10-8.5-6.5 8-14v-2l-.5-1.5-10 13-1.5.5-.5 1.5-6.5-3.5.5-1.5 5.5-4.5-3.5-.5-5 3-.5-1.5q6.6-7.9 9-20h-2l3.5-4.5 3.5-.5 4-6-3-1 4-2-.5-1.5-1.5.5 3-2 .5-2.5 1.5-.5 1-3 22.5-34.5 1 1 4.5-4.5 13-20q-2.5-4.5-5-1l4-3 3.5-5.5 2-1 2.5-.5 1-2-1-3q-1.2-6.7 2-9l-2-1 2-10-1-6h1l.5 3.5 6.5-12.5-2.5 1.5-3 1 .5-1.5 4.5-11.5 1 2 5.5-8.5 6-22h-1l-3.5 4.5-1.5.5-.5 1.5-.5-1.5 5-4 3-5-.5-1.5 1.5-.5.5-1.5 2.5 13.5-3 17-2.5 3.5-1.5.5-1 3 2.5.5 5-4 2 4 3.5-1.5 1.5-5.5 3.5-2.5 32-41zM639 327l-5 7 1 1 4-6zm-9 21-2 3-1 3 1 1 3-4zm-13 5-6 8h2l5-7zm7 2-26 40v1l4-2 22-36zm-18 7-2 1-18 30 1 1 19-30zm-2 10-6 9 1 1 5-8zm-23 19-1 2h-1l-3 7 1 2 5-10zm5 3-7 12h3l4-8zm60 0-9 10 1 1 8-9zm-78 53-7 8 1 1 6-7zm141.5-147 4.5 3.5-3.5 7.5-1.5-.5 1-9zm58 3 1 2-2.5 1.5 2 4-1.5 1.5-2-1-2 4 2-5 1.5-.5-2-2 1.5-3.5 1.5.5zm73 1 1 2 1.5-.5-3 1 1 2-2-1zm-12 5-1.5 4.5-.5 1.5-2.5.5 2 1-2 1 1 2h-1l-2-3 5-4q-2.7-1.8 1.5-3.5Z"/><path fill="#c8b078" stroke="#c8b078" d="m691.5 310 4.5 2.5-3 1-8 14 12-10-11.5 11.5-2.5.5-3.5 4.5-2.5 1.5-.5 1.5-16.5 15.5-5.5 6.5-2.5-1.5 6-10zm-103 3 .5 2.5-8 32 1 2h-1l-.5-1.5-.5 2.5.5 1.5-1.5-.5-2 6 .5 1.5-1.5.5 1 2q-7 3-6 14l.5 1.5q-1.7-2.7-3.5 1.5l-7 18 1.5.5 3.5-2.5.5-1.5.5 2.5-3.5 5.5-4 2-3.5-4.5 30-76-1-2zm166 2h2l1.5.5-.5 1.5-5.5.5zm1 6-9 10zm13 0-10 11-.5-1.5 3-2 .5-1.5 1.5-.5-3-1 4.5-2.5zm-63 3 5.5 2.5-1 4 2 1-4.5 2.5-2.5-1.5-.5-2.5-14.5 11.5.5 1.5-1.5-.5-.5 1.5-1.5-.5-1.5 2.5-2-1v2l-1.5-.5-1.5 2.5-7 4-1.5-.5-.5 1.5-7 5 2-3 1.5-.5 3.5-5.5 3.5-2.5 1.5-2.5 9-8 2 1 5.5-4.5.5-1.5 1.5-.5.5-1.5z"/><path fill="#c8b078" stroke="#c8b078" d="m758.5 327 1.5.5-4 3-.5 2.5v-2l-2.5 1.5.5 1.5-1.5-.5-.5 1.5-1.5-.5 1.5-2.5zm-105 1 2.5.5-6 5 1.5-2.5 1.5-.5zm87 0 1.5 1.5-6.5 8.5q-3.8-2.3 1.5-4.5l1.5-2.5 1.5-.5zm68 6 2.5.5q-3 5.1-6 3zm-259 1 1.5.5-7.5 3.5-1-2 2 1zm204 0-5 6zm-95 1-5 6zm53 2 1.5.5-3 2 2 4-3.5 1.5-1.5-2.5zm93 1 2.5.5-5 4zm-84 13-6 7zm75 0-4 5-1-1-4.5 3.5zm-87 3L693 371.5l-3 5 2.5.5 4-2 14-4 1.5 2.5-2 1 2 1-34.5 4.5q-3-1.5 0-3l4 2 4-7q14-6 23-17Zm82 3-5 6-1-1-4.5 3.5zm25 4-.5 1.5.5 2.5 1-2 1.5.5-3.5 5.5-2-3-1.5.5 3-2q-2.7-1.7 1.5-3.5Zm-101 13 2.5 1.5 2 6-2.5.5-3 1 2-3 1.5.5.5 1.5.5-2.5-2-1-.5-3.5-1.5.5zm-146 13 2.5 4.5-3.5 11.5-.5-2.5 1-3 1-8h-1l-.5 1.5-.5-1.5zm132 7 4.5 1.5-9.5 9.5-1-1q-18.1 4.4-26.5 18.5l-.5 1.5-2.5 1.5-21.5 22.5-9 2-1-2-19.5 15.5 1 2-2-1-3-5h2l4-8-1.5-.5-5 7-1.5.5 4 8q-1.7 3.3-3.5-.5l-1.5-.5-.5-1.5q-1.8 2.8-3.5-1.5l12.5-18.5 1 2 1-2 19-7 23.5-19.5-.5-1.5-21 16 1.5-2.5.5-1.5 15-13 19-9 16-3 3.5-2.5-1.5-.5-9 3 1-2zM660 425l-6 5 1-2v-2l-2 1-1 2-4 3-6 8 1 1 18-15zm-25 15-13 9 2 2 10-7 2-3zm-214.5-40 3.5 1.5-6.5 3.5v-1l3.5-1.5-2.5-.5-1.5.5zm225 13-.5 1.5-5.5 6.5-11 8-1.5-.5-.5 1.5-4 1h-2l-3 1 2-3 6-2zm-263 6v2l1.5.5-1.5.5-2-1v2l-2-1v2l-2.5-1.5zm395 10 1.5.5-3.5 5.5-1-2-1.5.5 1.5-2.5 1 2zm-164 8 1.5.5-7.5 3.5 2-3zm-115 1 1.5.5-5 4-.5 2.5-2-2-5.5 4.5 2.5-3.5 2.5-1.5.5-2.5q3 3 6-2Zm16 5 3.5 1.5-1.5.5-2-1v2l-1-1-4.5 3.5zm82 1 .5 1.5-4.5 7.5-1.5.5 1 3-2.5 3.5-1.5.5-1 3-4.5 8.5-.5-6.5 9-11h-2q1-7.9 7.5-10.5Zm-103 2-.5 1.5-8.5 9.5 7.5-8.5zm34 5 1.5.5-5 4 1 1-4.5 4.5.5-1.5 1.5-2.5 1.5-.5-1-1zm-8 1-9 10-.5-1.5 2-1 .5-2.5 1 1zm-63 4-5 6zm52 1 .5 1.5-4.5 5.5.5-1.5zm-41 3-11 12zm29 0-3.5 4.5-1.5 2.5-2.5-.5 1.5-2.5 1 1zm-62 3-2.5 3.5-1 2 .5 1.5-1-4zm20 0-5 6zm-5 1-5 6zm-88 2 19.5.5-19.5.5zm118 0-5 6-.5-1.5 2-1 .5-2.5zm-125 3 16.5.5-16.5.5zm156 3-.5 1.5-3.5 5.5-.5-1.5zm74 1 .5 2.5-2.5 6.5-.5-1.5v-2zm-217 1 2.5 1.5-13 5 2 1-6.5.5v-1l13-6 2 1zm135 1-.5 1.5-.5 1.5-1.5.5.5 1.5-1-1-5.5 4.5zm-13 2-.5 1.5-1.5 2.5-1.5.5q3.3 2.3-2.5 4.5l-2.5-.5 7-6zm-223 2-1 2-1.5.5.5 1.5-2-1-1.5.5zm238 1 1.5.5-2 1q2.7 1.8-1.5 3.5l-1.5-.5 3-2zm-168 3 2.5.5-3 1 5 1-5.5.5-.5-1.5zm242 0 .5 5.5-4.5 8.5-.5-1.5zm-100 1 1.5.5-4 3-.5 2.5q-2.1-3 3-6Zm86 2 .5 15.5-7.5 13.5-.5-8.5zm154 2 1.5 2.5-3.5 5.5-.5-2.5 1.5-2.5 1.5-.5zm-240 6 .5 1.5-4.5 5.5.5-1.5zm134 1 1 6 2.5-1.5-3.5 2.5zm-281 1q16-2.5 24.5 2.5l-2.5 3.5.5-1.5-1.5-2.5-14-1-21 2h-2l-5.5-.5 2.5-1.5zm-72 2 10 2 3-1h2l22-1h2l8.5.5-2.5 1.5-38 1-7.5-1.5zm311 0 1.5.5v5l-4.5 8.5-1.5-.5q3.8-2.5 1-5-.9-6.9 3.5-8.5Zm-395 5 5.5 6.5h-1l-.5-1.5-1.5.5zm419 0 .5 3.5-1.5 5.5-1.5-.5zm-89 1-.5 1.5-7.5 11.5-.5-1.5zm231 3 .5 1.5-3.5 7.5-.5-2.5zm-288 1 1.5.5-.5 6.5-1-6-1.5 2.5 1 3h-1l-.5-2.5-2.5 1.5-.5 2.5-1.5.5-.5 2.5-1.5.5-.5 2.5-1.5.5.5 1.5q-3.2-1.7.5-3.5l1.5-2.5 1.5-.5.5-2.5 1.5-.5-1-1zm153 1 1.5 1.5-4.5 4.5-1.5-.5.5-1.5q2.3 3.2 4.5-2.5zm13 1-9 10zm-135 1 1.5.5-4 2 1 2-2 1 .5-1.5-3 2-3.5-1.5q1.8-3.2 3.5.5l4-4zm83 1 1.5.5v7l-6.5 10.5-1.5-7.5zm-104 2 .5 4.5-1.5 3.5-2.5.5-1.5 3.5-.5-1.5q5.6-2.4 5.5-10.5Zm264 0 .5 1.5-4 6 .5 1.5-.5-2.5zm-255 2 1.5.5-1.5 9.5-.5-6.5v-2zm132 8-15 16zm-46 2 1.5.5-.5 7.5-1-3-2.5-.5 3-1zm-238 1 1.5 4.5-1 2h2l2 4-2-1-.5-1.5-2.5-1.5 1-2zm273 3-2 3-9 7 2-3z"/><path fill="#c8b078" stroke="#c8b078" d="m550.5 532 2.5.5-1 3 3 1-3 2 2.5 3.5 1.5-.5-.5 5.5-4-7-.5 1.5 1.5 4.5-1.5-.5 1-2-3-1 3-5-3-2zm-103 1 .5 1.5-5.5 9.5-.5-4.5h2l-1-4h1l.5 2.5zm28 0 2.5 1.5-1.5 2.5-1.5.5 1 3-4 3 3-5h-2l1.5-3.5 1.5.5zm-87 6-1 2-8 5-.5-1.5zm125 1 1.5 4.5-1 2 2-1 1-2-.5-1.5 2.5 4.5-9.5 10.5-3.5-1.5q.3-9.7 5.5-14.5zm57 4-.5 1.5-2.5 3.5q-1.7-2.8-3.5 1.5l-.5 1.5-1.5-.5 7-5zm-151 1-2.5 3.5-.5 4.5-3.5-1.5 3-1zm101 0 7.5 5.5-6.5 8.5-3.5-2.5 4-9zm-228 6 6 7zm399 6 1.5.5-4.5 7.5-.5-1.5zm-278 8 .5 5.5-2.5 7.5-.5-1.5zm286 2-.5 1.5-3.5 7.5-1.5-.5zm-396 9 6 7zm88 1 .5 1.5-3.5 11.5-.5-3.5 2-4-2-3zm-67 4-4 7 .5-3.5zm372 3 1.5.5-4.5 6.5.5-1.5zm-393 5 1.5 3.5-2 1 1 2h-1l-1.5-3.5-2 1-.5-1.5h2l.5-1.5 1 2 1.5-.5zm20 0 2.5 8.5h-1zm230 1 1.5 10.5-1.5.5zm-157 6 .5 2.5-5 4zm259 4 3.5 1.5-2.5.5-5 1-2.5-1.5 3.5-.5zm-240 1-7 8zm-12 6 1.5.5-11 12 2 1-1.5.5-1.5-2.5q7.6-4.7 7.5-9.5l1.5.5zm149 2 .5 1.5-2.5 7.5-.5-1.5zm102 4 2.5 8.5-2.5 3.5-1.5-.5 1.5-2.5 1.5-.5q-3.9-1.9-1.5-8.5Zm-285 4 2 1 2-1 2 3 2.5-.5.5-1.5.5 1.5-1.5 3.5-1-2-5-2-2.5-.5zm293 14 .5 1.5-2.5 4.5 1-3-2 1 1-2 1.5-.5zm-85 10 1.5.5 5 14-1.5.5zm-154 4 3.5 1.5.5 1.5 3.5 1.5-1.5.5-3.5-2.5-.5-1.5zm-53 3 2.5 10.5-1.5.5zm44 1 5.5 4.5-.5 1.5-1-2zm-19 2 4.5 2.5.5 3.5zm19 3 2 3 1.5-.5.5 1.5 1.5.5-1.5.5-3.5-2.5-.5-1.5-1.5.5zm-12 1q4.3.8 3.5 6.5l-1.5.5.5-1.5zm181 2 1.5.5 3 8-2-1zm-176 3 6.5 5.5-5.5-4.5zm196 2 1.5.5-3.5 7.5-.5-1.5zm-185 2 5 6 .5-1.5-1.5-2.5 2.5 4.5-1.5.5zm225 0-.5 1.5-3.5 6.5.5-1.5zm-204 5 4 7-5.5-5.5zm190 1 1.5 2.5-3 1 .5 1.5 2.5.5h-4l2 4h-3l1-2-1.5-.5-1 2-1.5-.5zm-159 9 7.5 5.5-1.5-.5zm71 3 1 4 2-4-.5 1.5-1.5 5.5-1.5-.5zm83 1 2.5 3.5-2.5 5.5-.5-2.5 2-4zm-2 4 .5 1.5-4.5 6.5-2.5-1.5 4-2zm-272 4 1.5 2.5-3.5 6.5.5-1.5 2-5zm264 3 4 3 1.5-.5-5 3-2 4h2l-3 1 1 2-2 1v-2l-1-2h2l-.5-1.5-1.5-.5 1.5-2.5 1 3 1.5-2.5-1.5-2.5 2.5 1.5 1-2-3-1zm-156 3-1 2-6 4 4-5zm25 2 8 9zm-123 4 1.5.5-1.5 11.5-1.5-.5 1-2-1-2zm154 1 4.5 1.5.5 1.5 2-1-1 2-1.5.5.5 1.5-1-3-2-1-2.5-.5zm-19 3 5.5 3.5.5 1.5 2.5.5-.5 2.5-4-5zm-109 2 1.5.5.5 9.5 1.5-.5-.5-1.5 1.5-.5-.5-1.5.5 2.5-2.5 4.5-2.5-.5 2-1zm115 6 7.5 6.5-1.5-.5-3.5-1.5-.5-1.5-1.5.5zm-132 5 .5 3.5-2.5 8.5-.5-2.5zm262 4-4 5-2.5-.5zm-35 1 .5 1.5-3.5 5.5 2.5-5.5zm-177 5-8 9zm-30 1-4 5-4 3 3-4zm201 1 1.5.5-.5 1.5-2.5.5 1 1-4.5 4.5-1-2 2.5-.5-1-1zm-256 1 2.5 5.5-2.5 5.5-.5-3.5 1-5zm76 2 .5 1.5-10 9 4.5-6.5 2.5-.5zm-23 1 1.5.5-9.5 8.5-.5-1.5 2-1 .5-1.5zm-49 1 .5 4.5-2.5 7.5-1.5-2.5zm215 4 9.5 5.5-1.5.5-9.5-4.5zm-147 3-8 9zm-68 2 .5 11.5h-1zm215 6 8.5 9.5-2-1-2.5-3.5-1 2-3-4 3 2zm-4 2 7 8zm32 0 1.5.5.5 1.5 2.5.5-.5 2.5zm17 5 5.5 6.5.5 3.5-2.5-1.5-.5 1.5-1.5-.5 1-2-.5-1.5 2 1 .5-1.5zm-225 1 3.5 1.5-1.5.5-2-1-4.5 3.5z"/></svg>