<svg xmlns="http://www.w3.org/2000/svg" viewBox="0 0 1024 1024"><path fill="#0b0a08" stroke="#0b0a08" d="m496.5 186 2 1 2-1h2l6 1h2l20 1 24 8 22 13q23 6.5 41 18l28.5 24.5q17.2 18.8 29 43l25.5 57.5 1-3 4.5 14.5q.6 19.4 6 34l4 38-1 2v2q.2 40.7-10.5 70.5l-1.5-.5 4-26v-11h-1l-14 57 2-1 1.5-2.5-.5 1.5-9 21 1.5.5 4-6 1.5.5-18 25 8.5 10.5 1.5.5 12 19-1 8-6 9 4.5 4.5 1-1 1.5.5 15.5 17.5 16 12-3.5-4.5-16-21 1.5-.5 30 36 28.5 25.5 6.5 7.5 4.5 3.5.5 1.5 1.5.5.5 1.5 20.5 18.5 3.5 4.5 4.5 3.5 1.5 2.5 8.5 7.5 10 11-1.5.5-1-2-1.5-.5-.5-1.5-15.5-13.5-.5-1.5-1.5-.5-2.5-3.5-17-15 8.5 9.5.5 1.5 1.5.5 41.5 43.5 4.5 3.5 21 27-1.5.5-19-22-.5 3.5 5 3-1 8 3.5 4.5 2-3 3.5 1.5 3 23q-1.6 13.9-9.5 21.5l-9 5-10 1q-6.5 6-17.5 7.5l1.5 2.5 1.5.5-1.5.5-5-4-4 1-8-10-15-10 1.5 2.5 5 9-1.5.5-25-29-2 1-14.5-12.5-.5-1.5-7.5-5.5-.5-1.5-1.5-.5-1.5-2.5-28.5-27.5-48.5-61.5-6.5-2.5 3.5-.5 1.5.5-7.5-10.5-1.5-.5-2-3 2.5-1.5 4 3-11.5-12.5-3-4 1.5-.5 4.5 2.5 12.5 14.5 1.5-.5-14-17-1.5-4.5-7 3h-2l-1.5.5-.5 2.5-1.5-.5-.5-1.5-5 1-3-5-19.5-17.5-1.5-2.5-28 18q-8.3 6.2-22 7-3.5-2 1-4l6.5-3.5-2.5-.5-13 5-2-1-23 11-.5-2.5 12-6-5.5-.5-58 14-28 1h-2l-2-1-2 1-1-2q-29.7-6.8-53-20l-79-47-.5 1.5 6 8-1.5.5-10.5-18.5 1.5-.5q20.1 17.9 46 30l-1-2-26-19-1 2-11.5-10.5-5.5-6.5-3.5-1.5Q274.5 571 261.5 541l-.5 3.5q11.3 34.2 28 63l-2-1-20.5-38.5-1.5-.5-12-28-7-40q-10.3-28.7-15.5-62.5l-1.5 17.5 1 2-1 2 4 31-2-1-3-18v-2l1-34v-2q.9-78.6 30.5-128.5l2.5.5-.5 2.5-1-2-7.5 13.5-11 32-8 34-1 20h1l9-30 3-18 8.5-17.5 1.5.5-7 19h1l21-53q6.2-17.3 17.5-29.5l-1.5 2.5-2 4 5-4 22.5-23.5 23-17 52.5-26.5-3.5-.5q-48.2 12.8-79.5 42.5l-.5 1.5-4.5 3.5-8.5 10.5-.5-2.5 8.5-11.5q27.4-27.1 68-41l78-22zm22.5 2-45 2-34 6v1l17-2 46 1 21 4 27 2 14 4h1l-17-10-20-6h-8zm-77 14-30 8v1l39-8zm37 0v1l13 1 1 2v1l-21-2-3-1-32 5h3q24-2 43 2h-49q-24 1-40 10h-2q-40 16-68 43l-25 28-3 2-5 5-16 30 1 2q14-26 34-47 20-24 48-39l4 2-9 18h-1l6-15 2-3-28 19-25 27h-1q-25 28-40 65l1 2 15-28 2-1 2-1-23 44-6 17v10l-1 3q1 31 6 59v2l18 71q10 29 26 53h3l6 9 12 11-24-40 1-3 28 46 12 7 36 14q44 13 94 20l1 3-4 1-12-2-1-1-59-13-33-11-3 1 40 18 28 6v1l-6-1-3 1 19 5h10l-16-4v-1l31 4q21 2 35-4 40-13 76-31l4 2-24 17-1 2q24-9 44-23l37-32q14-15 24-34v-2l-12 14h-1l-11 13-27 26-7 6 1-2 2-1v-1l2-1 6-7 2-1 5-6 3-2 36-40 16-24 13-47 9-52 4-2v-13l-5-27q-8-25-20-45l1-3q9 11 13 27h1l-3-14-14-36-34-45-5-4 20 34v1l-29-44q-13-16-32-24-35-16-76-26l-1-2 2-1-24-4-5 1zm58 1v1l25 8 37 18h1l-24-19-26-7zm-14 4v1q28 6 52 17h2l-34-15-12-3zm67 9 3 4 48 37 17 19 4 3-20-28-2-2-1-1q-20-21-49-32Zm-227 14-21 13-4 5 27-17zm-38 18-10 8-4 5q-5 2-1 4l3-2v-1l8-7 5-6zm311 9 33 43 3 2q-6-16-17-26zm-347 27-18 27 1 2 17-27zm392 40q9 21 15 48h1q-4-29-16-48Zm-417 24-5 10-3 16h2l7-25zm-13 13-7 18-2 28-1 3 1 17 3-34 6-27zm3 17-5 19 1 6 4-15v-2l1-2zm447 0q-2 13 2 22h1zm-460 12-3 4-6 24 1 23 9 38h1l-4-38v-39l2-10zm469 11v10l-1 61 1 2 1-1 2-17q2-32-3-55Zm-456 6-4 19 1 3-1 2 1 2-1 3 4 38 10 44 15 38 18 24h1q-39-70-44-173Zm446 25-8 47-9 34 1 1q8-10 11-25l5-37zm-451 14-1 14 6 27h1l-4-22v-2l-2-9 1-3zm3 74q2 28 15 48l2 1zm6 1 4 15h1zm21 48 7 15 3 2zm395 4-2 4 10 8h1zm-8 9-13 16-3 2-9 10-3 2 3 4q15-15 26-33zm3 3-16 22 1 2h-2l-2 1 1 2h-2l-1 2-7 6 2 9 2 1-1-10 3-1 7 19 7-5q11-7 15-22v2h2l1-5 2 1-1-1 1-3v2h2l2-5-4-4-4-5zm-366 12 3 7 2 1-4-7zm386 0-1 2 4 1 1 2 2-1zm-352 21-1 2q19 13 43 23h2zm302 5-1 5 5 15h1l-4-19zm47 1-8 13v1l11-9-2-4zm-54 4v10h2l-1-1 1-8zm15 1 1 13 3-2zm44 1-19 22q2 13 10 21l2 1-6-25 3-1 15 39 14 17h1l-8-26 2-1 9 21h3l14 27 1-2 9 16 14 13-13-28 3-2 14 24 2 2-4-4-2-1 8 17 7 6-6-16 2-1 22 45 8 11 2 1q-10-28-25-50l1-4 27 44h1l-5-15 3-1 19 28 5-3v6q-4 2 1 5v1l-4-2-15-19-2-1 9 24q5 5 16 4l17-24-4-20-8-11-1-1-27-27q-19-21-42-37l-6-4q23 21 40 49l2 2-9-11-1-1-7-8-4-4 1-1-2-1-7-8-3-3-1-1-34-33q-23-20-39-46zm-343 1q4 8 17 11h3zm222 0q-34 18-74 29l1 1q26-2 47-10l27-19zm55 1v11l4 3-3-13zm50 1-7 7 1 3 6-8zm-38 2v8l-1 2 1 4-3 1v1l6-2v-1l2-1-1-3-1 2zm-38 4-39 24v1q20-7 36-19l4-5zm-19 2-10 6-1 2q8-1 12-7zm-207 6q6 6 18 8h1zm282 7-2 3 3 3 4-3v-2l-4 1v-1zm-275 1q25 18 65 23h2l2 1 24-2v-1l-1-1h-2l-2 1q-49-6-88-21Zm339 0 10 13 37 33h1zm-307 1 6 3h2zm125 2-13 4v1l17-4zm128 0-3 3 15 25 2 1-2-8-10-19zm-6 5-4 3 5 5h1zm-203 2-6 2 14 2q15 2 26-1l-2-2-30-1zm207 1q0 13 11 20h1zm23 0 5 15h1zm-225 5-1 2h11l5 1 7-1zm218 1 2 8 2 1zm2 9 8 22 3 2q-3-14-10-23zm12 5 5 15 2 1zm-27 5 4 6h1l-2-3-1-1-1-1zm37 7q1 12 8 21l4 2 1 3 2 1-4-14zm-8 1q-1 8 4 14h1zm22 3 3 11 2 1-4-11zm-43 8v4l28 36 43 43h1l-53-64zm45 6 3 14 7 6zm12 14 7 16h1zm-8 4 11 16h1l-6-10zm-3 2q-1 5 5 8h1l-3-4-1-1zm21 9 2 6 4 3-4-7zm-2 4 5 13h1zm11 1q3 12 12 19h1q-4-12-13-19Zm-4 7q2 12 10 20l5 4q-4-16-15-24Zm21 10 6 14 7 6q-4-12-12-19zm-6 4 7 18 7 6q-4-16-14-24Zm17 18 5 15 9 7h1l-7-14-2-2-5-5zm71 0 2 9 1-2-2-6zm-2 12-14 21h2l12-14zm-46 1 4 15 3 1h1zm58 0-4 15-6 11-9 10 11-5q6-6 8-16zm-72 9 1 5-1 3 7 9 6 4h5l4 2h5l-6-3 1-2-6-10-2 1 1 5h-1l-4-6zm25 12 1 6 7 2 5-4zm30 2-9 6-1 2q8-1 11-7zm-36 12 2 5q2 5 12 4v-1l4-1 1-2-8 1-6-1-1-1 2-1v-1z"/><path fill="#0b0a08" stroke="#0b0a08" d="m457.5 233 24.5 3.5-5.5.5-18-2-5 1h-2q-36.1 2.4-59.5 17.5l2.5.5q21.7-12.3 54-14l6 1 33-4 35 4 30 9q25 11 45 27L586 264.5l-2-5 1.5-.5 32 34 3.5 2.5 7.5 9.5 1.5-.5-7-13h1l26 47 17 41 3 24v2l-5 57 1 3-1 7v2l-1 10 1 2q-1 19.5-10 31L620.5 562l-7.5 6.5-14.5 16.5-1.5.5-.5 1.5-1.5.5-.5 1.5q-25.9 26.1-63 41h-2l-1.5-.5 4.5-2.5 1.5.5.5-1.5q35.8-15.2 60.5-41.5l-1.5-.5-25 18-43 18-5-1-31.5 6.5 27.5.5h2l10-1v1l-29 3-19-2-2 1-46-5-29-7v1q21.8 11.2 51 15l8-1v1l-17 1Q372 615.5 324 572.5l-1.5-2.5-3.5-2.5-16-26-17-51 1-2h-2l-1-5h1l1.5 2.5.5-2.5-5-36-3-9v-2l-.5-7.5-2 10-1.5-.5 1-15 9-45 10-25 2-12 6-14 28.5-32.5 45-35 22-13 32-11zm39.5 8v1q28 2 50 11 24 10 44 25v2l23 17 3 3-2-4-16-15-45-28q-24-11-57-12Zm-60 1-17 4v1l21-4zm34 2-19 3-3 4-5 4 4 1 39 3 3-1 51 6q24 5 42 16h1q-40-31-106-36l-3 1h-2zm-36 5-18 6v1q13 0 21-6zm10 1-11 5h8v-1l3-2zm-15 7-10 4-20 15h3l-17 15 1 1 24-18 1-2 12-9 1 1-42 33-46 58h2v-1l2-1 20-25q27-30 59-55v-1l17-13v-1zm10 1-44 37-1 2h-1l-17 18h-1l-1 2-3 2-1 2h-1l-17 20-4 5 48-44 23-16 2 1-5 7-5 4 7-8v-2q-23 13-40 32l1 1 28-18 4-4 1 1q30-20 71-29l1 3-8 7-1-1 2-1v-1l4-3v-2q-41 10-72 30l-20 24-4 3 16-20 2-3-28 18q-28 25-47 60h-1l26-39 8-9-6 4q-31 27-51 65l-7 4q0 44 13 77v-1h1l-1 2v5l6 18 18 42-1 2h3l-1 2 14 10 4 5-17-12-1 2 24 19-6-6 1-2 17 16 24 9q29 7 65 8h2l3 1q11 0 16-6l2-1-10 7v1l19-6 20-24 11-10 1-2 2-1 9-9-1-1 52-43 11-13 3-1v-1l3-2 18-18 7-23h1l-5 18 1 2 4-2 1 1-2 5h-1q-10 8-13 23l-2 1 2-6v-3l-19 18-7 9-1-1-39 50 1 1 28-22 2-3 3-2 1-2 4-3v-1l2-1q14-13 22-32h1l-2 4 1 2q19-23 30-54l-1-1-6 11-2 1 10-18 3-2-5 17-20 39 1 2 22-34 1 1-10 18 1 3-12 18v1l9-5 3-3 9-21 5-23 2-20-1-39-10-54q-11-24-28-41l-21-21-3-1 2 3-1 3-2-4q-19-13-44-19l-30-5-39-3-3 1-11-1h-2zm-26 2-6 2-6 9 1 1 15-11zm-16 5q-19 7-31 20l1 1q17-7 30-19zm4 0-44 39q-22 20-37 47h2l16-19 48-45 4-5 4-3 8-13zm-28 20-10 5-21 26 1 1 10-11 4-3v-1l17-16zm-36 8-29 31-10 20 1 2 15-22 4-3 20-27zm5 2-14 16 1 1 3-2 10-13zm12 1-8 6q-19 17-30 42l1 1 38-48zm21 4-4 3-1 2-19 17-17 19-3 4 44-43zm253 9 2 6 3 2zm-269 11-27 26-28 32-7 29h2l13-22 47-63zm283 10v7l8 16 9 28 6 33h1q2-20-2-32zm-312 2-18 25h-1l-2 3h2l19-26zm-11 1-15 26 1 1 14-25zm-10 1-16 30 1 3 15-31zm9 23-8 4v2l-4 7 1 2 7-9 2-1 3-4zm328 5 7 44-1 35 1 2-2 8 1 2-6 27 1 2 6-19q3-19 3-42l2 9v-5h1v22l-8 40 1 3 6-18 3-20-1-10 1-8-1-5v-2l1-2q-3-37-15-63Zm-342 5-1 2-2 1q-5 4-5 14h2l7-16zm-12 1-5 12h2l3-8zm8 17-3 8 1 2 2-7zm-5 7-4 17 1 10 3-11zm-10 8-5 14q-2 10 2 16l3-24zm10 17-4 8 2 34 10 47q9 27 26 46h1l-21-56-1-1v-1q-10-30-13-66l1-2zm-6 28 1 29 7 23h1q-6-20-7-44v-2l-1-5zm373 28q-4 32-19 53l1 1q15-15 18-41zm-35 1-6 7 1 1 6-7zm-8 6-15 16h-1l-11 14 1 2 16-15v-1l2-1v-1l5-4 4-9zm-331 3q2 33 19 54l2 1q-14-25-21-55Zm361 1q-16 37-35 70h-1l11-22v-2l-29 37-2 1-1 2-23 20-1 2 39-27 22-25-1-2 3-2-1-1 2-1 8-16 10-33zm-17 7-12 17 1 1 12-17zm-14 13-27 34-14 14 10-11v-2q-17 19-38 32l-8 10-2 3 34-28 3-1 12-11 9-10 6-5 15-22zm-27 5-31 26-3 4 28-20 6-8zm39 1-11 7-28 34 1 1 8-7v-1l2-1q16-13 28-31zm-48 12-49 37-1 2h-1l-2 3-3 2-4 5h-1l-1 2h-1l-21 25v1l44-24 40-51zm42 0-8 10-29 26-18 23v1l20-14q20-19 35-44zm-322 9q5 22 20 38 14 15 33 25h1l-9-8-13-12zm287 14-49 41 1 2-7 1-19 15v1l28-10 26-22q13-11 21-27zm-21 30-15 13-3 4 8-3 11-13zm-28 2-33 19-2 3-2 1-2-1v2l-5 3-3-1-23 8-1-2-50-4-27-6-2 1 25 10q20 5 45 6l2-1 14 2 2-1h2l4 1 4-1 2 1 6-1 2 1 27-4 13-13v-2l-28 11-1-2 24-18 7-10zm34 4-13 9h-2l-16 7-12 13q27-9 44-28zm-219 6-1 2 23 15h1q-9-11-23-17Zm19 9 14 12 24 8h2zm62 19 5 3 24 4h14l20-3q-35 1-63-4Z"/><path fill="#0b0a08" stroke="#0b0a08" d="m523.5 284 .5 1.5-18.5 6.5v-3l3 1v-2zm-91 27 .5 1.5-6 5-2.5 3.5-6 4 3-4 1.5-.5.5-1.5zm-16 14-5 6-5 4 1.5-2.5.5-1.5zm-39 16-.5 1.5-3.5 5.5-.5-1.5zm20 0-8 9-.5-1.5zm-26 8-.5 1.5-6.5 10.5-1.5.5-26 44h1l24.5-30.5 1.5-.5 8.5-9.5-3.5 4.5q-25.4 24.6-43.5 56.5l-2.5-.5.5-1.5 1.5.5 2-3-2-1 36-58zm91 3 1.5.5 1 13 1.5 1.5 2-11 2.5.5-1 15 2.5.5q21.5 1 38 7l8-15 1 4 1.5-.5 3.5-6.5 2.5 1.5-8 20 18.5 14.5 5 1 22-17 .5 2.5-5 6 3 1-2.5 5.5-1.5.5-7 9 8.5 6.5h5l13-5 2 3 5-2 .5 2.5-15 13q2.7 13.9 13 20l-1.5.5-7-5-1.5.5-1.5-2.5-4-2-.5 1.5 2 4-5 3-2 4 2.5-1.5 3-1 .5 1.5q-13.3 15.2-31 26l2 1 3.5 7.5 1-2 .5 2.5v2l-1.5 3.5-4.5-2.5-1.5-3.5-1 3-5-6q-26.7 13.8-66 15l-35-7-.5 4.5q22.4 9.6 55.5 8.5l4-1v1q-7.9 3.6-21 2-22.4-1.6-40-8l-3 8-3.5-4.5 2-5q-14.6-4.9-24.5-14.5h-3l-13 12-1.5-3.5 10-14-19-15 2.5-.5 3 2h2l1.5-.5-9.5-7.5-4 5-3.5-2.5 5-8-1-3 13-19-2.5 1.5-11.5 10.5-2.5 5.5-1.5-3.5 15.5-17.5 1.5-.5-12.5-14.5-5.5-4.5 2.5-.5 5 3-.5-1.5-1-5 1.5-.5 10 12 8 5q11.7-13.3 28.5-21.5l-10-18v-5l1.5-.5 3 6 1-6 1.5.5 9.5 18.5 39.5-13.5-2-19zm9.5 23-2 5 5 1h2l2-1 29 5 1-3q-11-5-26-6h-2zm-13 1-33 13 2 3 24-9 12-2v-4zm14 7-2 3h21l-9-2h-2zm-16 2-10 3v1l18-2v-1zm61 1-2 4 12 4h2zm-100 7-14 9-1 2 17-7-1-3zm69 1-10 2h-2l-20 2-33 14q-24 13-41 32h-2l9-12v-2q-9 6-13 17l21 14h2l-9-8 2-3q23 23 63 29l34-1 21-5 22-8 3-1 5-3 16-17 6-5q-27-33-74-45Zm69 0-9 8 3 1 7-8zm-27 2-1 2 8 4v-1zm-87 2-19 9-1 2 23-10zm107 11 6 5h1zm22 4-6 1h-2l-1 2 3 1 9-3zm-17 13 12 12h1l-1-3q-4-7-12-9Zm8 13-6 9 1 1 7-8zm-161 26-1 2 7 3h2zm126 4q-18 8-39 11l-26 1-1 2 15 2 22-2 22-8 8-5zm-112 4q7 7 22 8h2l11 3h3zm-14 1q8 10 24 15l2-4q-15-4-26-11Zm49 12q0 3 7 2h2l10 2q9 2 13-1zM335.5 385 319 402.5l-2.5 6.5-.5-1.5.5-1.5-3.5 2.5-5.5 8.5-.5-1.5 20.5-29.5-.5 1.5-6 10 7.5-6.5z"/><path fill="#0b0a08" stroke="#0b0a08" d="m469.5 408 14 2 3.5 2.5 1 4-2.5.5-4-1-3.5 2.5-2 10 4.5 5.5 7 2 4.5-3.5 2.5-8.5 5.5 3.5 3 8v2q-.4 15.6-10.5 21.5l-14 7h-8q-15.2-1.7-21.5-12.5-6.3-6.7-5-21 3.3-12.2 12.5-18.5zM451 434l-2 6v2l3 10 3 2q-5-7-4-20Zm48 3-3 11 1 1 3-8zm-147.5-27 .5 1.5-10.5 15.5-.5-1.5zm285 0 .5 14.5-1.5.5.5-1.5zm-2 1-.5 1.5-3.5 5.5.5-1.5zm-9 15-.5 1.5-6.5 10.5.5-1.5zm-303 1 2.5.5-6.5 12.5-2 1-.5-1.5 3.5-6.5 1.5-.5.5-2.5 1.5-.5zm294 9 .5 4.5-2.5 6.5-3.5.5zm17 1 .5 4.5-3.5 10.5-.5-3.5zm-300 2 .5 1.5-8.5 14.5-.5-1.5zm276 11-.5 1.5-5.5 7.5 1.5-2.5zm-286 7 .5 1.5-3.5 6.5-.5-1.5zm235 2 1 2 6.5 5.5 2 8-1.5.5-10.5-7.5 3-1-1.5-2.5-14 8v-1zm41 5-2.5 3.5-2.5 3.5 1.5-2.5zm-9 11 .5 1.5-5.5 6.5 1.5-2.5zm-7 9 .5 1.5-12.5 14.5-.5-1.5zm-351 9 1.5.5q4.8 28.7 16 51h-1Q236.5 522 232.5 493Zm336 9-3 5 2-1-1 2-5.5 3.5-.5 1.5-1.5.5-30.5 31.5q-21.9 21.1-49.5 36.5l1.5.5q29.3-10.7 53-27l-2 3-44 23-25 8-9 1v-1l13-3 23-12q28.7-19.3 52.5-43.5l1.5-2.5 2.5-1.5 2.5-3.5 1.5-.5 7-8-.5-1.5zm-262 121 7 8 22.5 17.5-1.5-.5-21.5-15.5-.5-1.5-1.5-.5zm41 34 45.5 17.5-1.5.5-35-12zm47 18 29.5 4.5-.5 1.5-25-4zm432 122 1.5 11.5-1.5 3.5z"/><path fill="#f9f8ef" stroke="#f9f8ef" d="M.5 0 1024 .5l-.5 1023.5L0 1023.5.5 310l2.5-1.5-3-1zM487 186l-43 6-77 22q-37 12-62 36-11 6-15 20h2l5-7q31-36 84-50l1 1-52 27-20 16-1 2-7 6-4 5h-1l-9 10 1-2v-3q-12 12-18 30l-13 33-4 1-6 10-5 24-9 29h-1q6-56 28-96l1 2 1-3-2-2-9 12-15 44-6 30-2 20 1 2-1 8 1 3-3 19q-1 21 2 38v2l1 3v2l3 5h1l-4-27 1-26q4 32 14 59 2 28 10 51l5 13 9 12 21 38h1q-17-30-29-65l1-2q11 27 28 50l7 4 6 9 10 8 2-3 21 17 1 2-42-28h-2q4 13 12 23 13 14 30 24v-2l-16-12-2-2-1-1-15-18v-2l79 47q20 13 49 18v1h-11l-24-5q-26-6-45-17l-3 1 9 5 26 10 36 8 18 1 35-2 36-10 21-3h1l-9 4-2 3 1 1 10-2 12-8h6l9-4 1 1-6 5 2 2 21-7 28-19 4 6h2l6 8 8 5 6 7 3-1 3 1v-1l10-5 15 20v1l-8-8-8-8-3 1 5 7 6 4 7 8-7-6-3 1 10 13v1l-3-1-1 3 8 2q24 37 54 69l5 3 2 4 5 3 6 8 29 24 3 1 22 27 3 1h2l-3-6-4-6 17 12v2h2l1 5 8 1 4 3 1 1-2-4h2l14-7q11 0 18-5 9-6 11-20l-1-20-1-1-2-8-4 3-4-4 1-7 2-1 13 16h1l-2-5-20-24-2-2-4-4-2-2-3-3-2-2-1-1-33-35 19 17 4 6 12 10h1l-3-4-1-1-13-14-2-2-4-4-15-14-2-2-2-2-6-6-28-27-3-3-8-7-36-42-2 1 12 18 6 6-21-17-6-6-3-2 1-2-7-3 6-12-1-4 2-3-5-9-17-20 4-7 2-1 12-17v-5l-5 8h-1l8-21h-2l12-47 1 1-5 29 2 3q14-36 12-87v-2l-9-57-5-18-1 2-27-58-21-33-1-1-1-1-1-1-3-4-6-6-2-2-9-8-1-1-15-11-35-15-32-17q-24-9-60-6ZM233 492l-1 5 8 30 11 21h1q-13-23-17-54zm696 192-8 2 1 1q7 2 8-2zM739 916l-4 1-2 3h3l3-1 1-2z"/><path fill="#f9f8ef" stroke="#f9f8ef" d="M495.5 189q42.3-1.8 66.5 14.5l-2.5.5-18-4-19-1-33-5h-2l-9 1-3-1-2 1-3-1-6 1-2-1-17 2v-1zm-50 13 4.5.5-35.5 7.5v-1zm47 1 9 1 3-1 14.5 2.5-2 1 2.5 3.5q37.2 8.8 69 23 21 8 35.5 22.5 20.6 26.9 36.5 58.5l.5-2.5-17-32 .5-1.5-1.5-.5-4-6 3 2 33 44 16 45h-1l-9-20-3.5-3.5-1.5.5 21 50 5 34-1.5 3.5-2.5.5-16 80q-4.6 23.4-17.5 38.5l-1.5.5-52.5 59.5-7.5 6.5.5 1.5 27.5-25.5 29.5-33.5-.5 1.5q-11.5 24-30.5 40.5l-32 27q-18 12.5-40 21l1-2 22.5-16.5-1.5-2.5-62 26-38 10-47-4-26-6-40.5-18.5 1.5-.5q38.6 14.9 85.5 21.5l-3 1 .5 1.5 23 2 1.5-2.5-3.5-2.5q-47.8-6.7-90-19-29.3-7.7-50.5-23.5L302.5 565l-.5 2.5 25 40-1.5.5-16-19-2 1q-21.8-32.7-33.5-75.5-12.9-43.6-17-96v-2l1-28 5-14 24-46-1.5-.5q-11.1 9.4-16 25l-.5-1.5q23.4-52.1 64.5-86.5l25-17-1.5 2.5-7 16 4-3 9-17-4.5-2.5q-23.2 12.3-40.5 30.5-24.4 24.6-42.5 55.5l.5-1.5 19.5-34.5 7.5-6.5 24.5-26.5q25.5-23.5 60-38l2 1v-2h2l28-9 53-2 13 1-1-2-17-2-2 1-10-1h-2l-7 1h-2l-5.5-.5q14.2-4.8 34.5-3.5l19 2 .5-2.5zM451 233q-30 2-51 13l-28 17-37 29-13 14h-1l-19 23-15 46-3 4 1 3-9 39-2 17 3 1v-1l2-1 2 7 5 34v6l-3-8-2-1 19 61q9 22 25 39 50 43 127 59l13-2-11-1h-2q-25-3-42-12v-1q44 12 101 11h2l18-4 2 1-4 2q-3 2 0 3 35-12 59-35l37-38 29-38q12-13 11-38v-2l5-63q3-26-4-41l-23-52-19-33-2 1 6 11 1 1-20-21-1-1-12-13-2-2-8-9-2 1 2 7 7 5v2l2 1v1q-18-15-40-25l-34-10-11-1h-2l-7-1h-2l-3-1-2 1-6-1h-2q-15-5-35-4Zm91.5-29 34 8 21.5 16.5-1.5-.5q-24.4-14.1-54-23z"/><path fill="#f9f8ef" stroke="#f9f8ef" d="m527.5 208 16 3 28.5 11.5-1.5.5-32-12-11-2zm63 9q32.5 12.5 53.5 36.5l17 23-4-3-11.5-12.5-2.5-1.5-.5-1.5zm-236 18-1 2-6 4 2-3zm96 1 19 1h2l4.5.5-25.5 3.5q-1.5-3.5-8-2-24 3.5-43 12v-1q21.3-11.2 51-14Zm16 9 2 1 6-1h2l5 1 4-1 50 10q23.3 7.7 41.5 20.5l-1.5.5q-23.2-12.8-56-16h-2l-72.5-5.5 6.5-7.5zm68 3 11.5 3.5-2.5.5zm-212 2 .5 1.5-13.5 12.5.5-1.5 6.5-7.5zm109 0 3.5.5-15.5 4.5v-1zm11 1 1.5.5-4.5 3.5h-2l-2.5-.5zm105 1q21.9 7.1 37.5 20.5l-1.5.5q-15.2-11.8-35-19zm-121 6 9.5.5-32 26-.5 1.5-2.5 1.5-.5 1.5-14.5 12.5-1.5 2.5-6.5 5.5-.5 1.5-1.5.5-.5 1.5-4.5 3.5-33.5 38.5 2.5-3.5 33-44 11.5-11.5 2.5-1.5.5-1.5 38.5-29.5-3.5-.5-11.5 8.5-2.5 3.5-21 16 8-9 11.5-9.5 1.5-2.5z"/><path fill="#f9f8ef" stroke="#f9f8ef" d="m440.5 258 9 1h2l14 1h2l14 1h2l25 1 9 2h2l10 2h2q34 4.5 56.5 20.5l.5 3.5 2.5-.5.5-1.5 3 2 1.5-.5-1 2 1.5.5 1-1 4 4 1.5.5.5 1.5 1.5.5q20 20 34 46l10 47 3 34-1 5v2q.3 46.3-17.5 74.5l-10 6 2.5-3.5 10-17-1-2 10-18q-2-3.5-4 1L623.5 501l-.5-1.5q16.3-23.7 24-56l-2 1-13 23 1.5.5 7-11-.5 1.5q-10.2 29.3-28.5 50.5l.5-1.5 8-20 12-16-1.5-.5-5 3 .5-1.5 12-51v-2l-1.5-13.5-1 4-2.5 1.5-14.5 24.5-1-4-2.5 9.5-14 20 5-4 7.5-11.5.5 1.5-4 17h1l4-20 20.5-32.5.5 1.5v2l-2 13 1 2-14.5 47.5-20 19 .5-1.5q6.9-12.1 9-29h-1q-4.5 20.5-13.5 36.5l-3.5 2.5-4.5 5.5-19.5 15.5-.5 1.5-15.5 12.5-.5 1.5q-30.5 24-70 39l1-2q23.1-11.4 40.5-28.5l.5-1.5 9.5-7.5 2.5-3.5 13.5-12.5 2.5-3.5 3.5-2.5 9.5-10.5 5.5-3.5-1.5-.5-2.5 1.5 19-23-5 4-20.5 23.5-11.5 7.5 1.5.5 4-3-2.5 3.5-18.5 19.5-42 34-25 13q-10.1-1.1-13.5 4.5l3.5.5q45.2-10.3 77-34L506 584.5l-.5 1.5-1.5.5-10.5 14.5-17 6 3-4 12.5-8.5-1.5-.5-18 12h-16l-2-1h-2q-38.3-1.2-68-11-18.9-5.6-28.5-20.5l-4.5-5.5-14.5-10.5-26-67 5-15-1.5-.5-4 11q-12-32-11.5-76.5l6-3q15.3-28.7 36.5-51.5l1.5-.5 2.5-3.5 13-11v1l-1.5.5-17 22-33 53 1.5.5 7-10-.5 1.5-2 10 2 1 4-16 15.5-16.5 1.5-.5 1-2-1.5-.5-13.5 12.5q15.4-28.6 35.5-52.5l1.5-.5 14.5-16.5 29-19-4.5 5.5-13 18 4-3 19.5-24.5q32.1-19.9 73-31l-9 10-11.5 8.5.5 1.5 24.5-20.5q-1.7-3.2-8.5-1.5-36.5 10.5-65 29l2.5-3.5 7-10-2.5-.5q-23 12-39.5 30.5l-2.5 3.5-25 22 4.5-5.5 44.5-46.5zm81.5 26-17 5v2l-2 1h-2l2-1v-1l-6 2 3 1-6 2-1 2 32-11zm-27 8-6 2v1l8-2zm-9 6-8 4v1l10-4zm-38 3-9 6-3 4 13-9zm-15 9-45 40 1 1 26-22q2-5 4-2l8-7v-1l8-7zm-48 22-28 36-24 42-9 11-9 21 1 2 5-6 13-26 29-35 4-3 21-22-1-1q-27 23-47 52l-3 2q21-39 48-71zm17 13-15 17 1 1 14-16zm60 7q-2 12 1 21-22 4-39 13l-10-19-3 1 1 2v2l-3-5-3 1v4l10 19-27 20-13-9-4-7-4 2 1 3 1 1-6-2-1 2 9 6 9 11-4 3-13 14-1 4 3 1 5-8 2-1 2-3 4-3 2-1-12 18v2l-4 10 5 1 3-5 7 5 1 2-7-2-1 3 18 14q-8 5-9 17h4l1-2 11-10q10 9 25 15l-1 7 4 2 4-8 32 8q18 2 30-2v-2l-12 1h-2l-4 1q-25-2-44-9l2-4q18 7 42 8l37-7 21-9 1 4 4 2 1-2 1 4 5 2 2-4v-5l-2 1-4-5 15-9q1-4 3 0l-3 2 11 7h3l-2-7-7-10-19 14-2 1 21-16 9-10v-3l-4 3-1-1 5-3q4-2 0-4l1-3 12 7 2 2q-9-8-13-20l8-6 7-8v-3l-5 1-1-2-18 5-9-6 11-15-3-2 4-5q3-2-1-4l-22 18-23-15 9-20-4-2-3 6-1-1-2-2-8 15q-16-7-38-7l-1-15-1-2q-4 2-3 8l-2-9zm-80 17-7 8 1 1 6-7zm249 10 1 6h1l-1-2 2-1v-2l-2 1zm-260 4-7 9 1 1 6-8zm260 3-12 37 1 4 12-40zm-267 7q-23 28-40 62l1 1 16-28 2-1 21-32zm272 0v10h1zm-312 64-8 15 1 2 8-16zm276 6-7 9 1 1 7-9zm-9 12-6 8h2l5-7zm-44 44q-26 18-56 30v1q32-12 57-30zm-59 31-32 12 1 1 33-12zm-36 12-13 5 1 1 15-5zm-36.5-302 1.5.5-14.5 11.5 1.5-2.5 4.5-7.5zm224 1 1.5.5q17.4 14.1 28 35l-2-1zm-237 4-.5 1.5q-8.5 16-22.5 26.5L344 325.5 322.5 350l.5-1.5q21.1-34.9 51.5-60.5l10.5-8.5.5-1.5zm-6 1-1 2-11 9-16 8 5-6zm191 9 25.5 18.5 2 4-5.5-4.5z"/><path fill="#f9f8ef" stroke="#f9f8ef" d="M372.5 286 346 313.5l-2.5 3.5 1.5-2.5 16.5-22.5zm-87 3-1.5 2.5-11.5 19.5-.5-1.5zm132 0-.5 1.5-11.5 13.5-25 16 7-8zm-79 4-4.5 5.5-33.5 45.5-.5-2.5q10.8-26.2 31.5-42.5zm14 5 .5 1.5-33.5 42.5.5-1.5q10.1-24.9 29.5-40.5zm-13 1-1.5 2.5-7.5 9.5 1.5-2.5zm35 2-1.5 2.5-4.5 5.5-23.5 22.5-2.5 3.5-10 9 6.5-7.5.5-1.5 3.5-2.5.5-1.5 1.5-.5 16.5-17.5 1.5-.5.5-1.5zm-16 20 .5 1.5-45 60-14.5 22.5-.5-1.5 6-25q15.8-22.7 36.5-40.5l1.5-.5 2.5-3.5 9.5-8.5zm285 12 10.5 24.5h-1zm-335 3-.5 1.5-12.5 25.5-.5-1.5zm19 1-1.5 2.5-12.5 18.5-1.5-.5zm-72 5 .5 1.5-4.5 9.5-.5-1.5zm59 0-.5 1.5-7.5 14.5.5-1.5zm-51 7 .5 2.5-6.5 21.5-.5-2.5q1.2-12.8 6.5-21.5Z"/><path fill="#f9f8ef" stroke="#f9f8ef" d="m317.5 358 1.5.5-10.5 11.5-.5-1.5 3.5-7.5zm337 1 11.5 28.5 1 11-1 2-.5 2.5zm-404 3 .5 1.5q-7 22-8.5 49.5l-.5-10.5 3-26zm53 7 .5 3.5-5.5 10.5-.5-4.5zm345 0q10.2 23.3 12.5 54.5h-3l-1-7v-2l-.5-1.5-1 8-.5-11.5v-2zm-187 7 1.5.5-.5 4.5q-20.4 2.1-34 11-4.5-2-1-4zm10 0h13l24.5 6.5q-1.8 4.2-3.5 1.5-14.8-4.7-34.5-4.5zm-218 3 .5 8.5-3.5 10.5-.5-4.5zm218 5 13.5.5-13.5.5zm230 0 1.5 10.5h-1zm-243 1h2l3.5.5-9.5 1.5v-1zm59 1 12.5 7.5-1.5.5-11.5-4.5zm-278 6 .5 2.5-2 13 1 3-1 25 2 12-1 2 3 26h-1q-6.9-24.1-9-53zm178 1 1.5 3.5-14.5 6.5 1-2zm-123 2 .5 14.5-1.5 4.5-.5-11.5zm188 0 2 1 5-1q44.3 12.2 70.5 42.5l-.5 1.5-3.5 2.5-8.5 10.5-5.5 4.5-.5 1.5q-31.3 20.7-83 21-43.6-5.4-68-30l-1.5 3.5 7.5 8.5-21.5-14.5 6.5-9.5-.5 1.5-2 5 2.5.5q29.7-33.8 80-47l2 1 10-2 3 1zM468 408l-14 8-10 15q-2 17 6 25 6 8 19 10 15 2 22-5 8-6 12-16 3-17-6-21l-5 3 1 2-1 3q-2 5-9 3l-7-8 1-6q1-5 9-4h2l-1-5q-7-5-19-4Zm85.5-12 1.5.5-7.5 5.5 3-4zm-25 1 7.5 3.5-2.5.5zm-89 2 1.5.5-9.5 4.5v-1zm-155 4 .5 4.5-2.5 21.5-1.5-12.5zm-31 7q5.7 100.3 43.5 168.5l-5-4q-39.9-57.1-41-153zm42 8 1.5 24.5 6 31 5 16v6l-2 7q1.5 3 3 0l-1-3 1.5-3.5 20.5 54.5-6-5q-14.6-20.9-22-49l-8-42-2-25 1-3v-2zm415 0 2.5 16.5-1 2 1 3-1 4v2l-.5 14.5-1.5-9.5 1-3-1-2 1-8v-2l-1-6 1-2-1-2v-2l1-3zm-156 9 11.5 8.5-.5 2.5zm100 8 .5 16.5-2 15-3.5 9.5-.5-2.5 3-9zm6 4 .5 16.5q-1.4 17.6-7.5 30.5l-.5-2.5 6-28zm-99 1 2.5 1.5-5.5 4.5.5-1.5zm137 1 1.5 4.5-5 41-10.5 25.5-.5-1.5 7-24z"/><path fill="#f9f8ef" stroke="#f9f8ef" d="m450.5 443 3.5 8.5-2-1zm-160 3 7.5 47.5h-1q-8.2-19.6-6.5-47.5Zm236 23-1 2-29 12-27 1-6.5-1.5q37.5-1 63.5-13.5Zm-132 5 .5 1.5-5.5 4.5zm24 0 31.5 8.5-3.5.5-22-5zm209 1-3.5 4.5-1.5 2.5.5-1.5 1.5-3.5zm-224 1 22.5 9.5-1.5 2.5q-13.5-4-21-12Zm216 5 .5 1.5-2 5-17.5 17.5-6 5 .5-1.5 2-5zm42 0 .5 8.5q-3.3 22.7-16.5 35.5l.5-1.5q11.7-17.3 15.5-42.5Zm-13 7 .5 1.5-8 27-16 27 3-1-11.5 12.5-1.5.5-8.5 9.5-33 24 6-7 19.5-18.5 2.5-3.5 1.5-.5 18.5-24.5-.5 1.5-8 18 1.5.5q19.5-31 34-67Zm-358 3 15.5 39.5-2-1q-11.4-15.3-13.5-38.5Zm324 3-.5 1.5q-5.5 20.5-18.5 33.5l-1.5.5-21.5 22.5-22 17 3.5-4.5 32.5-43.5-.5 1.5-5 10 1.5.5 7.5-15.5 9.5-9.5zm16 1-1.5 2.5-6.5 9.5 1.5-2.5z"/><path fill="#f9f8ef" stroke="#f9f8ef" d="m617.5 505 1.5.5-16.5 23.5-2.5 1.5-20.5 21.5 11.5-12.5 20.5-27.5 1.5-.5zm-28 6 1.5.5-7.5 8.5-23 17 3-4zm40 0 .5 1.5-33.5 35.5-1.5.5-1.5 2.5-.5-1.5 27.5-32.5zm-377 13 14.5 41.5h-1q-10.8-17.8-13.5-41.5Zm328 0 .5 1.5-39.5 49.5-43 24 3.5-4.5 9.5-12.5 1.5-.5 14.5-15.5 1.5-.5 6.5-7.5zm42 2-1.5 2.5q-11.9 20.6-28.5 36.5l-23 17 2.5-3.5 17.5-21.5zm-319 7 6.5 10.5 33.5 39.5 10.5 8.5-1.5.5-27.5-21.5q-15.2-15.7-21.5-37.5Zm278 12 .5 1.5q-18.1 19.9-40.5 35.5l.5-1.5 6.5-8.5q18.8-11.2 33-27Z"/><path fill="#f9f8ef" stroke="#f9f8ef" d="m588.5 546 .5 1.5-12.5 18.5-32 28-26 10 1-2 17-13h2l4.5-2.5.5-2.5zm-252 14 20.5 17.5-.5 1.5zm-56 13 5.5 8.5h-1zm393 1 8.5 9.5-1.5-.5-8.5-7.5z"/><path fill="#f9f8ef" stroke="#f9f8ef" d="m540.5 577-.5 1.5-8.5 11.5-21.5 15.5-1 3 3.5.5 25-10-7.5 8.5-1.5 2.5-1.5.5-.5 1.5-18 4h-38l-43-4q-19.9-3.1-34.5-11.5l1.5-.5 29 6 40 3 5-1 1 3 25-7h2zm26 1-2.5 3.5-5.5 6.5-6 3 4-5zm6 5-4 5q-14.3 14.2-36 21l8-9q9.1-7.4 23-10z"/><path fill="#f9f8ef" stroke="#f9f8ef" d="m592.5 585-9 10q-20.8 18.2-48 30v-1l2.5-1.5-1.5-.5-3 2h-2l-9 1h-2l-26 1v-1l30-6 5 1 38-17zm76 1 7.5 5.5 8 11-1.5.5-1-3-1.5.5-3 9 1 2-2 1-.5-1.5-1.5.5 1 2-7.5 12.5-14 12-5.5-17.5-2.5-2.5-2 9-1.5-7.5 13-11-.5-1.5-1.5.5 4-2zm-311 3q12.5 4 19.5 13.5l-2.5-1.5zm304 0-1.5 2.5-19.5 23.5-1.5-3.5zm-285 8 35.5 17.5-1.5.5-21-7zm63 19 52.5 3.5q-14.1 3.4-33.5 1.5l-19-4zm-103 3 44.5 23.5-1.5.5-39-20zm349 5 2.5 4.5-9.5 8.5.5-1.5zm-46 1 3.5 14.5h-1zm52 5q14.5 24 34 43l33.5 30.5 24.5 28.5 1.5.5 15.5 19.5.5-1.5q-17.3-27.2-40-49l3.5 2.5 37.5 31.5 8.5 10.5 1.5.5.5 1.5 1.5.5 1.5 2.5 2.5 1.5.5 1.5 1.5.5 9.5 10.5 5.5 4.5 6 8 5 20-12 19-6.5 6.5-11-2-3.5-3.5-8-21 2 1q5.2 11.3 14.5 18.5l3 1 .5-1.5-2.5-3.5 1.5-.5-1.5-7.5-5 3-19-28-2.5 1.5 3 10-2-1-19-33-4.5-4.5-1.5.5 26 52-3-2q-17.1-24.9-29.5-54.5l-1.5.5 1 4h-1L743.5 721l-1.5 3.5 12 25-6.5-5.5-1.5-.5-14.5-20.5-2.5-.5q-3.8-14.7-12.5-24.5l-1.5-.5-9.5-20.5-3.5 1.5 9 24-4-3-11-14q-5.7-21.8-16.5-38.5-4.3 1.8-1.5 3.5l6 22-3-2q-6.9-6.6-8-19zM827 796l-2 2 1 9-1 2v2l1 1 2-1zM349.5 632l15.5 8.5-2.5.5q-9.9-2.3-13-9Zm219 0-1 2-25 17q-19.5 7-44 9v-1q38.1-10.4 70-27Zm56 1 1.5.5 3 11-4-3zm23 0 2.5 7.5-2 1zm26 2-1.5 2.5-3.5 4.5-.5-1.5zm-36 4 2 8 1.5-.5-4.5 3.5.5-1.5zm-40 1 1.5.5-.5 1.5-26 17-11 4v-1zm-20 3-2 3-6 3 1-2zm-200 6 9.5 3.5-1.5.5zm4 7 52 15 38.5 5.5-29.5 1.5q-36.1-6.5-61-22Zm45 0 15.5 3.5-3.5.5-10-2zm239 2 12.5 26.5h-1l-14-24zm-131 1 3.5.5-10.5 2.5v-1z"/><path fill="#f9f8ef" stroke="#f9f8ef" d="m723.5 660 4.5 3.5.5 1.5 33.5 31.5-3.5-2.5zm-271 6q20-2.5 33.5 1.5l-29.5.5zm211 1 10.5 17.5-5-4q-5.9-5-5.5-13.5Zm-198 5 13.5.5-13.5.5zm216 10 10.5 21.5-3-2-2-4 .5-1.5-1.5-.5zm11 5 5.5 10.5h-1zm11 12 8 10 1.5.5 4 13-7-6zm-8 3 4.5 9.5-2-1zm-21 10 20.5 19.5 51 61-16.5-15.5-12.5-11.5q-24.1-24.9-42.5-53.5Zm46 8 7.5 14.5-5-4q-4.3-3.6-2.5-10.5Zm11 12 7.5 13.5-2-1zm-6 5 9.5 11.5-2-1zm30 6 2 3 1.5.5 5.5 8.5 1.5-.5v2l4 9-2-1zm-5 9q8 5.5 11.5 15.5l-7-6zm-5 5 7.5 7.5 8 15-7-6zm22 11 11.5 16.5-7-6zm-7 4 2.5 1.5 12 21h-1q-9.5-9.3-13.5-22.5Zm18 18q9.5 7 13.5 19.5l-1.5-.5-6.5-4.5zm22 13 7.5 14.5-3-2zm45 0 .5 5.5-9.5 11.5-2 1 2.5-3.5zm13 0 .5 6.5-1 2 1 2q-1.7 13.8-10.5 20.5l-8 3 3-4 4.5-3.5 7-11zm-71 8 9.5 8.5 4.5 6.5.5-2.5.5-3.5 3.5 2.5 2 6-1 3 5 1-4.5.5q-13.2-.8-17.5-10.5l-2-4 1-2zm25 13 11.5 2.5-2.5 3.5q-6.5 1-8.5-2.5zm28 2 1.5.5-8.5 5.5 1-2zm-21 16 5.5.5-2.5 1.5h-2l-6 2-3.5-2.5z"/><path fill="#858376" stroke="#858376" d="m510.5 186 11.5.5-11.5.5zm-27 3 11.5.5-11.5.5zm40 10 10.5.5-10.5.5zm-41 3 2 1 4-1 2 1 5-1v1l-3.5.5.5 1.5-8-1zm1 8 2.5 1.5-12.5.5v-1zm-48 1 10.5.5-10.5.5zm120 4 6.5 2.5-3.5 1.5v-1l1.5-.5-2.5-.5-2 1v-1l1.5-.5zm19 8 7.5 3.5-.5 1.5-7.5-3.5zm19 0 5.5 6.5h-1l-.5-1.5-2 1v-1l1.5-.5zm-231 7 2.5.5-7.5 4.5-.5-1.5zm115 5 8 2 1.5-.5-.5 1.5-8.5-.5 4-1zm116 0 8.5 4.5-1.5-.5zm21 0 6.5 5.5-3.5-2.5zm16 1 8.5 7.5-1.5-.5zm-283 3 2.5.5-3 1-1.5 2.5-2.5-.5 3-1zm149 2q8.3-2.2 10.5 1.5l-3.5.5-7-1zm-66 2 2.5.5-.5 1.5-2-1-3 2-1-2 2 1zm211 3 7.5 8.5-3-2zm-25 2 6 7zm17 2 6 7zm-246 6 1.5.5-2 1 2 1-6.5 3.5 1-2 3.5-1.5-2-1zm197 2 8.5 7.5-7.5-6.5zm67 0 1.5.5 5 7-2-1zm-6 3 11 12zm-4 1 13 14-13.5-11.5zm-311 1-5 6zm243 1 2 4 1.5-.5-.5-1.5 1 4-6.5-4.5 1.5.5 1.5-.5zm13 1 5 6zm-255 1-17 18zm251 0 10 7 1.5-.5-.5 2.5zm53 0 5.5 5.5-1.5 1.5zm-56 2 2 4 1.5-.5-.5-1.5 1 3 4.5 1.5-.5 1.5 2 1h2l2.5 1.5-1.5-.5-2-1h-2l-9.5-6.5zm-176 1 2.5.5-1.5 2.5 3-2-.5 1.5-4.5 5.5-2.5-1.5 2-1 .5 1.5 1.5-3.5q-3.7-1.7-.5-3.5Zm193 1 10 11zm-206 1-.5 3.5-3.5 3.5.5-3.5zm91 3q2.1 3-3 6l-1-2 2.5-.5q-2.8-1.8 1.5-3.5Zm83 0 8.5 3.5-1.5.5zm12 0 8.5 6.5-1.5-.5-1.5-.5-.5-1.5-5.5-1.5zm19 0 1 2 4.5 2.5-.5 1.5-5.5-4.5zm45 0 6.5 4.5-2.5.5-2.5-1.5zm19 0 1 3 1.5.5 1 3h-1l-4-5zm-371 1 1.5 3.5-3.5 3.5-2-1-1.5.5 3.5-1.5 1.5-.5-3-1zm19 1 1.5.5-7 6 3.5-4.5 1.5-.5zm345 1 5 6zm-281 3-2 5-1.5-.5-.5 1.5-.5-1.5zm274 2 5.5 9.5h-1zm-356 1-.5 1.5-2.5 4.5-1.5.5-.5 2.5-1.5-1.5 4-4zm182 0 .5 1.5-5 3-2.5 3.5-2.5.5-.5 1.5-.5-1.5 4-2 3.5-4.5 1.5.5zm-96 1-14 15 10.5-11.5-.5-1.5 1.5.5.5-1.5zm217 1 9 10-4-4-1 1-1.5-.5-.5-1.5-3-2-1 2-.5-1.5 3-2zm18 0 7 8zm-218 1-4 7 .5-3.5zm26 2 1 2 2.5-1.5-5 4 1-3zm82 2 2.5 3.5-1.5.5-4-2-2.5 1.5 1.5 2.5-5-2-4 2 1-2zm122 1 5.5 9.5-1.5 1.5-5.5-5.5 4 2zm-285 2-3 6-2.5-.5zm45 0-6.5 7.5-2.5 3.5 1.5-2.5 2.5-4.5 1.5-.5.5-1.5zm32 1v7l-3-2-4.5 3.5 6-5q-2.7-1.7 1.5-3.5Zm-72 1 .5 1.5-4 3-.5 2.5-1.5-1.5zm326 0v2l1.5.5 3 6h-1l-5-7zm-338 1-8 9zm323 0 2.5 4.5h-2l1.5 2.5 2.5 1.5 3 9h-1l-8-14h2zm-271 1-7 8zm11 0-16 17zm212 1 7 8zm-235 2-8 9zm252 1 9.5 11.5-1.5.5zm-294 1-11 12zm18 0-9 10zm37 2-5 6zm-14 1-1.5 4.5-22.5 22.5-1-2 1 1 17.5-17.5-.5-1.5 2.5-.5-1-1zm23 0-4 7-1.5-1.5zm10 0v2l2 1 2.5-1.5q-1.7 4.3-3.5 1.5l-2.5-1.5zm-82 1-6 7zm33 0-7 8 1-4 1 1zm85 1 1 2-1.5-.5-1.5 2.5-2.5 1.5 1.5.5 7-4-2 3-8 4-2.5-.5 3-4-6 5 .5 1.5-3.5.5 8.5-8.5 1 1zm-82 6-12 13zm27 2-1 6h-2l-1.5.5-.5 2.5.5-3.5 2-3-.5-1.5zm-41 2 .5 1.5-2 1-6 9h2l-4.5 2.5-1.5-.5zm34 3-1 4-1-1-8.5 7.5zm46 0 1.5 1.5-9 9-6.5 8.5v-3l1.5-.5 5-6q-4.2-2.3.5-4.5l1.5.5 2.5-3.5v2l3.5-2.5zm-71 2-5 6zm290 0 4.5 7.5-2-1zm39 2 4.5 8.5-1.5.5-1.5-3.5zm-326 1-8 9zm-83 1-.5 1.5-3.5 7.5-.5-1.5zm52 0 1.5.5-4.5 6.5-.5-1.5zm42 0-5 6zm23 0q2.1 3.2-3.5 6.5l-1.5 2.5-2.5 1.5-.5 2.5q-2-2.5 2-5l1.5-.5 1.5-3.5 1.5-.5q-2.8-1.7 1.5-3.5Zm-113 2q3.3 1.8-.5 3.5l-2.5 4.5.5-1.5 3-5zm85 0-5 6z"/><path fill="#858376" stroke="#858376" d="M410.5 329q2 2.5-2 5l-2.5.5-3.5 4.5-2.5.5-7.5 8.5 3-6 2.5-.5 5.5-6.5 1.5.5 2.5-3.5 2.5-.5zm-56 2-2 3-3.5.5zm15 0-8 9h-2l-1.5-.5 5.5-7.5-3 5 2 1zm-31 1-5 6zm4 0-.5 3.5-9.5 9.5-3 2 2-3 4.5-3.5q-3.2-2.2 2.5-4.5l2.5-.5q-2.8-1.8 1.5-3.5Zm-12 1-1.5 2.5-.5 1.5-1.5.5-.5 2.5 1.5-4.5.5-1.5zm26 3-.5 5.5-9.5 9.5.5-3.5 4.5-5.5 2.5-1.5q-3.2-2.2 2.5-4.5Zm320 3 4.5 3.5-.5 1.5-3-4-.5 2.5 2 3-2-1zm-273 3 .5 1.5-4.5 5.5-3.5 2.5 1 1-4.5 4.5-1.5.5-3.5 5.5-.5-1.5 3-2 4.5-6.5 1.5-.5-1-1 7-7zm-71 4-11 12zm8 1 4.5.5-4 3-.5-2.5-2.5 1.5zm-1 4 1 2-2.5.5.5 1.5-3.5-1.5zm-5 4 2.5.5-4.5 6.5-2.5-1.5 4-2-1-2zm32 0q3.3 1.8-.5 3.5l-4.5 6.5-1-2 2.5-.5-.5-1.5-1.5.5 3-2-.5 1.5 1.5-.5 1-3zm104 7 1.5 10.5-2-1zm-166 2 .5 1.5-.5 1.5 1.5.5-1.5 3.5-1-4-1.5.5zm69 0 1.5.5-6 5zm-14 1 1 2-2.5.5 1 2h-3zm24 2-1.5 2.5-2.5 3.5-1.5.5-.5 2.5-1.5.5-.5 1.5-.5-1.5 3-2-1-1zm-35 6-.5 1.5-1.5 2.5-6 4 1-2 5.5-3.5zm123 2 7.5.5-8 1 .5 3.5 3.5.5-3.5.5-1.5-4.5zm159 4 1 2 2.5-1.5-.5 2.5-1.5.5 2 3-1.5-.5-1.5-.5zm-302 3 2.5.5-3 1 1 2-2 1 .5 1.5-.5-2.5zm-41 1 1.5.5-2.5 6.5-1.5-.5 2-4zm48 1 1.5.5-2 1 .5 1.5-1-1-5.5 4.5zm150 0 2 1 2-1 2.5 1.5-5.5.5h-2l-13.5-.5zm-133 2 2.5.5-6 3zm278 0 1.5.5-2.5 7.5-1.5-.5zm-264 2q2.1 2.8-2.5 5.5l-.5 1.5-.5-1.5 1.5-2.5 1.5-.5zm303 1 .5 13.5h-1zm-138 1 6 7zm-236 2 .5 15.5h-1l-1-14zm340 1 1.5 9.5h-1zm18 5 2.5 10.5-1 12h1l.5-7.5 1.5 2.5-1 4 1.5 4.5 2.5-.5.5-1.5.5 2.5-1 2v2l1 5-2 1 1-4-1.5-6.5-1 6-2-9-1 27-1.5-14.5 1-3zm-250 4 .5 1.5-4 3 .5 1.5-3.5.5zm-89 3 3.5 2.5-1.5-.5-1.5.5 2 3-2-1-.5-1.5-3.5.5zm78 2-4 5-3.5-2.5 2.5 1.5zm-93 1 2.5.5-3 1-.5 13.5-.5-13.5zm-58 1 1.5 11.5-1.5.5.5-1.5zm309 0 1 3 4.5 1.5-1.5.5-4.5-2.5zm101 0 .5 13.5h-1zm-413 2 .5 24.5h-1zm347 0-7 8zm-171 1 1.5.5-12.5 8.5-.5-1.5zm157 5 .5 1.5-4.5 3.5-1-2 2 1 1-3 1.5.5zm130 7 .5 3.5-4 2-.5 2.5-.5-2.5 1.5-2.5 2.5-.5zm14 0 .5 10.5h-1zm-437 5 .5 4.5v2l1 2-1.5-.5-1.5-.5zm91 0-4.5 5.5-1 4 .5 1.5-1.5-3.5zm191 0 5 6zm-173 1 .5 1.5-7.5 6.5zm230 2 .5 1.5q-3 2 2 4l-2 2-1.5 2.5.5-1.5-1-6zm-225 1-7 8zm58 1 .5 8.5-2-1v-2zm-116 2 .5 2.5-.5 1.5-1.5-.5-2 4 .5 1.5-1.5-2.5 3.5-4.5 1.5-.5zm361 1 .5 5.5-1.5 5.5-.5-4.5zm-127 2 1 2 1.5-.5-5.5 3.5 1-2 2.5-.5zm147 0 .5 15.5h-1zm-488 1 .5 22.5h-1zm331 4 1.5 1.5-4.5 4.5-1.5-.5 2-1 1.5-2.5 1.5-.5zm154 1 .5 10.5h-1zm-464 1 1.5 4.5-1 3 1 3-1.5 3.5-.5-4.5v-2zm363 0 3.5 1.5-.5 2.5-1.5-.5-.5-1.5-4 3 2-3 1.5-.5zm-44 2-7.5 8.5v2l-.5 2.5-.5-2.5 2.5-6.5 1 1zm-175 2 5 6zm318 1 1.5 13.5-2 1 1-2zm-15 3 .5 4.5-1.5 5.5-.5-4.5zm-245 1 5 6zm154 1 1.5 1.5-4.5 4.5-.5-1.5 3-2zm-210 1 5.5 4.5-1.5.5-3.5-1.5zm161 2-.5 3.5-3.5 3.5zm-167 9 3.5 3.5-5.5 5.5 4.5-5.5zm237 3 1 2 2-1v1l-1.5.5 2 1 1 2-3 1 .5 1.5-4.5-.5 3-1 1-3-2-2zm38 0 .5 1.5-1.5 13.5-1.5-5.5zm-382 3 2.5 4.5v2l1 2-2 1zm-28 3 .5 2.5v2l1 5h-1l-2-8zm143 0-5 6zm223 1v2l1.5.5-.5 1.5-1-1-14 14-2.5-.5zm-158 3 14.5.5-14.5 1.5zm-6 6 8.5.5-4.5 1.5-3-1zm12 1 5 1 2-1 3 1 4-1v1l-13 1zm110 3q4 2.5-2 5l-3.5.5zm37 2v3l-1-1-13.5 12.5 10-10-.5-1.5 2.5-.5-.5-1.5zm-44 6 .5 1.5-3 2 .5 2.5 2-1-3 4 .5-1.5-.5-1.5q-1.7 3.8-3.5.5zm42 1 1 2 1.5-.5-2.5 4.5-1-2 1.5.5zm10 0 1 2-1.5.5q5.8 2.8.5 5.5l-1.5-.5 2-1q-3.8-2.5-1-5zm-23 5-8 11 1.5-4.5 2.5-5.5-.5 1.5.5 1.5zm11 1 2 2 4.5-1.5-6 3zm9 4 1.5.5-6.5 8.5-.5-1.5zm-65 4 2.5.5-2 1-3.5 4.5-.5-2.5 1.5-2.5zm28 0-.5 3.5-3.5 3.5zm37 3-7 8zm-44 3-4 7q-2.2-3.5 4-7Zm48 1 1.5 2.5-1.5 2.5-1.5.5-.5 2.5-4.5 1.5 6-7-21 19zm-38 3 1 2-1.5.5v2l-1.5 2.5-1.5-.5 2-1-.5-1.5 1.5-.5v-2zm-37 1-12 13 5-8q1.8 2.8 3.5-1.5l.5-2.5zm145 0 2.5.5v2l-.5 1.5-1-2-2 3-.5-1.5zm-394 1 3.5 7.5h-1zm267 2-1 8-1.5-5.5zm-262 2 2.5.5 1 2-.5 1.5 1.5.5 4 7-3-2-4-6 .5-1.5zm329 0 .5 2.5-3 2 .5 1.5-2 1 .5-1.5zm-108 1 1 2-1.5-.5-1.5 2.5-2 1-1.5-.5-.5 1.5-1-2 2-1 1.5.5.5-1.5 1.5.5zm90 1-13 14zm-56 2 4.5 2.5q-2 3.2-4 0l-1 2q2.8 1.8-1.5 3.5l1-3-3 2q-2.2-3.5 4-7Zm38 0v2l1.5.5-9.5 10.5-.5-1.5 2-1 6-8-8.5 7.5-1-1-8.5 8.5-.5 1.5-1.5.5.5 1.5 1.5-.5-6 5 .5-2.5 2.5-.5-3-1 10-9-1-2h1l.5 1.5.5-2.5-.5-1.5-1.5.5 6-4-.5-1.5 2.5-.5-.5-1.5 1.5 2.5.5 2.5zm31 4 1.5.5-1.5 3.5-2.5 1.5 1 1-9.5 9.5 7.5-8.5v-2l1.5-2.5 1.5-.5zm63 0-.5 1.5.5 1.5 3.5-2.5-2.5 6.5v-2l-2 1-1.5-2.5zm-160 1-7 10 1.5-4.5zm-265 4 5.5 9.5-2-1zm59 4 4.5 3.5.5-1.5.5 2.5-1.5.5zm195 2-.5 3.5-3.5 3.5.5-3.5zm42 1 2.5.5-6 3zm33 1-5 6zm-113 1 1 2-7 2-1-2 2 1zm177 0-6 7zm-124 1v3l-1.5.5-1 2 .5 1.5-2.5.5-.5 2.5-4.5 1.5 5-5q-3.7-1.8-.5-3.5l1 3 1.5-2.5-.5-1.5 1.5.5zm-21 1-3 6zm47 0-2 3-1-1-4.5 3.5zm-92 2 3 1 2-1v1l-4 1-3 1-3 1-1-2h2zm41 1-4 7 .5-3.5zm89 0-5 6zm-12 1-5 6zm-251 3 6.5 4.5-1.5 1.5zm283 1-6 7zm-66 2-1 6-2.5-1.5-.5 1.5-1-2-1.5.5zm22 2-6 7zm-224 2 16.5 17.5-4.5-3.5-1 1-2.5-1.5 2-1-11-9 1.5.5 1.5-.5zm-25 3 7 8zm318 2-7 8zm-93 1 .5 2.5-7.5 7.5zm19 0-1 2-1.5.5-.5 1.5-1.5.5q2.8 1.7-1.5 3.5-2.2-3.5 4-7zm37 1-8 9zm-26 1-3 4-4.5 2.5-3.5 4.5 1-4 1.5.5 1.5-2.5zm91 0 5 6zm-160 2-6 7zm-226 3 2 3 1-2 1.5 2.5h-2l5 7-1.5.5-3.5-1.5h2l-5-7zm346 1-5 6zm33 0 1.5.5-1.5 2.5-1.5.5q2.8 1.8-1.5 3.5l-2.5 1.5.5 1.5-1-1-6.5 5.5 11-10 .5-2.5 1.5-.5zm-102 1-5 6-1.5-.5zm30 1 1.5.5-7 6 1.5-3.5q1.8 2.8 3.5-1.5zm-57 1-3 6q-2.1-3 3-6Zm39 0-1 4-1.5-.5-1.5 2.5.5-1.5zm4 3-1 2-7 5-.5-1.5zm51 0-18 19zm-37 1-6 7zm-239 2 5.5 4.5-1.5-.5-5.5-2.5zm134 4-.5 1.5-1.5 2.5-1.5-.5-1.5 2.5-2.5-.5 3-1 1.5-2.5 1.5.5zm132 0-5 6zm-54 1 .5 1.5-6.5 3.5 1-2zm62 1-6 7zm-125 1 1 2-1.5-.5-.5 1.5h-2l-1.5.5.5 1.5-2.5-1.5zm35 0 .5 1.5-9 8 7-7-.5-1.5 1.5.5zm143 0 3 4-2.5-1.5-.5 1.5-1.5-.5.5-1.5 1.5-.5zm-32 2-8 9zm9 1-.5 1.5-1.5 3.5-2.5.5 1 2-9.5 8.5 2.5-3.5 1.5-2.5 1.5.5-1-2 1.5.5 1.5-.5-.5-1.5 1.5.5-1-2 3-2zm-182 2 1 3 2.5.5-2.5.5-1.5-.5-.5 1.5-2.5-.5 4-3zm204 0h2l1.5.5-2 1-.5 2.5-1-2-.5 2.5.5 1.5-1.5-.5zm-376 3 6.5 6.5-1.5 1.5.5-1.5zm305 0q2.3 4-5 8l-1-2 2.5-.5-.5-1.5 2.5-.5q-2.7-1.7 1.5-3.5Zm37 3-6 7-2.5-4.5 2-1-1 2 1.5 2.5zm-174 9 27.5.5-7.5 1.5-20-1zm-169 3 7.5 5.5zm162 0 14.5.5-14.5.5zm244 1 7.5 6.5-6.5-5.5zm-177 1 2.5.5-.5 1.5 1.5.5-2 1-.5 1.5-1-3-3 1-5.5-1.5zm134 3-6 7zm-181 2 13.5.5-13.5.5zm221 2 6 7zm-31 2-.5 1.5-.5 1.5-2.5 1.5.5 1.5-4.5 1.5zm-359 3 3 2 1.5-.5 1.5 4.5zm267 4-1 2-3.5 1.5-2.5 3.5v-3l1.5.5 1.5-2.5zm94 1-5 6zm3 3-7.5 8.5-.5 1.5-.5-1.5zm-227 9 4.5 1.5-.5 1.5-2-1-3 1-2.5-.5.5-1.5zm-51 1 12.5 3.5-.5 1.5-10-3zm315 1 9.5 8.5-3.5-2.5-1.5-.5-2.5-3.5zm-64 2 2.5 3.5-2-1-.5-1.5-1 2-2.5-.5zm-188 3 13.5.5-13.5.5zm282 5 5 6zm-267 2 9.5 1.5-3.5.5-6-1zm244 0 7 8-3.5-2.5zm5 1 14 15zm-266 1 20.5.5-20.5.5zm201 1 1 2-1.5-.5-1 3h2l-.5 2.5-1.5-.5-1-3zm94 5 6 7zm-17 2 10 11zm-311 2 2.5 1.5-.5 1.5-6-1-2 1-.5-1.5zm18 0 10.5.5-10.5.5zm480 6 1.5.5q-1 3.5-6.5 2.5l-2.5-.5.5-1.5zm-159 1 6 7zm-13 5 13 14-5.5-4.5-.5-1.5-1.5-.5-1.5-2.5-2.5-.5zm-56 2 6 7zm48 1 9 10zm10 5 5 6 1.5-.5 1.5 4.5-8.5-8.5zm1 6 7 8zm26 1 3.5 2.5.5 1.5 6.5 5.5.5 1.5 1.5.5-1.5.5zm-112 5 4 5-3.5-1.5.5-1.5-1.5-.5zm12 3 3.5 2.5 3 4zm115 8 30 31zm-114 1 6 7zm26 1 2 3 3.5 2.5-.5 1.5zm77 0 9 10zm-67 11 6.5 5.5q-1.5 3-3 0l-.5-2.5zm99 2 7 8-2.5-.5 1-1zm-101 3 2.5.5q-2.7 1.8 1.5 3.5l2.5 1.5-1.5-.5zm33 0 3 4 1.5-.5-3 2q3-2-2-4zm40 1 3.5 4.5-4-1h2zm-46 4q3.3 6.6 6.5 4.5l-.5 1.5 1.5.5 1 2zm-7 1 2.5 1.5-.5 1.5 2.5 1.5-2 1 .5-1.5-2.5-1.5.5-1.5zm19 2 3.5 2.5.5 1.5 1.5-.5-1 2 2 1-.5 2.5-3-5-1.5-.5.5-1.5zm-21 2 6 10 1.5-.5-1.5 3.5-1-3-1.5-.5.5-1.5-1.5-.5zm11 1 8 9q-3.2-6.6-6.5-4.5l-.5-2.5-1.5-.5zm71 5 9 10zm-115 2q2 4 4 0l7.5 7.5-7.5-6.5-1.5 1.5.5 1.5zm58 2q2.8 5.4 5.5 3.5l-1.5 1.5zm-7 4q2.8 5.4 5.5 3.5l-.5 1.5 1.5.5-1.5.5zm94 10 9.5 10.5-6-5zm-94 3 3.5 1.5 1.5 4.5zm-27 1 12 12q1.8-2.7 3.5 1.5l-.5 2.5zm44 3q2.8 5.4 5.5 3.5l-.5 1.5 1.5.5-.5 1.5zm-5 8 5 6zm58 8-.5 1.5-.5 8.5-.5-8.5zm-62 16 5.5 4.5-6-3zm78 1-5 6-1-2 1 1zm-104 103 1.5.5-1.5 2.5-3 1-2.5-.5 1.5-2.5z"/></svg>