<svg xmlns="http://www.w3.org/2000/svg" viewBox="0 0 1024 1024"><path fill="#0f0f0f" stroke="#0f0f0f" d="m620.5 200 1.5.5q-3.2 2.3-2 9 3.1 4.4 2 13l-5.5 7.5-4 1-8-5-3.5 10.5 1 4-3.5.5q-4.7-2.2-2.5-11.5l4.5-7.5q2.3-3.2 9-2l1 2 4.5-1.5 2-10-1-2q.1-6.4 4.5-8.5Zm-18 50 4.5.5.5 1.5 23.5 9.5-2.5 4.5-1.5.5 3 5-1 18 1 4v2l.5 1.5q9 0 11.5 6.5 8.1 17.4 20.5 30.5l5.5 4.5 24.5 27.5 2.5 1.5 10.5 14.5 6.5 5.5 5 7-1 2 5 2v3l-9.5 13.5-6-2-12.5 3.5 3 9-2 3v28l1 5-1 2 2 5-2 16 1 3v2l-1 4 1 2v2l-1 9 1 2-2 38 1 2-1 4 8 2-2.5 3.5-5.5 2.5 1 4-2 11-2.5 2.5-4-13-5.5 1.5.5 1.5 1.5.5-.5 1.5-37.5 14.5v23l-4 17v2l-1 12-6 17v2q3.9 6.6 3 18l-4.5 18.5-4.5 2.5 1.5 4.5 3.5 2.5-6 46 9 5 1 4-3 6 16 11 .5 1.5 11 2 5 3 2-1 8.5 4.5-3.5 1.5-4-1-.5 1.5 3.5 4.5 2 1 1-2 3.5 2.5 2 14-1 4 19 5 .5 3.5-13-2h-2l-2 1-6-1-7 1-3-1-7 2-2-1-13 3-5-1-12 2q-13.4-.6-22-6l-14-1-39 2h-2l-24 2-4.5-2.5.5-3.5 27-2h2l7 1 2-1 4 1 3.5-1.5-10-5 2-8-2-2v-13l3-18-1-2 3.5-1.5 1.5.5q-2.9-18.1-11-31l-4-17v-8l6-27-5-6-11-32-7-26-.5-13.5-22 1-2.5.5 1 4-6 22 1 2-5 22-10 25 4 6v9l6 24-2 10-9 20-1 8 3 1 1 6-1 3 2 1q4.1 11.4 4 27l-1 3-1 2 3 6-3.5 4.5h16l1.5 1.5-5.5 2.5h-2l-9 2h-2q-16.5-.5-28 4h-2l-6 1-2-1-16 3-44 1-11-2-5 1h-2l-13 1-24-1-14 2-4.5-2.5 1.5-2.5 19-2 2 1 2-1 2 1 7-1h2l3 1 3-1h2l3.5-.5-5-11v-7l7.5-11.5 14-6 9-1 4.5-3.5 1.5-4.5 9 1 3-9 7 2 3-12 2.5-1.5-4-13-3-24-5-20 3-5-6-5-3-10 4-16v-9l-6-15-5-25v-12l-1.5-1.5h-24l-26.5-6.5-1-4 4.5-1.5 2.5-.5-3-4 1-9-4-3-3-25v-2l1-2-1-3v-2l1-6-1-5 3-23-1-3 1-24-1-6v-2l-1-21 1-13v-2l-1.5-4.5-5 1h-12q-1.6 3.9-8 3l-6.5-2.5 1-4-5.5-7.5-5.5-1.5q12.2-20.3 28.5-36.5l8.5-7.5 10.5-12.5 1.5-.5.5-1.5 2.5-1.5 3.5-4.5 1.5-.5 4.5-5.5 1.5-.5.5-1.5 6.5-5.5 14.5-16.5 1.5-.5 15.5-19.5 7.5-6.5 16.5-19.5 4-1 .5 3.5-3.5 4.5 11-6 1.5.5-1-3q2.5-4 11.5-1.5l36 7 46 2h2l11-1 18.5 2.5 3.5 4.5 1.5-.5-1-20 1-5-2-1 .5-2.5 4-1 1.5 3.5-1 3 1.5.5 1-4 1.5-.5-1-2zM581 264l-1 23h2v3l-2 1-2 8 1 3-2 7 14 9 1 3 6 4 1-35v-2l1-6-1-18-6 1zm27 0-1 5 12 6v-8zm0 8-1 4v2l-1 27 3 24-1 4 2 2 10-1-1-4 1-2-1-14-1-2-2 3 1 13-4 1-2-4v-2l2-10v-2l-2-4 1-13-1-5 2-10-2-2-1-3zm-169 8-5 4-13 15-5 4-1 2-7 6-1 2h-1l-1 2-11 9-1 2h-1l-25 30h-1l-1 2h-1l-1 2h-1l-4 6-9 8-1 2h-1l-1 2-11 10-1 2-5 4-8 9-4 3-4 5 8 6 3-5 2-1 9-11 2-1 52-57 5-4v-1l7-6 15-17 14-14h3l2-4h5l10 10 3-2 2 4 25 21v2l24 21 5 2 8 10 15 10 20 23 10 8v2h2l11 13h3l4-6-11-11-5-5-12-8-1-1-12-11-6-6-6-6-10-10-7-7-1-1-6-5-1-1-2-2-4-4-5-4-1-1-5-5-2-2-18-18-2-2zm179 1-2 2 1 6-1 6 1 2-1 11 1 1 2-1v-25zm-160 3-1 2 19 16 18 20h2l1 3 4 2 1 3 11 7 23 25 18 16 1 3 23 16 5 8 7 5 45-6 20-1h2l45-7-38-47-2-2-30-35-3-2v24l3 3-1 6-4-2h-2q-13-1-20 3l-3-1q-4-1-3-6l-2-2-1-1-28-22 3-4-1-14-1-2-2 1-26-2-30-5q-30 2-53-2Zm-21 19-1 2-5 6 6-3 3 1h1zm11 13-11 14h-1l-12 13-20 18-35 38-7 6-3 5-3 1 2 8-2 22v4l-2 10 2 22 1 3-1 3 2 6 2 37v2l1 33v2l-1 17 4 1 11-2 22 3v-6l-1-32v-2l1-8-1-8v-2l-1-5 1-3-2-20 1-3-1-32-2-2 4-6 2 1 1-3 2 1 2-2h24l25-3 6 1h2l8-1 1 3-4 3 10 2 1 4-2 1 1 42-1 3 1 27 2 11-1 2 3 41 4-1h16q7 4 20 3h2l11-1h2l10-2 2 1 3-1 9 4h2l-1-3 1-51 3-1-2-5 1-20-1-5v-2l1-2-1-9 1-6-1-1-2-7 1-2-2-19-1-3 1-6-1-3 1-18 2-1 3-5-9-7-8-8-49-47-34-28-11-11zm-59 43-6 4-10 11 1 1 4-3 1-2 9-7 2-3zm311 22-1 2 3 1v3h4q3-1 0-3l-2 1-1-1zm-340 13-7 5q-3 2 0 3l7-6zm254 21q-9 4-23 3-6 3-2 5l35-7zm59 3-17 3v1l11-1 7 1 2-3 2 1v-1zm-39 11-11 3 6 1 1 2v-1l8-3v-1zm-24 1-41 9 1 16-1 3 1 2-1 39 1 18v2l2 24v2l3 32 47-13v2l2 1-5 2-2-1-35 12-8 5 1 3h5l51-18 33-8 8-4 10-1 3-2-4-15 1-6v-2l-1-8v-2q-1-14 2-23l-1-3 1-8 3-1-1-1-3-7h2l-1-6-1-3 1-4-1-2 1-21v-11l-1-2-2 2v12h-1l-1-2-2 1-1-2v-2l-1-8-10 1h-2l-12 2h-2q-36 3-65 11h-9l-2-3 43-11zm-161 29-26 3-18-2-2 4 3 14-1 6 2 35v2l1 18 1 3-1 31 1 11 21-1h2l24 3h14l-1-5-1-1-1-2v-2l-1-3q-3-21 2-34l-2-47v-2l1-7-1-22zm-48 36-1 11 2 1zm0 13-1 2v2l1 2-1 14 2 38 2 1v-4l1-3-1-3 1-7-2-16 1-2-1-2 1-2-2-19zm-49 14-2 2 1 29 2 2 1-11-1-3 1-2zm212 18-2 1-1 2h2v4l1 1h1l-1-4 1-3zm1 9-2 2 1 9-1 3 1 25h2l1-2-1-7v-2l1-7-1-18zm63 41-4 3 1 2 6-2v-2zm-140 3-3 1v1h8l-2-1zm106 13-26 15 1 2 26-16zm35 0-27 9-28 14q-4 2 0 4l-1 3q0 10 4 17l-1 9-6-12v-2l-1-2v-2l-1-3-1-1-2 3h-2l-1 2h2v2l-7 5 1 1 9-7-1 2h2v2l-2 1 1 3-6 9 6 3 4 12-3 5 7 6-1 5-5-2-4 7-2 15h-1l-1 2 2-1 5 18-1-1-1 2 3 1 3-17 3-1 1 6-1 8h2l1 3-1 2 2 6-1 5 4 10 5 1 1 4q-2 3-8 2l-1 2 4 1h2l5 1 7-3-2-3 4-3 1-2q5-7 16-8l2-5 1-12-1-5 2-11v-18l-8 4h-2l-2 1-3-3 1-2-2-3 12-8 7-2 2-10-1-5 1-2-1-4h-1l-4-1 1-9 7-20-1-3 2-3 1-19zm-214 3 1 3h8zm42 2-1 2 19 5 1-2zm-6 7v1l13 4h3zm-35 2v17q1 13 8 22l-1 5-4-1-2 8 1 10 7 8 4 2h2l11-2 2 5-8 3-1 2 8 4-1 3q-11 1-15-3l-3 1 7 26 1 12v2l1 5v2l1 5 10 2q5 3 6 11h5l18-6 1-7-1-5-3 7-2 1h-3l3-17-1-29 3-1-1 2 3 5 2 11-1 10h2l4-22 2-1 2 9 3-10-7-26-2 3-2 1h-3l2-7-3-2 11-33-1-2-6-2-4 21-2 2-3-1 2-8-2-5v-7l4-7-4-3-3-4q1-4 8-3v-1l-31-10zm62 18-1 3 5 3 1-4zm82 0-7 4 2 2 6-5zM434 764l-1 2-5 1-1 2-3 2 9 5q3 1 2 7l-3 2-15-8-2 3 5 2 3 5-1 4h-4l-9-7h-4q-12 8-27 12l-2 4 14 2q14 1 24-3l3 1 19-1h2l11-4h2l2 1 27-6 3 1 1 4-2 2-21 4 3 3h8l14-3-3-25-1-1v2l-2 4 1 4-4 2-3-4 1-3-1-6-12 4q-12 2-17-3h-2l-3-1-1-5 5-1v-1q-2-5-10-3Zm180 0-6 4 3 6-2 3q-8 2-9-3l-11 3q-12 2-17-3l-2 1 1 5-1 3 1 8q4 5 17 2l8 4 2 3 3-2 15 2 5 3 2-1v2q3 3 11 3l-1 2h2v-1l3-2 2 1v-1l9-2-1 2 3 1 1-3 6 2 2-4 6 1-1-1 3-1-2-6-6-5-15-5h-7l-12 7-2-1-2-2 1-2 11-7v-2q-12 2-18 8l-2-1-2-4q4-7 14-8v-1q-3-7-12-8Zm-45 34-1 4 15 3 1-3zm-123 4-17 4 1 2q12 2 16-4zm-71 3-3 3 2 2 13-1zm231 0q3 8 18 5v-1l-3-3zm-153 4-5 3q-3 2 0 3l7-2 2 1v-1z"/><path fill="#0f0f0f" stroke="#0f0f0f" d="m650.5 450 4.5.5 2 6-1 39-2 11 2.5 3.5 4.5 1.5-1.5 3.5-4.5 1.5-1.5 3.5-3.5-.5-.5-1.5-9 1-25 10h-8l-4.5-2.5 1.5-4.5 1.5-.5-4-11 1-23-1-6 1-4-1-2 2-9-5-2 1.5-4.5 8-4 2 1 23-6h11l5 2zm-13.5 9-6 2 1 18h10v-12l-1-7zm-15 3-11 4 1 12-1 2v2l2 2 12-3-1-18zm18 23-6 3-2 18 1 4 10-3-2-15 1-6zm-18 5-8 3-3 1 2 21 2 1 11-4-3-6 2-14zm-117.5-37h24l5 3 4-1q4.4 2.1 4.5 8.5l-2 17 2 11 1 26-2.5 4.5-26-1-12 1-7.5-5.5.5-2.5 2.5-.5q-4.8-4.7-5-14l-1-34 2-5-2-4 4.5-2.5 3 1zm.5 9-1 5 1 3-1 5v2l1 2-1 3q2 3 10 1v-9l-2-12-3 1zm14 0v21h2l3 1 2-1 5 2h2l-2-21zm13 25-2 3-8-1-3 2 2 20 5 1 6-1-1-2 2-21zm-27 2-1 20-2 1 1 3 13-2-1-21zm-55.5 30q7.3-1.2 8.5 3.5 1.5 8-2.5 10.5l-5 1q-5.4-1.6-4.5-9.5zm231 28 1.5.5-2.5 3.5q-3.2 3.8-11 3l-2.5-1.5.5-1.5zm-110 110 2.5 8.5-2.5 4.5-1.5-8.5zm29 22 1.5.5-.5 2.5-1.5.5-2.5 3.5-1.5-.5zm107 136 8.5.5-.5 2.5-11 2-4.5-2.5 3.5-1.5z"/><path fill="#f9f9f7" stroke="#f9f9f7" d="M.5 0 1024 .5l-.5 1023.5L0 1023.5zM621 199l-5 6 1 9-4 8q-2-4-9-3-8 4-9 14-1 7 4 9l4-2-1-2 3-11 6 4 7-1 5-7-2-12 1-11zm-16 50-6 1h-2l-20 4-2 4-1-2-4-1-3 4 3 2-2 7 1 12v4q-3-6-12-6l-38-1-3 1-4-1-2 1-23-2h-2l-5-1h-2l-13-4-21-2-4 2 1 3-10 5-2 1 4-5-1-4-5 2-46 53-2 1-61 65h-1l-16 21 3 3 3-1 6 8-1 4 8 3 10-4h14l1 32-1 2 1 2v46l-2 12v33l3 17 4 3-1 4q-1 6 2 8h-4l-2 5 4 2h2l25 6h21l6 40 6 14-4 21v9l8 9-3 7 4 11 4 29 4 15-2 1-2 3 1 4-1 4-6-2-4 3 1 6-3 1-6-2-2 1-2 6-27 9-5 10h-1l-2 3 4 14q4 1 1 3l-12-1-32 3-3 3 4 2q11 1 19-2l10 1 4-1h2l2 1 9-1 18 1 4-1 12 2 2-1 5 1 60-5 8-3 5 1 26-4 1-3-3-1-3-1-6 1h-6l5-4-3-5 1-3v-16l-2-11-4-5 2-3-4-7 3-14 8-19v-11q-6-11-6-27l-3-5 10-27 9-43-1-4 4-2 3 1 16-2 2 2-1 3 1 12 8 28 9 26 6 7-7 28 3 19 13 35-5 2 1 3-4 20q-2 8 2 11l-2 5 1 5 9 3v1l-11-1-15 2h-2l-2-1-2 1-5-1-9 3 3 5q18 1 32-3l5 1h2l3-1 3 1 3-1 2 1 5-1 2 1h2l7-1 10 1 2-1 21 6 24-1 17-3q20-2 35 2l18-3v-2l-4-1h-2l-2-1-6 2-3-1-2 1-16-4q1-14-4-21l-4 1-4-4 8-2-9-5h-2l-5-3-10-1-2-2-15-10 2-9q-2-6-9-6l5-47-3-3-1-4 5-2 4-21-3-13v-7l5-13 2-21 4-14-1-2 1-18 36-14 2-3-2-1 5-1 2 12h3l3-8-1-8 8-5v-3l-8-1 2-18-1-5 1-2-1-2 1-6v-2l-1-3 2-42-1-8 1-4-1-10v-2l-1-3q-2-15 3-21l-3-8 11-3 5 2 3-1 8-13v-4l-3-1-1-3-15-19-37-40-1-1-2-2-2-2-19-28-5-4h-2l-2-1-3-8 1-8q2-11-3-14l3-1 1-5-18-9h-4l-2-2z"/><path fill="#f9f9f7" stroke="#f9f9f7" d="m580.5 265 18.5.5v34q-3.3 9.2-2 23l.5 1.5q-7.3-10.7-20.5-15.5l3.5-17.5 1.5-.5-2-5zm27 0 11.5 2.5-1.5 7.5-2-3-8.5-4.5zm0 7 1.5.5 3 9-2 16 1.5 10.5 1.5.5q-3.2 7.8-2 20l4.5 1.5q3.5-2 1.5-9.5l-1-2 1.5-5.5 1.5.5 1 20-10.5.5-2.5-17.5v-29l1-8zm-169 9 7.5 5.5 12.5 13.5 38.5 35.5 1.5 2.5 49 47 33.5 27.5-4.5 7.5-6-7-4.5-3.5-.5-1.5-13.5-12.5-6.5-7.5-1.5-.5-8.5-10.5-18.5-14.5-.5-1.5-3.5-2.5-1.5-2.5-22.5-17.5-.5-1.5-2.5-1.5-3.5-4.5-26.5-23.5-2.5-3.5-4 1-12-10-4.5 2.5-1.5 2.5h-3l-5.5 5.5-57.5 62.5-4.5 3.5-.5 1.5-1.5.5-.5 1.5-1.5.5-36.5 40.5-6.5-5.5 15.5-16.5 4.5-3.5 1.5-2.5 6.5-5.5 55.5-61.5 15.5-13.5 15.5-18.5z"/><path fill="#f9f9f7" stroke="#f9f9f7" d="M458.5 285q26.3 3.2 57 2l50 7 3-1 1.5 3.5-1 8 1 3-2 5 31 24-1 3q.8 5.3 7.5 4.5 8-4 22-2l3 2q3.5-1 2.5-6.5l-2.5-3.5-1.5-.5 1-6-1-2 1-4-1-6v-2l.5-3.5 10 11 1.5.5 60 74-29.5 3.5-10 3-3-1-68 9-7.5-6.5-9.5-10.5-18.5-13.5-.5-1.5-23.5-22.5-5.5-6.5-3.5-2.5-7.5-8.5-12.5-9.5-.5-1.5-14.5-13.5-1.5-2.5-14.5-12.5-.5-1.5z"/><path fill="#f9f9f7" stroke="#f9f9f7" d="m617.5 293 1.5 13.5-1.5.5zm-181 11 1.5.5 2 3-7.5 2.5.5-1.5zm12 12 11 12 43.5 36.5 3.5 4.5 8.5 6.5 12.5 13.5 21.5 19.5 2.5 3.5 10.5 7.5-5 7v32l4 30v31l-3 33 1 3v2l-1 4 1 9-1 2 1 4-1 6 1 6-1.5.5q-5.5-7-21-4l-24 3-16-4-2 1-4-1h-4l-2 1h-2l-4.5-.5 1-8v-2l-2-17 1-8-3-25v-2l1-53v-2q1.3-5.7-2-7l3-2-1.5-3.5-9.5-2.5 3-2-1.5-3.5h-30q-16.8 4.2-38 4l-2.5.5-.5 1.5-1-3-4.5 8.5 2 1 1 14-1 16 3 48-1 2 1 5-1 2v2l1 2-1 14 2 16-5.5.5-13-3q-6.4 3.1-17 2l-.5-22.5 1-6v-2l-1-26-2-10 1-2-4-39v-2l-1-17 3-36-1-7 3-2 18.5-20.5 2.5-1.5 10.5-12.5 2.5-1.5.5-1.5 1.5-.5 6.5-8.5 4-1 14.5-14.5zM512 452l-10 1-3 2-5-1-2 3 2 5q-3 1-2 8l-1 3 1 11v2l1 4-1 2 2 16 4 5-2 1-2 3 7 5 21-1 12 1 2-1 2 1 5-2-1-17 1-8-2-7 1-19-1-11-4-4-3 1q-8-5-22-3Zm-124.5-92 1.5.5-13.5 11.5 8-9zm-29 35-5 6-1.5-.5zm261 20 3.5.5-34.5 6.5 3-4h13zm51 4 4.5.5-4.5 2.5-8-1-6 1v-1zm-41 11 7.5.5-12.5 1.5v-1z"/><path fill="#f9f9f7" stroke="#f9f9f7" d="m605.5 431 5.5.5-40 10 1.5 3.5 8 1 20-5h2l15-2 3-2h13l33-5 2 1 5-1 .5 9.5 2.5 2.5 3 1q3.4-3.6 1.5-12.5l-.5-1.5 2.5.5-2 19 1 30 2 5-2 2-2 29 1 25 2 4-18 6 1.5 2.5 5 1 9.5-4.5 1.5-3.5 1.5 8.5-45.5 11.5-47 17-17 4-.5-2.5 8.5-5.5 24-9 17-3 5.5-4.5-.5-1.5-5.5 1.5.5 1.5-3-1q-24.8 4.2-45 13l-1.5-2.5-1-35-2-7 1-2-2-23v-2l.5-67.5zm45.5 18-1 3-6-2q-18 0-30 6l-6-1-7 4-3 6 5 2-1 4 1 29-1 2q-2 14 4 20h-2l-2 4 9 4h2l35-12 6 3 1-3 6-3v-3l-4-2-1-2-1-3 2-19-1-15 1-4-1-3 2-8-2-4zm14 81-3 3 4 6h1l-1-8zm-222.5-70 20 1 3-1-.5 1.5 1 32-1 2 3 34v2l-2 9v39l3 2-1 2 .5 1.5q-13.4 1.4-22-2l-38.5-.5q3.4-13.1 2-31v-2l-2-19 1-8-2-9-1-31 1-4-3-15 1.5-2.5 10 2h2zm8.5 58-2 1-4 7 1 5 6 4 5-2q3-3 2-10-2-5-8-5Z"/><path fill="#f9f9f7" stroke="#f9f9f7" d="m634.5 460 6.5.5 1 17-8.5 1.5-1.5-17.5zm-123 2 2.5 19.5-8.5.5-1.5-18.5zm8 0 11.5 2.5 2 19-2.5.5-10.5-1.5-1-7 1-9zm100 1 4.5.5-1 7 1 10-11.5 2.5-1.5-16.5zm21 22 .5 18.5 2 3-10.5 2.5.5-1.5v-18l1.5-1.5zm-136 4 9.5 1.5 1 20-11.5 2.5-1.5-2.5 3-2-1-9 1-3-1-3zm27 0 .5 3.5-1.5 18.5q-7.5 2-9.5-1.5v-2l-1-17 5.5-.5h2zm91 1 1.5.5-1 16 2 5-10.5 3.5-2.5-21.5zm-221 21q3.5 25 2.5 54.5h-1zm-50 12 1.5 4.5v26h-1zm213 27 1.5 29.5h-1zm65 40 1.5.5-.5 2.5-5 2-1.5-2.5zm-37 17 1.5.5-25.5 15.5-.5-2.5zm34 0 2.5.5-3 24v4l-6 17-1 10 5 2-1.5 19.5-19.5 10.5 4.5 8.5h4l8-5 .5 13.5-2 7-1 28-1.5 1.5q-11.2 1.3-16.5 8.5l-1.5 2.5-2.5 1.5 1 5q-4.2 3.8-14.5 1.5l-1.5-2.5 8-2 1-2-1.5-2.5-5.5-2.5-3-7v-9l-3-14 1-2-3.5-7.5-1.5.5-2.5 14.5-1.5-.5-5-16 3-13v-2l2.5-6.5 5 1 1.5-6.5-6-4 2-9-4-6 1-3-1.5-.5-2 1-2.5-5.5 6-7-1-3q1.5-3 3 0l1 4-2 1v2l.5 13.5 2.5-1.5 2-6-.5-1.5 2 1 1.5-11.5-4-15 2-4q-3.7-1.7-.5-3.5l14-8zM599 679l-4 4 1 4 2-1 4-6zm-140.5-67 16.5 3.5-.5 1.5-9-3h-2zm-35 8 19 3 27.5 8.5-.5 1.5q-6.2-1.2-7.5 2.5l1.5 3.5 5.5 3.5-4 11 3 6-2 11 2.5.5 1.5-.5 5.5-22.5 4.5.5 1 4-2 2-4 19-5 10 4 4-1 1-1 6 1.5.5 5-4 7.5 22.5-3.5 11.5-2-8-2.5 1.5-3.5 20.5-2.5-22.5-3.5-5.5-2.5 1.5 2 26-4 19 4.5 1.5 4-7 .5 5.5-1 3-.5 2.5-16 5h-6q.2-6.7-4-9l-11.5-4.5-3-28-6-23 1.5.5 15 3 2.5-4.5-8-4 .5-1.5 7.5-2.5 1-2-1.5-2.5-8-1-9 1-8.5-10.5v-15l2.5-.5h2l1.5-.5v-6l-7-18-2-18zm140 27 .5 1.5-2 1-.5 1.5-4 2 3-4z"/><path fill="#f9f9f7" stroke="#f9f9f7" d="m434.5 764 3 1 3-1 3.5 2.5-5 2-1 4 2.5 2.5 17 4 16-4 .5 10.5 1.5 1.5 5.5-1.5.5-7.5 1.5.5 1 12-1.5-.5-25 3-3 2h-9l-18 5h-8l-10-1-4 2-13 1-16.5-2.5 3.5-4.5 7-1 21-10 13 8 3.5-2.5-3.5-7.5-5.5-3.5 2.5-1.5 15 8q4.3-.8 3.5-6.5l-11-8q2.2-5.7 4.5-2.5zm177 1q7.3-1.2 9.5 2.5l1.5 2.5 2.5 1.5-13 8-1 2 3.5 4.5 17-7-1 2-8.5 5.5 2.5 5.5 12-6 7-1q6.2 5.3 17 6l5.5 4.5 1 4-3.5 2.5h-4l-1.5.5-.5 1.5-6-1-1 2-3-2-12 4-11.5-3.5-1.5-2.5-2 1-5-3-18-1-7-5-18.5-1.5-2-17 1.5-.5 10 4h2l16-3 6 3h2l3.5-2.5-2-8zm-127 29 1.5 5.5-4.5 2.5-19 1-.5-1.5 17.5-4.5h2l2.5-1.5zm84 4 3 2 12.5 1.5-1.5 2.5-14.5-3.5zm-124 5-1 2q-2.6 3.9-10 3l-3.5-1.5zm161 2 17.5 3.5-10.5 1.5zm-232 1 9.5 2.5-9.5 1.5zm78 4 5.5 2.5-9.5 1.5 1-2z"/><path fill="#83827d" stroke="#83827d" d="m576.5 254 2.5.5-3 1 1 2-3 2 1 2-1.5.5-.5-2.5zm-8 13 .5 11.5h-1zm31 3 .5 11.5h-1zm-64 8 10.5.5-10.5.5zm-118 6-5 6zm40 0 9.5 10.5-10-9zm26 2 27.5.5-27.5.5zm-37 1 12 13zm172 0 .5 18.5h-1l-1-16zm-208 5-6 7zm31 5 9 8 1.5-.5-2.5 1.5zm-13 3-5 6zm25 4 7.5 8.5-6-5zm14 2 17 18zm130 2 .5 14.5h-1zm-13 4 5 6zm-181 3-5 6zm67 5 8 9zm-62 2-8 9zm34 1-5 6zm-7 7-11 12zm-64 5-5 6zm11 1-6 7zm132 2 7 8zm154 1 5 6zm-177 1 6 7zm122 1 11.5.5-11.5.5zm-134 3 5 6zm-59 2-14 15-3 1v-1zm256 2 16.5 17.5-4-3zm-304 1-5 6zm140 0 6 7zm13 0 5 6zm146 10 5 6zm-285 1-.5 3.5-3.5 3.5zm-15 1-5 6zm165 0 16 17-15-15-1.5.5zm-154 2-7 8zm147 3 5 6zm166 2 6 7zm-357 1-7 8zm177 7 12 13zm187 0 8.5 9.5-4.5-3.5-1.5-.5zm-8 1 1 2 1-1 5 5 1.5.5.5 2.5q1.8-3.7 3.5-.5l-4.5 1.5-1-3-2.5-1.5-1.5-2.5q-1.7 2.8-3.5-1.5zm-153 1 6 7zm-187 1-13 14zm-13 3-5 6zm-17 2-6 7zm368 1 5 6zm-147 3 6 7zm-169 2-7 8zm-48 4-7 8zm31 0 .5 1.5-6 5 2.5-4.5 2.5-.5zm193 2 8 9-2.5-.5 1-1zm-218 4-7 8zm238 2-.5 1.5 7.5 8.5-8.5-8.5zm-256 4-2.5 3.5 5.5 6.5 2-1-1 2-7.5-6.5zm244 11q5.3 2.8-.5 5.5l-.5 2.5-.5-2.5q5.1-2.7 1.5-5.5Zm-216 14 .5 12.5h-1zm279 0 7.5 1.5-1.5 2.5-1-2q-5.5 1-5-2Zm57 1 .5 10.5h-1zm2 0 .5 10.5h-1zm-113 6 .5 14.5h-1zm-132 9 13.5.5-13.5.5zm-42 3 1 3 2-3-.5 1.5-.5 2.5-2-1-4 6-.5-2.5zm116 2 14.5.5-14.5.5zm18 1 4 2 3-1v1l-4 1zm-81 6 11.5.5-11.5.5zm17 2 .5 16.5h-1zm10 8 .5 21.5h-1zm181 2 .5 14.5h-1zm26 1 1.5 6.5-1.5 2.5-.5-1.5v-2zm-337 1 .5 17.5h-1zm48 1 .5 15.5h-1zm111 5 1 3 8.5.5-8.5.5zm-99 4 .5 14.5h-1zm278 3 2.5.5-3 1-.5 6.5-.5-6.5zm-81 1 .5 11.5h-1zm-95 2 7.5.5-.5 15.5-1-15q-7 1.5-6-1Zm134 3 .5 11.5h-1zm-235 8 .5 10.5h-1zm98 1 .5 7.5-2.5 1.5v-1l1.5-.5zm-38 4 .5 10.5h-1zm-11 14q5 1.5 3.5 9.5h-1q1.1-8-2.5-9.5Zm105 1 2.5 13.5-3 1-.5 5.5-.5-5.5 2-3zm-159 12 .5 16.5h-1zm-40 6 .5 11.5h-1zm200 3 2.5 1.5 1 5-1.5.5-.5-1.5v-2l-.5-1.5-1.5-.5zm-166 10 .5 13.5h-1zm14 0 .5 19.5h-1zm217 11 2.5.5-1.5 2.5-4 3v-2l-1.5-.5-.5-1.5-3 1v-1l3-1 5 1 1.5-.5zm-266 4 .5 13.5h-1zm204 6 1.5 10.5-1.5 3.5zm-156 11 16.5.5-16.5.5zm26 0 12.5.5-12.5.5zm34 0 1.5 2.5-14.5.5v-1l13.5-.5zm177 0-.5 1.5-.5 15.5-.5-15.5zm-270 14h21l1.5 1.5-.5 7.5-1-8h-21zm187 26 1.5 3.5-2.5 1.5-1.5-2.5h1l.5 1.5 1.5-.5zm-83 3 4.5 1.5-1.5 2.5-3.5-1.5 1.5.5 2.5-.5-.5-1.5zm82 10 1.5.5-8 7 4.5-5.5 1.5-.5zm5 4 1.5.5 1 3v2l1 2-.5 2.5-4-3-1.5.5-.5-2.5-1.5-.5.5-1.5h2l3 1 .5-1.5-3-1zm3 15 3.5 1.5 3 6-2 1-.5 1.5-.5-1.5v-4l-.5-1.5-2-1-1 4-.5-3.5zm-4 1-3.5 4.5 1 3-2-1zm4 7 1 7 1.5-.5-2.5 1.5zm54 13 .5 7.5-2.5 1.5v-1l1.5-.5zm-205 4 6 7zm209 16 1 4 3.5 2.5-2.5-1.5-2.5-1.5zm-187 4 3.5 2.5-2.5 4.5-4.5-.5 6-2-1.5-3.5zm44 86 .5 7.5h-1l-1.5-2.5-2.5-.5 2.5-.5 1.5.5zm126 13q7.4-.9 10 3l2-1 2 3 8.5 1.5-6.5.5-3.5-2.5-.5-1.5-1.5.5.5 1.5-3-3-8-1zm30 5 5.5.5-6 1 1.5 2.5 2.5.5-2.5.5-1.5-.5-.5 1.5-.5-1.5.5-1.5-2-1-1.5.5zm57 11 2.5 1.5.5 2.5 2.5.5-5.5 1.5v-1l1.5-.5zm-170 4 11.5.5-11.5.5zm-109 3 11.5.5-11.5.5z"/></svg>