<svg xmlns="http://www.w3.org/2000/svg" viewBox="0 0 1024 1024"><path fill="#050505" stroke="#050505" d="m513.5 139 3.5 2.5v4l-7 11 3.5.5 17-4 2.5 5.5-20 17 3.5.5 16-3 1.5 4.5-3.5 2.5q-20.2 1.8-35 9l-3.5-2.5q-.7-5.7 3.5-6.5l21.5-16.5-3.5-.5-14 4-1.5-5.5 11-14-2.5-.5-22 5-.5-2.5 10.5-6.5zm-68 44 4.5 2.5-14 35 1.5.5 42-21 1.5 5.5-39 42 6.5 7.5q9.6-9.9 24-15l2.5 1.5v3l-5.5 5.5-16.5 10.5 14 17 3 10-4.5.5-19-23-9 5h-4l-.5-3.5 9-7-4.5-5.5-5.5 4.5-20.5 23.5-3 1-2.5-1.5 1-9 15-35-1.5-.5-40 22-8 1-.5-4.5q11.6-21.4 29.5-36.5l5.5-4.5-12-19q1.7-4.2 3.5-1.5l2.5 1.5 10.5 14.5zm-6.5 12-23 19 7 12 3 1 14-31zm21 22-29 16 5 9h3l22-24zm-50 2-16 15-15 17 1 1 39-21-7-10zm18 23-9 20 1 1 13-15-3-4zm96.5-43q24-1.5 33.5 11.5 6.8 5.7 7 18l-2.5 1.5q-5.1-12.4-15-20-7.3-6.2-23-4-12 3-18.5 11.5-8.4 8.6-6 28 2.8 11.3 10.5 17.5 6.5 7.5 22 6 8.4-2.1 12.5-8.5 5.8-6.7 4-21-2.4-9.6-9.5-14.5l-11-3q-8.1 1.4-11.5 7.5-3.5 4-2 13l4.5 6.5 8 3 7.5-5.5 1-4-3.5-5.5-2-1-2.5 1.5 2 6-4.5 1.5-2.5-1.5-2-7 4.5-5.5 8-1 6.5 4.5q3.5 4 2 13l-6.5 8.5q-4 3.5-13 2l-10.5-7.5q-5-5.5-4-17l9.5-14.5q5.5-4.5 17-3l13.5 7.5q9.6 8.4 8 28-2.4 12.1-10.5 18.5-7.3 7.2-23 6-12.5-2.5-19.5-10.5-12-10.5-10-35 4-17 16.5-25.5zm149 1 16 1q10.3 4.2 16.5 12.5 7.7 9.3 7 27-2.2 14.8-12.5 21.5-9.2 5.8-25 5l-10-1-4.5 3.5-7.5 13.5-6 1-10.5-6.5q3-19.5 15.5-29.5l25-2 8.5-6.5 2-8-6.5-8.5q-10.8-1.8-13.5 4.5l-2.5 3.5h-4l-9.5-7.5-1-6 7.5-10.5zm1.5 6-10 4-8 10 5 3 13-7 11 2 8 12q1 9-3 14l-12 8-22 1-3 2q-9 6-10 21l6 2 7-13 7-5 14 1q15 1 22-6 6-6 7-17 0-15-7-22-7-11-25-10Zm-41.5 85q11.5-2 13.5 5.5l1 4-5.5 9.5-10 1-4.5-3.5-2-7 5.5-8.5zm1.5 6-3 6 7 2q3-1 2-6zm-134.5 12 27 2h2l24 2 27 6 51 19q37.7 17.8 63.5 47.5 35.6 38.9 54 95 12.7 44.8 10 105-10.7 102.3-68.5 157.5-40.6 37.9-96 61-37.2 17.3-93 16-115.8-10.2-173.5-78.5-34.7-38.3-52-94l-10-48-1-49q10.9-100.1 67.5-154.5 34.6-37.4 81-63l47-18zm-.5 8-26 3-43 14q-43 19-73 49-36 30-59 73-21 40-26 96-2 59 13 101 18 51 51 87 56 62 166 72 54 1 91-17 55-23 95-62 52-53 62-148 2-59-10-102-18-53-51-90-62-72-190-76Z"/><path fill="#050505" stroke="#050505" d="m504.5 334 24 1h2q44 4 76 20 47.2 22.8 81.5 58.5 24 25 36 62 12.8 42.2 10 100-5.1 51.4-21 92-16.6 42.4-47.5 70.5-37.5 34.5-93 51l-43 8h-43q-91.2-12.7-137.5-70.5-29.4-34.6-46-82l-11-41q-4-21.5-2-49 6.4-51.6 28-88 25.3-47.7 62.5-83.5 17.9-16.6 40-29 13.7-8.8 33-12l3 2q21-8 48-10Zm1.5 7q-29 2-50 11l-3-1-1-1v-4q-39 13-64 38-36 33-60 78l-21 47q-7 21-10 47l1 39 11 45q16 46 45 81 27 31 66 50 31 15 75 19l38-1q26-3 49-11 41-15 72-40 33-28 51-71 18-45 22-103 2-100-47-147-34-35-79-57-26-12-58-17z"/><path fill="#050505" stroke="#050505" d="m520.5 361 8.5 2.5 1 12-8 20 16.5.5 2.5 1.5 1 3-1.5 2.5-24 1-3.5-2.5v-5l9-20 1-7-2.5-.5-8 6h-3l-.5-5.5 2.5-3.5zm-24 4 3.5 1.5 2 34-2.5 3.5-4.5-1.5-1-32zm-90 14 5.5 1.5 1 6q-1 3.5-6.5 2.5-3.7-1.2-2.5-7.5zm213 1 5.5 2.5 1 7-5.5 2.5-5.5-4.5q-1-5.5 2.5-6.5zm-18 12 3.5 1.5 1 27-3.5 4.5-3.5-2.5-1-20 1-8zm-168 4 3.5 2.5-1 29-1.5 2.5-4 1q-4.4-3.1-2.5-12.5l3.5-21.5zm-20 1 4.5.5 1 22-1 3v2l-.5 3.5-3 1-3.5-2.5 1-27zm113 45q11.7-.7 15.5 6.5l1.5 2.5q9.5-5.5 26-4l7.5 6.5 16.5 40.5 38.5-23.5-.5-1.5-2.5-1.5-5-9 1.5-2.5q10-4 25-3 3.8-6.7 15-6l2.5 1.5 1.5 2.5q10-2.5 12.5 2.5l-13 28 9.5.5 1.5 1.5 1 2-2.5 3.5-4 1-10-1-9 13q-5.7.8-6.5-3.5l-4.5-9.5-42.5 29.5 10.5 29.5 9-5h6l1.5 6.5-3 41-2.5 7.5h-5l-17-10-25.5-20.5 2.5-5.5 14.5-5.5-11.5-24.5-47.5 31.5 1 4q-1.8 9.7-8.5 14.5-6.3 5.7-20 4l-14.5-9.5-4.5-15.5q-27.1-19.9-49.5-44.5l-7-11v-10l8.5-10.5 48.5-16.5q-2.1-12.6 5.5-15.5 6.1-4.9 18-4l5 1 4-5zm.5 6-2 1-3 4 7 5 8-4v-1q-2-6-10-5Zm39 4-34 10 3 8-1 13 1 1 25-7 2-6 5-2 1 3-2 5q-1 11 4 18l23 44 7 18v5l-14 6 32 21 3-29v-8l-10 4-12-23q-11-41-27-76zm-57 4q7 7 10 22l-4 13q-1 3-6 2l-1-5-11 5 1 2 6 4q9 2 13-2 8-5 11-16 2-12-3-16-4-9-16-9Zm-8 1-5 2-4 6 1 2 12-3-2-5zm159 1-27 2-1 2h2l6 11-44 27 5 11 33-24 13-7 6 11h2l18-32zm-151 11-58 18-9 5-5 9 9 15 45 39 2-4 7-6v-1l-11-11-21-20-2-5-11-5 2-4 7 2h4q18-13 43-20 1-9-2-12Zm48 15-7 2-5 13-4 3q-11 2-14-4l-14 8q-11 2-15-3l-5-7-20 10 1 3 18 16 13 16h10l2 4-1 2-12 4-7 9q-1 9 2 13 4 5 13 6l10-3q5-4 5-13l12-11 39-27-5-10-49 32-3-1 1-2q21-20 48-33l-10-26zm-18 5-7 1-2 3 8 3 3-6zm151.5-38 5.5.5 2 6-2.5 5.5-5.5-1.5-1-9zm-350 7 4.5 2.5 1 4-1.5 2.5-5 1-2.5-1.5-1-4 2.5-3.5zm34 4q11.5-1.5 14.5 5.5l2 7q-.6 9.9-7.5 13.5l-9 2-6.5-4.5-2-8 6.5-14.5zm.5 8-2 11 5 2 5-6-1-5zm-20.5-7 3.5.5 1 10-2.5 22.5-3 1-2.5-1.5-1-6 2-20zm334 76q10.8-1.8 13.5 4.5.8 7.8-3 11 9.1 2.9 7 17l-5.5 6.5q-6.2 5.3-18 5l-4.5-3.5 1.5-3.5q12 .5 17.5-5.5l2-5-3.5-3.5-8-1-2.5-2.5 1.5-4.5 6.5-4.5 1-3-2.5-1.5-10 4-2.5-1.5q-.7-5.7 3.5-6.5zm-355 1h8l7.5 4.5 1 3q-4.7 14.8-3 36l-2.5 2.5-4.5-1.5-1-18 1-6-1.5.5-12 3-5.5-3.5-1-8 7.5-9.5zm4.5 5-11 8 1 4 7-2 6-8zm22.5 78q11.1-1.6 14.5 4.5v7l-7 11q9.2 4.3 8 19l-3.5 4.5-12 1-6.5-4.5q-3.6-2.9-2-11l5-9q-7.8-2.7-6-15l2.5-3.5zm1.5 7-2 1-3 4 1 2h2v2l3 1 5-8zm1 22-4 8 5 3 5-1-2-6zm297.5-26 4.5 1.5-8 19 9.5 1.5 4-11 3-1q5.3 2.8 2.5 13.5l-2 20-2.5 2.5-4.5-.5-1-11 1-5-1.5-1.5h-15l-2.5-2.5-1-2zm-327 32q5.8-.7 6.5 3.5l1 5-1.5 3.5-4 1-4.5-3.5-1-5zm358 0 4.5 2.5 1 4-3.5 4.5-2 1-4.5-2.5-1-5 1.5-2.5zm-89 31h12l2.5 2.5-2.5 5.5h-17l-1.5 1.5-1 6q13.3-.8 18 7 1.5 13.5-7.5 16.5l-14 4-3.5-2.5.5-4.5q11.8-.2 16.5-7.5l1-2q-4-5-15.5-2.5l-2.5-2.5q-2.2-14.2 4.5-19.5zm-178 1h12l2.5 2.5v6L426.5 730l-2 1-3.5-1.5-1-3 11-29-3.5-.5-14 1-2.5-1.5.5-3.5zm88 25 4.5 1.5-10 16q-3.1 6.4-2 17l1.5.5 6-9q3.5-4 12-3l5.5 4.5 1 4q-1.7 9.3-8.5 13.5l-16 5-8.5-12.5v-14q3.2-13.3 11.5-21.5zm8.5 30-2 1-5 7 1 2 4-1 4-7zm-116.5-11q6.8-.7 7.5 4.5l1 3-2.5 3.5-5 1-4.5-2.5-1-5 2.5-3.5zm211 1q5.5-1 6.5 2.5l2 6-2.5 3.5-4 1-3.5-2.5-1-7z"/><path fill="#fefefe" stroke="#fefefe" d="M.5 0 1024 .5l-.5 1023.5L0 1023.5zM510 139l-23 7-3 4q-3 1 2 3l20-6 2 1-11 15 3 4 15-3h1l-22 17-3 4 3 4 35-8 6-3-2-6-17 3-2 1 18-15 2-5-4-4-18 5h-2q6-6 8-15-1-4-8-3Zm94 16q-13 1-19 8-9 6-12 18l1 9 7 4 9-3 5-6q2-9 15-7 5 2 5 10l-3 10-17 14-9 16q-1 11 2 19 1 4 8 3l3-4q0-12 6-18l6-5 16-6q11-8 12-26-1-15-8-23-7-10-21-12h-2zm-159 28-33 26-13-16-4 2 1 5 10 13-26 29-9 15 3 4 10-3 36-20 1 1-16 39 3 5 6-2 24-27 3 6-3 2-5 6q-3 1 2 3l12-6 20 24 4-2-2-7-15-19 18-12 4-5-2-4q-17 4-25 15l-6-6 39-44-1-4-3-2-39 21h-2l14-34q-1-4-6-3Zm78 16-15 7q-13 9-16 29 0 18 8 28 9 12 28 14l16-5q11-7 13-23 0-15-6-22-6-10-19-12l-13 3-11 14q-2 12 3 18 4 7 14 9 8 0 13-4l5-9-2-10-9-7-7 2q-5 2-4 11l6 4 3-1-2-6 5-2 2 4-2 8-3 2-9-2-6-9 3-11 9-6q10-1 15 4l7 16q1 11-4 17-5 7-14 9-12 0-18-5-11-7-13-21-1-15 5-23 7-11 22-14 15-1 23 6l13 19 2-1q1-12-4-16-10-17-38-15Zm154 0-16 6q-8 4-11 14l2 6 11 7h3l2-3 8-6 8 2 3 6-1 8-10 7h-20l-4 2q-12 10-16 27l1 4 9 5 9-1 6-12 7-5 3 1q22 3 32-6 8-6 10-17 2-22-8-32-8-11-24-13l-2 1zm-85 63-6 2-5 8 1 8 8 5 10-4 4-6-1-7q-3-6-11-6Zm44 28-5 2-5 7 2 10 7 3 9-2 4-6-1-8q-2-7-11-6Zm-144 19q-44 5-75 22-39 20-68 49-40 33-63 84-11 24-17 53l-5 39q-1 62 16 106 18 48 50 83 56 63 164 75l49-1 43-11q54-21 96-56 68-57 78-172l-1-2 1-26v-2q-2-56-20-95-19-41-47-72-33-37-83-55-27-11-59-16-27-4-59-3Z"/><path fill="#fefefe" stroke="#fefefe" d="m438.5 196-.5 1.5-12.5 29.5-9.5-12.5zm234 11q21.5-2 28.5 10.5 6.8 7.7 5 24-1.8 9.7-8.5 14.5-8 6.5-25 4l-7-1-8.5 4.5-6.5 13.5-6.5-2.5q3-13 11.5-20.5l9-1 7 1q12.3-1.2 18.5-8.5 5.8-4.7 4-17l-7.5-10.5q-4-3.5-13-2l-11 7-4.5-3.5 7.5-9.5zm-214 11-1.5 2.5-19.5 21.5-6.5-8.5zm-49 2 3.5 2.5 5 8-36.5 19.5 2.5-3.5 15.5-17.5zm18 22 4.5 6.5-11.5 12.5-.5-1.5zm207 56 6.5 1.5-2.5 4.5-5.5-1.5zm-141 20q30.4-1.4 55 3l51 13q50.4 17.1 83.5 51.5 33.3 35.2 53 84 16.1 43.9 15 105Q742.5 684 680.5 740q-37.8 33.7-88 55l-42 13q-23.4 5.1-54 3-106-11-160.5-73.5-31.1-33.4-48-81-15.7-40.3-15-97 8.7-108.8 71.5-163.5 27-28 61-49 24.4-14.1 54-23zm21.5 15q-33 1-56 10l-4-1q-22 2-35 12l-34 24q-40 36-67 86-13 23-22 52-6 20-8 45-1 22 2 40l10 40q18 52 51 90 28 30 68 49 30 15 73 18 49 2 85-10 47-15 82-44 30-26 48-63 22-48 27-112 2-53-10-91-11-36-33-60-36-40-86-64l-47-16-38-5-3 1z"/><path fill="#fefefe" stroke="#fefefe" d="M500.5 342q28.5-2 50 3 28 5.5 51 16 47.2 23.3 81.5 59.5 47 49 43 149-4.2 52.3-20 93-16.5 42.5-47.5 70.5-30.2 27.8-73 43-34.4 13.6-82 14-50.1-2.4-85-20-34.7-17.3-59.5-44.5-30.5-34.5-48-82l-11-40q-4-18.5-3-42 2.1-28.4 10-51l21-48q25.2-46.3 62.5-80.5 24.4-23.1 60-35l3 5zm18.5 19-4 2q-7 2-7 11l5 2 1-2 7-5 2 1-11 29 1 3 6 3 21-1 2-5-4-4-11 1h-5l9-22-1-9q-2-6-11-4Zm-23 4-2 3v34l3 3 5-2q2-21-2-36zm-89 13q-5 1-4 9 1 4 8 3 4-1 2-8-1-5-6-4Zm212 2-2 1-3 6 1 2 5 3q6 1 7-3l-2-7zm-17 11-4 5v27l6 2 2-2v-29zm-187 5-4 7-1 16 1 9 6 1 2-2 1-24-1-4zm18 0-4 6-2 23 2 6h6l2-4 1-21-1-8zm93 46-7 4-1 2q-2 4-3 1-15-2-22 4l-6 9 1 6-42 13-7 4q-7 4-9 13l1 9 9 13 45 39 3 4q-2 15 6 21l8 3 2-1h2l4 1q12 0 19-6l6-10v-7l47-31 10 24-14 5-3 6q19 20 48 31l3-4 2-38 2-10-1-3-2-2-14 5-10-28 22-13 5-6 14-10 1 1-1 8 5 2q2-3 4 2l4-1 7-11 14-1 3-2-1-5-11-2 13-23v-5q-2-5-12-3l-5-4q-10 0-13 6l-22 2-6 4q1 9 8 13-21 9-37 23l-18-41-8-7h-9l-16 4-2-2q-4-8-16-6Zm166 8-4 4 1 7 5 3 3-1 1-2-1-8zm-353 8-4 7 6 4 5-3-1-6zm37 3-2 1-8 12q-1 9 2 13l5 3 11-1 7-10-1-10q-4-8-14-8Zm-21 1-3 4-2 29 6 2 2-2 1-9v-22zm336 76-9 3-4 5 3 3 8-3 5 1-1 2-4 3-5 6 1 2 12 3 1 6q-5 7-18 6l-3 4 4 4q14 2 21-5l5-8-2-10-6-5q4-4 3-12-2-6-11-5Zm-355 1-9 4-8 11 1 6 6 4q9 1 13-3l1 1-2 10 1 12q1 3 7 2l2-3-1-3 1-21 2-8-1-7-8-5zm28 83-8 3-6 7v6l6 8-5 11 1 7 11 7 11-2 3-5q0-14-8-18l7-12-1-7zm298 3q-11 10-15 27l6 3 13 1-1 8 1 7 6 2 3-7 2-27-5-3q-5 3-4 11h-10l7-15v-5zm-329 33-3 3 1 8 4 2q5 1 6-2l-1-8q-1-4-7-3Zm357 0-4 4 1 7 3 1 5-1 2-3-1-6zm-260 31-17 3-3 4 3 2 18 1-11 30 6 2 3-3 11-31-1-5q-3-4-9-3Zm168 0-6 2-5 13 1 8 4 1h2l11 2-1 4-17 8 1 4 3 1q12 1 17-5l6-9-1-7q-5-7-17-6l1-6 19-2 2-5-2-3zm-84 25-2 1q-12 9-15 26l1 13 7 11 3 1 16-6 7-10-1-8-7-5-8 2-8 10-2-1 3-16 9-12v-4zm-110 20-2 1-3 5 5 6 8-1 1-6q-1-6-9-5Zm214 0-3 1-3 5 2 7 8 1 2-3-3-9z"/><path fill="#fefefe" stroke="#fefefe" d="M525.5 449q8.3-1.3 10.5 3.5l-.5 1.5-7 3-6.5-4.5 1.5-2.5zm36 4q8.6-1.1 10.5 4.5 14.5 33.5 25 71l12.5 27.5 11-3 .5 1.5-3.5 34.5-30.5-21.5 14-7-2-9-11-25-18-33-4-16 2-7-4.5-2.5-5 9-23 6-.5-2.5 1-9-4-9zm-51 4q9-1 11.5 4.5l-1.5-.5zm-11 1 3.5 1.5 2 3-11.5 3.5-.5-2.5 3.5-4.5zm-125 12 3 1 2-1q3.8 1.3 2.5 7.5l-2.5 3.5-4 1-2.5-7.5zm132 0 3.5 1.5 1 8-15.5 5.5-30 16-10-2-.5 3.5 11 6q4.9 12.1 15.5 18.5l17.5 16.5-8.5 11.5-46.5-42.5q-7-3-6-14l5.5-7.5zm19 14 .5 1.5-4.5 6.5.5-1.5z"/><path fill="#fefefe" stroke="#fefefe" d="m558.5 484 11.5 25.5q-26.9 14.6-48.5 34.5h-4l-2-3-7-1-2 1-23-24-3.5-2.5-7-8 18.5-10.5 8 9 9 2q11.8-1.2 18-8 3.7 4.8 13 4l6.5-5.5 2.5-10.5z"/><path fill="#fefefe" stroke="#fefefe" d="m505.5 489 1.5.5 2.5 4.5 6.5 2.5-10.5 2.5-7.5-5.5.5-1.5zm27 1 7.5.5-1.5 4.5-7.5-1.5zm-196 56 3.5.5-6.5 8.5-4 2-2.5-1.5 6.5-8.5zm27 84 3.5 1.5-4.5 7.5-4.5-3.5 2.5-4.5zm-1 22 2.5 1.5 4 7-6.5 1.5-2.5-1.5zm157 94 3.5 1.5-5.5 6.5-3 1-.5-1.5z"/><path fill="#b19e65" stroke="#b19e65" d="m603.5 155 4 1h2q14.6 1.9 21.5 11.5 6.8 8.7 8 23-.7 18.8-12.5 26.5l-16 6-5.5 4.5q-5.5 6.5-6 18l-3.5 4.5q-6.5 1-7.5-3.5-3.3-7.2-2-19l8.5-15.5 17.5-14.5 3-10q-.2-7.2-5.5-9.5-12.1-1.6-14.5 6.5l-5.5 6.5-9 3-6.5-4.5-1-9q2.9-11.6 11.5-17.5 6.9-6.6 19-8Zm-75 17q5.5-1 6.5 2.5l-1.5 4.5.5-1.5-1.5-4.5q-5 1-4-1Zm-21 34-7 8zm192 0 5 6zm-220 1-9 10zm185 3-6 7zm-255 9 2.5 1.5-1.5-.5-10 9zm57 2-6 7zm-14 5-8 9zm2 8-5 6zm-64 4-5 6zm-7 8-1 3 1.5.5-1.5.5-1.5-.5-1.5 2.5-1-2-1.5.5 1.5-2.5 2 1zm272 0 18.5.5-18.5.5zm-4 2-5 6zm56 7-5 6zm-253 4-.5 1.5 4 5-5-4zm90 1-5 6zm47 2q8.9-.4 11.5 5.5l1 7-4.5 6.5-10 4-7.5-5.5-1-8 4.5-7.5zm43 35 6.5 1.5-1.5-.5-6.5 1.5 1 4-2-1zm-135 20 17.5.5-17.5.5zm6 24 18.5.5-18.5.5zm-144 27-7 8zm319 2 12 13zm-274 8 3.5.5-6 3q-1.2 6.3 2.5 7.5l6-2-2 3q-6.5 1-7.5-3.5-1.2-7.2 3.5-8.5Zm-58 2-15 16zm9 3-12 13zm30 1-14 15zm296 2 6 7zm-315 9-7 8zm159 0 10.5.5-10.5.5zm143 1 7 8zm-343 5-5 6zm174 0 .5 1.5-5.5 2.5-1-2 4 1zm-131 1-5 6zm41 0 .5 10.5h-1zm-74 1-10 11zm335 6 7 8zm-236 3 .5 14.5h-1zm232 37 11 1 2.5 2.5-2.5-1.5h-10zm-160 7 5.5.5-4 1 5.5.5 1.5-.5-.5 1.5 2-1 1 3 5.5 3.5q4.7 4.8 3 16l-1.5 3.5-2.5 1.5-7.5 11.5-7.5-3.5 6-3 4-13q-3.1-14.1-10.5-21.5Zm151 2 13.5.5-18.5 32.5-1.5-.5-6.5-10.5-13 7-33 24-4.5-11.5 44-27-6.5-10.5-1.5-.5.5-1.5zm-301 16 .5 11.5h-1zm15 4 2 4 3-1-1 2-4.5-2.5zm15 5-5 6-1.5-.5zm50 2-5 6z"/><path fill="#b19e65" stroke="#b19e65" d="m645.5 491 7 11 2.5.5-2.5.5q-2-5-4-2l-4.5-2.5zm-16 8 .5 1.5q-10.1 11.4-25.5 17.5l2-3zm-155 9 5 6zm-5 6 12 13zm-23 1 14 15zm126 0 5.5 9.5-39.5 27.5-11.5 10.5q.5 10-5.5 13.5l-10 3q-8.4-1.1-12.5-6.5-3.5-4-2-13l6.5-8.5 12.5-4.5 1-2-2-3 2 1 .5 1.5 4.5.5.5 2.5zm-89 2 7 8zm-43 2 15 16zm57 12 6 7zm-8 2 10.5 11.5h-1zm245 8 .5 27.5h-1zm-268 2 5 6zm260 4 .5 16.5h-1zm-387 2-5 6zm420 2 .5 25.5h-1zm-495 4 .5 27.5h-1zm25 5 .5 22.5h-1zm198 1 2.5 11.5 6.5 8.5 9.5 4.5-2.5.5-2 1-7.5-3.5-6-11zm90 1-1.5 2.5v3l7 7-8-7zm75 92h13l1.5 1.5-.5 4.5-1-5h-13zm-37 35 2.5 5.5-3 2 2-5zm-18 8 15.5.5-16 1-.5 1.5-.5-1.5zm83 25-5 6zm-328 8 15 16zm350 0-7 8zm-372 1 5 6zm334 7-5 6zm-327 1 11 12zm160 1 .5 10.5h-1zm192 3-8 9zm-359 1 14 15zm176 45 15.5.5-15.5.5zm108 5 1.5.5-7.5 3.5v-1zm-122 3 31.5.5-31.5.5zm10 14 21.5.5-21.5.5z"/></svg>