<svg xmlns="http://www.w3.org/2000/svg" viewBox="0 0 1024 1024"><path fill="#0c0c0c" stroke="#0c0c0c" d="M427.5 159h28l3 2 2-1 24.5 5.5-1 2 2.5-1.5 7.5 1.5-4 1 2.5.5 5 3q3-1.5 0-3l-2.5-.5 2.5-.5 22.5 9.5-.5 1.5-1.5.5-1 3 3.5 1.5.5-2.5-2-1 3.5-1.5 9.5 5.5.5 1.5 3 1 16 8 29.5 19.5 2.5 3.5q24.9 14.6 43.5 35.5l7 9 6.5 15.5 1.5.5 1 3-1 2 12 20 16 39v7l8 38 2 28-2 28-8 40-13 39-10 19 13 20 1 19-3 10 3.5.5 9-1 12.5 6.5 3 7-1 9 11 18 15.5 19.5 2.5 1.5 1.5 2.5q36.1 22.9 66.5 51.5l20.5 25.5 7.5 6.5 17.5 29.5 13-7 2 1h2l7 1 10.5 8.5 4 7-1 2 1 7-7 16 6 7 1 15v2l-4 14 1 6-9.5 12.5-29 15h-10l-18-5-2 3q-6.5 5-19 4L762 865.5l-3-5-1-9 2-14q-26.8-16.2-49-37l-.5-1.5-4.5-3.5-.5-1.5-7.5-5.5-56.5-77.5-6.5-5.5-8.5-9.5-13-6-3 1-4-3-4 1h-2l-3.5-1.5-4.5-5.5-1.5-.5-7.5-17.5-16 4-5-3h-3l-16-11q-18.7 14.3-44 22-23.2 2.8-42 10l-28 4-1-2-2 3-9-1-8 2-11-2-5 1-30-6-64-25-34-19-18.5-16.5-8.5-10.5-1.5-.5-7.5-10.5-1.5-.5-19.5-24.5-1.5-.5-4-5-7-19-13-25-10-43-1-11-3-6 1-2-3-10 1-3q-4.4-15.6-4-36l6-36 25-70 18-29q15.4-14.6 26.5-33.5l2.5-1.5 16.5-17.5 6.5-5.5.5-1.5 17-15 33-20 24-9 61-17 2 1 7-3zm-6.5 17v5l-3-1-1 2-2-1-4 1h-2l-2-1-17 3-9 5-5-1 1-4v-2l-29 8-24 12-1 2-3 1-1 2-2 1-2-1v3l-1-2-1 2h-1l-1-1-1-1-1 2 3 2-2 1h-4l1 3h-1l-1 2-1-1-1 2h-1l-1 2h-1l-1 2-2-1-2 4-5 2-1 2-3 2-1 2-12 9-2 3-10 8-23 27-30 65 2 5-4 23v27l1 3v2l-1 2 7 64 7 32q10 32 26 58l27 23 1 3 27 19 60 32 27 5q15-1 26 2h2l3-1h2l29 3 2-1 8 1 18-2 22-8 2 1 32-14 44-34v-1l8-7q26-23 45-52l27-78 5-23 1-16v-2l-7-54-5-19-25-49-21-31-1-1-2-2-2-2-1-2-1-1-13-13-2-1-1-1-1-1q-5-1-4-6l-1-1v2h-1l-2-3h-1l-1-2h-1l-1-1-3-2-1-1-24-17-38-14h-2l-13-4h-2l-3-2-35-7-6 1-5-1h-2l-5 2h-2l-1-3-2 4-1-1-2 1-1-1v-2zm-137 50-11 8-2 3-3 4 12-9 1-2 2 1v-2l2-1v-1zm-82 195-4 3q0 20 4 37l2 1-3-35-1-3 2-1zm-21 25q-3 16 3 27v-7zm453 111q-10 17-23 30h-1l-1 2h-1l-15 16-2 1-1 2-11 9 15 15 4-2-10-12 1-2 3 1 9 10 7-6q-7-1-9-6l1-3 10 8 23-22 10-5 1-2-2-6 5-10-2-7zm10 41-7 8 1 2 8-4-2-3 2-1v-1zm17 4-1 3-3 1-2-3-7 1-3 5-5 4-3 4-3 2-14 17 1 5 9 7 2-3-4-8 2-1 2 4 4 1v-1l17-15v-1l12-8h5l-1-10q-2-4-8-4Zm-84 16-4 3 16 17 3-2zm-8 5-2 2 16 17 3-1-8-9-2-2-1-1zm-6 4-2 2 17 17h3l-11-13zm-5 4-1 3 4 5 12 8v-1zm116 1-1 2-3 4 3-1 3 1 4 10 29 41 7 5 7-4 17 13 1 4 2-1 17 13 2 4 4 2 1 3 3 1 33 43 9 3-1 5 3 5 5-7-3-2q-12-23-28-41l-1-1-17-17-72-56-9-9-1-1zm-57 9-5 6 2 3 8 6 3-1 2-3-8-9zm-7 8-2 2 1 3 11 8 1-2-3-2zm-4 5-2 2 2 4 10 8 1-2-5-5zm-3 7 2 7 6 3h2l-3-2zm167 88-1 3 8 8h1l-6-9zm70 28-2 1-1 5-5-1-1 2-4 3-2-2q3-2-1-4l-2 9 4 1q-6 14-17 25l-21 18q5 7 15 10l6-1q3-1 0-3l-2 1q-9-1-12-7l1-3 12 6h2l4 1v-1l-8-5 1-4 9 5-1 2 1 1q4-1 3-7l4-2v-1l2-1 5-9 6-4 3 3q-5 16-15 28l14 6 4-1 4-5 3-1 4-12q1-11-3-16l-4-3-2-4 7-17-2-8zm-55 58-2 1-1 2 14 11 4-1-9-6-5-6zm-7 3 2 6 11 9h3l-6-4-8-9zm-3 4-2 4 1 5q2 5 10 6l4-1-5-4zm46 3-1 2 13 7v-1zm-4 4-1 2 10 6v-1z"/><path fill="#0c0c0c" stroke="#0c0c0c" d="M416.5 208h29l7.5 2.5 1.5 2.5 2-1 4 2h2l35 7 10.5 4.5 1.5 2.5 1-2 5.5 2.5.5 1.5h2l23 9 12.5 8.5.5 1.5 7.5 5.5-2.5.5-1.5-.5.5 1.5 2 1 3-1 1.5 2.5-.5 1.5 8.5 5.5 25 35 .5 3.5 2.5.5 8 16h-2l1.5 3.5 1-2 .5 2.5 1 3 15 44 6 30v20l-4 20v2q-13.6 63.4-48.5 105.5l-1.5.5-2.5 4.5-2.5 1.5-5.5 6.5-2.5 1.5-.5 1.5-1.5.5-.5 1.5-12 8 3-4 1.5-.5.5-1.5 1.5-.5 2.5-3.5 6.5-5.5-.5-1.5q-23.2 22.3-53 38l-35 14-35 8-2-1-21 3-10-4-28-6-42-15q-23.3-9.2-39.5-25.5l-.5-1.5-1.5-.5-1.5-2.5-2.5-1.5-4.5-5.5-1.5-.5-6.5-7.5-11.5-10.5q-18.1-17.4-26-45l1.5-2.5 1.5-.5-.5-1.5-1.5.5-6-12-9-42v-2l-1-22 2-10-1-3 1-4-1-6 3-12v-2q3.5-23 12.5-40.5l.5 1.5-3 10h1l24.5-51.5 1.5-.5q6.3-15.2 17.5-25.5l21-18 37-21 36-15zM401 226l-5 1-1 2 10-2zm81 4-2 2 2 2v-1l4-1 3 1 4 1v-1zm47 8-2 2 37 25v-1l-2-1 1-2v-2l-2 1h-2l2-1-2-1-1-1h-1l-6-6h-1l-5-3 1-2-2 1-5-3v-3l-3 1-1-1v-3l-1 3-1-1h-1zm-105 7-43 8-8 3-7-1q-40 13-66 39l-20 22-9 15h-1l-3 6h-2l-2-4-10 28h-1l-7 42 1 18-1 3 1 22 5 17 19 49 8 15h2l15 19 4 2 3 5h2l6 8 18 14 14 7q30 13 66 20l2-1 5 2 17 1 25-1 44-14q39-19 68-48l13-17v-2l-10 8h-2l1-2 7-6 12-20 5-14 9-61-1-2v-2l1-5v-2l-6-29-16-44q-13-29-36-48l-9-7 2-1-11-6-1-3-2 1-42-21-28-7-1-1-2 1zm182 101 2 10h1z"/><path fill="#0c0c0c" stroke="#0c0c0c" d="m476.5 277 3.5.5-12 19q41.9 14.6 67 46l14.5 20.5 10.5-5.5q-8.4-28.1-26.5-46.5-19.7-18.3-49.5-26.5l-2-4 3.5-1.5 30 14 10.5 7.5.5 2.5 1-2 9.5 7.5 17 23 8 17 .5 7.5 3.5 2.5-12.5 9.5-5 1-2-6-3.5-1.5q-12-20-29.5-34.5-19.3-17.2-47-26l-3 1-2.5-5.5 11.5-14.5 3.5-1.5v-2zm-60 80 2.5 1.5 1.5 4.5 20-1 4 1 2-6 2.5.5-1 5 22.5 10.5 4-7 1.5.5-1 11 10.5 9.5h3l9-8 .5 6.5-5 9 5 3-2 4 5.5 2.5 13-7 .5 1.5-10 13 3.5 4.5q9.7 1.7 14-2l-.5 1.5-7.5 10.5-9 5h-5l-1.5-.5-2 8 6 5 1 4q-1.7 3.3-3.5-.5l-6-2-5.5 3.5 5 12-1.5.5q-2.5-6-12-5l-6.5 4.5 2 6 1 3-.5 1.5-2.5-.5-.5-3.5-5-3-20 7-32 3-3-2-21-2-7.5-6.5-3.5-4.5q-6.9-7.1-19-9l-11 2-10.5-6.5-1-8 4.5-7.5 5.5-3.5 14.5-19.5 1.5-.5 8-11-6.5-3.5-15 19-2.5-.5 18.5-27.5 2 1 17.5-12.5.5-4.5 6 2 21.5-6.5-1-4zm5.5 12v7l10 2 9-7-1-2zm-9 1-17 6 4 5 12-2 3-8zm36 2-2 8 7 2 11-2v-1zm-63 5-8 5-6 7q2 4 4 1l2 1q9 0 13-5l-1-7-10 7-3 2 1-3 10-7zm31 15-16 11-2 3-1 3-4 9 1 9-1 2 3 7 1 3 2 5q10 8 29 8 12-1 20-7 9-7 9-22l-1-11-3-2-2-3 3-1-1-4q-8-11-28-9h-2zm-26 8-13 10-7 8-8 6-1 2 2-1 3 16-3 1-5-9-1 4h-1l-1-3-6 4 3 5 7-2 2 4 12 1 18 12 23 6 3 2-4 1h-2l-9-3-7 1 6 2 18 2 32-2 15-6 4-5 9-6 11-15 6-3v-1l-5-3-3 7-11 14q-15 14-40 17l-1-1q20-4 34-15l1-2 2-1q9-8 15-20l-3-4-20-19h-2l3 16v2q-1 13-8 22l-16 13-20 2-13-3-9-6q-10-8-14-22-2-19 5-27zm72 18-2 2 1 8 1-2zm107.5-44 4.5 2.5 3 11v2l1 2-2.5 7.5-14 4-7.5-22.5zm-3.5 6-6 4 6 13 7-3-3-13z"/><path fill="#0c0c0c" stroke="#0c0c0c" d="M434.5 398h4l6.5 4.5 1.5 3.5 2.5 1.5q1.7 7.7-2.5 9.5l-3.5 2.5 2 4-7.5 11.5-12 3-11.5-6.5-1.5-2.5-1.5-.5-2-12 7.5-11.5q4.2-4.3 14-3zm1.5 4-6 8 1 3 6 4 6-2 2-3-3-6zm-11 11q-2 7 3 9h2zm-57.5 49 8 3 3-1 23 14q7.5-2 9.5 1.5l-.5 1.5 23 3 5-1-1 2-14 1-27-6-18-8-11.5-8.5zm13.5 7 6 5h2zm451.5 370 9.5 4.5-.5 1.5q-7.6 1.1-9.5-3.5z"/><path fill="#fcfcfb" stroke="#fcfcfb" d="M.5 0 1024 .5l-.5 1023.5L0 1023.5zM430 158l-23 2q-11 5-26 6l-7 4q-32 6-57 17l-32 19-27 24-4 5-3 2-1 2-2 1-35 42-19 31-23 64-6 36-1 3v16l3 26 2 13 3 5 6 36 7 23q11 15 17 36v2l1 2h2l1 3h2l5 9 6 4 4 7h2l21 27 27 21 26 14q19 5 35 15l43 14 27 3q10 2 16-2l6 2 72-15q26-7 45-22l26 14 16-4 3 14 11 11 2-1 3 1 2-1q3 3 12 2l7 4 13 15h2l54 75h2v2l20 17v2l27 21 16 11-1 6 1 13-1 2 5 9q5 7 15 9 13 0 19-7l24 5 20-8h2l11-7 10-14-1-5 3-10v-10l1-2q0-13-8-17l8-16-3-13-15-13q-10-2-14 2l-1 2-6 3-18-30-1-1-1-1-1-1-1-1-2-2-13-16-1-1-3-3q-30-32-68-55l-16-16-12-17-1-6-3-3-2-15q-5-8-16-10l-6 1h-5q4-4 3-12l1-3-1-12-13-20 9-19 12-34 6-33 2-3 3-23v-34l-4-22v-2l-6-31-14-35-13-22-1-7-1-1q-5-15-14-24-47-46-107-77l-18-8-50-10-2 1-2-1-5 1z"/><path fill="#fcfcfb" stroke="#fcfcfb" d="m437.5 178 19 1 36 8 50 18 17 11 39.5 36.5.5 1.5 6.5 5.5 19 28 25 48 5 15 5 29 3 24v24l-12 46-21 58-21.5 27.5-1.5.5-7.5 9.5-2.5 1.5-10.5 11.5-6.5 4.5-.5 1.5-1.5.5-1.5 2.5q-26.5 26.5-63 43l-38 12-21 1-3-1-2 1-3-1-2 1-48-4h-13l-21-4-11-5-53-29-43.5-34.5-1.5-2.5-1.5-.5-.5-1.5-1.5-.5q-18.8-26.2-29-61l-6-24-6-56-3-12 1-3-1-26 4-25-1-4 1-6-1-4 28-61 26.5-30.5 8.5-7.5.5-1.5 56-44q19.8-12.2 47-17l1 6 2 1q12.4-7.1 31-8l2 1zM424 207q-33 2-57 13l-48 24-23 17-1 2h-1l-14 16h-1q-21 29-34 65h-1l3-8v-6l-13 36-5 27 1 2-1 11 1 17-1 2v9l7 35 9 22-1 3q6 25 21 41l43 42 19 12 4 5 1-2 55 20 32 8q46-2 79-17 36-15 63-40l5-4-16 15 1 2 10-7 33-37 17-33 15-40q6-22 7-49v-2l-8-43-10-28v-2l-14-31-29-40-2-2-8-8-19-15-45-19-43-8q-4-5-11-5l-6 1-3-1-4 1zm-144.5 22-6 7-3 2 2-3z"/><path fill="#fcfcfb" stroke="#fcfcfb" d="M534.5 243q16.7 6.3 26.5 19.5l-3.5-2.5zm-118 3 4 1 5-1 46 9 19 7 39 20 18.5 15.5q20.5 18 33 44l19 54 3 13v20l-7 41-1 16-11 26-14 19 1.5.5 9-8-.5 1.5q-8.2 14.3-20.5 24.5-23.8 21.7-54 37l-43 15-11 2-2-1-2 1h-2l-20-1h-2l-3 1-3-1h-2l-32-6-41-14-14-7-20.5-17.5-.5-1.5-1.5-.5-1.5-2.5-9.5-8.5-21-25-10-24-17-48-1-26 1-3v-2l1-7h-1l-.5 3.5-.5-16.5 5-32 3-4 1-8 7.5-18.5 2 4 3.5-1.5.5-3.5 1.5-.5q12.4-24.1 32.5-40.5 25.3-24.7 64-36l5 1 11-4h8l6-3zm61.5 30-3 5h-2l-12 15 1 6h7l13 5 29 18q18 14 30 35l6 4 2 5 6-1 10-7 1-3-2-2-1-2q-6-23-19-38-23-25-58-37-2-3-4 2l1 4 12 3 33 18q22 19 31 52l-8 5-17-22-8-8-2-2-25-21-30-14 7-12 2-1 2-5zm-61 80-2 7q-14 0-21 6l-5-3-2 3 1 3-10 5-7 7-1-1-3 1-1 4-16 22 2 2 17-20 5 4-4 6-6 5-13 18-5 4-6 8 1 10 10 5 6-1 13 1 13 8 1 4 10 7q8-1 13 2l3-1 5 2 36-3 17-6 4 1 4 6 1-3v-2l-3-5 8-6q7 1 11 6l2-1-4-10-2-1 6-4 7 3h2l-2-7-5-3 2-5v-2l8-1 10-6 7-10v-2l-14 3-4-5 2-1 7-10v-3l-11 6h-7l2-5-5-3 4-9v-2l1-2v-3l-11 8-3-1-2-2-8-6 1-12-1-1-4 8q-9-7-21-9l-1-7-2-1-3 7-23-1-2-4zm152 18-14 7v5l9 18 15-6-3-20q-1-5-7-4Zm-319 19-3 15h2l2-14zm118 68-1 4q23 18 60 22 8 1 12-3l-2-1-24-2-2-2-8-1-23-14z"/><path fill="#fcfcfb" stroke="#fcfcfb" d="M425.5 369q9.6-1.6 14.5 1.5l-1.5 2.5q-3.7 5.8-15 4l-1.5-6.5zm-15 2 4.5.5-4.5 7.5-10 2-4.5-4.5 1.5-1.5zm39 1 14.5 6.5q-3.9 3.6-12.5 2.5l-4.5-1.5zm-61 8 1.5.5-1.5 6.5-10 4-5.5-2.5 1.5-3.5 5-4-2.5 3.5-1 3 2.5.5zm180 0 2.5 1.5 2 12-6.5 2.5-4.5-12.5zm-154 13 13 1h2q17.6-1.1 24.5 8.5l1 2-3 1-.5 1.5-2 1-2-3-1.5-.5-1.5-3.5-8-4-8 5-5-1-11.5 7.5-4 14 8.5 12.5q4.1 3.9 13 3 8.4-.1 11.5-5.5l4-11-1-2q6.6-1.9 6.5-10.5l6.5 3.5-2 23-5.5 8.5-12 6-15 1q-13.5-1-21.5-7.5l-6-13-1-11 5-10-1-2 3.5-4.5z"/><path fill="#fcfcfb" stroke="#fcfcfb" d="m390.5 401-.5 1.5-4 13 1 2-1 7q3.3 15.2 12.5 24.5 9 11 30 10l15-2 14.5-11.5 9-18v-14l-3-9 1.5-.5 16.5 14.5 6 9-11.5 16.5q-14.9 15.6-40.5 20.5l.5 1.5 6 1 23-9 16.5-13.5 10.5-15.5 3.5 1.5-.5 1.5-5.5 2.5-12.5 16.5-15 12q-10.1 4.9-25 5h-2l-14 1-6.5-1.5 14-2-.5-1.5-4 1-11-1-18-5-22-14-11.5-1.5-1.5-2.5-7 2-3.5-5.5 4.5-3.5 2 4 1.5-.5.5-3.5 5 9 3.5-1.5 1-2-4-10 1-4q-3.3-2.3 2.5-4.5l2.5-1.5 9.5-10.5z"/><path fill="#fcfcfb" stroke="#fcfcfb" d="m436.5 402 5.5 4.5 2 6q-2.1 3.9-8.5 3.5l-4.5-3.5q-1.2-9.2 5.5-10.5Zm-12 12 2 4 2.5 1.5-.5 2.5q-4.7-2.4-4-8Zm-225 9 3.5 24.5v12h-1q-4.3-16.7-2.5-36.5Zm-19 28 1.5.5 1 10-1.5.5-1.5-7.5 1-2zm219 13 9.5 2.5-5.5.5-4.5-1.5zm234 94 9.5 7.5 4 8q-6.3 2.8-5 13l1 5q-20.6 10.4-33.5 28.5l-1-2-4.5-3.5-1.5-2.5-2-1q-4.7 2.3-.5 4.5l3.5 4.5 2.5 1.5-6.5 4.5-10-11-1.5.5v3l9 11-3.5 2.5-12-14-1.5-.5 3.5-4.5 33.5-32.5zm11 40 .5 1.5-1 3-.5 2.5-6 3-.5-1.5zm17 4 6.5 2.5 1 11-1.5-.5-12 6-21 20-6-6-1.5 1.5 4 9-2.5 1.5-3.5-2.5-5-8 27.5-31.5 7-1 4 3zm-86 17 4.5 3.5 11 13-3.5 1.5-14.5-16.5zm-7 5 15.5 14.5 1 2-1.5 1.5-6.5-6.5zm-5 3 16.5 18.5-1.5.5-16.5-17.5zm-6 4 15.5 14.5-1.5.5-8.5-5.5-3.5-5.5-2.5-1.5zm116 2q10.8 17.2 26 30l54 40 24.5 22.5 2.5 3.5 1.5.5.5 1.5 6.5 5.5 26.5 39.5 2.5 1.5-4.5 6.5-2.5-3.5 2-6-11-5-31.5-40.5q-21.6-22.4-49-39l-7 3-30.5-39.5q-2.5-10.5-9.5-16.5l-3.5-.5zm-57 8 1.5.5 6.5 8.5 1.5.5-2.5 4.5h-3l-6.5-6.5-1-3zm-7 9 6 7 4.5 2.5-.5 1.5-10.5-8.5zm-4 4 9 10 2.5 1.5-2.5 1.5-9.5-9.5zm164 96 1.5.5 6 8-7-6zm69 28q8.6-1.1 10.5 4.5l2 5-4 6-3 17 6 3 3 13q-2.2 13.8-11.5 20.5l-6 1-10.5-5.5q9.6-11.9 15-28l-5.5-3.5-5.5 4.5-7.5 10.5-3.5 2.5-.5 3.5-11-5-1.5 4.5 8 5-5.5.5-12-7-.5 3.5 4.5 5.5 9.5 2.5-9.5 1.5-8.5-6.5-2-3 20-17 18-26-5-2 2.5-5.5.5 1.5.5 2.5 8-4 2 1zm6.5 58-4 5-6-2q-2-3-4 2l1 2 7 3 4-1v-2l2-1 2-5zm-61.5 0 2.5.5 7.5 8.5 4.5 2.5-3.5.5-8.5-6.5zm-5 3 10 11 4.5 2.5-1.5.5-9.5-7.5zm-4 4 9 10 4.5 2.5-6.5.5-6.5-4.5z"/><path fill="#fcfcfb" stroke="#fcfcfb" d="m821.5 845 11.5 7.5-3.5.5-8.5-6.5zm-5 5 9.5 5.5-1.5.5z"/><path fill="#797876" stroke="#797876" d="m429.5 158 12.5.5-12.5.5zm-15 1 12.5.5-12.5.5zm69 5 5.5 1.5-4.5 2.5-.5-1.5.5-1.5-1.5.5-.5 1.5-1.5-.5.5-1.5zm-25 2 2 1 2-1 2.5 1.5-.5 1.5-3-2-4 1zm32 0 6.5 1.5-2 1 2.5.5 4-1v1l-3.5.5-.5 2.5-5-3-2.5-.5 4-1zm13 3 2.5 1.5-1.5.5-1.5-.5 1 3h-3zm13 6 20.5 11.5-1.5.5-3.5-1.5-1.5-2.5-9-4-2.5 1.5 2 1 .5 2.5 3-1 1.5.5-.5 1.5-8.5-2.5 1.5-3.5 1.5-.5-.5-1.5zm-109 1 3 6 4-1v1l-4 1h-2l-13 1v-1l11-2 2 1-.5-1.5zm13 0 1.5.5v2l.5 1.5 2-1 1.5.5 1.5-3.5 1 3h2l5-2h2l4.5.5-24.5 4.5-.5-1.5 1.5.5 2.5-.5-.5-1.5-1.5.5zm-31 8 4.5.5-10.5 3.5 1-2zm-84 9-1 2-5 3 1-2zm22 7-1 2-27 21-.5-1.5 2-1 .5-1.5 1.5-.5.5-1.5 1.5.5.5-1.5 1.5-.5-1-3 3.5.5 2.5-1.5-3-2 .5-1.5 1.5.5.5 1.5 1.5-.5 1.5-2.5 2 1 2.5-1.5.5-1.5 3.5-1.5.5-1.5zm219 7 7.5 5.5-3.5-2.5zm-121 2 1.5.5-.5 1.5-1.5.5.5 1.5-2.5-.5-.5-1.5-1.5-.5 1.5-.5 2 1zm-149 3-10 11zm284 4 5.5 4.5-.5 1.5zm30 5 8.5 7.5-1.5-.5zm-23 1 2.5 1.5.5 1.5 1.5-.5.5 2.5 1.5-.5 1.5 3.5 1.5-.5-.5-1.5 1.5.5q-.7 5.8 3.5 6.5l1.5.5.5 1.5 2.5.5 12.5 13.5 1.5.5-.5 2.5-15-16zm-303 2-5 6zm21 1 1.5.5-.5 1.5-1.5-.5-.5 1.5-1.5.5-.5 2.5-2-1-1 2-5 4-2-1q2 3-4 6l-1.5-.5 5-4 .5-2.5 5-4 2.5-.5.5-1.5zm8 1-1 2-7 5v-1l3.5-2.5.5-1.5zm185 4 2 1h2l3-1 7.5 2.5-.5 1.5-4-1-3-1-3.5.5-.5 1.5-2-3zm-195 4-8 9-3.5 1.5-7.5 8.5-11 10 6.5-7.5.5-1.5 6.5-4.5-3-1-.5-1.5-1 2-.5-1.5 3-2 2.5 3.5 5-6zm245 4 3 2 1.5-.5.5 1.5 1-3 .5 2.5.5 1.5 3-1 .5 1.5-.5 1.5 2.5 1.5-1.5-.5-12.5-5.5zm-281 2-5 6zm368 1 11 12zm-170 1 3.5 1.5.5 1.5 1.5.5.5 1.5 1.5.5-2 1-2.5-3.5-1.5-.5-.5-1.5-1 2zm103 1 .5 2.5.5 1.5q1.8-3.7 3.5-.5l-1 2 .5 1.5-2-1 .5 1.5 5.5 6.5 2-3 4.5 1.5-3 2 3 2-1 3 2 1 .5 1.5 1-3 1.5.5 2 3h-2l.5 2.5 1.5.5-.5 1.5-7.5-6.5-.5-1.5q-1.7 2.8-3.5-1.5l1-1-7.5-7.5-8.5-5.5 3-1-.5-1.5 1.5 2.5-.5 1.5 3 2q3.3-1.7-.5-3.5l1-2zm-255 20-5 6zm-41 1-7.5 8.5-7.5 10.5.5-1.5zm321 2 3 4-1.5-.5-.5 1.5-1.5.5-.5 1.5-1.5-3.5.5-1.5 1.5.5.5 1.5q3.2-2 0-4Zm-37 3 9.5 7.5-.5 1.5-4.5-3.5-.5-1.5-4.5-2.5zm-215 7-2 3-5 4 4-5zm154 4-1 2-5 3 3-4zm10 1 4 2 1.5.5-.5 1.5-3-1-1.5-.5zm45 1 8.5 4.5-3.5.5zm-222 4-5 6zm240 12 16 17zm-253 1-7 8zm242 10 6 7zm-252 1-5 6zm231 13 7 8zm94 0 2.5 7.5h-1l-3-5zm-97 4 17 18zm-298 2 .5 1.5-3.5 6.5-.5-1.5zm311 4 7 8zm-282 3 1.5 2.5-1 3 .5 1.5-1.5-.5 1 2-2.5 4.5-.5-1.5 1-5-1-2h1l.5 1.5.5-2.5-.5-1.5 1.5.5zm137 43-.5 1.5-3.5 5.5-1-2-1.5.5 5-3zm-175 5 .5 14.5h-1zm207 9-2 3-4 3 3-4zm266 3 .5 17.5h-1zm-434 6 1 11 1-4 .5 4.5-2 4 1 3-2 1 1-3zm205 5 2.5 1.5.5 1.5 3.5 1.5-1.5-.5-5-2-1 5-.5-5.5zm21 1 8 9zm-94 2-6 7zm302 6 .5 14.5h-1zm-159 2-2.5 3.5-1.5 3.5.5-1.5zm-319 3 .5 1.5-3 1-.5 8.5-.5-8.5zm165 0-1.5 4.5-.5 3.5-1-4-1.5.5.5-1.5zm-121 2 .5 15.5h-1zm195 9-3 4-5 1v-1zm-231 2 1.5 12.5h-1zm279 4-3 4-3.5.5zm-4 5-3 4-3.5.5zm193 1 .5 3.5-2.5 8.5-.5-1.5zm-220 1-5 6zm-254 4 .5 12.5-2-1zm214 15 8 1 3-1 .5 1.5-1.5.5h-2l-2-1-2 1h-2zm-42 2 8.5 4.5.5 1.5 3 1 6.5 2.5-2.5.5-5-2v2l-2.5-1.5 2-1zm-89 69 8 9zm-5 15 6 7zm352 7 7.5 6.5-6.5-5.5zm-69 1 1.5 1.5-5.5 5.5q-2.2-3.5 4-7Zm-7 6-5 6zm-355 8 2.5.5q-3 2 2 4l-.5 1.5-2-3-1.5-.5zm414 8-5 6zm-404 4 5.5 6.5-5-4zm321 3 .5 1.5-5.5 4.5-.5-1.5 4-2zm74 2-14 15zm-32 2-7 8zm-9 8-5 6zm64 0-20 21zm-387 21 7.5 8.5-5-4zm325 3 6.5 5.5-5.5-4.5-2 1zm7 1 7 8zm-11 3 5 6zm6 1 6 7zm49 16 5 6zm-5 5 5 6zm-5 4 7 8zm-3 6 7 8zm-4 2 7 8 1.5.5-.5 1.5-2-1-1 2-1.5-2.5.5-1.5-1.5-.5zm105 24 6.5 7.5-5-4zm-279 3 1 2 6-1v1l-8 1 .5-1.5zm198 8 8 9zm92 15 4.5 1.5-.5 1.5 2-1-.5 1.5 1 2-3.5-2.5zm35 2 5 6zm44 12 5 6zm-24 8 5 6zm-4 16 2.5 1.5 3 4-4-3-.5-1.5zm2 5 6.5 4.5-.5 1.5zm25 9 5 6zm27 18 2 3-1.5-.5 2 3-3-2zm27 7 .5 1.5-3.5 6.5-.5-2.5zm-4 9 .5 3.5-2.5 5.5-.5-1.5zm-123 13 5 6zm111 1 5.5 3.5-.5 1.5-2-3-2-1-5.5 3.5-5.5 9.5-1.5.5-.5 1.5-3.5 1.5q1 6.5-3.5 7.5l-.5-1.5 1.5-2.5 1.5-.5 2.5-5.5 6.5-5.5 5.5-8.5zm-26 5-6 7zm-2 11 3.5 2.5-2.5-1.5-1.5.5 2 5-3-2zm-11 3 6.5 4.5-4.5-3.5zm-40 4 4.5 3.5-.5 4.5-2-6zm108 1 .5 1.5-1 4 1 5h-1l-1-8zm-14 2 .5 2.5-1.5 2.5-2.5.5-4.5 5.5-4 1v-1l5.5-2.5-2.5-3.5-3.5-1.5 1.5-.5 4.5 1.5.5 3.5 1.5-2.5-.5-1.5q2.3 3.3 4.5-2.5zm-42 3 2.5 1.5-7.5 2.5 1-2 5.5-.5zm50 15-4 5-5 3 3-4z"/></svg>