<svg viewBox="0 0 1024 1024" version="1.1" xmlns="http://www.w3.org/2000/svg" desc="Created with imagetracer.js version 1.2.6" ><path fill="currentColor" stroke="rgb(0,0,0)" stroke-width="1" opacity="1" d="M 504.5 231 Q 545 230 571.5 243 Q 604.9 257.6 627 283.5 Q 661.7 319.3 664 387.5 Q 662.5 419.5 652 442.5 Q 637.4 475.9 611.5 498 L 606 502.5 Q 613.7 510.8 625.5 515 L 671.5 529 L 700.5 542 Q 728.1 556.9 748 579.5 Q 774.4 609.1 785 654.5 L 789 681.5 L 789 776.5 Q 786.5 785.5 779.5 790 L 772.5 793 L 251.5 793 Q 243.2 790.9 239 784.5 L 235 776.5 L 235 682.5 Q 243.1 604.1 290.5 565 Q 309.5 548.5 333.5 537 Q 362.3 523.8 396.5 516 L 418 504 L 414.5 499 L 397 482.5 Q 378.4 461.6 368 432.5 Q 359.6 409.4 360 377.5 Q 361.7 346.2 372 323.5 Q 386.4 290.9 411.5 269 Q 444.9 236.9 504.5 231 Z M 501 275 Q 465 280 444 299 Q 412 324 404 373 Q 402 397 408 415 Q 415 435 427 451 Q 453 486 508 492 Q 531 492 548 486 Q 571 478 587 462 Q 613 438 620 396 Q 622 370 616 353 Q 609 330 596 315 Q 580 295 557 284 L 525 275 L 501 275 Z M 458 525 Q 446 539 430 548 L 408 558 L 355 575 L 323 595 Q 295 617 284 655 L 278 693 L 278 749 L 280 750 L 342 750 L 343 749 L 343 685 L 348 676 L 359 669 Q 374 667 380 674 L 386 686 L 386 749 L 388 750 L 638 750 L 638 686 L 643 676 L 654 669 Q 669 667 675 674 L 681 686 L 681 749 L 683 750 L 745 750 L 746 749 Q 749 703 743 667 Q 736 633 718 612 Q 702 592 680 580 L 658 570 L 607 554 Q 582 544 567 525 Q 547 533 521 535 Q 483 536 458 525 Z " /><path fill="rgb(255,245,255)" stroke="rgb(255,245,255)" stroke-width="1" opacity="0.03529411764705882" d="M 0 0 L 1024 0 L 1024 1024 L 0 1024 L 0 0 Z M 505 231 Q 445 237 412 269 Q 386 291 372 324 Q 362 346 360 378 Q 360 409 368 433 Q 378 462 397 483 L 415 499 L 418 504 L 397 516 Q 362 524 334 537 Q 310 549 291 565 Q 243 604 235 683 L 235 777 L 239 785 Q 243 791 252 793 L 773 793 L 780 790 Q 787 786 789 777 L 789 682 L 785 655 Q 774 609 748 580 Q 728 557 701 542 L 672 529 L 626 515 Q 614 511 606 503 L 612 498 Q 637 476 652 443 Q 663 420 664 388 Q 662 319 627 284 Q 605 258 572 243 Q 545 230 505 231 Z " /><path fill="rgb(255,245,255)" stroke="rgb(255,245,255)" stroke-width="1" opacity="0.03529411764705882" d="M 500.5 275 L 524.5 275 L 556.5 284 Q 580.3 295.2 596 314.5 Q 609 330.5 616 352.5 Q 622.1 369.9 620 395.5 Q 612.8 438.3 586.5 462 Q 570.5 477.5 547.5 486 Q 530.8 492.3 507.5 492 Q 452.8 485.7 427 450.5 Q 414.8 435.3 408 414.5 Q 402.2 397.3 404 372.5 Q 411.8 323.8 443.5 299 Q 465.1 280.1 500.5 275 Z " /><path fill="rgb(255,245,255)" stroke="rgb(255,245,255)" stroke-width="1" opacity="0.03529411764705882" d="M 457.5 525 Q 483.1 535.9 520.5 535 Q 546.8 533.3 566.5 525 Q 582.4 543.6 606.5 554 L 657.5 570 L 679.5 580 Q 702.4 592.1 718 611.5 Q 736.1 633.4 743 666.5 Q 748.6 703.4 746 748.5 L 744.5 750 L 682.5 750 L 681 748.5 L 681 685.5 L 674.5 674 Q 668.6 666.9 653.5 669 L 643 675.5 L 638 685.5 L 638 750 L 387.5 750 L 386 748.5 L 386 685.5 L 379.5 674 Q 373.6 666.9 358.5 669 L 348 675.5 L 343 684.5 L 343 748.5 L 341.5 750 L 279.5 750 L 278 748.5 L 278 692.5 L 284 654.5 Q 295.3 616.8 322.5 595 L 354.5 575 L 407.5 558 L 429.5 548 Q 445.9 538.9 457.5 525 Z " /></svg>