<svg xmlns="http://www.w3.org/2000/svg" viewBox="0 0 1024 1024"><path fill="#0e0e0d" stroke="#0e0e0d" d="m498.5 187 24 8 8.5 8.5 9 19 3 23 1.5 1.5 15-5 41-4h2l84-12 3.5 5.5-.5 1.5 23-1 2 1 1-4 1.5.5 2.5 8.5 2-6 2.5.5 10 51-2.5 5.5-3.5-2.5-3.5-6.5-3 6-5.5-3.5-5-31-5.5-6.5q-14-1.5-23 2l-2-1-55 4-67 9-5.5-2.5-.5-3.5-6 1-2-1-1.5 1.5-2 18-5 14q-4.3 11.2-13 18l-2 9-7.5 7.5q-5.5 5-18 3-8.9-2.1-13.5-8.5-4.8-5.7-5-16 2.7-12.3 11.5-18.5l10-1 3.5-3.5 4-13-1.5-.5-89 13-34 3h-2l-11 1-2-1-14 2h-2l-15.5 2.5-40 60-24 40-1 7 1.5.5 8-3 34-3 5-3 1 2 24-1 31-6 147-17h2l15-1 8.5 1.5 1 4-23.5 5.5-144 17-38.5 7.5 6.5.5 48-8 139-13 33-5 .5 1.5-2.5 4.5-44 6-112 10-86 13-42 2-9.5 2.5 1 3-4 2 11 44v2l14 98 27 108 8 42 5 39v2l4 26v2l.5 4.5 23-6 35-6 53-6 3 1 97-13 63-12 65-6 87-19 22-2q3.8 7.8 7.5.5l.5-1.5 6 2 .5-4.5-8-18-5-28-25-97q-7.9-30.6-10-67l3.5-.5 2 4 2.5.5 3 6 10.5 52.5.5-5.5q-4.8-16.2-5-37l1.5-.5 1 2 1.5-.5 13 82 16 61 7 20v9l-3 2 5 20v10l-2.5 1.5-3.5-2.5-1.5-4.5-1.5.5-1.5 5.5-7.5 3.5.5 1.5 2.5 1.5-19 26 2 1-1.5 4.5-7.5 2.5-2.5 3.5-3-1-2 3-97 16-63 5-110 19-106 11h-2l-24 1-59 11-6-3-12 2-2-1-6 1-4.5-5.5 6-4-2.5-7.5-6 2-2.5-2.5-4-14-6-56-13-74-7-83v-2l-7-64-8-45-6-65-11-56v-9l1.5-.5 3 4 .5-4.5-1-4 2-7-5-3q-1-5.5 2.5-6.5l2.5-1.5-1-4 3-1 9.5-10.5 8.5-7.5 4.5-5.5 1.5-.5.5-1.5 6.5-4.5-10-1 1.5-2.5 9.5-2.5 3.5-5.5h14l18-4h8l72-14 63-6h2l5.5-.5q.3-35.7 20.5-51.5 7.1-6.9 19-9l1 2q6.8-5.7 20-5h2l3 1zm15.5 8q11 10 19 26h1l-8-17zm-28 3-11 1-11 6q-11 9-16 23l1 1 7-9 11-8 2 1-3 2q-16 12-24 32l1 3 16-25 13-12 13-4q8-1 12 3l1 3 9 6q8 9 10 25l-2 24h2q-5 19-15 34l-5 2 3 1 4-1 9-16 8-20 1 1q-3 17-11 30l-1 2 4-2 14-34 1 1-3 11 1 2q5-6 4-18l1-3 2-3-1-7 1-4q-3-22-15-35-8-15-33-13Zm0 19-6 3q-12 9-15 26l1 4 25-3 3 1 2-1 3 6h4v2l3 1 2-1q-1-18-7-29-5-8-15-9Zm-31 19-9 14 1 2 8-14zm-125 47-16 3q-27 35-48 75l3 20h2q20-40 45-75v-2l-27 33-3 2 45-55zm-29 4-30 47v2l-7 10 2 8 27-43v-2l-12 15-3 2 30-38zm-11 1-3 1-15 23 1 1 20-24zm-12 1-12 17 1 1 14-17zm-10 1-11 3 1 16 2 1 12-19zm235 2-12 9 1 4 4 1 7-12zm-216 8-26 31 3 8 23-37zm-39 5q-7 3-4 16v2l2 2q-2-8 2-10l-1-2 1-6zm22 3-10 11v4h2l8-13zm-30 4-5 6 6 29 6 47h1l-7-81zm252 2 5 3 5-1-2-2-2 1zm-260 7-8 9 5 21 7 55h1l-4-57v-26zm6 29 7 110 11 72-1 7 3 28-2 1-23-157h-1l4 45v2l4 37v2l11 95 21 124h1l-2-15 1-6 9 57 14 58 9-8q-11-59-17-122l-26-155-12-98zm-13 1-1 12 4 22h1zm24 4 1 25v2q5 30 5 65l8 62 24 145 4 33v2l2 13h1l-8-92q-4-34-12-63l1-4 4 9 7 32 5 35 8 86 18 87 12-10h2q1-11-3-17l-4 1-4-6-8-32-23-138-11-56-5-17-9-73q-10-43-15-89Zm81 35-50 6-5-1-5 1 3 6 25-6 32-4 1-1zm-18 286q1 35 11 65h1zm-17 26q2 51 12 98l3-2-3-29zm483 27-60 11-50 5-52 10-74 8q-49 11-103 16l-49 10-6-1 1-2-2-2-40 4-2 6h-4l-2-2-3-2-4 5 4 1 42-3 170-24 97-9 53-10 81-12 6-8zm-10 16q-44 11-91 17l-35 3-90 12h-16l-77 16v1l74-11 117-12 72-12 31-7 3 1-13 3-1 2 20-2 6-8zm-489 11q0 32 9 59l3-2zm218 23q-72 13-147 21h-21l-3-2-4 5 22-1 91-10 68-12zm87 2-118 16 1 1 97-11 27-5zm-136 14-9 2v1l14-2zm-61 6q-32 6-68 7l-5 4-5-1 2-1v-1l1-2-8 5-2 3 12-2h2l2 1 2-1 2 1 71-12z"/><path fill="#0e0e0d" stroke="#0e0e0d" d="m648.5 278 .5 2.5-6.5 9.5-3.5-1.5 5.5-8.5zm-45 13 4.5 2.5.5 2.5 5-1 1.5 3.5-16.5 19.5-5 2-2.5-1.5q3.8-16.2 12.5-27.5Zm.5 8-5 10 7-6zm109.5-3h9q11.9 5.6 29 6l14.5 8.5 38 51v4l8 10 1 6-2 5 3 1v4L797.5 411l-5.5 3.5-13.5 15.5-1.5.5-2.5 3.5-2.5 1.5-4.5 5.5-2.5 1.5-.5 1.5-1.5.5-14.5 15.5-8.5 7.5-3.5 4.5-5-1-6.5 5.5 1 2-5.5 1.5-9-1-29 26-28 6-3-1q-9.3 1.3-14-2l-4 3-15.5-13.5-3.5-5.5-10.5-9.5-20-25v-3l1-2q-3.8-3.2-3-11l1.5-.5 4 6 .5-11.5-2-8 16.5-20.5 2.5-1.5 7-10-2-6 3.5-.5 2 1 .5-1.5-2-6 5.5-7.5 13.5-12.5 15.5-17.5 4.5-3.5 37.5-39.5 3-1 .5 3.5-.5 1.5 10.5-6.5 1.5-2.5zm-4.5 9-3 1-1 2-11 8-37 38h-1l-7 8-2 1-25 26 3 5-2 3 2 5 48 58 8 6 15 1 2-10-3 2-2-1-9 4-2 1v-3l17-18 51-46 11-13 1 1-3 9 4-3 3 2-2 3q0 20-6 35h2l6-6q2-20 9-35l1 1-6 28 1 2 17-14 5-7 2 1 6-7 2-9v-5l-46-65-1-2zm53 90-4 3-6 7-7 35 1 4 1-2 6-5 9-39zm-145 10-18 21-2 1-2 4 1 23q14 21 32 39l7 5 22 1 2-9-1-1-3 5-2 1h-2l-4 1-3-1-1-2 7-3 17-15 3 2-4 22h4l5-24-8-7-48-61zm132 1-7 7-9 42 1 1 7-8q1-23 8-39zm-11 11-8 8v7l-8 34 1 3 6-7q2-26 10-44zm-11 11-7 7 1 2-7 31 4 1 9-38zm-10 9-5 6-4 21 2 4 8-30zm-9 9-6 6-2 15h4l5-20zm-31 29-4 24h3l3-7 2-15zm7 1-3 17h2q5-5 4-16zm6 1-1 8v1l4-2 2-6zm-25 6-5 5-1 11h4l3-15zM349.5 301l-.5 1.5-30.5 49.5-.5-2.5q12.6-27.4 31.5-48.5Z"/><path fill="#0e0e0d" stroke="#0e0e0d" d="m712.5 309 6 3h2l1.5.5q16 27.5 37 50l1 5-1.5 2.5-3.5-2.5-3.5-4.5-5.5-4.5-32-39-3-9zm-89 16 4.5 1.5-2.5 5.5-6 3-.5-3.5zm-68 6 8.5 4.5-2 1 3 9-4.5 1.5-3.5-3.5-3-11zm47 13 8.5 2.5-1.5 2.5-6 2-3.5-2.5zm-21 6 6 2 2-1 1.5 1.5v12l-2 9-2.5 2.5-2.5-1.5-5-22zm1.5 5 2 9h2v-6zm176.5 17 3.5 2.5-1.5 4.5-1.5-.5-2-5zm15 8q16.2-.7 26.5 4.5l-.5 1.5q-2.6 3.4-10 2l-16.5-3.5-1-3zm-235 8 3.5.5 4 20v2l1 3v2l-1.5 2.5-1.5-.5-6-24zm37 2 4.5.5 1 7-4 12 2.5-1.5 2-1 1 2 1.5-.5-1 2 1 2-2.5 3.5-1-2-10 4-3.5-2.5-1-3zm-122 3 2.5 5.5q3 33.5 11.5 61.5l74-9 2.5 3.5-76 10 14.5 77.5 72-8 11.5-7.5-2.5-12.5-1.5.5 1 2-12.5 7.5-1-2-2.5-.5-2-6 4-3-3-5 15-11-.5-1.5-10 5-1-2-1.5-.5 1-2-2-2 4.5-4.5 6.5-4.5-2.5-12.5-15 6-2-6-2-1-2.5-.5.5-1.5 4-2 2 3 13.5-4.5.5-1.5 3.5 1.5 1 4-1 3 3.5 9.5 7-4 2 1 1-2 2.5.5.5 1.5 2-3 3 1 1-3 2.5 1.5-1.5 2.5-2 1q-1.7-3.7-3.5-.5l-1.5 3.5-3.5 2.5 2.5 1.5 5-2-.5 1.5.5 5.5 3 1 1-3 3.5 1.5-1.5 2.5 2-1 2 1 1.5-.5-2 3v2l.5 1.5 4.5 2.5-1 3 4.5 5.5 2.5 1.5-3.5 4.5-1.5.5-.5 1.5-15.5 11.5 7.5.5 19-3 3.5 2.5-.5 1.5-35.5 5.5 13.5 62.5 80-8 9.5-2.5-6-28 1.5-5.5 4.5 9.5 5.5 24.5 66-9 2.5 1.5-8.5 3.5-60.5 8.5 13.5 58.5 36-6 43-3 1.5 2.5-5.5 3.5-13 1h-2q-33.1.4-59.5 7.5l14 54-1.5 2.5-4.5-2.5-13.5-54.5-88.5 12.5 7.5 44.5 2.5.5 2 15q-1.5 3-3 0l-1-8-5-10-7.5-41.5-83.5 13.5 8 33 3 24-2.5 1.5-2.5-1.5q-3.9-30.6-12.5-56.5L424 695.5l9 47 1 14-1.5.5-13-61q-35.9 2.1-67 9h-11l-.5-1.5 7.5-2.5 70.5-9.5-14.5-61.5q-34.1 8.4-74 11l-.5-2.5.5-1.5q38.9-3.6 73.5-11.5L389.5 558l-70 10-1.5-2.5 12.5-4.5 57-7 1.5-1.5-13.5-76.5-75 10-1.5-2.5 13.5-4.5q34.5-1 62.5-8.5-3-30.5-11-56v-8l1.5-.5 2.5 2.5 6 25 5.5 36.5 83.5-10.5-9-44-1-21zm8.5 71-67 8-16 4 7 46 8 31 77-9 7-2-14-73zm115 41-7 3-2 3 2-1 1 1-3 2 1 9h2v-6l7-6zm-24 33-61 7-9 3 14 63 84-11-12-62-9 7-3-1-1-2-1-1zm-76 9-57 8-18 1-9 3 15 66 83-13-12-63zm193 47-82 9-2 2 14 60 88-12q-8-27-12-58zm-90 10-83 12 15 63 82-13 1-1-13-60zm-91 12-47 7-34 8 15 60q43-3 82-11l-13-63zm290.5-221 1.5.5q.8 8.8-3.5 12.5l-.5-8.5zm-191 4 3.5 1.5q1 5.5-2.5 6.5l-2.5-.5-2-4z"/><path fill="#0e0e0d" stroke="#0e0e0d" d="M498.5 401q9.4-1.9 12.5 2.5l2 5-5 7 10 5 2 9-7.5 9.5-13 6h-6l-3.5-2.5 1.5-4.5q11.7-1.8 18.5-8.5l2-3q-5.2-4.8-17.5-2.5l-2.5-2.5 2.5-5.5 9.5-7.5-3.5-.5-13 5-3.5-2.5 3.5-5.5zm-89 11q10.1-1.6 12.5 4.5l1 11-8 15 3.5.5q6.4-3.1 17-2l2.5 5.5-2.5 2.5-32 5q-3.5-1-2.5-6.5l13-19 2-7-1.5-2.5-9.5 5.5-1.5 3.5-5.5-1.5q.2-9.8 7.5-12.5zm-83 9q5.5-1 6.5 2.5l6 38-3.5 4.5-4.5-1.5-5.5-27.5-5 6-3.5-1.5v-4zm505 2 2 1 5-1 1.5 2.5-4.5 5.5-9 3-1.5-5.5zm-284 5 7.5 3.5-1 2q3.3 2.3-2.5 4.5l-4.5-2.5-2-5zm16 9 4.5 2.5-.5 3.5-3.5 1.5-.5 1.5-4 1-2.5-5.5 5-2zm6 14 3.5 1.5 1 4-2.5 1.5q-4-1.5-2-7Zm230 4 3.5 1.5-2 6 3 7q-2.8 4.2-11.5 2.5l-5 4h-6l-3-6-8 2-1.5-3.5zm-5.5 7-11 5q-3 2 0 3 5-4 15-3l-2-4zm46.5-6 4.5.5-1.5 3.5-5 1-1.5-2.5zm-268 8 3.5 1.5 1 3-8.5 4.5-4.5-3.5zm-52 17q13.7-.7 18.5 7.5 3.7 4.3 2 14l-8.5 12.5-11 2-8.5-4.5q-6-4-4-16 .9-8.6 6.5-12.5zm1.5 8-1 2h-1l-3 5q-2 11 5 13l7-2 4-7-1-6q-2-6-10-5Zm-28.5-7 5.5 3.5 6 32-2.5 3.5q-5.7.8-6.5-3.5l-4-34zm270 4 5.5 3.5-4.5 1.5-2.5-3.5zm-341 2h9l9.5 4.5 1 4-1 11 4 23-1.5 2.5-6.5-1.5-4.5-22.5q-4.1 5.9-14 6l-8.5-5.5-1-5q1.1-9.4 7.5-13.5zm5.5 6-4 2-6 7 1 4 8-3 4-5v-3zm306.5-5 3.5 1.5-.5 3.5-1.5.5-1.5 2.5-24 7-3.5-2.5 1.5-4.5zm48 4q6.4.1 8.5 4.5l-.5 1.5-4 1-4.5-2.5zm-444 5q12.3-1.3 16.5 5.5l1 7-6 9 10 7 2 10-5.5 6.5q-5 5.5-17 4l-8.5-6.5-1-5 6-13-10-6-1-5 8.5-11.5zm1.5 8-2 1-4 6 8 3 6-8q-2-4-3 0zm4 19-5 9 2 5q9 1 13-4l1-2-1-2zm467.5-18q10.3.3 14.5 6.5l1 5q-1.7 4.3-9.5 2.5l-7.5-4.5-1-7zm1.5 4v4l10 3v-2zm-203.5-3 7.5 2.5-5 4 1.5 3.5 1.5-.5-2.5 3.5-6 1-3.5-5.5 2.5-5.5 3.5-1.5zm90 8 10.5.5-.5 1.5-3 1-6-1zm-57 3 2.5.5-2.5 3.5-5 1q-3-1.5 0-3zm32 2 16.5 10.5-1.5 4.5-7 2-9.5-6.5-.5-1.5-4.5-2.5 1.5-3.5zm-25 11 3.5 1.5 5 15-3.5 1.5-5-11-1.5-.5-1-4zm63 6 7 2 1.5-.5-3 6 2.5 1.5 6.5-5.5 1.5-3.5 7 3 2.5.5 1 13-13.5 20.5-4.5-1.5v-6l8-11 2-8-5.5 4.5-9 2-4.5-3.5-2-9zm-18 2 7.5 2.5q.1 15.9 5 27l-1.5 2.5-7.5-2.5-5-28zm-66 1 5.5 2.5 1.5 2.5 3-2 2.5 10.5-4 5 8 5 3 9-6.5 8.5q-5.2 4.4-16 3l-5.5-4.5-1-7 4-9-7-4-2-7 5.5-8.5zm.5 8-3 2-3 4 6 2 4-7zm3 18-4 6 1 4q8 0 11-5zm-32.5-18 5.5 2.5 5 23v9l-2.5 1.5-5.5-3.5-4-31zm-52 5 7.5 2.5v7l-9.5 31.5-5.5-.5-1-10 6-20-4.5-.5-15 3-4.5-3.5 1.5-4.5zm-38 5 5.5 3.5 6 31-4.5 2.5-2.5-1.5-3-7-4-25zm-60 5 4.5 2.5q-7.3 8.2-8 23l5.5-4.5 10-3 6.5 3.5 2 8-8.5 10.5-10 3q-9-1-12.5-7.5l-2-9q1.3-16.7 10.5-25.5zm10.5 26-2 1-5 6 1 2 7-5zm-37.5-20 4.5 1.5 6 35-5.5 2.5-3.5-5.5-4-31zm-48 4 4.5 3.5-1.5 3.5-18.5 4.5.5 6.5 12-1 6.5 4.5q3.2 2.3 2 9l-9.5 11.5-10 4-4.5-2.5 1.5-5.5 5-1 7.5-6.5 1-4-6.5-1.5-9 3-3.5-2.5-2-16 4.5-5.5zm-38 7 4.5 3.5 6 33-5.5 2.5-3.5-3.5-5-31 1.5-3.5zm-73 14 11.5 84.5 13.5 70.5.5-6.5-1-12h1l3 19v2l6 47-2.5 1.5-3.5-9.5-18-93-8-54-4-45zm486 1 7.5 3.5-7 25v9l-2.5 4.5-5.5-1.5-1-13 5-17-7.5-.5-11 1q-3.5-1-2.5-6.5zm-39 5q6.4.1 8.5 4.5l1 7-7 16 1.5-.5 12-1 3.5 5.5q-9.5 5.5-24.5 5.5l-3.5-2.5-1-4 11-22-2.5-.5-5.5 3.5-1.5 2.5-4.5-1.5q-1.2-7.2 3.5-8.5zm-50 6 7.5 3.5-1.5 3.5-18.5 5.5.5 4.5 6-1q9.1.4 12.5 6.5l1 5-5.5 8.5-13 7-6.5-4.5 1.5-3.5h4l10.5-8.5-.5-1.5q-9.6-1.1-15 2l-3.5-2.5-1-6 2-11 2.5-2.5zm-42 6q7.6-1.1 9.5 3.5l1 7-7 17 2.5.5q4.7-3.3 14-2l.5 3.5q-6.5 9.5-24.5 7.5l-3.5-5.5 9-17 1-6-2.5-.5-7.5 5.5-.5 2.5-5.5-2.5q-1.2-8.2 4.5-9.5zm-55 8 4.5 1.5 3.5 13.5 7.5 1.5-1.5 4.5-4.5 2.5 2 16-5.5 2.5-3.5-3.5-2.5-12.5-13 2-4.5-3.5v-5l6.5-15.5 3-1 3.5 2.5-3 13 1.5-.5 5.5-1.5-1-15zm-36 5q7.9-.9 9.5 4.5l1 10-6 13 2.5.5 11-1 3.5 5.5-24.5 5.5-3.5-2.5v-6q8.1-6.9 9-21l-2.5-.5-5.5 3.5-1.5 3.5-4.5-1.5q-1.1-8.6 4.5-10.5zm-54 7 9.5 2.5 1 8-3 5 8 5 2 9-8.5 10.5q-4.2 4.3-14 3-3.5-1-2.5-6.5l6.5-1.5 9.5-6.5 1-2q-3.4-4.6-13.5-2.5l-2.5-2.5v-4l9-9-5.5-.5-6.5 3.5-.5 1.5-4.5-2.5 3.5-6.5zm-36 5q9.4-1.4 11.5 4.5l1 7-7 16 1.5.5 12-3 5.5 3.5-2.5 3.5-23 7-4.5-3.5v-5q7.6-8.4 10-22l-3.5-.5-4.5 3.5-1.5 2.5-4.5-1.5q-1.2-9.2 5.5-10.5zm-58 9q9.8-1.7 12.5 3.5l1 12-4 10 4.5.5 12-1 1.5 5.5-4.5 2.5-22 3-3.5-5.5q6.6-8.9 9-22l-4.5-1.5-3.5 2.5-.5 1.5-3 1-2.5-4.5 3.5-5.5zm-28 4q7.6-1.1 9.5 3.5l1 11-5 14 1.5-.5 12-1 3.5 2.5-1.5 3.5-24 5-3.5-5.5q7.3-10.2 10-25l-1.5-.5-11 8-1.5-5.5 5.5-6.5zm220 35 4.5 2.5 7 33-5.5 2.5q-9.3-13.2-8.5-36.5zm-21 2 6.5 2.5 1 7-5 6 9 4q3.2 2.3 2 9l-6.5 8.5q-5 6-16 6l-3.5-5.5 2.5-3.5h6l8.5-6.5-1.5-3.5-13 1q-3.5-1-2.5-6.5l10-9-2.5-.5q-4.7 3.8-14 3l-1.5-4.5zm-97 13q9-1.5 11.5 3.5 1.1 8.1-3 11l7 4 2 9-10.5 12.5-10 3-6.5-4.5q-.7-5.7 3.5-6.5l2 3q7.5-.5 10.5-5.5l3-5-1.5-1.5h-12l-2.5-2.5 1.5-5.5 7.5-6.5-.5-1.5-14 6-2.5-4.5 2.5-3.5zm31 1q13 0 17.5 8.5l1 10-8.5 11.5-8 3-3-1q-7.3-.2-9.5-5.5l-2-11q1.1-9.4 7.5-13.5zm1.5 8-4 2-3 5 1 8 4 2 6-1q5-3 5-11zm-89.5-3h7l8.5 4.5 1 5-1 11 3 22-5.5 1.5-3.5-6.5-2.5-16.5q-2.5 6-12 5l-4.5-2.5q-3.2-3.3-2-11l6.5-9.5zm3.5 7-2 1-5 7 2 3 2-1 7-8zm-33.5 1q8.7-1.2 11.5 3.5l1 9-8 15 1.5.5q5.4-3.6 16-2l2.5 4.5-6.5 3.5-24 4q-3.5-1-2.5-6.5l14-23-2.5-1.5q-7.7 1.3-11 7h-4l-1.5-4.5 4.5-5.5z"/><path fill="#fefefd" stroke="#fefefd" d="M.5 0 1024 .5l-.5 1023.5L0 1023.5zM497 187l-2 2-16 1-5 3-1-2-17 7q-24 16-25 55h-13l-60 6-84 16-25 2-3 5-10 3-2 3 9 2-8 6-2 3-10 9-2 3h-1l-3 4-7 6 1 3-3 2-2 6 5 2 1 3-3 5 2 6-3-3-3 2v7l11 54 7 73 14 91 5 75v2l16 100 5 48 5 19 5 2 4-2 1 7-5 4 1 3 5 3 4-1 5 1 12-3 6 4 60-12 44-3 2 1 86-10 111-19 78-7q36-9 77-13l7-3 1-2 7-3 3-5-3-2 12-16 6-5 1-5-1-1-1-1 5-2q4-1 3-6l2-1v3q1 4 7 3l1-2v-7l-6-22 4-2v-8l-8-23-16-62-13-80-2-1-3 1 4 27v4l-8-39-4-10-2-1-1-1-2-2-4 3 6 45 5 23 24 93 7 35 6 11v4l1 1-5-2-5 5-3-3-26 2-87 19-29 2h-2l-42 5-49 10-54 8-105 11-54 11-2-1-1-17-3-11-7-56q-13-68-31-130-9-45-13-93l-13-58 4-2-1-3 15-2h2l38-3 87-13 83-7 69-9 1-4v-3l-37 6q-81 5-155 16h-6l143-18 25-4 9-3-2-6-43 2-179 23h-5l1-2v-2l-4 4-31 3-13 3-1-2v-3l27-45 37-55 7-3 17-2 45-2 97-14 5 1-6 14-12 2q-8 6-11 17-1 14 6 20 6 6 18 7 10 0 15-5l6-7 1-7 13-18q8-13 8-33l9-1-1 2 1 2 3 1 74-9 31-1h2l36-3h2l2-1 5 2 3 8 4 27q1 5 8 4l1-3 2-1 2 6 5 1 2-6q-8-23-10-50l-3-2-2 6-3-8-1-1-1 4-4-1-17 2h-4l1-2-1-2-4-4-81 13-48 4-12 4q-2-27-14-43-11-15-34-16Zm151 91-5 3-4 9 3 1 9-11zm-43 12-2 1-13 26 3 3 7-2 16-21-6-2-2-2zm109 5-9 2-1 3q-7 0-9 5v-1l-1-4-5 3-52 55-18 17-6 11 1 2 1 1-2-1-4 3 3 5-19 23h-1l-6 8 2 17v2l-1-1-4-5-2 2 3 10-1 4 26 33 4 2 6 9 14 11 5-2 7 2h17l20-5 30-26 8 1h2l3-1 1-3 3-2 2-3h2l6-1v-1l3-2v-1l10-6 6-7-1-2 2-1v-1l12-11 1-2 18-13 11-12-1-3 8-11 4-3 3-7-3-2 2-6-10-15 1-3 1-3-8-14-5 1-8-10 4-1-1-1 1-2-4-9-7 3-3-3 3-2 2-3-6-10-8 1-11-7zm-363 4q-22 24-36 56l1 2 35-55zm274 25-7 9 2 3 3-1q6-1 5-9zm-70 7-2 3 4 7v4l5 3 4-2-4-8 2-3q-2-5-9-4Zm47 13-3 5 4 2 9-3q-2-5-10-4Zm-21 6-3 4 6 17v5h4l4-15-1-9zm-41 37-2 2 8 30 2-1v-8l-5-21zm38 2-2 1-9 21v5l4 2q7 1 10-3v2h2l3-7-1-3-5 2h-2q5-6 4-17zm-123 3-3 4 2 23 8 41-51 5-30 5-13-62q-2-5-5 0l7 32 4 31q-29 6-63 8l-12 4 2 4 74-11 14 77-55 7-20 5h4l-1 2 4 2 12-3 57-7 13 67q-34 7-71 10l-3 3 2 3h8l66-11 13 60-1 1-71 9-6 4 3 1 77-10 8 46 6 19 1-3-2-19-9-42 2-2 81-10q7 23 10 51l4 6 4-1-4-26-8-31 83-14 3 12 5 32 7 17 3-1-2-14-5-14-5-32 88-12 8 31 2 16 5 9 4-1-1-10-12-45 31-6 39-2 9-3-2-5-13 1h-2l-63 8-13-57 63-9 5-2-2-4-66 9-7-29q-2-6-5-2v10l5 22-88 10-13-61 2-2 29-3 5-2v-1l-3-3q-14-1-23 3h-4l17-13 4-6-2-2v-1l2 1 6-4-1-4-4 2-1-1 2-3-5 1-5-2h-3l4-3v-2h2l2-1-1-2-1-1-1 2h-1l1-2-1-1q-2 4-4 1l2-1v-1l2-1v-1l-4 2v-1l-2-1-3 2 2-3-1-3-11 3-2 1 16-9-2-5-7 1-17 9-3-7 1-4-2-6-2-1-10 5-4-2q-7-1-8 4l2 3 2-1 2 6 16-5 1 12-6 4-4 6v2l3 4h3l6-5 1 1-12 8-4 5 4 3-5 4 2 5 6 3 13-8 2 9-9 7-73 8-16-76 77-10-3-4-74 8q-9-30-12-64zm136 6-5 4 1 5 3 1 2-1 2-6zm-89 2q-12 1-18 8l3 5 15-4h1l-12 11 1 3 3 2 16 1v2q-7 8-20 10l-2 4 6 4q10-1 17-6l9-11-1-6-11-7q5-3 4-10-3-6-11-6Zm-90 11-8 4-7 9 1 3 4 2 2-1 1-2 8-6 2 1-1 7-14 22 2 4 3 1 32-6 2-4-1-2-3-3-18 3h-2l9-17-2-10q-2-6-10-5Zm-84 9-5 5-7 16 6 2 4-5 4 26q1 3 7 2l2-3-6-40zm508 2-9 4-3 4 1 4 3 1 9-4 3-6zm-289 6-3 3 1 3q1 5 8 4l3-5q-2-6-9-5Zm16 9-1 2h-3l-3 4 4 4h3l6-5-1-3zm8 13-3 4 4 5 2-1-1-6zm228 5-28 11-3 4 5 3 5-2 2 5 3 1q7 0 11-5h9l2-3-3-5 2-7zm43 0-4 2-2 4-2-1-4 1-2 3 3 1 14-5 1-2-1-2zm-267 8-11 6 3 4 10-3 2-3v-4l-2 1zm-53 17-7 4q-7 5-7 17l2 9q4 6 14 8l11-4 7-13q1-11-4-14-5-7-16-7Zm-29 2-2 3 2 20v2q0 9 6 14l6-1-6-35q-1-4-6-3Zm270 4-1 4 6 2 1-2zm-30 3-23 7-4 5 1 2 3 1q16-1 26-7v-1l3-2-1-4zm50 4-2 4 7 4 4-2v-1q-2-6-9-5Zm-442 4-9 4-7 9 1 8 9 5-5 11 1 8q3 5 11 6h5l11-5 5-7q1-9-4-11l-9-6 6-7q1-8-2-10zm270 7-3 2 1 2-7 4 2 1-3 4 1 3 4 2h5l11-4v-3l-4 2-2-1-2-2 2-1 1-3-6-3 1-2zm200 3-3 4 2 7 10 4 6-1 2-3-2-5q-5-6-15-6Zm-108 8-3 1-1 2 6 1 6-1-1-3-5 1zm-62 4-5 3 1 2 7-1 2-3zm33 2-4 2-2 5 13 10 10-2 1-2-1-3-14-10zm-24 10-3 3v4l4 4 3 8 5-2-6-15zm80 3-1 3-2-1-2 1 2 4-6 5h-2l3-7-3-2-2 1-3-1-4 5q-2 11 6 13 8 1 12-3l2-1-2 7-8 11 1 6 5 1q10-9 14-23l-2-12-2-1-4-1-1-4zm-35 5-2 2 4 28 6 4 4-2-5-29zm-69 2-4 2-8 10 1 7 8 5-4 7 1 10 8 4q9 0 15-4l5-6-1-9-9-7 4-6-2-10-4 1q-2-5-10-4Zm-25 7-4 5 5 30 4 2 5-2q0-19-6-32zm-230 26-17 4-4 5 1 16 6 4 6-3 8 1-1 3q-4 6-12 8l-3 4 4 4q10 1 14-5l8-12-3-8-9-5-8 1-2-4 18-5 2-5q-1-4-8-3Zm-35 7-3 3 5 34 5 3 4-2q0-22-7-36zm412 15-19 2-5 4 1 4 4 2 14-2 2 1-5 21 1 8 6 3 3-3q1-21 8-34l-1-3q-2-5-9-3Zm-39 5-12 9q-1 5 3 6l4-1v-1l6-4h1v4l-10 17 1 6 5 2 23-5 1-3-7-5-8 2h-3l7-13-1-10q-2-5-10-4Zm-327 45-10 7 2 6 9-4 2 1q-1 12-8 20v5l5 3 23-4q4-1 3-6l-3-3q-9-1-13 2h-3l5-12q1-9-3-12-3-4-9-3Zm-28 4-8 4-6 8 1 4h5l2-3 5-4 1 1q-1 14-9 23-1 5 3 6l26-5 1-3-7-4-8 2h-3l6-16-3-10zm217 36-3 3q0 20 7 34l7 1 2-4-8-32zm-22 2-18 6-2 4 5 3 10-3 2 1-9 10 1 3 2 1h15v2l-9 7-5-1-3 4q-1 5 3 6 10 1 15-4l9-11-1-6-10-6 5-8-2-6zm-93 12q-12 1-17 9l2 5h4l9-5 1 1-9 10 1 3 4 2 4-1 7 2-1 3-10 7-2-2-2-1q-4 1-3 8l6 3q9 1 13-4l8-10v-8l-9-6 4-6-1-6zm27 2-3 1-8 12q-2 10 2 15l9 5q10 1 14-4l7-12-2-9q-5-9-19-8Zm-84 4-5 2q-8 4-10 14l2 8 5 3q10 2 13-5l2 19 5 5 4-1 1-2q-4-16-3-36l-3-4zm-29 8-11 4-7 9 1 2 6 1 1-2 8-5 3 1q-5 14-14 24l1 4 4 2 28-6 2-4-5-4-12 2h-3l8-16-1-6q-2-6-9-6Z"/><path fill="#fefefd" stroke="#fefefd" d="m515.5 196 11.5 9.5 5 10-2-1zm-40 3h26l15.5 9.5q14.1 13.4 16 39v10l-2 2-2.5 15.5-.5-2.5 1-6-3 2-11 30-3.5 3.5-1.5-.5q9.5-12.5 13-31-2-3.5-4 1-5.5 19.5-15.5 34.5l-2.5-.5q11.6-14.4 16-36l-1-6 2-10q-.4-25.6-15.5-36.5l-4.5-3.5-.5-1.5-10-4-15 4-17.5 16.5-11.5 19.5-.5-3.5q9.5-18 24.5-30.5l1.5-.5-.5-2.5-5 1-11.5 11.5-2.5 3.5.5-1.5q4.7-13.8 15.5-21.5z"/><path fill="#fefefd" stroke="#fefefd" d="M483.5 218h6l9.5 5.5q8.1 11.4 8 31l-2.5.5-4.5-2.5-3.5-5.5-30 2-.5-5.5q3.4-14.1 12.5-22.5zm-157 66 3.5.5q-28.2 30.3-52 65l3-2 32.5-40.5-1.5 2.5-41.5 70.5-3.5-20.5 46.5-73.5zm-22 3 2.5.5-31.5 40.5.5-1.5 23.5-38.5zm-17 2 4.5.5-17.5 20.5.5-1.5zm-11 1 3.5.5-12.5 14.5 1.5-2.5zm-15 1 9.5.5-11.5 17.5-1.5-16.5zm241 1-.5 1.5-6.5 11.5-4.5-2.5 1.5-2.5zm101 8 2.5 1.5-6 5zm-319 3-1.5 2.5-19.5 32.5-1.5-8.5zm-38 3 .5 1.5v2l-1.5 6.5-1.5-7.5zm460 0 19.5 2.5-8.5 3.5-5-3-1.5 6.5 4 5-6.5 2.5-2-4-4-2-28 20 1.5-2.5 4.5-5.5zm-439 5-1.5 2.5-4.5 8.5-1.5-2.5zm24 0-1.5 2.5-23.5 38.5-1.5-7.5zm-52 2 1.5.5 5 64h-1l-9-61zm-8 9 3.5 65.5h-1l-6-46-4-11zm530 0 4.5 5.5-2.5.5-2-1-1 2-.5-1.5 3-2zm-30 3q3 5.5 12.5 4.5l-2 6 2 6-4-3zm-21 10 1.5 3.5-13.5 7.5.5-1.5 1.5-2.5zm34 8q8-1.5 10.5 2.5l-.5 1.5-6 2zm33 1 7.5 9.5-1.5.5zm-539 17q10.6 59.9 16.5 124.5l6 34v2l6 45 19 110 10 82 8 43-9.5 7.5-14.5-64.5-5-36h1l18.5 92.5 4.5-2.5-4-18-4-41-3.5-16.5-1.5.5 2 19h-1l-10-54-13.5-97.5-1.5.5 1 19-1 2 12 88h-1l-1.5-7.5-1.5.5 1 11h-1l-22-137-14-141h1l18 135 2.5 6.5 3.5-1.5-3-28 1-5-11-69zm529 5 8.5.5-1 5v2l-1.5 4.5-2.5-1.5q1-8-5-9zm30 7 4.5 5.5v4l-3.5-.5-1.5-.5 4-2-2-1zm-546 4 12.5 69.5 8 68 13 60h-1q-1.3-20.7-9.5-34.5l-1.5.5 13 73 5 63h-1l-29-186-6-52zm431 3 2.5.5q-8.3 12.2-22.5 18.5l-1.5-2.5zm-53 11 1.5.5-2.5 12.5-4.5-7.5 1.5-3.5zm-315 1 7.5.5-49.5 8.5-1.5-5.5 1.5.5h12zm368 12 1.5.5-3 2-10 12 4 10-3.5.5-4.5-2.5-7-13 1.5-.5 3 2zm-66 2 2.5 1.5 1 2-1 2 3 1 .5 3.5q2.3-3.3 4.5 2.5l6 8-1 2q1.3 9.2 7.5 13.5l2.5-1.5.5-1.5 1.5 4.5-2 5 5.5 9.5 6 2 3-3 6.5 6.5 6.5 7.5 4.5 3.5-5.5 24.5-2.5-1.5 4-22-2.5-1.5-17.5 14.5-.5 1.5-7.5 3.5 1.5 2.5 6-1 4 1 4-6 .5 1.5-1.5 6.5-6 1-17-2-6.5-6.5-25-29-6-9-1-10 1-5-1-2 1-7zm19.5 71-2 2 3 4h3l-1-3zm112.5-70-.5 1.5-1.5 4.5-1-2-2 5-1.5-2.5zm-106 2 1.5.5-1.5 10.5-1.5-.5-.5-1.5-2.5-1.5-3-4zm95 9-.5 1.5-1.5 4.5-4 3-.5-2.5zm-85 14 4.5 2.5.5 1.5 2.5 1.5-1.5 2.5zm24 17 3.5.5 3.5 5.5 2-1-4.5 5.5 1.5 3.5 11-4 .5 1.5-8.5 5.5-8.5-2.5-9-12 1.5.5zm118 13 1.5.5 1 3-14.5 3.5 1-2zm-335 3 4.5.5 14 76-2.5 1.5-81 9-5.5-23.5-8-53zM425 487l-10 5-6 10 1 9 7 4q12 2 16-5l2 18 5 6 5-2-4-40-3-2h-2q-3-4-11-3Zm252.5-12 3.5 1.5-3 18-3.5 4.5-1.5-.5zm7 1 2.5 1.5-2 11-2.5 3.5-.5-2.5zm6 1 3.5.5q-.1 6.4-4.5 8.5l-.5-4.5z"/><path fill="#fefefd" stroke="#fefefd" d="m664.5 484 .5 1.5-3.5 13.5-1.5-.5 2.5-13.5zm-142 5 9.5 5.5q1.3 10.8-5.5 13.5l-3 1-5.5-3.5-1-6q-.1-8.1 5.5-10.5Zm-96 6 4.5 1.5-6.5 8.5-5 2-1.5-3.5 3.5-5.5zm-88 12 6 1 3-1 .5 1.5-6.5 6.5h-3l-4.5-2.5zm239 0 .5 2.5-6 5-1.5 4.5-1.5-3.5 8-7zm236 5 9.5 4.5-5.5.5-4.5-3.5zm-469 13 9.5 6.5-2.5 4.5q-3.3 3.2-11 2l-1.5-3.5zm203 14 6.5.5 3.5 5.5 2 1 10-7 12.5 60.5-84.5 10.5-12.5-62.5zm-1.5 15-22 4q-4 1-3 7l4 2 18-2h1l-6 26 1 3 6 2 3-3q1-19 8-31l-1-6zm-37 5-2 3 3 24 6 10 5-1-4-27-3-7zm-34.5-11 5.5 1.5 11 61-1.5 1.5-81 12-13.5-65.5zM449 564q-10 7-12 22-1 9 2 15l10 6q10 1 15-4l6-8-1-8-6-5-10 2-7 6 8-24zm-25 5-2 1-3 4 4 28 3 7 5 1 3-4-6-33zm205.5-20 2.5.5-3.5 6.5-5.5-1.5zm3 18 6.5 4.5-1.5 2.5-9 2-.5-1.5zm-347 9 1.5 9.5h-1zm2 11L311 725.5l8 32 5.5 13.5 2.5-.5-2-4h3l3 15-1.5.5-2-1-5 6-6 5-15.5-77.5-7-58-2-34z"/><path fill="#fefefd" stroke="#fefefd" d="m458.5 591 2.5.5-4.5 5.5-3 1 .5-1.5zm215 3 2.5.5 12 57-1.5 1.5-86 11-12.5-59.5zM659 607l-16 5-3 4-1 8 1 9 3 1 10-2 5 2-8 7h-5l-2 6 5 3q8 1 12-4l8-9-1-8q-4-8-17-6l-1-3 17-5 2-5q-2-4-9-3Zm-42 6-10 6-3 5 1 4 6 1 1-3 7-4h1q-1 14-9 21l1 6 4 2q17 1 24-8l-1-5-14 2-2 1 6-14-1-11q-3-5-11-3Zm-40.5-8 6.5.5 12 59-82.5 14.5-13.5-63.5zM565 620l-4 6 1 12-3 1h-3q4-5 3-13l-5-2-9 19 5 6 14-2 2 14 5 3 4-2-1-17 2-1 4-6q-1-4-8-3l-4-13zm-39 6-4 2-7 8 1 5 5 1 1-3 7-5 1 1q-2 13-10 22-1 6 4 7h8l16-4 1-4-4-4-7 1h-5l6-15-2-8q-2-6-11-4Zm-40.5-9 7.5.5 13 62-82.5 11.5-13.5-60.5zM472 633l-13 7 2 6 12-5 2 1-1 2-8 7 1 5 2 1 12 1 1 3q-4 7-15 7l-2 3 1 4 5 2q9 0 14-5l7-11-1-5-10-7 4-6-1-6q-3-6-12-4Zm-32 4-8 4-5 6 1 5 5 1 1-2 6-5 1 1-2 9-8 14 4 7h6l20-7 1-3-4-4q-8-1-11 2h-3l6-13-1-10zm-125.5 56 7.5 39.5h-1zm171 18q6.4-.4 8.5 3.5v5l-5.5 6.5-4 1-4.5-3.5 1.5-10.5zm-84 3 1.5 2.5-4.5 5.5-4 2-.5-3.5 4.5-5.5zm-105 3 12.5 72.5-1 3 1 5-2 1-9-59zm478 13 5.5.5-6.5 7.5q-70.9 8.6-137 22l-122 12-113 16v-1l150-25 67-7 46-9 49-5zm-10 16 3.5.5-7.5 9.5-12 1-.5-1.5 12-4-4.5-.5-26 6-83 14-127 13-44 7v-1l67-13 5 1 140-17zm-484 19 10.5 47.5-3.5 1.5q-7-21.9-7-49Zm206 16 5.5.5q-47.9 10.6-102.5 14.5v-1l29-3zm85 2 6.5.5-26.5 4.5-69 7v-1zm-196 2 8.5.5 1.5 3.5 7.5.5-52.5 5.5 1.5-2.5.5-3.5zm-43 5 3.5 4.5-7.5.5zm-7 9 23.5 1.5-26.5 1.5 1-2zm49 4 4.5.5-48.5 9.5h-19v-1l8-4q30.3.3 55-5Z"/><path fill="#b6a869" stroke="#b6a869" d="m513.5 195 1.5.5.5 1.5 1.5-.5-1 1 9.5 10.5zm11 1 6 7zm-39 2 13.5.5-13.5.5zm-34 4-7 8zm12 3-6 7zm5 8 1.5 1.5-4.5 4.5zm-3 2-5 6zm-7 10-3 4-3.5.5zm263 6 3.5 1.5-.5 1.5-1-2-2.5.5-.5 3.5-.5-3.5zm-27 1 10.5.5-10.5.5zm-150 21 1.5.5-2 1-.5 7.5-.5-7.5zm-17 24 .5 1.5-3.5 7.5-.5-1.5zm-144 1 10.5.5-10.5.5zm266 0 1.5 1.5-6.5 6.5 4.5-5.5zm-414 7-.5 1.5.5 1.5 9.5.5-5.5 4.5v-1l3.5-2.5-9-2zm379 10 1.5 3.5-4 3 3-5zm-327 4-.5 1.5-1.5 2.5-1.5.5-.5 2.5q-2.2-3.5 4-7Zm63 0 .5 2.5-6 3zm-119 1-7 8zm461 0 2.5 1.5.5 2.5 3.5-2.5-5.5 4.5v-1l1.5-.5-1.5-3.5-2 1zm-418 2-2.5 3.5-3.5 5.5-1.5.5-.5 2.5-1.5-1.5 6-6zm7 0-4 5-1-2 1 1zm324 0-6 7-.5-1.5 2-1-.5-1.5 1 1zm-289 1-.5 1.5-1.5 2.5-1.5.5-.5 2.5-2.5-.5 2.5-4.5q2 3 4-2Zm372 0-10 11zm-395 2 1.5 2.5-2 1-.5-1.5-3.5 2.5zm429 2 20 3 2 2 3-1v1l-1.5.5 4.5 1.5v-2l6.5 1.5 7 10-1.5 2.5-1.5.5 2.5 1.5q1.8-3.7 3.5-.5l10 14-.5 1.5 3.5 2.5-1 2 4 2h-2l1.5 2.5 2.5.5h-2l.5 1.5 3.5 1.5-.5 1.5 2.5 1.5-.5 1.5 3.5 2.5-.5 1.5 2.5 1.5 3 5-.5 1.5 2.5 1.5-1 2 5 3-1.5 9.5-2-1 1.5 2.5-.5 3.5-1-2q.3 7.3-5 9l-2-1-5 7-17 14-.5-2.5 6-28-1.5-.5q-6.6 14.9-8.5 34.5l-6.5 6.5-1.5-.5q5.6-14.9 6-35l2-3-3.5-1.5-3.5 2.5 3-9-1.5-.5-11 13-15 14-1.5-.5-1.5 2.5-1.5.5q3.3 2.3-2.5 4.5l-1.5-.5-4.5 5.5-1.5-.5-4.5 5.5-10.5 7.5-23.5 27.5-.5-2.5 3.5-4.5-3.5-2.5-1.5-3.5-11 4-12.5-14.5q2 3.2 4 0l-1.5-2.5-1.5-.5-.5-1.5-3-1 1 3-12.5-15.5q3.6-2.9 2-11l-1.5-.5-7.5 3.5 2.5 3.5-12.5-14.5 4 2 2-12-1.5-.5-5 2-2.5-4.5 24.5-25.5 2.5-1.5 6.5-7.5 1.5-.5 18.5-19.5h2l26-17 3.5 2.5 1.5 3.5 7-2 35 42 4.5 3.5 2.5 3.5 1.5-.5 1-2-1-5-13-15 2.5 1.5 6.5-2.5-1.5-2.5-10-1-2.5-2.5h2l-1-5 2-6-7.5-.5-7.5-5.5-7.5-11.5-1.5-.5 6-3zM711 335l-10 7-2 3v1l13-7zm57 31-2 2q6 1 5 9l3 1 1-4v-2l1-5zm-8 6-2 2 2 5h2l1-4zm40 4-1 3 2 1-4 2 2 1h-3l-3-1-8-2q-9-2-12 2l1 3 17 3q7 1 10-2l-1-3h2q1-6-2-7Zm-117 4-22 17 2 2q14-6 22-18zm98 15-3 5 1 8q4-4 3-12zm-101 11-15 9-3-2-2 1 7 13 5 2h3l-4-10 10-12zm-405.5-98 2.5.5-6 5 2.5-3.5 1.5-.5zm492 0q7.8-1.7 9.5 2.5l4 7-2.5 3.5-2.5 1.5 1.5 2.5-11-15-1.5-.5zm-475 2 1.5.5-3 2 .5 1.5q-2.2-3.9-4.5-.5zm-47 3 1 3 2-3 .5 1.5q-4.1 2.4-2.5 10.5l-1.5-2.5v-2zm43 2 1 2-6.5 1.5zm406 1-12 13zm-414 4 4.5.5-2.5 2.5-3.5-1.5zm-48 1 1.5 1.5v13h-1l-.5-13.5-2.5 1.5zm46 2 2.5.5-3 5-2.5 3.5-1.5.5q3.3 2.3-2.5 4.5l.5-3.5 3.5-5.5 1.5-.5-.5-1.5 1.5.5 1-2zm506 0 2.5 1.5 3 7-1 2 .5 1.5-3.5.5.5 1.5-8.5-10.5zm-116 2-7 8zm-380 11-1 4-2.5 1.5q2.8 1.8-1.5 3.5l-2 1 2-3 1.5-.5q-2.7-1.7 1.5-3.5l1.5-.5zm-77 4-.5 1.5 1 5v2l-.5 1.5-3-4-1.5.5-.5 7.5-.5-7.5 2.5-1.5 2.5 1.5-1-5zm581 5h2q5.5-1 6.5 2.5l6 11-1 3-.5 2.5zm-144 1-10 11zm-368 1 1.5.5-10.5 12.5 1.5-2.5zm-46 2 .5 10.5h-1zm87 0-.5 1.5-4.5 6.5-.5-2.5 2.5-4.5 1 2zm-83 1 1.5 10.5h-1zm395 12-12 13zm-393 1 .5 2.5-1.5 7.5-.5-6.5zm108 30 1.5.5-.5 1.5-10 1v-1zm-111 1 .5 11.5h-1l-1-10z"/><path fill="#b6a869" stroke="#b6a869" d="m761.5 395 .5 2.5-9.5 39.5-5.5 4.5-1.5 2.5-.5-4.5 7-35 5.5-6.5 1.5.5zm-13 11v3q-1.7-2.8-3.5 1.5l1.5 2.5 1-3 .5 2.5q-5.9 15.1-7 35l-7.5 8.5-.5-1.5 2-1-1-4 7.5-31.5 1.5-.5-1-3h1l.5 1.5.5-3.5h-2zm52 1 .5 4.5-11.5 12.5-17 12 1-2 3.5-2.5.5-1.5 9.5-8.5 6.5-8.5 4.5-2.5zm-300 1 2 1 1.5-.5-6 5 3.5-4.5zm119 0 7.5 9.5-5-2-.5-3.5-2.5-.5 1-2zm-387 2 1.5 8.5-2 1zm379 1-6 7zm-31 3 1.5.5.5 1.5 1.5-.5-2.5 1.5-1-2-2.5 1.5zm157 3 1.5.5-2 1 1 2h-1l-.5-1.5-5.5 7.5 3.5-2.5 1.5-.5.5-1.5.5 1.5q-6.7 16.3-8 38l-6.5 7.5-.5-3.5 8-34v-7zm-245 5 2 2 13.5.5-13.5.5zm140 5 3.5 2.5 7 9-2.5 3.5-4.5-3.5q-4.2-4.2-3.5-11.5Zm90 5 2 1 1.5-.5-7 33-2 2 .5 1.5-3.5-1.5 7-31-1-2zm-6 5 1.5.5-2 1 1 2h-1l-.5-1.5q-3.2 1.8.5 3.5l-6.5 25.5-1.5-4.5 4-21zm-73 3 18.5 21.5-5.5-4.5-3 3h-3l-5.5-4.5-3-8 2-6zm64 6 1.5.5-2 1 1 3-4.5 16.5-3.5-.5 2-15zm49 6 1.5.5-6.5 8.5-9.5 5.5-.5 1.5-1.5-.5 7.5-7.5 1.5.5zm-59 4 .5 3.5-2.5 7.5-9.5-1.5 8-5zm140 3 1 2 2.5.5-8.5 2.5v-2l-3.5-.5 4.5-1.5 2 1zm-263 4 2 1 2-1 .5 3.5-2.5 3.5-4 2v-1l4.5-2.5-1.5-3.5-1.5-.5zm-36 3 7.5 2.5-4.5 1.5-2-3-3 2zm244 1v2l2.5.5-2.5.5h-2l-1.5.5-.5 1.5-1-2zm-199 4 4.5 1.5 1 3-12.5 6.5.5-1.5 1.5-3.5 3 1 1.5-.5 1-2-2.5-1.5-1 3-3-1-2 3-1-2-2.5.5-.5 1.5-2-1-2 1v-1zm32 7 11 12z"/><path fill="#b6a869" stroke="#b6a869" d="M588.5 479v2l1.5.5-4 3 .5 1.5 4-2 3 1 1.5-.5-3 2-.5 1.5-1.5.5q1.8 3.3 3.5-.5l3.5 1.5 1 2-8 6 2.5.5 5 2 5-1-1.5 2.5.5 1.5 4-2 1.5 3.5-7 5 1 2-4.5 5.5-1.5-.5 4-3 1-2-6-5-1-4-.5-2.5-3.5-1.5 1-2 1-3-.5-1.5-2 1h-2l-1.5-.5 1.5-2.5-4 2-3.5-1.5 1-6-1.5-.5-5 2q-3.5-2 1-4v2l11-3 1 2zm123 0 8.5.5-.5 1.5-8-1-8.5 7.5zm-163 15 1.5 2.5-.5 1.5 1.5.5.5 1.5 4-2-2 3-3.5-.5-2-4zm-107 3 .5 10.5h-1zm198 1 10.5.5-10.5.5zm-20 1 6 7zm70 0-2 3-4 3 3-4zm-139 5-1 2-2.5 1.5 3 5-4 3 3.5 7.5 1.5-.5.5 1.5 1.5.5-1.5.5-5.5-3.5-2-5 5-4-4-3 3.5-4.5zm60 0 1.5.5-1 2 6 3-1.5.5-6-2-1 2-6 2 1-2 5.5-2.5-1-2zm-33 1 1.5 4.5-6.5 5.5v-2l-3 2-.5-2.5 3-2-1.5-.5-2 1 2-3zm26 8 .5 2.5v2l2 4-1.5-.5-2.5-1.5-1-3zm10 0 1 2 1.5-.5-.5 1.5 2 1 4-2 .5 2.5-7.5 2.5.5-1.5-.5-1.5-2.5-.5zm-50 1 1.5.5 1 3-3.5 1.5-3 2 2-3 2.5-1.5zm142 1 5.5 1.5-1.5 2.5-1.5-.5 2-1-.5-1.5q-5 1-4-1Zm19 4 5.5.5-.5 1.5-5-1-1 3-.5-2.5zm5 15 1.5.5-.5 4.5-2-1-1 2-2.5-3.5 1.5-.5 2 1zm-16 3 3 1 2-1 3.5 1.5-2.5 3.5v-2zm-160 1 2 3 1.5.5.5 2.5 2.5 1.5-1.5-.5-3.5-2.5zm144 71 2 6 2.5.5-2.5.5q-4-1.5-2-7Zm-41 23 2.5.5-4.5 5.5 3-5zm-85 3q7-1.5 8.5 2.5l-1.5 3.5.5-1.5-1.5-3.5q-7 1.5-6-1Zm-242 5 9.5 1.5-8.5.5zm310 0 .5 2.5-5 4zm-167 4-5.5 6.5-.5 3.5-.5-3.5zm339 39 .5 8.5-2 1zm-519 8 1.5 1.5 2 18-1.5.5zm190 11 1.5.5-8.5 5.5 4-5zm-27 6 .5 1.5-7 6zm30 2 1.5.5-6 3-.5 1.5-.5-1.5zm303 2q3.3 5.8 6.5.5-4.2 7.3-6.5-.5Zm-376 5 .5 10.5h-1zm-126 6 1.5.5 1 7-2.5 10.5-.5-2.5 2-13zm36 9 1.5 8.5h-1l-2-7zm146 1-6 7zm-34 18 .5 6.5-1.5 3.5-1.5-3.5 2-1zm315 5 10.5.5-10.5.5zm-427 9 2 1 3-1-1.5 2.5 1 3-2.5.5zm20 23 5.5.5-6 1-.5 3.5-.5-3.5zm-9 2 3 4 3.5.5-3.5.5zm135 1 2.5.5-32.5 6.5v-1zm6 4 3.5 1.5-11.5 1.5-.5-1.5zm-112 3 4.5.5-17.5 2.5 1-2zm-41 4 10.5.5-10.5.5z"/></svg>