<svg viewBox="0 0 1024 1024" version="1.1" xmlns="http://www.w3.org/2000/svg" desc="Created with imagetracer.js version 1.2.6" ><path fill="currentColor" stroke="rgb(0,0,0)" stroke-width="1" opacity="1" d="M 407.5 169 Q 437.2 167.3 461.5 171 Q 494.6 175.9 521.5 187 Q 578.4 210.1 616 252.5 Q 649.4 287.6 666 339.5 Q 679.4 380.1 677 436.5 Q 669.7 505.2 639 550.5 L 827 737.5 L 830.5 741 L 850 760.5 L 853 766.5 L 853 830.5 L 845.5 841 L 838.5 844 L 743.5 844 L 736.5 841 L 558 663.5 L 556.5 662 L 553 657 L 551 655.5 L 539.5 645 Q 491 676.5 412.5 678 Q 357.4 675.6 318.5 657 Q 271.3 635.7 238 600.5 L 236 597.5 Q 201 562.5 182 511.5 Q 173.9 488.6 170 461.5 Q 166.7 438.3 168 410.5 Q 172.5 354.5 193 314.5 Q 217 266 255.5 232 Q 287.4 203.4 330.5 186 Q 364 172.5 407.5 169 Z M 407 202 Q 324 212 277 257 Q 240 289 219 337 Q 204 369 201 415 Q 200 462 212 497 Q 228 542 258 574 Q 287 606 330 626 Q 361 642 406 645 Q 451 646 484 635 Q 532 618 567 587 Q 604 554 626 506 Q 641 474 644 432 Q 646 383 634 349 Q 620 308 595 279 Q 563 241 516 220 Q 491 209 461 204 Q 436 200 407 202 Z M 620 578 L 608 592 L 569 627 L 701 759 L 702 761 L 708 766 L 710 767 L 717 775 L 720 777 L 742 801 L 754 811 L 820 811 L 820 778 L 733 691 L 702 659 L 697 655 L 692 650 L 683 641 L 676 634 L 672 630 L 658 615 L 620 578 Z " /><path fill="rgb(255,228,255)" stroke="rgb(255,228,255)" stroke-width="1" opacity="0.10196078431372549" d="M 0 0 L 1024 0 L 1024 1024 L 0 1024 L 0 0 Z M 408 169 Q 364 173 331 186 Q 287 203 256 232 Q 217 266 193 315 Q 172 354 168 411 Q 167 438 170 462 Q 174 489 182 512 Q 201 563 236 598 L 238 601 Q 271 636 319 657 Q 357 676 413 678 Q 491 677 540 645 L 551 656 L 553 657 L 557 662 L 558 664 L 737 841 L 744 844 L 839 844 L 846 841 L 853 831 L 853 767 L 850 761 L 831 741 L 827 738 L 639 551 Q 670 505 677 437 Q 679 380 666 340 Q 649 288 616 253 Q 578 210 522 187 Q 495 176 462 171 Q 437 167 408 169 Z " /><path fill="rgb(255,228,255)" stroke="rgb(255,228,255)" stroke-width="1" opacity="0.10196078431372549" d="M 406.5 202 Q 436.4 200.1 460.5 204 Q 490.7 209.3 515.5 220 Q 563.2 241.3 595 278.5 Q 620.3 307.7 634 348.5 Q 645.7 383.3 644 431.5 Q 640.7 474.2 626 505.5 Q 604 554 566.5 587 Q 532.1 618.1 483.5 635 Q 451 646.5 405.5 645 Q 361.3 641.7 329.5 626 Q 287.4 606.1 258 573.5 Q 228.1 541.9 212 496.5 Q 199.6 462.4 201 414.5 Q 203.8 369.3 219 336.5 Q 240.1 289.1 276.5 257 Q 323.7 211.7 406.5 202 Z " /><path fill="rgb(255,228,255)" stroke="rgb(255,228,255)" stroke-width="1" opacity="0.10196078431372549" d="M 619.5 578 L 658 615 L 671.5 630 L 676 633.5 L 682.5 641 L 692 649.5 L 696.5 655 L 701.5 659 L 732.5 691 L 820 777.5 L 820 811 L 753.5 811 L 742 801 L 719.5 777 L 716.5 775 L 710 767 L 708 765.5 L 702 761 L 700.5 759 L 569 626.5 L 608 591.5 L 619.5 578 Z " /></svg>