<svg xmlns="http://www.w3.org/2000/svg" viewBox="0 0 1024 1024"><path fill="#171613" stroke="#171613" d="m639.5 184 3 1 4-1 .5 1.5-6 3-5 11 1 2-2 1 4 5-5-4 1-4-3-1 3-5v-2l.5-1.5 1 2 3.5-6.5zm18 5-.5 3.5-.5 1.5-1-2-1.5.5 1 2-3 7 .5 1.5-1.5-2.5 3.5-10.5zm14 22 2.5 1.5.5 3.5 5.5 1.5-.5 1.5-4-1-1.5 2.5 1.5 3.5 2-1 1.5 4.5-2 13 1 7-2.5.5-2-5-4.5 1.5-4 18v35l2.5 6.5 1.5.5q-1.7 6.8 1.5 8.5l5.5 4.5 7.5 9.5 5.5 4.5 9 21 18 28q5.9 15.1 7 35l-7 33v26l-4.5 15.5-1.5.5-1 5 7 5 2 8-3.5 4.5-7.5 4.5-5 10q-11.1 7.4-16 21L666.5 569l-11.5 9.5-7.5 13.5-8 4-4.5-3.5-.5-3.5-4.5 2.5 3 1-3 2 3.5 6.5 7-4-2 3-7.5 5.5-5.5 6.5q-3.8 4.2-13 3l-5-4-31.5 11.5-10 27-13 63 3.5 2.5 2-1-.5 1.5 1 4 12.5 15.5q10.6 3.4 16.5 11.5l2 8 17.5 20.5 1.5.5 14.5 18.5 10 5 2-1 6.5 2.5-4.5.5-3-1-1.5.5q4.3 6.2 13.5 7.5l2-1h2l7 5 2-4 2.5.5-2 6 8.5 5.5 4-7 .5 2.5-4.5 6.5-1.5.5-1 3 2 4-1.5-.5-1.5.5-11 19 .5 1.5-2-1-7 28-3-5-1.5 6.5 3 2 .5-1.5q2 4 10 2 7.6-15.4 20-26l9-5 1.5 3.5-2.5 7.5-1-9-11.5 9.5-1.5 2.5-1.5.5-8 15 3.5.5 5-3 .5 1.5-1 2 26 3-.5 1.5-1.5.5 2 1-4 2 9.5.5 1.5 1.5-.5 1.5-12-2-2 1-2-1h-2q-21.1-1.6-37 2v-1l16.5-2.5-.5-1.5h-2l-18-2-.5 2.5q2.8 1.8-1.5 3.5l-1.5-.5-1-2 1-3-2.5-1.5h-14l-17.5 6.5 2.5.5 12-2 4 2 2-1 1 2q-19.5-2.5-29.5 4.5l15.5 2.5 2-1 4 1 3 1 21.5 2.5-.5 1.5-18 2v-1l10.5-1.5-.5-1.5-34-3h-2l-14-2-2 1-29-4h-14l-4 2-16 1-19 5 2-3 27-6 4 1 5.5-2.5-8.5-2.5-10 2v-1l10.5-2.5-3.5-.5-11.5 3.5-.5 1.5-6 1-1.5-.5-.5 1.5-27 6-7 4-3-1-18 4-.5-1.5 18.5-3.5 17.5-6.5-.5-1.5-23 1-.5-1.5 2.5-1.5 5 1 11-1 2 1 19-2 19.5-6.5-1.5-2.5-2-1-3 1-2.5.5-.5 3.5-2.5-1.5-.5-1.5-18 7-2-5-9 1h-4l-4-1-5 2-4-1-12.5 3.5-.5 1.5-3-1v1l1.5.5-1.5.5-3-1-59 15-11 1-3.5-1.5 1.5-5.5 12.5-5.5-9-5 .5-2.5 8 2 3-1 8-2h2q9.4 1.9 12.5-2.5l-2.5-.5-11 1-.5-3.5 5.5-2.5 19-1 15.5-6.5-22.5-7.5h-2l-21-3q-18.1 1.9-28.5 11.5l.5 1.5 1.5.5-.5 1.5-5.5-2.5 1.5-2.5q12.3-10.2 33-12l20 3 29 9q6-6 17-7l5.5-5.5 9-14-10-28 1-2-7-30-20-43 2.5-1.5 5 8 .5-1.5-6.5-13.5-7 16-1.5-2.5 6-15v-5l-4-10q1.5-3 3 0l2.5 6.5 12.5-32.5 4-26h-1L440.5 703l-1.5-.5 14-46 2-26 2.5-3.5.5 1.5-3 20h1l4-22-2-1-1.5-3.5-14-3-7.5 6.5-1 2 1 2-7 5-3.5 4.5-20 13-16 5h-11l-26 10-1.5-2.5 5-4-1.5-.5-15 7-15 1-1.5-1.5 4.5-5.5q-10.7.7-15.5-4.5l.5-1.5 14 3 6.5-4.5 1-2-8-3 11.5-5.5 18.5-17.5q12.3-14.7 16-38l-8.5-6.5-2 2-6-6h-3l-8.5-6.5-4.5-5.5-13.5-12.5-12-18-4-11h1q8 21 22.5 35.5l6 5 .5-1.5-8-13-19-49-5-19v-13l2-9-4.5-17.5-3 12-.5-5.5 4-18-1-5 3-17 8-23 20-37 22-33-1.5-.5-18.5 16.5-23 30q-8.3 12.7-10.5 31.5l-1.5-.5 1-9 7-19q14.5-23.5 33.5-42.5l2.5-1.5.5-1.5 28.5-20.5 1.5-2.5 24-18-2 3-23.5 18.5-.5 1.5-13.5 10.5-8 12 4-3 12.5-13.5q17.1-16.9 41-27l74.5-23.5-14.5-2.5q-17.5.5-30 6v-1l21-6h20l16 2 11-3 34-3 2.5.5.5 1.5 5-2 13 3 23 15q16.3 2.7 26 12 4.7-5.8 3.5-17.5l-3-14 .5-1.5-1.5-.5 1-4-1.5-.5-7 3-1-3-3.5-.5 1.5-2.5 2.5-1.5v-13l-1.5-1.5-2.5-.5 1.5-2.5 2.5-1.5 1.5-3.5 2 4 5-1 2 1 .5-1.5-3-1 .5-3.5 26 5h16l15.5-3.5zm-20.5 8-5 3-6-2-3 2-2-1-19 1h-2l-2 4-1-3-3 1 1 6 2-1-1 2 1 6 5-1q5-1 7 2l2-1h2l2 1 1-2v2h7l2-3v3l2-1 4 1h4l16-1v-3l1-3-1-5-1-3 2-1 1 16 2 1 2-1-1-16-1-2h-15zm3 20-4 1h-2l-4 1-1 3-1-3-5 1-1 2 6 1v2l-5 1 2 3 4-1 1-2v2h4l2-6 1 5v2l1 4-1 2 2 7h2zm3 0 2 11 2-9zm-28 3-4 1-2 4 1 2 4-2 1-2 3 1-3 1-1 2 5-1v-2l2-1-1-3-3 1zm5 6-9 3v1q7 1 11-2zm-95 3-29 4-6-1-5 2-1 2 2-1 51 1 24 6h1q-9-10-25-13l-2 1zm107 0-2 3 4 1-3 2 3 7h2l-1-12zm12 3-2 2 1 8h2zm-34 2-2 6 17 2h5l-2-8-10 1h-2zm0 8q-4 2-2 10l8 1 1-9zm-146 1q-19 2-32 9l-1 2 37-10zm41 0-23 2-9 3 47 4 18 4h10l-20-9-9 1-4-1v-1zm117 0q-4 3-3 10l6 2 3-1 2 1h2l4 2h2l-1-13-4 1 1 2h-1l-1-2-3-1h-2zm19 0-3 2 1 10 3 3 1-2v-2l1 5-2 1-10-2-3 10h11l1-2 1 2 4-1v-3l-1 2-1-2 2-1-1-2 1-5-1-11-2-1zm-106 3 18 9 11 2-5 1 13 7 1-3 1 5 5 3v2l1 1h-4q-10-10-23-16h-17q-22-6-48-7-20-2-33 2l-2 3-2-1-31 10h-5l2-1v-2q-32 13-53 35l-9 11-2 1-3 5v2l-2 3-1-2-27 43-8 24v8l-4 16 2 28 1-8-1-2 4-14 1 1-3 11q-2 24 3 42l10 15 14 29 8 11 3 1v2l21 9v1l-19-8h-2l-15-18-17-36-2 1q8 40 32 64l16 11 6-1 1 11h2v-1l-1-3 2-3 4 2-3 9 6 5v1l-6-3-8 17-6 20-10 15-7 6-2 5h2l3 1 3-1 2 1 12-5 35-21 18-20-1-2 6-4 1 3 3-2 4 2h1l-1-8-12-9 1-2 11 7 1-23-1-20v-2q0-24-5-43l2-1 2 19h1v-22q-4-20-4-43l-3-2 1-2-1-2 1-2-2-27-2-4 1-9-5-2 4-2-1-4 2-3 3 7 11-1 3-1 7 1h2l2 1 6-1-2-1h-2q-10 1-14-2l1-2 18 3 25-1 3 1 8-1h23l34-6 14 2h2l8-2v2l-4 2-2 10h2v-3l2-1 1 21-1 3 1 3v2l-3 12 2-1 1 1h-1l-2 5v2l1 2-1 10v2l-1 10v2l1 27-1 3 2 5-2 4 1 19 5 27v2l2 9-1 2 2 10 37-18 19-15q12-10 19-26l1 1-2 6-12 17h2v2q-1 3-6 2l-36 30-13 7-1 2 32-16-1-1h2l19-11 10-16 30-63v-7l-7-20 2-1 7 20v-1h1l-1 4 1 4-1 4 1 4-1 2v2l1 4 7-20 1-9 1-3-3-30v-2l-2-15-3-6v-6l-12-44-21-14-8-1 1-2q16 3 26 13h1q-7-19-20-31l-1-1-2 4q1-16-4-25l-3 1 3 6-2 1q-1 8 3 11l-2 3-3-9 1-2-2-11-4-2 1-7 1 4h2v-2l1-8-8-2-3 1-6-2 1-2 3 1h4l-1-2 1-7-18-3-3 7 2 5h2l5 9h-1l-4-6-3-2 1 2v1l-3-1-1 2-3 1-2-5-5 2 11 16 3-1v3l-3 1-8-13-9-9v-1l2 1h1l-6-5-2 1-5-4-2 1-29-13zm-146 20-27 17-15 16 43-32zm250 4-1 12 2 1 2-1-1-10zm17 23 2 10 9 6 5 8 5 4-4-9zm-312 19-2 1-3 4h-1l-12 16 1 3q-12 13-17 34l1 3q13-34 34-60zm331 10-1 3 10 17h1q-2-13-10-20Zm12 17q0 11 6 19l-1 8 4 10 6 43 5-24q-1-37-20-56Zm-10 1 11 33h1l-1-3 1-5-1-1zm-2 13 10 38 6 43-1 5 1 5 1-8v-2l1-3-1-24v-2l-9-33zm-127 20-2 2h11q3 2 0 3l-16-2h-14l-33 5-42 1h-2l-14 2-5-1-1 2 4 3h15v2h-2l-3-1-9 1 4 4 4-2 2 1q7 2 9-2l2 1 16-2 2 1 37-2-4-2v-1l5 1h2l9-2 10 2 4-1 5 1 5-1 3 2-1 2h2v-2l3-1 9-10v-3l-3 2-1-1-9-2zm-247 2-7 20 1 10-1 6h2l-1-1 6-31zm263 4-2 7 1 3v5h-2l1-3-1-7-6 7 3 25v4l-2 7q-2 18 2 30l-1 2 3 30-1 3 1 20v2l3 25 2-1-3 4 1 6v2l-1-3-2 1 1 18 2 1 7-2-3-50v-2l-1-3 1-2-2-33 1-3-1-2 1-5-1-3 1-2-1-51 1-9-1-2 1-3-1-15zm-137 9-1 2q3 2-1 5h2v23l1 2-1 3 2 10 1 27 2 1 1-12q-2 28 2 52l-1-1-1 2v2l3 35-1 3 1 24v2l1 3 4 2h3l-2-12 1-11v-2q2-31-3-53v-50l-4-42-1-1-1-1h-1l-1-1v-2l1-2 2 3 3-2-6-3-3-4zm126 4-2 2 2 14h1v-14zm-31 2v2l4-1 5 1 6-1zm48 1-1 5-1 3 1 11h1zm-64 1-3 3 3 3 1-2v3l-3 2-1 2h-1l-1 2-13 8-4 7 1 5-1 6-1-19-4 2 3 28 1-7v-2l1 1-1 9 1 31v2l-4-11 1-3-5-42 1-2-2-5 2-5-1-1-1 2-4 2-5 5-1-1q-5 1-4 10v2l1 16h2l2-3-1-2 1-13h1v16l-4 5 3 19-1 3-4-28-2-7-2 4 1 1-3-1 1-3 2-1 2-7v-5l-9 8 1 3-1 7v2l-2-19-2 4 1 10v2l-1 2 2 11-1 2 1 7-1 2q-1 9 2 15l-3 7 2 14v2l-1 4 1 4-1 2 2 10h2v4l-1 2 2 10-1 4v2l1 6h2l1-5-2-1 3-1 1 3-3 12 2-1 4 12 2-1-1-1v-1l-1-5 1-3-2-7 1-2-1-8v-2l1-2 1 2 1-4 1 3-1 4 1 14v2l2 18h3v-3l-1-2 1-9-3-27 2-1 2 17-1 4 4 3-2 4 1 3-2 11 5 1 2-11-2-3 1-6v3l2 6q4 1 1 3l-1-3-1 4 1 3 3 1-2 4q2 3 9 1l1-2-1-9 1-4-5-34-1-5 1-16q3 9 1 25l2 2 4 31 4 11v1l8-2 1-2 1 2 6-1 2-7 1 6 8-1v-5l-1-14v-2l-2-41 1-3v-2l-1-2 1-4-3-14v-13q-8 11-7 32h-1q-1-15 2-24 6-6 7-16l-1-2 1-3-1-3 2-1q-1 24 3 43v31q2 13 9 23l3 18 5-1-1-11-4-6-4-16q-2-13 4-17l4-3 1 3h-2l-6 10q1 15 8 26l2 14 3-1 2-9q4-25-6-36l1-2q6 5 6 17v2l1 12v2l-1 9 1 4 3-1-1-3 2-14-1-8 2-6 1 6h1l-3-22-10-22-5-4-3 3-1 13-6 14 1 6h-3l1-10q6-7 7-18l-1-4 3-5 6 1 2 4h1q0-13-5-21v-2l-2-10 1-4-1-5 1-10-3-2 3-1v-1l2-1-1 24v2q-1 8 3 12v2l5 20h2l-1 2 5 11v-7l-1-5-1-3 2-5-2-1 1-4h-1l1-2-2-5h2v-1l-1-1v-3l-1-2 1-3-1-1v-1l-1-11 1-2-1-2v-2l1-2-2-4 1-4-1-3 1-2-2-5 2-3-4-37-9 2v13l2 2h-2l1 17 3 1v2h-1l-1 2h-1l-3-2-1-16v-2l-2-4 2-7v-6l-5 1-1 3-1-2 1-2-4 1-1-1-1-1v2l-1 4-1-1-1-1q-4 2-2 10v2l1 14h-1l-2-2-1-19-2-3-3-2 2-4zm-5 1-8 4-3 2 1-2 1-2-2 1-2-1-4 1-1 3v2h3l-2 3 1 2 17-12zm2 3-13 8-1 2h-2l-3 4 1 3h2v-1l3-1 3-5 4-3 2 1 2-4 3-2zm-33 2-9 4 2 3 2-3 1 2 8-5zm5 1-1 2-4 2-4 6h-3l-2 6h2l1-3 2-1 1 2 7-5 2-5zm-25 3-2 5v2l1 4 3-2v3l-4 3 1 2 9-8v-3l-4 3-1-1-1-1-2 1q2-5 4-2l2-1-2-1h-2l1-2 2-1zm8 11-2 2 2 1-1 3-2-1-1 2 1 1-2-1-3 5 1 1 4-2v-1l2-1q4-1 2-8zm-151 6-3 17v2q-1 10 6 14h2zm245 15v11l-1 3 2 24-2 1h2l-1 2 2 4h1l-1-33v-2l-1-9zm-256 8-1 14 4 15 7 14 8 24 5 7 2 1-17-38zm12 12-1 4 8 20h1l-3-17zm370 6-7 15 1 2h-1l-23 48 1 2 6-4 20-38 3-11zm-235 1q-3 22 2 41h1l-2-38zm114 17-1 2v49l3 7 2-1-3-34v-21zm133 5q-3 12-9 21l1 1 10-14-1-7zm-5 5-18 30h2l7-7 9-19zm-367 4q2 13 11 22h1zm354 25-4 3-5 7 1 1 8-9zm-25 9-6 7h2l5-5zm-321 5 3 10 13 9h1l-10-13zm120 5-2 2 1 25 2 2 1-2zm78 5 1 29 5 1 1-1-2-4h2l-1-10-1-1v-1zm125 0-9 8 1 2 2-1 7-8zm-36 1-36 19 2 7 35-25zm-157 15-1 8v2l3 13 1-4-1-3-1-15zm113 6-2 1-2 5-1-3-2 1 1 7 9-3-2-7zm-19 4-2 1-2 4 1 4-1 2-2-4v-5l-3 1-1 6 3 2-1 2 1 1 14-4v-1q-2-4-3 0-4-2-3-8zm-112 3-1 7 5 2h3l-1-6zm97 1-2 2 2 5 4-1v-5zm-6 1-3 2 2 6 5-1-1-2v-2l-1-2zm-65 2-2 1-2 3 1 2-3 2 8 2v-2l2-1 1-4zm52 0-3 1-17 3-1 2 22 1 3 1 4-1v-1l-3-1 1-4zm-44 2-2 4 3 1v2h5v-3zm9 3-2 4q2 3 9 1v-2zm111 1-9 6-4-2-8 2-6 7 1 1 5-3 2 1 20-8zm-97 2-1 3h6l5 2 2-1 2 1 5-2 5 1 1-2-1-1h-2l-2 1-11-2h-2l-3 1zm60 0-6 8h3l4-7zm-15 3-4 2 1 1 2-1-1 2 1 1 2-3 2-1zm-179 3-19 27 1 1q12-10 18-25zm138 9-5 1-2 3 17-1v-2zm51 2-4 6 1 5 3-9zm-35 2-2 5v2l1 3h1zm-9 1-15 1-9 21h-1v2l-1 3h-2l1 2v1l-1-2-5 9 1 3-1-1-3 4 1 3v1l-1-2-3 6h2q-12 20-17 48l-1 3 2 5 2-3 1 3-3 1h2l4 7 8 30 13 23v1l-11-20-2 1 3 19 32 72q5-4 16-2h2l8-1h2l23 2h11l15-5 5 1-18 5 21 4h5l14-7 4-14v-6l-10 21q-1 3-3 0l12-26 2-1 2-6-3-13-8-10-2 1 10 20v2h-3l1-3h-1l-2-5-14-13-6-6-1-1-29-34-13-13-11-2-1-1h7l-10-9-7 2-3-4-1-1-1 3-1 3 1 4-1 4-2-7v-2l1-2-1-4 1-5-1-4-7-3 7-31 1-16v-2l-1-4 1-13-1-3 1-7-3-26zm-93 3-15 11-28 11-1 2q29-4 44-22zm-76 3-13 12v1l4-1 9-10zm50 0-14 8v1l15-8zm63 10-2 2 1 6h2v-4h-2l1-2zm74 5-3 7 1 1 3-7zm6 6-1 2h-1l-2 6h2l3-5zm-173 1-14 6 1 1 15-6zm92 1-3 4 2 4 2-1 1 2 1-2-1-1v-1l-1-4zm83 2-4 6 2 2 3-7zm-213 2-6 4 1 1 13-2zm203 0-3 6 1 15q4-2 3-9l-3-1 4-6-1-4zm13 2-4 5 3 5 2-4zm-80 7-2 2 2 7 2 1-1-9zm74 1-2 6 4 2 2-3-2-4zm-85 4-2 3 1 6 3-7zm81 2-3 4 1 4 3 1 3-4-1-2zm-72 1-2 3 1 8h2l1-3zm84 0-3 7 2 2 2-6zm-90 3-4 5 1 3h2l2-7zm73 2-2 2v33l1 3-1 5 10 7 2-7-10-4q7-12 9-28l-4-3-3 6-2 1 4-8zm10 0-3 4 3 4 2-6zm-80 2-4 6 2 10h2l2-8zm-9 1-3 8 3 5 3-6-2-6zm4 9-3 5 4 12 2-6zm9 0-4 14 1 2 4-15zm78 1-4 10 1 4v1l-1-2-5 12 7 1 4-21zm-93 2-5 19 1 2-3 7 3 8h2l-1 2 3 6 2-6 1 3q4-3 2-12l-2-1 3-9-4-12-1-1v-1zm97 3-5 21 3 1 3-21zm-104 6-6 14 2 7 4-18zm80 3-4 18 4 2q3-2-1-3l2-16zm28 9-1 5 7 2zm-8 8-4 7 6 8 6 3 1-5v6l15 11 1 1-3-7-1-3-1-1-2-3 1-2 7 15 7 4 1 1-3-8 1-2 5 14 13 10h1l-20-27-1-1-1-1-2-1-1-2q-7-9-17-13l-1 3-1-3-2-2-3 6h-1l1-7zm-100 2-2 4 7 15h1zm87 1v4l11 8h1l-1-2zm-73 7-3 4 1 10v1l-1-1-2 1 1 2 2-1 2 1 2-6q1-8-2-11Zm122 7 1 5h2l2 2zm-118 3-3 9 2 5h2l4 14 1-2v-2l-3-12h-1zm84 0-1 2 4 2 2 2-2-4zm-79 4 6 27h1q0-17-7-27Zm-22 4 6 17h1zm117 1-1 2 9 6h1l-2-3zm12 5-1 2 6 4h1zm1 6-1 2 8 6h2zm21 0 1 4 6 5-4-6zm-10 6 11 11h1l-1-2zm-131 2 4 18 11 26h1q-5-26-16-44Zm119 1-1 2 26 30 4 2 11 11-4-9 2-1v-1l-1-1-1-1-26-23-4-4zm-102 3 2 11-1 3 2 5 3-2-5-16zm118 4-1 2 17 14h1l-3-5zm-123 6 3 14 2 1-4-14zm140 1 5 11 4 2 1 2h1l-3-7-4-4-1-1zm-129 8-2 2 4 10h1l-1-3v-2l-1-6zm141 2q0 9 7 14l2-6zm-158 2-2 2 12 38 4-8zm13 3-2 2 7 15v5l2-1-1-8-2-1 1-3-1-1zm11 2q3 19 11 35l3 2zm149 2 8 8v2l-1-1-4 10 4 2 8-11zm-4 1 3 11 5-2v-1zm17 0 7 6v-1zm12 7-2 3 5 3 1-2zm-175 7-1 6 5 12h1zm163 1-5 7 1 4h2v-4l2-5zm12 2q-6 5-8 15h2l7-14zm-19 8-4 5 2 6 5-8zm-164 4-12 19v1l13-10zm13 4 3 22 2 1-3-18zm11 1-2 4 5 8h1zm142 1q-6 4-5 14h2q-1-7 3-9zm-147 8 2 15 3 2h2zm-8 1-4 2-1 3 6 3h1zm139 2-3 7v1l3-2zm20 0-2 8h-1l-1 2 1 2 4-11zm-140 1 2 21 2 1 5-1zm-28 1-7 8 15 4h1l-1 3h7v-2l-5-2 1-2-5-4-3-1-1-2zm155 0-4 6 1 2 5-3-1-4zm-163 4-5 3-2 3h4l4-5zm166 2-6 6v3h2v2l-6 3 8 1 3-14zm-11 2-4 5 2 2 2-1 1-5zm-153 2-3 3 1 2 9-1v-1zm55 0-13 2 5 8 43-8-8-2-5 1-2-1-5 1zm45 1-48 10 1 1h23l38-7zm-116 1-6 5 2 1 5-5zm5 1-2 3h-1l-1 2 7-1 1-2zm40 1-4 1-1 2-10 3 1 1h17l-1-5zm-68 1-5 2-1 2 8-3zm11 0-8 5 1 1q7-1 10-5zm148 1-38 6-1 3-2-1-18 4 1 1 8-1v2h-2l-1 2 5 2 22 3h7l-3-4 1-2 8-3-4-3 1-4 4 2h8l10-5zm-124 2-2 2 4 1 8-1v-1zm150 0-15 4 1 1 10-3 3 1 4-2zm-170 4-2 2h4l9-1zm74 1v4l15-3zm149 4-9 3v1l21-2zm-75 1-16 5-5 4 2 1h12v-1l11-6 1-2zm-166 2-5 1-1 2q-15 0-25 5h-2l-15 1-8 4q-5 2-1 4l63-15v-1z"/><path fill="#171613" stroke="#171613" d="m429.5 262 3.5.5-30.5 15.5 2-3zm22 37 4.5 1.5-9 6 3 1-8.5 4.5-.5-1.5q2.3-5.7 4.5-2.5l1.5-.5q-2.8-1.8 1.5-3.5l3.5-2.5zm204 42 9.5 5.5-1.5.5q-6.5-1.4-8-6Zm25 38 4.5 3.5 2 4-3.5-2.5-1.5-.5zm-326 4 3.5.5 1 10-6 26 1 2-2-1 5-33-1.5-3.5zm326 7 6.5 4.5-1.5.5zm-119 11 8.5 1.5-34.5.5v-1zm14 16 2.5 24.5-1.5.5zm-35 10 1.5 3.5-1.5 6.5-1.5-8.5zm153 2-5 6zm-176 2 1.5.5 1 7 6 12 5 24v2l-.5 3.5-1.5.5q-.1 14.4-5.5 23.5l.5-1.5 4-19v-15q-2.5-19.5-11-33zm161 4 4.5 3.5q5.3 6.2 5 18h-1zm-144 2 1.5.5v7l4 15-1 3h1l.5-1.5.5 2.5v2l1 5-3-1 1 3h-1l-1-4 1-2-3-20-3-7zm6 1 1.5 8.5-2 1-2-6zm18 1 1.5 3.5-2 8v2l1 9v4l1 10v6l-1.5 2.5-.5-2.5-1-7 1-2-2.5-12.5-1.5-.5 2-5-1-2zm-46 3 1.5.5 2 5-7.5 16.5-1.5-5.5 6-9v-4zm-66 9 .5 17.5h-1z"/><path fill="#171613" stroke="#171613" d="M519.5 453q5.1 7.9 5.5 20.5l-1.5.5-.5-9.5zm-219 2 1.5.5-1 32 7 31h-1l-7-26zm137 0 1.5.5-.5 9.5-1.5-7.5zm78 4 2.5 11.5-1.5 2.5-2.5-.5v-12zm181 3 .5 4.5-2 4v2l-.5 1.5-.5-3.5z"/><path fill="#171613" stroke="#171613" d="m519.5 464 .5 11.5-3.5 6.5-3.5-1.5-4-13h1l5.5 12.5 2.5-2.5zm-81 3 .5 12.5h-1l-1-11zm27 2 1 2 1.5.5-2 5 1 3-.5 3.5-1.5-.5-1-8zm206 3-.5 1.5 2 6-1.5-.5-2.5-1.5zm-201 3 2.5 13.5-1.5 2.5zm14 0 1.5 16.5-2-1zm40 1 .5 9.5-4.5 7.5-5.5-3.5.5-2.5 3 5 2.5-.5zm-85 9 1.5 12.5-1.5.5-1.5-11.5zm27 0 1.5 12.5-2-1v-4l1-2-1-3zm35 2 4.5 3.5 13.5 29.5 1.5-.5 1 4v2l-.5 4.5q-6.3-25.9-20-43Zm11 8 3.5 8.5h-1zm-34 4q8.3-1.3 10.5 3.5l6 9v8q-1.4 8.1-7.5 11.5l-1.5.5q3.3 2.3-2.5 4.5l-3.5-.5.5-1.5 4.5-1.5-9.5-1.5-.5 1.5 3 2-2.5.5-5.5-3.5-4-8h2l-.5-4.5-1 3-.5-2.5q-.3-12.3 6.5-17.5zm2.5 8-4 2q-5 2-2 4v3l-1-4-2 3 2 5v-1h1l-1 2 6 3 10-6-1-6zm8 13-6 5 1 1 5-3zm11.5-20 2.5 12.5h-1zm143 0 3.5 7.5-2.5.5zm16 18 1.5.5-3.5 8.5-.5-1.5zm-23 7 1.5.5-.5 1.5-11 5 2-3zm-83 5 5.5 4.5 7 25-2.5.5-3.5-11.5v-2q-.6-11.6-6.5-16.5Zm-43 1 1.5 19.5 3.5 12.5 3.5 1.5-3.5 4.5-1.5-3.5h2l-.5-1.5-2.5-1.5-2-9z"/><path fill="#171613" stroke="#171613" d="m522.5 531 1.5 7.5-2 9v2l1 7-1 5 2 14h-1l-1.5-5.5-5.5 4.5-.5 3.5-.5-3.5 1-2-.5-1.5 1.5.5.5 1.5q4.4-1.6 3.5-8.5l-1-3 1-3-1-4 2-13v-4zm19 2 1.5.5-4.5 7.5-.5-1.5zm-13 1q3.8 2.3 1.5 10.5h-1zm-56 15 1.5 10.5h-1l-1-3v-2zm32 2 1.5.5q-.8 19.3 4 33l-1.5.5-3.5-18.5v-2zm-34 1 .5 3.5v2l-1.5 3.5-.5-7.5zm81 4 1.5.5 1.5 5.5 1-4 1.5 10.5-1 2 2 5-1 3 1 6-2 1-2.5-12.5-1.5-.5-1-4 1-7zm-65 10 1.5 6.5v2l-.5 1.5-1.5-2.5 1-3zm91 7 .5 10.5h-1zm77 21-1 2-7 4v-1zm-232 10 2.5 3.5-1.5.5-4.5.5-2.5 4.5-7.5 5.5-.5 1.5-2-1-19 12 .5-1.5.5-2.5 2 1 17.5-11.5.5-1.5 3.5-.5.5-1.5zm154 25 2.5.5-6 12-11.5 48.5-.5-2.5 9-42zm53 1q5 2.5 3.5 11.5l-2.5 3.5-2 1-5.5-3.5q-1.1-7.6 2.5-10.5zm-249 3 .5 1.5-5 2-.5 1.5-5 2 1-2zm252 158 7.5 4.5-1.5.5zm54 15 2.5 1.5-1 5 .5 1.5zm-26 51-3 4-3 2 4-5zm35 11 7.5 1.5 7.5 12.5 45.5 9.5-20.5 5.5-.5-1.5 9-4-4.5-2.5-24-2-8.5-4.5-8.5-12.5-8 1-19 7-1.5-3.5h1l.5 1.5zm-304 9 3.5.5-75.5 22.5h-2l-23 5h-11l-2.5-1.5.5-2.5 10-3v1l-5.5 2.5q2 3.5 9.5 1.5l26-5zm370 1q6.8-1.7 8.5 1.5l-14.5 3.5 1-2 4.5-1.5zm-132 11 4 1 1.5-.5-2.5 1.5-2-1v2l-1.5-.5zm-273 2 2.5.5.5 1.5 16.5 2.5-5.5 1.5h-2l-12-1-1.5-1.5zm282 1 3.5.5-9.5 3.5-.5-1.5zm28 0 2.5.5q-3.7 4.3-12.5 3.5v-1z"/><path fill="#f3f2ed" stroke="#f3f2ed" d="M.5 0 1024 .5l-.5 1023.5L0 1023.5zM737 106q-17 1-26 10l-3 5q-1 6 3 7h1l-1-3 2-7q7-7 20-9l8 2 2 3 2-1-5-5h-2v-1zm-57 15-15 10-11 11-2 7 2 10-1 3 1 5v-1l2-1-1 4-9-1-6 3-4 5 1 8-6 15 2 6q1 4 7 3l-4-4 1-3q-1-7 3-9l2 7 7 2 3 8 2-1-1-3h4l-1-2 1-4-1-1-2 1 1-3 5-2h2l13-3 1-7 11-5 7 5 3-1-1 2h3l3 1 9-1 5 1 2-1v2l5-1 3 1v-1h2l1-2 2 1 1-2 2-1 3-5q1-7-2-10l-2 1 2 6-1 4-8 6-15-1 3-2q11-10 16-26l2-1v3l-1 7h2l1-3-1-4 3-2 1 4 2-1v3l6 2 2-1-4-2 4-6 2-1q6-6 8-17v-2l-3 2 1 2-9 16-5 4-3-3-7-4-1 2h-1l-7 14-6 1-5-7-3 5 4 1v2l7 2-4 6-9 5q-9 1-12-3-5-2-2-3v-3l-3 2q-6-6-5-17v-5l-3 1 1 5-1 3h2l-1 2 3 13-7 3-2-2 4-3 1-3 1-2-3 2q-4-8-4-20l-2 1 1 5-1 3v2l2 5-2 1 1 1 2-1 1 5-3 1-1-2-3 1-2-1-1 2h2v2l-1-1-2 8-3-7-5 10-2-14 4-3v6q2 3 3 0l-2-13 1-4h-3l1-4v-2l-3 2-2-5 2-7 24-20 12 7v2l4 1q-4 2 0 4l3-2 3 2 3-1 1-2-3-2-1-3-2 4-11-8-1-1zm84 20v2l-1 11-7 6-9 3 1 1 9-2v-1l6-3 3-6-1-10zm-97 12-2 2q-1 7 2 10l-1 2 1 5 1-3zm28 6-2 3 2 3-2 4 1 1 2-1 1 7h2v2l2-1v2h2l6-8v-4l-4 8-3 1q-6-5-6-16zm-80 52-4 3 1 3h-4l-1-1-2-2-1 4h-1l-3 5h3l1 5-1 9-4 3q2 4 4 1l2 4 6-3 4 15-1 21q-12-9-28-12l-13-9-1-1-18-7q-17-2-27 2l-4-1-24 4q-13 1-21-2-19-1-31 4l-21 7-16 8-60 45q-23 21-40 48l-7 18-1 12h2q2-18 10-31l23-30 17-16 1 1-20 30-21 39-9 29v8l-2 2 1 4-5 31 1 35 3 15 11 27 11 16 7 5v2l16 14 8 3 4 5 3-1 8 7q-4 21-15 35l-17 17-12 5-2 4h4l1 2 2-1v2l-5 4-11-1v-1l-4-1-2 3q5 5 16 4l-4 5 1 2q15 2 24-4v-1l5-2 1 1-4 3 2 2q16-3 28-10l4 1q33-5 51-27l3-7 7-5 13 5-3 8-2 26-13 46h2l10-32 1 1-4 19-11 29-4-7-3 2 5 11-6 21h3l6-15 3 7-2-2-4 3 22 47q3 31 14 56l-11 17-6 2h-2l-10 6-9-1 14-5 3 1 3-2v-1l-20 5-36-8-19 2-20 10-1 3 4 2 13 2v-1q-9 0-13-4 9-9 26-11h14l3 2 2-1 18 6-69 19h-4l-2-1h-2l-5 1-9-2-9 1-2 3 6 1h4l2-1 2 1 5-1h2l3 1q-21 8-46 12h-13l11-5 1-2-18 6-1 3 7 1 3 1 33-6 39-12 2 2h-6l-3 6 3 1 2-1 17 2-6 2-2 4 3 3 15-1 36-10 14 2h2l16 3h2l3 2-11 2-1 2 19-3 9 2-48 11h-2l-2 3 4 1 2-1 4 1-2-2 16-5h2l3-1h2l30-6 3 1 14-1h2l36-2 2 1 25-3v-1l-3-1h-2q-8 3-20 2h-2l-17 1h-2l-5 1-2-1-2 1-4-1-2 1v-2l-14 2-9-1-3 1-5-1-1-1 33-9 4 1v-1l4-2 2 1 12-3v2h-2l-4 2-2-1-3 2-2-1-2 1h-2l-14 6 1 2 11-4 22-2 7-3 36 3h2l10 3-3 1-3-2-2 1-1 2h4l4-1 2 1 4-1h2l10-1h2l24 4-26 2 8 1 3-1 2 1 10-1 2 1 12-2 1-2q-5-4-15-3l-1-2 3 1v-2l3 2 7-2 3 1 4-1 2 1 2-1-3-2-3 1h-7l5-3 11-1h2l2-1 9 1-13 3-1 2h3l13-1-1-1h2l32-3v-1l-7-3 12-3 12 3 24 2 1 2-9 4 1 1 21-4v-2l-1-2-33-4-10-3-11-15q-16 2-26 8h-4l3-5-1-1-4 7-6 3h-3l7-13 14-13 1 1-1 9h-1l-1 2-2 1-2 3 5-2q5-5 5-16l-2-2-9 6-19 25h-9l2-12 17-13v-2l-12 9-3 2 2-13 2-1v5l2 2h1l-2-7v-3l10-16 2-1v2l2 1-2-9 2-1v-1l2-1 3-7v-4l-6 10-7-4 2-7-3-2-3 4-4-4q-12 2-16-4l-1-2 5 1 6-3v-1l-19-10-4-2 1 3 16 8 1 2-15-3-29-33-5-7 9 7v-1l-10-9-4-7-15-11-14-16 2-22 6-30 10-34 3-2-3-2-4 5-9 35-7 45-3-1 10-53 12-36 3-3q16-2 27-9l10 4 12-5 4-6 8-5 2-3-8 3-3-5 2-1v-1l-2-1 4-3v5l4 2 7-2q7-5 9-14l3-2 27-27 7-13 4-3 12-16v2h1l-1-3 6-4 5-7-1-4-8-6 7-27-1-5q0-26 7-44 1-24-6-39l-19-30-9-21-2-2-11-12-4-4-3-2v-6l-4-8 1-37 4-12-1-2 5-2 2 5 2-1-1-9 3-14-3-2-2 1 1-5 4 1v-3l-4-1-2-4-3-1-2 3-20 3q-20 0-34-6Zm80 343-8 13h2l6-10zm-10 15-10 9-1 2-28 19-1 2 6-2v-1l29-21 1-2 4-3 1-2zm-56 61-2 1q-6 2-5 11l6 4h3l3-5-2-9zm58 175-2 1 1 3q1 17-7 27l1 2 7-14 3-13-1-4zm76 72-17 3-3-1-24 3v1l32-2 3-1 4 1-13 4v1l25-5v-2zm-193 23-2 2 4 1 5-1v-2l-3 1z"/><path fill="#f3f2ed" stroke="#f3f2ed" d="m645.5 171 7.5 2.5.5 3.5 1.5-.5-1 5h1l.5-1.5.5 3.5-2 1 .5 1.5 1.5.5-3.5 5.5-1.5-7.5v-2l-1.5-7.5-1.5.5 2 10-1 2 1 9-1.5 2.5-1.5-6.5v-2l1-7-1.5-2.5-1.5.5-1.5 2.5-2 1-2.5-6.5 4.5-6.5zm24 7 2.5.5 1 8-2.5 2.5-11 1-.5-1.5 3.5-4.5 4 2z"/><path fill="#f3f2ed" stroke="#f3f2ed" d="m644.5 187 .5 9.5-1.5.5-1.5-8.5zm3 34 16.5.5-.5 15.5-5-1-1.5.5 2-13-2 1-1.5 6.5-1.5-.5-.5-1.5-3.5 6.5 1.5.5 2.5-1.5-.5 2.5-5-1-3 1-3.5-1.5-.5-1.5-3.5.5-1.5 2.5-5.5-.5 3-9-1.5-.5-6 10-1.5-.5 2-12-2-1 3.5-1.5h2zm19 0 3.5 1.5-.5 15.5-1.5-.5zm-50 2 1.5.5-4.5 12.5-.5-1.5zm5 0 2.5.5-4.5 11.5-2 1-.5-1.5zm-85 29q26-1.5 38.5 10.5l-2.5.5-18-5q-29.3 1.8-53.5-1.5l13.5-2.5 2 1zm-72 3q12.3-2.2 18.5 1.5L416.5 277q-21.1 8.4-38 21l2-3q19.9-18.1 46-30zm159 2 18.5 2.5 1 3-11.5.5-8.5-1.5zm-144 8-1 2-33 9 1-2zm144 0 2 1 4-1 .5 2.5-1.5 6.5-4-1-1.5.5zm-118 1q13.8-1.8 22.5 1.5l-.5 1.5 9 1 3-1 21.5 8.5-2.5.5-27-5-39.5-3.5.5-1.5zm129 0 10.5.5 2 8-3.5 2.5-8-1-2.5-2.5zm14 0 1.5.5 1 11-1.5.5-1.5-1.5zm5 0 1.5.5 1 12-1.5.5zm-103 3h9l19.5 8.5-6.5.5-22-8zm-70 3h18l6 2h13l43 6 4-1q14.8 5.2 24 16l6 1 .5-1.5-7-7v-5l1.5.5 4-1 18.5 16.5 8.5 13.5 2.5-1.5 1-3-2.5-.5-1.5.5-10-16 1.5.5 2-1 .5 2.5.5 1.5 4.5-.5.5-1.5 4 1q1.7-2.7 3.5 1.5l2.5 7.5 2.5.5 1.5 10.5.5-10.5-1-8h1l.5 4.5 1.5-.5-1.5-6.5-1.5-.5.5-1.5 10.5 1.5-1 5 1 3-2 16v2l.5 8.5 2.5-1.5-1-8 1-3v-2l.5-6.5 3.5 1.5q3.4 6.1 2 17l2.5 6.5 1.5-.5.5-2.5 1.5.5-1 3h1l.5-1.5 2 9 1.5-.5-2-5 1.5-3.5 2.5 1.5q11.2 11.8 18 28l-2.5-1.5-12.5-7.5v-2l-1.5-3.5-8-5-1.5 2.5 9 5 1 2-1.5.5-10-2-.5 2.5 6.5.5 13 6 10.5 8.5 6 22h-1l-6.5-9.5-4-1-.5 2.5 3 1 1 4-3 4 1 2-1 3 1.5.5 3-1 4 3 3-4 4.5 15.5v8l3 5 2 22 2 5v2l1 22-1 2v2l-6.5 21.5-.5-19.5 6-28-2-1-1 3 1 2-5.5 21.5-3.5-10.5h2l-2-9 2 1 .5 2.5.5-2.5-1.5-3.5-2 1-.5-1.5h2l-6-13 2-1-.5-1.5-2 1-5-4-.5 2.5 2.5 6.5 1.5.5 5 14-1.5-.5-2.5 1.5 8 24-3.5 7.5-2.5-.5 1-7-1-2 1-3-4-2-2-7-1-3-1.5-4.5-2 3 2.5 1.5 2 11-6.5 12.5-1.5-.5-1.5-7.5-1.5.5 2 6-1 3-5.5 12.5-2.5.5 1 3-3 5v2q-4.2 8.3-4 21v4l-9.5 11.5.5-1.5q-1.2-9.2 3-13l-.5-1.5 1.5.5.5 1.5 1.5-.5-1-6 3-6-2 1-.5 1.5-1.5-3.5 3-2-2-7v-2l-1.5-2.5-1.5.5-.5-2.5-1.5-.5-3.5-7.5-1.5 6.5 4.5 7.5 2-1 1 3 1.5.5-2 3v2l-2 10 2 1-2 1-3 11v2q.4 8.9-5.5 11.5l-16 11-1.5-1.5 5.5-5.5 2.5-.5.5-1.5 3.5-1.5.5-1.5 3.5-.5 2-5q-1.5-3-3 0l.5 1.5-1.5-.5-.5 1.5-5.5 3.5-.5 1.5-1.5.5-.5 1.5-.5-1.5v-2l1.5-2.5 3.5-1.5 2-4-2.5-3.5-2.5 5.5 2 1-1.5.5-1.5-.5-.5 1.5-1.5.5-.5 1.5-1.5-.5-1-2 3-8-1.5.5-1.5-.5-1-2v-2l-.5-2.5-1.5 4.5v2l.5 1.5 2.5 1.5-2 4 1 3v5l-4.5 5.5-1.5.5-2.5 3.5-1.5-.5 5-8-.5-1.5 1.5.5.5-3.5 1.5-.5 1-3-2-1-1-3 .5-1.5-3.5-.5.5-1.5-1.5.5.5 2.5 1.5.5-.5 1.5-1.5.5.5 1.5 3-1 .5 3.5-5.5 3.5-2-1-1.5.5 4-9-1.5-.5.5 1.5-.5 1.5-1.5-.5-.5-1.5-1.5 2.5-1 3-1 5 .5 1.5-4.5 2.5-.5 1.5-1.5.5.5 1.5 2 1 1-2 1.5-.5 1.5-2.5 4.5-2.5.5-1.5 2.5 1.5-9.5 13.5-5 4-.5-1.5 3.5-4.5 1.5-.5 2-4-1.5-.5-2 3-2.5 1.5-.5 1.5-2 1-.5-1.5 3-5-2-1 .5-2.5 1.5-.5 6-10-1.5-.5q-7 5-8 16l-1.5-11.5 12.5-9.5q2 3 4-2l1.5-.5 3.5-4.5q7.7-8.8 20-13l.5 3.5-2.5 3.5 2-1 1 8 1.5-2.5-1-2 1-5v-2l1.5-7.5 1.5.5-1 5 1.5 3.5 1.5-.5-1-5v-2l-.5-3.5-1.5.5 3-5-2-1-2.5-8.5-1.5.5 1 5-6.5 1.5h-13l-1.5-1.5-2-19 1-3-1.5-.5-1.5 5.5 2 4-1 2v2l1 9-9.5.5-3-1-1.5.5-.5 1.5-2.5.5 5 1 .5 1.5 1.5-.5.5-1.5q8.3-2.2 10.5 1.5l.5 1.5 1-2 2-1 9.5 1.5.5 4.5 1.5-2.5-1-2 7.5-1.5 1.5 3.5-2 3 1 2-6.5 3.5-2-1-2 4-6.5 2.5-3.5 4.5.5-1.5 2-8-2.5-8.5-2 3-5.5 3.5-3.5 7.5-2-15-1.5.5 1 3-1 2 2 13-7 4-1.5 3.5-1.5.5-.5 1.5-3 1v-1l1.5-.5 1.5-8.5 1.5-.5.5-1.5 1 2 5.5-11.5-1.5-.5-11 16-1.5-5.5 4-5-2-1-1.5 2.5-1.5-2.5h1l.5 1.5 1.5-11.5h-1l-1 2 1 2-1.5 2.5-1.5-.5-1-7 1.5-.5-.5 1.5.5 1.5 1.5-.5q-.9-6.9 3.5-8.5l1.5.5-1 4 1.5 4.5 1.5-.5 2-5-2.5-3.5h2l2 1 .5-1.5-3-2-.5-4.5-2 5h-2l-2 1-2.5-8.5 8-13-1.5-.5-5 9-1.5.5-.5 1.5-2.5-1.5 10-20-1.5-.5-6 10-1.5-.5q.6-15.4 9-23l-1.5-.5-7 13-1.5-7.5 2-8h-2l2-15-1-6v-2l-1-34 1-2-3-2-1-3 5-3-.5-3.5q-4.7 3.8-15 2l-14-1-10 3-28 3-5-1-2 1 1-2 24-6h2l18-4 2.5-.5-4.5-.5-29 7-2-1q-17 7-40 8l-6-1-5 1-22-3-1.5 2.5 2 1-10.5 2.5-5.5-2.5-1.5-4.5-1.5.5 1 4-.5 2.5-3.5 1.5 1.5 2.5 3.5.5-2 7 3 8 1 57 2 29 3 14-2.5 1.5-2-1-2.5 5.5 3 2-1-3 4.5-3.5 1.5 3.5v2l-1 6 1 3q1.2 6.7-2 9l1 2-1.5 2.5-3.5.5 4 1-6.5 10.5-2.5.5 1 3-1 3 1.5-.5 1.5.5 1 4-2.5 3.5-2.5.5-2.5 6.5-1.5-.5q4.7-2.8 4-11l-3-2-2.5-4.5-.5 2.5 4 9-2.5 3.5-1.5-.5-.5-3.5-1.5.5-1.5-2.5-.5 1.5 2 3-2 3 1.5.5 1-2 1.5 6.5-3.5 5.5-2.5.5 1 3-1.5 2.5-1.5.5-2 9 .5 1.5-2.5.5-2.5 3.5.5-1.5 7-19-2-1-.5 1.5-1.5.5-3.5 13.5-3-14-1.5 4.5 1 2 1 3-1 4 2 4-2.5 5.5-3 2-.5-1.5 2-11-4-1-1 11v2l-2.5 4.5-1.5-.5q3.3-3.7 2-12l-1.5-.5-2.5 10.5 1 2-3.5 4.5.5-1.5 1-3-2 1-.5 1.5-.5-5.5-.5-2.5-1.5.5q1.6 10.1-3.5 13.5L365 642.5l.5 1.5 1.5.5-1 2 1.5.5 10-4-1 2-8 4h-2l-10.5-.5 5.5-7.5 1.5-.5 13-19 12.5-35.5 6 4 .5-2.5-.5-1.5-4.5-3.5q-1.2-6.7 3-8l-1.5-2.5-4-1-2.5 1.5-1.5-4.5-4 1q-13-6-21.5-16.5l-14-21 5.5-1.5 4.5 6.5-4 3 3.5.5 2-1 3.5 5.5-3 2 .5 1.5 2 1 4-2 2.5 3.5-2.5 3.5 7.5 3.5.5 1.5 3.5-1.5 2.5-3.5 15 4 .5-1.5-4-3-.5-1.5-1 2-5.5-2.5 3.5-2.5 2 3 .5-2.5-1-2 7-6 1-2-1.5-.5-1 2-1.5.5-.5 1.5-4.5 1.5-3.5 4.5-1.5.5-.5 1.5-7.5-4.5 4-2 .5-1.5 4.5-3.5-.5-1.5-10 6-1.5-.5 1 2-2.5.5-3.5-2.5 2-1 .5-1.5 1.5.5.5 1.5.5-2.5-1-1 5-5-.5-1.5-2.5 1.5-2.5 3.5-2.5-4.5 5-4-1.5-.5-4 2-4.5-8.5 1.5-2.5-2-1-2.5-.5-3-9 11-6-1.5-.5-10 5-5-12-2.5-1.5-2.5-5.5q-3.2 1.8.5 3.5l1 5-.5 1.5 3.5 1.5 3 8-7.5 2.5q-5.2-14.8-14.5-25.5l-3-27 1-2-1-3q-.3-12.3 4-20l-2.5-.5-2.5 3.5-1.5 14.5-1.5-18.5 9-43 11.5-22.5 1.5-.5.5-2.5 2.5.5-5 8 .5 1.5-1.5.5q1.5 3 3 0l1.5-4.5 1.5-.5.5-3.5 1.5-.5 1.5-4.5 2.5 1.5 1-4 1-3 9.5-17.5 2.5.5-1 2 1.5.5 1-2 1.5.5.5 1.5 5.5-7.5-1.5-.5-6.5 3.5-.5-1.5q-1.7 3.8-3.5.5l16.5-19.5q19.4-20.1 48-31l1 2zm2.5 24-4 2h6l1 5h1l-1-5zm-36 2-1 2-2-1-4 1q-3 2 0 3l10-4 1 3-11 9 1 1 12-5 1-2-4 2h-2l4-2 4-5-7-2zm192 0-3 14 2 7 2-1zm-230 1-2 1-2 3-12 8 1 1 7-4v-1l3-1h1l-2 3h-1l-2 3h2v-1l3-1v-2l6-3 1-2-2 1-1-1 3-2zm26 3q-23 9-39 23l-2 3-5 3q-5 2-1 4l7-5v-2l21-13v-1l4-1 1-3 4 1v-2l13-5v-1zm-45 11-15 18-2 1 1 1 5-3q5-2 2-4l1-2 2 1 3-2q-2-4-3 0l-1-1 2-1 6-7zm-4 21-9 8h3v-1l5-3q4-2 1-4Zm254 4 1 2 6 2v-1zm-270 3-8 12h2l6-10zm7 1-7 8-6 5 1 1 4-2 8-10zm-15 17-3 4h-1l-1-2-3 6 2 2 5-7 2-1v-1zm-21 17-5 11v1l3-1 3-10zm16 6-8 5-10 16h-2l2-6v-8l-4 14v2l1 5-2 8 3 1 1-11 7-13 10-7h1v8l-5 23 1 3-1 3 1 5h2q0-23 6-40l-1-6zm-22 6-4 9 1 5 3-11zm359 40-8 8 1 1 2-1 2 4h1l-2-5 5-5zm4 13-4 7h2v2h1l-1-3 2-4zm-361 12-4 3 1 4 1-4 3-2zm327 2-2 10 2 2 1-4 2 6 2 1-4-14zm-330 6 2 12 1-2zm317 6 1 10 1-2-1-7zm22 2q-5 2-4 10l3 1h2l-2-3 1-5zm-34 2-2 4 2 4-2 1 1 12 2-1-1-2v-2l1-15zm-300 8v6l3 2zm289 4-2 3 2 11-1 7 3 9 1-4-2-4 1-4-2-9 1-8zm23 0q-3 8 1 11v-4zm-48 14-4 9h2v-2l3-1v-3l-1 2h-1l1-2zm1 7-2 2 2 6 2-3-1-1zm-166 6-5 7h2v-1l2-1 2-4zm-59 13-7 4-1 2 9-5zm24 6-8 7-1 3 9-8zm228 2q-4 2-2 9l-3 4 3-1 1 2 3-9-3 1 1-3zm-191 4-5 8 1 2 2-4 4-2-1-3zm-44 10 5 22 2 1-4-12 1-3-1-1zm11 2q-2 6 3 9l-2 1 1 2v-1l2-1 2 2-2-6-1-1zm13 7 2 9h1zm-27 8-5 3 1 1 2-1 1 6h1l-1-4 1-3zm23 1-1 4h2l2 6h1l-3-9z"/><path fill="#f3f2ed" stroke="#f3f2ed" d="m623.5 277 2.5.5 1 13-4-3-1-7zm5 1 4.5 1.5-1 2v2l1 6-1.5 6.5-1.5-.5q-3.2-2.3-2-9l1-2zm6 1 7.5 1.5-1.5 8.5-6.5-1.5zm-59 1 10.5 1.5-1.5 5.5zm70 1 1.5.5-1 2 1.5 4.5 1-7 2.5 3.5v2l-.5 2.5-2-1-4 1-.5-1.5zm-244 8-2 3-36 27 .5-1.5 6.5-7.5zm252 4 1.5 10.5-1.5.5-1.5-5.5zm-280 9-6 7-5.5 4.5-6.5 7.5 1.5-2.5 8.5-10.5zm282 15 1.5.5-.5 7.5-2.5-1.5.5-4.5 1.5-.5zm15 0 16.5 17.5 2 5-3-2-4.5-6.5-10.5-8.5zm-315 19 1.5.5q-19.5 24-31.5 55.5l-.5-2.5 12-27 5-5-1-3zm334 10q6.8 5.3 8.5 15.5l-2-1zm-335 2 .5 1.5-4 9 .5 1.5-2-1-3 4-.5-1.5zm348 17q17.6 18.4 17.5 54.5l-4.5 19.5-2.5-24.5-6-31 1-3-6-11zm-8 6 6.5 16.5h-1zm-4 8 14.5 44.5 1 11-1 2 1 22h-1l-4-38zm-7 6q4.5 1 3.5 7.5l-1.5.5-3.5-5.5zm-108 12 1.5.5-3.5 4.5-4-1h-2q-35.4-2.9-57.5 7.5l.5 1.5 4-1v1l-25 3-8-1-12 1 1-2 21-1 9.5-2.5-.5-1.5-43 4-2-1-2 1-7.5-1.5-1-2 57.5-3.5h2l45-5 23 2 2.5-1.5zm-262 3 .5 2.5-4.5 24.5-1.5-9.5zm264 2q3.4 9.1 1.5 23.5l-1.5.5-.5-9.5 1-3z"/><path fill="#f3f2ed" stroke="#f3f2ed" d="m548.5 403 3 1h2l5-1 5 1 5-1 2.5.5-3.5 4.5-2 1-33-2-14 1v-1zm25 4 1.5.5 1 63 2 11-1 2 2 3-1 2 1 2-1 2v2l2 21-1 3 3 33-1 5 2 30-3.5.5-2.5-23.5q5-2 2-4l1-2-1.5-.5-2 1 .5-1.5-2-14v-2l-1-41-2-12 1-2q-3.9-15.6-3-36l2-4v-24q-3.4-2.6-2-10zm-132 4 3.5 5.5 1 18-1 14 1 5-1 3 1 2-1 5 1 10-1.5 2.5-2.5-27.5zm8 0 17.5 1.5q-1.2 3.8-7.5 2.5l-3-2-4 2zm117 4 1.5 14.5h-1zm-9 3 .5 1.5-3 2-.5 1.5-4.5-2.5zm-44 2-2 3-5 3-.5-1.5zm29 1 3.5 1.5-2 6-.5 2.5-2.5-6.5zm15 0 1.5.5 1 13-2.5.5-.5-1.5v-2l1-3v-2l-1-3zm-34 3 3.5 5.5-1.5 4.5-1.5.5 1 2-1.5.5-1.5-.5.5 1.5 1.5.5.5 2.5 1.5-.5.5-1.5.5 3.5-2 1 .5 1.5 1.5-.5 1 12h-1l-3.5-15.5-1.5-.5-2-7 2.5-1.5 1 2 1.5-2.5-2-1q3.8-1.7.5-3.5l-1 2-.5-2.5zm-76 1 2.5.5 3 28 1 38-1 4 1 2-1 9 3 23v38h-1l-3-26v-2l-2-12v-2l-3-26 1-2-1-6v-2l1-3-1-6 1-29zm130 3 1.5.5-.5 15.5zm-92 3 1.5 2.5-6.5 4.5-.5-2.5 3-2 .5-1.5zm30 0 .5 1.5-.5 1.5 1.5.5-4 1-.5 1.5-1.5-.5zm-10 6 1.5.5v2l-2.5 7.5-1.5-.5 3-7zm-10 1 1.5 8.5v2l-1.5 10.5-2.5-17.5zm15 0 1.5 3.5-1.5 5.5-1.5.5 3 2-3 2-1 2 .5 1.5-1.5.5-1.5 2.5-1.5-.5 2-6v-2zm-9 2 2.5.5-3 8 1 2-2.5 9.5-1.5-.5 1-17zm-197 2 3.5 19.5-2 8 1 2-1 2v2l4 21 15 40 13 26-11-10q-22.7-25.3-26-70v-2l1-27zm174 0 .5 4.5-2 1-.5 1.5-1.5-.5 1-2q-3.2-2.2 2.5-4.5Zm68 1 1.5.5-1 7 3 8-3.5 9.5-2-6-1.5 12.5 1 3-1.5 3.5-.5-8.5 1-3-2-15 1-3 .5-2.5 2 12 1.5-.5-1-15zm-26 2 6.5 20.5 1 14-4 22-2 3 1.5.5 6-20 1.5 6.5-6 13-2.5 11.5-1.5-.5-13-33-1-18h1l6 24 4.5 5.5 4.5-2.5q4.7-8.3 2-24l-7-20zm12 0 2.5.5 2 18v2l1 29-1 5 2 12-1 3 1 4-1 2 1 3v2l1 9-2.5 5.5-1.5-.5v-2l1-3-1-7 1-3-3-16v-2l-1-6 1-5-1-21 1-9-1-2 1-2q-3.3-6.6-1.5-16.5Zm21 0 1.5.5-.5 4.5-1.5-.5.5 1.5 1.5.5-1.5.5-1.5-3.5zm25 0 1.5 4.5-1 3 1 2-1.5 12.5zm-258 2 4.5 30.5-5-4-1-22z"/><path fill="#f3f2ed" stroke="#f3f2ed" d="m515.5 449 1.5.5.5 2.5 1.5.5-1.5 7.5-3-1-2 11-1.5-.5-1-10zm-37 1 .5 10.5-1 3 1 2-1.5 2.5-2.5-14.5zm-16 2 1.5 9.5v2l-.5 11.5-1.5-.5zm28 4 2.5 11.5v2l2 26h-2l.5 1.5 1.5.5q-.8 8.3 4.5 10.5l1.5.5-1 4 2 1 1 4v2l2.5 4.5.5-3.5-2-6v-2l2-6-1.5-.5-1.5.5 1-2-3-5-1-11 2 1q14.5 18 20 45l-1 16-4.5 10.5-1.5-.5-5.5-37.5-1.5.5 3 34 4 16-3 12 2 3-1 2 2 6-1 2 1 2-1.5.5-2-6-2 3-.5-2.5q3.5-1.5 2-8l-4-22-2-32 1-2-1.5-3.5-2.5.5.5 2.5 1.5.5q-1.6 24.6 2 44v2l-1.5 5.5q.2-15.2-4.5-25.5l-1-21 1-3 1-6-2.5-4.5-1.5.5-1 3v2l1 4-1 4 1 3-1 31-2 11 2 6-1.5 2.5-1.5-.5-1-13 2-3-2-3 .5-1.5-1.5.5-1.5 2.5-.5-1.5 2-3-1-3 1-2-4-2-.5-11.5-2.5 1.5-2.5 6.5-1.5-7.5v-2l.5-2.5 2 1 2-4 1.5-.5-1-3 3-2-2 6 2.5.5.5-2.5-.5-1.5 2.5 1.5 1-4-4-3 7-11 1-11-9-13v-2l-2-23v-2l-1-3 1-3-1-2 1.5-2.5 1.5.5 2.5 22.5.5-14.5-1-3-1-6zm30 4q4.4 9.6 2.5 25.5l-3.5 5.5-2.5-1.5-2-6 4-3 2-14zm-81 1 3.5 28.5v22h-1l-3-34z"/><path fill="#f3f2ed" stroke="#f3f2ed" d="m472.5 463 2.5 4.5 2 19v2l.5 7.5 2.5-.5-2-24 3.5-5.5 1.5.5 1 17v2l-1 12 1.5-.5 1.5.5-.5 1.5-5-1-11.5 6.5-1.5 2.5-.5-2.5 4-5-2-1 .5-2.5 2 3 1-3 3.5-.5-2-1q-3.6-13.7-1.5-31.5Zm30 0 2.5 6.5v2l2 11v2l11 26-1.5.5-9.5-19.5-7-7h2l1-11h-2z"/><path fill="#f3f2ed" stroke="#f3f2ed" d="m499.5 465 1.5.5-1 3-1 11 2 1-.5 1.5-1.5.5-.5 1.5-1.5-.5 1-2-1-4 1-2v-2zm56 0 1.5 7.5-1 2 .5 1.5-1.5-.5-1-2 2-1-2-3zm-10 4 1.5.5 1.5 3.5 2.5 1.5-1 2 1 3v2l-.5 14.5-1.5.5 2 7v2l-1 9-3.5 4.5-1.5-8.5 1-3-1-6 1-4v-2l-1-12 1-3v-2l1-6zm-33 2 4.5 3.5-1.5 4.5zm-203 3 8.5 30.5-2-1zm246 3 1.5.5-1.5 6.5-1-4 1.5-.5zm-234 3q7.8 6.2 7.5 20.5h-1zm148 0 1.5 11.5-1.5 2.5-1.5-2.5 1-2-1-4v-2zm71 1 2.5 1.5-1 2 1 4v2l1 28 2 9-2.5 3.5-1.5-.5-1-4 1-5-2-18v-2l-1-3 1-15zm140 1 1.5.5 1 10-1 2 1 3-3 10-18.5 35.5-1.5.5v2l-.5 1.5-2.5.5 1 2-2.5.5q-5.2-2.7.5-5.5 9.5-9 13.5-23.5l1.5.5 2.5-9.5 1.5-.5 3-25zm-119 3 1.5 4.5v2l-.5 1.5-1.5-.5 1-5zm-98 2 1.5.5-1 4 1 3-1.5 2.5zm34 1 2.5 11.5h-1z"/><path fill="#f3f2ed" stroke="#f3f2ed" d="m675.5 489 .5 2.5-2 9v2l-.5 2.5-1.5-2.5v-2q-1.5-9 3.5-11.5Zm15 0 .5 10.5q-.3 9.2-5.5 13.5l-.5-2.5 2-9-1-2zm-234 4 1.5 1.5 1 16-1.5 4.5-1.5-19.5zm-125 1 3.5 7.5v2l.5 1.5 1.5-.5 3 7-1.5.5h-2l-1.5-.5zm338 3 1.5 4.5-1 6 1 3-3.5 12.5-3.5 2.5-.5 1.5-.5-3.5 1-3v-12zm-140 4 .5 1.5-2 5 1 5v2l-2 16 1 2v2q-1.7 12.8 2 20l-1 2 1 3-1.5.5-1.5-4.5v-2l-2-9v-30zm58 5 .5 2.5-1 3-.5 4.5-1.5-5.5zm-34 1 1.5.5 2 12-1.5.5-4.5-2.5zm-74 1 9.5 4.5-.5 5.5-9 5-3.5-1.5-1-8 2.5-4.5zm203 0 1.5.5-2 14-5.5 10.5-1.5-.5 1-5v-6zm-218 1 1.5 2.5-2 1 .5 1.5 1.5.5-1 3-.5 1.5-1.5-.5zm-113 1 6.5 12.5-6.5 3.5-6.5-11.5zm352 1 1.5.5 1 3-9.5 15.5-.5-1.5zm-382 2 12.5 27.5-2-1q-8.4-10.7-10.5-26.5Zm15 1 3 1 2-1 6.5 14.5-1.5.5-4.5-.5zm247 0 3.5 19.5-2.5 1.5zm-52 3 1.5 8.5-1 2 1 3v2l-1 2 2 21v2l-.5 19.5-1.5-5.5v-2l-1-9 1-4-1-5v-2l-1-16 2-4-2-1 1-2-1-5v-2zm130 0 .5 4.5-2.5 7.5-.5-2.5zm36 0 .5 1.5-8 17-8.5 8.5.5-1.5zm-145 3 4.5 7.5-2 1 2 1-.5 1.5-2.5-1.5-1-3-.5-2.5-1.5 9.5 1 7-4 3-2.5 4.5-.5-1.5 1-3-1-4zm-219 2 6.5 11.5-2-1zm282 1 1.5.5 1 3-2 1-1.5 11.5-6 4-.5-6.5 3.5-10.5 1.5-.5.5-1.5zm-257 1 2 5 1.5.5 1 3-5.5 2.5-4.5-7.5zm212 1 1.5.5 2 35-2 1q-3.3-16.7-1.5-36.5Zm101 5 .5 3.5-1.5 3.5-1.5.5v2l-1.5 2.5-1.5-.5zm-128 3 1.5.5-2.5 5.5-1.5.5 1 2-2-1 .5-2.5 1.5-.5zm-180 1 2.5 5.5-2 1-.5 1.5-3.5-2.5-1-2zm312 0 .5 2.5-10.5 14.5-3 1 .5-1.5 2.5-4.5 5.5-3.5zm-120 1 4.5 12.5-.5 2.5-3.5-1.5.5-1.5-2.5-1.5-1-3zm31 1 1.5 6.5-1.5 2.5-2.5-7.5zm-113 1 1.5.5 3 4-1 2 3 11-1 2v2l2 16v2l1 11-1.5.5-1.5-3.5-1-20v-4l-1.5-4.5-1 4-1.5-3.5 3-4-1.5-.5-1.5.5.5-3.5 1 2 1.5-.5-1.5-4.5-2.5 1.5-1-4 2.5-1.5 1.5.5-.5-2.5-2.5-1.5zm133 1 .5 1.5-1 3-1.5 2.5-.5-2.5zm-4 3 .5 2.5-9.5 10.5-.5-4.5zm-152 1 6.5 45.5v2l-.5 5.5-5.5-2.5.5-1.5 1.5.5.5 1.5.5-7.5-2-10v-2l-.5-1.5-1.5-.5 1-3v-2l-1-3v-2l-1-18zm73 0 6 32 1.5.5v2l4 21-6.5.5-.5-1.5 3-2-1.5-.5-1.5.5.5-2.5 1.5-.5-1-2-.5-2.5-1 3-4.5-26.5zm15 0 .5 3.5v2l-1.5 9.5-.5-12.5zm146 2-1.5 2.5-4.5 5.5.5-1.5zm-133 1 1 4 2.5 1.5-1 2 1 6h-1l-.5-3.5-2.5.5-1 4 1 4h-2l.5 2.5 1.5-.5-1 3-.5 2.5q-4.5-6.5-3.5-18.5l2.5-4.5 1 5 .5-2.5 1-3zm37 0 2.5 13.5-2.5 1.5-1.5-13.5zm-219 5 6.5 2.5-5.5 2.5-3.5-2.5.5-1.5zm286 1 1.5.5-3 3-1 5-5.5 6.5-10 6-.5-1.5 10-6 3.5-4.5 1.5-.5-1.5-2.5-1.5.5-2.5 3.5-1.5.5-.5 1.5-1.5.5-2.5 3.5-1-2-2.5 1.5-5.5 6.5-3.5 2.5-.5 1.5-12 5 2-3 23-19 1 2 5-7 4-2h2zm-213 3 1.5 5.5-2 1-1 3 1 2-3 1-.5 3.5-2.5-1.5-1-3 5.5-8.5 2.5-.5zm115 2 1.5 4.5v21h-1l-1-14 1-5zm-218 1 7.5 6.5 9 11-1.5.5-11.5-9.5zm201 0 1.5 11.5h-1l-2-9zm51 3 .5 3.5-1 3h2l-1 2 3 5-1 2 1 3-2.5 4.5-1.5-.5 2-5-3-1-1-14zm71 8-8 9-.5-1.5zm-221 1 1.5.5 1 6-1.5 4.5-1.5-.5-2-7zm103 0 1.5.5q-.2 8.7 5 12l1 13-3.5 1.5-1.5-3.5v-2l-3-19zm31 0 .5 13.5h-1l-1-12zm-116 1 1.5 11.5h-1zm164 0 1.5.5-7 4-3.5 4.5-15 9-.5-1.5 3-2 .5-1.5 1.5-.5.5-2.5 1 2 1-3zm-102 1 3.5 27.5-1.5.5-1-3-2 4-1.5-.5-1-8 1.5-2.5 1 2 .5-3.5-4-3-1-2 1.5-3.5 2 6 .5-3.5-1-3 .5-5.5 1.5-.5zm17 0v2l1.5.5 1 3-2 1-.5 2.5-1.5-3.5 2-1-2-3zm69 2 .5 1.5-6.5 3.5 1-2zm-170 2 2 9 1.5-.5-.5 1.5 1.5.5 1 2-1.5.5-2-3-3-1-1.5-.5-.5-1.5-1.5-.5 2.5-4.5 1.5-.5zm63 2 1.5 11.5-2 1-1-5 1-3h-1l-.5 1.5-.5-3.5h2zm39 6 1.5 2.5v4l2 4-1.5 3.5-1.5-.5-1-4 1-2v-2zm15 0 2 4 1.5-.5.5-3.5.5 3.5-1 3-.5 4.5-3.5-.5 1-3-1-2v-2zm58 0 1.5.5-10.5 6.5 2-3zm-15 1 .5 4.5-5.5 3.5-.5-2.5 2-1-1-2 2-1 .5 1.5zm-170 4 5.5 4.5-1 4 1.5.5 1.5-.5-2.5 3.5-3.5 1.5 1 2-3.5 4.5-2.5-4.5 1-2-2-1-1-4 1.5-2.5 1.5-.5.5-1.5 1.5-.5zm2.5 3-5 8 1 2 2-3 1-3 2-3zm9.5-1 3.5 2.5 1 3-3 1 3 2-.5 1.5-4.5-1.5-2-4zm142 0 2.5.5 1 6-5.5 2.5.5-1.5zm-129 7 1 4 1.5-.5.5-2.5 2.5 1.5-.5 5.5-5.5-2.5zm99 0 .5 2.5v2l-.5 1.5-1-2-1 3-1.5-3.5.5-2.5 2 1zm-18 3 1.5.5-2.5 6.5-3.5-.5.5-5.5zm-57 1 2.5.5 1 4-1.5 2.5 1.5.5-4.5.5q-3-1.5 0-3l2 1 .5-2.5-1.5.5-1.5-.5zm128 6 2.5 1.5-.5 1.5-20 7-2-1-1 2-3 1-.5-1.5q3.4-6.1 11.5-7.5l6 2zm-183 1 3.5 1.5-14.5 15.5-26 15-12 1 1-2 13-7 1 5 6-9 1 4 5-8 1 3 4-6 2-1 .5 1.5-1 3 1.5.5 5-9 4.5-1.5zm-48 8 .5 1.5q-6.2 13.8-16.5 23.5l3.5-4.5zm136 8 13.5.5-1.5 1.5h-15v-1zm13 4 3.5 19.5v51l-4 17-3 4 1 2v2l-2 7 8 4 .5 23.5 2.5-1.5.5-12.5 4 6 6-3 11.5 8.5-1.5.5-6-1-.5 1.5 11.5 2.5 11.5 9.5q19.8 28.7 45.5 51.5l5.5 3.5q5.3 7.2 5 20l-12 22 2 3-8.5 4.5-19.5-4.5 15-5-.5-1.5-28 6q-19.8-4.2-46-2l-9 2-28.5-65.5q-4.7-9.3-5-23h1q12.4 19.6 20.5 43.5l.5-4.5q-10.4-28.1-25-52-1.5-17-8.5-28.5l-1.5-.5 17-53 2-12 14.5-38.5 1.5-.5.5-4.5zm-97 4 1.5.5q-14.6 17.4-41.5 22.5l-2.5-1.5 20.5-8.5h2zm-76 3 .5 1.5-11.5 10.5 1-2 9.5-8.5zm-16 26 6.5 2.5-11.5 1.5 1-2z"/><path fill="#f3f2ed" stroke="#f3f2ed" d="m535.5 662 1.5.5 1 2-3.5 5.5-.5-5.5zm13 2 .5 5.5-1.5 2.5-2.5-3.5zm-5 7 2.5 4.5-2.5 3.5-2.5-4.5zm-9 1 2.5 1.5-3.5 7.5-.5-6.5zm-76 3 1.5 3.5-3.5 4.5-.5-4.5zm81 2 2.5 5.5-2.5 3.5-3.5-4.5zm-73 2 2.5 4.5-2.5 4.5-1.5-5.5zm67 5 4.5 4.5-1 1-4 9 1.5.5 5-8q5.8 2.3 2.5 4.5l-7.5 24.5-2.5-4.5v-26zm-70 2 1.5 7.5-2.5 5.5-2.5-7.5zm-9 1 1.5.5 1 6-2.5 4.5-1.5-6.5zm25 4 1.5.5-7 21-1 3-4 14 .5 1.5-3.5-7.5zm-21 5q3.6 3.9 2.5 12.5l-1.5 2.5-3.5-10.5zm9 1 1.5.5-3.5 10.5-.5-2.5 1-2v-2zm78 0 1.5 6.5-3.5 13.5-.5-13.5zm-92 8 1.5.5 3 12-2 8 2 3-1 4 1 2-1.5 2.5-2-5-1 4-1.5.5-.5 1.5-.5-1.5v-2q-3.2-7.8-2-20zm87 6 1.5.5 1 9-4.5.5-.5-2.5zm-97 2 .5 2.5-2.5 11.5-1.5-.5 1-2-1-2zm82 3 .5 5.5-2 4 2 3-1.5-.5-1.5-.5q-.9-7.9 2.5-11.5Zm8 6 9.5 3.5-2 5 1 2-4.5-3.5-4.5-3.5zm12 5 1.5.5-1 4v2l-.5 2.5-2.5-1.5zm-100 3 5.5 16.5h-1l-5-12zm88 0 9.5 8.5 1 3-5.5-4.5-3.5-1.5zm18 2-.5 1.5 3 10-2.5.5q-5.2-.7-4.5-7.5l2.5-3.5zm6 1 11.5 8.5 11 20-3.5-2.5-4.5-3.5q-1.8-10.2-8.5-15.5l-.5 3.5 7 13-2.5-1.5-3.5-2.5-.5-1.5-1.5.5 1-3zm-99 5 1.5.5 1 11-1.5 3.5q-3.4-3.6-2.5-11.5zm98 5 4.5 6.5-1.5.5-1-2-1.5-.5zm-93 5 1.5 5.5-1.5 6.5-1.5-7.5zm116 5 16.5 21.5-2.5-1.5-10.5-8.5zm-133 2 4.5 10.5h-1zm117 1 8.5 6.5-1.5.5zm-93 1 4.5 15.5h-1zm-4 2 2.5 11.5h-1zm124 16 6.5 4.5 2 3-2.5-1.5zm-133 2 14.5 37.5h-1zm120 1 35.5 31.5-1 4 3 5-2.5-1.5-14.5-13.5-1.5-2.5-1.5-.5zm-102 5 3.5 12.5-1.5.5zm117 1 14.5 11.5 1 2-2.5-1.5zm-123 6 4.5 11.5-2-1zm141 3 1.5.5.5 1.5 3.5 2.5-.5 1.5 1.5.5q-1.5 3-3 0zm11 8 7.5 5.5-1.5 6.5-2.5-1.5zm-159 2 13.5 27.5v4l-3.5 6.5q-7.8-17.2-10-38Zm173 6 8.5 5.5-.5 1.5zm-21 2 9.5 10.5 2 13h-1zm18 0 6.5 7.5-3.5 1.5-1.5-.5zm-143 4 10.5 26.5-2-1-8-19zm156 0 5.5 4.5-8.5 10.5-1.5-.5-2-4 4.5-6.5 1.5-.5zm-160 10 4.5 15.5h-1zm175 4-.5 1.5-4.5 8.5-.5-2.5zm-19 6 1.5.5 1 4-1.5 2.5-1.5.5-1.5 3.5-1.5-5.5zm-164 5 .5 9.5-12.5 9.5 2.5-3.5zm24 5 3.5 9.5h-1zm121 4 .5 5.5-4.5 11.5-3 1-.5-2.5zm-135 6 1.5.5 1 6-3.5-2.5-2.5-1.5zm6 0 2.5 9.5-2-1zm-14 4 1.5.5-1.5 7.5-5.5-1.5 3.5-5.5zm29 0 7.5 18.5-4.5.5-1.5-3.5v-2zm-37 4-.5 1.5-.5 1.5-1.5.5-.5 1.5-3.5-.5zm15 0 .5 1.5-1 3 1 2-1.5.5-2-4-1 2-.5-1.5zm151 2 .5 2.5-3.5 11.5-5.5-1.5.5-1.5 5.5-2.5-.5-1.5-2.5-.5 1.5-3.5 1.5-.5.5-1.5zm-211 3 7.5 2.5-15.5 6.5-11 1-2-1-7 1v-1zm95 1 40.5.5-41.5 7.5-4.5-6.5zm49 1 16.5 2.5-42.5 7.5-15.5-1.5zm126 0 3.5 1.5 7 12-13.5 2.5.5-1.5-.5-2.5-24-1-1.5-1.5zm-233 1 2.5 1.5-1.5 2.5-5 1zm-16 2 .5 1.5-8.5 3.5 1-2zm52 0 2 1 2-1 2.5 4.5-16.5.5v-1l8.5-1.5zm88 2 11.5.5q-6.1 5.4-18.5 4.5l-4-2-.5 3.5 3 4-5.5 2.5-6.5-1.5 3-1-12.5-2.5-1 2h-2l-3-1-1.5.5.5-1.5 5.5-.5.5-2.5 18-3h2zm-115 1h2l4.5.5q-2 3.5-9.5 1.5v-1zm-78 2 2.5.5-2 1-1 4 2.5 1.5 11-2-1 2-24 3-5-2-2 1h-2l-5.5-.5zm118 4 6.5.5 1 2-1.5-.5-5 3zm113 2 10.5 1.5-.5 2.5-16 2-3-1-5.5-.5 4.5-2.5h2zm16 1 15.5 2.5-14.5 3.5-1.5-3.5zm-141 1 7.5.5q-5.7 5.3-16.5 5.5l-4-1-23 1 1-2 13-2h2l8.5.5.5 1.5zm96 1 2.5.5-2.5 3.5-3 1-3-2-4 1v-1zm-54 1 15 1h2l12.5.5 2 5-2.5.5-8.5-2.5 6-1-5.5-1.5-2 1-2-1-3 1-5-1-7 1-2.5-1.5zm-172 1h2l1.5.5.5 1.5 8.5 3.5-11.5.5-11.5-2.5 10-2z"/><path fill="#f3f2ed" stroke="#f3f2ed" d="m454.5 891 8.5.5-1 3 2.5.5 14-1 2 1 3-1q3 1.5 0 3l-20 4-3-1-14-3h-2l-3-1h-2l-6-1-1.5.5 5.5-2.5q10.6 1.1 17-2Zm128 0 1.5.5-.5 1.5 8.5.5q-1 3.5-6.5 2.5l-7.5-1.5 2.5-1.5 1.5.5zm-166 1 8.5.5-19.5 4.5-2.5-1.5zm209 0 1.5.5-.5 2.5-12 3h-9l-9.5-1.5 8.5-3.5zm-235 5 6 1h2l3.5.5-27.5 5.5 3-4z"/><path fill="#98968d" stroke="#98968d" d="m736.5 106 8.5 6.5-2.5 1.5-2-3-8-2q-12.2 1.8-19.5 8.5l-2 7 1 3-1.5.5q-3.7-1.2-2.5-7.5l2.5-4.5q9-9 26-10Z"/><path fill="#98968d" stroke="#98968d" d="m679.5 121 9 2 4-1v1l-3.5.5.5 1.5 11 8 1.5-3.5-2-1 .5-2.5 1.5-.5-2-1 2-1 1 4 .5 4.5 3.5 1.5-1.5 2.5-3 1-3-2-3 2q-3.2-2 0-4l-3.5-1.5-.5-1.5-12-7-23.5 19.5-2 7 1.5 5.5 3-2 .5 1.5-1 4 1.5.5 1.5-.5-1 4 2 13v2l2.5 6.5 2-8 1.5.5-.5-1.5-1.5-.5 1.5-4.5.5 2.5-.5 1.5 4.5-1.5.5-1.5.5 1.5-1 2 1.5.5 2.5-1.5-1.5-4.5-2 1-.5-1.5 2-1-2-5v-2l1-3-1-5 2-1q-.4 12.4 3.5 20.5l3-2-.5 1.5-1.5 3.5-3.5 2.5 1.5 2.5 7.5-3.5-3-13 .5-1.5-1.5-.5 1-3-1-5 2.5-.5.5 2.5v2q-.7 11.7 4.5 17.5l3.5-2.5.5-1.5.5 1.5-2 4q3.3 6.7 14.5 5.5l9.5-5.5 4-6-7-2-.5-1.5-3.5-1.5 2.5-4.5 5 7 6.5-1.5 6.5-13.5 1.5-.5.5-1.5 7.5 3.5 2.5 3.5 5.5-4.5 9-16-1-2 2.5-1.5.5 1.5q-1.6 11.4-8.5 17.5l-1.5.5-4 6 4.5 2.5q10.9-1.1 15.5-8.5l1-11-.5-1.5 1.5.5 1 10-3.5 6.5-5.5 2.5-.5 1.5-9 2-1-2-2 1-5.5-2.5-.5-2.5-1.5.5-1.5-3.5-2.5 1.5 1 4-1.5 3.5-2 1 .5-1.5 1-7-.5-2.5-1.5.5q-5.1 16.4-16.5 26.5l-2.5 1.5 14.5 1.5 8.5-6.5 1-4-2-6 1.5-.5q3.4 2.6 2.5 9.5l-3.5 5.5-1.5.5-1.5 2.5-2-1-1 2-1.5-.5-.5 1.5-3-1-5 1-3-2h-4l-9 1-3-1-12-6-10.5 4.5-1.5 7.5-13 3h-2l-4.5 1.5-1 3 1.5-.5 1.5.5-1 4h2l-1.5 2.5-3-1-.5 1.5 1 2-2.5 1.5-3-8-6.5-2.5-2.5-6.5-1.5.5 3.5-4.5 2 9 1.5-.5-.5-9.5-1.5.5 4-2-.5-1.5-5 2-2.5.5-2.5 5.5-1-2-1.5 2.5 1 2-3 4 3 1-1 4 6 4-2.5.5-4.5-3.5-2-6 6-15-1-8 3.5-4.5 6-3 9 1 1.5-4.5-2 1-.5 1.5-.5-5.5 1-3-2-10 2-7 10.5-10.5zM660 170l-4 3 2 14 4-8zm-14 1-2 1-4 6-1-1h-1l4 8 2-1 1-2 2-1 1 3-1 7v2l2 6 1-2-1-9 1-2-2-10 2-1 1 8v2l2 7 3-5-1-1-1-1 2-1v-4l-1 2h-1l1-5h-1l-1-3zm24 7-3 8-4-2-4 5 1 1 11-1 2-2-1-8zm-16 14-3 9 1 1 3-7z"/><path fill="#98968d" stroke="#98968d" d="m666.5 153 1.5 15.5-1.5 3.5-.5-5.5 1-2q-3.4-2.6-2-10zm28 6 1.5.5q-.3 11.3 5.5 16.5l3.5-1.5 3.5-7.5.5 3.5-6.5 8.5-1.5-.5-.5-1.5-1.5.5-.5-1.5-1.5-.5-1.5-6.5-2 1-.5-1.5 2-4-2-3zm-44 60 3 1h15l1.5 1.5-1.5-.5-2.5.5 1 5h-1l-.5-4.5-17.5-1.5zm-37 3h2l11.5.5-2 1 2 1-2 12 .5 1.5-2-1-1.5.5 1-5h-1l-1.5 3.5-2.5-.5 2-1 4-11-2.5-.5-5 13-5 1-3.5-13.5 2.5-.5 2 5 1-3 1.5-.5-3-1zm3.5 1-3 8 1 3 3-10z"/><path fill="#98968d" stroke="#98968d" d="m658.5 223 .5 5.5-2.5 8.5-2.5-.5-.5-2.5-3.5 2.5 3 1-4.5.5-.5-1.5 2-1 3.5-6.5-1.5 2.5.5 1.5 1.5-.5.5-1.5 1.5-.5zm12 0 .5 14.5-2.5 1.5q-3.5-2-1.5-9.5h1l.5 8.5 1.5-.5zm-6 2 1.5 5.5-1 3v2l-.5 1.5zm-32 2 1.5.5-3 9 5.5.5 2.5-.5-1-2 3.5-.5 1 2 4.5 1.5-2.5.5-4-1-2 1h-2l-6.5-.5-.5-1.5-1 2-.5-2.5 2.5-5.5 2 1 .5-2.5h-2zm24 12 4.5 1.5-.5 1.5-1-2-2.5.5-.5 3.5zm-21 1 2 4 1.5-.5-.5-1.5 4-2 2 1 3-1h2l1.5.5-1 2 1.5 2.5 2-1 .5 5.5-2 1 .5 3.5 2.5 1.5-.5 6.5-1-7-2.5-1.5 1-4-.5-1.5 1.5-.5-2-1-1.5-2.5-2 6-3.5-.5-.5-1.5-1 2-1.5-.5-.5-1.5-2.5.5.5 1.5 1.5.5-1.5.5-1.5-3.5 5-1-.5-1.5-5.5-1.5zm-32 1 1 3 5-2v1l-5 2zm25 1 1.5 2.5-2 1 .5 1.5 5.5-3.5-3-1 2.5-.5 2.5 3.5-1.5-.5-1.5.5.5 2.5 2.5 1.5-2 1 .5-1.5-1.5.5-.5 1.5-2-1v2l-6.5-.5 6-2-3-1 .5-1.5-4 2-.5-2.5 1.5-3.5zm-161 10 10.5.5-10.5.5zm190 2 1.5 9.5-2.5.5-.5-8.5zm-159 2 16.5 1.5-14.5.5-2.5-.5zm137 0 6.5.5-.5 2.5-9.5-1.5zm-196 3 3 1 2-1v1l-14 4v-1l2.5-.5-3-1 3.5-.5 2 1v-2l3 1zm226 3 .5 14.5h-1zm-42 2-.5 1.5-.5 8.5-.5-8.5zm31 1 2 1 2.5.5 1 11-1 5 1 2-2 1 .5 2.5 1-2 .5 2.5-4.5 1.5-1-2-1.5.5.5 1.5-10.5-.5.5-1.5 4 1-.5-1.5-1-5 .5-1.5-1.5-.5 1.5-.5 3 9 1.5-.5-1-3v-2l-1-2 1.5-.5 4.5 1.5 1.5 6.5.5-6.5-.5-1.5 1.5-.5-.5-3.5-2 3 .5-1.5 1-2-1-2 2-5-2-1-.5 3.5z"/><path fill="#98968d" stroke="#98968d" d="m650.5 266 1.5 12.5-2.5.5-4-2-1.5.5q5-2 2-4l-1-5 1.5.5 1.5.5-2 1 2 1 1.5 6.5 1.5-.5zm-146 7 10.5.5-10.5.5zm-102 3q3 1.5 0 3l-3 2v-3l1.5.5zm177 1 3.5 2.5-8.5 1.5-1-2zm47 0 4.5.5-3 1 1 7-2 1 3.5 9.5 1.5-.5 1-6-1-6 1-3-1-2 6.5-.5v1l-4.5.5 1 11-2 1 .5 1.5 1.5.5 1 6-1.5.5-.5-1.5 1-2-2-1 1 18h-1l-1-3 1-7-4-1 1-2-1.5-2.5 1.5-.5-4.5-6.5-.5 1.5.5 1.5h-2l-1.5-.5 1.5-2.5-1.5-.5 1.5-2.5 1 3 2.5-.5zm-235 6-3 6zm204 0 3 1 7.5 4.5-2 1 7.5 8.5-8.5-8.5.5-1.5h-3zm-209 4 .5 2.5-5 5-.5 4.5-2-1-9.5 8.5 3.5-5.5 1.5-.5-.5-1.5-1.5.5 2.5-.5 6.5-3.5-1-1zm-4 3-5 6zm262 2 6.5.5-1 8-.5 2.5-1.5-.5-1.5-3.5-2.5 14.5 1 3-2.5 4.5-.5-2.5.5-2.5 1.5.5-1-4v-2l1-12v-2zm8 0 2.5 1.5-.5 5.5-1-6-1 5zm-206 6h2l7.5 1.5-1.5-.5-3.5.5 1 2-1.5 2.5 3-2-1 3 2-1-2 3-2 1-1.5-2.5 2-4-1.5-2.5-10 4-1.5-.5-.5 1.5-12.5 4.5-.5 2.5-8.5 2.5-.5 1.5-20.5 12.5-.5 2.5-15.5 10.5.5 1.5-2.5.5-1 2 1 2h-1l-.5-1.5-7 9-4.5 2.5.5 1.5-1.5-.5 1.5-3.5 5.5-4.5 11.5-12.5 12.5-9.5 1.5-2.5 30-19 1.5.5.5-1.5 16-6 2 1zm192 0 .5 16.5h-1l-.5-1.5-1.5.5z"/><path fill="#98968d" stroke="#98968d" d="m408.5 299 3.5 1.5-3 2 .5 1.5 3-2-2 3-5.5 2.5-.5 2.5-2.5.5-.5 1.5-1.5-.5 1.5-2.5 1.5-.5 1-2-2.5-.5-1 2-7.5 4.5-.5 1.5-1.5-.5-6 7 2 1 .5-1.5 1.5.5-.5 1.5-5 3-2-1-.5 1.5q3.2 2.2-2.5 4.5l-4.5 2.5 2 1-12.5 19.5-1.5-.5 8-13-1.5-.5-1 2-1.5-.5 1-2h-3l-3 6 4-2-2.5 4.5-1.5-.5-.5-1.5-7.5 12.5 1 2-1.5 3.5-2.5-1.5-1.5 4.5-1.5.5-.5 3.5-2.5 1.5-5.5 15.5-3.5 1.5-3.5 13.5-.5-5.5 9.5-20.5 1.5-.5-.5-1.5 1.5-.5v-2l4-7-2.5-.5-1 3-2 1 1.5-2.5 7.5-12.5-.5 1.5-4 8 3-2 .5-1.5 1.5-.5 2-7h-2l4-2-.5-1.5-1.5.5 5.5-7.5 1.5-.5-1-1 4.5-4.5q2.3 3.8 4.5.5l.5 1.5 5-6 1.5-.5 14.5-17.5 3.5-1.5 1.5-2.5 10.5-6.5 1.5-2.5zm38 6q3 1.5 0 3l-2-1-4 5-.5-1.5zm-84 1-5 6zm27 1-8 9zm263 1 2.5.5 2 8-2 1 .5 1.5-1.5.5-.5 3.5-.5-5.5.5-2.5 1.5-.5-2-3 1-2zm17 7 5 6q-2.7-5.4-5.5-3.5zm-315 3 2.5.5-3.5 5.5-1-2-1.5.5 3.5-1.5 1.5-.5zm23 0-6 7zm280 0 .5 11.5-1.5 2.5-.5-2.5.5-1.5-1.5.5-.5 2.5-1.5-.5 3-4-1.5-2.5 2 1zm-13 1 .5 6.5-2.5 1.5-.5-1.5h2zm-297 2-10 11zm331 0 5 6zm-3 1 11 12zm-15 7 1.5.5-2 1-1 3 1.5 2.5q-4.3-1.7-1.5-3.5zm-324 4-5 6zm21 1 1.5.5-3.5 5.5.5-1.5 1-2-1.5-.5-2.5 1.5zm330 1 1.5 3.5-.5 1.5 2.5 1.5-.5 1.5-4-5 1.5.5zm-48 3 2 1h2l3.5 1.5-.5 1.5-6-2zm25 9 1.5.5-.5 1.5 1.5.5-.5 1.5 2.5 1.5-1.5-.5-3.5-1.5v-2zm-322 5-1.5 2.5 2 4-6 3 4-4-1-1z"/><path fill="#98968d" stroke="#98968d" d="m361.5 354 .5 2.5-2 1-3 5 2 1 2.5-4.5 1.5.5-.5 1.5-2.5.5q2.7 1.8-1.5 3.5-1.7-2.7-3.5 1.5l.5 1.5 1.5-.5-3 1-1.5 5.5-1.5-.5.5-2.5 1.5-.5-1-2 2-1zm317 4 3.5 1.5-.5 1.5-1.5.5 2.5 3.5-3.5-3.5zm22 3 3.5 4.5h-2l-.5 2.5-.5-3.5.5-1.5-1.5-.5zm-23 16 7.5 4.5-3.5-2.5-1.5.5 2.5 4.5 3 2 2.5-.5.5-1.5.5 1.5-1 2 2 4-3.5 4.5-6-3-2 1 .5-3.5-1-3 3-5-2.5-3.5-1.5.5zm6.5 8-2 5q5 2 2 4l3 1v-2q1-7-3-8Zm-330.5-2 2.5 1.5 1 10h-1l-.5-7.5-5 3-1-2-1.5.5 1 2-11 17-1.5 11.5-2.5-1.5 1.5-6.5 1.5.5-2-7v-2l3.5-13.5.5 7.5-2 6 1.5.5 10-16zm202 2 4.5.5-3.5 1.5-11 2h-2l-5 2h-2l-29 7h-2l-8 1 1-2 27-6 2 1zm146 1 1.5.5-1 5 2 4-2-1-2-6zm-140 9h2l9.5 1.5.5 1.5 1.5-.5.5 1.5 1.5-.5-3 2 .5-1.5-3 1-2-4-9 1zm21 3 1 3 2.5 1.5-.5 1.5-1-2-1.5.5-.5 3.5-1.5-.5zm-42 3 20.5.5-20.5.5zm29 0 3.5 1.5-5.5 6.5-1.5-.5 5-4-.5-1.5-1.5.5zm-38 1 16.5 1.5-13.5.5zm-49 1 19.5.5-19.5.5zm39 1 3.5 1.5-7 2 7 3-2.5.5-6-2v1l1.5.5-4.5.5v-1l1.5-.5-.5-3.5 1.5.5.5 1.5 2-3 2 1zm-22 2 1.5.5-.5 1.5-6 1-3 1-17 1-1-2 7 1v-1l-2.5-.5zm195 2 3.5 18.5h-1q1.1-8.1-3-11zm-231 2 3 1 3.5.5-.5 1.5 8.5.5-8.5.5-2-1-2.5 1.5 1.5-2.5-3.5-.5zm27 2 12.5.5-12.5.5zm-47 1 2 3 6.5 2.5-3.5 2.5-2.5.5.5 1.5 1.5-.5.5 1.5 1.5.5-2.5.5-1.5-.5 1 5-1 2 1 3-1 3 1 3-1 8 2 3v28h-1l-1-10 1-18q-4.6-4.4-2-16l1-2-1-17zm7 0 4 2 3-2 1 2-2-1-4 2zm127 0 .5 2.5-1.5 7.5-1.5-6.5 2-1zm-11 1q3.8 2.3 1.5 10.5h-1l-.5-9.5-1 7-.5-6.5zm-31 2h11l1.5 1.5-3.5.5-5-1-4 1zm48 1 .5 18.5h-1l-1-11 1-3zm-142 1 .5 19.5h-1zm117 0 .5 2.5-2 1v2l1 3-2 4 1 3 .5 1.5 2.5-.5.5-5.5.5 6.5-1 3 3 16-2 3 2 5-1 2 1 3-1 4 2 4-1 2v2l1 2-1 2 1 11-.5 1.5 1.5.5-1 3 1 2-.5 3.5 1.5.5-.5 1.5-1.5-.5 2 5v2l-1 4 2 1-2 5 1 3 1 5v2l-.5 5.5-1.5-2.5 1-2h-2l1-3h-1l-.5 1.5-1.5-5.5.5-1.5-1.5-.5-2-10-1-3-2-7v-2l-2.5-4.5-.5 2.5 2 5-2 1q1.1 7.6-2.5 10.5l-4.5 2.5 1 6h-1l-3-23v-2l1-5-1-4v-4l-1-4 1-2-2.5-1.5-.5 2.5-.5 2.5-1.5-.5.5 1.5 1.5.5 1 11-1 3-1 3 .5 3.5 1.5-.5-1 9v2l2 7v2l.5 3.5 1.5-.5 1.5-2.5.5 1.5v2l-.5 1.5-4.5.5.5 1.5 1.5-.5-1.5 3.5-1-3-1.5.5 1-7-2-4 1-3-1-2 1-4-1-3 2-3-2-2-1-12 2-7h-1l-.5 1.5-1.5-25.5 1.5-5.5 1.5 8.5-1 3h1l.5-1.5 2.5 1.5-2-6 1-3h-1l-.5 1.5-.5-2.5v-2l-3.5-21.5-1.5.5-1 3 2 4-3 1 1 12h-2l.5 6.5 2.5 1.5-1 5 1 3v2l-.5 20.5-1-15-1.5.5 1 3-1 3 1 2h-1l-1.5-4.5-1 5-.5-4.5 2-3-1-2 2-1-1-4 1-2-4-16 1-10-1.5-3.5-2 3-4.5-9.5h1l1.5 3.5 1.5-.5-.5-2.5-1.5-.5.5-1.5 2 1 .5-1.5-2.5-3.5-2.5 1.5-.5 2.5-1-5-1.5.5-.5 2.5-1.5-.5 1-2-3 2 .5 1.5 4.5 1.5 5 12h-1l-1.5-3.5q-4.7 2.3-.5 4.5l1 5h-1l-.5-1.5-.5 2.5 2 4-3 18-2.5 2.5-1-2 2.5-.5-.5-3.5-1.5-.5 2-1 1-3-2-10h2l1-7-2-1-.5-2.5-1.5-.5 1-2-2.5-4.5-1.5.5 1 7-6 9 1.5 5.5 1-4 1.5 8.5-1 3 .5 1.5-1.5-3.5 1-2h-2l-.5-3.5-1.5 11.5 5 13-1 2h2l2 6-2 1 1-2-7-12v-2l-1-10-2-2h2l-2.5-6.5-1.5 10.5h2q1.8 8.8-2 12l2.5 3.5-3-1-1.5.5 3 12-3 1 2 1 1.5 10.5.5-5.5-1-4 2 1-1 2 1.5-.5 1.5.5-2 6 .5 1.5-1.5.5.5 2.5 1-2 1.5 8.5-2-1-2-4v-2l-.5-3.5-1.5-.5 1-4-3-2-3.5-9.5-3 1v-1l1.5-.5.5-1.5 1.5.5.5-2.5 2 9 .5-2.5-1-10v-2l.5-3.5 1.5-.5.5-1.5 1.5-.5-.5-1.5-1.5-.5 2-12-.5-2.5-1.5.5-.5 1.5-.5-3.5h2l1-2-1.5-.5-1.5.5.5-1.5 1.5-.5 2-10-1-3 3-6-2.5-.5-2.5 1.5 1.5-2.5-1.5-.5-.5-3.5 2 1 .5-1.5-2-1 4-2 .5-1.5 6.5-4.5.5-2.5v2l4.5-.5-.5-1.5 2-1 1 2-2.5 1.5-3.5 5.5v-2l-4.5 2.5-3 5 1.5-.5 9.5-5.5.5-1.5 1.5-.5.5-1.5 3.5-2.5-.5-2.5-1 2-2.5-3.5 4.5 1.5 2.5-1.5-1.5 2.5 2.5 1.5h-2l-1 4h1l.5-1.5q3.2 2 0 4l1.5.5-1 2 1.5.5 1-4 3 19 1.5-.5-1-14v-2q-2-7.5 1.5-9.5l1.5.5.5 1.5 1.5-4.5-.5-1.5 1.5.5-1 5 1.5.5 2.5-1.5-.5-1.5-1.5-.5.5-1.5h2l2.5 1.5-1 4 2.5 5.5 1.5-3.5 1-5h-2l.5-1.5-1.5-.5 2.5-.5 1.5 5.5-2 7 2 4v2l1 4-2 1-1 11 1 6-1.5.5-2-12-.5 2.5-1 4 2 16-1 9h1l2-4-1-3 .5-11.5 2 6 3.5-10.5-.5-1.5 2 1 1-2 1.5-.5-.5-1.5-2.5-1.5-1-17v-2l.5-11.5 4 2 2-3 1.5-.5zM509 438v3l-2 3 1 2h-3l2-3v-4l-4 8h2l2 1-1 2-1-1-2 4 3-1-2 6h2l1-2 2-1-1-1 1-2 3-2-3-2 2-1 1-5-1-3zm32 0-4 6h2l1 4 2-1zm17 0v3l-3 12 1 2-2 5h2l2 13-1 2 3 8v-7l-1-10v-4l-1-9v-2l2-8zm-4 27-2 3-3 1 3 2v8l-2-2 1-2-2-2-2-4-2 1 2 3-1 6v2l-1 3 1 12v2l-1 4 1 6-1 3 2 8 3-4 1-9v-2l-2-7 2-1 1-6 1 9v-9l2-4v3h2v-3l-2-1-1-1h2v-3l-2-1 1-6 1 2h1l-1-2-1-1-1-1h2v-7l-1 4zm8 20v3l-1 5h2v-3zm-251.5-64 .5 5.5-2 5 .5 1.5-1.5-.5.5-5.5 1.5-.5zm42 0q3.3 1.8 1.5 8.5l-1.5.5-.5-2.5 1-3h-1l-.5 1.5-.5-1.5zm149 0 2 1 2-1-.5 1.5.5 1.5 2.5-1.5-.5-1.5 2.5.5-4 3-1.5 3.5-6 4 1-5-2.5-.5v-2l.5-2.5zm-18 3q5.5-1 6.5 2.5v2l-1 4 2 1-.5 2.5-2-3-1.5.5-1.5-2.5-2.5 1.5-.5 1.5-2.5 1.5-.5 1.5-1.5.5-1.5 3.5-1.5-.5 1.5-5.5 3.5-.5 3-5-1.5-.5-2 1-1-2-2 3-1.5-3.5 2.5-1.5 3-1zm-12 3 1.5.5-1.5 4.5-4 2-2.5.5 2 1 .5 1.5 4-3 .5 2.5-9.5 8.5-.5-2.5 4-3-.5-2.5-3 2-.5-4.5v-2l1.5-4.5 5.5.5-2 1-1 2 1.5.5 2.5-.5zm222 1 1.5 1.5-5 5 4 9-2-1-.5-2.5-1.5-.5-1.5-3.5-2.5 1.5-.5 1.5-2 1-3.5-4.5 3.5 2.5 2.5-1.5 2-3-.5-1.5 1 1zm-114 3 .5 17.5h-1l-1.5-4.5-1.5-.5.5-1.5 1.5.5.5 1.5zm13 0 1.5.5-1.5 2.5-1.5.5-5.5 7.5-1.5.5 2 1 1 3-2 8 1 5-1 2 2-1 5.5-8.5.5 1.5q-7.4 5.6-8 18l1.5 5.5 7-13 1.5.5q-8.4 7.6-9 23l1.5.5 6-10 1.5-.5.5-1.5 1 2-1.5.5-3.5 7.5-1.5.5-1 3-2 7 2.5 1.5 5-9 1.5.5-8 13 2.5 8.5 3-2 1.5.5 1.5-4.5 1.5 5.5-1.5-.5-1.5.5.5 2.5 1.5-.5.5 2.5 3.5-1.5.5-1.5 1.5-.5-1-6-.5-2.5-1 3-1.5-.5 3-8-1-5 1.5-.5.5 1.5v4l1 5v2l.5 3.5 5-4v3l-4.5 2.5-1 2 .5 2.5 10.5-1.5-1-9v-2l1-3-2-7 2.5-1.5.5 2.5-1 3 1 14 2.5 5.5 2-1h2l7.5-.5-3-10 1-7-2-11 2-1-.5-1.5 1.5.5-1 8 2 9-1 4 2 4-1 4q1.7 4.3 3.5 1.5l4.5-1.5-1-5 1.5-.5 3 9 3-2-1.5 2.5-2 4 2 5-1 2 1 4-1.5.5-1.5-3.5 1-5-1.5-.5-1 3-.5-2.5-1-3 2-3-1.5-2.5-7.5 1.5 1 2-1.5 2.5-1-5-9-1-2.5 1.5-.5 1.5-3-4-8.5 1.5-.5 1.5-1.5-.5-.5-1.5q-5.5-1-6.5 2.5l-.5 3.5-1.5-.5-1-4 1-4-1.5-.5q-4.4 1.6-3.5 8.5h1l.5-1.5.5 7.5-1 4h1l.5-1.5.5 2.5-3 5 1.5 4.5 11-16 1.5.5-5 11 .5 1.5-2-3-1 2-1.5.5-1 8 1.5.5 1-2 1.5-.5 1.5-3.5q5.8.8 6.5-3.5l-2-14v-2l.5-2.5 1.5.5 1.5 14.5 6-10 3.5-1.5 1.5-2.5 2.5 11.5-2 5 3-2 .5-1.5 5-2 1 2-1.5-.5-1.5 2.5-4.5 3.5 2 4v2l.5 1.5 6.5-5.5 1-8-.5-1.5q4.2 1.8 1.5 3.5l.5 2.5q5.3-.7 4.5-7.5l-.5-1.5 2.5.5v2l-1 2 1 5-1 2v2l-.5 1.5-1-8-2.5 1.5-3 9 3 4-2.5 4.5-4.5 2.5 1.5 2.5 1.5-.5-1-2 1.5.5 5.5-3.5 2.5-3.5 1.5 3.5-2.5 3.5-3.5.5-.5 1.5-3.5 1.5-.5 1.5-7.5 5.5 1 2-5.5 3.5-.5-2.5.5-1.5-1.5.5-.5 1.5-2.5 1.5 1 2-1.5-.5-1.5.5.5 1.5-17 8 .5-1.5 1-5-1-2v-2l-1.5-3.5-1.5.5 2-3h-2l1-6-3 2-.5 2.5-.5-2.5.5-2.5 2.5-1.5-2.5-13.5-2 4-1.5-5.5h1l.5 1.5 1.5-5.5-1.5-3.5-2 1-.5-1.5 3-2-2-10-1-3-.5-6.5-1.5.5 2-4-2-5 1-3-1-27v-2l1-10v-2l1-10-1-2v-2l1-4-1-2 2.5-8.5 1 6zm-4.5 75-3 5 2 5v-4l1-3zm28 17-2 1-1 2h-1l-4 11 1 6 6-4 1-11 2-1-1-3zm-9 15-3 5 1 2 1-2 1-3zm13 0-3 3-2-1-3 6-1-2-3 5 1 2h2v-3l1 1-1 4h2v3h-2v-3l-3 5 2-1 2 1 5-3v-4l-3 1-1-1 2-1v-1l-1-1-1-2 2-1-1 2h4l1-2v-2l1-2zm-17 3-10 9 1 4 9-10zm25 2-2 1-4 9 1 2h2v-1l2-1 3-7-1-2zm-22 5-12 10 2 11q1-11 8-16l1 1-6 10h-1l-1 3h2v-1l2-1v-1l5-3-1-1 1-5 1-3 1-2zm15 4-2 4h-1l-7 13h2l2-3 2-1 4-5zm-10 7-1 2-4 2-2 3h-1l-1 2 2-1 1 1-2 4h-1l-4 5 1 1 10-9-1-2h2l3-6h-1v-1zm-11 8-4 6 1 1 2-1v-1l1-3 2 1v-1z"/><path fill="#98968d" stroke="#98968d" d="m485.5 434-1 3 4-2 1.5 2.5v2l1 4-1 2 1 2h-2l-1 5 1.5 2.5 1.5-.5 1 4h-1l-.5-2.5-2.5 4.5 2 7v2l-.5 14.5-3-23-1.5.5-.5 1.5-1.5-.5-.5 3.5-1.5-.5-.5-15.5-1 10-1-10-3.5 2.5v-2l.5-1.5 1.5-.5.5-1.5 3 1 1.5-4.5-2 1-.5 1.5-1-4-3.5 2.5q3.2-5.6 6.5-2.5l3.5-1.5-3-1z"/><path fill="#98968d" stroke="#98968d" d="m471.5 439 1.5.5-1 7 2 1-2 11 2.5 6.5 1-6 .5 5.5-1.5 2.5-2-4-1.5-.5 1-3-1.5-.5-1.5 3.5 3 2-.5 14.5-1-4-.5 4.5 1 9h-1l-.5-8.5-1.5 3.5v2l-.5 2.5-1-3-1 3-2-1-.5 9.5h1l2-3-2-3q1.5-3 3 0l-1 2 1.5 5.5 1-6 1 2 3-5 2 6 1.5.5-4 1-5 10 2-1 .5-1.5.5 1.5-5 15 2 1 .5-2.5.5 4.5h-2l.5 2.5 2.5-1.5.5-2.5 1.5 3.5-2.5.5-1.5.5 3.5 5.5 7 3-1-2-1.5-.5-.5-1.5-1.5-.5-.5-1.5-1.5-.5.5-1.5 3.5 2.5.5 1.5 9.5 1.5-5 2 .5 1.5q5.8.8 6.5-3.5l-.5-1.5 6-5-3.5 4.5-1 3 4 3-1.5 4.5-1.5-.5-.5 2.5-4-1-2 4-2-1-1.5 3.5h2l-1 3 1.5 5.5 2.5-1.5v-2l1.5-4.5 1.5.5q-2.7 10.8 2.5 13.5l1.5-.5-1 4 1.5 2.5 1.5.5-1 2 1 3-1 7 1.5 8.5 1.5-.5 1-3-2-5 1.5.5 1.5-.5-.5-2.5-1.5-.5 1-22 1.5-3.5 1 5 1-9 1.5 9.5h-2l-.5 2.5-1.5-.5 1 4-1 2 1.5.5 1-5 1.5 14.5-1.5 3.5-1.5-.5.5 3.5 1-2 .5 2.5-1 3 1.5 3.5 1.5-.5 1 11-2 1 .5 1.5q-6.7 1.8-8.5-1.5l1.5.5 2.5-.5-3-2 1-2-2.5-.5-2.5-.5 1-6h-1l-1.5 10.5-4.5-1.5.5-4.5 1 5 1.5-.5 1-3-1.5-3.5-1.5.5 1-5-1-3 2-4-1.5-.5-1 2-.5-1.5-1-3 1-4-2-14h2l-.5-3.5-1 2-2-1-2 4-2.5-5.5h1l1.5 4.5 1.5-3.5-1-2v-2l-2-11 2-1-2.5-1.5-1 3-2-1-.5 2.5.5 3.5 2.5-1.5 1 4-1.5.5-1-2-.5 3.5 1.5-.5 1.5.5-2.5 3.5-2-7-1 5-1-2-2.5.5 1.5 8.5 1.5-3.5-.5-1.5 2-1 .5 2.5.5 2.5 1-3 1.5 5.5-2 3 1 7-1 2 2 7-1 3 1 5-.5 1.5 1.5.5-1 3-.5 1.5-.5-1.5.5-1.5-1.5-.5-2.5-9.5-.5 8.5 1 7 1 3-1.5 4.5-.5-1.5.5-1.5-1.5-.5 1-5v-2l-.5-3.5-1 3-.5-2.5v-2l.5-7.5 1.5-.5-.5-1.5-1.5.5-1-5 2-1-1 3 2-1 1-8-1.5-2.5-2.5.5 2 1-1.5 5.5-1.5-.5-1-6v-2l1-4-1-3v-2l-1-5 1-2v-2l-.5-1.5-1.5-.5-1-6h1l1.5 2.5 1.5-.5-.5-1.5-1.5-.5-.5-2.5-2.5-1.5 1-2-1-4 1-4v-2l-2-14 3-7q-3.1-5.4-2-15l1-2-1-7 1-2-.5-1.5 2.5.5-.5 2.5-1.5.5.5 1.5 1.5-.5.5 3.5 1.5-.5-1-4 3-1-3-1 2-5-2-1 .5-1.5-1.5.5-.5 4.5-.5-6.5 1-3 1-7-1-3 4-4-1-1-.5-1.5-2 4-1.5-.5 2.5-5.5 1.5-.5.5-1.5 2 1 1.5-3.5-1.5-.5-2.5 1.5zM490 581v8l2 1-2-6zm207.5-140 .5 1.5-2 4 1.5 3.5 1-2 2.5.5-1.5 6.5-1.5-.5 1 4-2 1 1 5h-1l-.5-2.5-1 3-.5-2.5 3-5-1-3 1-2-2.5-4.5-1.5-.5zm-11 4 6.5 12.5v2l1 4-1.5.5-1.5-5.5-1.5-3.5-.5 3.5 2 6-1.5 2.5-2.5-5.5 1-2-2-1v-2l.5-1.5 1 2 1-3 1.5-.5-3-1zm30 3 .5 12.5h-1zm-393 3 1.5 9.5h-1zm173 0 1 6 1-6 .5 5.5-1.5 2.5-1.5.5 1 2-1.5 6.5-.5-8.5zm-59 1 2.5 1.5-.5 7.5-1-6-1.5-.5zm-101 1 1.5.5-3 2-1.5 4.5-.5-4.5zm243 2 .5 26.5-1 2 1 3-1 5 1 2-1.5 2.5-.5-1.5v-2l1-3-1-2v-2l-1-3 1-2-1-8zm84 0 1.5.5 4 14-2-1-2.5-5.5-1 4-1.5-2.5 2-8zm-86 1-.5 1.5 1 2-1 4v2l-.5 5.5-.5-13.5zm-276 1 .5 13.5h-1zm136 1 1.5 8.5-2 1zm-111 1 .5 11.5h-1zm-27 1 .5 22.5h-1zm266 0 1.5.5-1 8 2 1v2l-1 11 1 2-1 6 1 2-1 2 .5 1.5-1.5-.5 1-15-2-7 1-3zm-232 1 3.5 9.5-1.5 2.5z"/><path fill="#98968d" stroke="#98968d" d="m478.5 461 1.5 4.5-1 2h2l-3.5 5.5-.5-1.5 1-2-2-1 .5-2.5 1 2 1.5-3.5zm35 0 .5 10.5-2.5 4.5-.5-1.5 2-3-2-1 2-1zm164 0 3.5 6.5v2l2.5 7.5 2.5.5-3 1 3 1-1 2 2 11h-1l-.5-1.5-.5 2.5 1 2-2.5 4.5-1.5-3.5h2l-.5-2.5-1.5.5.5-1.5 1.5-.5-.5-1.5-1.5.5-.5-9.5-4.5 2.5.5 1.5 1.5-.5-4.5 26.5-1.5.5-2.5 9.5-1.5-.5-1.5 4.5-2-1-9 14-.5-4.5q-1.5-7 2.5-8.5l1 3 2.5-11.5-1.5.5-1.5.5-1.5 6.5-.5-2.5 2.5-6.5 1.5.5-1-3h2l1-4-1-2v-2l.5-2.5 3 1 .5-1.5-1-2 5.5-10.5 1 3 1.5-2.5-3-2v-2l-1-5 1.5-.5 2 8 2.5-.5 1-3 4-12-3.5-9.5-1.5-.5zm-1.5 28q-6 2-4 12v2l2 2v-4l2-9zm-6 8-2 1v2l-2 6h-2l1 2-2 1 1 12-1 3 1 3v-1l4-3 3-12-1-3 1-6zm-185.5-32 .5 2.5v2l1 3-2.5 9.5-.5-10.5 1-2v-2zm-31 1 .5 12.5h-1zm197 1 1.5.5 1 7-1.5 2.5zm44 0 1.5 3.5h-2l.5 3.5 1-2 .5 1.5-1.5 3.5-1-2-1 2-.5-1.5zm-385 1 1.5 6.5-1.5 7.5-.5-6.5v-2z"/><path fill="#98968d" stroke="#98968d" d="m672.5 469 .5 2.5-2 1 2 5-2-1-.5-3.5-1.5.5zm-34 2 1.5.5-1 15v2l1 2-2 1q2.8-10.2-2-13l1.5.5 1.5-.5-2-4zm-115 3 1.5.5-1.5 9.5zm-185 5 4.5 8.5-4-3zm180 0 .5 1.5-4 3 1 3-1.5 2.5-.5-2.5 1-2-2-3 1.5.5 3.5-1.5zm133 2 1.5.5-.5 1.5-1.5.5 1 6v2l-1 3 1 2-2 1 1-5-1-9zm-129 5 .5 1.5-2 4h2l-4.5 2.5-3-4 3 1 2.5-1.5zm-66 1 1.5 6.5-2 1v-2l1-3zm234 1 1.5.5q1.6 9.6-1.5 14.5l-.5-2.5 1-11zm-347 1 4 7 1.5.5q-.7 8.8 4.5 11.5l11-5-1 2-9.5 4.5 4.5 10.5h2l1.5-.5q-2.7-1.7 1.5-3.5l9-3v1l-5 3-2-1-2 4-3.5 2.5 4.5 8.5 17-10 .5 1.5-17 11 2.5 4.5 4-5 1.5.5-5 6 2.5 4.5 11.5-7.5.5-1.5 2.5-1.5 1.5-2.5 1.5-.5.5-1.5 1.5.5-3.5 4.5-2.5 1.5-1.5 2.5-1.5.5-3.5 4.5-1.5.5-.5 1.5-3.5 1.5 1.5 2.5-4.5-2.5v-2l-1.5-3.5-1.5.5-.5 1.5-4.5-1.5 1.5.5 1.5-.5.5-1.5 1.5-.5-2.5-5.5-4.5 3.5.5 1.5-4.5-5.5 2.5 1.5 5.5-2.5-1.5-3.5-1.5-.5-1.5-4.5-5.5 3.5-.5 1.5-1.5-2.5 7-4-6.5-12.5-6 4-2-3 7.5-2.5-4.5-9.5-2.5-.5 1-4-3-4zm141 2 3.5 6.5-1 2 1.5 2.5-3.5-2.5 1-2-1.5-.5-1.5.5zm-41 5 .5 22.5h-1l-.5-3.5-1 5-.5-4.5 2-4zm13 0 .5 10.5h-1zm115 0 .5 7.5v2l-1 7 1 4-1 2 1 2-1 2 1 2-1.5.5-.5-2.5 1-2-1-13v-2l1-6v-2zm-42 1 1.5 1.5 1 15-2 1 3 1-.5 4.5-1-3-1.5 2.5v2l1 5-1 2 2 1-2.5 5.5-2.5-1.5 1-2-1-3 2-14v-2l-1-5 1-4-.5-1.5 1.5.5-2-4zm38 0 1.5 7.5-1.5.5-1.5-4.5.5-1.5-1.5-.5zm6 2 .5 10.5h-1zm77 0 1.5.5-1 4 1.5.5 1.5-.5-.5 1.5-4.5 2.5.5 2.5 2.5.5 1 2-1 2 2 6-3 2 .5 1.5 3.5-.5-3 7 1 5-1.5.5-1-2-1.5.5 1 2-3 2 1 2-1 8 6-4-13.5 12.5 3.5-4.5 2-8v-2l.5-2.5 1.5-.5-1-2 1.5-5.5 1.5-.5-2-1 3-11-1-2 1.5-2.5-1.5-.5-1.5-5.5-1.5.5 1 3-2-1-1-3 3-1-2-5h1l1.5 4.5 2.5-1.5 1-4zm-135 1 6 16 1.5.5-1 3 1 3-1.5.5-1-4-2 4-.5-2.5 1-3-2.5-5.5-1 3-.5-2.5 3-2-3-6 1-2h-2zm170 0 1.5 3.5-2 9 3-2 .5-1.5.5 1.5-2.5 3.5-1.5.5 1 2-4.5 7.5.5-1.5 2-14-1.5-.5-1.5.5 1.5-2.5 1.5.5.5-3.5 1.5-.5zm-205 2 3.5.5-.5 1.5-3-1-4 2 1-2zm-178 1 1 3 1-2 .5 1.5-1 5 1 2h-1zm14 1 2.5 1.5 2 5-2-1zm174 1 5.5 6.5v7h-1v-7zm-14 4-.5 1.5-.5 2.5-1.5-.5 2 9-3-2-1-5zm-39 1 1.5.5-2.5 4.5-1.5.5-.5 1.5-1.5-.5zm-100 1 2 1 1.5-.5-1.5 3.5-1.5-.5 2-1-2.5-1.5-2 3-.5-2.5zm121 0 1.5 16.5h-1l-2-12zm251 4-.5 3.5-.5 2.5-1-2-1.5.5zm-32 2 .5 1.5-3 8v2l.5 4.5 1.5-.5.5-1.5.5 1.5-1.5 3.5-1-2-.5 2.5.5 1.5-3.5-.5 1.5 2.5 1.5-.5-4 2 .5 1.5 1.5-.5-3.5 1.5-5 3 .5-1.5 1-2-1-2 1.5.5 2-1v2l1.5-.5 1-2-2-1 .5-2.5 1.5-.5 1-3-1-4 2-5h-2l2.5-4.5.5 1.5-1 2 2-1zm-245 1 .5 1.5-6.5 9.5-.5-1.5zm264 0 1.5 2.5-2.5 3.5.5-1.5 1-3h-2z"/><path fill="#98968d" stroke="#98968d" d="m524.5 519 1.5 24.5-1 2 3 9v2l.5 3.5 1.5-.5-1-4 1-2q-3.7-5.8-2-17h1l.5 8.5 1-8 1.5 13.5-1 5 1 4v2l1 9v2l.5 4.5 1-16 .5 15.5v2l1 14v2l-.5 3.5-5.5-22.5.5-1.5-1.5-.5-6-34 1-7-2-1-.5 1.5-.5-2.5 1.5-2.5 1 2zm26 0 1.5 3.5-3.5 6.5-.5-7.5zm-101 2 .5 3.5-1 3 .5 2.5 1.5-.5-1.5 5.5-1.5-.5 1-3-2-6v-2l.5-1.5 1.5.5zm-12 1 2 1 2-1 1.5 2.5h-1l-.5-1.5-4.5 3.5 1 3-3-2zm137 0 .5 11.5h-1zm-77 1 1.5.5 2.5 5.5 3-1 1.5 4.5-1 2 1 16-1.5.5.5-1.5-1-2 1-4v-2l-1.5-10.5-3-2-.5 4.5-1 3-.5 1.5-1-5-1 4-.5-3.5q3.5-1.5 2-8h-1l-.5 1.5-.5-1.5zm11 0 1.5.5 1 7-1.5 6.5-.5-6.5 1-2zm44 1 2.5.5-2 3 2.5 3.5 1.5-.5-.5-1.5-1.5-.5 2-1 .5-1.5 8.5 19.5v2l1 4h-2l1.5 3.5 1-2 1.5 13.5-1.5.5-1-6-1.5 5.5 1 8-2 14 1 3-3.5 1.5-1-2 1.5.5-.5-2.5-1.5.5 3-11h-2l2-7-2-6v-2l1-5h-2l-4.5-9.5h-2l-1.5-.5 1-4-2-3 1-7v-2zm3.5 8-2 2 3 2-1-1-3 8 1 3 3 1 1 3 1-3-2-8 1-2 2 10 1 3-1 2h2l2 8 3-1-1-1-7-23zm-207.5-6 3.5 5.5-3.5-.5-1.5-.5zm30 0-.5 1.5-1.5 2.5-1.5.5-.5 1.5-1.5-.5zm25 1 .5 1.5-13.5 15.5-4.5 3.5 3.5 7.5 2.5 1.5-.5 1.5-3.5-1.5.5-1.5-5 1v-1l3.5-1.5-2.5-4.5-3.5 2.5.5 1.5-4.5-2.5 1.5-.5 1.5.5.5-1.5 4.5-3.5.5-1.5 4.5-1.5-.5-1.5-1.5.5 2.5-3.5 3 1 1-3 8.5-7.5zm169 0 .5 11.5h-1zm-140 2 1.5.5-1.5 3.5-1.5.5-3.5 5.5-1.5-.5 2.5-3.5 1.5-.5zm268 0-5 6zm-347 6 3.5 4.5-1.5-.5-3 1v-3l1.5-.5zm86 0 1.5.5.5 1.5 1.5-.5-1.5 2.5q-1.7-2.7-3.5 1.5l-7.5 12.5.5-1.5zm12 0 .5 2.5-1 4 2 5-1.5 4.5-.5-5.5v-2l-.5-1.5-2 5-.5-10.5 1.5-.5 1.5.5zm5 0 .5 34.5v2l-1.5 7.5-1.5-9.5v-2l-1-4 1.5-2.5.5 2.5v2l.5 2.5zm233 1-7 8-1-2 1 1zm-281 2 1.5.5-4.5 6.5-.5-1.5z"/><path fill="#98968d" stroke="#98968d" d="m440.5 540 2 4 1-4 .5 3.5v2q1.8 8.8-2 12l.5 2.5 1.5.5 1 5-1.5 6.5-1-3-1.5.5-2 5 2.5 5.5 1.5-.5.5-3.5.5 5.5-1 2 1 5-1.5.5-.5-2.5-.5-1.5-1.5.5 1 2-2-1 1-2-2.5-9.5-1 2-1.5.5-5 8 .5 1.5-2.5-1.5 2.5 3.5 2.5-3.5-.5-1.5 6.5 8.5-2 3 2 4-2.5 1.5-1-3-6 4 1-2 2.5-.5-.5-1.5 2.5-.5-.5-1.5-2 1 .5-1.5-1.5-4.5-2.5 3.5-1 3-4 7 3 4-9 8 6.5-7.5-2.5-1.5 1.5.5 1.5-.5-2.5-3.5q-4.3 1.8-1.5 3.5l-4.5 7.5-7 4 2-4-3.5-.5 1-4-2-5 1-2-1-3-1-3 2-4q-3-2 2-4l2.5-5.5.5 1.5-5 12 2.5 10.5 3-9 2.5.5-5 13 2-1 .5-1.5 2.5-.5-1-3 2.5-7.5 1.5-.5 1-3-1-2 4-2 2-8-1.5-2.5-1 2-1.5.5-.5 1.5-1.5.5-.5 3.5-1.5-.5 6-9-3.5-6.5-1.5-.5-1.5-5.5-1.5-.5.5-3.5 1.5.5 6.5 14.5 1.5-.5.5 3.5 2.5-1.5 1-4-4.5-9.5-1.5-.5-7.5-18.5-1.5-.5 1.5-2.5 1.5.5-1 2 7.5 16.5 2.5-.5.5-1.5.5 1.5-2 3 4.5 6.5 1.5.5.5 4.5 3.5-1.5 1-3-1.5-3.5-2 1-.5-2.5 1-2-1-2 6-4 3-7-4-1 4-1 1-3-1-2q3-2-2-4zm.5 17-6 9 1 3 3 1v-3l3-1-1-2 1-3zm-15 31-2 4 1 2h-1l-3 1 2 1-3 2 2 2 1-2v3h2l2-7 4-3-3-3-1 4zm-7 20-7 6 1 1 4-2 2-3zm117.5-68 2 1q1.8-2.7 3.5 1.5-3.9 2.1-2.5 9.5l-1.5-5.5 1-4h-1l-1.5 12.5z"/><path fill="#98968d" stroke="#98968d" d="m544.5 541 2 5 1.5-.5-3 1 1 2q-4 3.5-2 13l1 2-1 2 2 1-.5 2.5-1.5.5 1 3 1 8h-1l-5-13h1l.5 1.5.5-3.5-1.5-8.5-2 6-1.5-5.5 1.5-4.5 1 2 2.5-.5.5-3.5 1.5-.5-.5-6.5-1 3-.5-2.5zm-186 1q3.3 6.6 6.5 4.5l.5 1.5 3 1 2.5.5-4 2 .5 1.5 4.5 2.5-1 2 1.5.5 1-4 3-2 4.5 2.5-1.5.5-3-1-2.5 3.5.5 1.5h-2l-2.5-.5-1.5-2.5-3.5-2.5 2-5h-1l-.5 1.5-2.5-1.5-.5-1.5-4 2-2.5-1.5 1.5-2.5 1 3 .5-4.5zm63 0 1.5.5 5.5 12.5 2-1-.5 1.5 2 6h-1l-1.5-2.5-2 1 .5-1.5-1-2v-2l-1.5-2.5-1.5.5 1-3zm152 0 .5 10.5h-1zm89 0-.5 1.5-4.5 7.5-4 2 2-3 2.5-.5-1-2 3-1 1-2-.5-1.5zm-26 1 1.5.5-1.5 4.5-3.5-1.5 2.5-.5 1.5.5zm-61 1 1.5 12.5h-1zm-25 1-.5 3.5 1 3-2 1-1-5zm-230 1 4.5 2.5h-2l1.5 2.5 2.5.5q-2.5 2-5-2zm86 1 3 5 1.5.5 2 6-2.5-1.5-1.5.5 1 2-2-1 .5-2.5 1.5-.5q-5.4-2.7-3.5-8.5Zm-9 2 .5 1.5-.5 1.5 3-1-2.5 3.5 2 2 4 12-3-2-5-16zm52 0 .5 10.5h-1zm4 0 .5 7.5-1.5 3.5-.5-3.5 1-3zm209 0 .5 1.5-.5 1.5 2-1-1 2-3.5 1.5-3.5 4.5-1.5-.5zm19 0-5 6 .5-1.5.5-1.5 1.5-.5-.5-1.5zm16 0 .5 1.5-9.5 16.5-1.5.5-2.5 4.5-2.5.5-2.5 4.5-1.5-.5-6.5 7.5-4 3v-3l4-3 1.5.5 1.5-3.5 2.5-.5 7.5-8.5 1.5-.5zm-13 1-5 6zm-130 1 2.5 1.5 1 3-1 6 1 5h-1zm-229 2 7.5 5.5q-4.5 2.4-7.5-5.5Zm194 2 1.5.5-1 4 .5 1.5-2-1-.5 2.5h2l1 3h-2l-1 4 2.5 1.5 2.5.5.5 4.5 1-5 .5 7.5-.5 1.5 1.5.5 1.5 9.5 1-3 .5 2.5 1 2-2 1 .5 2.5 2-1-1 2-1.5.5.5 1.5 3.5.5-4.5.5-1-6-2 7-3.5-.5 1-3-.5-1.5 2 4 1.5-.5-3.5-27.5-1 2-1.5.5-3 9 2.5 3.5 2.5 1.5 1 5h-1l-1.5-3.5-1.5 5.5 2 6-1.5.5-1-2-1 2-5.5 1.5 3 1-3 1 2 1-3.5.5-.5-1.5 2-1-3-1 1-3q-4.8-5.7-5-16l2-6v-2l-1-8h1l2.5 17.5 1.5.5 1 8-2 4h1l1.5-2.5 2 6 1.5-.5-1-3v-2l-1-6v-2l-1-5 3-9-3-13h1l1.5 3.5 1.5.5-.5 1.5-1.5-.5 1.5 3.5 3.5-4.5-4-2-1-3h1l.5 1.5 1.5-.5zm132 0 1.5.5.5 1.5 1.5-.5-4.5 7.5 2.5-3.5-.5-1.5-5.5 4.5-.5 1.5-2.5 1.5-.5 2.5h-2l-4.5 1.5.5 1.5 1.5-.5-13.5 7.5 1-2 1.5-.5 2.5-3.5 6.5-5.5 1.5-2.5 1.5.5.5 1.5 3-4 1.5-.5.5-1.5 3.5-2.5.5-1.5 1.5-.5zm-73 2 1.5.5-1 2q3 2-2 4l-.5 1.5-.5-1.5 1.5-2.5-1.5-.5.5-2.5zm59 0-5 6zm-86 4 .5 6.5v2l.5 3.5 1.5.5 2.5 12.5 1.5-.5 1 2-1.5-.5-2.5-1.5-.5-2.5-1 3-.5-4.5 1-6h-1l-.5 4.5-4.5-9.5 3-1v-2l-.5-2.5-1.5.5.5-2.5 1.5.5zm8 0 .5 23.5h-1l-1-2zm-167 1 .5 1.5-1 3 3 8h-1l-3.5-9.5-4 3 1.5-2.5.5-1.5zm241 3-5 6zm-96 2 5.5 12.5-.5 1.5 1.5.5 1 10-2.5 1.5-1.5-3.5 3-1-1.5-3.5-2.5-.5-.5-1.5-.5 3.5 1.5-.5 1.5.5-.5 1.5-1.5-.5-.5 1.5-1.5-.5-1-11h1l.5 2.5 1-3 1.5-.5-1.5-3.5-2.5-1.5 1-2zm125 0 1.5.5-3 2 1 1-5.5 5.5zm3 2-8 9zm-43 1 1.5 1.5-4.5 4.5-3.5 2.5-.5 4.5-2.5-.5 5-7-1-2 1.5.5 4.5-2.5zm-235 1 2.5.5-4 2 1 5-1.5.5-.5-5.5zm190 0 .5 1.5-1 11h1l.5-4.5 1 8 2.5.5-4.5.5.5-1.5-1.5-2.5-1 4-.5-4.5zm-127 1 1.5.5 1 2v2l1 9v2l-1.5 6.5.5-1.5-.5-1.5-2.5-1.5 3-1-1.5-3.5-1 3-.5-12.5v-2zm9 7 1.5 4.5-1.5 5.5zm143 1 1.5.5-.5 2.5-1.5.5-1.5 2.5-1.5.5.5 1.5 1.5-.5-3.5 2.5.5-1.5-.5-4.5-2 3-.5-2.5 4.5-2.5 1.5.5zm-124 1 2 7 1.5.5 1 8h-1l-.5-1.5-1 5zm115 4 .5 2.5-.5 1.5-1.5.5.5 2.5 3-2 .5 2.5-.5 1.5-2-1-1.5.5-1-5 .5-2.5zm70 2 2.5.5-6.5 5.5 1-4zm-83 3-.5 1.5-1 7 .5 1.5-1.5-.5-.5-4.5-1 5-.5-7.5 2-1 .5 3.5zm-164 2 1.5 2.5-1.5 2.5-2.5-.5.5-2.5 1 2 .5-2.5zm147 1 1.5.5-2 1 2 1-1 2 3.5 4.5q1.8-3.7 3.5-.5l-.5 1.5-1-2-2 3-4 1-1-3-1 2-1.5.5 2 1-5.5 1.5-.5-1.5 1-2-3-2 .5-5.5 1 6 2-3 2 5 1.5-2.5-1-4 1.5-3.5zm-112 3 4.5 1.5-1.5 3.5-1.5-.5-.5-3.5-.5 5.5.5 1.5q-3.4-1.9-1-8Zm101 1 .5 5.5h-1l-.5-1.5-1 3-.5-2.5zm-10 1 2.5.5 1 2v2l1 2-5.5 1.5-1.5-6.5h1l1.5 3.5.5-2.5z"/><path fill="#98968d" stroke="#98968d" d="m529.5 600 3.5.5-4 1-.5 5.5-6.5-1.5-1-3 2.5-1.5-.5 1.5.5 3.5 3.5-.5-1-4zm6 0 .5 1.5-1 3 3 1-.5 1.5-2.5-.5-.5-1.5-1 3-.5-3.5zm-56 1 3.5 1.5-1.5 4.5-3 1-3-2-1 3-2.5-1.5 5.5-3.5 1 3 .5-2.5zm6 1 1.5.5-2 1 .5 2.5 2.5-1.5.5-1.5 3.5 2.5v2l-.5 1.5-2.5-.5-.5-1.5-1 2-1-2-2.5-1.5zm-84 3 2 7 1-3 .5 3.5-2 6 2.5-1.5 2-1-1 2-8 5 1.5-2.5 1-3v-2l1-9zm93 0 7.5 2.5-.5 1.5-2-1-1 2-1.5-.5-.5-1.5-1.5-.5zm76 2-.5 1.5-4.5 7.5-2.5-.5 3-2 2.5-5.5zm-57 1 2.5.5-2 1 3.5 1.5 1-2-1.5-.5 1.5-.5 5.5 1.5-1.5 3.5-2-1-2 1-5-2-1.5.5zm14 1h2l2 1 2-1 .5 1.5-4.5 1.5-2-1-1.5.5zm-131 1 1.5.5-.5 8.5-1.5-.5 1 3-.5 2.5-3.5 2.5 2.5.5 2.5-1.5-3.5 6.5-1-4-5.5 4.5.5 2.5 1-2 .5 1.5-2.5 4.5-.5-4.5-.5-2.5-2.5.5-1.5 2.5-10.5 5.5 4.5 1.5 4-2 3.5.5-3.5 2.5-1.5-.5-1.5 2.5v-2l-7-2-3 6-1.5-.5 1-2-2-1 3.5-4.5 2-1v2l2.5-1.5.5-2.5v2l2.5-.5-1-2 1.5.5 4.5-1.5-.5-1.5-3 2v-1l9.5-5.5 2-5-1-6 1.5.5 1.5.5-1 6h1l1.5-2.5.5 1.5-1 2 2-1 1-3-1-2zm-4.5 16-1 2-2-1-2 4h3q6-2 2-5Zm161.5-15 3.5.5-4 1 2 1-3 2-.5-1.5-1.5-.5.5-1.5zm-136 7-5 6zm-11 1 2.5 1.5-.5 1.5-1.5.5 2 3-1.5-.5-1.5-.5 1-4h-2zm50 3 1.5 4.5-1 2 2 4-1.5.5-1-4-1.5.5 2-6zm56 1 10.5.5-10.5.5zm-158 2-13 14zm151 1 10.5.5-10.5.5zm-138 3-2 3-1.5-.5-1 2-.5 2.5q-3.2-1.7.5-3.5l1.5-2.5zm117 0 1.5.5-2 1 .5 1.5 1.5-.5-1.5 2.5-1.5-.5v-2zm44 0 .5 3.5v2l-.5 2.5-1.5-3.5 1-3zm-126 4-3 4-3 2v-3l2-1 1.5.5.5-1.5zm-54 3q.8 5-7 10l-1.5-1.5zm12 0-3.5 4.5-2.5 3.5 1.5-2.5zm176 2 1 3 1.5-.5-1.5 3.5-2.5-4.5zm-74 7 1 3 1.5-.5-.5 4.5q-4-1.5-2-7Zm6 2 3.5 1.5 2.5 8.5 1.5-.5-1.5 2.5-2-3-1 2-.5-3.5h2l-1.5-2.5-2.5 1.5 2-5zm69 2 1.5.5-1 3-1 3v2l-.5 1.5-1.5-3.5 1-3zm-44 3 1.5 2.5-1.5 2.5-1.5-.5 1 3-2 1 1 2-19 65-3.5 6.5-1-2-1.5 2.5 3 1-2.5.5-.5-2.5-.5-4.5-1.5.5 2.5-1.5 1 2 6.5-16.5v-2l6-20-1.5-.5q-2.2 12.3-9 20l-.5-1.5 1.5-4.5 2.5-.5-2-1 2-1-1-2 2-1-1-2h2l-1-2h2l-1-3h2l-1-2 2-1-1-2h2l-1-2 3-6-1-2 11.5-23.5 1.5.5zm-182 2 4.5.5-.5 1.5 4.5.5-4.5.5-4-2-1 2-.5-1.5zm152 9 2.5.5 2 5h-1l-1.5-3.5-1.5.5-.5-1.5-1.5.5zm12 8 1.5.5v2l-1.5 3.5.5-1.5-.5-2.5-1.5.5zm-12 3 .5 2.5 1 2-2 1v-2l-.5-1.5-1.5.5zm63 9 .5 10.5h-1zm33 14 1.5 6.5-3 9 .5 1.5-3 1-2-3 3 2 2-11 1.5.5zm-106 3 .5 2.5-.5 1.5 1.5.5-2 1-3.5 8.5-.5-2.5 1.5-6.5 1.5-.5zm89 5 .5 3.5-1 2 2 11-3.5.5v-1l2.5-.5-1.5-9.5-1.5-.5zm-81 6 2.5 1.5-.5 2.5-1.5.5 1 2h-1l-1-2 1-3zm71 5 2.5 4.5-.5 2.5-1.5-.5 3 6-4-3 1-5-1-3zm-72 2-.5 1.5 1 2-4 3 .5-1.5 2.5-1.5-1-2zm60 0 .5 2.5h-2l1 2-1.5-.5-3.5-1.5 1.5-.5q2 3 4-2Zm-72 2 .5 5.5h-2l1.5 2.5 1.5-.5 1 6-1.5.5-3.5-8.5zm74 3 1 5 2-1q3 1.5 0 3l-3.5-2.5zm31 0 3 1q1.7-2.8 3.5 1.5l-1.5.5-1-2-2 1zm-3 6 2.5 1.5.5 3.5 1-3 1 2 1.5-.5 2 7-.5 1.5 1.5.5 5 12-1.5-.5-3.5-2.5-.5-2.5-1.5.5v-2l-1.5-3.5-.5 2.5.5 1.5-2-7-1 3-.5-5.5 2-1-4-2-.5-1.5-1.5.5-2.5 5.5-1.5-2.5 1.5-3.5 1 2zm-96 3 2.5 5.5-2 1-.5-2.5-2 4-1.5-.5 1-3h-2l.5-1.5 3 1zm82 0 5 6zm29 5 7 9 2.5.5.5 1.5 1.5.5 6 7q-3-4.4-6-1l1-2-3-1zm-127 1 2.5.5-.5 1.5 1.5.5 1 3 1 3-2-1zm125 2 4.5 5.5-3 1 2 1 1 3 1 3-2-1-4-9zm-106 8 .5 1.5-1 2h2l1 2-1.5-.5-2 1v-2l-1.5-.5zm133 4 1 2 1-1 7 7 2.5 1.5.5 1.5 6.5 3.5-.5 1.5-13.5-10.5-.5-1.5h-2l-2.5-1.5zm-126 2 1 5 1.5-.5-1.5 5.5-1-3-1.5-.5zm108 2 5.5 4.5-1.5-.5-1.5.5 2.5 3.5q2.3-3.2 4.5 2.5l-1.5.5-5.5-4.5-1-2zm-9 1 2.5.5q-2.7 1.8 1.5 3.5l1.5-.5-1.5-2.5 3.5 2.5-2 1 .5 1.5zm-96 4 1.5 6.5h-1l-.5-2.5-1 2-.5-1.5zm109 6 2 3 1.5-.5.5 3.5zm21 0 3.5 2.5q-2.8 1.8 1.5 3.5l2.5 1.5-.5 1.5-6-8zm-130 2 1 2 1-2 .5 1.5v2l-1.5 2.5-.5-2.5zm114 1 5 6-4.5-2.5zm12 1 2 4 2.5 1.5-1.5-.5-3.5-2.5zm-7 1 3.5 2.5.5 1.5 2.5.5q-3.2 2.3 2.5 4.5l2-1 1 3 2.5 1.5-1.5-.5-8-6-1.5.5 1-1zm-117 4 1.5.5q-1.2 6.7 2 9v2l-.5 1.5-1.5-3.5-1-3zm131 3 4.5 6.5-2-1zm-9 4 2.5 1.5-1 1 3.5 4.5zm-5 2 5 6zm38 0 7.5 5.5.5 1.5h2l1.5.5-2 1 2 1-1.5.5-9.5-6.5zm-24 3 5 6zm-110 1 2.5 3.5h-2l1 2-2-1-1-2h2zm108 1 5 6zm10 0 3.5 2.5-2 1 2.5.5 4.5 3.5 3 7-1.5.5-1-4-1 2-2-3 2.5-.5-2-1q2.8-1.8-1.5-3.5l-2 1zm-133 2 2 4 2-1-2 3zm120 1 5 6zm42 0 5.5 2.5-1 2 3.5.5v-2l1.5 2.5-4.5 2.5-2.5-1.5 2-1-3-2-.5-2.5zm-49 3 8 9zm17 0 3.5 1.5 4 5-2.5-1.5-1.5-.5-.5-1.5zm-124 6 .5 2.5v2l1 3-1.5.5-2.5-6.5h1l.5 1.5zm-6 3 2.5 3.5-1 2 2 1-2.5.5-1.5-3.5 1-2h-2zm211 0 2.5 1.5-1.5-.5-1.5.5 1.5 6.5 1.5-.5-1.5 3.5-3.5-9.5zm-34 2q3.3 6.5 6.5 2.5l-1.5 2.5zm-153 1 6.5 18.5-1.5.5-6.5-16.5zm132 2 8.5 7.5-.5 1.5-7-8-1 2zm-16 1 5 6zm-10 2 6 7zm35 1 3 2 1-2 .5 4.5h-1l-.5-1.5zm45 2 1 4 1-3 .5 2.5-1.5 4.5zm-207 1h2l1.5.5-.5 1.5 1.5.5-1 2 1 4-2 1 1-3zm205 8 2.5.5-6.5 12.5-.5-2.5zm-23 2 1.5.5-1.5 3.5-3.5.5zm-176 5-.5 1.5.5 1.5 1.5-.5-.5 4.5-2.5-4.5zm140 1 1.5 2.5-1 3-.5 1.5-1.5.5-.5 1.5-1.5-7.5zm19 3 1.5 3.5-4.5 5.5.5-1.5.5-1.5 1.5-.5 1-4zm-1 11 1.5.5-.5 2.5-1-2q-3.2 1.8.5 3.5l-3 3 1 4-1.5.5-.5-5.5 3-2q-4.3-2.2.5-4.5Zm12 0 .5 1.5-.5 1.5 1.5.5-1.5 2.5-1-3-1.5.5-.5 1.5-.5-1.5 3-2zm24 4-1 3 2-1-1 2-8 7zm-14 2 .5 1.5-7 6 2.5-4.5zm-127 1 3.5 9.5h-1zm136 1-5 6zm-46 1 .5 2.5-1.5 4.5-1.5-2.5h1l.5 1.5.5-3.5zm-148 2 2.5 1.5.5 2.5q1.7-2.7 3.5 1.5l-3 2 2 4-1.5-.5-4.5-1.5 1.5-2.5 1.5.5-1.5-6.5-2 1zm178 0-2 5-1.5-.5-1.5 2.5-4 2 .5-1.5.5-3.5 1 2zm-158 1 .5 1.5-.5 1.5 1.5.5 2 5-1.5 2.5-2.5-2.5-1-6zm182 0 1.5 3.5-3.5 4.5-5.5 2.5-1.5 2.5-1.5.5.5 1.5-1.5.5 2 4-4 1 .5 1.5-1.5-.5 5.5-11.5 6.5-4.5.5-1.5 1.5-.5zm-233 2 4.5.5-2 1-.5 2.5-4-2-14 5-3.5-1.5zm219 1v3l-4.5 1.5zm-180 2 3.5 2.5-3-1-.5 4.5-1.5-4.5zm127 1 1.5 2.5-4.5 2.5v-3l2.5-.5zm-70 1 13.5.5-13.5.5zm82 0 1.5.5-.5 3.5-1.5-.5 1-2-2 1-1 3 .5 1.5-1.5-2.5zm-98 2 12.5.5-12.5.5zm-71 2 1.5.5-4 2 .5 1.5-2.5.5.5 1.5q-4-2.5 2-5zm-60 5 3.5 1.5-3 1 2 1-2.5.5-4.5-2.5 2.5-.5 2 1zm247 0 2 5 8.5.5-8.5.5-2.5-1.5-.5 1.5-2-3 2 1zm-156 2 17.5 1.5-17.5.5zm171 0 1 2 6-2-1 2-6 1zm-133 1 17.5 1.5-17.5.5zm230 0 4.5.5-.5 1.5-2 1-5-1-3 1-34 3-4.5-1.5 3.5-.5 2 1 5-2 20-2 3 1zm-168 1 2.5.5q-2 3.5-9.5 1.5v-1zm-139 1 6 1 5-1v1l-6 1-2-1-3 1-1.5-.5zm74 1 5.5.5.5 1.5 1-2 2 1 2-1h2l2.5.5-6.5 1.5-1.5-.5-.5 1.5-2.5-.5-.5-1.5q-5 1-4-1Zm147 0 11.5.5-11.5.5z"/><path fill="#98968d" stroke="#98968d" d="M755.5 881v2l6-1v1l-7 1-2.5-1.5zm-236 1 1.5 2.5-6.5 2.5v-3l2 1 2.5-1.5zm167 0 7.5.5.5 2.5 9-1h2l2-1 1 2-13 2-1.5-.5 1 2-5.5.5 1-2 2.5-.5-2-1 2-1-.5-1.5q-7 1.5-6-1Zm-180 1 2.5.5-3 1 3.5 1.5 2.5-.5.5-1.5.5 3.5-9.5 2.5 1-2 3.5-1.5-6-1zm38 0 5.5.5.5 1.5h2l3-1 1.5.5.5-1.5 12.5 2.5-3 1 6 1-.5 2.5-14-2-2 1-12.5-1.5-.5-1.5-8 1-.5-1.5 5.5-1.5 5 1v-1zm-212 2 9 2 5-1h2l2 1 2.5.5-8.5 3.5v-1l1.5-.5-3.5-.5h-2l-5 1-2-1-2 1h-4l-5.5-1.5 1.5-2.5zm139 0 3 2 6-2 8.5.5 1 4h-1l-.5-1.5-7-1-3 1-13 2-3 3v-2l-24 2v-1l10-2 1.5.5.5-1.5 4-1h2l4-1 1 2 1-3 5 1zm165 0 .5 2.5v2l-1 2 1.5.5q5.8-2.2 2.5-4.5l.5-2.5 1.5 3.5.5 2.5 10-2v1l-8.5 1.5 4 1-5.5.5-4-1-6.5 2.5.5 1.5 2-1 1.5.5.5-1.5 1.5.5-.5 1.5 9-1 3.5 1.5-2.5 1.5-2-1-4 1-3-1-7 2-2-1-2 1-2-1v2q-6.5 1.5-8-2l-4 1v-1l13.5-3.5-.5-2.5-20 1v-1l18.5-.5-1-2 1.5-.5 1.5.5.5-1.5 8.5-.5zm36 0 12.5 1.5-5.5.5-7-1-1 3-8.5-.5 6.5-1.5 1.5.5zm-305 1 6 1 1.5-.5 1 4-1.5.5-1-2-2 1-1.5-.5-.5 1.5-10 2-1-2-3.5-1.5 1.5-.5 7 1-1-3zm230 0 4 1 1.5-.5-1.5 2.5-4 2 .5-1.5 1-2zm-72 1 3.5.5-6 2 2 1-8.5 2.5v-2l-4 2-5-1v1l3.5.5 1 2-2.5-1.5-6 1v-1l2.5-.5 1.5-2.5 4-1 1 2 1.5-.5.5-1.5 7-2h2z"/><path fill="#98968d" stroke="#98968d" d="M611.5 887v2l6-1 1 2h-2l-9 1-4.5-.5 4.5-1.5 2 1v-2zm-180 1 6.5.5-.5 1.5-12 3-7.5-1.5 8-1 .5-1.5zm97 1 5 2 1.5-.5.5 1.5 1.5-.5-2.5 1.5-3 1-3.5-.5 1-3zm23 1 7 1 2-1 2 1 3-1 3.5 1.5-6 1 .5 1.5-18.5-2.5zm33 0 5 1h2l3 1 1.5-.5-3.5 2.5-9.5-1.5zm73 0 20 1 4-1h2l3 1 2-1 9.5 2.5-16.5.5-19 3v-1l6.5-2.5-2.5-.5-2 1v-1l1.5-.5-8.5-.5zm-76 1 .5 2.5-1.5-.5-2.5 1.5 7 1-6.5.5q-3.5-2 1-4zm-150 3 9 3h2l3 1 2-1 14 4h2l5.5.5-10.5 2.5v-1l1.5-.5-3.5-1.5h-2l-16-3h-2l-10.5-1.5zm225 0 2.5.5-3 1 4 1-5.5.5-2.5-.5.5-1.5zm-359 1 1.5.5-6.5 3.5-1-2 2 1 1-2zm79 0 5.5.5-4.5 2.5-6.5-1.5zm26 0 3 2 4-1v1l-7 2-5-2-6 1v-1l7-1h2zm184 3 11 2 1.5-.5-5.5 1.5h-2l-4 1-2-1-4 1h-2l-1.5-.5.5-1.5 2-1 3 2 3.5-1.5zm-17 2 4 1 3-1 .5 1.5-5.5 1.5-3.5-1.5zm-283 1 9.5 1.5-8.5.5zm89 0-1 3 4.5.5-4.5.5q-3.5-2 1-4Zm186 0h2l3.5.5-.5 1.5-25 3-2-1-36 2h-2l-14 1-3-1-30 6h-2l-3 1h-2l-15.5 4.5 1.5 2.5-4-1-2 1-3.5-1.5 1.5-2.5h2l48.5-11.5-4-2 2-1 .5 1.5 5 1 3-1 9 1 14-2v2l2-1 4 1 2-1 2 1 5-1h2l17-1h2q12.2 1.2 20-2Zm76 0 4.5 1.5-1.5 2.5-3.5-.5 4-1-.5-1.5zm-33 4q13.6-2.1 21.5 1.5l-9.5.5-2-1-3 1-7-1z"/></svg>