<svg xmlns="http://www.w3.org/2000/svg" viewBox="0 0 1024 1024"><path fill="#181716" stroke="#181716" d="m445.5 110 5.5.5 1 2-1.5 2.5-2-3-1.5.5 2.5 3.5 2 1q6.6-6.4 21-5l3.5 2.5 1.5 6.5 9 3 20-5 1.5 2.5-5.5.5-12.5 8.5.5 1.5 16.5 3.5-.5 1.5-29 5-4.5-2.5-1.5-6.5-6-1-13.5 7.5v4l2 18v2l1.5 4.5 17 4 .5-6.5-1-3q1.5-3 3 0l1 7-1 2q5 6 16.5 5.5l.5-1.5v-2l-1-7q1.5-3 3 0l.5 11.5 13 2 .5-6.5-1-2 2.5-1.5 1 10 11 2 2-8 1.5 6.5q-2.8 1.8 1.5 3.5l11 1 .5-2.5 1-16-1.5-6.5-2 1h-2l-1.5-.5-1-9 2.5-4.5 6 2 3.5-1.5q1.3-10.2-2-16l6.5-3.5 3 1 2.5 1.5.5 14.5 1.5.5-3.5 2.5-1-2-2 3-13.5 3.5.5 5.5 5-2h2l15.5-3.5-.5-7.5-1.5-.5q4.1-2.4 2.5-10.5l7-1 3 13 11.5 3.5-1 6 1 4-3.5 1.5-1-2-1.5 3.5v2l1.5 19.5 19.5-1.5.5-2.5 1.5.5.5 2.5 4.5 1.5-1 2 3 5v7l3 8 2.5 2.5 5-2 3 1 4.5-2.5 1-16-2-12 1-3-2.5-.5-2.5-.5v-3l11.5-17.5 1.5.5-1 2 10.5 15.5 1.5.5-1.5 2.5-2-1-3.5 1.5-1 2v2l1 32-3 1-2.5 4.5-13.5 3.5 13.5 25.5 5-1 2 1 5-1 5.5 2.5 1.5 5.5 9-1 2.5-2.5 1-12-2-6 4-2-.5-1.5-9.5-2.5 15.5-18.5 2.5 1.5 8.5 14.5 3.5.5-1.5 2.5q-7.2-.7-9.5 3.5l4 2q-3.2 7.8-2 20l-3.5 12.5-3-1-16.5 5.5-1 14 11.5 15.5 2-1 21 23 2-1 .5 2.5 7 11-1.5 3.5q.7-10.2-6-13l-1.5-.5-7.5-8.5-.5 2.5q6.5 3.5-1 7l-2.5 4.5-6 1-4-1-5.5 2.5.5 1.5q18.5 13.5 44.5 19.5l-2.5 7.5-6-2-1.5 36.5 2.5.5 2-1 .5 3.5-5 3v30l1.5 1.5 1.5.5-1 3 2 3-2.5 4.5-2.5.5-.5 2.5-1-3q-18.7 2.3-32.5 9.5l1.5 5.5 1-3 1 2 11-2-1 2-16 3-1.5-.5 1 3-2.5.5-1-3-13 5-3-1-9.5 2.5 5 1-17 18 1.5.5 18.5-10.5 1.5-2.5 1.5.5-3.5 6.5-1.5.5-13 17q2.8 1.8-1.5 3.5l-1.5-.5 16-21-1.5-.5-23.5 13.5-1 12 1 4-1 6 16 71 6 49 3 9 12.5 18.5 3.5 2.5 2.5 3.5q22.2 9.8 38.5 25.5l2 3-1.5.5-5-6-1.5.5 9 12 16 37 36.5 50.5 10 9 21.5 12.5 3.5 10.5 1-2 .5 3.5-6 15-10 15-5 20 1 5-4 12 19.5.5 1.5-.5-.5 2.5-14.5 1.5.5 1.5 16-1v1l-6 1-2.5.5 4.5 1.5 1.5-.5-12.5 2.5-1-2-4.5.5.5 1.5-5 1h-2l-4 1-1-2-18 4-4-3-4 2-6-2-7 1-5-3-7 1-18.5-1.5 5.5-1.5 9 1-1.5-2.5-2-6 3.5-4.5 9-1q2.3-5.2 10-5l5.5-5.5 3-12-.5-1.5 1.5-.5-1-3 6-16v-9l-3.5-8.5-1.5.5v-2q-3.9-18.6-15.5-29.5l-1.5-.5-.5-2.5-1.5.5-4.5-8.5-1 1-4.5-4.5h2l-4.5-5.5-1.5.5 1-2-3-1-1.5-2.5-1.5-.5-2.5-4.5-3.5-2.5-3.5-4.5-8.5-7.5-6.5-7.5-14.5-13.5-2.5-3.5-1.5-.5-7.5-8.5-2.5-1.5.5-1.5-4.5-1.5-.5-2.5-2 1-11.5-9.5-.5-1.5-2 1-5.5-3.5 1.5.5 1.5-.5-17-9 .5-2.5 6 4 .5-1.5-4-3-8-17-2-13-25-44-17-49-26.5-58.5-4 2-1-2-4 6-1.5-.5 1-2-2 1-4 8 2-1 .5-1.5.5 1.5-6.5 10.5-.5-1.5 1-2-2 1-33.5 55.5-1.5.5q-10.6 22.4-25.5 40.5l-.5-1.5 15-23-6 5-14 19-20 35-5 19-3 40-5 17h1l.5-1.5.5 5.5-3 2-18.5 34.5-1.5.5-10 20v6q-9.8 18.2-13.5 42.5l-.5-4.5 5-17-2 1-13 41 1 5-1 19-7 14 2 1-.5 1.5-29 2-3-1-12 2v-2l-23 2-3 1-1.5-.5.5-1.5 10-2h2l16-2h2l11-1h2l1.5-.5-28.5-17.5-28-4-3-2-1.5.5.5-1.5-9.5-5.5-2.5-3.5q-8.6 1.1-10.5-4.5l-.5-1.5q-5.5 1-6.5-2.5l-2-7 1-4-1-4 1.5-2.5 5.5-1.5 2.5-5.5 4-1 7.5 4.5 4.5 5.5 10 1q3.3 5.7 12 6l35-5 9.5-6.5q12.8-20.2 20-46l11-50-1-3 7-29v-2l4-11v-2l5-26 2-31 15-20 17-43h-2l14-33 31.5-61.5 2.5-1.5 1-2q-8-4-21.5-2.5l-2 1q-9.2-3.3-23-2l-1 3-1.5-4.5 1.5-6.5 1 6 3-1 2.5-.5 1-5-6.5-1.5h-2l-11.5-2.5 4.5-1.5 11 3h2l2.5-.5-1-9v-2l1-2-1-2 1-14-2-16h1l1.5 12.5 2.5-23.5-1.5-.5-3.5 2.5-.5 3.5-1-2-10.5 6.5-.5 2.5-2-1q-8 2.9-9.5 12.5l2.5 3.5 4.5 2.5-1.5.5-6.5-5.5q.2-9.8 7.5-12.5l4.5-3.5.5-2.5 1 2 11.5-8.5-1-5h1l.5 4.5 3.5-1.5 1-9-1-2v-2q.1-28.6-6.5-50.5l-3 1-13-1-4 7-1.5-.5 2-6-3-1-.5-1.5q-5.7.8-6.5-3.5v-3l21.5-30.5 2.5-1.5 18-31-2-1-2-12 1-9-3-3-5.5-14.5-4.5 2.5 2 7-1.5.5-3-5-3.5 2.5 3-6-3-7 1.5-.5 4 7 4.5-3.5-3-8 1.5-.5 4 7 6.5-3.5-3-8q1.5-3 3 0l2.5 6.5 6.5-2.5-2-6 1.5-.5 3 6 1.5.5-1 4 1 3h-1l-2.5-5.5-6.5 3.5 3 7-1.5.5-4-7-6.5 4.5 5.5 11.5 9-1 3 13 1.5-.5 26-52 4-14-1-8 1.5-2.5 4-1 3 1 1.5-6.5-1-2 1-6-4-36-3-6zm20.5 3-10 3-1 3-2-1-1 17h2l1-6 1 5 12-4 6 1v-15zm-18 6 2 22h1l-1-20zm50 3-9 3-12-2-1 6v2l-1 2 1 2-1 3 7 3 17-5-11-3-2-2 13-7v-1zm48 9v16l3-1-2-8 2-6zm16 16-1 5h2l1-2 1 3h1l-1-6-1 2-1-1zm6 2-1 5h3l1-2v3h2l1-2 2 3 1-3-4-3-2 1zm-17 8-9 4 2 7 2-1 1 1h-1l-3 3v14l5 1h8l-1-7 1-3-1-2v-14l-9 3h-2l11-4v-1zm8 0v8-1l2-1 1-2h1l-1 4h-2l1 3h-3l1 5 3-5h1l-2 3 1 3-4 13h3l2-3-1 2 3 1 1-4 2-1v3l1 2 1-5-2-1 2-4-2-1 1-8v-2l1-5-2-1-2 5h-2l2-4-4-3-2 3h-1l2-3zm69 3-6 10h6l3 1h2l-1-4zm-177 13-5 12v2l3 1v-1l5-2 2 8h2q24 51 54 96l1 1-14-21-2-1 41 67 7-1-55-89 1-2-1-1-4-4 2-1-4-8-1-1v2l-2-1 1-2-25-43v-2l3 5h1l-7-14-1 2zm174 0v5l7-1-1-2zm-164 2 3 9 2-1 3 1h2l6 2 5-1 4 1h2l-1-3zm167 6-3 2 1 10h4l-1-6 1-4zm-138 1v4l8 2 4-1 4 2 2-1-1-2zm21 3-1 4h7l1 2 9-1 3 2-10 1 2 3-1 2 2-1 2 1 1 4-1 1-1-1-3-2 1 5h-1l-4-12q-2-5-3-2l-8-1-4 1 5 10h-1l-3-1 1 5h-1l-4-13-6-3h-2l-6 1 16 29 6 4 1 2 6-3 3 10 4 4-3-1-1-1q-2-5-3-2l-1-4-8-3-6-7-1-1-1 4q-1 3-3 0l1-4-5-11h2v-1l-3-2-3 6-7-1-2 1 7 12 5 4v1l-2-1-1-1-3-2 8 15 4 1 2-5-1-8-4 2v-1l-2-1 3-2v2l3-2 1 3h2l3 8 2-1v3l-3-4-1-1-2 7h3v1l-4-1-4 3 6 10 5 2q4-3 2-12l-4-2 2-1 2-3 1 2 6-1-1-1 2-1v4l-5 2 1 3v2l3 1-1 2 5 5-4-3-4-5-2 8-6 2 9 14 2-1 2-4-2-9 2-1 4 8 8 5 3-1v-1l2-1-2-8 3-1 1 3h2l3 4 3-10v-4l-1-23-12-18 2-1 1 3h3l2-5v-2l1-2-2-7-3-1 1-2 14 2v1l-2-1-7 2 7 11h-1l-1-2-1-1-2-2-1-1-2 10-1-1-1 2-2 1 3 7h2l2-6 9 1 2-3v2l3 1 12-1v-2l-1-1-9-10-3 9-2 1-4-1-1-2 6 1 1-1v-11l2-1 6 11 5 2 2 3h1l-1-2q4-4 2-13l-2-1 10-1v2h-1l-3-1-2 1 4 8 8 3 1-10-5-1 1-2 2 1 2-1 10 1v-1l-2-3-19-1-12 1h-2l-5-1-5 1-18-2h-2zm-44 1 6 16q1 5 8 4l2-6-3-12-5 1zm-21 1-38 77-39 63 4 2 45-77 30-61zm17 1 2 8h1zm163 6v4l-1 3 1 11h2l3-4-1-3-1-1-1-1 2-1v-6zm-37 1 1 6 7 4h-2l-1 1-6-6-3 8-6-1-6-7-3 10 1 2 21-5 4 1 25 49-2 3 7 5v1l-5-2-3-4-1-1h-2l-5 2q-1 6 3 7l8-3v2l-6 3 5 10 3 1 1 3h3l3-4 2 4 2-1 3 8 7 4 3-1h1l-1 2q-9 1-10-4l-2 1q-1 6 3 8h2l1 3 7 2 2-7 2 1-1 5 4 9 2 2-5-3-1 4 1 2 10-3 3 1h3l-26-36-2-1-5-1q-7-3-8-12l3-2-2 3 11 11h1l-19-33-2-2-6-6 1-2 2 5 3 2-23-44zm-131 14 1 6-1 7v2l-1 4v2l1 6-1 8 1 10q9-1 13 4v-12l-1-3 1-2-1-2 1-7-2-5-3-2 3 5v1l-4-5v-2zm210 1-11 14h2l1-2 2 3 14-1zm-80 1-23 6 4 2h-3l-5 6 1 3h3l3-1 1 1-4 1h-2l-2-4-9 6-1 2-1-1-1 2-4 3 2 7 4-2-1-1 3-2-1-1 11-6 2 5v1l-3-4-7 4-3 4-2 1-1 2h-2l-3 6h2v4h2l6-8 12-7q4-2 1-3l9-3v2l-1-1-12 9 3 1v1l-3-2-9 6 1 5 7-2-2 3h8l14-28h-2l3-1 5-12zm24 0 2 5 5-1-1-3zm-19 1-22 47h2l18-40 4-3-1-3zm-138 3-13 23 1 12-1 5q-1 5 2 7l-2 3 2 4 3-8q2-6 10-7v-4l-1-2 1-3-2-16 1-2zm104 1-7 2 3 1 9-2zm-1 3-5 1-4 5 2 3 6-1 5-7-2-1zm39 0 17 36h1l-17-35zm-53 1 1 6 4-5zm2 7-2 4 2 3 5-3v-1zm46 1-17 36 1 8v2l-1 2 3 22 28-3-1-38-3-2 1-3v2l2-1-1-2-1-1zm-119 5-1 21 4 20-1 20 3 2h-4l-1 3 5 1h-4l-1 17-2-15-10-1-2 4 1 3-1 3 1 5h-1l-1-13-1-2h-12l-1 6v2l1 7 2 1 15 1h24l-1-47 1-7-1-9-2-5-1 3 1 1-3-4h2zm191 2-2 4 1 2-1 2 1 2-1 7-5 3 3 7 7-3 3-8-1-4 2-7v-5l-4 1zm-259 3-5 3q-3 13 3 19l5-10-3-5 1-6zm35 5-10 16 1 3 1-2 3-2-5 7 1 8-1 2 1 7-1 2 2 32q2 3 11 1v-16l-2-1 2-3-4-2 4-2-2-20 1-2-2-14 1-3-1-4zm198 5-8 2 3 8 11 16 2 1q1-7-2-8l2-1q1-11-3-16zm-214 6-6 3 1 1 7-1 1-2-2 1zm230 0q-2 6 2 9h1zm-5 1 2 8h1l-1-7zm-117 2v3q1 7-3 9l2 4 9 7 4-2-1-8 1-4 8 10h3l-7-12-2-1-7-1v2h-1l-3-3-1-1zm-107 1-5 1h-2l-2 3-1 2 8-1 2-3zm33 0-4 2q-7 4-8 14-1 14 8 19h1l-5-12q-1-12 4-17l6-5 1 1v14l-2 2-5-1-1 3h7l2 7-1 6 2 2 2-1-1-1q-3-11 3-13l5 1h1l-1-4-2 1-2-1-2 1-3-3v-14zm30 0 2 10 1 1-2-2-2-1 1 33-1 6v2l1 11h11v-25l-1-2 1-4-1-4 1-2zm28 1-2 10h-1l-3 1 1 4h3l-1 2 14 21 3-1-3-13-2 1-7-3-1-1-1-3q1 6 10 5l2-3-2-10-3-1-4-4-1-1zm37 3-1 3 4 2v-2l2-1v7l3 6v-13q-2-4-8-2Zm14 0 1 8-2 2-1 11 7 13 2-1-2-24-2-1-1-1 3-1-3-4zm-140 3-9 14 1 2 3-6h1l-5 9v6h2l-2 3 1 5-1 2 2 16h10q1-15-2-24l1-2-1-4 1-2-2-16zm-11 1-3 1-3 5h8l2-4 2-1zm196 3-2 2 1 13h3l1-4-2-7 1-3zm-49 1v12h2v-11zm-16 2q1 7-3 9l5 7 6 4h3l5-4-5-9-2-2-1 2h-2zm-138 3-5 7 2-1 3 1 4-1 3-5-5-1zm122 0-1 4-1 3 4 9h2l-1 2 9 3 2-3-1-9zm86 4-2 7-1-1q-4 1-3 7h4v3l-2 1 2 4 3-5-3-5-1-3 2 1 2-1 2-1-2 3 2 4 6 3 3 1 3-1 2-4-3-8-4 2-6-2-1-2zm-210 5-4 1-2 3v1l8-1 2-3zm38 0v10l5-1zm56 0 1 34 3 1-37 1h-2l-59-2-1 2 2 1q31-1 58 2l2-1h2l30 3h22l-10-3h-27l35-1-1-3-1 2h-3l3-2-1-3v-2l-15-28zm46 3v3l-1 5 1 5 7 5h2l2 1 3-1v-1l2-1-3 5q-11 0-13-8l-2 11h-6l5-2 1-2-1-8-8-4-4-7-2 1 2 7-3 2-2 2 4 4-1 1h3l3 2 2 3-2-1-4-2 6 11q1 5 9 4l2-4-1-6 3-1 4 6 8 3 3-4 1 1-1 2v2l-1-1-1 4 9 6 7-1 1-3-1-5-13-11-1 5-2-5 4-2v2l12 7 3-5v-2l-6 2-1-5-3-3-9-16-1 2h-1l-1 2-3 2-5-1-5-5zm-131 1-5 8h-1l-4 10v2l1 2-1 5 10 1zm-13 2-6 4 3 1-3 1-1 2 8-2-2-1 5-3v-2l-2 1zm217 5v7l3 1v2l7 4 2-1 2-3-1-8-2 1q-9 2-11-3Zm-174 1-1 3h26v-2zm157 1-26 5 1 1 6-2 3 1 17-3 3-1zm-201 1-9 4h8l2-3zm202 3-2 3q2 5 5 2l1 1-2 1q1 4 9 3l2-3-1-5-2-2-4 2-1-1zm-9 1-10 3 1 2 4 2 9-3-1-3zm42 0-3 6 5 9 4 2 6-1-1-9q-8-2-11-7Zm-244 2-3 2 1 1 8-1v-1l-4-1zm187 0-3 2 2 4 4-1 1-4-2-1zm88 0 3 7h2v2h3zm-48 1-3 8 4 7-1-1q-3 2 0 3l12-1-2-8-4-3-1-1zm-216 1-4 7q-4 1 0 3l4-2zm196 1-10 4 5 3 5-2zm-204 1-8 3h4l4-1zm190 1-3 8 3 1h-2l-2 2 8 7 10-1q1-8-3-10l-6 1h-4l6-2zm17 0-2 4-1 3 6 8 11-1-3-8-4-3-2 1-1-1zm-53 3v3l-1 6-4 3h2v2l10 6 5-1-3-10-5-4-3-4zm84 1v4q-3 1 2 3h5l-3-3-1-1zm-245 5-5 1-3 4h4l1-3 1 3 3-1 1-3zm267 2-9 2v1l16-2zm-13 2-50 8v1l51-7v-1zm-244 1v17l1 2 4-6-2-4-1-1-1-2 1-2v-2l2 1v-2zm184 0 1 6 5-1zm-174 1 2 7h2v2h2l3-5-2-3zm26 0-3 2-12 16-1-2-2 4-3 2-12 16-3 1 5 77 3-1 10 3 2-1 5 1q1 4 3 1l-2-21v-4l1-4v-2l-1-26v-2l-1-8-9-12-4-4-1-2 14-9 1-2-2 1-1-1 7-1v2l28 1 29-1 2 1-1 7-2 1 2 1-2 3 1 2 1-2 1 1-3 4 1 2v-1l2-1-2 3 2 4v4l-2-1-3 2 1 10-1 2v2l2 61 45 6 4-15-1-4 1-2-2-13 1-6-4-14 1-19-1-2 2-9v-24l-9-21q-2-5-3-2l-7-1-1 3-1-3-1 8-1-6-6-2-3 1 2 14 2-6 1 2 2-1 1 1-3 2-2 3h-2l-2-15-2-2-33-1h-2l-2 1-4-1h-2l-2-1-6 1h-2zm110 0 4 9h5l-4-3zm-140 1-3 4 2 4 4-3-1-3zm17 0-2 4 5 2 1-4zm142 0v6l6-1zm-39 2v6l1 3 4 12h1v-9l-5-11zm-106 3-5 5 1 2 3 2 4-4zm-10 1q-7 4-1 8l3-1 2-3zm237 2-2 3 2 4-1 3-1 3 2 4h1v-15zm11 1-1 2 18 10h1zm-245 4-3 3 2 4 6-4zm244 0-2 9 1 5v1h1zm-94 2-4 2-2 4h2v-1l4-1v-1l2-1v-1zm74 1v4l-1 4v2h-1l-1-3q-2-4-4 1l-4-2-1 3 1 3h-4l1-4-1-1-1-1 2-1v-2l-2-1-2 4v2l1 4-3 1v-1l-1-5-3 2 1 5h-3v-1l-1-5-2 1-2 3-2-2-2-1-2 3-4 2-2-3-3 1 1 4h-3l-1-3-3-1 4-3-1-3-5 3 1 3-1 2-4 1-4-2-4 2-1-2v-3l-3 2 1 3-2 3-4 3 1 2-4 2-1-2 2-1 3-4 1-2-7 2-2 5 2 1h-5l-2 4-1-2-2-1-3 6-3 2-5 9v2l1 2v2l1 8-1 5 3 1h-2v2l-1 3 1 4 3-2v2l-3 2v9l10 11 3-2q-1 15 6 23l4 1v-1l2-1 1 2 5-1 2-3 1 2 5-1h2l40-10-2-14 5-11 6 1 12-5v-5l-7 3-3-1-25 5-5-9 3-1-1-24v-2l-2-11 1-3-3-2 2-4 2 1q12-5 30-5l1 43 1-1 1-39 3-4-1-3 2-10zm24 1v10h1q2-8-1-10Zm-87 3-3 4h2l-1 2 1 2h2l-1-3 1-4zm5 0-2 2 1 2-1 2 2 2 2-1v-2l-2-1 2-1 1-2zm102 2-1 2 6 2h2zm-252 3-2 1-3 4 12-1h4l5 1 2-1 20 4v1l-11-2-2 1h-2l-4-2-2 1-2-1-24 1-2 3 38 2h16l2-2-5-1v-1l6 1 8-7-4-1h-2l-37-1-2 1-2-1-2 1zm214 2-6 10 1 4 9-1v-12zm-159 3-4 4 3 8h1zm185 1-13 3q-4 13-2 31l28 3h6l-1-31-1-6-5 2-1-2-1 3-13 5-6-1v-1l3 1q10-1 15-6zm22 0-3 4 1 5v2l1 2-1 4 1 2-1 3 2 15v-4l1-2-1-3 1-27zm-63 4v31l-1 2 2 7 1-1v-33l-1-5zm-199 3-2 3v2l3 79-1 2 1 14 2 1h2l-2-55v-2l1-4-1-19v-2l-3-5 3-12zm108 0-1 14 2 1 2-4zm-85 1-3 1 1 3-1-1-10 1 1 4 1-2 12-1h2q8 2 12-2h2l1 1-2 1 1 2h-22l-2 3q-1 17 2 31v7l-4-33v-2l1-4-2-2-4 3 3 78-1 13 2 1h18l11 3h4l-1-51 1-4-2-36-7-1 2-1h2l2-1 1 1-1-10-4-1h-2l-6 1 1 2h-4l-1-2zm25 1-1 4v2l-1 2 1 20v2l1 3v4l-1 3 2 34-1 8 1 4-1 3 1 4-1 5 3 11h2l-2-64 1-2-1-38-2-4zm161 2v7l6-1 1-5 1 1-1 2 1 2h2v-6l-8 1zm-24 1-2 8 1 2-8 3 2 4 4-2v2h2l-1-1 3 1 2-4-1-4v-2l-1-6zm24 7-2 9h2l2-4 1 4 8-1-1-7zm-203 2v75l2 6 1-16-1-3 1-9-1-2v-2l1-8-1-11v-2l-1-16v-2zm99 1-2 4 1 25 2 1zm108 7-5 1-2 4 2 4 12-2v-6zm-159 2-1 19h1zm173 5-2 3v2l1 2 28-4-16-2-7 1zm-11 2-8 2-2 5h6l-2 3 1 2 8-1h2l-1-10-1 2h-1l-1-2zm31 3-20 4v1l24-4zm10 2-6 3 3 27 5 1v-30zm5 0-1 11h1zm-14 2-7 3 4 24 1-5 1 6h5l-2-27zm-56 2-13 3 1 2 16-4zm43 0-3 2 2 22 4 1h3l-2-24-1-1-1 18-1-16zm-34 1-21 6 2 2 19-4 3-2zm27 1-2 2v19l4 1h1l-1-21zm-7 1-9 4 2 4 4-1h3zm-167 1v57l2 1v-16zm-82 6-2 4q-2 14 2 23h1v-22zm245 2-9 3 1 5 9-1zm-12 3-8 3-2 3-1-1-1-1-1 3v1l15-2-1-5zm15 5-1 2-3-1-2 4-2-3-9 3 1 4 14-3-1-2 2-1v3h2v-5zm-21 4-8 3 1 4 8-1 1-5zm29 2-2 2 2 6v1l4-1-1-7zm-118 1-1 9h2l2-4-2-1 1-2zm111 0-11 5 2 3 5-1 2-3 1 2h2zm15 0 2 7 5-2-1-3-4-2zm-28 3-9 3 2 4 7-1 2-5zm50 1-29 9 1 1 25-6h2l4-1v-2zm-62 2-5 2 2 4 6-1-1-4zm-78 3-3 2 1 2-1 2 1 1 4-1zm102 0-9 3 3 3 5-1v2l-1-1-3 1-1 2h3v3l5-1 1-2-1-3-2-1 2-1-1-3zm-12 3-4 2 1 3h2l-1 2 2 4 6-1-1-5-2 1h-3l4-2v-1l-1-1-1-1zm-236 1v14h2v-13zm5 0-2 2 2 5v-1h1l-1 4h2v2l6 3v2h4l4 2 1-3h1l-1 3 3 1h2l-1-5 1-3-1-3v-2l1-3-2-1-9-1-1 3-1-2-6-2-1 3zm222 1-2 1-3 5 2 7 9-3-3-8zm-9 2-6 2-3 4 1 3v1l-1-2-4 6 1 1 2-1 1-3 1 3 4-1q5-4 6-12zm-70 1-9 2-1 2 1 2 10-3zm61 1-11 4 6 6 5-8zm-60 4-2 1-1 2-1 3 1 1 9-2-1-1-1-1zm44 0-13 4 3 6 6-7 4 2 2-4zm-188 1-1 5 6 1zm134 1v7l3-1h2l1-5-3-1-1 3zm58 0-3 7 2 3 6-2zm-111 2-1 3v2l1 5h2v2l7 4 1-3h1l-2 4 21 4h6l-1-2-3-3-3-3v-2l2 1 3 2-1 2 4 2 1 4 7 2 1-4v3h2v-15l-20-5-4 1 1 3 1 1-2-2-6-4zm86 1-3 2q-1 7 3 11l10-3-3-7q-1-4-7-3Zm17 0-5 8 1 2 9-2-3-6zm-31 3-3 1h-2l-6 2-1 2-1-1-7 3 4 12 3-1 2-3 1 2 19-6-1-5-4 1-2 1 2-4-1-3-4 5h-1l-1 2v2l-2 4-1-3-9 4-2-2 1-3 2 3 4-1 5-6-1-2 2-1 1 3 4-5zm68 6q-11 2-17 9l1 3-1-1-3 4 1 6 6-4 7-8 4-5-5 3h-4l13-6zm-139 2-2 4 4 2h6zm-26 1 2 2 9 2h3zm-12 13q-3 2 0 3l2-1-1 2h3v-1zm-15 1-8 13 8 1v1l-9-1-20 39-1 3-4 5-11 28 1 2-1-1-2 4 1 2h-2l1 3h-1q-4 19-12 34h4q5 5 5 15 2 3 3 0l-4-11 1-3q5 3 4 13l5-1 3-5-2-5 1-4 2 6h2l1-2 2-1 3-5 2-1-2 3 1 1 15-31 2-1-20 42-6 6h-4l-8 11 3 12v1l-4-7 1-10 5-6-6 1-3-13-3-4-3 1-8 12h-1l6-9-1-1-10 14-3 19 1 6 5 1 7-1 6-11h1l-1 4 5 1h-1l-2 4-3 2-1 2-2 1-8 16h-2l6-10v-2l-6 2-3-1-4 31h-1l1-4v-8l-12 32-3 24-9 40-10 33-5 10 1 2-4 7h-1l-1 2h-1l-1 2-12 10-2 1 3-2 3-4-43 5-8-3-2-2-16-6-2-2-1-3q-2-4-5 2l2 9h2l2 4 5 1h2l2 1 2-1q3 2-1 4l1 3h2q1-4 3 0l-2 4 7 3-1 2 7 4 21-5 3 1-6 2 1 1 10-2 2 1-5 2 5 2 2-1 7 3h-1l-1 2 3 1-3 4h2l3-5 2 5-1-1-4 2 12 6v2l8 4 4-1 1-3 2-1-3 6h5q6-6 7-18l-1-3 1-5-1-3 1-6-1-1-1 2-11 9-5-1-1-1-1-3 6 4 3-4-2 1-2-1-4-4 1-7 1 7 6 2 5-5-1-1 2-2v-11q6-13 7-29l6-17h1l-8 28 1 3q9-16 13-38l2-1h1l-8 24 1 3 9-19v-4l8-12v-2l-4 6-1-1h-1l-1-2-2-1 4-5v-2l-2 1-1-2 4-3-3-1 1-7v5h2l4-27 1 1q1 8-3 11l1 13 1-1 1-12 2 9 1-21 1 4-1 4 1 10 1-3 2-1-2 5h2q12-11 19-27l6-32v-24l-3 6-1 3h-1q-2-3-4 2h-2q6-3 6-12l-1-1-5 4 6-12 3-1 9-16h-1v-1l-1-2h2v-2l2-3-1 2 1 1 11-20h2l5-6-1-2h2q24-25 41-58l-2-1 1-3 2 3 1-3v-2l2-10-1-1-2 5-3 2 1-2-1-2 2-4 1 2 1-7-1-1-1-2 2-1 4 12 1-7h-2l1-3h-2l1-3-1-1-4-9-2 4 1 1-2-1-6 9v2h-2l-2 6h-1l-4 8h-1l-8 13h-2l9-16 2-1 9-18 3-2 1-2-1-4 1-2 1 2 2-1-10-23-4 1 9 18h-1l-13-24 2-1-4-3-3 2 1 2-1-1-2 3 1 1-2-1v-1l-1-2h2l2-4zm27 4 2 7 2 1zm-11 1 3 6 3-1-1-2zm4 7v3l7 6-4-8zm6 0 5 12h1l-4-10zm54 1 3 13h1zm79 0-1 3-3-2-1 3 3 1h3l-1-2zm-122 1 4 15 2 1zm57 0-2 3h3l-1 7h2l1-3-1-5zm19 0-2 1-1 3-2 1 1 4 4-7zm32 1-1 2 8 3h2l-5-5-2 1zm-27 2-1 2-4 3 1 1 3-1 3-4zm11 0-2 1-1 2 2 1-9 3-1-2-1 3-3 4h-2l-2 3q5 22 15 41v1l-12-25-3-12-2-2-1-2-2-11-3 5 2 5v2l10 32v4l-8-25-1-1v-1l-3-10-3 6-4-9h-1l3 13h2l-1 2 3 6-1 2 6 16h1l-1-4 2-1 1 3-1 4 1 3 2-1-1 2 5 16 2 1-1 2 16 34q5 2 2 4l1 2h2v3h2l-1 2h2v4l-13-22h-1q9 23 23 42l2 1-3-7 2-1 1 5 3 1v4l3 2-2 6 1 3v7l4 10 8 4 1-2 2 1h-1l-1 2 5 2 9-6v2q-3 4-10 5l1 2 10-3v2q2 3 3 0l-8-20h-1l1 3-1 8-2 1 2-4-2-10q-5-2-2-4l-1-2 1-2 9 14 5 13v5l-3 1-1 2 7-2-2-12-4-4 1-2 7 10h-2l2 6 2-3 1 4-3 1 1 3 3 2-1-4 2 1-1 5h2l-4 6q2 4 4 1v3l5 1v2l5 3v2l4 4-1 1h3l1 3 4 2-1 2h2v2l3 1v2l-2-1-11-12h-1l-1-2h-1l-1-2-1-1-1-1h-1l-1-1-8-8-1 3h2l19 22 16 14 39 42 5 4 1-1-1 2 2 2 3-1 1 5-1 2 2-1 1 1-2 1 2 2 1-2 2 4-3-1 2 4h3l3 9h2l3 8 2-1v2h-1l-1 3-1-3-2 1 1 3h3l2 2-1 4-1-2-12 47-16 9 1 3-5 2-5-2-3 1 1 3q3 3 11 2l6-8 9-4 2-1-1 3-7 4-5 8 3 1 3-1 2-4 9-8 2 1-10 12h8v-2l8-10 1 1q-5 3-6 11l3 1 5-2-1-1 6-9 1 1-4 6 1 3h3l4-6h-2l3-2q2-5 4-2l4-4 1-22 5-13-1-2h2q8-10 12-24l-1-7-4-5-19-10-1 2 5 2 4 5 2 8q2 11-3 17h-1l3-9v-3l-3 1q-8 1-10-3l1-2 4 2 4-2-2-9-4-3q-22-21-37-48v-2l11 17 4 3-24-37-15-35-1 3-8-15q-12-16-33-22l-1 2-2-1 2-1v-1l-6-6-2 1 2 4 3 2-2 1 1 5v2l-13-18v-2l2 1 7 14 2 1-9-17h-1l-3-1 2-1 1 1-7-21-2-15 1-3-1-5v-2l1-3q-3-39-14-69l-2 4-3-5 2-1v-2l-2-1 2-3-5-5-2 1 1 2-1 2h2v1h-3l1-2-1-4-12-6-2 1v-1l-4-2 1-2 3 2 2-1v2l7 1v2l8 2v-2l-2-2-1 2-2-3-4-2v2l-2-2-16-9-7-1-2 3 14 5v2h-1l-3-1-9-3-2-3-1 2-1-1-3 2-1 2-2 1-4 5-1-2 2-1 2-3 8-6v-1l2-1 4-5zm13 1-2 3 16 6 1-2zm-8 1-2 3h4v2l22 9v-2l-14-8-6-1-1-1zm-108 3 1 8h2l1-2-2-4zm10 0-2 2 1 3-2 1h2l4 10 1-2-2-7-1-1v-1zm63 0-3 5 2 8h1zm-68 6v2l-1 2 2 7 3 1-1 2 2 4 2-3-6-14zm8 16-1 3h-2l1 5h2l1-4zm-71 92-1 2-4 2-3 6h3l2-5 1 2v-3l2-1 1-2zm-43 41-1 5h2l3 1 5-1 1-2 2-3-7 2h-2zm36 4-5 8 1 1 4-7zm222 22-3 2-7-1-1 2 3 1 10-2zm8 5-2 2 1 2-1-1-3 1q2 5 5 2l-1 2 4 1 1-2-3-6zm-247 58-7 9-4 4 1 1-3 4 1 1 12-17zm357 38 9 12h1zm-387 22-5 9-5 18v2l-2 1 3 1 9-28zm-8 12-10 26 2 2 1-9 2-1 5-14zm-121 16-2 2 5 7h1l-3-8zm0 10-1 3 8 2v-1l-6-2z"/><path fill="#181716" stroke="#181716" d="m585.5 134 1 3 1.5-.5-1 5 .5 1.5-1.5-.5zm-18 32 .5 2.5-1.5 7.5-1.5-.5 1-2v-2zm-61 36 4.5 2.5.5 1.5 5 2 1.5-.5-.5 1.5 2.5-1.5.5-1.5.5 1.5-5.5 2.5-2-1 3.5 4.5 2 4-1.5.5-2.5-1.5-1.5 4.5-4-17-2 1zm70 15 .5 2.5-2 5 1.5 3.5 2.5.5-2.5 1.5-3-6-1.5.5-.5 1.5-1.5-.5 4.5-7.5zm-58 2 12.5 5.5 4 9-2-1-.5-1.5-1.5.5-2.5 6.5-1.5.5 4.5 8.5 1.5.5 1.5 2.5 4.5 1.5-3.5.5-5.5-4.5-4.5-6.5q.4 8.9-4 13l-3.5-.5 4-2 2-6v-2l-3-6 2.5-.5q5.5 1 6.5-2.5 2-8.5-2.5-10.5l-3 1-3.5-2.5-.5-1.5zm176 32q8.7-1.2 11.5 3.5l-.5 1.5q-9-1.5-10.5 4.5l-1 9 3.5 4.5 8.5 1.5-2.5 3.5-11 1-5.5-3.5-4-11q1.5-8.5 7.5-12.5zm.5 3-2 1-7 10 2 8q1 5 8 4l1 1-6-9q0-11 6-14zm-108.5-2 8 1h2l2-1 1.5 1.5 1 13v2l-.5 20.5-17 2-1.5-23.5 1-3-2-10zm9.5 4-1 7v2l2 22 2-1-2-29zm68.5 24q10 2 14.5 9.5l1 7-4.5 5.5 2.5-3.5 1-7-5.5-6.5q-2.6-3.9-10-3l-2.5 1.5 1.5-2.5zm-153 25 2.5 4.5-1 8 .5 1.5-3.5-.5zm-166 11 1.5.5-2 1-2.5 5.5-.5-1.5zm138 13 1 3 1.5-.5.5-1.5.5 1.5-1.5 2.5-2.5-1.5-1-2zm179 2 9.5 5.5-1.5-.5zm-198 1 2.5 4.5-1.5 2.5 1.5.5-1.5.5q-3.2-1.7.5-3.5l-.5-2.5-1.5-.5zm9 0 2.5 1.5 1 3-3.5 2.5-.5-1.5 2-3zm22 4 .5 21.5h-1zm23 2 1.5 3.5-1.5 7.5-3.5-8.5h2zm190 12 3.5.5 1 3-6.5 9.5-2 1 5.5-6.5 1-4-3-2zm-102 4 .5 1.5-6.5 3.5-7-1-5 1v-1zm-24 9 1.5 2.5-2 3 1 5 1 24-1 4 1.5 8.5 4.5.5 1 6-5 2-1.5 2.5-14.5 2.5.5 1.5 3-1v1l-3 1-3-2-1 2-1.5-.5-.5-1.5-1 2-5 1h-2l-2.5-1.5.5-2.5 1.5-.5-.5-3.5-2.5.5 1 2-2-1-1-3 4-3-2-39-2-7 25.5-4.5 2 1zm-3.5 4-1 20v2l1 3-1 4 1 14h2v-23l-1-2 1-10-1-7zm-15 2v16q-2 4-9 4l2 3 6-1 2 4v15l1 2 2-1-1-4v-14l3-4 6 2v-7l-1-1-1 2-5 1-3-7 1-8zm10 42-17 4 1 1 18-4zm3 3-19 5 2 2 17-3h2l3-1 1-2zm-82.5-45 23 2 1.5 1.5-1 9 1.5 36.5 1.5.5 1 2-2 6 .5 1.5-14-2-2 1-12.5-3.5-1.5-4.5-1.5-.5.5-1.5 5.5-1.5-1-36-2-9zm2.5 4q-3 24 2 43h1l-2-42zm4 10v34l9 2 7-1v-3l-2 1-11-1-2-9v-2q-2-9 2-11l4 1q7 2 9-1l-1-2h-1l-12-1zm-5 36-1 4 21 2v-3zm-35.5-47 1.5 3.5v24h-1l-1.5-25.5-4.5 3.5 2.5-3.5zm-83 7 3.5 1.5 3 10h-1l-4.5-10.5-1.5.5zm-1 3 .5 10.5h-1zm297 21 1.5 8.5-1 2 1 6-1.5.5-.5-1.5 1-2zm-48 10 5.5 1.5-5 1-.5 1.5-1.5-.5zm-160 1 4.5 2.5 1 6-3.5 4.5-6.5-3.5q-1-6.5 2.5-8.5zm-49 4 1.5.5-3.5 6.5-1.5-3.5zm28 17 1 6 1-4 .5 10.5-1 3 1 3 1.5 3.5 9-2 2.5 1.5-1.5.5-4-1-9 4 .5-1.5q-3.2-10.2-1.5-23.5Zm-95 4 4.5 3.5-1.5 2.5-4.5-1.5zm160 6 21.5 2.5-5.5.5-16-2zm15 18 3.5 4.5-1.5.5-1-2-3 2 .5-1.5zm150 0 2.5.5-19 7-.5 11.5-1-12-3 1v-1zm-166 1-4 5-4.5 1.5 3-4-.5-1.5 3 2zm184 1 2.5 5.5-3.5 1.5-1.5-4.5zm-43 6 2.5.5-9.5 2.5v-1zm-14 11 1.5.5-12.5 19.5-.5-1.5 12-17zm7 4 2.5.5-9.5 15.5.5-1.5 7-13zm-254 9 3.5 1.5-1.5 5.5-3.5-1.5-1-3zm52 0 4.5 9.5-2-1zm202 23 .5 4.5-3.5 2.5-3.5-2.5 1.5-3.5zm-107 10 2.5.5-1 3 4 14h-1zm50 8 9.5 32.5-.5 1.5 1.5.5 1 3-2.5.5-3.5-10.5v-2l-5.5-21.5-1.5-.5zm-130 12 1.5.5-3 4 .5 1.5-3 2 1.5-2.5zm108 19 4.5 6.5-3-2zm32 8 4 11 1.5-.5-1 3 2 1 4 17-1 4h1l.5-1.5 1.5 4.5h-1l-.5-2.5-.5 12.5 2 24v2l3 7-2-1-.5-1.5-2 1-5-3-4 1q-3-1.5 0-3l4.5-.5-13-11-2-4 2 1 2.5 3.5 1-2 5 1 8 6 .5-13.5-2-24zm-2.5 64 8 5v-1zm9 6 1 5 4 3-1-5zm-191.5-50 1.5.5-15.5 16.5-3 2-.5-1.5 12-11zm-23 21 1.5.5 1.5 5.5 1.5.5-1.5 4.5zm223 10 1.5 9.5-1 2 1 2-2-1 1-6zm-234 4 3.5 10.5-1.5 2.5q.6-9.4-2-13Zm-2 14 .5 3.5-3.5 2.5-1.5-3.5 1.5.5 2.5-1.5zm-12 1 2.5 1.5 1.5 2.5 2.5.5-2.5.5zm250 0 6.5 16.5-2-1-5-10v-2zm-224 12-.5 1.5-3.5 6.5.5-1.5zm178 17 2.5 1.5 1 3-3.5 2.5-2.5-4.5zm82 14 8.5 15.5-3-2zm-10 4 .5 12.5h-1zm-3 3 .5 4.5v2l-.5 1.5-1.5-.5 1-4v-2zm16 5 5.5 7.5-3-2zm6 5 20 23 2-1 16.5 11.5-1.5.5q-15.6-6.4-25.5-18.5zm25 32 11 11 1.5-.5.5 2.5 2.5 1.5 6 9-3-2zm24 27 22.5 24.5-5-4-12.5-14.5-.5 1.5 7 10-2-1 .5-1.5-3.5-2.5zm-3 15 1.5.5 4 6-4-3zm41 48 6.5 8.5-6-5zm63 66q7.5-2 9.5 1.5l-9.5.5zm-505 8 2.5 1.5.5-1.5 1.5.5q-1.7 4.2-3.5 1.5l-5 1 1-2zm6 0 2 1 22-1 .5 1.5-1.5.5-14-1-2 1h-2l-5.5-.5z"/><path fill="#f7f7f6" stroke="#f7f7f6" d="M.5 0 1024 .5l-.5 1023.5L0 1023.5zM448 109l-4 2-2 4 1 2h2l4 34v9l-5 8h-2l-3 6 2 8-7 13h2l-26 51-2-3 3-6-2 1-2-6-8 2-6-11 6-4 4 7h1l-2-8 6-3 1 4 3 2-2-7 2-1 1 2v-2l-3-2-3-6-2 1 2 7-5 2-4-8-3 1 3 9-6 3-4-8-2 1 3 9-4 2-3-4q-2-5-4-1l3 6-3 9h2l3-4 1 3 3 2-2-7 5-4 7 18-1 12 3 8-10 18-2 1-2-6q-1-7 2-9l-2 1-4-20h-1q-1 13 3 22l-6 8 6-5 2 9v6l-6 12-15 22-3-1-4 1 5 2-3 5h-3l-1 2h4l5 3v2h2l2 1-1 4-6 2q-10 1-15-2l-4-5q-1-11 3-16l3-2-1-2-2 1-5 9q-1 9 2 15l9 4 24-2h2l8-2 1 2v15l4 38-1 2 1 5-2 1q-2-15-8-25l-4 3q-1 16 2 29l-7 5-6 8 1 4 8 5h2l-8-6 1-6 9-8 6 38v6l-10-2-1 3 11 1 1 8h-1l-1 2h2v6h2v-5l2-1 1 13h1l-1-11 3-1 2-1 18 3v-2q10-2 15 3v2l-8-3-7 1 13 3v2l-1 3-5 9 1 2v1l-1-2-3 5 1 2-1-1-16 28 1 1 7-13h1l-31 67 1 2 1-3h1q-5 20-15 37l-3 2 15-34v-2q-11 16-16 39l-10 14q2 10-2 16l1 8-6 32-16 51 1 3 6-22 2-1-3 14v2l-4 26-10 35-8 20-6 7 1 2-2 4-5 5-1-1-5 4-14 2h-2l-13-1-1 2h3l-2 1h-2l-13-3-1-1-10-2-6-6-5-4-7 1-2 5-7 4 1 6-2 4 3 7 6 1 1 3q2 4 10 3l12 11 32 5 22 14h-2l-6 1h-2l-43 6 1 1 11-1 1 1-7 1h-2l-26 5 1 2 5-1h2l40-5 7 1-21 4-15 1-2-1-2 1 1 2 20-2h2l16-3h2l14-3 2 1-2 1 3 1 37-1-1-3-4 1-2-1h-2l-2 1-4-1 14-1 1-1-2-3q6-7 7-17l-1-4v-2l1-10v-2q3-23 11-40h1l-8 38h2l11-48 7-16-1-3 3-2 11-25 20-33-1-8 4-14 2-33v-2l6-23 2-1 70-100 24-42 2-1v-1l8-4 28 64 12 33v1l-8-16h-1l9 23 3 2-1 2h2l-1 2 4 2 21 39-2 1 11 27 4 4-6-3-1 3 13 5v3l24 15v2h2v3l2-1 5 7v-3l44 46h2l2 4v1l-2-2-6-5-1-1-2-2-24-22 1 3 4 2 3 5 3 1 2 4h2v2l8 6v2l17 13 13 15 16 26 6 19-2 20-9 24-5 1-6 5q-9-1-12 4-1 7 3 9h-13l-2 2h2l3 1 3-1 22 1 3 3 3-1 7 1 5-1 4 2 8-2 3 1 6-2 3 1 25-2h2l13-2v-2l-4-3-7 1-5-1-2 1q2-4 11-2l2-2 2 1 2-1-5-1h-2l-19 1h-5l4-7q-2-17 3-26l13-22 5-16-1-1-1 2-4-10-22-13-5-5-2-2-8-10h-1v-1l-2-3-2-2-2-2q-5-2-2-4l-11-15q-8-24-20-42l-2-1 11 21-1 2h2l5 12 1 1-7-8-12-26 1-3-8-12 3-1-4-6-41-29q-13-11-18-30l-4-24-1-20-16-70 1-7 8 33v2l5 17h1l-1-9-14-49 1-13 22-13 1 1-15 19 1 1 7-5-1-1-3 2 11-14 4-4 22-6 1 1-1 5 2 8v-8l1-6 23-8v-2l-22 7-1-3v-2l1-4 12-4 1-2-9 2h-3l1-5 27-9 1 12h2v-7l-1-3 2-1 1 12v-2l1-4-1-3 2-6 2-1v-1l-2-2-1-2 4-1v-1l-5-2-2-3v-2l1-2-1-9 1-2v-2l-1-2 1-9 4-1 1-3-4-2-1-34 5-1 2 3 3-7-1-2-30-12-1-2 22 10 9 2v-1q-24-7-43-19l15-2 2-5 3-2v-2l-2-1 1-2q5 2 6 9l1-2 6 8-1 4 1 1 2-1v-5l-7-8 1-5 11-4 7 3-1 3 1 1 2-4-6-5-12 3h-2l1-2-1-7-2 11-3 1-16-15-4-10q-2-7 2-9l8 2 7 10-1 4-6 5 1 1 2-1 6-7-2-7-11-9-6 1-2 3 1 9h-2l-10-12 2-4 6 14 2 1-8-16v-8l17-6 2 1 4-15-1-3 1-8 2-1-1-2 1-2-4-3 10-4 1-2-3-1-10-14-3-2-9 12-7 6 1 2 9 3-3 2 1 17-3 3-7 1-2-4q-2-6-12-4l-14-25 11-2 2-2-1-13q-2-17 2-27l5 1 1 1-1-2 4-3-5-2q-7-6-9-16l-1-1-9 14-5 4 1 4h5l-1 4 2 3v23l-1 1-4-18h-1l3 19h-3l-1-2-1 3-3 1q-6-3-6-11v-2l-3-12-3-1-1-2-2-2-2 4h-8l3-2v-1l-3-1 2-31v-2l1-8 6 1v-1l-6-2q-4-2-3-8l6-1-5-2-1-2 5-1v-1l-4-2-1-1 8-2v-1l-13-1h-2l-2 1-1 2 1 3-3 2-2 3 2 4-1 2 1 6 3 1v-2l7 1 2 7-1 21v2l-1 12-4 1-5-1 1-18 2 1 3-2-1-10-11-4-1-11-1-2q-8-2-10 2l1 7-3 2-2-14-1-2q-8-1-11 3l2 12-1 5-6-1-5 2 1 5-1 6 2 2 5-1-1 2 1 17h-12l-2-7-2 7-2 1-10-4 1-4-1-2-2-1-1 7-11-2q-4-2-2-9l-2-1-1 9-14-5-2-7-2-1-1 6-16-5-2-1-1-22q5-7 18-6l2 8 7 2q11-5 27-5l1-2-16-4-1-1 14-9 2 1h1v-4l-18 4-11-2-3-7-5-3-18 4-2 1 1-5zm188 30v1l10 1 2 2v-1zm-5 1-4 2-1 2 8-3zm-14 5-6 10q-1 9 2 14l2 1-2-4q-2-15 5-20zm-183 9-6 5 1 2 2-3 6-3zm260 97-6 4-5 8q-1 8 2 12l10 6 10-2 1-3-7-2-5-5 2-9 6-4 4 1v-3q-4-4-12-3Zm-319 28-8 9 1 1 7-8zm-8 10-13 17-2 7 1 4 2 1-1-3 2-9 11-15zm342 60-2 3 4 2-8 10 1 1 2-1q6-3 7-12zm-381 5-1 3q3 5 12 5l14-3v-1l-12 2q-10 0-13-6Zm52 6-4 3 2 3 4-2zm-30 78-2 7 5 1 1-4-2-2-1-1zm342 27-2 6 5 1 1-2-1-3zm-285 6q0 4 7 4h2zm10 4 1 1-4 5 1 1 9-4zm220 6q-6 2-3 5l-11 16 2 1 4-4-1-2 10-15zm7 4-5 4h3l-10 17-1 6 4 2 5-1-7-2 12-25zm-236 3-2 5 4 1 2-4zm251 2-3 4 3 3 2-1 1-4zm-270 4q-4 1-3 7l4 2 2-1 1-5zm250 24-3 6 3 1 4-1 1-5zm-238 7-27 50 1 3 26-51zm220 38 2 9h1l-2-8zm-247 15-4 9 1 2 3-8zm-41 56-4 7 1 1 4-7zm233 40-3 4 1 2 4 1 2-4zm74 53 5 8h1zm-309 18-4 8-4 21v2l-4 15 1 4 8-39v-2l3-6zm458 62 2 9 1-6zm-426 85-2 2 3 4 3-2-1-3zm448 0-3 1-1 3h9l1-2zm-609 7-1 3h9l7-1h2l2 1 3-1 1-2-3 1-3-1-3 1-4-1-3 1z"/><path fill="#f7f7f6" stroke="#f7f7f6" d="m465.5 114 7.5 1.5-.5 15.5-2.5-1.5 1-11-1.5-3.5-.5 2.5-1 3v2l-.5 7.5-2.5-.5 1-14zm-2 1 .5 14.5-2 1 1-6-1-2zm-10 4 .5 14.5h-1zm-5 1 1.5 1.5v12h-1zm129 2 6.5.5-.5 2.5-7-1-1.5.5.5-1.5zm-81 1-1 2-10.5 5.5 1.5 2.5 10.5 2.5-13.5 3.5-.5-13.5 1.5.5zm-17 2 1.5.5-1 2 1 7-1.5.5-.5-1.5v-2l1-3zm97 2 7.5.5 1 5-1.5.5-7.5-4.5zm-30 4 1.5 14.5-2 1-1-5 1-2-1-7zm30 0 7.5 4.5-1.5-.5-6.5-2.5zm-21 16 1.5.5-.5 5.5-20 4-.5-4.5zm-2 10 .5 1.5-10.5 3.5-.5-1.5zm74 3 1.5 9.5-1.5.5-4.5-1.5zm-77 1 4.5.5-.5 2.5-10 3-1.5-2.5zm-96 2 18.5 7.5-.5 1.5-18.5-5.5zm98 3 2.5.5-.5 5.5-11 3-.5-2.5 3.5-4.5zm-76 4 15.5 6.5-1.5.5-14.5-4.5zm-26 4 2 4 1.5-.5-1 5h2l-.5 1.5-7 1-.5-2.5zm101 0 3.5.5-.5 4.5-11.5-.5.5-1.5zm-72 7 6.5 1.5-.5 2.5-7.5-.5zm46 0 12.5 1.5-.5 1.5-12.5-1.5zm19 0h2l2.5.5.5 2.5 3.5-1.5.5-1.5 1.5.5-.5 4.5-11.5-2.5zm83 1 1.5.5-.5 4.5-1.5.5-.5 4.5-.5-8.5zm-131 2 10.5 1.5-.5 2.5-3.5-.5-.5-1.5-6 1q-3-1.5 0-3Zm-41 1 1.5.5 18 31v2q32.2 59.8 69 115l-2.5.5-12-19-.5 1.5 6.5 12.5 1.5.5-.5 2.5-31.5-50.5 2 1 21.5 32.5.5-1.5q-38.2-55.3-70-117v-2l-1.5-2.5-1.5-.5zm55 1 30.5 3.5-13.5.5-17.5-2.5zm-65 2 1.5 3.5-9.5 17.5-.5-1.5q2-12 8.5-19.5Zm30 1 3.5.5-5.5 10.5-1.5-5.5zm11 0 6.5 1.5.5 1.5 3-1 1.5.5 1 4-4.5 8.5-3.5-2.5-1-3 3-6-2 1-1.5 3.5-1-3-1.5-.5zm64 1 16 1h2l7-1 2 1h2l2-1 9 1q1.8-2.7 3.5 1.5l-.5 1.5-36-3h-2q-6 1.3-5-1Zm-70 1 1.5 10.5-2.5 4.5-1.5-.5 3-10h-1l-3.5 8.5-1.5-2.5zm23 0 2.5.5.5 3.5 1-2 4-2 4.5 1.5 3 9-2.5 5.5-4.5-2.5 4-8h-1l-3.5 6.5-4.5-3.5zm18 1 13.5 1.5 1 11-2.5 3.5-3.5-2.5 2-5q-3.5 5.5-7-1l-.5-2.5-1.5-.5zm18 1 12 1 1.5 1.5-1.5 10.5-2 1-4.5-3.5-2.5-4.5-1.5-.5zm17 2 12.5.5 1 2-1 3-1.5 6.5-5.5-2.5-1.5-3.5-1.5-.5zm17 0 1 2 8 1 1-2 1.5.5v2l-2.5 7.5-6.5-4.5zm16 1 5.5 2.5 2 4-2.5.5-4.5-3.5zm-89 2 .5 7.5-3.5 1.5q-3.2-1.7.5-3.5zm55 2 8 9 2.5 1.5-.5 1.5-8 1-4.5-1.5zm-33 1 4.5 6.5-2 4 2-1 1.5-2.5 2.5 5.5-2.5 8.5-6.5-1.5 1-4q-2 3.2-4 0l-3-5 6-4zm17 0 6 7 3.5 1.5 1 2-8.5.5-2-1-2 4-2.5-1.5-1-2 4-3zm33 0 5 6 3.5 1.5-10.5 2.5-.5-1.5zm15 0 5 6-6 1-.5-2.5zm38 2 2.5 1.5-1 2 2 1-1.5 3.5-1.5-.5-1-4v-2zm-137 1 2.5 5.5v2l.5 1.5 2-1 .5 6.5-3.5 5.5-3.5-1.5 2-5-2 1-.5 1.5-3.5-2.5 2.5-8.5 1.5-.5zm17 0 2.5 1.5-1 5 2-1 .5-1.5 1.5.5 1 5-3 8 2-1 .5-2.5.5 4.5-4.5.5-4.5-3.5 1-2-1.5.5-1.5-.5-2-6zm92 1 1.5.5 11 21-2.5-1.5-1.5.5 2.5 3.5 3.5.5 5 9-3.5-2.5-1.5.5q7.8 4.7 10 15l-2.5.5-23.5-44.5zm-162 3 1.5 3.5-2 1-2 7-9.5 14.5-.5-1.5zm232 3 1.5 3.5-4.5 9.5-2-1-1.5.5 1.5-2.5 1 2zm-81 1 1.5.5-1.5 3.5-6 1h-2l-12.5-.5zm83 4 1 5 1-2 1.5.5 2 3-1.5.5-1-2-1 3-1.5-.5-.5-2.5-2 4-.5-2.5zm-154 1 2.5 4.5-2.5 4.5-.5-5.5v-2zm-18 1 3.5 5.5-3 2-1-4 1-2zm37 0q4.6 1.9 3.5 9.5v4l-.5 2.5q-5.2-2.2-5.5-9.5zm46 0 4.5.5-5.5 8.5-2 1-1.5-6.5 1.5-2.5zm-10 1 2.5.5-4.5 6.5-5 1-.5-3.5 2.5-3.5zm49 0 12.5 24.5-3.5.5-10.5-20.5 1-2zm-66 1 7.5.5-5.5 6.5-4 1-2.5-1.5zm35 2 .5 1.5-16.5 34.5-.5-1.5zm-69 1 9.5 3.5 1 5-2.5 4.5-5.5-1.5-1.5-4.5-.5 2.5.5 1.5-4.5-5.5zm-17 1q2.5 4 9.5 3.5 1.3 7.3-2.5 9.5l-4.5-3.5 1-5-2 1-.5 2.5-2.5-5.5zm-42 1-.5 3.5-1.5 5.5-.5-7.5zm112 0 2.5 6.5-9.5 4.5-1.5-3.5 1.5-2.5 6.5-3.5zm-86 1 6 2 3-2 .5 8.5-2.5 3.5zm73 1 1.5.5 1 4-9.5 4.5-.5-4.5zm20 2 1.5.5-3.5 7.5-.5-3.5zm-125 1-2.5 3.5-4.5 8.5-.5-2.5.5-2.5 3.5-2.5zm-28 2-.5 1.5-53.5 94.5-2.5-1.5 38-62 10.5-21.5 2.5-1.5zm166 0q3.3 1.8-.5 3.5l-3.5 8.5-.5-1.5zm11 0 11.5 21.5-1.5.5zm-141 1 1 2 1.5.5q5.9 4.1 6 14l-1 6 .5 1.5-12.5-4.5 1-2-1-3q-1-10.5 4.5-14.5Zm-8 2 .5 5.5-2 4 .5 1.5-1.5-.5-8.5 14.5-.5-6.5zm81 0 2.5 1.5-1 12 .5 1.5-6.5-4.5-4-6 3.5-1.5 3 1zm13 0 2.5 3.5-2.5 3.5-2 1-.5-6.5zm13 0 2.5 3.5-4.5 5.5-6 1-1.5-2.5 2.5-3.5zm12 0 2.5 5.5-2.5 3.5-8 1-.5-2.5 2.5-3.5zm90 1 1.5.5-1 5 1 2-2 1zm-68 1 2.5 6.5-4.5 8.5h-2l-2-1-1 2-.5-3.5 2.5-5.5.5 2.5-1 4h1zm-192 2 2.5.5-1 6 2 5-4.5 8.5-2.5-8.5 4-5-4 2 1.5-7.5zm98 0 3.5 1.5 1 7-2.5 4.5-4.5-2.5-5-9zm9 0h11l1.5 1.5-1.5 8.5-7-2-1.5.5-1-3zm-37 2 4.5 8.5-1.5 2.5-2-3-.5 3.5 3 2 1.5-3.5 1.5.5 1 36 2 11-1 2 2 13v2l-.5 2.5-4-1h-2l-3.5-.5-1-9 1.5-2.5 1.5-.5-.5-1.5-1.5-.5.5-1.5 3.5-1.5-.5-1.5-3.5-.5.5-1.5 3 1 .5-2.5q-3.8-1.8-2-9l1-8-4-20zm53 2 6 8 6.5 2.5-2 5 1 2-3-2-5.5-7.5-1.5 4.5 2 6-1.5 3.5-3 1-5.5-11.5 5-4zm22 2 4.5 2.5-6.5 7.5-.5-8.5zm14 0 2.5 3.5-3.5 4.5-6 2-.5-2.5 2.5-5.5zm-107 1 .5 7.5-6.5 3.5-.5-1.5zm53 0 4 5 5.5 3.5 6 11-6-5-5.5-8.5-1.5 5.5 2 8-3.5 2.5-7.5-12.5 5-3zm63 0 1.5.5-4.5 8.5-1.5-.5 2.5-7.5zm66 3 5.5 1.5 3 12-1.5.5zm-7 1 2.5 1.5 5 10-3-2zm-7 2 6.5 11.5-2.5 1.5-7.5-5.5 1-4-1-2zm72 2-1.5 2.5q-4.5 3.5-3 13l5 7-1.5.5-5.5-3.5q-3.2-3.3-2-11l3.5-5.5zm-99 3 1.5 28.5-1.5.5-.5-6.5v-2zm-157 2 1.5.5-1 2v2l-8.5 14.5-.5-2.5zm17 0-1.5 2.5q-7.3 6.2-5 22l4 8-1.5-.5-1.5-.5q-5.7-6.3-4-20l7.5-10.5zm125 0 .5 4.5v2l-5.5 12.5-.5-4.5 1-3z"/><path fill="#f7f7f6" stroke="#f7f7f6" d="m604.5 259 1.5 4.5-1 24 1 6-2.5 1.5q-2.2-3.9-4.5-.5l-.5-1.5-1.5.5-.5 1.5-9 1-2-1-1 2-6 1-.5-1.5-1-3 .5-2.5 2.5 1.5.5 1.5.5-2.5.5-2.5 5 3 11-2h2l1.5.5-1.5 2.5 3.5-2.5-2-15 1-3-1-4 3-5-2 1-.5 1.5-.5-2.5 2-1zm-72 1 2.5 1.5.5 1.5 6.5 3.5 2 10-4.5 2.5-8.5-7.5-1-4 3-6zm82 0 3.5.5.5 2.5 1.5.5-2.5 3.5-6.5-.5.5-5.5zm-131 1 .5 1.5-1 4 2 3 1 32-1 2 1 13h-1l-3-37 1-2-1-14zm-84 2 .5 2.5-11.5 19.5-.5-1.5zm117 0 9.5 6.5 1 10-1.5 2.5q-7.4-1.1-10.5-6.5l-4-5 4-3zm25 0 3.5 1.5 7 10-5-4-4.5-6.5zm-79 2 2 11 6.5.5-3.5 1.5-3.5 1.5-1 11 .5 1.5-1.5-.5q2.8-11.7-3.5-14.5l-5.5-.5 8-2 1-6-1-2zm159 0 4.5 2.5q2.4 8.6 9.5 12.5l4 1q1.8-2.7 3.5 1.5l5 9-5.5 2.5-6.5-5.5-2.5-6.5-2 1-1-3-5 4 .5-1.5 1-5-3.5-7.5-1.5.5 1 5-1.5 4.5-5.5-10.5 5-2z"/><path fill="#f7f7f6" stroke="#f7f7f6" d="m631.5 265 7.5 11.5-1.5.5-5.5-4.5-3-5zm-215 2-.5 1.5-1.5 2.5-3 1-.5-1.5 3-1-2-1zm24 2 .5 2.5-2 3h2l1 18-3 2 .5 1.5 2.5.5-2 3 2 2 1 14-9.5.5-2.5-26.5 8-14-2 1-5.5 9.5-.5-3.5zm48 0 1.5 2.5-1 5 2.5 5.5 1.5-.5-1 2h2l-1 2 3 1-.5 1.5-1.5-.5 1.5 2.5 2-1v1l-1.5.5.5 1.5 1.5.5 1 25-7.5.5-3.5-1.5-1-35 1-2-1-3 1-2-1-2 2-1zm93 0 .5 4.5-1 2 1 3-1 2 2 1-3.5 8.5-1.5-.5 3-8h-1l-2.5 5.5-.5-3.5 2-3h-2zm-13 1 .5 1.5v2l1 16-2-1q-3.2-2.3-2-9l1-3zm43 0 2.5 11.5-2 1zm-48 1 1.5.5-1.5 9.5zm-137 1 .5 2.5-2.5 5.5-1.5.5-.5 1.5-.5-1.5 1.5-4.5 1.5-.5zm145 2 1.5 20.5h-1l-2-18zm-41 1 12.5 8.5 2 8-2.5 3.5h-3l-7.5-7.5q-3.7-4.2-1.5-12.5Zm17 0 6.5 5.5 5 9-3.5 2.5-6.5-5.5-4-6zm9 3 5.5 9.5-3-2-4-6zm-41 1q2.6 5.9 11.5 5.5l3 10-3.5 2.5zm-88 1 .5 4.5-3.5 4.5-.5-4.5zm194 4 1.5 2.5-2 1 .5 1.5 1.5-.5-1.5 3.5-1.5-.5-1-4zm7 1 1.5.5-3.5 5.5-1-3-1.5-.5.5-1.5zm-201 2 .5 3.5-3.5 5.5-.5-2.5zm74 0 9.5 16.5h-1l-3.5-7.5-1.5-.5zm129 0 1.5.5 1 6-5.5 2.5-.5-1.5z"/><path fill="#f7f7f6" stroke="#f7f7f6" d="M547.5 289q1.9 6.1 11 5l3-2 1.5 6.5-3.5 6.5q-9.7-.8-12.5-8.5z"/><path fill="#f7f7f6" stroke="#f7f7f6" d="m563.5 289 1.5.5 5 10-1 2 6 4 1.5 7.5 5-2 .5 2.5-1.5 2.5h-4l-10-9-2.5 4.5 1 5-4.5 2.5-7.5-5.5-2.5-3.5-3.5 1.5 1 8-5.5 1.5-8.5-11.5 1.5-.5q1.6 3.9 8 3 4.5-2.5 4-10 2.8 6.7 13 6 4.8-2.2 4.5-9.5l-.5-1.5 1.5.5.5 1.5 2 1 .5-1.5-6-7zm-149 1 .5 4.5-7.5 11.5-.5-1.5z"/><path fill="#f7f7f6" stroke="#f7f7f6" d="m532.5 293 11.5 6.5q2 7.5-1.5 9.5l-2 1-11.5-8.5-1-2 4-3zm104 0q2.5 4.5 11 3l2-3 17.5 23.5-1.5.5-1-2-6 1q-6.6-3.4-6.5-13.5l1-3-3.5-1.5q.8 6.3-3 8l-4.5-2.5 4-2-.5-1.5-6 1q-4.9-2.1-3-8Zm-208 3 1.5 18.5-4.5 1.5q-3.5-2-1.5-9.5l1-3-1-5h1l.5 4.5zm17 0 25.5.5-1.5 2.5-14-1-2 1-8.5-1.5zm56 0 2 6 1.5-.5-1 2 5.5 11.5 1.5.5-.5 2.5q-6.7 1.8-8.5-1.5zm127 2 3.5.5-1.5 2.5-2-1-7 2-.5-1.5 2-1 .5 1.5 1-2zm-214 1 .5 3.5-6.5 9.5-.5-1.5zm31 2 1.5.5.5 1.5 3-1 6.5.5-.5 14.5-10.5-1.5.5-8.5 2 1 2.5-1.5-.5-1.5 2 1-.5-1.5-.5-1.5-3.5 1.5-.5 1.5z"/><path fill="#f7f7f6" stroke="#f7f7f6" d="m421.5 302 1.5 13.5-2.5.5-1.5-10.5zm42 0 6.5.5-2 1-1 2 1.5.5 1-2q3.4 3.6 1.5 12.5l-10.5.5-.5-10.5 3.5-.5 2 1 1.5-3.5-1.5-.5zm166 1 3.5.5-2.5 4.5-5.5-2.5 5-1zm7 0 11.5 6.5-1 3 2 4-6.5 1.5-4.5-3.5-3-7zm-221 1 .5 5.5-2.5 5.5-3.5-.5zm200 1 .5 2.5-1.5 2.5-4 1-3.5-2.5 2.5-.5zm53 0 6.5 7.5-6-5zm-69 3 .5 1.5-1.5 3.5q-6.2 1.3-7.5-2.5zm-14 2 6.5 4.5-8.5 2.5.5-1.5zm38 0h2l3.5 1.5 1 2-11.5 1.5-.5-2.5zm-56 1 2 3 5.5 3.5-.5 1.5-8 1 .5-1.5zm39 2 7.5 2.5-12.5 2.5q-3.5-2 1-4zm-56 2 8.5 5.5-10.5 2.5 1.5-2.5zm78 0 2.5 1.5 1 3-8.5 1.5-3-4zm-35 1 4.5 2.5-8 3 .5 1.5 8-3 .5 5.5-8.5 1.5-7.5-6.5.5-1.5zm20 1 3.5 4.5-10.5 2.5-3.5-2.5.5-1.5zm-206 1 8 1h2l32 1 2-1h2l14 1 1.5 1.5-9.5.5-38-2-3 1-3-1-8.5-.5zm167 2 4.5.5 1 7q-1.7 3.3-8.5 1.5l-7.5-6.5zm-100 2 22 1 2-1 17.5 1.5-.5 1.5-41-2zm82 1 3.5.5 1 7-5.5.5-7.5-5.5zm-123 2 40 2h2l18.5.5-1 2 2 15v2l-1 6 1 2-1 2 1.5 6.5 1.5-.5-1-8 1-15v-2l-1-4 .5-2.5 1.5.5q-1.9 8.9 1.5 12.5l3.5-1.5 1.5-2.5 2.5-1.5-.5-2.5-1.5.5-.5 1.5-.5-1.5 1-5-2 1-.5 2.5-1.5-.5-1-7 6.5-.5 1.5 6.5-1 2 2-1 2.5-6.5 5.5.5 1 9-1.5 2.5-2.5.5 4 5v2q-2.4 10.9 1.5 15.5l.5-11.5v-2l-1-5 1.5-7.5 2.5 8.5 1 17 2 4 3 25-1 12 4 8 1 35-3.5.5-40.5-5.5 1-8-1-14 2 1 1.5 4.5 2.5.5.5 2.5 2.5.5.5 1.5 1.5.5-1.5 2.5-2.5.5.5 1.5 7-1 2.5-.5-5-1 2.5-.5 7-1v2l2.5.5-4.5.5-2.5.5 11.5.5v-1l-3.5-.5 3-1-.5-1.5 1.5-.5-2.5-.5-1 2-2.5-1.5 4.5-2.5 4 1 1.5-10.5-3-2 1-2-1-39 1-3-7.5-2.5h-2l-18-1-1.5 3.5 2 2 2 40-6.5 3.5.5-1.5-1-3-.5-2.5-1.5 3.5 1 11v2l-1 2 2 7-1 2 .5 3.5-2.5-1.5-1-24 1-3-1-2v-2l1-5-1-4 1-2v-2l-1-19 1.5-.5 1.5 9.5-2 3 2 3v4l-1 4 1 2-1 2 1 2-1 4h3l-1-4v-2l1-4-1-5 1-3-1-16v-2l1-2-2-18 2-5-3.5-2.5-3 2-52.5-1.5-.5-1.5-3-1-5.5 1.5 1 2-12 8-1 3 4 2 11 15v9l-2 1 .5 1.5 1.5.5-.5 1.5-1.5-.5.5 3.5 1.5.5-.5 2.5-1.5.5.5 2.5 1.5-.5v2l-.5 2.5-1.5.5 1.5 12.5 1-7 .5 6.5v2l1 25h-1l-1-3v-2l-.5-11.5-1.5 6.5v2l1 7-2.5.5-1.5-1.5-.5-13.5-1 14-1.5-.5-.5-8.5-1 9-1.5-.5-.5-5.5-1 5-1-22-1.5 16.5 1 2-1.5 3.5-1-22-1.5 7.5 1 2-1.5 12.5-1.5-.5-1-6 1-4-4-59 3-4-1-5 13.5-16.5 6.5-4.5zm49.5 4v5h3l2-4-1-1-1 2h-1l-1-1zm-19 3 1 4-1 4h2l3 5v-2l1-1-4-4 1-4zm9 0-1 2 2 1-1 4h3l1-4zm-34 4-6 7 6-4 1-2zm72 14-3 3 2 4 3-2zm-19 14-1 3 28 1v-1zm-76 54-4 5 1 2h2l4-5zm-3.5-92 5.5 1.5-1.5 2.5-4 1q-5-2.5 0-5Zm134 1 6.5 5.5-3.5.5zm-27 1 1.5.5 2 7-1.5.5zm-101 3 2.5 1.5-2.5 5.5-3.5-2.5zm242 0 8.5 5.5-1.5.5zm-252 1 3.5 1.5-2.5 4.5-3.5-1.5zm-35 3 11.5.5-.5 3.5-15 2-.5-1.5zm283 0 16.5 9.5-1.5.5zm-127 2 1.5 8.5h-1l-2-6zm-117 1 3.5 2.5-4.5 4.5-1.5-1.5-1-2zm-24 2 3.5 12.5 3 25v20l-3 2-5-58zm137 1 3 8 1.5.5 1 21-1.5 7.5-1.5-3.5v-2l-3-20 1-2z"/><path fill="#f7f7f6" stroke="#f7f7f6" d="m426.5 351 29 1 3-1h2l6 1h2l3-1-1 2-5.5 1.5 2.5.5 13-4-6 7-18-3h-2l-30.5-1.5zm205 1 5.5.5-4 6-.5 19.5-1.5-4.5 1-2-1-3 1-2-1-2 1-3-1-2 1-2-1.5-2.5-2.5-1.5zm11 0 .5 2.5 1.5 3.5 1.5.5-1 3 1 2-4.5 1.5-2-4-2 4-.5-5.5zm-21 1 3 1 2-1 1.5 2.5-12.5 1.5h-2l-5 1-.5-1.5 2.5-.5 1.5.5.5-1.5 4 1zm-38 1 1 2 1.5.5-.5 1.5-2-1-1 2-1.5-.5zm-101 1 .5 1.5-2 3 1 3h-1l-.5-2.5-1.5.5zm189 1 2 1 1.5-.5q-4 6.5-15.5 5.5l-1.5-2.5z"/><path fill="#f7f7f6" stroke="#f7f7f6" d="m683.5 356 2.5 11.5v2l-1 6 1 16-13.5.5-13.5-2.5-1-24 3.5-1.5h2zm6 0 .5 31.5h-1zm-268 1h2l2 1 22-1 8 2h2l7 1 2-1 5.5 1.5-5.5 1.5-3-1q-16.5 1.5-28-2l-7 1-10.5-1.5zm173 2 1.5.5 1 2-6.5 8.5-2.5.5 3 2-7.5 10.5-.5-8.5 2.5-3.5 1.5-.5zm-4 1 .5 1.5-7.5 9.5-.5-2.5.5-1.5 1.5-.5.5-4.5zm36 1 1.5 2.5v34h-1l-1-20 1-2-1-11v-2zm28 2 2.5.5-.5 25.5-2.5-.5-1-13zm-119 1 3.5 6.5-2.5 4.5zm-60 1 3.5 6.5-1 5 1 21v2l2 73-2.5.5-1.5-6.5-1-69v-2l1-2-2-16 1-3-1-2v-2z"/><path fill="#f7f7f6" stroke="#f7f7f6" d="m597.5 365 1.5.5-2 6 1 2-5.5 8.5-1.5.5-1 3 2.5.5 5-7 1.5 6.5-6.5 11.5-1.5.5-1 2 2.5 1.5 5-8 1.5.5v8l-5 8 3.5-2.5 1.5.5 2 4-.5 2.5q-1.8-2.7-3.5 1.5l-4 7 .5 1.5-2.5 1.5-2.5 5.5-1.5.5-4.5 8.5-2-1-1.5 2.5 2 3-4.5 6.5-5 2-.5-2.5 4-4 8.5-17.5 1.5-.5 4-9-1.5-.5-1 2-1.5-.5 1.5-2.5 5.5-2.5 2-5-1.5-.5-2 4-1.5-.5 1-3-3-2 4-6-1.5-2.5-4 9q-4-2.5-1.5-11.5 5.4-3.1 6-11l-3 2-2.5 5.5-1.5-7.5 8.5-12.5 4.5-3.5q-4.7-2.7 1.5-5.5Zm-19 3 1.5.5-.5 17.5zm-29 2 1.5.5-2 4-.5 2.5-1.5.5-5.5 8.5-2.5.5 1 2-2.5 3.5-1.5-.5.5-2.5 1.5.5v-3zm64 1 1.5 9.5-8.5 2.5-1-2 1.5.5 1.5-2.5 4.5-1.5-1-4zm-116 2 2.5 38.5v2l-.5 1.5-1.5-.5-2-40zm145 2 3.5 1.5 1 2-3 2 3 1-.5 1.5-6.5-.5-.5-2.5-2.5 1.5-.5 1.5-.5-6.5zm-215 3 2.5 1.5 1 12-1 2 2 69-2.5.5zm123 0 .5 2.5-9.5 13.5-1.5-.5zm15 0q-1.1 7.1 3 9h2l4-2 1.5 4.5-1.5-.5-4-1-3.5 2.5-.5 5.5-1.5-.5-2.5-5.5-2.5-.5.5-1.5 1.5.5q4.3-2.7 3.5-10.5Zm-108 1 2.5 1.5-2 1 2 2 1.5 22.5 1.5-.5v-22l1.5-2.5 2.5 1.5-2 1 .5 2.5 6-4 1.5 12.5v2l-.5 1.5-1.5.5 1 2v2l-.5 1.5-2-1-.5 1.5v2l2.5 6.5 1.5.5-2 1 2 3v25l-1 2 2 24-2.5.5q-10-5-26-4h-2l-3.5-.5.5-3.5 4.5.5.5 1.5 4-2v2l5-2 2 1 2-1 3 2 1-7 1.5-.5-2.5-.5-3-1-7 1-2-1v2l-1.5-.5 1-11-1-6 1-3-2-17 1-2-1-3h1l.5 2.5 3.5-11.5v-2l1-8v-4zm5.5 35-3 5 1 6 5 2 1 17-1 2 2 13h2l-1-1 1-2-2-15v-13l4-7-2-5zm-84.5-33q6.5 9 7.5 23.5l-6.5 3.5-2.5-22.5zm267 4 1.5.5-.5 5.5-11 2-.5-6.5zm-114 1 1.5.5-.5 19.5q-3.9-4.6-1.5-15.5l1-3zm18 0 1.5.5 1 2-9.5 14.5-3.5 1.5 1 2-2.5 4.5-.5-5.5zm-48 4 11 2 3-1 .5 2.5-4.5.5-9-1-1 2zm50 3 .5 4.5-10.5 18.5-1.5-.5-1.5 7.5-1.5-6.5 3-2zm109 0 12.5 2.5-13.5 2.5-.5-3.5z"/><path fill="#f7f7f6" stroke="#f7f7f6" d="m442.5 394 1.5 8.5v2l-1 2 3 15-1 2 1 11h-1l-.5-5.5-1.5.5-2-12v-2l-1-4 1-2-1.5-2.5-1.5-.5 1-2-1-4 1.5-.5 1 2 .5-2.5zm201 1 1.5.5-.5 9.5-5 1q-3-1.5 0-3l2.5-1.5q-1.7-4.2-3.5-1.5l-4.5-.5 1.5-2.5zm-197 4 3.5 1.5-.5 2.5-2.5.5 2 4-1.5 4.5zm235 1 1.5.5-1.5 16.5-1.5-15.5zm3 0 1.5.5 1 27-1.5 2.5-2.5-.5zm-291 1 1.5.5-1.5 18.5-1.5-17.5zm279 1 .5 24.5h-1l-2-23zm3 0 1.5.5 2 26-1.5.5-2.5-.5zm-286 2 3.5 25.5v2l-1.5 25.5-1.5-1.5v-12l1-4-1-2v-2q1.8-14.3-2-23v-2zm272 0 1.5.5-.5 17.5zm4 0 1.5.5 2 22-3.5.5zm-39 1 4.5.5-.5 1.5-21 4-.5-1.5zm29 1 1.5.5 2 19-3.5.5z"/><path fill="#f7f7f6" stroke="#f7f7f6" d="M385.5 407q5.7 20.3 3.5 48.5l-2.5.5-2.5-21.5 1-2-1.5-6.5-1.5.5 1-7h-1l-.5 5.5-2.5-13.5zm164 2 1.5.5v6l-4.5 7.5-1.5.5-2.5 4.5-1.5-.5 2-8zm86 1 2.5.5-.5 3.5-6 1zm-12 2 1.5.5-8.5 2.5v-1zm-189 1 1.5.5-.5 41.5-1.5-21.5v-6l1-2-1-2 1-2zm68 1 9 3h2l2-1 .5 1.5-10.5.5-3.5-1.5zm-103 1 1.5 23.5-1.5.5zm175 0 5.5.5-.5 1.5-20 4-.5-2.5zm27 0 1 2 9-2v1l-9.5 3.5 1 2-6 10 1.5.5 3-6 1.5-.5 1.5-4.5 5-1 .5 1.5-1 2 2-1 1.5-3.5 8-2v1l-2.5 1.5-2 12-8.5 12.5-9 2-.5-1.5 3.5-4.5 1 2 2 1 8.5-19.5-2 1-3.5 5.5.5-1.5-.5-2.5-7 12-2.5 1.5-4.5 8.5-3 1-.5-2.5 1-3-1.5-.5-4 6-6 2-.5-1.5 2-1 16.5-30.5 1.5-.5.5-1.5zm-4.5 17-6 9 1 2 5-8zm46.5-16 1.5.5-1.5 5.5-6 1-1.5-4.5zm-204 1 1.5 14.5v2l.5 3.5 1-3 1.5 9.5-3 2 .5 1.5 2-1q-1.2 8.2 2.5 11.5l-3 1-.5 1.5-2.5-1.5 1-15-1-3 1-3-2-1 1-2zm56 2 20.5 3.5-.5 2.5-19-2-1.5-1.5zm137 0 1.5.5 1 3-14.5 3.5-.5-2.5 1.5.5 2.5-.5 1.5-2.5 3 1 1-2zm-82 3 1.5 4.5-4.5 7.5-1.5-4.5zm32 1 .5 2.5-7.5 13.5-2.5 1.5 1 2-8.5 12.5-2.5-.5 17.5-30.5zm-8 1 2.5.5-10.5 17.5-1.5.5-6.5 13.5-2.5-4.5 7.5-13.5 1.5-.5 7.5-12.5zm64 1 1.5.5-.5 4.5-8 1 .5-1.5.5-2.5zm-74 1 4.5.5-2 1-12.5 22.5-2.5-5.5zm-9 1 3.5.5-7.5 14.5-1.5-6.5zm68 1 4.5.5 1 3-8.5 2.5-.5-4.5zm21 4 .5 2.5-.5 1.5-5 1-.5-1.5 1.5-2.5zm-29 2 1.5 2.5-2.5 4.5-4 3 .5-1.5zm14 1 2 1 2-1 .5 3.5-5.5 1.5-.5-2.5zm-9 2h2l2.5.5 1 2-2.5 1.5h-2l-1.5-.5zm-80 4 .5 2.5h-2l.5 1.5 1.5.5-3 2q-1-5.5 2.5-6.5Zm-141 2 1.5.5 1 10-.5 2.5-1.5-.5zm9 1 1 2 3-1 1.5 3.5-1.5-.5-4-1-1.5.5zm78 0 1.5 2.5v2l-1.5 4.5zm3 0 11 2 3-1 7 2 20 1 1.5 1.5-3.5 9.5-39.5-6.5zm-73 1 6.5 1.5-1.5 9.5-1-5-1 2-1-4-2.5-.5zm201 2 2.5.5-6.5 10.5-2-1-1 2-.5-2.5 5.5-8.5zm-208 2 3.5 1.5 1 4-2.5 3.5q-4.2-.7-3.5-6.5zm220 0 1.5.5 2 4-8.5 2.5 2.5-3.5zm-25 1 2.5 1.5-2.5 3.5-2.5-.5-.5-1.5-1.5.5-1-2 3.5-.5 1 2 1.5-.5zm-55 2 1.5.5-2.5 5.5-2 1-.5-4.5zm36 3 1.5.5-4.5 5.5-2.5-4.5 2.5-.5 2 1zm-99 1 20 3 3.5 3.5-.5 1.5 2.5 1.5.5 1.5 1.5.5 2.5 5.5 4.5 2.5-.5 1.5-21.5-3.5 3.5-4.5 1.5.5 1.5 3.5 1.5-.5-1-4 3-4-2.5 1.5-2 1-4-6-1.5-.5-.5-1.5-4 1-4-2-.5 1.5q3.3 2.2-2.5 4.5v-2l-1.5-.5zm87 1 1.5.5-2.5 3.5-1.5.5-.5 1.5-1.5-3.5zm83 1 1.5.5-1 2v2l-.5 6.5-21 6 1.5-2.5-.5-1.5-23 13 2-3 9.5-8.5 3.5-4.5 1.5-.5.5-1.5 17-5 2 1h2l2.5-1.5.5-1.5zm-80 1 2.5 1.5-1 5 3 1-9.5 3.5-.5-2.5zm-65 1q13-.5 21.5 3.5l-.5 14.5-1.5-6.5 1-3-1.5-.5-1.5.5 1-3-3-1 .5-1.5-4.5.5-3.5 5.5-7.5-5.5zm78 0 1.5.5-3.5 5.5-2.5-.5 2.5-4.5z"/><path fill="#f7f7f6" stroke="#f7f7f6" d="m493.5 461 3.5 1.5.5 2.5 1-2 3.5 2.5-3.5 5.5-2-6-2 6-6.5-4.5 2.5-3.5 2.5-.5zm54 2 3.5 1.5q.8 6.8-4.5 7.5l-.5-6.5zm-23 4 1.5.5-1 5 2.5.5 1-2 1.5 7.5-2.5.5-3.5-2.5-1-6zm39 0 2.5.5-2.5 4.5-3 1-.5-1.5 1.5-3.5zm60 0 1.5.5-14.5 6.5v-1zm-137 1 6.5 5.5-1.5.5-5.5-1.5zm134 4 1.5.5-14 13 1.5-7.5zm-170 16 2 4 1.5-.5-.5-1.5 1.5 2.5-2.5.5zm-16 5 1.5.5-.5 1.5 3-1 1.5 3.5-2.5.5-5.5-1.5zm-9 4 3.5 1.5-5 3 1 2-1.5 2.5-3 1-.5-1.5zm5 2 6.5.5.5 1.5 3-1v1l-5 1-3-2-3 1zm15 2 4.5 3.5 7 17-1.5.5zm-17 1 4.5 1.5-.5 1.5-1.5.5 4 1 6 15-.5 1.5 2.5 1.5 3.5 8.5.5-2.5-12-27 1.5.5 2.5.5 12 27-2.5 3.5-1-2-.5 3.5-1 3-1.5 3.5-1.5-.5-5-11 1-3-2.5-1.5-.5 3.5 1 2-14 44-16.5 35.5.5-1.5-.5-2.5-5 7v-2l-1.5.5-2.5 6.5-1.5-.5-2-5 13.5-14.5 3.5-2.5 2-3-1.5-.5-14 15-4.5 3.5-1 4 2 9-1.5.5-.5-1.5 1-2-3-2-1.5-5.5-1.5.5 1 14h-1l-1-14-2-5 2-5-1-3 3-11h-1l-6 15-1 9 1 2-1.5.5-1-2-3.5-.5 4-9q-3-2 2-4l5-16-1-2 6-13-.5-1.5 1.5.5 10-28 11.5-20.5.5 2.5-14 30 2-1 20-42zm13 0 12.5 23.5-1.5 2.5-1.5-.5-11-24zm137 0 5.5 2.5-.5 2.5-3.5-1.5.5-1.5-2 1-3.5-1.5zm-126 1 2.5.5 5 11-.5 2.5-1.5-.5zm106 1 3.5 1.5-7.5 6.5-1.5-3.5zm-7 4 .5 6.5-3 2-1-4z"/><path fill="#f7f7f6" stroke="#f7f7f6" d="m419.5 509 1.5.5-.5 1.5-2.5 1.5 1 2-4.5 6.5-1.5-.5 3.5-6.5 1.5-.5-1-2zm139 3 2.5.5-2.5 4.5-1.5.5-.5 1.5-1.5-3.5zm-93 1 2.5 6.5-2 1-2-5zm98 1 4.5 1.5-5.5 6.5-4.5-1.5zm6 2 9.5 3.5-.5 1.5-1.5.5-3.5 5.5-9.5-4.5 3.5-4.5 1.5-.5zm-34 1 2.5 9.5-2 1zm-73 2 2.5 8.5h-1l-3-6zm80 0 2.5 8.5-1 3h1l.5-1.5 1.5.5-2.5 5.5-3.5-11.5 1-2zm8 1 3.5 1.5-4.5 6.5-1.5-.5.5-5.5 1.5.5zm32 1 6.5 2.5 2 9-1.5.5-5.5-3.5z"/><path fill="#f7f7f6" stroke="#f7f7f6" d="m556.5 522 4.5 1.5-2 4 3.5-2.5 20.5 8.5 1 4-1.5-.5-23.5-7.5-.5-1.5-2.5 1.5-1 3 1.5.5 1-2 19 8 2-1 6.5 3.5 1 5-1.5.5-4-3-2 1-11-4-.5 1.5 16 7 3 6-1.5-.5-6-1 1 2q6.4-.4 8.5 3.5l4 9-2 1 3 1 10 33 3 40-1.5-.5q-3.7-5.8-12.5-6.5l-.5-1.5-1.5-.5-.5-2.5-1.5.5.5-1.5-2.5-1.5-15.5-30.5-1.5.5 7 14h-2l.5 2.5 1.5-.5-1 2 1.5 4.5 2-4 1.5 3.5-1 5 1 3-2-1-14.5-28.5-.5 1.5 1 2-2-1-.5-5.5-1.5.5-1-3-14-37-4-20 2 1 10.5 31.5.5-2.5-3-8 1-3-1.5-2.5-1.5-.5-4-17 2.5-3.5q7.7 23.3 20 42l.5-2.5q-12.4-18.1-18-43zm-2.5 39v6l10 22h1zm33 58 1 8 2-1zm-7.5-96 1.5.5 2 6-1.5.5-5.5-2.5.5-1.5 2.5-1.5zm-120 1 2.5 9.5-2-1-3-6zm132 0 2.5 1.5 2 10-1.5-.5-1.5-.5zm-103 3 .5 1.5-22.5 36.5-.5-1.5zm-33 2 3.5 10.5-1.5.5-3.5-8.5zm-18 5 5.5 11.5-7.5 11.5-2.5-8.5 1.5-5.5 1.5-.5zm15 0 4.5 10.5-2.5 4.5-1.5-.5-3-11zm134 0 5.5 2.5 1 5-1.5-.5-4.5-1.5zm-138 7 4.5 10.5-3.5 5.5q-4.3-3.7-3.5-12.5zm140 1 6.5 3.5 1 5-1.5-.5-5.5-2.5zm8 3 2.5 1.5 2 5-2.5.5z"/><path fill="#f7f7f6" stroke="#f7f7f6" d="m584.5 548 2.5 1.5 2 8h-1zm-141 1 1.5.5 3 11-2.5 3.5-4.5-10.5zm147 1 6.5 3.5 2 6-4 1 5 3 1 9 2.5 3.5.5-2.5-3-10 1.5-.5q4.8 9.3 4.5 23.5l2 2-1 2 .5 1.5-1.5.5 2 5-.5 1.5 1.5.5-1 2 1 3-1 2 2.5 1.5-.5-1.5-.5-11.5-1.5-.5 1-9-6-29 2 1 7 39-1 3 2 6-1 3 2 11-2 1 .5 1.5 1.5-.5 2 12h-2q7.5 27 23.5 45.5l2.5-1.5-1-3 1.5.5 1.5-.5-1.5-2.5 21 16-12-14q17.8 6.7 28.5 20.5l8 19-1 2 8 20-1.5.5-16-13-.5 1.5 2.5 3.5-21.5-24.5-9.5-18.5-.5 3.5 2 5h-1l-3.5-7.5-.5 2.5 21 32 38.5 41.5 1.5-.5-16.5-22.5-1.5-.5-2.5-3.5h-2l-1.5-.5-2.5-3.5-1.5-.5-1-2 3.5 2.5 16 8 .5-2.5-1-3h1l6.5 11.5.5-1.5-14-30h1l12 27 23 34-4-3-17.5-26.5-.5 1.5q18 34 43.5 60.5l5.5 3.5 1 7-2.5 3.5-5-3-12 6-.5-5.5 1.5-2.5-1.5-.5 1-3-1.5-.5-3 4-3.5-7.5 4-2-2.5-.5-4.5-1.5-2-4-.5-2.5-1.5.5-4.5-8.5-1.5-.5-4.5-7.5-1.5-.5-11-14 2.5-.5 2 1-2-3-3-1v2l-3-4 1.5-.5-5-3 1-2-3.5-1.5-1.5.5.5-1.5 1.5-.5-3.5-4.5-6.5-4.5.5-1.5-2 1-2-4-2 1-2-5-2.5-1.5-2.5-5.5-1.5.5-1.5-2.5-1.5-.5-.5-1.5-3.5-2.5-.5-1.5-1.5-.5 2-1-4-3-.5-3.5-1.5.5 1 3v2l-.5 1.5-1.5-.5 1-3-2.5-6.5-1.5-.5-1.5-3.5-.5 5.5.5 1.5-1.5-.5-1-2 1-3-4-8v-5l-.5-2.5-3.5 2.5-.5 1.5-1.5-.5q-2.7-15.8-12.5-24.5l-2 1-9.5-14.5 1.5.5 1.5-.5-4-9v-2l-2-33h1l5 36-1 2 6.5 10.5 2.5-.5-5-12-4-28-10-39-8-22-1-3zM665 689l-1 2h2v2h2l3 5v-3zm1 21-1 2 6 5zm40 53 5 11 1 1-6-4-2 1 1 2 8 3 22 31 2 1-18-28v-2l2 1 14 20 3 8h1l-4-11-16-21zm32 46v4l-1 2 1 1h6l-2-1-3-5zM431.5 554l1.5.5 1 6-7.5 12.5-.5-1.5z"/><path fill="#f7f7f6" stroke="#f7f7f6" d="m599.5 554 1.5.5 2 7-1.5.5zm-159 1 3.5 11.5-3.5 5.5-3.5-7.5v-5zm13 0 .5 4.5-2.5 3.5-1.5-2.5zm-5 7 1.5 5.5-2.5 3.5-1.5-5.5zm-13 1 3.5 11.5-3.5 6.5-2-5-.5 5.5v2l-4.5 9.5-.5-5.5 3.5-13.5 1.5.5q-1.7-8.7 2.5-11.5Zm175 1 1.5.5 7 36v17l-1 2q1 16.5 7 28l-1.5.5q-6.2-8.8-6.5-23.5l1-2-4-39z"/><path fill="#f7f7f6" stroke="#f7f7f6" d="m430.5 569 .5 3.5-5 20v2l-7 15-19.5 27.5-1-2-6.5 11.5v2l-3.5 6.5-1.5-.5q-3.1-4.4-2-13l5.5-8.5q8.3-.7 11.5-6.5zm14 0 .5 6.5-2.5 4.5-1.5.5-2.5 5.5-2.5.5-8.5 14.5-.5-1.5 12.5-22.5 1 2zm2 10 .5 2.5-17.5 22.5 2.5-3.5 1.5-3.5 1.5-.5.5-2.5 1.5-.5zm-3 16-1.5 2.5-19.5 29.5-1.5-.5q8.8-18.2 22.5-31.5Zm121 16 12.5 22.5-2-1z"/><path fill="#f7f7f6" stroke="#f7f7f6" d="m374.5 618 3.5.5 5 19v13l3.5 5.5 1.5.5-4 9 2-1 7-12 1.5-6.5 1.5-.5 3.5-6.5.5 2.5-14 30-4.5 5.5-9.5 7.5-1 3 2-1 5.5-6.5 4-2-.5 1.5-2 7q-10.4 9.6-16 24h1l8.5-13.5-.5 1.5-14.5 34.5-1-2-7.5 25.5-2 33-12.5 34.5-.5-2.5 8-30h-1l-10 27h1l.5-1.5.5 2.5-7 29v2l-2.5 4.5-4.5 2.5.5 1.5 3-1-1 2-3 1-6-13-.5 7.5 6 10-2.5.5-6-9-.5 3.5 5.5 7.5 3 1 6-5 .5 1.5-3 12-3.5 4.5-17.5-5.5v-2l.5-1.5 5 1v-1l-2.5-.5.5-1.5-5-1-2 1-1-3-9-1-3 1v-1l8-2 7 1v-1l-19-3-25 5-3.5-2.5.5-1.5 8 2 3.5-1.5-3.5-1.5-2 1-4.5-3.5-2.5-3.5-3 1-2.5-.5 1-2-5.5-6.5-12.5-5.5-.5-1.5-2.5-.5-1-3q-1-5.5 2.5-6.5l-.5 1.5 6.5 6.5 14.5 4.5.5 1.5q11.1 8.9 33 7l.5-1.5-3.5-.5-3 1-3-1h-2l-7.5-1.5q16.1-4.4 36.5-4.5v1l-7.5 4.5.5 1.5 9.5-5.5 2.5-3.5 1.5-.5 4.5-5.5-1.5 2.5-7 15 3-2 21-45h-1l-2.5 4.5.5-1.5 15-55 8-47 6.5-12.5-.5 1.5 1 2-1 3-5 31-20 69h1q22.9-59.6 31.5-133.5l7-1 .5 1.5-6 10 1.5.5 3.5-2.5 1.5-3.5 2 6 1.5-.5-1-7 2.5-4.5 2.5-1.5-2-1 3.5-6.5 3.5-2.5-.5-1.5 2.5-.5-.5-1.5-4.5-1.5 2.5-7.5 1.5-.5-1-9-2.5-3.5-1.5.5 2 9-1.5 3.5-1-8-1.5.5 1 2-2.5 9.5-12.5-10.5 4.5-9.5.5 1.5-2 3 1.5.5zm7.5 38-1 5-6 4h4l4-6zm-18 55-6 16 1 3 5-16zm-35 115-7 13 1 2 6-13zm252.5-201 7.5 14.5-2.5 5.5zm-165 10-.5 1.5-5.5 8.5-.5-1.5zm163 3 4.5 6.5-2-1z"/><path fill="#f7f7f6" stroke="#f7f7f6" d="m360.5 639 8.5 6.5 1 3-2.5.5-7.5-7.5zm232 3 6.5 4.5 1 2-4 2 .5 2.5 3 1 4-1 4.5 6.5-1.5-.5-4.5.5 7 3 2 12-7.5 2.5-3-1-2.5-.5-6-15-1-3-1-5z"/><path fill="#f7f7f6" stroke="#f7f7f6" d="m360.5 644 4 5 6 2 2-1-.5 1.5 1 2-1.5-.5-1.5.5 1 3-7.5 3.5-2.5-1.5zm9 17-2 3-5 1-1.5-2.5zm222 4 1.5.5 4 11-1.5.5zm22 5 1.5.5 2 6q-2 3.5-4-1l1-3zm6 3q4.4 1.6 3.5 8.5l-3-2zm-233 3 .5 5.5-4.5 3.5-.5-1.5zm226 1 1.5 2.5-8.5 3.5-1.5-2.5zm5 3 .5 1.5-1.5 2.5-1.5-.5-.5 1.5-2.5-.5zm-232 5 1.5.5 1 6q-3.4 2.6-2 10h2l-2 21-5.5 13.5-.5-2.5 1-3 3-10-1-2 4-15-1.5-.5-7.5 34.5-6.5 9.5-.5-1.5 2-12h-1l-2 14-3.5 5.5-1-15-1.5.5-.5 13.5-1.5-.5q-2.2-20.2 4-32 6.2-20.8 19.5-34.5ZM373 712l-3 7 1 3 2-7zm20.5-23 .5 5.5-1.5 5.5-.5-5.5zm250 30 13.5 12.5 2.5 4.5 3.5 2.5 2 3-8.5-7.5-1.5-.5zm-263 18 .5 2.5-3 4q2.8 1.8-1.5 3.5l-1.5-.5-.5 1.5-1.5-.5zm289 8 7.5 6.5.5 1.5 1.5.5 2.5 3.5 1.5.5-1.5.5-6.5-5.5-1.5-2.5-1.5-.5-1.5-2.5-1.5-.5zm-298 4 .5 1.5-.5 1.5 1.5.5-5 4 1.5-2.5 1.5-.5-1-2zm-18 2 1.5.5-3 26-2.5 7.5-.5-4.5 1.5-9.5 1.5-.5-.5-1.5-1.5-.5zm330 8 3.5 2.5 3 4-1.5.5zm-330 26 1.5.5-3 11-6.5 12.5-.5-1.5 6-20zm351 8 11.5 18.5-2-1zm55 14 10.5 6.5 2 3-1.5 4.5-4-7-1.5-.5-.5-1.5zm-2 2 9.5 8.5 2 7-4 10 .5 1.5q-2.2-3.2-4.5 2.5l-4 12v2l-.5 1.5-1.5-3.5q3-2-2-4v-5l7-16zm-411 2 .5 2.5-5.5 15.5-.5-2.5z"/><path fill="#f7f7f6" stroke="#f7f7f6" d="m742.5 821 7 4h4l3-2 .5 5.5-4.5 10.5-8-12-1.5.5 7 9 .5 16.5 1.5.5-1 4 2 4-1 3-1 7 2-1 .5-2.5.5 4.5-1 2-1 3-8.5 13.5-1.5.5-2.5 4.5-1.5-.5 3-8-1.5.5-1.5.5-6.5 10.5-4.5-.5.5-1.5 2 1 .5-1.5-2-1 6-8-2.5-.5-5.5 4.5-2.5 6.5-2.5-.5.5-1.5-1.5.5-.5 2.5-3.5-1.5 6.5-7.5 3.5-2.5-.5-2.5-7.5 4.5-4.5 5.5-3.5-.5 2.5-4.5 13-7 2.5-.5 1.5-2.5 1.5.5-1 2 1.5.5 2.5-4.5-1-2 2.5-4.5 2.5-.5.5-1.5.5 3.5-1 2 2-1 2-14-2-1q1.8 9.8-4.5 11.5l-.5-1.5 2-12h-1l-6 18 1 1-5.5 5.5-.5-1.5 2-1 3-6v-2l4-21-1.5-.5-7 24-2 1 .5-1.5 2-6v-2l4-17v-2q-.5-8.5 4-12l-1-5 3.5-5.5z"/><path fill="#f7f7f6" stroke="#f7f7f6" d="m727.5 847 .5 2.5-2.5 6.5-.5-2.5zm-399 15 .5 2.5-3 15-4.5 7.5-1.5-.5 3-4q.2-12.8 5.5-20.5Zm-24 19 10.5 3.5-3.5 4.5-2.5-1.5 4-3-2.5-.5-4 1-2.5-1.5zm405 2 3.5.5-9.5 11.5-4 1-7.5-3.5.5-2.5q2.3 3.2 9 2l3.5-2.5-1-3z"/><path fill="#8e8c86" stroke="#8e8c86" d="m447.5 112 2.5 1.5.5 1.5 1-2 1.5 2.5-2.5.5-2.5-1.5.5-1.5zm18 1 4.5.5-5 1 1 14-.5 1.5 1.5.5-3.5.5.5-1.5-.5-14.5-1.5 8.5 1 5-1.5 3.5-1.5-.5 1-7h-1l-1.5 8.5-1-7-1.5 6.5.5 1.5-1.5-.5-1-5 1-7-1.5-2.5-.5 14.5.5 1.5-1.5-.5.5-16.5 2 1 1-3zm6 1 2.5 1.5-.5 15.5-1-16zm107 0h2l13.5.5-.5 1.5-7.5 1.5.5 1.5 4.5 1.5-.5 1.5-4.5.5.5 2.5 5.5 1.5-6 1-.5 4.5-2-5-7.5.5.5 1.5 10.5 4.5 1.5 2.5 6.5 1.5-1.5-.5-1.5.5.5 1.5-2.5-.5-.5-1.5-2 5-2-8-1 4-8-2v2l-2.5-1.5-1-6 1-2-2-4 1.5-2.5 3.5-2.5-1-3 .5-1.5zm-.5 8-2 1-1 2 2-1 7 1v-2z"/><path fill="#8e8c86" stroke="#8e8c86" d="m469.5 115 .5 4.5-.5 10.5-1.5-.5 1-8zm26 6 3.5 1.5.5 1.5 4-2v1l-12.5 7.5-.5 1.5-.5-1.5 7-5-4-2 2.5-.5 1.5.5-.5-1.5zm-19 2 6.5 2.5 1 14-2.5 1.5-1-4-2.5.5 1.5 2.5-4.5-2.5h2l-.5-2.5-1.5.5 2-3h-2l2-4-.5-1.5 1.5.5-.5-3.5zm-26 1 .5 12.5v2l-.5 2.5-1.5-6.5zm116 9q4 2.5 1.5 11.5h-1zm-64 1 5.5 1.5-1.5 2.5-5.5-.5 6-1-.5-1.5q-5 1-4-1Zm51 1 1 9 3-2-1 3 1.5.5-.5 7.5-1-6-15 4v-1l8.5-2.5.5-1.5 1 2 3.5-2.5-2-1zm32 4 1 4 1.5.5-1 4 1 8h-1l-.5-2.5-.5 7.5 1 9-1 9 3 1-.5 1.5-5 2-1-2-6.5.5-.5 2.5-.5-4.5 2.5-.5 2 1 4.5-1.5 1-12-.5-1.5 1.5.5-1-14 1-8zm50 0 12.5 2.5 1 2-3.5-2.5-5 1v-2q-6 1.2-5-1Zm-5 1 3.5.5-9 4-2.5 3.5.5-1.5 3.5-4.5zm-12 4-3.5 4.5q-3.7 5.8-2 17l2.5 4.5 3-2-1.5 2.5 1 4-1.5.5-5.5-11.5v-9l5.5-9.5zm-51 5 3 2 2-1 2.5 1.5.5 3.5 1-3 .5 2.5q-1.5 3-3 0l-1.5-3.5-2.5 1.5-.5 1.5-2.5-.5.5-2.5 1 2 .5-2.5zm-114 1 .5 10.5 1.5 1.5 16 5 1-2 .5 4.5-1.5-.5-18.5-6.5v-2zm83 1 3.5.5-4 1 1 5-1.5.5-.5-5.5zm-103 3 3.5.5-7 3q2.8 1.8-1.5 3.5l-.5-2.5zm16 0 .5 5.5-1 2 1 6-3.5 1.5-2-1-3.5 1.5-.5 1.5-.5-1.5 4-2 .5-1.5 4 2 .5-4.5-1.5.5-1.5-.5 2-1-.5-2.5-2.5-.5 2.5-.5 1.5.5zm109 3 7.5 3.5-2 4 1.5.5 1-2 2.5 1.5 1 2-2 6 1 2-.5 1.5 1.5.5-2 4 2 1-.5 2.5-5-2-.5 3.5h1l.5-2.5.5 2.5-2.5.5-2.5-1.5-1.5-2.5-1 3-.5-2.5q4.3-2.2 4-9h-1l-1.5 5.5-1.5-.5 3-8-2 1-.5 1.5-.5-1.5 1-2-1-2 1.5.5 1.5-.5-1-3 1.5.5 1.5-.5-1.5-2.5-2.5 1.5-.5 1.5-.5-1.5v-2l1-3zm9.5 9-2 6-1-1-1 2 2 1-1 2h2v-3l1-4zm60.5-5 3.5 5.5 1 4-2.5.5-2.5-.5 1-4zm-153 2 1 6 14 5 1-4 .5 3.5-.5 2.5-15-6-1 2-.5-1.5v-2zm63 3 .5 13.5-1.5 2.5-12-1-1.5.5v-2l-.5-5.5-1.5.5q1.5-3 3 0l.5 5.5 12.5-.5zm103 5 2.5.5-4 3 1 2-1.5-.5-5.5-1.5 3.5-1.5 2 1zm-191 2 2.5 1.5.5-1.5 4.5 7.5.5 2.5 2.5 1.5 5 11h-1l-7.5-12.5-1 2-1.5.5-.5 3.5-1-4-1.5-.5 3-1-.5-1.5-1.5.5 1-5h-2zm57 0 .5 6.5-2.5.5-1-2-4 1v-2l-6 1v-1l2.5-.5-3-1 .5-1.5 12 3zm117 0 6.5 1.5 1 2-2.5 1.5.5-1.5-.5-1.5-4-1-1 2zm-160 3 4.5 2.5-1 4q1.5 3 3 0l1-3-.5-1.5 4.5 1.5.5 3.5 1-3 4.5.5-3 1-1 3 3 1-5.5 1.5-.5-2.5-.5-4.5-1.5.5-1 3 .5 1.5-2-1h-2l-3-1-1.5.5.5-1.5-2.5-1.5 3-1zm46 1 8.5 3.5-3.5.5-5.5-1.5zm33 2 11.5.5-.5 1.5-1.5.5-.5 1.5-3 1-1-3-3 1-1.5-.5-.5 1.5zm71 1q5.4 10.6 5.5 26.5h-1zm-130 1 2.5 1.5 1 3-2.5.5-3.5-.5 4-1-.5-2.5zm143 0 2.5 1.5-.5 1.5-1-2-2.5 1.5.5 8.5 1-5 2.5.5-.5 5.5-4.5-.5.5-10.5zm-181 2 1 2 2.5.5-1.5 2.5-1.5.5 1 2h-1l-1.5-2.5-1.5.5q5-2 2-4zm-7 1 .5 2.5-3.5 7.5-1.5.5.5 1.5-1.5-.5 1 2h-2l1 2h-2l1 2h-2l1 2h-2l1 2-3 1-19.5 35.5-.5-3.5z"/><path fill="#8e8c86" stroke="#8e8c86" d="m471.5 186-.5 1.5-1 6 2-1 1.5-4.5h2l4.5.5 1 2-6 12 2 1 4.5-11.5.5 2.5-4.5 11.5-10.5-16.5h2l-1-2zm21 3 2.5 1.5-5.5 8.5-1.5-2.5h2l1-3-2.5 1.5-1.5-.5 2-1 1.5-2.5 1 2 1.5-2.5zm25 0q8.3-2.2 10.5 1.5l-1.5-.5-9 1zm24 0 8 1 5-1v1l-4.5.5 6 1 1.5 2.5h2l1.5-.5.5-1.5 13.5.5-7 1 2 1-.5 2.5-1-2-12.5.5 3.5 5.5 1.5.5 2 4 .5 3.5-6-7 3.5 2.5-6.5-10.5-2 1-12.5-1.5 4.5-1.5 2 1 .5-1.5-3.5-1.5-10 1v-1zm81 0 .5 12.5h-1zm-126 1 2.5 1.5 2 6-5 8 .5 3.5-1.5-.5-2.5-4.5-.5 1.5v2l2 4-3 2-5 11 2.5 1.5.5-1.5-.5-1.5 3.5 2.5-.5 1.5 2.5-1.5-1.5-2.5-1.5.5 2.5-4.5 2 3 2.5-3.5-.5-1.5 1.5.5 1 2h-2l-1 4 1 2-1.5 7.5-1-7-4 2-6.5-2.5-3-6 7-3 2-5h-2l2-4-2.5-3.5-1 3-.5-2.5 4.5-2.5 2 2 1.5-.5 4-9-1.5-3.5zm6 0 7.5 1.5-3 2-1 4 .5 1.5zm12 0 3.5 5.5-2-1-.5-2.5-3.5-.5z"/><path fill="#8e8c86" stroke="#8e8c86" d="m529.5 190 2.5.5-.5 1.5 3.5.5-11.5.5v-1l6.5-.5zm-10 1 4 6 1.5.5-1.5.5-2.5-.5 1-2-3-1 1-2zm59 2 1.5.5-.5 1.5-1.5.5 3.5.5 3-1v1l-1.5.5-.5 1.5-8-1-1.5.5 1-2h-2l.5-1.5 2 1h2l1.5-.5zm47 1 2.5.5.5 2.5 1-2 .5 6.5h-1l-.5-1.5-2.5-1.5zm-110 2 .5 2.5-4 6 4.5 2.5 2-5 2 3 1.5.5-3.5 5.5-2.5.5.5 1.5-3-4 5 1v-1l-7.5-3.5-.5-1.5-.5 2.5.5 1.5-1.5.5-6 11 2.5 3.5q-1.7-3.7-3.5-.5l1.5 2.5-1.5-.5-1 4 2.5 3.5 2-4 .5 1.5-1 4 4 3-2.5.5-1-2-2 3-1.5.5.5 1.5h-2l-6.5.5.5 1.5q-3-1.5 0-3l2-1 4 1v-1l-2.5-.5 5-1-1-3-.5-2.5-1 2-1.5-.5-.5 3.5-.5-3.5 3-2-2-5 2-3 .5-4.5 2.5-1.5 5-12-2.5-.5-2.5 1.5-.5 1.5-2-1-1.5.5 1.5-6.5 1 5 1.5-.5-1-5 2.5 1.5 2-1 4 3z"/><path fill="#8e8c86" stroke="#8e8c86" d="m533.5 197-.5 1.5-3 7 2 3h-1l-1.5-2.5-1.5.5 1.5 2.5-2.5.5-5.5 10.5-3-1 1 2 1.5.5 1 2-1.5-.5-1.5.5-2.5 4.5-1.5-.5-1.5-5.5-1.5.5-.5-4.5-2.5 4.5.5 1.5-2 1-.5-1.5 4.5-9.5 2 7 2.5-1.5-1 6 2-1 1-4-3-4 .5-2.5 3.5 1.5 1.5 2.5 6.5-11.5-4.5-5.5-1 2-.5-3.5 3 2 .5 1.5q3.2-2 0-4 3.8 7.8 7.5.5zm11 1 4.5.5-5 3 .5 1.5-1.5-.5.5 2.5 2-1 3.5 2.5-1.5.5-2-1v2l-6-7-3 9-2.5 1.5.5 1.5-1.5-2.5 2-1-.5-1.5-1.5.5 2.5-3.5.5 1.5.5 2.5 2-10 1.5.5 1.5 2.5 1.5-.5-1.5-2.5 1.5.5.5 1.5zm-106 2 .5 2.5-2 6h2l-3.5 6.5-.5-2.5 2-1-1.5-3.5-1.5.5zm149 0 6 6 1-1 2.5-.5-.5-1.5 2.5 1.5-2 1-1 2 1.5 2.5-5.5-2.5 1-1-5.5-5.5-1 4-.5-3.5zm38 0 2.5 1.5.5 2.5 1.5.5 1 3-3.5 4.5-1.5-.5 3-2-.5-2.5-1.5-.5 1-2-3-2z"/><path fill="#8e8c86" stroke="#8e8c86" d="m552.5 203 1 3 1-3 .5 2.5-2 6 4 1-3.5.5-2.5-1.5-.5-1.5-1.5.5-.5-1.5-1.5-.5 2.5-.5h2l1.5-.5-.5-1.5-2 1v-1l1.5-.5zm16 3 .5 2.5 2 3-2.5-1.5-1.5-.5-1-2zm17 0 1.5 2.5-7.5 1.5v-1l5.5-1.5zm-108 2 7.5 1.5-2.5 7.5zm22 0 2.5.5-3 4 2 4-2-1-3-5 3-1zm-42 1 7.5 14.5v2l1.5 2.5.5-1.5-1-2 3 2 2 5-1 7 1 2-2 1-4.5-6.5-1.5-.5-.5-1.5-4 8-.5-2.5v-2l-1-7h1l.5 4.5 2.5-6.5-2.5-1.5-1 2-.5-1.5 2-4h-2l3-2-.5-1.5-1.5.5 1-5zm154 2 5 1 1.5-.5 1 3h-1l-.5-1.5-1 2-3 1q-3.2-2 0-4l-2 1zm20 0 2.5.5v2l-.5 1.5-1.5.5-.5 1.5-6.5-.5 4-1zm32 0-5 6zm-132 1 3.5 5.5-1.5 3.5-1.5-.5 1 3-1.5 2.5-1-2-7.5-2.5 1.5.5 5.5-1.5zm134 1 .5 2.5-3 8 1.5.5 5-10 2.5 4.5-2 5 1.5.5 2-4 2.5 3.5-7.5 1.5.5-1.5 1-7h-1l-2.5 8.5-6.5-1.5-.5-1.5-1 2-1.5-.5zm-71 1 .5 1.5-4 3-.5 1.5-1.5-.5 2.5-4.5 2 1zm-140 1 .5 9.5-2 3 3-1-1 2 1.5 15.5 1.5-.5-9 13h2l-1.5 3.5-2.5.5-1.5 2.5-1.5-.5 1 2h-3l2-3q-3.2-1.2-2-7h1l.5 5.5 11.5-19.5v-5h-1L443.5 253l-1.5-15.5 4.5-7.5 1.5-.5v-2l1.5-3.5 3.5-.5-2-3 3-2v-2zm21 1 6.5 10.5q-1.5 3-3 0l-5-9zm83 0 5.5.5-4.5 1.5h-2l-3 1-2.5-1.5zm7 0 10.5 1.5-2 1-.5 2.5-1-2-8 2 1-2 3.5-.5zm14 0 2 1 5-1 .5 1.5-5.5 11.5-3.5 1.5-1 6v2l-.5 1.5-2.5-4.5h2l-.5-1.5-3.5.5-.5 2.5v-2l-1.5-.5 7-3-2-1-1-3q1.5-3 3 0h-2l1.5 2.5 2.5-1.5-.5-1.5 4.5-3.5 2-5-4.5-.5-3 1-.5-1.5zm40 2 2.5 1.5 12.5 24.5 1.5.5-1.5.5h-2l-5.5-1.5-1-3h1l1.5 3.5 3.5-.5-12.5-24.5-.5 2.5-1 4 .5 1.5-2.5-3.5 1-3-2-1z"/><path fill="#8e8c86" stroke="#8e8c86" d="m535.5 219 4.5 5.5 1 23v4l-2.5 5.5.5-1.5-.5-2.5-2.5-.5 3-1-6-3 1.5.5 2.5-.5 1-12-3.5-1.5-.5 1.5-.5 2.5-4-1-2 1v-1l1.5-.5-.5-1.5-5 1-2.5.5 1.5 2.5-3-2-2 1-2-1-3 1v-1l1.5-.5-2.5-1.5-1.5.5q3.2-2.3 2-9l-7-2 1.5.5 6.5 1.5.5 4.5q1.8-2.7 3.5 1.5h-2l-1 3 4.5.5v-2l2 1-3-5 2.5 1.5.5-2.5 3 6 5.5-1.5.5-2.5 2 4 1.5-.5-.5-2.5-1.5.5.5-2.5 2-1 4.5 3.5-1-3 1-3q.9-7.2-2.5-8.5Zm-103 1-.5 1.5-4.5 10.5-1.5.5.5 1.5-1.5-.5 1 2h-2l1 2h-2l1 2-3 1-1.5 2.5-1.5-.5 4.5-9.5 1.5.5-1-2 3-1zm131 2-.5 1.5.5 4.5 9-6v2l1.5.5-.5 1.5q-1.7-3.8-3.5-.5l2 1-7 4-1 2 1.5 3.5 3 2 1.5-.5-4 2-1 3-1 3 1.5.5 4-1 1 2-2.5 1.5-.5 1.5-2-1-5 7v-3l1.5.5 3-6q-1.7-4.3-3.5-1.5l-1.5-.5 6-5-1.5-.5-4.5 3.5 4-5-2.5-3.5-3 2-2.5-1.5 6-4-1-3 1-3h-1l-.5 1.5-2 1zm37 3v2l1.5.5 2 4-2 1-3-6zm6 0 2.5 1.5-.5 1.5 1.5-.5.5-1.5 1.5 2.5-3.5.5-1-3zm-21 2 1.5 2.5h-2l1 2h-2l1 2-2-1zm-103 1 1.5.5 6 11-2-1-.5-1.5-3.5-1.5-3-6zm-100 1 1 2q-1.7-2.8-3.5 1.5l-.5 1.5-1.5-.5.5-2.5q2 3 4-2Z"/><path fill="#8e8c86" stroke="#8e8c86" d="m549.5 229 1.5.5 1.5 6.5 2.5.5-3 1 2.5.5 2-1-1 2-2.5 1.5-1 3 5 2-3 1 .5 2.5 2.5-1.5-2.5 5.5-1-4-.5 2.5-.5 3.5-3 1-1-2-1.5.5 6-7-4-2 .5-2.5 1.5-.5-2-1 2-3-1.5-2.5 1.5.5-.5-1.5-4.5 1.5.5 6.5 1.5-.5q-1.5 3-3 0-1.5-6.5 2-8-3-2 2-4zm41 1 3.5 1.5-.5 1.5-1.5-.5-1 4h1l1.5-2.5 2.5 1.5 1 2-3 1 1 2-2 1 1 2-4 8 1.5.5 3.5-1.5 3.5-7.5 1.5 3.5h-2l-2 5 2 1-1.5.5h-2l-5.5-.5 1-5h-1l-1.5 5.5-2-3-1 3-3.5 1.5 1 4-5 12-.5 2.5-1.5-.5 2-1-2-4 2-4h-2l12.5-26.5 1.5.5-1-2zm-118 3 12.5 21.5 1 9-1.5 5.5-2-6-.5 13.5 1 2-1 4q3.1 11.9 2 28l2 7-1.5.5-1.5-3.5v-2l-1-13v-2l-2.5-46.5-1.5.5-1 3 2 1-.5 1.5q-5.2-.7-4.5-7.5h1l1.5 2.5 1.5-3.5-4.5-7.5-1 13-.5-14.5v-2zm191 2 3 1 4-1v1l-2.5.5 1 2v2l1 5v2l-.5 3.5-1.5-.5 1 5-4 2-2.5 3.5-2-1-1 2-.5-1.5 1-3-1-3 3-2 .5 1.5 2.5-4.5-1.5-.5-1 2-.5-1.5 3-7-1-2 1-4-1.5-.5-1.5.5zm-4 1 .5 10.5h-1zm-45 1 2.5.5-.5 1.5 2.5 1.5-.5 2.5-3-4-1.5.5zm-219 2q4.5 2 2.5 10.5h-1q1.2-8.5-1.5-10.5Zm132 1 4.5 6.5q-2.5 2-5-2l3 1zm-17 2 2 4 9 3 1-2 .5 2.5-2 1 .5 1.5-3-1v1l1.5.5-2 1 2 1 1 2-.5 1.5 1.5.5 3.5 7.5 3-1v1l-3 1-8-13-5.5-3.5 2-1-6-4 4 2-2-3zm-71 1 .5 4.5v2l1 4h-2l2 5-2 1-7.5 13.5q-3.2-1.7-1.5-8.5l1-2 .5-2.5q1.8 2.8 3.5-1.5l-.5-1.5-2.5 1.5v-2l2.5-4.5 1.5.5-1-2 2-1v-2zm170 3 2 3 1.5-.5-1 2h2q-1.5 3-3 0zm-228 2 .5 2.5-1 3-.5 2.5-.5-4.5zm124 0 .5 2.5-4.5 2.5-2-3 4 2z"/><path fill="#8e8c86" stroke="#8e8c86" d="m600.5 248 3.5 2.5 3 6h-2l.5 2.5 1.5-.5-1.5 3.5-1-3-1.5 3.5 1 2-2.5 3.5-1.5-.5 3-4-3-1 .5-5.5 1 4 1.5-4.5-.5-1.5 2 1 .5-2.5h-2l-.5-1.5-2 4-1.5-3.5 2-1-.5-2.5-1 2-.5-1.5zm21 0 3.5 4.5-2.5.5-4.5-1.5 1.5.5 2.5-.5zm16 0 3.5.5-4 1 5 7h-2l.5 2.5 2-1v2l1.5.5-1 2 3 1-.5 2.5-1.5.5q3.5 1.5 2 8l-2-1 .5-1.5-2.5-1.5-7-10h2l-3.5-6.5-.5 1.5 2 3-2-1-2-4h2l-1.5-3.5-1.5-.5zm-213 2 .5 1.5-1 3 .5 1.5 2.5-1.5-1.5 2.5-5-1-1 2-1.5-.5 1.5-2.5 3.5-.5-2-1 1.5-2.5zm46 0 .5 5.5-.5 2.5-3.5-2.5 1.5-.5 1.5.5zm59 1 5.5 6.5-2 1-.5 1.5-1.5-2.5h2l-1.5-2.5-3.5.5zm-133 2 .5 1.5-12 14-1.5 6.5-1-3-6 7-1.5.5-16 21-5 9v5l1 3-2-1-1-4 6-13 24.5-29.5 1 2 .5-4.5h-2l1.5-5.5 1 5 10-12 1.5-.5zm257 1 1.5 2.5-1 2h2l-1 3h2l-.5 1.5-2.5-1.5zm-141 1 1.5 8.5h-1l-2-7zm136 0 2.5.5 1 7h-1l-.5-3.5-1 2-.5-2.5 1-2h-2zm-28 2-.5 1.5 3.5 4.5 4.5 2.5-1 4 .5 1.5-2.5-4.5.5-1.5-2 1q2.1-3.2-4.5-6.5zm-196 1 .5 1.5-2 1-.5 2.5-8 1 1.5-2.5 1.5-2.5h2zm33 0 5.5.5-.5 1.5-3-1-4 3v-3l1.5.5zm30 0 1.5 2.5-.5 1.5 2.5 1.5h-3zm29 0 1 2-1.5-.5 1.5 3.5 1.5-.5-.5-1.5 4 5-3.5-2.5 3 4-6-4-.5 2.5-.5-6.5zm19 1 3 3 7 1 2.5.5 3 7-.5 1.5 2-1 .5 2.5.5 1.5 1.5-.5-3.5 1.5q-6.2-2.7-1.5-5.5l-.5-1.5-1.5.5.5-1.5-3-2-2.5.5-.5 2.5-1-3-3.5-1.5q3.2-2.2-2.5-4.5l-1.5.5zm79 0-1 2-2.5.5-.5 4.5-.5-5.5zm-216 3 .5 1.5-5 10 .5 1.5-2.5.5-2 5h2l-3 1 1 2h-2l-.5 3.5-1.5.5.5 1.5-2-1q3.5 2.5-1 5l-1.5.5-.5 2.5-1.5-.5 6.5-14.5 2.5-1.5zm154 0q6.7-1.7 8.5 1.5l-1.5-.5-3 1-1.5-.5 1 3-2.5-1.5-1.5-.5zm-112 1 .5 5.5-9.5 13.5-1.5-4.5 3-1zm57 1 1 2-1.5-.5 1.5 2.5 2.5.5h-2l1.5 2.5 1.5-.5-1 2 3 1-1.5 2.5 2-1 1 2-3.5.5-1-2 .5-1.5-2.5-1.5.5-1.5-1.5-.5-2-5zm84 0 1.5.5-1 4 1 8-2-1 1-6h-1l-2 9h1l.5-1.5.5 1.5-4 8h1l4.5-8.5.5 2.5-2 1-1 6 2-1 .5-1.5.5 4.5h-2l1 3-2 1-1.5-2.5-1.5-.5-2-15h1l.5 2.5 5.5-12.5zm24 0 .5 23.5h-1zm-179 1 .5 2.5 1 12q-4.9 1.6-4 9h1l2.5-3.5 1.5 4.5h-1l-.5-2.5-3.5 8.5h1l2.5-4.5 1.5 4.5q-6.3 5.8-5 19l.5 1.5-1.5-.5-1.5-13.5-2 3-1.5-5.5h1l.5 2.5 2.5-6.5h-1l-1.5 2.5-1.5-5.5 1-2-1-2v-2l1-5-1-3zm61 0 4.5.5 6 12-.5 1.5 1.5.5-2 4h2l-1.5 5.5-1.5.5 3 2-.5 1.5-2.5-1.5-2-4h2l-1.5-2.5-1.5.5-4.5-13.5-1.5-.5z"/><path fill="#8e8c86" stroke="#8e8c86" d="m558.5 265 1 4 1-4 .5 7.5h-1l-.5-2.5-1 3-.5-2.5v-2zm11 0 2.5.5-1.5 3.5-1.5-.5.5 1.5 2.5.5-2 6 2 17-2-1-2-3h2l-1-9 1-3v-2l-1.5-5.5-2 7-.5-5.5 1.5-3.5 1.5-.5zm-154 1 6.5.5-2 1-.5 1.5-2.5.5.5 1.5 1.5-.5-5.5 1.5v-1l2.5-1.5-.5-1.5-3.5.5 2 1-3 1-.5 1.5-.5-1.5 2.5-3.5zm92 0 12 14 3.5 1.5-1.5.5-2-1v2l-2-4h-2l-1.5-.5zm143 1q0 14.5 7.5 21.5l-1.5-.5-1.5.5.5 1.5-2-3 2.5-.5-2-1-2-4 .5-1.5-1.5-.5-.5-2.5-1 3-.5-2.5zm-39 2 2.5.5-1.5 2.5-1-2-.5 10.5 1.5 2.5 1.5-.5-.5 1.5-2.5-.5-1-13zm4 0 6 11 1.5-5.5-1-4 1.5-.5 3.5 9.5-1 3 3-1q-2.5 4-5 2l-1.5-2.5-2.5-1.5zm-53 1 2.5.5-2 1-.5 7.5zm-77 1 .5 16.5h-1zm-45 1q3.3 1.8 1.5 8.5h-1l-.5-6.5-10 19-.5-9.5h1l.5 2.5zm91 0q2.4 6 10 7l2.5-1.5-4.5 2.5zm15 0 5.5 6.5-5-3-.5 1.5zm-138 3h2l5.5.5-2.5 3.5-1.5.5.5 1.5-4 1-3-1-1.5.5zm156 1 1.5 8.5h-1l-.5-2.5-1.5-.5zm72 0 3.5 1.5 2 3-2.5.5-2.5-.5 3-1zm-81 1 2.5 1.5 2 3-3-2-.5-1.5q-3.2 1.8.5 3.5l4.5 6.5 1-2 1.5 2.5-2.5.5-4 3 1.5-2.5-6-10 2-1zm-51 1 2.5.5-1 2 3 1 1 2-4 1 2-3-3 1 .5-1.5-2.5-1.5z"/><path fill="#8e8c86" stroke="#8e8c86" d="m630.5 280 1 3 2-1 1.5 3.5h-1l-.5-2.5-2.5 1.5 1 2-2 1-3.5 9.5-2.5-1.5-.5-1.5q-1.7 2.8-3.5-1.5l3-2-.5-2.5-1.5.5.5-1.5 1.5-.5-1-2 2 1 .5 2.5 1.5.5.5 2.5 3.5-5.5-1.5-.5-1.5.5 4-2zm-167 1 1.5 10.5-2-1zm76 0 4.5 2.5 1 4h-1l-2.5-5.5zm-52 2 .5 14.5h-1zm114 0 1.5 7.5q-3.9 2.3-.5 4.5l-2.5-.5.5-1.5-1.5.5-1.5 2.5-3.5-.5 3-1 .5-1.5 3.5-2.5-1.5-.5-1.5.5 3-2zm14 0 1 3 2.5-1.5.5-1.5 1.5 2.5-3.5 1.5-2 1-2-1 1 3-2.5-1.5-.5 3.5-.5-4.5 4-2zm58 0 5 6-5.5-3.5zm-267 1 3 1 1.5-.5-2.5 3.5-8 1v-1l1.5-.5.5-2.5h2zm38 0 2.5 4.5h-1l-.5-1.5-.5 5.5 3.5.5-1-3 2.5-.5-.5-1.5 1.5 1.5-2.5 4.5-4.5-.5zm56 0 1.5.5 3 6h-2l1.5 2.5 2.5.5 1 2-1 3 2.5 3.5 1-2 .5 1.5-1 2 4 2 1 2-.5 1.5 2.5 1.5 1 3-1 3 2 1-1-2 1.5-.5 2.5 4.5-2.5 1.5-35 1-3-1-11 2-2.5-.5.5-2.5 39-2 3 1 3.5-.5-1-6v-4l-1.5-3.5-1 5-1.5.5 2 1-.5 3.5-2.5-1.5-7-18v-6h2l-1.5-2.5-1.5.5zm46 3 1.5.5 4 5-4.5-3.5-1.5-.5zm-131 1 .5 6.5v9l-6 11 3.5.5 2-5 .5 5.5-6.5.5-3.5-1.5 1-5-1-2v-2l3.5-9.5 1.5-.5 2.5-4.5-1.5 2.5-3 9 2-1 4-7v-4zm97 0v2l2.5 1.5-.5 1.5 2.5 1.5-.5 1.5 2.5 1.5 22.5 36.5 1.5.5-3.5.5-1-2-1 2-1.5-2.5 1-3-1.5-.5v2l-2-3 1.5.5-1.5-2.5-2.5-.5h2q-6-18-18-30l.5-1.5-2.5-1.5.5-1.5-2.5-1.5zm18 0 1.5.5 1.5 4.5 1-2-1.5-.5.5-1.5 6 6h3l1.5-.5-4.5 1.5-5-3-2.5.5-.5 1.5zm117 1 3.5 4.5h-5l2-3zm-245 1 2 1 2-1 .5 1.5-3.5 2.5-1-3-1 2-1.5.5 4 2-8.5 2.5 1-2 3.5-1.5-3-1zm159 0 1.5.5 5.5 7.5 1.5-.5-1 2h2l1.5 4.5 1.5.5-1.5.5-5-6-1.5-.5-.5-1.5-1.5.5 1 2h-2l1 5-4 3 3-5h-2l2-8zm96 0 1.5.5-2 1 3.5 1.5 1.5-.5.5-1.5.5 1.5v2l3 5-3-2-.5-1.5-1.5.5.5 1.5-5.5-6.5zm-22 2 5.5 3.5-1.5-.5-3-2-.5 3.5 3 4h-1q-4.4-2.3-2.5-8.5Zm-89 2 3 6 1.5.5.5 1.5 1.5.5.5 1.5 2.5.5-2.5.5-1.5.5.5 1.5-5.5-4.5-.5 5.5-.5-7.5 1-3h-2z"/><path fill="#8e8c86" stroke="#8e8c86" d="m619.5 295 8.5 3.5-4 1 .5 1.5 4-1 2 1 1.5-2.5-.5-1.5 1.5.5 1 7h-1l-.5-1.5-3.5.5.5 1.5-4.5.5 1.5 2.5-4-5-2.5-1.5zm-177 1 .5 1.5-1.5 2.5 1.5.5-.5 9.5q1.6-8.1-2.5-10.5zm160 1 4.5.5-3.5 1.5-17 3-3-1-6 2-.5-1.5zm75 1-2.5 3.5-.5 1.5-2 1-.5-1.5zm-204 2 3.5.5-3 1 .5 1.5 1.5.5-.5 1.5-1.5.5-.5 1.5zm172 0 .5 1.5-4 2 .5 1.5-2.5-3.5zm-216 1 .5 12.5h-1zm15 0 2.5 1.5.5-1.5 1.5.5-2 4h1l1.5-2.5 2.5.5.5 1.5 3-2 .5 2.5-1.5.5h-2l-5 2-1.5-.5.5 8.5 5.5.5-5.5.5-2.5-8.5v-2z"/><path fill="#8e8c86" stroke="#8e8c86" d="m450.5 301 7.5 1.5.5 13.5 1.5.5-2.5.5-1-15q-7 1.5-6-1Zm10 0 10.5.5-.5 4.5-1-2-1 2-1.5-.5 1.5-2.5 1.5-.5-6.5-.5 1 2 2-1-.5 1.5-.5 2.5-5-1-1.5.5v-2zm143 0 5.5.5.5 1.5 4-2 2.5 1.5 1 3-3.5 1.5-4 1h-2l-5.5-4.5zm-9 1 3.5.5 1 3-3 2 2.5.5 1.5-.5-9 3 1.5 4.5-2-6-4.5-2.5-1-2 7.5-1.5q1.8 3.8 3.5.5zm-202 2h2l4.5.5-.5 1.5-4-1v2l-4.5-.5.5-1.5 2 1zm138 0 1.5.5.5 1.5 2.5.5-.5 2.5-2.5-1.5zm49 0h2l2.5.5-1.5 4.5-4 1-1.5-4.5h1l1.5 3.5 3.5-2.5-.5-1.5-3 1zm42 1 3.5 5.5-2.5.5-4.5 1.5.5 2.5 12-1 .5 1.5-1.5-.5-9.5 2.5 6 4-3.5.5-3-2-1.5.5 1-3-2-5 1.5-3.5 2 1 3.5-1.5zm50 1 11 10 4.5-1.5.5-1.5 3-1 1 2-4.5 1.5-2 3 .5 1.5-2-1 .5 1.5q-1.5 9.5-7.5 14.5l-.5-1.5q6.1-3.9 7-13l-5-3-.5-2.5-1.5.5-1.5-3.5-1.5.5-.5-2.5-1.5.5zm-276 2-1 2-3 1h-2l-1.5-.5 2.5-1.5 2 1zm7 0 1.5 5.5-4.5 2.5q-3.2-1.7.5-3.5zm135 0 2.5 1.5-.5 1.5 4.5.5-4.5.5-3.5-2.5zm-105 1 1 7 9.5.5-9.5.5q-3.4-1.9-1-8Zm39 0 1 8 1-8 1 8 3.5.5-16.5.5v-1l9.5-.5zm131 0 .5 1.5-1 2 1.5-.5 2.5-.5-2-1 1.5-.5 1.5 2.5-6.5 3.5.5-3.5zm-53 1 3.5 2.5h-2l1 2-1.5.5-1.5-2.5 2-1zm148 0 7.5 2.5-.5 1.5-1-2-3 1zm-64 3 3.5 2.5h-2l-.5 3.5-.5-2.5 1-2zm22 0 5.5 3.5-4.5 1.5-.5-1.5zm-59 3 2.5 3.5-2.5 1.5-2-1-1 3-3.5-.5 1.5-2.5 6.5-1.5zm16 0 3.5 2.5-3.5-.5-10 3-2.5-3.5 1.5.5zm-74 1q1 5 8 4l2.5-.5.5-1.5.5 1.5q-3.9 2.3-.5 4.5l-1.5.5 2.5 3.5q-2.2-5.3-4.5-1.5l.5 1.5-2.5-4.5 3-2q-8 .2-8.5-5.5Zm-150 1 2.5.5-.5 2.5-4 2-1-3-1 3-3.5-.5 2.5-3.5h2zm18 0 1 2 8.5.5-8.5.5zm11 0 19.5.5-19.5.5zm24 3 17.5.5-17.5.5z"/><path fill="#8e8c86" stroke="#8e8c86" d="m686.5 321 4 5-5.5-3.5zm-345 1 1.5 2.5h-2l1 10 3.5 5.5 4.5 1.5-2.5 1.5-1-2-1.5.5-.5-1.5-2.5-.5-1-3 .5-1.5-1.5-.5 1-7-1-3zm158 0 12.5.5-12.5.5zm86 0 4.5 4.5-1.5 1.5zm-187 1 4.5.5.5 2.5 2-1 .5 2.5-2 3 1.5.5 2-3 .5 1.5-4 3-2-4 1-2-1.5-.5-1 2-1-2-.5 4.5 3 1-.5 1.5-2.5-.5zm184 0 3.5 2.5-3-1 1 4-2-1zm-133 1 3 1h2l2.5.5-10.5.5v-1zm50 0 14.5.5-14.5.5zm-120 1h2l2.5.5-.5 1.5 2.5.5-2.5 1.5-2-3-2.5 1.5-.5 1.5-.5-1.5zm32 0 4.5.5-6.5 2.5-1-2zm7 0 2 1 4-1 1 2-4-1h-2zm57 1h20l2.5 1.5-.5 3.5-2.5-1.5-.5-1.5-1 2-.5-1.5.5-1.5h-18zm44 1 .5 2.5-1 4h2l.5 2.5 1.5-.5-1-2h1l4 9h-1l-.5-1.5-1 5-1-4-1 3-.5-3.5.5-1.5-1.5-.5-.5-2.5-1 4-1-3-1.5.5 1-7-1-3zm5 0 1.5.5-1 3 3 2 2 4-2.5 3.5-1.5-4.5-.5-2.5-1.5.5 1-2zm43 1 2 1 1.5-.5q-1.2 3.8-7.5 2.5v-1l4.5-.5zm91 0 1 2 2.5.5-1 2 .5 1.5-3-4-1.5.5zm-243 2-.5 1.5.5 1.5q2.2-5.2 4.5-1.5l-6 3 .5-1.5-1.5-.5.5-1.5zm79 1 2.5 6.5h-1l-.5-1.5-1 8zm10 0 1 5 1.5-.5.5-1.5.5 1.5-2.5 1.5-1.5-.5-.5 1.5-1-2-.5 4.5h2l-1.5 2.5-1-2-1.5.5 1-2-1-3 .5-3.5 1 2 2.5-.5-1-2zm-41 1 1 2 1.5-.5-.5-1.5.5 2.5-1 3 5 4-1.5 3.5-2.5-4.5.5-1.5-2 1 .5-3.5zm182 1 1.5 2.5-2 1 .5 1.5 1.5.5-.5 11.5-2.5-1.5.5-3.5 1 4 .5-7.5-2-4 .5-2.5 1.5-.5zm-233 1 .5 1.5-3.5 5.5 2.5-5.5zm257 0v2l2-1 2.5 1.5-2 1-.5-1.5-1 3-2.5-1.5zm-301 1 .5 1.5-2 5 .5 1.5-6-1-1 2-10.5-.5 17-4zm18 0 2.5.5-2 1-2 3 .5 1.5h-2l-7 1h-2l-5.5-.5 16-3zm52 1 1.5.5-1.5 2.5-2.5.5-2.5 3.5-1.5-.5zm-39 1 2 3 2.5.5-1.5 4.5-1.5-.5 2-1-.5-3.5-1 2-1-2-1.5-.5zm196 1 4 1 3-1 .5 1.5-3.5.5-3 1-1.5.5 2 1-2 1 2 1-2.5.5-.5-1.5zm-190 1 3 4 1.5-.5q-2.5 4-5 2v-2zm91 0 .5 14.5h-1zm183 0 1.5.5-.5 1.5 2-1 1 2h2l3.5.5-2.5 1.5-6-2-1.5.5.5-1.5-3 1v-1zm-261 1 1 2 2.5-1.5-5.5 4.5.5-1.5zm194 0 1.5.5-2 1 2.5.5 1-2 .5 1.5-3.5 1.5q-3-1.5 0-3Zm29 0 1.5 5.5h-2l1 2-1.5.5-.5-6.5zm-6 1 2.5.5-.5 1.5-1.5-.5.5 1.5 1.5.5-2.5 3.5-.5-1.5 1-2zm24 1 1.5 5.5v2l-.5 2.5-1.5-.5zm-273 1 1.5 13.5-1.5.5zm304 0 8.5 3.5-.5 1.5-3.5-.5.5-1.5-4 2v-2l-3 1v-1l2.5-1.5zm-107 1 3.5.5-1 2 2 3-4 3 3 1 .5 3.5h2l1.5-.5-1-4 2.5-.5 3-1 2.5.5-4 2 .5 1.5 3-1-2 3-7.5 1.5 4.5.5 7-1 2 1 5.5-3.5.5-1.5 1.5-.5-.5-1.5h-2l-1.5-.5 3.5-2.5 1.5 4.5-.5 1.5 2.5.5.5 1.5 2-1 1 2-7-2-.5 1.5 3 1-10.5 2.5-2-1-1.5 3.5 3 2-1 3 2 11v2l1 24-8 5-4.5 7.5-1.5-.5 2-1-1-2 2-1 1.5-3.5 1.5-.5 5-8v-8l-1.5-.5-5 8-2-1-.5 1.5-1 3-2 4 3 2-.5 2.5-1-3-4.5-.5.5-1.5 1.5.5 5.5-11.5 1.5-.5 6-11-1.5-6.5-5 7-2.5.5q-.5 7.5-5.5 10.5-3.2-1.7-1.5-8.5h1l.5 5.5 7-12 1.5-.5 5-9v-2l1-5-1.5-.5-3.5 3.5q4.8 2.8-1.5 5.5l-2.5 1.5-6.5 10.5-.5-2.5 8-11-3-2 4-2 5-7-1.5-2.5-1.5.5-7.5 11.5-1.5.5-1.5 2.5-1-6q1.8 3.7 3.5.5l1-3-.5-1.5 2.5-.5-3.5-1.5-1 5-1.5-.5 1-2-2.5-.5-3.5-1.5-.5-1.5-1.5 2.5 2 1-1.5.5h-2l-3.5-.5-.5-1.5-1.5.5 1 2-3.5.5h-2l-9 1-2-1v2l-3.5.5.5 1.5-2 1-2-3-.5 2.5.5 1.5 1.5.5-9 13 2.5.5 6-9 1.5-.5 1.5-3.5q3.8 4.3 1.5 14.5h-1l-.5-1.5-1.5.5-6.5 10.5-1.5.5v2l-1 3 2.5.5 9-14 1.5 2.5 1 23-4 3 1.5 3.5 1-2 2.5.5-.5 3.5-1.5.5 2 5-4.5 6.5-1-3-1.5.5 4-9q-1.5-3-3 0l-3.5 8.5q-6.3-2.7-1.5-5.5l1.5-3.5 1.5-.5 4-7v-6l-1.5-.5-2 4-1.5.5 1 2q-5.5 3.5-6.5 11.5l-3.5-4.5h2l1-7-1.5-.5-1.5.5 1-3-2-1 .5-4.5 1 4 2.5-5.5-4-2 3-1-3-1 1-5-1-2 .5-2.5 2.5-1.5 1-2-1.5-2.5-1 4-1.5-3.5-1-2v-2l2-4q-3.7-1.7-2-9h1l.5 5.5 2-4 1 3 3.5-2.5 2.5-5.5 2.5.5.5 2.5 2-4h2l3.5-.5-2-1 1.5-4.5 7-2-.5 1.5.5 1.5 2.5-1.5 2-3-1-3 .5-1.5-1.5-.5 2.5-3.5 1.5.5-2 3 2 1-1 3 2.5 1.5h2l1.5-.5-.5-1.5 4 2 4.5-1.5 1-3-1-2 2.5-1.5v1l-1.5.5.5 1.5 3.5-1.5-1.5-2.5-1.5-.5 2-1-2.5-.5-1 2-.5-1.5zM569 358l-1 2h-2l-1 2-2 1h3l1 2v-1l4-2-1-1zm-12 2-2 3h2l1 3 4-2v-1q-2-4-3 0v-1zm-6 18-6 9-5 4-1 2 2-1-1 2h2l9-13zm1 15-12 21 2 2 10-18zm111.5-49 1.5 3.5-1 3 .5 1.5-1.5-.5z"/><path fill="#8e8c86" stroke="#8e8c86" d="m601.5 345 1.5.5-3 2 1.5.5 1.5-.5-3.5 1.5-.5-1.5zm-201 1 2 4 1.5.5-.5 1.5-3-5-.5 3.5.5 1.5-1.5-.5zm218 0 1.5.5.5 1.5 1.5.5-2.5 6.5-2.5.5 10 1-9.5.5-5.5-3.5 3-1-.5-1.5-2 1v-3l2-1 1.5 4.5-.5 1.5 3.5-1.5-1-2 1.5-.5v2l1.5-.5-.5-2.5-2.5-.5z"/><path fill="#8e8c86" stroke="#8e8c86" d="m631.5 346 1.5 2.5h-1l-.5-1.5-2.5 3.5 1.5.5 2-1 2 1v-2l2.5.5-1.5 2.5-7.5 1.5 3 2-2.5.5-2-3-4 1v-1l2.5-.5-1-3 .5-2.5 4 2zm-108 1 2.5 4.5h-1l-.5-1.5-.5 2.5 2 1 3 20v2l1 7v2l-.5 1.5-5.5-23.5zm-67 1 25.5.5-25.5.5zm63 0 .5 1.5v2l-.5 11.5q-3.6-3.9-1.5-13.5zm58 0 2.5 1.5-.5 2.5-1-2-1.5.5 1 2-2-1zm-101 2 2.5 1.5-13.5 3.5 1-2 6-2h2zm124 0 2.5.5 3 4-2.5.5-1-3-3 1-.5-1.5zm-175 1-1 3 6.5.5-8.5.5z"/><path fill="#8e8c86" stroke="#8e8c86" d="m481.5 351-7 8-7 1-8.5-3.5 4.5-.5 8.5 1.5-5 1 5.5.5zm-81 2 3.5 1.5-1.5-.5-2.5.5.5 3.5 2.5-1.5-3.5 2.5-.5-4.5zm-73 1 11 7 6-2 1 2-7 1-3-2-3 1v-2l-2-1q-1.7 2.8-3.5-1.5zm309 0-.5 1.5-2 3-.5 17.5-.5-17.5zm-149 1 .5 5.5-2 1-.5 1.5-.5-2.5 2-3-2-1zm-55 1 10.5.5-10.5.5z"/><path fill="#8e8c86" stroke="#8e8c86" d="M481.5 356q3.8 2.3 1.5 10.5l-1.5.5-2.5-5.5v-2zm192 0h2l2 1 1.5-.5 1 2-1.5.5-3-2zm17 0 .5 23.5h-1zm-272 1 2.5.5-3 1 10 1-10.5.5-.5-1.5zm130 0 1.5 3.5-1.5 2.5-1.5-.5 2-1-.5-1.5-1.5.5.5-1.5-1.5-.5zm161 0q3 1.5 0 3-2.2-3.2-4.5 2.5l.5 1.5-1.5-.5-.5 1.5-.5-1.5zm-51 1-.5 1.5 1 2-.5 1.5 1.5.5-1 3-.5 23.5-5.5-.5.5-2.5 1 2 2.5-.5 1-11-1.5-14.5-2.5-.5 1-2-.5-1.5 1.5.5.5 1.5zm-271 2q3.8 2.3 1.5 10.5h-1zm12 2 2.5.5 1 5-3 2zm88 0 .5 3.5-2 1 .5 1.5 1.5-.5-1 2 2 3-3-2-1-5zm-60 1 3.5 1.5-3 12 1.5 2.5-2.5-1.5 1-13h-1l-.5 1.5-.5-1.5zm23 1 4.5 1.5.5 2.5h2l2.5-.5-1-2 5.5-.5h2l4.5.5 1 10-1.5-.5-2 1h-2l-1.5.5 7 1 1 16h-1l-.5-11.5-6 4-.5-2.5 2-1-2.5-1.5-1.5 2.5-.5 22.5-1.5-.5-1-20h1l.5 14.5.5-24.5-1.5-3.5-.5 2.5-.5 5.5-2-1-4.5 11.5v4l-2 9 1.5 2.5-1.5-.5q.8 9.3-4 13l2 19-1 6 1 2-1 10 1.5.5v-2l4 1 5-1 3 1 2.5.5-2 1-.5 6.5-4-2-2 1-3-1-3 2-2-1-2 1-1-2-4.5.5.5 3.5 3.5.5-3.5.5-1.5-4.5 1.5-2.5 2 1 1-2 5 1 1.5-.5.5 1.5 1-3 2.5-.5-3.5-.5-2 1-2.5-4.5v-2l1-13h-1l-.5 3.5-1-6-2 8-2.5 1.5-.5 6.5-.5-13.5 2-1-1-4 1-4-1.5-11.5-1 10-.5-19.5 1.5-.5 1 2 1.5-.5-2 3 2 5v2l1.5 11.5 1.5-.5.5 5.5 1.5-7.5v-2l-.5-6.5-1 2-.5-8.5 1.5-7.5 1 7 1.5-6.5-1.5-2.5 2.5-.5-4-3-1.5 11.5-1.5-4.5 1-2-.5-1.5 1.5.5 1-11-2-2v-17l1.5-2.5 22.5-.5-1.5-2.5-2 1h-2l-10-1-12.5 1.5.5 1.5 2-1v1l-1.5.5 2 1-1 4v2l2 22h-1l-.5-6.5-1.5 5.5-.5 2.5-1-2-2.5-.5.5-26.5 1.5-.5-1.5-4.5 10.5-1.5-.5-1.5zm-7.5 70-3 7 1 2v-1l2-1zm48.5-70 27.5 2.5-.5 1.5h-15l-2-2-10 1zm137 3 .5 31.5-2 1zm11 0 3.5 1.5-.5 4.5-1-3-1.5.5 1 2-4.5 1.5v-1l2.5-1.5zm-61 2 1 17 1.5-.5-1 2 1 13-1 2 1 2v2l-.5 3.5-1.5-.5 1-9-1-3-1-2 2-1-2-6v-2zm-12 1-.5 1.5-1 13-3.5 4.5-1.5-.5.5 1.5 4.5 2.5-.5 1.5-2-3-6 1v-2l-1.5-.5.5-1.5q6.9.9 8.5-3.5l-1-13zm-166 1 .5 12.5h-1zm231 3 1.5 4.5v2l-.5 8.5-.5-2.5-1-4v-2zm-146 2 2.5 1.5 1 15-1 3 1 7-1 2 1 3-1 4 1 3-1 3 2 17-2 8 1.5 10.5 1.5.5-3.5.5-.5-3.5 1-2-1-3-.5-1.5-1 9-.5-11.5 3-2-1-2v-2l-1-6 1-2v-2l-1-12 1-2-1-4 1-2-1-2 1-2-1-3 1-2v-4l-2-3 2-4zm129 0 1.5 4.5-2.5 4.5h-2l-1.5-.5-.5-1.5-4 2-1.5-4.5 2.5-.5 1 2 7.5-1.5zm-181 1 1.5 9.5v2l-.5 11.5-1.5-1.5v-18zm42 1 1.5 15.5-1 2 .5 1.5-1.5-2.5v-2zm217 0 1 14 1.5.5-2.5.5zm-66 1 .5 10.5h-1zm-52 4 1.5.5-1 6 .5 1.5-.5-2.5-.5-3.5-1.5.5zm-78 1 .5 16.5h-1zm-107 1 1.5.5-1 8 .5 1.5q-3.8-2.3-1-10Zm35 0 .5 19.5-2 1 .5 1.5 1.5-.5-1 9h1l.5-2.5.5 2.5-2.5 4.5-.5-2.5v-2l-1-12 2-1-2-6 2-1-.5-2.5-1.5-.5.5-3.5 1.5.5-.5-1.5-1.5-.5.5-1.5zm223 0 .5 6.5-6.5 1.5v-1l5.5-1.5zm-166 2 .5 18.5h-1zm47 5 .5 11.5h-1zm-143 1 2.5 10.5-1.5.5-2.5-9.5zm272 0 2.5.5-1.5 4.5-3 1v-1l1.5-.5zm-256 1 .5 10.5h-1zm271 0 9.5.5-8.5 1.5zm-171 1 1.5 9.5-1 6 1 3-1 3 3 1-2.5.5-1.5-1.5zm-2 1 .5 14.5h-1zm66 0 1.5.5-1.5 12.5-.5-5.5v-2zm-71 1 .5 13.5h-1zm151 0 1.5.5.5 7.5 1-7 .5 6.5v2l-.5 6.5-2-1-2 1 .5-1.5.5-3.5 1.5.5.5 3.5.5-5.5-2.5-1.5-2 1v-1l1.5-.5 1-2v-2z"/><path fill="#8e8c86" stroke="#8e8c86" d="m471.5 398 1.5.5 1 15-1.5 3.5-1.5-2.5 2-1-2-1-2-6v-2l.5-1.5 2 1 .5-1.5-1-3zm168 1q4.5 2 1 4l-2 1 1-3-5.5-.5zm45 0 2.5.5-.5 27.5-1-27-1.5.5-1.5 28.5-1.5-11.5 1-13zm5 0 .5 10.5h-1zm-14 2 2.5.5-.5 5.5-1-5-1.5.5-.5 8.5-1.5-8.5zm-284 1 .5 8.5-1.5 4.5-.5-8.5zm36 1 .5 16.5h-1zm235 0 1.5 1.5 1 18-2 1 2.5 3.5 3.5.5-3.5.5-3.5-1.5 1-22zm-278 2 2 1 1.5-.5 1 6v2l2 23-1 2 1 4-1 13 .5 1.5h-2l-1.5-.5 2-1q2.2-28.2-3.5-48.5l-1.5.5zm271 0 2.5.5-.5 3.5-1-3-1.5.5 1 20-2-1v-19zm-174 2 1.5 38.5h-1zm-79 2 .5 13.5h-1zm29 1 .5 31.5h-1zm48 0 .5 16.5h-1zm155 0-3 4-4-2-3.5 2.5.5 1.5-2.5.5 3.5.5 1-2 5.5.5-5.5 3.5-7-2-1 3v-2l-2.5-.5 3-1-3.5-.5-2 3-1.5.5-2.5 4.5-.5-1.5 1-2-2-1-.5-1.5-1 3-1.5-.5-.5-1.5-1.5.5 1 4-1.5 2.5-1.5.5-2.5 5.5-1.5.5-8 15-.5 2.5-11 3h-2l-1.5-.5 3-2 4-6-.5-1.5 1.5-.5-.5-2.5-1.5.5-.5 1.5-.5-1.5 2.5-1.5 1.5.5 4.5-8.5 1.5-.5 3.5-6.5 1.5-.5-1-2 7.5-9.5 3 4 2.5.5-3.5.5-1-2-2.5 1.5-.5 1.5-1.5.5-16.5 30.5-1.5.5.5 1.5 6.5-2.5 3.5-5.5 1.5-.5 12-21-1-2 10-4-.5-1.5 11-2v1l-6.5 1.5 4.5.5 8-4 3 1zm-61 1 2.5.5-7.5 2.5-1-2zm-111 3 2.5.5-3 2-1.5 6.5-.5-4.5zm114 0 4.5.5.5 1.5 1-2 .5 1.5-2.5 1.5-1-2zm-61 1 1.5.5-1.5 3.5-6.5-.5 7-1-.5-1.5-2 1v-1zm-117 1 .5 17.5h-1zm2 1 .5 13.5h-1zm7 1 .5 21.5-2-1 1-12v-2zm3 0 1 22 1-5 .5 5.5-2.5.5-1.5-3.5 1-2-1-2zm63 0 .5 42.5h-1l-1-17zm159 0 1.5.5-5 2-.5 1.5-2.5-1.5zm-250 1 2.5 14.5-2.5 6.5-1.5-8.5-1-3 1-3-.5-1.5 1.5.5zm94 0 .5 18.5h-1z"/><path fill="#8e8c86" stroke="#8e8c86" d="m587.5 419 1.5.5-4.5 9.5-1.5.5-12 23 2 1-2.5.5-1-2-2 3-1.5-.5 7.5-11.5 1.5.5 1-3-1.5-.5-1 2-.5-1.5 3-2 8-14-2.5-.5-2.5 1.5-16 29 .5 1.5-1.5-.5-.5-1.5-1.5.5-.5 1.5-.5-1.5 6.5-12.5 1.5-.5 10.5-17.5 2.5-.5-3.5-.5-3 2-3-1-1 2 2-1-1.5 2.5-5.5 10.5-1.5.5-7.5 14.5-2.5-3.5h2l12.5-22.5 1.5-.5-3-1 1.5-2.5v2l1.5-.5.5-1.5 13-2 1.5.5.5-1.5 2 1zm-103 1 .5 14.5h-1zm-14 3 .5 1.5-3 3v13l2 15-1 2 .5 1.5-1.5-.5-2-13 1-2-1-16 4-3zm142 0 .5 3.5-8.5 13.5-1.5-.5.5 1.5 2.5.5-2.5.5-1.5-.5-.5-1.5-3.5 5.5 3 1-9.5 2.5v-1l3.5-1.5 4.5-8.5 1.5-.5 6.5-11.5 1 3zm35 0 1.5.5v2l-.5 1.5-3-1 .5 1.5-.5 1.5-1.5-2.5.5-1.5-1.5.5-.5 1.5-.5-1.5 2.5-1.5 2 1zm-84 1 .5 2.5-12.5 19.5-1.5-5.5h1l.5 1.5 8-16 3.5-.5zm-68 1 6 2 2-1 2 1h2l7.5 1.5-3 2 2.5 1.5 1-2 2.5.5-2 1 .5 1.5-2.5.5 5 2-1.5-.5-12-1h-2l-7 1-.5-1.5 1.5-.5 3 1v-1l-1.5-.5 1-2-2-1-.5-2.5-2 1zm7.5 6-2 2h5l3 1h4zm-79.5-5 1.5 12.5-1 2 1.5 2.5 1-2 .5 1.5q-2.5 4-5-2l1-7-1-6zm-5 1 1.5 14.5-2.5.5-2.5-1.5.5-8.5 1 9 1.5-.5zm274 0 1 2 5.5 1.5-.5 1.5-3.5.5-.5 1.5-.5-1.5 1-2-3-2zm-76 2 .5 6.5h-1l-.5-1.5-4.5 8.5 2.5-1.5 1.5-.5 1.5-3.5 1.5 5.5-11.5 2.5v-1l2.5-1.5zm39 0 3.5.5-4 1 1.5 2.5 1.5-.5-1.5 2.5 2.5-.5.5-3.5.5 5.5-2.5 1.5-2.5-.5 1-2-2-5zm-118 1 2.5 1.5-2 1 3 2-2.5 4.5-1.5-.5zm111 0-.5 1.5 2 4-2.5.5-1-2-2 3-2.5-.5 3-1 1-2-.5-1.5zm-220 1 .5 14.5h-1zm207 2 3 1 1.5-.5-.5 1.5-4-1-.5 1.5h2l-1.5 3.5-1.5-.5-.5-3.5-2 1-.5-1.5zm50 1 2.5.5-.5 1.5 1.5.5-2.5.5-1-2-1 3q-2.5-2.8-5 1l-1.5-.5.5-1.5-1.5.5-1.5 2.5-1.5-.5.5-2.5zm-251 1 .5 16.5h-1zm261 0 1.5.5 1 2-2 1-2 6 1 3-1 4-.5 2.5-1-12-1.5-.5 4-2 1-3zm-72 1 2.5.5 1 4-6.5 1.5v-1l2-1h2l1.5-.5-1.5-2.5zm47 2 2.5.5-3 1 3 1-4.5.5-2-1v2l-9 2-.5-1.5zm-23 1 1.5.5 1 3-2 1 2 1-2.5.5-4-1-2 1-1.5-.5-.5 1.5-3.5 1.5 2 1 .5 1.5 1-3 2 1 1-2 3-1 2.5 4.5-4 1 1-2h-3l-.5 3.5-4 1-2.5-.5-1-4 .5-1.5-1.5-.5 2-1-3-1 .5-1.5 5-1 1 2 1.5-.5-1-2zm-108 2 1 3 1-3 .5 2.5-2.5 1.5-1.5-2.5z"/><path fill="#8e8c86" stroke="#8e8c86" d="m689.5 441 1 3 1.5-.5v2l-.5 7.5-1.5-.5 1-3-.5-4.5-1.5.5zm-285 2 2 4 3 1 4 1 2-4 1 4 2.5.5.5 3.5 1-2 1 5 1.5-9.5-3-1 2.5-.5 2 1 2.5.5h-2l.5 4.5 1.5-.5-1 2 1 2h-1l-.5-1.5-.5 2.5.5 1.5-1.5.5-.5 2.5-1-2-.5 2.5.5 1.5h-2l-1.5-.5 2-1-1.5-3.5-2 4-2.5-.5 2.5-4.5 2.5-.5-1.5-2.5-1 2-1.5-.5-.5 1.5-2.5-.5 3-2-1.5-3.5-1 2-2-3-2.5.5-1 5q5.2 2.2 1.5 4.5l-3.5-1.5 1-3-.5-1.5-1.5.5v2l-.5 2.5-.5-4.5 1-3-1-2 1-4h-1l-.5 1.5-.5-1.5zm93 0 6.5.5-11.5 1.5v-1zm129 1 3.5 1.5 2 5h-1l-.5-1.5-3.5 2.5-3.5 5.5-1.5-7.5 2.5-4.5zm-146 1 .5 14.5h-1zm137 1 2.5.5-8 5-2 7h1l.5-1.5 2 1 2.5-1.5-6.5 3.5-1-3-1 3-2 1-.5-1.5 6.5-11.5zm-70 1-.5 1.5-.5 2.5-1.5-.5.5-1.5-1.5.5-1.5 2.5-4 1-1-2 1.5.5-1-2zm-103 1 1.5 8.5h-1l-.5-1.5-1.5.5zm38 0 1.5.5v2l-.5 14.5-1.5-1.5zm126 0 .5 1.5-2.5 1.5-2-1 .5 1.5.5 1.5 1.5-.5-3.5 5.5-5.5-6.5 8.5-2.5 1.5.5zm54 0-.5 1.5-.5 1.5-1.5.5 1 3h-1l-1.5-2.5-.5 1.5 1 2-2-1 1.5-5.5zm-70 4 2.5.5-2.5 4.5-4-2-6 7-1.5-2.5h1l.5 1.5 2.5-3.5-2.5-1.5-2.5 1.5.5-2.5 9-2 2 3zm-41 1 2 3 1.5.5-7.5 2.5v-1l2.5-1.5zm-119 1 .5 9.5-2.5.5v-1l1.5-.5zm106 0 2 3 1-3 2.5 5.5-2.5.5-3 1 .5-1.5zm58 0 5.5 7.5-6.5 2.5-1.5-3.5zm-21 3 3.5 2.5-1.5-.5-2.5 1.5-4.5 8.5-1.5-8.5h1l.5 2.5 1-2 3.5-2.5z"/><path fill="#8e8c86" stroke="#8e8c86" d="m588.5 457 2.5 1.5-.5 1.5-3.5 1.5-2 4 .5 1.5-1.5-.5zm62 1 1 3 1.5.5-1.5.5h-2l-4-1-12 4-1.5-.5-.5 1.5-1.5.5-.5 1.5-.5-1.5.5-1.5-4.5-.5 11.5-2.5 3-1zm-153 1 1.5.5.5 1.5 3.5 2.5 1 2-2 1 .5-1.5-2.5-1.5.5-1.5-3-1 .5 1.5-1 5 1.5 3.5 3.5-2.5-3.5 5.5-3-1-2 1q-3-1.5 0-3l3 2 .5-1.5-1.5-2.5 1.5.5-1-4 1-3-2-1zm10 0 2.5 1.5.5-1.5 3.5.5-4.5 2.5zm50 1 1.5.5-4 5 1.5.5 4-5 1.5 2.5-2 4 1.5-.5 1.5.5-2 1-1.5 4.5-2 1 .5-1.5 1-3h-3l-1.5 2.5.5-1.5-1-2 1-2-1-2 1.5-2.5-3.5 1.5 1 2-5.5 6.5 3.5-4.5-2-5 3.5-1.5h2l2 1zm-67 1 2.5.5-.5 1.5-2.5.5-1.5 2.5-2.5-.5.5-3.5 2 1zm89 0 2.5 5.5-2 1-.5-2.5-1.5.5z"/><path fill="#8e8c86" stroke="#8e8c86" d="m590.5 461 3 4-2-1-3 2 .5-1.5-1-2h2zm-79 1v2l4.5 3.5-2 1 .5-1.5-2.5-.5.5-1.5-3.5-1.5zm21 0 1.5 1.5v15l-1.5.5.5-1.5zm-7 1 2.5.5-.5 1.5 2.5.5-1 3 1.5-.5 1.5.5-1 3 1 4-1.5 4.5-2.5-.5 2-1 1-6h-1l-.5 1.5-.5-1.5 1-2-2-1-.5 3.5-2.5-.5 1.5-4.5 1.5-.5zm21 0 .5 1.5-2.5 8.5-2.5-1.5-.5-1.5-.5 2.5 1.5 2.5 5-2 1.5 3.5-1.5.5-1-2-2 3-3 1-1.5-3.5v-2l-2-7 6.5-2.5 1.5.5zm-101 2 10.5.5-10.5.5zm63 0-2.5 3.5 1 4-1.5.5v-2l-1.5-.5-1-2 3-1-.5-1.5z"/><path fill="#8e8c86" stroke="#8e8c86" d="M522.5 466h2l1.5.5-2 1-1 5 1 3h-1l-.5-1.5-2 1-4.5-2.5-1-2 2.5 1.5 1.5-.5-2-3 3 1zm-133 2 1.5.5v2l-.5 10.5zm230 0 4.5 2.5-7.5 4.5-1.5-.5-.5 1.5-4 2-1.5-.5-1.5 9.5-1.5-.5v-6l3.5-6.5 2.5-.5-.5-1.5 2 1 1-3 1 3 4.5-1.5-1.5-.5-1.5.5.5-2.5 2 1zm-208 1q1.9 3.6 8.5 2.5l-2.5 1.5-7.5-2.5zm49 0 8.5 1.5-.5 1.5q-6.7 0-8-3Zm-34 1 2.5 1.5.5 2.5 2-1-1 2-1.5.5-1.5 3.5-1.5.5v2l-.5 1.5-1.5.5v2l-.5 1.5-1.5.5v2l-.5 1.5-1.5-.5-1.5 5.5-1.5.5v2l-1.5 3.5-1.5.5v2l-.5 1.5-2.5.5 2 1-2 1v2l-.5 1.5-2-1 1.5 2.5-1.5 2.5-1.5-.5 1 3h-1l-.5-1.5q-21.3 33.7-37 73l.5-1.5 4-14 14.5-27.5 1.5-.5-.5-1.5 1.5-.5v-2l.5-1.5 1.5-.5v-2l18.5-33.5 1.5-.5v-2l12-23-5-3 1.5-.5 3 2 2.5-1.5-6-3 .5-1.5 6 3 .5-3.5zm-20 1 12.5 4.5-2.5.5-9-3zm230 0 .5 1.5-.5 1.5 3.5 1.5-1.5.5-3-2-.5 1.5.5 1.5-1.5-.5z"/><path fill="#8e8c86" stroke="#8e8c86" d="m624.5 472-8 9-4.5 1.5zm-191 11 3.5.5-4 7 1.5.5 4-6 3 2 4.5.5-1 3 3 2-1.5.5-3-5-1.5.5 1 2-.5 2.5-2.5.5q2.5 4.5 5 1l1 2-2 1 .5 1.5 2-1 3.5 5.5-3.5-2.5-1.5.5 10.5 20.5 1.5-.5-3-8 2.5-.5v2l1.5.5-1 2 1.5-.5 1.5-.5.5-2.5 1.5 3.5-2.5.5-1.5.5-1.5 5.5-3 1-4.5-8.5.5-1.5-1.5-.5-1-2h2l-1.5-2.5-1.5.5-1-2 2-1-3-1-1-2h2l-1.5-4.5-1 3-2.5.5 11.5 24.5 1.5-.5.5-1.5.5 1.5-3.5 5.5.5-1.5-7-15 .5-1.5-1.5-.5-4-9 .5-1.5-3.5.5 12.5 30.5 1.5-.5-3 2-5.5-13.5-1.5-.5 1-2-6.5-14.5-6 2-.5-1.5 5-2-1.5-2.5-4.5 1.5-29.5 58.5-.5-1.5 17-38-3 2-6.5 13.5-1.5-.5 10.5-19.5.5 1.5-.5 1.5 1.5-.5 4-7-1.5.5-1.5.5-1.5 2.5.5-1.5 1.5-3.5 3-1 1.5-.5-.5-1.5-3 2 .5-1.5 1.5-3.5 2 1 2.5-1.5 1-3-.5-1.5 4.5-2.5-2-1 1.5-.5 5 1 3-1-1 2-6.5 1.5 2.5.5h2l4 1-.5-1.5.5-1.5 2.5-1.5-1.5-3.5-3 1v-2l-3.5 2.5-.5 1.5q-3.2-2 0-4l-4 1 .5-1.5.5-1.5 2.5-.5-.5-1.5-1.5.5 2.5-3.5 1.5.5zm7.5 12v5h-2v1l4-1zm193.5-12 2.5 1.5-2.5.5-1.5.5q3.8 1.8.5 3.5-3.8-3 1-6Zm7 3 2.5 3.5q-1.7 3.3-3.5-.5l-5 3 2-3zm-181 1 2 4 1.5.5 1 3-2-1zm113 0 .5 1.5-7 3-.5 2.5-1.5-.5 2-1 .5-2.5zm36 0-2.5 3.5-.5 7.5-.5-7.5zm-158 1 3.5 2.5-3 2 2.5.5 1.5-.5-3.5 1.5-.5-2.5zm175 1-9 10q3.2-2 0-4l-1.5.5 3-2-.5 1.5 2.5-1.5q-3.7-1.8-.5-3.5l1 3zm-65 2 1.5.5-3 2 .5 1.5h2l2.5.5-4.5 2.5-1-3-1.5-.5zm-108 4 3.5.5 2 4-.5 1.5 2.5 1.5-.5 1.5-6.5-6.5.5-1.5zm131 0v3l-1.5.5 5 4-3.5-.5-6.5-2.5.5-1.5 2 1 2.5-1.5zm43 0v2l1.5.5-4.5 5.5-1-2q1.7 2.7 3.5-1.5l-1-3zm-114 1 4.5 12.5h-1zm61 0 2.5.5-2 4 3 1-.5 1.5-3 1-1-2-2-1-2.5-.5-.5-1.5-3 1-.5-1.5 4-1 1.5 3.5 1-2h2l1.5-.5-2-1zm18 0 .5 2.5 1 2-4 1 3 2-.5 1.5-2.5-.5-1-3 1-3-2-1 1.5-.5 2.5 1.5zm-122 1 4.5 8.5-.5 1.5 1.5.5 1 5-2-1zm57 0 2.5 1.5 1 5-2 1 1 2-1.5.5-.5-3.5v-2l-.5-1.5-1.5-.5zm19 0 .5 1.5-3 6 2 1-1.5.5-2.5-.5.5-2.5 1.5-.5.5-4.5 1.5.5zm-84 1 3.5 8.5-1.5.5v-2l-1.5-.5-2-4h2z"/><path fill="#8e8c86" stroke="#8e8c86" d="M449.5 499h2l2.5 1.5 1 2-3.5 1.5zm102 1 2.5.5-1 2 .5 1.5-2.5.5 1.5 2.5 1.5.5-1 3 1.5 1.5 3.5-2.5-2.5 3.5 3-2 1.5.5.5-1.5 1 2 .5-2.5 1.5-2.5 1.5.5-2.5 5.5 3.5.5-7 5-1 2 4.5 1.5 5.5-6.5-.5-1.5 2.5 1.5-1.5 2.5-2.5.5-1.5 4.5 4 1 1-2 1.5.5-1.5 2.5 4 2 4-6 1.5-.5-1-2 1.5.5 3.5 1.5-1 2 1 2-1.5 2.5-1-4-1.5.5-1.5 2.5-1.5.5.5 1.5 6 2 .5-2.5.5-1.5 3 6 4 1-.5-1.5-1.5-8.5-4.5-1.5 2.5-.5 4.5 2.5 2 10-2 1 .5 1.5-3.5-1.5.5-1.5-2.5 1.5-2 5 2 1-.5 4.5-2-5-6-2 1.5 2.5 3.5 5.5 3 1 1.5-.5-.5 2.5-2-1-.5 1.5.5 1.5-1.5-.5-2.5-3.5-13.5-4.5.5-1.5 12 4-.5-1.5-4.5-6.5-1.5-.5.5-1.5-3 1-3.5-1.5-.5-1.5-2 1-1-2h-2l-3.5-1.5 3.5-6.5 1.5-.5-6.5-1.5-4.5 3.5q3 2-2 4l-1.5 5.5-1-2-3 5-2.5-7.5h2l1.5-5.5 1.5 3.5-2 1-1 5h1l1.5-2.5 2 1 .5-3.5-.5-1.5 2.5-1.5 3-5-3.5-1.5-1 3-1.5-.5-.5 3.5-2.5-7.5h2l1-5-1.5-.5-2 3-.5-1.5 1-2-2-5 2.5-.5v1l-1.5.5.5 1.5 1.5-.5-1 2 2.5.5 3.5-4.5-.5-2.5-3 1-.5-1.5 2.5-1.5 1.5.5zm.5 8-4 5 1 4 4-1 2-1v-2l-2 1zm7 4-4 4 2 3v-1l2-1 2-4zm4 13-4 5 24 7 1 1-1-4-4-3v-2l-2 1z"/><path fill="#8e8c86" stroke="#8e8c86" d="m562.5 500 3.5 1.5-4.5 5.5v-2l-1.5-.5 3-2zm-59 2 1.5.5-3 4 1 2-2.5 3.5-1.5-.5 1 2-2.5 3.5-1.5-.5 1 2-3 1 .5 1.5 1.5-.5-3.5 5.5-1.5.5v2l-3.5 5.5-1.5.5v2l-1.5 2.5-1.5.5v2l-7 11 .5 1.5-1.5-.5-19.5 27.5.5-1.5 1.5-3.5 1.5-.5 6.5-11.5 1.5.5-1-2h2l-1-3 2-1-1 2 2-1 11.5-18.5 1.5-.5 1-3 2-5h-2l4-2-1-2h2v-3zm64 0 3.5 1.5 2 4-1.5-.5-1.5-.5-.5-2.5-1 2-2.5-1.5zm12 2 1.5.5-.5 1.5 1.5.5-3 2 1 2-1.5-.5-2.5-1.5.5-1.5-3.5-1.5 1.5-.5 5 2-.5-1.5zm5 0 3.5 1.5-2 1 .5 1.5 3.5 1.5-1.5.5-5.5-2.5zm22 0 13.5 48.5 1 9h-1l-5-17v-2l-8.5-32.5-1 3-.5-5.5zm-74 1 .5 12.5h-1l-2-8zm6 0 2.5 7.5-3 2-1-2h2l-.5-6.5-1 2-.5-1.5zm-70 1 1 3 1.5.5-.5 1.5 1.5.5 2 7-1 2h2l2 4-2 1-.5-2.5-1.5-.5-4.5-11.5-1.5-.5 2-1zm99 1 5.5 3.5-1.5 3.5-6.5-3.5zm26 1 2.5 1.5 1 3-1.5-.5-4.5-2.5h2zm-10 1 8.5 4.5-1.5-.5-1.5.5.5 1.5-2.5-1.5-.5-2.5-1 2-2.5-.5 1-2zm-9 1 3.5 1.5 2.5 5.5 2.5-1.5.5-1.5 3.5 2.5.5 1.5 1.5-.5-.5 1.5 2.5-.5-.5-1.5 2.5 1.5-1 3 .5 1.5-2.5-1.5.5-1.5-3-1h-2l-2.5-.5-.5-1.5-2 1-3-2-1 2-3.5.5-1.5 2.5-.5-1.5 1.5-2.5-1.5-.5 3.5-2.5v1l-1.5.5 2.5 1.5.5-3.5z"/><path fill="#8e8c86" stroke="#8e8c86" d="m528.5 512 4 10 2-3 1.5 6.5.5 2.5 3-1 .5 1.5-1.5.5-4.5.5.5 1.5 1.5.5 1.5 4.5 1-3 1 3 2-1 1.5 2.5h-2l-1 8h1l.5-1.5.5 2.5-2 1 1 4h-1l-6-16 2-1-.5-1.5-2.5-1.5-1-4h1l.5 1.5.5-3.5-1.5.5-1.5-.5zm12 3 1 3 2.5 1.5-.5 1.5-1-2-.5 2.5-1.5 4.5-1.5-5.5q3.8-1.7.5-3.5l-1 2-.5-2.5zm-72 3 2.5 5.5-2 1 3 1-1 2h2l1 3-1.5 4.5-1.5-.5-3-10 1-2-3-1zm-9 5 3.5 1.5 1.5 3.5 1-4 1 4 1.5.5 1 4-1 2h2l-1.5 7.5-4-12-1.5.5.5 2.5 1.5.5.5 6.5 1.5.5-.5 1.5-1.5.5 2 1 .5 2.5 2-3 .5 1.5-2.5 4.5-1-3-1.5 4.5v2l-7.5 13.5-1.5.5-.5 2.5-1.5.5-1 3-1.5 3.5-1.5.5q3 2-2 4l-3.5 4.5 2.5-3.5-.5-4.5-1 3-1.5.5-1 3 1 3-4.5 2.5-2.5.5.5 1.5 1.5-.5-2 3 3-1q-1.8 4.3-3.5 1.5l-1.5.5 1 3-4 2-1 2q2.7 1.7-1.5 3.5l-1.5.5 1 1-5 5-8.5 11.5-2-3-1.5.5 2 3-5.5 8.5-1.5.5v2l-7 12 1 2-9.5 15.5-2.5-.5 1.5-2.5 1.5-.5v-2l.5-1.5 2.5-.5-.5-1.5-1.5.5-.5-2.5-2.5 1.5-.5 2.5-2.5-1.5 2-1 4-7-1-2 6.5-10.5 1 2 15-21 1.5.5-1-2 7.5-11.5 1.5-.5-.5-1.5 1.5.5-1-2 3-1-.5-1.5-1.5.5 2-4-1-3 7-25-1.5-.5-9 19-2.5.5-.5 1.5-.5-1.5 3.5-7.5 3.5-1.5-3-1 1.5-3.5 1.5-.5-1-2 1.5-3.5 1.5.5-1 5h1l4.5-7.5 1.5-.5-.5-1.5 2.5-.5-.5-1.5-1.5.5-1.5-5.5-1.5.5-2.5 9.5-1.5-.5 3.5-10.5 1.5-.5-1-5 2.5-6.5 1.5-.5-1-2 3-7-1-4 1.5.5 1.5.5-1 3 5.5 11.5 1.5.5-2.5 1.5-1.5-3.5q3-2-2-4l-1.5-3.5-1.5 8.5 3.5 7.5 2.5-1.5-2.5 3.5-4-9-1.5.5-.5 4.5-1.5-.5 3.5 9.5 3-4-.5 1.5.5 1.5 3-2 4 10 3-4 1.5-.5-.5-1.5-2.5-.5-2-6-.5-2.5-1.5-.5 2-1 .5-2.5 4 12 2.5-1.5v-2l.5-1.5 1 2 1.5-.5 1-3 .5-1.5 1 2 .5-2.5-3-1 1.5-2.5q1.8 3.8 3.5.5l-4-3 1-2h-2l-2-6 .5-2.5 4 8 1.5-.5-3-11 2-1 3.5 8.5 2.5-1.5-2-1-2.5-9.5-2.5 1.5zm3.5 16-3 4h3l-2 3 1 1 3-6h-1v-1zm-22 16-3 1-2 3 2-1-1 2v5l4 7 3-5zm13 0-4 6 2 2v-1l5-2 1-2-2-1-1 2zm-5 7-1 2-3 2 3 5 2-4 5-1-5-1zm-13 1q-5 3-3 12l-1-1-4 14 1 5 2-1-1-1 1-2 2-1-1-1 1-3v-2l1-6 2 5 3-6zm9 6-4 10-1-2-3 6-2 1v2l-2 4h-1v2l-5 8 1 1 1-2 3-2-1-1 5-9 3-1 2-5 2-1 2-4zm-45 70-4 7h-1l-2 5 1 2 6-11zm192.5-115 2.5 1.5 1.5 4.5 1.5-.5.5 1.5.5-2.5-3-1 .5-1.5 6.5 4.5-2 3 2 1-.5 2.5-1.5.5 2.5 5.5 2-4 5.5 20.5-2 1 1.5 2.5 1-2 .5 2.5-2 1 1 4-1 2h2l-1 6 3 7 4 40-1 3 2 10-1.5 2.5-5-10-2 6-.5-2.5 2.5-7.5 4 9 .5-2.5-2.5-10.5-1.5.5.5-1.5 1.5-.5-2-13v-2l-1-7v-2l-1-15 1-2h-2l-3-19-2.5-3.5-2 3-2-5-3 1-2-3-5-2-1 2-1.5-5.5h1l1.5 2.5 5 2 1-2-1.5-.5 1-2-7.5-4.5-1 3-.5-4.5 2.5-.5 3 2 1.5-2.5-2-1 1.5-3.5 2 1 .5-1.5-1-2 3-1-2.5-1.5-1.5.5-.5-5.5zm4.5 12v2h-3l1 2-1 4h4l-1-4 2-1v-1zm4 4-4 7 1 3-1 2 1 1 3-1 1 2v-2l-1-1-2-3 4-2-1-5zm-197.5-1-.5 1.5-12.5 32.5-1.5.5 1 2-2.5 5.5-1.5-.5 3.5-9.5 1.5-.5-1-2 2.5-5.5 1.5-.5-.5-1.5 1.5-.5v-2q1.6-12.4 8.5-19.5Z"/><path fill="#8e8c86" stroke="#8e8c86" d="m448.5 540 2.5 1.5 2.5 7.5 1.5.5-2.5 1.5zm100 9 1 5 1.5.5 17 40h-1L554.5 567l-1 3-3.5-8.5 2 1 1 3 .5 1.5.5-2.5-2.5-5.5-2 1 1-3-2.5-.5 1-2h-2zm-5 1 1.5 5.5 1 3 5 15-1.5.5-7.5-20.5zm41 2 2.5 1.5 1 3-.5 1.5 2-1 2 5 .5-3.5-1-2h1l2 3-3.5 5.5-5-8-7.5-2.5 2.5-.5 4 1 .5-1.5zm14 4 3 6 2.5-1.5.5-1.5 2.5 11.5 1 3 3 20h-2l.5 1.5 1.5.5 1 12-1.5.5-.5-2.5-1-2-.5-3.5 1.5.5-.5-1.5-1.5-.5v-2l-1-4 2-1-1-2-1-3-1-11-1-3-2.5-9.5-1.5.5 3 12-2-1-3.5-12.5-3.5-1.5 4-1zm22 7 1.5.5 2 8-1.5.5zm-235 6 .5 1.5-3.5 6.5-1.5.5 1 2h-2l-4.5 10.5-1.5.5v2l-9 23q2.8 1.8-1.5 3.5l-.5-3.5 19.5-43.5 1.5-.5-.5-1.5zm238 4 2.5 9.5-2-1zm-29 1 3.5.5 2 6-.5 1.5 1.5.5-1.5 3.5-1-2-1.5.5 1-4h-1l-.5 1.5-.5-1.5 1-3h-1l-.5 1.5-.5-1.5 1-2h-2zm-43 1 7.5 19.5 3 3v4h-1l-11-25zm-9 4 8 16 1.5-.5-1 3h1l.5-1.5.5 1.5-1 2h2l-1 3 2 1 1 4-1.5.5-12.5-26.5zm-158 6 1.5 2.5-7.5 17.5.5-1.5zm3 6 .5 3.5-3 10v2l-1 6v2l-1 2 2 1 .5-2.5.5 5.5-2 5 1 3-1 2 2-1 .5-5.5.5 5.5q-2 4.5-4 1l-1-5 1-3h-1l-.5 1.5-.5-1.5 1.5-2.5 1 2q3.3-1.7-.5-3.5l-.5-1.5-3 5-1.5-2.5h2l1-3-1-5zm59 0-.5 1.5-1.5 2.5-1.5.5-.5 2.5-2.5-.5zm117 9 9.5 19.5-1.5.5-1-3-1.5.5-1.5 2.5.5-1.5-.5-1.5-1.5.5 3-1-1-2q3-2-2-4l-4-7h2zm-159 1-3 6-1.5-1.5z"/><path fill="#8e8c86" stroke="#8e8c86" d="M572.5 602v2l1.5.5 13.5 26.5 2.5 1.5.5 2.5 1.5.5.5 3.5 2 1 1.5-.5.5 1.5h2l1.5-.5-1.5-2.5q5.8 2.3 2.5 4.5l-.5 1.5-1-2-10-5-2.5-.5-2-4h2l-1.5-2.5-1.5.5-2.5-5.5-.5 2.5 3 11-2 1 1 2q-1.5 3-3 0l1-2h-2l.5-1.5-2.5-1.5.5-1.5-2.5-1.5 5-1-4.5-1.5-1.5.5 6-2-1-7v-2l-.5-2.5-2 4-2.5-8.5 1-3-4-7zm-12 1 3.5 8.5h-1zm-154 5 1.5 3.5-3.5 4.5-1-2-3 4-1.5-.5 1-3 .5-1.5 2 1 2.5-.5.5-1.5 1.5-.5-2-1zm25 6-.5 1.5.5 1.5 1.5-.5-24.5 33.5-1.5-.5 2.5-5.5 2.5-.5 1.5-2.5 1.5-.5 1-3-.5-1.5-1.5.5 4-3 1-3 .5-1.5 1.5.5-1-2 3-1-.5-1.5-1.5.5 3.5-5.5q2.3 3.3 4.5-2.5zm-30 5 1.5.5-1.5 2.5-2.5.5 1 3h-1l-.5-1.5-2 5-1.5-3.5h2l-1-2 5-3z"/><path fill="#8e8c86" stroke="#8e8c86" d="m586.5 619 2.5 3.5-.5 4.5zm-217 1 2 1 1.5-.5-3.5 1.5-1.5.5 1.5 2.5-2.5-.5zm203 1 2.5 1.5 1.5 2.5 1-2 .5 1.5-1 2 .5 1.5-3.5.5.5-1.5-2-1-1.5.5 3-4zm-184 1 1.5 2.5-1 2 1.5.5 2-5 .5 1.5-1 2 2 1-1.5 3.5-4.5-1.5zm-11 8 2.5 5.5h-1l-.5-2.5-1 2-1.5-2.5h2zm230 1 .5 14.5h-1zm-254 2 .5 10.5h-1zm31 0 3 1 1.5-.5-.5 2.5-2.5-.5.5-1.5-3.5 1.5 2 1-1 5 1 6h-1l-2-13zm-52 1 1.5.5-4.5 7.5.5-1.5zm42 1 1.5.5-1 6 2 1 .5-2.5 1 3 1-2 1 2-1.5.5-.5 1.5-1.5-.5 1 4h-1q-3.9-2.6-3-10l1-2z"/><path fill="#8e8c86" stroke="#8e8c86" d="m612.5 635 3.5 17.5h-1l-1.5-3.5-2 3-3-4-1.5.5 1.5-1.5q2.2 5.2 4.5 1.5l1-3-1.5-.5-1.5.5-1-6h2l-1-3zm-252 2 1 2 1.5-.5-3 1 1.5 4.5 2.5 1.5.5 2.5 2.5.5q-2.5 2-5-2l.5-1.5-2-1-3 12-.5-3.5 2-3-1-2zm229 2 4.5 3.5h-2l-1.5 7.5-2.5-1.5-1-6z"/><path fill="#8e8c86" stroke="#8e8c86" d="m363.5 640 4.5 2.5 1.5 2.5 2.5 1.5-1.5 4.5-2.5-.5 2-3-3.5-5.5q-2.2 3-3-2Zm255 0 2.5.5 2.5 7.5 2.5 1.5 4.5 13.5 1.5-.5 1 2-.5 1.5 2.5 1.5q-1.5 3-3 0l-3.5-7.5-2 1-1-4 1.5-.5-3-1 2-1-.5-1.5-2 1zm-244 8 1.5.5 1.5 2.5 1.5.5-2.5.5-2-3q.1 7.6-5 10l.5-3.5.5-2.5 1.5-.5 1-2-.5-1.5zm7 4 .5 1.5-3 1q2.7 1.7-1.5 3.5l.5-1.5 1.5-3.5zm220 0 5 3 3-2-1 3 2-1 1.5 2.5-1.5.5q-1.7-2.7-3.5 1.5l1 2-1.5-.5-3.5-.5 5-3-.5-1.5-1.5.5-2.5-3.5zm-22 2 1.5.5 2 9h-1zm11 0 2.5 5.5-1 2 6.5 14.5 3 1h2l6-2 1 3 1.5-3.5-1-5h1q-.9 6.9 3.5 8.5l2.5-1.5 1.5 4.5 3.5.5.5-2.5 1.5 9.5-6.5 2.5-1.5.5 4 1 .5 2.5 3-4 1.5.5 1 2h-2l1.5 2.5 2.5.5-.5 1.5-1.5-.5-.5 2.5-12.5-8.5 9-5-1.5-4.5-2.5 1.5.5 2.5 1-2 .5 1.5q-3.5 5-12.5 4.5l-.5-1.5 1.5-.5h2l5-2 2 1-.5-1.5-1-3 1-2-3 2 1 2h-1l-1-2 3-4-3.5 2.5-2 1 1-2 1.5-.5-1.5-2.5-3 2-2-1v2l-5-1-1 2-7.5-4.5-1-2 2 1 .5 1.5 1.5-.5-4.5-11.5-1.5.5 1 4h-1l-1-5v-2l1-2-2-4z"/><path fill="#8e8c86" stroke="#8e8c86" d="m609.5 659 5.5 6.5-4-1q3-2-2-4zm-251 1 2.5 1.5 1.5 3.5 1.5.5-1.5.5-3-1-1.5-.5 2-1-2-1zm15 1 .5 1.5-1 2 1.5.5 3-2 1 2-6 2-1.5-.5 1 2h-2l1 2-1.5 3.5-2.5-1.5-.5-1.5-1.5.5 1.5-2.5 2 3 .5-1.5v-2l2.5-6.5zm272 0 8.5 7.5-2.5-1.5-5.5-3.5zm-9 3 3.5 2.5-1 2 3.5 1.5v-2l3 4 1.5-.5-.5 1.5 2-1 3.5 1.5-2 1 6.5 7.5 21.5 18.5-.5 1.5-1.5-.5-4.5-5.5-.5 1.5 4 5-3-2-4.5-7.5-1.5-.5-.5-1.5-1.5-.5-1.5-2.5-16.5-13.5-.5-1.5-1.5.5-.5-2.5-2.5 1.5 1.5 2.5-2-1-1 2-.5-4.5 2-1-3-2-1-2 .5-1.5zm-244 3 1.5.5-2 4h2l-1.5 2.5-1-2-1.5.5zm244 4 1.5 3.5q-2.5 2-5-2l3 1zm-249 2 1.5.5-2 1 1 6h-1l-.5-4.5-4.5 8.5 3-1-1.5 3.5-2.5.5.5 1.5 1.5-.5q-11.8 11.7-16.5 30.5l-2.5-.5 3.5-8.5 1.5.5-1-3h2l-1-2 2-1-.5-3.5-1.5.5-.5 2.5-1.5-.5 2.5-3.5 1.5-.5-1-1 4.5-4.5 1.5-.5.5-2.5 1.5-.5 4-11-1.5.5-7.5 4.5-1.5 3.5.5-1.5 2.5-4.5 8-6 1 1zm233 1 5.5 3.5-3.5-.5zm-227 1 .5 2.5v2l-1 8v2l-1 10 .5 3.5-1.5.5 2 1-.5 2.5-1.5.5v2l1 4-1.5 7.5-1.5-.5 1 3-1.5 3.5-1.5.5 1 3h-2l1 3h-2l1 3-10 13 4-2-4.5 6.5-1.5.5q2.8 1.8-1.5 3.5l-1.5-.5 4-6-1.5.5-2.5.5-.5 1.5-2 1-1-2-.5 2.5 3 1-3 2-2.5 5.5-1.5-.5 4-7h-2l.5-10.5 1 7 3.5-5.5 3.5-16.5.5 1.5-3 14 2-1 1.5-2.5 1.5.5 5.5-22.5 1.5-.5-1-4 3.5-13.5 1.5.5-4 16v2l-3 10v2l.5 2.5 2.5-.5-1-3 4-10 2-21h-2l2-14-2-3 2.5-.5 1.5-.5 1-3zM381 737l-4 7 1 2v-2l3-4zm231.5-54v2l1.5.5-2.5.5h-2l-2.5 1.5-.5 1.5-.5-1.5.5-2.5zm58 2 7 8zm-324 1 .5 3.5-1 3-3.5 10.5-.5-2.5zm8 0 .5 7.5-1 4 1 5h-3l1-2-1-3-1-2zm276 1 1.5 2.5-1 4h1l.5-2.5.5 3.5-2 1-4-7zm50 1 6 5 2.5.5h-2l.5 1.5 2.5.5-3.5.5-1-3zm-80 3 9.5 6.5-.5 1.5-1.5-.5.5-1.5-2 1v-2l-2 1v-2l-2 1q-4-2.5-2-5Zm50 0 .5 1.5-1 2 3 1-3 1 2 1-2 1 3.5 1.5 1.5-.5-3.5 2.5v-2l-2.5-1.5.5-1.5-1.5-.5.5-1.5-1.5-.5 3-2zm-17 5 1.5.5-1 3 .5 3.5 2.5-.5.5-3.5 2 8 1.5-.5-2-6h1l3 9-.5 2.5-4.5-3.5.5-1.5-5.5-1.5-.5-2.5q-1.7 2.8-3.5-1.5l1.5-.5 1 2 1.5-3.5-1.5-.5-1.5.5zm-22 1 2.5 1.5-1 2 2 1 .5-1.5 3.5 2.5-1 2 2 1 .5-1.5 1 2-2 1-3-5-2 1q-5.1-3-3-6Zm46 3 18.5 22.5q-3.5-4.9-7-3l.5 2.5 4 3 3-1 7.5 6.5q-2.5-3.5-5 1l2.5 3.5 2 1 1-3 2 1v-2l1 4-2-1 1.5 2.5.5 1.5 3.5 2.5 3.5 6.5 2.5 1.5-2.5 1.5-14-16-2.5-.5-.5-1.5-4.5-3.5-2.5-4.5-5.5-4.5-4-5-.5-2.5-2.5-1.5-.5-2.5-2.5-1.5v-2l-.5-1.5-1.5.5.5-2.5 2 1 1.5-.5-.5 1.5 3.5 2.5-1 2 6 3zm7.5 13-1 2 7 4v-1zm25.5-11 9.5 13.5-.5 1.5 2.5 1.5 3 6-.5 1.5 1.5.5 11 26 11 15-1.5.5-16.5-23.5h2l-2-4 .5-1.5-1.5-.5-2.5-5.5-2 1 1.5-2.5-6-12 .5-1.5-2.5-1.5-3.5-7.5-1 2z"/><path fill="#8e8c86" stroke="#8e8c86" d="m628.5 703 8.5 7.5.5 1.5 1.5-.5.5 1.5 1.5.5.5 2.5 1.5-.5-.5 1.5-1.5.5 2.5.5 1.5-.5.5 1.5 2.5-1.5-1.5-6.5-.5 4.5.5 1.5-3-4 1.5-.5-1-6 2 1 .5 2.5 1.5.5 1.5 5.5 1-3 1.5.5 2.5 5.5 1.5.5-2 1 2 1 2.5 3.5 1.5.5.5 1.5 2.5 1.5.5 1.5 2.5.5 2.5 5.5 1.5.5-1 4 .5 2.5 2.5-.5-.5-1.5 1.5-.5-1-2h1l2.5 5.5 2-1 1 3 7.5 5.5 1 2-2 1 .5 1.5 3-1 1.5 2.5-.5 1.5 4.5 2.5-2 1q1.7 4.3 3.5 1.5l6.5 4.5-1.5-.5-4-1 1.5 2.5 9.5 12.5 1.5.5 4 7-2 1 2.5 3.5 1-4 5 9 2.5.5-1 2 3.5 4.5 4-1q3.5 2-1 4l-1.5-.5 3.5 7.5 3-4 1.5.5-1 3 1.5.5 1.5-.5-4 3 1.5 5.5 13-6v1l-1.5.5 2.5 3.5 6.5 1.5-4.5.5-7-4-9.5 6.5.5 1.5-2.5-.5.5-1.5-2 1-2.5-4.5 1.5-.5 1 3 1-3 1.5-.5-.5-1.5-2 1-3-8-1.5-.5-3.5-8.5-2.5-.5-15.5-23.5-4.5-3.5.5-1.5-1.5-.5-2.5-4.5-3.5-1.5-.5-2.5-2.5-.5q2.8-1.7-1.5-3.5l-1 1-10.5-10.5 1-2-1.5-.5-2.5-.5-.5-2.5-2.5-.5-.5-2.5q-2.2 3.2-4.5-2.5l-.5-1.5-1 1-7.5-7.5h2l-2-4h2l1-3h-4l-.5-1.5-1.5.5.5 1.5-10-9 2 4-6.5-6.5.5-1.5-9.5-8.5-.5-1.5-1.5.5zm21.5 14-1 2-3 1 7 6 1-1-4-3 1-2zm28.5-14 1.5.5 5.5 8.5 3-2v1l-2.5 1.5.5 1.5 3-2q-3.4 2.3.5 4.5l4 8-1 2h2l1 3-1.5 2.5 2-1 5 10 2.5.5h-2l3 5-1.5.5-7.5-12.5.5-1.5-1.5.5 1 4-1.5-.5-1.5-.5v-2l-2-8 1.5-2.5-2 1 .5-1.5-.5-1.5-1.5.5zm-336 1-.5 1.5-2.5 12.5-1.5-.5 1 2v2l-.5 1.5-1-2-2 7-1.5-.5 5-18zm10 0 1.5.5-2 5 1 3-6.5 27.5-1.5.5 1 3-2 1 1 3-7 19 1 2-11.5 33.5-.5-3.5 12-34v-2l5-22 3-5-1-2zm14 1 1.5.5q-6.7 7.8-8 21h1l2.5-6.5 2.5.5-4.5 18.5-2.5.5 1 4h-2l1 5-1.5.5-2-4q-3.2 1.8.5 3.5l2 10h-1l-1.5-3.5-.5 3.5 2 7-1.5.5-.5-2.5-1-3v-2l1-7-1.5-.5-1 5-1.5.5 1 4-2 8 2 1 .5 1.5 1-9 2 7 1.5-.5-3 1-1 4 2 1 .5-1.5.5 1.5-4 5 1.5.5 4-5 1.5-.5.5-1.5.5 1.5-5 4-2 3 3 1 .5 1.5 5-7-.5 1.5-7.5 12.5-.5-2.5 2-3-1.5-.5-5 3-.5-9.5 2-22 7.5-25.5 1 2 1.5-.5-2-6zM351 771l-2 10 1 4 3-9-1-4z"/><path fill="#8e8c86" stroke="#8e8c86" d="M626.5 709v2l2.5.5.5 2.5 8.5 7.5-5-3 4.5 6.5 1.5.5 30.5 32.5 2.5 1.5.5 1.5 6 4 .5-1.5-2-1 1.5-.5 2.5 3.5h-2l1.5 2.5 2-1 2 3 2.5.5 5 7 .5 2.5 1-2 .5 1.5.5 2.5 1.5-.5-.5 2.5-26.5-23.5-.5-1.5-7.5-6.5-.5-1.5-1.5-.5-2.5-3.5-2.5-1.5-3.5-4.5-3.5-2.5-1.5-3.5-1.5-.5-16.5-21.5-1.5.5-.5-2.5-1.5-.5zm-254 3 .5 2.5-2.5 7.5-.5-3.5zm24 4 .5 3.5-2 3 1 3-.5 5.5-1-5-1 2-.5-2.5zm253 11 5 6zm7 13 6 7zm-326 5 .5 2.5-3 6v2l-8.5 39.5-.5-4.5 4-15v-2l4-21zm31 1 .5 4.5-2.5 5.5-.5-5.5zm346 7 2.5 1.5-.5 1.5 2.5 1.5q-1.5 3-3 0l-1-2 .5-1.5zm-338 6 2.5.5-1.5 2.5-1.5-.5 1 2-5 4 1.5-2.5 1.5-.5q-2.9-2.7 1.5-5.5Zm336 4 13.5 12.5-3 1 4 3-1 3 3 2 1 2-.5 1.5 3.5 2.5-.5 1.5 2.5 1.5 1 2-2 1-8-11 .5-1.5-4.5-3.5-2.5-3.5-1.5-.5-.5-1.5-1.5.5-.5-1.5h-2l-1.5-.5-2-4h1l.5 1.5 6 3 .5-2.5-.5-1.5-2.5-.5 3-1q-3-6-6-4zm9.5 9-1 2-3 1h2v2l4 2zm-342.5-4 1.5.5-9.5 20.5-2 1-.5-1.5 2-1v-2l1.5-4.5 1.5.5-1-2h2l-1-2h2l-1-2 2-1v-2zm344 0 6.5 2.5-5.5-.5zm14 5 3.5 2.5 5 8-4-3 .5-1.5-3.5-2.5z"/><path fill="#8e8c86" stroke="#8e8c86" d="m725.5 784 3 5 2 1 2.5.5h-2l6 10-.5 1.5 1.5.5 1 5h-1l-.5-1.5-.5 2.5 2 1 2.5 5.5 2.5.5-6.5.5-.5-1.5 1-2-9-15 2 1-.5 1.5 4.5 3.5 1.5 2.5.5-1.5-4-7 .5-1.5-2.5-1.5.5-1.5-2.5-1.5.5-1.5-4.5-3.5zm-29 1 4 5 1.5-.5.5 2.5 1.5.5.5 2.5 2.5.5h-2l1.5 2.5 2.5.5h-2l1.5 2.5 2.5.5h-2l1.5 2.5 1.5-.5-1 2 3 1h-2l2.5 4.5 1.5-.5 1 3 1 2v2l4 9-1 2h2l-1 3h2l-.5 9.5-1-2-.5 3.5 1 2-2 1 1 3-3.5 7.5-.5-1.5 3-21-2-7-1-3-3-9zm38 2 9 11 2.5 1.5-1.5-.5-3.5-2.5.5-1.5-1.5-.5-.5-1.5-1.5-.5-.5-1.5-3.5-2.5zm-390 12 2.5 8.5h-2l1 2-2 5 .5 1.5-1.5-.5 1 3h-1l-.5-1.5-.5 2.5 1 2h-1l-.5-1.5-2 5-.5-2.5q5.5-7.5 6-20zm396 1 6 7zm8 1 2.5 1.5.5 1.5 2-1 5.5 3.5.5 1.5 1.5-.5q-3.2 2.3 2.5 4.5l1.5.5-.5 1.5 2.5.5-1.5 1.5-5.5-5.5-.5-1.5h-3l-8.5-6.5zm-423 5 .5 2.5-10 18 .5 1.5-.5-2.5 7-15-1-2h1l.5 1.5zm10 4 .5 1.5-1.5 5.5-1.5.5-3.5 7.5-.5-1.5zm386 0 5.5 11.5h-1zm46 6 3 5 1-4 1.5 5.5-9.5 19.5-1.5.5v2l-3.5 6.5-1.5-.5 2-9q7.3-5.7 9.5-16.5l1.5-.5-2-1 1-4-2-1zm-456 5-.5 1.5-1.5 3.5-1.5.5.5 1.5-1.5-.5 1 2-3 1 1 2-5 3-.5 1.5-2 1 3.5-4.5z"/><path fill="#8e8c86" stroke="#8e8c86" d="m341.5 823 .5 2.5-1 3 1 2-1 3-2.5 6.5-2-1-.5 2.5h2l-2.5 6.5-.5-1.5 1-4-1.5-3.5-1.5.5-1.5 9.5-1.5-2.5 3.5-9.5 1.5.5-1-2 2-1-1-3h2l-1-3h1l1 3-2 6 1.5.5.5-2.5zm-13 3 .5 1.5-6.5 13.5-.5-2.5zm-13 3 .5 1.5-4.5 7.5-1.5.5.5 1.5-1.5.5v2l-1.5 3.5-1.5.5v2l-1.5 3.5q-3.2-1.7.5-3.5l5-11-.5-1.5 1.5.5.5-2.5 1.5-.5zm-88 1 2 4 1-2 1 2q1.8-2.7 3.5 1.5l-.5 1.5-1.5.5.5 1.5-3-5q-2 3-4-2l-1.5 1.5-.5 3.5-.5-3.5zm505 0 1.5 4.5-3 4-2 9v2l-4 17v2l-1 5 1.5.5 6-20 1.5-.5-1-3 1.5-.5.5 3.5-5 19 1.5 2.5 6-18 .5 3.5-2 10 5-4 .5-7.5 1.5 7.5-3.5 9.5-.5-1.5 1-4h-1l-.5 1.5-2.5.5-2 5v2l-1.5 3.5-1.5-.5 1-2-1.5-.5-3 4-2-1-6 4 .5-1.5 1-3-2.5 1.5-6 2 1-3-2.5-.5 9-5 2-4-1-2h2l-1-4 1-3 2-3-1-3h1l.5 1.5 1.5-2.5-2-1 .5-1.5 1.5.5-1-4h1l.5 1.5 1.5-5.5-1-2 3-8-1-3 1.5-3.5 1 2zm16 2 3.5 5.5.5 1.5 2-5 1.5 2.5-3.5 9.5-1.5.5.5 4.5 1-4 3.5 2.5-1.5.5-1.5-.5 1.5 5.5.5-2.5-.5-1.5 1.5.5.5 2.5 1-2 .5 1.5q-3.9 6.1-3.5 16.5l-1-2-3 6-.5-1.5 3-9v-2l-2-7 .5-1.5-1.5-.5v-16l-3-3zm-401 2 1.5 5.5h-2l1 4h-1l-.5-1.5-.5 3.5 1 2-2-1zm-122 4 1 3 2.5.5 1.5 2.5 9.5 3.5-.5 1.5-3-1-5-1-1.5-.5-2.5-3.5-1.5-.5zm41 2 12.5 1.5-10.5 1.5-2-1-1.5.5zm-48 1 3.5 1.5-1 2h2q-2 3.5-4-1zm0 6 1 3 1.5-.5.5 1.5 4-1 .5 1.5-4.5.5-3.5-2.5zm40 0 8.5.5-6 2 2.5.5 3-1 5 2h2l3-1h2l3.5.5-.5 1.5q-16.5 1.5-26.5-3.5zm-17 1 7 9 3-1 4 5 5.5 3.5-3.5.5-5-2-.5 1.5.5 1.5-2.5-3.5.5-1.5-6.5-2.5 1-2-.5-1.5 1.5.5-1.5-2.5-3 2v-1l1.5-.5-3-1 2-3zm103 0 1.5 4.5-2 1 1 4-1.5.5-.5-2.5 2-4zm-17 2 .5 2.5-1.5 3.5-1.5.5-.5 1.5-4 1-.5-1.5 3.5-2.5 1.5.5zm5 4 1.5.5-2 9 1 3-2 1 2 7h-1l-.5-1.5-.5 4.5 1 2-2 3 1 2h-2l1 2-3.5 4.5-2-3-3 5-1-2-1.5-.5-.5-1.5-1.5.5-.5-1.5-.5 2.5 2 1-1.5.5-4.5-3.5 3-4-1.5-.5-4 3-4.5-2.5 1.5.5 6.5-1.5-6-2 .5-1.5-2 1 1-2 7.5 2.5-.5 1.5 7.5-3.5 4-15-5 3 11-9 .5-1.5 1.5-.5zm-3.5 8q-6 8-6 21l-3 4h2l5-11v2h1l-1-3 1-5v-2l1-3z"/><path fill="#8e8c86" stroke="#8e8c86" d="m717.5 857 1.5 2.5-2 1 1 5-1.5 4.5-1-2-1.5 3.5h2l-6.5 7.5.5-1.5 2.5-7.5 1.5-.5-1-2 2-1-1-2zm-478 2 1.5.5.5 1.5 1.5.5.5 1.5 1.5.5.5 1.5 3.5 2.5-1.5.5-4.5-3.5zm41 3h7l12.5 3.5-6.5.5h-2l-6-2-.5 1.5 6.5 2.5 3-1 2.5 1.5.5 2.5 2-1 5.5 1.5-.5 1.5 2.5.5-3.5.5-2-1-.5 1.5.5 2.5 3.5 1.5-1.5 5.5-1-3-2 1-5.5-3.5 1-2-1.5-.5-2 1-2.5-1.5 5-2 .5-1.5 1.5-.5-4-1 3-1-4.5-.5-3 1-5.5-2.5 1.5.5 2.5-.5-5.5-2.5-6 2-.5-1.5 6-2zm-43 3 11.5 7.5-1.5.5-7-5zm516 11 .5 7.5-8.5 6.5-1.5-.5zm-455 13 4 5-4.5.5 3 1-10.5 1.5-3-1-6 1-3-1v2l-6 1-3-1-8.5 2.5 1 2-30.5 3.5h-2l-5 1-.5-2.5 25.5-4.5h2l5.5-.5-11-1 .5-1.5 24-2h2l6-1h2l6-1 1 2 1-3h2l6-1v2l1.5-.5 1-2zm462 0 14.5.5-14.5.5zm16 0 1 2 1.5-.5-.5-1.5h2l5.5.5-2.5 1.5-2-1-5 2zm-65 1-1.5 2.5.5 2.5 4-1-1 2-1.5.5.5 1.5-3 1-2.5-1.5zm31 1 2.5.5-4.5 6.5-2.5-.5-1-3 2-1-1 2 1.5.5zm26 1 6.5 1.5-4.5.5h-2l-7 1-.5-1.5zm8 1q7.6-1.1 10.5 2.5l-.5 2.5-13 2v-2l-2.5-.5 3-1-2-1 6-1zm-445 2 2.5 1.5-1.5 2.5-7.5-.5 8-1-.5-1.5zm426 3 4.5.5.5 1.5 1.5.5-2.5.5h-2l-3.5-.5 2-1zm-556 1 7 1 3-1 4 1 3-1 3 1 3-1 1 2h-2l-3 1-2-1h-2l-7 1h-4l-4.5-.5z"/><path fill="#8e8c86" stroke="#8e8c86" d="m283.5 899 5.5.5-.5 1.5 8-1 1 2 4.5-1.5-2-1 2.5-.5h2q11.6-2.1 17.5 1.5l-3.5.5h-2l-2-1-4 2-2-1-.5 1.5 4 1-6.5.5h-2l-1.5-.5 2-1-2.5-.5-5 2-2.5-1.5 2-1-2.5-.5-14 3h-2l-16 3h-2l-20 2-.5-2.5 1.5-.5 2 1 15-1 21.5-4.5-6-1 6.5-.5 3 1 1.5-.5zm400 0 10.5.5-10.5.5zm-366 3 13.5.5-13.5.5z"/></svg>