<svg xmlns="http://www.w3.org/2000/svg" viewBox="0 0 1024 1024"><path fill="#0e0e0d" stroke="#0e0e0d" d="m584.5 151 35.5 8.5-.5 1.5-6.5 1.5 1.5 33.5 2.5 1.5 28.5 33.5 1.5.5 11 12-17-16-.5-1.5-1.5-.5-24.5-28.5-.5 7.5 21.5 24.5 47.5 46.5 3.5 4.5 4.5 3.5 32.5 37.5 2.5-1.5.5-1.5 1.5.5-1 2 1 3-1 2 3 2 2 4-1.5.5-5-4-6.5 11.5 4 2-10.5 5.5-.5-2.5 1-2-10.5-1.5-1 2-4-1-1.5 1.5-1 38v25l10 68 2.5 32.5 10-2-1 2-8.5 3.5.5 7.5 19-5 .5 1.5-9.5 4.5-1-2-9.5 3.5 1 15-1.5.5-1-15-9.5 2.5-.5 5.5-2.5-1.5-.5-2.5-92.5 31.5 2 1-1 15 8 46-1.5.5-6-27-.5 6.5 3 23 6 19q3.1 13.9 11.5 22.5l25-11 19-1v1l-5.5 1.5.5 1.5 29-5 16.5-9.5-2-4 3.5-.5 1 2 8.5-5.5-1-3 2.5-.5 3.5 2.5 4.5 10.5 6.5-1.5-.5-3.5-3.5-.5 1.5-2.5 6.5-2.5.5-1.5 17-9-1 2-5.5 3.5 1.5.5 11-4h7l5-3 10-1h2l2.5 1.5 7 14-1 5 5 10-2 5 4 8-7 4-1 6 6.5 14.5 5.5 2.5 1 10q-5 2-2 4l5 7v8l-1.5 2.5-2.5 1.5 1.5 6.5 3.5 2.5 1 7-7 5q-1 8 5 9v5l-7 5 1 2-1.5 2.5-11 5-4-1-3 1-1-2-5-1-8 4-5.5-3.5-3.5-6.5-4.5-3.5-5-25h2l-1-8-.5-2.5-1.5-.5 2-7-2.5-4.5-1.5.5-2.5 4.5-3.5-1.5-1.5-11.5-9 10-4 1-1.5-6.5 9.5-15.5 2.5-1.5q-4-3.5-3.5-11.5l-3.5 11.5 1 3-15.5 4.5-2-3-4.5-.5-.5-2.5-19 5-78.5 32.5-.5 1.5-1-2-5-1-9 5-1-3-6-3q-4.7 3.8-14 3v-1l3.5-1.5-14-35-20-42-14-44 2-5-10.5-24.5-1.5.5.5 1.5-11 3 1-2 2.5-.5-.5-1.5-28-8-3.5 7.5-1 3q-28.2 50.8-64.5 93.5l-2.5 1.5-4 14v2l.5 1.5 5-7 3.5.5-9 9-6 43-7.5 25.5-.5-3.5 7-26 1-12h-1l-3 17-15 35-4 19 1.5.5 1.5-.5q-4.4 4.1-2 15v2q1.1 8.6-2 13l1 4-2.5.5-2-3-9-2v1l1.5.5-1.5.5q-1.7-2.7-3.5 1.5l.5 5.5 1.5.5 1 5-2 4 1.5.5 1-2 1.5-.5.5-1.5 7.5 1.5-.5 1.5-6.5 1.5-7 30 1.5 2.5-1.5.5-3 11 3 1-.5 1.5-2 1-2.5.5-1.5 5.5-3.5-.5 1-5-1.5-.5-3 1-9-1-2 1-28.5-9.5.5-1.5 2.5-1.5-2.5-7.5q-15-3-21 3l-7.5-3.5-2.5-4.5-3-1-3 4-9.5-4.5-1.5-6.5q-1.6 3.9-8 3l-6.5-4.5 1-2-1.5-2.5-4-1-2 3-8.5-4.5-1.5-7.5-6 3-7.5-6.5 1-2-5-3 6.5-19.5 1.5.5.5 2.5 3.5-1.5-1-4 3.5-7.5q2.6-3.4 10-2l5 1 12-1 14 10 10 2q2-5 4-2l7.5 2.5 1.5 2.5 2 1 2.5-5.5-6-5 1.5-2.5 13 7 .5-1.5-4-5-3-14 2.5-4.5q6.8-.7 7.5 4.5l5.5 10.5 7.5-9.5 4.5-12.5 3 1q10.7-46.8 26.5-88.5l3-18 7-24-2 1-7.5 16.5-1.5-.5 43-79-2 1-10.5 16.5-.5-2.5 29-53-39.5-13.5-8-1-.5 3.5 17 9-1.5.5-14-7-.5 7.5.5 1.5-3-10-3.5-1.5 1.5-.5 2 1 .5-4.5-10.5-2.5-3-1-5-1-1 2-1.5-.5-.5-3.5-5-1-1.5.5-.5-1.5-8.5-3.5 4.5-.5 3 1 1-3 1 4 6 1 .5-1.5-3-6 2-1-.5-9.5-8-2-1 2-1-2q-12.6-.9-20.5-6.5l1.5-2.5 16.5 1.5-14 1 16.5 4.5 1-3 1 4 8 1 .5-8.5v-2l-8-75-1-27-3-16 1-8-2.5-1.5-3 1-17-1q-2.2 4.3-4.5-.5l26-1-12-3 1.5-.5 10 1 .5-1.5-14.5-.5v2l-10.5-5.5.5-1.5 3.5-.5-3.5-4.5-2.5.5-.5 1.5-3-8-3.5 2.5-4.5 5.5-1.5-.5 6-8-7-2 .5-1.5 8 1v-2l9.5-7.5 23-29-2.5 1.5-29 27-.5-1.5 29-28 4.5-5.5 14.5-13.5 38-53-.5-1.5 2.5-.5.5-2.5 1.5-.5 18-22-9-2 .5-1.5 11-1 2.5-2.5 2-3-3-1 .5-1.5q5.5 1 6.5-2.5l2.5-3.5 1.5.5-3 5 8.5 1.5 17-19 1.5.5-10 18 6.5.5 4-1 56 1 24-3 33.5-1.5.5-1.5 1.5.5-.5-1.5-1.5-.5-2.5-23.5-5 1-.5-1.5 6-2-1-3zm-.5 2-12 3v1l15-1v-2zm6 0-1 3 14 2v-1zm-9 9-11 19 1 1 7-6 6-11 2 4v-6zm9 0 1 26h4v2h-3l-1 2 5 1 2-3 5-4-3 7h3l1-2 4 7h1q-3-15-2-34l-1-2zm-23 1-2 7h2l3-6zm7 0-8 12h2l7-11zm4 0-12 17v2l1 2 12-20zm4 10-7 15v1q8 2 10-1l-2-14zm-5 5-7 8q-5 2-1 4l3-1 5-9zm-135 3-11 13h3l8-11zm143 9-11 2 5 1 7-1zm-168 5-3 5h9l3-4zm19 0-2 1-1 2h-1v1q26 1 46-3l-12-1h-2l-12 1h-4l-6-1-2 1h-2zm155 1-2 4-1-3-21 1 1 3h-25l-56 6 66 1h15l4-4 1 4 13-1 7-10zm-43 1-4 2h7l5-1 2 1 4-1zm-49 3-38 4v1h23l44-4-27-1zm100 2-69 96 1 1 66-81-3-4 1-2 5 3 3-1 4-5zm-188 3-17 26 1 1 22-26zm17 0-2 2 1 1 24-1q-9-4-23-2Zm165 0-7 9 1 1 6-8zm-148 3-20 2-19 31 1 1 24-21-2-2-1-1q9 0 13-5l1 1-2 3 1 1 4-1 5-8zm9 0-7 10 9 1 17-1 3-2 1 2 63-8-36-1h-2l-7-1-5 1zm97 1-80 12q15 3 23 14v1l-1-1q-8-10-22-13l-27 20-3 3-9 29 1 1 40-33q4-2 1-3l9-6v2l-48 40q-6 4-6 14h-1l1-5v-4l-19 17-1 2 17-4 2-5 1 4 16-4 28-13 16-3 43-50 1 1-38 50 4 5 3 10v2l-6-14-1-1q-20 26-33 60l1 5 8-3q54-57 96-126v-2l-9 7q-26 23-45 53l-2 1 27-35 28-27zm20 0-25 38 1 1 35-38zm-151 1-8 9 1 1 7-8zm189 1-5 6h3v4l19 23q8 12 23 18l67 72 5-9-20-19-1-1-17-16 12 16h2l3 4-3-2-19-21-7-7q-28-25-50-56zm-190 4-7 12-1-1-58 69 1 1 44-45 12-22h2l7-12zm-20 3-35 46 1 1q20-20 34-45zm185 0-9 13 1 1 8-12zm-8 1-5 6h-1q-29 28-52 62l1 1q31-31 57-67zm-136 1-2 1-25 27 1 1 26-27zm-7 1-23 20q-13 11-20 29h-1l-5 8 11-9-2 3-3 4 8-5v-1l10-7 26-31v-2l-28 31-4 3 3-4-1-2 30-36zm11 0-24 30 1 1 17-12 4 3 25-20-1-2zm168 11 8 11h1zm-17 4-5 6 3 1 4-5zm-24 2-9 12 1 1 8-11zm28 1-4 6 44 40 4 4q-19-29-44-50Zm-162 3-20 15q-20 18-29 47l1 1 15-4 24-21 3-4 8-27-1-1-35 37-4 3 18-21 19-18q4-1 3-6zm122 4-58 64-25 34 1 1 13-12q38-39 69-85zm85 0 3 7 11 10zm-51 1-67 88-2 7h-2l2-7v-3l-17 25 2 12 9-1v2l-10 2q1 31 7 58l2-9 2-1 1 3v1l-1-2-4 14 7 58 3 46 2 1 15-6-1-2 1-8 2 9 7-3 2 1-10 5 2 10 23-8-5-28-1-19 1-5-1-5 1-2-1-2 1-18v-2l-1-36v-24l2-2 1 3v14l3 17v25l6 81 6-2-5-46-1-26 1-32-2-15q-2-16 6-22 9-12 27-16h2l16-2 7 2q9 8 11 24l-1 4q6 23 3 55v2l5 50 6-2-7-80 1-34v-9l-8-12q-6-8-18-10l-19 1q-18 7-30 19h-2q10-11 25-17v-1l-18 8-18 20h-3l12-15q13-15 39-18 20-3 29 6l11 13 1-2 7 22v6l-3-9h-1l1 61-1 2 6 48 19-7-1-38v-2l2-8v45l2 2 9-3-1-4-1-3 1-51v-2l-2-28-1 12v4l-1 2 1 15-1 4 1 5-1 3 3 29v4l-4-14-1-22 1-14-1-7v-2l1-33v-2l1-5-5-57v-2q0-7-4-9l-1 3v2l1 2-1 2v56l3 19v4l-5-35 1-46v-2l-10-12-8-7 9 13v1l-30-28-2-2-13-13-2-3-2 1 1 18 2 1-1 3 1 17h3v3l-4 2-14 2q-3 6-5 1l-21 3-1-2 3-1-6-41 3-2 1-4 2 1q14-5 35-3zm-9 7-18 20-38 54 1 1 55-73zm76 2-1 2 8 7zm-54 2 5 9 4 2v2h2l10 13 16 14 16 16-11-17-30-28-1-1zm-213 1-12 13-21 20q-27 23-49 52l18 1 2-3-8-2 1-3 11 1 2-3 1 1-2 3h22l9-18-2-2-14 1-8 10-5 4 3-6v-2l-12 9-2-1 6-6-1 2 1 1q4-2 1-3l2-3 8-4v-1l-2-1h-3q2-4 9-2 25-25 45-56zm110 1-13 14h4l9-12zm143 3-1 2 11 10zm13 0-1 2 6 5zm13 3-1 2 15 16 10 9zm-268 1-16 13-31 33-3 4 18-6 32-42zm145 1-71 87 7 3 64-88zm86 6 12 17h2v2l4 2 19 21 2-1 5 8h1l-1-4-18-19zm-148 1q-36 8-59 28-2 4-4 1l2-4v-4l-20 5-19 18 2 1 36 5 13 4 33-35 2-1 14-16zm3 0-50 55 10 3 2 5-5 2-19 2 41 5 6-8v-2l-12 7-3-1q1-13 6-20l26-46zm118 3-8 12h2l4-6 4-3-9 13h2l1-2 8-7v-6zm-15 1-3 1-8 13 1 2 10-14zm7 0q-3 6 1 8l4-7zm-217 1-3 2-7 9 10-9zm202 0-5 2 2 9 6-10zm9 2-11 15h2l9-13zm-235 2-10 11 1 1 9-10zm35 0-18 24 1 1 9-3 8-20zm217 2-7 8h3l5-7zm-17 1-6 8 1 1 6-1v-1l-1-1-2 1 2-3zm66 2 7 7v-1zm6 0 8 9h1zm-225 2-13 4-2 6 1 1 15-10zm211 6 1 5 13 14 7 6q-8-15-21-25Zm18 0-1 2 9 7v-1zm-60 1-8 15h2l8-14zm-7 1-2 3v2l2 3 4-7zm-11 1-8 10 1 1 3-4-1 2 1 1 6-9zm21 0-9 15 1 2 8-15zm-27 1-4 2 1 6 5-7zm10 0-13 17 1 2 5-1 7-15zm-197 2-11 4-6 12h4v-1l15-14zm215 1-5 10-1 2 7-1zm-75 1-17 21-2 1-11 14 2 1-4 5 1 4 10-17 21-27zm57 2-6 10 1 2 7-2zm-213 1-8 3-5 7 10 1 5-10zm-47 3-11 12 1 1 11-12zm35 1-13 6h10l3-4zm-1 8-11 19h10l10-18zm15 1-14 18h39l2 1 16-1 8-9q-23-8-51-9Zm314 5-1 2 7 6zm-17 1 2 28v-19l-1-8zm25 3 3 6 4 1v-1zm-269 1-7 8q12 2 20-2v-1zm53 2-15 17 3 1 13-17zm-157 8-3 4 25 2v-2zm31 0-2 2 38 6q16 3 21-4v-2l-3 2-1-1q-24-5-53-3Zm326 2q-2 24 3 45l1-22v-2l-1-16 1-2-1-2zm-266 1-8 5 9 1h41q-18-6-42-6Zm-66 1-1 2 13 1h3zm-47 2-1 2 10 2q15-1 27 2h9zm3 5 1 2 15 2v-2zm44 0-1 2 62 5h9l-35-7zm56 0-1 2 53 10h7l-4-7-8 4-3-1-2-3-3-2zm87 1-2 3 1 6 3-7zm-98 6v1l6 1 33 3h7l-11-3zm91 3-2 3-2 3h5zm-147 1-2 3 15 1h13l-12-3-3 1zm30 3-2 2 14 2 4-1zm-30 2-2 2h3l9 1v-1q-2-4-10-2Zm52 0-3 2 3 1 40 4h7l-31-6zm26 0 4 2 29 4 3-1v2l13 1 3-4-15-3zm-90 1v5l-1 4h2v-8zm24 0 1 3q6 1 8-2zm19 1q-3 2 0 3 8 2 10-1zm111 0-2 6 2 1 5-5zm-142 2v4l8-2v-1zm44 0v2h9zm104 1-4 6 5 1v-6zm-89 1v1h12zm99 0-2 2q-1 24 3 44l-1 2 1 3 1-2 2 56 3 20 1-2q-3-21-2-45l-4-30zm-124 1 2 2q15 0 27 5h12l21-3-21-3-2 1zm-15 1-8 4 1 2 8-4v-1zm-11 1-8 3-1 3 3-2 2 1h-1l-3 4 5-3 1-2 4-3zm16 0-11 9 1 1h13l14-7zm251 1 7 5 4 6 2 1-3-7q-3-5-10-5Zm-168 1-28 3-2 2 36 3v-4l-1-3zm9 0-2 2 1 6 18 3 4-8-10-2-2 6-2-5zm-106 1-8 6 1 1 7-2zm33 0-10 5v1l25-2v-1zm100 1-2 1-2 3 1 7 6 1v-2l2-1 1 3h1l-1-11zm114 0-7 3-5 6 16-8zm9 1-24 12q-9 6-11 19v32l6 62v24l2 1 55-18-1-50-4-47q-1-18-10-28-4-6-13-7Zm10 0 3 3 4 7 2 1-3-6zm-214 2-33 4-14 6h-2l10-5-10-1-2 2v31l-1-29-10 7 2 34 6 32v8l2 1 1-52v67l2 17h1l-1-13 2-1v3l1 15 5 1 1 1-5-25-1 4-2-33 2-1 1 10-1 2q1 24 9 42l2-10 5-3q6 5 8 16l26 7 21-4v-1l-25-12v-1l28 11 2-4-43-14-3 1 11 4v1l-27-10 1-2 61 18v-2l2-1v4l11 4 1-9 5-4h1l-5 5-1 8 10 4h1q-4-17-3-39l3-2 4 8h2l7 17 8 5q4-4 4-13l-2-12v-40l-5-3q-11 17-11 45h-1l4-31 7-15 5 1h1l-1-26 1-2-1-14-7-2-8 10 10 2v1l-11-2-3 2-2 1 1-2-8-3-1-2 12 3 7-9zm22 1 3 2 27 4v-1l-1-2zm162 0-7 8 8-7zm-246 2 1 9 9-5v-3l-5 3 1-2zm116 2-1 2 16 2v-1zm187 3v30l1-16v-2zm-161 2-2 2q7 43 8 92l5 35h1l-4-60v-2l-3-40-1 2h-1l2-6-1-21zm6 1 3 57-1 2 1 17v2l6 53 1 1-3-2-1 6 4 2h1l-1-9 1-8-1-27-7-51-1-42zm196 7 1 36 1-4-1-3v-2l1-3-1-13v-2zm-346 8q-2 24 2 45l2 1zm164 2 2 34h1q1-20-3-34Zm-9 2-1 15 4 36h1v-14zm-163 6 4 55h1q0-31-5-55Zm152 0v22l2 1zm206 2 1 46v2l1 2-1 22 2 9 3-1 1 3-5 3 2 2 6-2-6-61zm-119 17v8l-1 2v2l1 11v2l6 69v-18l-3-49zm-87 4v28l-1 3 1 15 2-1 3 11h1l-3-47zm25 5-2 24v2l3 34v2l-1 27 7 3h2q-2-49-9-92Zm-164 11q-2 27 5 48l3 1 1 1-4-30h-1l2 18v4zm3 4v12h1zm211 3q-3 32 2 58h1l-1-40zm-100 12-2 3 3 36 4 2 1-17v17l20 8h1l-2-23-5 4-2-1q-8-6-11-16l-1 10q1-16-6-23Zm27 14q-2 20 2 36h1q2-22-3-36Zm197 7-9 4 1 5 10-2-1-6zm-311 1-4 12 8 2h5l-7-13zm119 0v29l3 1 1 1zm181 3-20 9 2 2 19-5zm13 6-8 3-1 2 9-2 1-2zm-343 1-1 9h2v-5zm95 1v6l10 5v-7zm261 0-3 1-3 8 1 1 8-3-1-6zm-350 1-1 3 5 1 3 1h1l-2-4-2 1-1-1zm300 0-6 3 2 2 4-1 1-3zm-279 1-2 3 15 4h1l-1-3zm304 0-8 3v1l9-2zm-224 2-2 8 14 9h1l-2-12zm185 1-54 18 1 3 55-18v-2zm-286 1-1 3 6 2 1-2 2 3h2l-1-3-2-2-2 1zm37 0 2 4h12zm46 0-17 6 23 6 1 1-2-11zm254 0-70 24v1l72-19v-5zm-317 1 1 2 10 2 3 1v2h2l-1-2zm-8 2-1 3 7 3v-3zm79 0 1 11 6 1v-7zm23 0 1 13 3 2-1-13zm5 1 1 17q12 7 29 9l3 1h2l-1-9 1-2-4-3-1 7 1 1-3-9-3-2-2 8h-1l-2-9zm168 0-43 13v1l45-13zm-267 1-1 4 18 4v-2zm27 0 2 2 11 1 31 8v-1l-29-10zm-8 2-1 2 14 3h2l38 10 1 1-1-4-36-10-6 1zm61 1-1 8 16 5v-2zm-99 1-1 2 10 2v-1zm39 2-1 2 11 3-4 1 70 17h4l-6-4-17-4-1 2-1-1q-20-8-44-10l2-1zm273 3-59 16-8 4 2 4 67-23zm-89 5-5 3 1 2 7-2v-2zm-124 1-2 4 19 5h1l-1-4zm85 0-11 5 4 2v1l-4-2-2 1 2 9 15-5-1-10zm-24 1q-3 5 1 7l6-2v-1zm99 0-15 5v1l18-5zm-47 2-39 15 1 1 39-13 1-2zm-178 1v1l31 9 1-2zm87 1-2 4 19 6 10-2zm48 1-10 5 1 3 2 1-2 1 1 5 10-4zm66 2-5 3 1 1 8-3zm-114 5-1 2 30 7v-1zm31 0-9 3 7 2 3 7v-11zm-91 2-7 14 1 1 8-14zm30 1q0 3 7 3v-1l-2-2-2 1zm80 2-10 4v1l10-3zm-55 4 6 5 1-2zm70 0-6 3 1 1 7-3zm-49 5-5 5 28 9 7-1-2-9-4 1-2 3-3-4-5 1zm-66 1 3 9 5 3h2l-5-7-1-1-1-2 2 1v-1zm12 1 6 11-3-1 3 3h2l-6-11zm140 0-10 5 1 1 9-4zm-157 1-1 3 5 3h1l-1-3zm13 1 2 6h3v-1zm125 0-9 5v-2l-3 2 1 2 13-6zm-113 2 1 5 1 3 4 4h1l-3-6 5 3-4-7-1 2-2-2zm-29 3q-21 36-38 77h-1l1-4v-2q-12 12-13 35l4 2-21 73-8 36 8 4v2l9 5h2l-9-6-2-3-1-1-3-4 16 8h2l-1-7 1-5-1-2 3-11v4l2 4v2l-2-4h-1l1 21 3 1 3-5-4-29-1-3 1-8 2-1 5-14 1 1-1 7v2l3 29 6-44 7-27v-3l-3 2h-3l8-7v-5l-6 4h-4l7-5 6-7 1 2 3-1v-2l-2 1v-2l-10 3-1-2 10-5 8-31h1l-6 22 1 6 2-1-3 4 2 1 7-8h-2l1-2-3 1 7-13 3-2-6 10 1 1 9-15v-2l-2 3-2 1 15-25-1-1-16 27h-2q6-17 17-29l-11-41 2-1 9 14 3 2-9-23zm149 2-14 7-1 2 16-7v-1zm11 1-6 3 2 5 2-1v-1l2-1 3-4zm-171 1-7 13 1 2 6-12zm18 0 10 26 4-7-8-16zm170 0-3 3 3 10h1zm-43 1-9 5 2 2 9-6zm-118 1 5 13h2l1-2-2-7q-1-5-6-4Zm135 1-14 10-2 3 19-8-1-4zm20 0-4 2 2 5 3-1zm-30 3-14 7 2 4 14-10zm23 0-8 5 3 5 8-4-1-4zm-136 1-2 3 2 6h2l2-3-3-5zm-26 4 9 33h2l5-8-2-5h-1v-1zm55 0-9 12 1 1 8-11zm93 0-20 10 2 4 7-3-1-1 13-9zm4 1-13 10 1 1 14-6-1-4zm-128 1-3 4 1 4 3 1 1-2zm141 1-8 7 1 1 9-3-1-4zm11 1v9l2 1-1-9zm-143 2-4 7h2l3-4zm122 1-24 11 33 91v2l-19-49-11-21h-1l18 52 15 28h-1l-6-9h-1l5 13 9 7 21-10 1 3 29-18q13-6 34-5l29-12 2-12 1 1-1 4 1 6 6-2-3-15-18 4-29 3q-19 3-32 12l-1-1 13-6v-1l-3 1h-5l30-7q25-1 45-6l-2-7-24 7q-18-1-31 2l-26 13 4 12h-1l-5-6-1-1-3 17h-1l-2-1-1-15-1-1-8 11h-2l3-8v-3l-6 4h-4l8-14-9-32-3 12q-2 16 3 25h-1l-4-13 2-23 2-4-5-26-4-8-10 7 3 7 1-3h1l-2 5 5 12 3-17h1l-3 15 2 10 5 2v1l-7-5-2 9v2l1 9 2 2h-1l-3-3 1-18-4-15-5 11 1 2-3 2 5-16-2-8-1-1-10 12v1l6-2 1 1-6 3h-4q4-11 13-17l-1-6-14 8-1-1 13-12zm-135 2-5 7 1 5h2l4-6zm145 1-7 3 2 4 7-6zm-119 5-37 52 1 1 36-51zm77 0 4 15h1zm-99 2-5 10h2l4-6zm154 0-2 2q3 32 13 58l2 1-12-60zm-50 1 7 22h1l-7-21zm-13 2q9 41 27 76h1l-9-30zm-84 1-7 9 1 1 6-8zm-63 6-18 32h-1l-1 2h3l17-31zm49 0-7 12h2l6-8v-3zm4 4-15 22h2l-14 22h2l17-26-1-2 9-14zm3 0-6 8 1 1 5-7zm338 8-3 2 6 10 4 26 3-1-1-13-7-22zm-16 3-11 4 3 4 19 11h1l-6-15 1-3 3 8h1l-1-6q-2-5-10-3Zm-17 3-5 2q-4 2 0 4v1l-2-3-2 1 1 3h4v-3l2-1q9 8 10 25l-2 13q4 8 8 1l3 2-3 9 8 4-1 2-3 2 1 3 7 1v3l-5 3 3 6 5-1v2l-6 4 1 5h-1l-2-5-8 4 2 9q8-8 26-6l-9-55 2-1 10 56h1l-2-17-11-51-17-8-10-9-1-4zm-30 6-6 4 1 1 5-2q3-1 0-3Zm21 6-8 4 3 6 4 18v-1l4-1h2l2-1q2-15-4-22zm-16 2 4 24h1q0-14-4-23zm-3 1-4 3 3 4 3-1-1-5zm-69 5-24 10-1 2 34-11zm101 0v3l-2 16h2l2-5-1-12zm-31 3 1 21v-20zm-6 3-2 2 2 13h1q2-10-1-15Zm9 0 1 17 2-1zm10 3v12l2-1zm-124 7-7 10 1 2 3-2 2-3 3-1-1-5zm-48 4 6 21h1zm189 1-1 6-2 1-2 1 1-3v-3l-3 6 4 4 8-4zm-38 2-7 4 1 3 6-2 1-4zm12 1-2 2 1 2-1 5h2l2-5-2-1 1-2zm-23 3-53 24v1l55-20v-2l1-2zm89 2q6 23 7 55l2-12-2-14 1-4-1-9zm-32 4-1 2-2 1-3 4 1 2 7-4-1-4zm-56 1-12 5v1l15-4v-1zm-40 5-19 4q-20 9-35 23l1 1 32-13 28-14zm77 1-11 16 1 3 12-17zm-382 1-12 33-13 49h2l-2 6 1 2 2-5-1-5 2-1 21-76zm405 2-7 6 1 2 8-3v-3zm-365 1-3 2-4 4-3 14 2 1-2 3 2 13v2l-2-9-4 12-4 28 1 1 8-20 10-37v-4l-3 2h-3l6-6v-5zm347 2-2 8 2 6 2-5q1-7-2-9Zm-173 5 9 24 6-1-4-3-6-6 2-1zm195 2-7 6 1 1 7-2v-4zm-361 6-2 6 1 5 1-5zm203 1-18 10 4 1 10-3 5-7zm27 1-12 5-2 3 16-7zm-238 12-6 19 1 2 5-16zm379 0-9 3-1 2 5-2 7 1-7 1-10 6-1 4v2l2 6h2l1 5 6 3 7-1 3-8h1l-1 8q-2 4-11 3l4 2 7-1q7-5 8-16l-1-17zm15 0v12q3-3 1-11zm8 9q-1 17-7 29v1l3-1q5-6 4-19zm-427 9-5 17 3 27h2l2-5zm419 4-6 10 1 1 5-8zm-35 5q-2 5 3 7h1zm-412 9-8 25 3 1 5-22zm420 2 1 5 4 2 7-3zm-462 27q0 14 8 23l2 1v-8l-7-14zm52 3q2 5 11 8v-1zm-15 1-1 3 22 15 1-4zm-7 1-2 4 5 2 1-2zm-14 2 1 14 3-2 10 4v-3l-12-10zm19 2-1 3 8 4h2zm-105 5-2 1-4 7 1 1 11-7v-1zm14 0q5 6 18 8h1q-5-9-19-8Zm119 5-2 4 5 2 1-3zm-25 2 1 2 10 5h2zm-98 2-5 5 1 1 5-2v-2l18 5v1l-12-3q-8-1-11 3l4 6q8 11 24 16l-1-1h2v-1l-2-1 1-3-3-18q-8-6-21-6Zm95 0-2 4 4 11 10 5h5l3-10zm-72 5 1 6h2l1-3 1 5q2 11-2 18l47 13 15 7 1-2q8-11 24-14h2l2-1v-5l1-2q-8-2-10 2l5 1h1v1l-11-2-15-12-8 2-1 5-4 1-3-5-5 2 1 2-3 2-3-6-6 1-1 3h-3l-2-2-7-2-2 4-5-3 2-4-3-7zm-29 1-2 6 12 9v-1l-1-1zm90 0-11 6 4 5 8-2-3-5 2-1 4 4-3-6zm-42 5 2 7h5l-2-5zm10 1 1 5 6 2 2-1-2-4zm12 0 2 6h5l-1-3q-1-4-6-3Zm-83 1-2 5 14 6h1zm28 17 4 4 21 11 23 7h8l-37-13zm21 3 14 7 30 9h3zm84 5-21 14 17 4 2-3 3-14zm-12 3-4 2-5 6-1 2 11-9zm-22 11-1 2 8 2v-1zm11 3-1 2 16 4v-2zm-12 3v5l29 9 2-6-25-3-2-2zm6 0 6 4h2z"/><path fill="#0e0e0d" stroke="#0e0e0d" d="m483.5 187 13.5.5-23.5 1.5v-1zm-20 2 7.5.5-14.5 2.5 1-2zm-85 48-9.5 10.5-32.5 37.5 1.5-2.5 9-13zm94 2-1 2-12 9 4-5zm-1 24 .5 1.5-2 1-3.5 4.5-3 2 .5-1.5.5-1.5zm100 15 .5 1.5-21.5 31.5-1.5.5-3.5 6.5-1.5.5 1 1-4 4-16.5 25.5-1.5-.5 7-13zm75 41 2 10 6-2v1l-6.5 3.5 1 13-2-1q2.5-9-1.5-11.5-2.7 5.8-12 5v-1l12.5-5.5zm16 10 6.5 34.5h-1q-6.2-15.1-5.5-34.5Zm-121 17 .5 9.5-1.5 7.5-.5-7.5zm-20 2 .5 2.5-6.5 7.5-2 1 1.5-2.5zm16 32 .5 5.5-4.5 20.5-1.5-.5zm-158 14 3.5 1.5.5 1.5 21 1h2l3 1 4-1 6 2 16 1 2-5 2 6 10.5 3.5-.5 1.5-7.5.5 5 61 2 3-1 3 6 2-6 1-.5 7.5-3-8-1.5.5-.5 1.5-4-3-51-8-1 2-1.5-.5-.5-2.5-9.5-3.5 10-1-2-6-1-22-1.5-1.5-1.5-.5 3-2-2-26-2.5-3.5-4.5-.5 6-3zm8.5 8 2 10 5-8zm10 1-9 12 1 1 9-12zm4 0-12 16 1 1 12-16zm3 1-3 6h-2l-2 3h2l-5 7 1 1 3-4 7-5zm3 0 3 27h1l-1-25zm7 1v16h2l7-11 3-2-9 14 13-12 1 1-7 11 1 1 7-5v2l-4 2-8 9h-2l9-15v-2l-12 13 1 5 16 3 2 2h2l-2-29zm-17 8-8 12h2l6-10zm7 2-8 13 9 2h2l-2-14zm-4 2-9 11h3l6-9zm-9 13-1 2 9 2h8zm49 3 1 23h1l-1-21zm-57 1 2 24h1l-2-23zm9 1-2 2 1 6h2l4-6zm7 1-7 11 1 2 9-11zm6 1-8 13h2l5-6-1 2 1 1 2-4 1 1-9 16 8 2h5l-3-23zm6 1 1 24 2 1-2-24zm6 0 1 14 9-12zm11 2-10 13h2l6-7 5-4-9 15 1 1 11-10 1 1-8 16 8 2h3l-2-25q-2-4-8-2Zm-28 2-8 10 1 2 7-10zm3 5-11 11 4 1 7-10zm23 1-8 8 1 6q4-2 1-3l6-9zm6 3-12 11-1 2 6 1 7-12zm-39 11-1 2 5 1h10zm38 8q-1 3 6 2h2q-2-4-8-2Zm28.5-62 .5 1.5 1 3 5 7-4-3-4-7zm79 11 .5 2.5-1.5 8.5-.5-3.5zm-208 18 .5 14.5h-1zm297 14 6.5 3.5 1 8-3.5 4.5-6 1-4.5-3.5 1.5-10.5zm1.5 4q-4 1-3 7l5 1 1-6zm-299.5 4 .5 15.5h-1zm341 17 .5 6.5-2.5 17.5-.5-2.5q-1.2-13.2 2.5-21.5Zm-340 2 1.5 22.5h-1zm377 59 1.5 13.5h-1zm-341 17 2.5 8.5h-1zm48 62 .5 2.5 2 18h-1q-3.5-8.4-1.5-20.5Z"/><path fill="#f8f8f8" stroke="#f8f8f8" d="M.5 0 1024 .5l-.5 1023.5L0 1023.5zM587 150l-28 6-2 5-5 1-1 2h7l-1 2 1 17 2 6-51 4h-56l35-4h2l42-1q-18-4-42-2h-2l-27 3-16 4h-8l10-16-1-3-2 1-16 18h-9l3-5-2-1-1 2-9 5 3 1v2q-3 6-13 4l-2 3 8 2-17 21-2 1-39 40-12 17h2l40-46 7-6-37 51-25 24-14 15-7 6-3 6h2l30-29-29 35-13 4 7 2-5 9h2v-1l3-2 5-6 1 3-1 2 2 3 4-2 3 5h-4l-1 2 12 5v-1l2-1-1 2 13 2v1l-7-1-19 1 2 3 24-1 3 42v2l-4 29 1 43-1 2 2 10v7l-15-4 12-1h2l-2-2h-16l-2 3q8 5 22 6l3 17v1l-5-2-4 2 10 3 3 14h1l-2-11v-2l4 1 1 5h2l2-3 7 4 1-2 8 2 1 3v2l-3-2-3 1 5 2 6 22h1l-4-18 1-2 24 11h2l-27-13 1-5 46 16-30 53 2 2 11-18h1l-43 77 1 3 6-12 2-1-9 39-12 34-11 39-1 10-2 3-2-1-6 13-6 8-6-10-5-5-5 3v7l5 14 2 2-11-7-5 2 1 2 5 4-1 4h-2l-2-3-6-3-6 3-11-4q-5-7-14-9-8-1-11 2l-8-2-4 1q-7 3-6 14l-4-2q-7 7-7 21l5 2-1 3 8 5 5-3 2 2-1 5q3 4 11 5l2-3 2 1 1 6 9 4 6-3v6l9 4 7-3 3 6 5 2q7 1 9-3l3 1 8-1 5 2q1 6-2 9l27 9 6-1 11 2-2 3 4 2 2-5 5-2 1-2-3-1 2-10 2-1q3-2-1-3l6-30 3-1h2l2-1-1-3-5 1-1-2-1 2h-2l1-2-4-6 2-6 2 1 3-2 10 5 2-18-1-3 1-12 2-1-1-2h-2l4-19 12-27 3-12h1l-7 29 1 5 9-32 5-40 9-11-2-1-3 4-4 3 3-9-1-2 39-51 32-50q-1-7 3-9l27 8-3 2 2 2 8-3h2l2-1 9 26-2 1 15 49 33 73h-3q-3 2 0 3l4-1 1 3 2 1-1-3 6-3 6 1 2 4 9-4h6l-1 2 7 1v-1l-4-1 3-3 9-2 65-27 20-5v2l6 3 5-1h2l10-3-1-2 1-7 2-1 3 6q-10 7-13 23l6 1 9-10q-1 10 5 13l3-4 2-1 1 3-2 6 3 4-1 5v12l4 16 13 14q8 1 11-4l5 3h9l10-6-1-3 8-6-1-5-3-3-1-6 6-3-1-9-1-1-4-5q6-4 5-14l-6-5q-1-6 3-7l-2-10-4-2-7-13v-6l8-5-5-9 3-4-5-9v-8l-7-13-2-1-3-1-13 3-1 2-1-1h-5l-10 4h-2l9-5 1-2-30 15-2 3 5 1-1 3-4 1-5-6 1-2-7-6-1 5-7 4-1-2-4 2 1 4-13 8-22 5h-9l8-2v-2q-31-1-47 13l-9-14-7-22-3-17 1-5 4 15h1l-8-54 1-7-1-2 92-32v4l3 1 1-6 8-3 3 30h1l-1-30 3-2 2 1-2 1 1 1 16-7v-2l-20 5-1-7 10-4v-3l-9 3q-5-55-14-104l2-59 6-2 10 1-2 3 1 1 12-5-4-2 6-11 6 4h1l-6-8 1-6-1-1-2 3-5-5-3-3-27-31-2-2-9-9-29-29-31-31q-5-3-4-11v-2l37 42 3 1 3 4h1l-16-18-1-1-28-31-1-32 6-1 1-2-7-4h-6z"/><path fill="#f8f8f8" stroke="#f8f8f8" d="m585.5 153 1.5.5-1.5 2.5-8.5-.5zm4 1 11.5 2.5-4.5.5-7.5-1.5zm-8 8 3.5.5-.5 2.5-2.5.5-4.5 9.5-5.5 4.5-1.5 2.5.5-1.5zm9 0 6 1h2l7.5.5 2 33h-1l-2.5-5.5-2.5-1.5 1-4-1.5-.5-2 3-8.5-.5zm-13 1 .5 1.5-10.5 17.5-.5-3.5zm-5 1 1.5.5-6.5 9.5-.5-1.5zm9 10 2.5 13.5-8.5 1.5-.5-1.5zm-6 5 .5 1.5-4.5 8.5-3.5-.5zm-133 1-1.5 2.5-6.5 10.5-2.5-.5zm-25 15 7.5 1.5-1.5 2.5-9 1 .5-1.5zm17 1 34.5.5-36.5 2.5zm144 1 9.5.5v2l-2.5 7.5-2-1-11 1 .5-1.5-.5-1.5-4 3h-39l-3-1h-4l-6 1-3-1h-2l-13.5-.5 71-5-1-2zm-86 4 2 1 20-1v1l-39 3h-2l-8.5-.5zm106 1 8.5 7.5-7.5 5.5-1-2-4-1-.5 1.5 2 5-3 2-56.5 71.5-.5-1.5zm-186 3 4.5.5q-2.1 3.9-8.5 3.5l2-3zm15 0 17.5 1.5-18.5.5zm35 3q14.1-1.6 23.5 1.5l-14.5 8.5h-22l-2.5-.5 6.5-8.5zm-25 1 11.5.5-5.5 7.5-2.5-.5 1-3-2.5-.5-5 4-2-1-5.5 1.5 1.5 2.5 1.5.5-22.5 20.5.5-1.5 16.5-29.5zm51 0 48.5.5-59.5 7.5 1-2zm89 0 4.5.5-33.5 35.5 1.5-2.5 20.5-32.5zm-170 1 5.5.5-5.5 4.5-2.5-.5zm141 0 16.5.5-25 23q-20 21-35 47l2-1q22.5-35 52.5-62.5l7-6-.5 1.5q-41.5 70-96.5 126.5l-7 3-.5-3.5q12.4-34.6 32.5-61.5l7 15 1.5-.5q-1.3-10.7-7-17l38-51-1.5-.5-6.5 5.5-38.5 45.5-13 2-29 13-17 4 .5-1.5q-.4-14.9 9.5-19.5l44.5-36.5 1-2-2.5-.5-25.5 18.5 1.5.5 14-11-2 3-37 31 .5-1.5 8-28 5.5-5.5 20-16 6-1q14.8 3.2 22 14l.5-1.5-6.5-7.5-16.5-7.5zM471 263l-8 8 1 1 9-7v-1zm24 34-7 11h2l5-9zm113.5-86 16.5 16.5q13.1 20.9 30.5 37.5l1.5.5 10.5 11.5 8.5 6.5 21.5 24.5 5 3-3-4-6.5-5.5-8-10 1.5-.5 5 6 1.5.5 10.5 11.5 16.5 15.5-4.5 9.5-65-71q-17.4-8.1-27.5-23.5l-16-20 1-2-2.5-1.5-1.5.5zm-205 5 3.5.5-11.5 13.5.5-1.5zm-5 2-.5 1.5Q385.5 244 366.5 262l2.5-3.5z"/><path fill="#f8f8f8" stroke="#f8f8f8" d="m437.5 221 1.5.5-2.5 3.5-2.5 1.5-19.5 21.5 2.5-3.5zm7 0 6 1 12-1 3.5 1.5-24.5 19.5-5-2-16 12 2.5-3.5zm130 0-2.5 3.5q-23.6 33.9-52.5 62.5l1.5-2.5q22.9-35.6 53.5-63.5Zm-142 1-2.5 3.5-33.5 39.5-2.5-1.5q7.3-19.2 23.5-29.5zm-23 5 .5 1.5-12 21-41.5 43.5-.5-1.5zm24 3-1.5 2.5-26.5 31.5-2 1 1.5-2.5zm165 10 6.5 5.5 14.5 15.5 1.5.5.5 1.5 1.5.5.5 1.5 1.5.5 18 23-12.5-11.5-28.5-25.5-4.5-5.5-2.5-1.5z"/><path fill="#f8f8f8" stroke="#f8f8f8" d="m436.5 243 2.5.5q-25.3 22.7-45 51l5-4q15.5-23 36.5-40.5l2-1 .5 1.5-8 26-4.5 4.5-21 19-16 5 .5-1.5q7.2-26.8 24.5-43.5zm206 2 17.5 19.5-9-8zm-50 3 17.5 19.5-20.5 1.5h-2q-6.4-.9-8 3l-2-1 2 3 1.5.5q-5.9-.4-7.5 3.5l-2-1-27 39-1.5.5-15 21-5.5 11.5-2-1-8.5 10.5 3.5.5 8-9 1.5-.5 3-7 43.5-61.5 2.5 1.5-1 3 .5 1.5 1.5.5-.5 1.5q-1.7-3.7-3.5-.5l-1 17 1 2-1 2 2.5 7.5 1-4 1.5.5.5 1.5 2.5.5 1 6-3.5.5-1.5-.5.5 1.5 1.5.5q-2.7 1.8 1.5 3.5l3.5.5q-2.7 1.8 1.5 3.5l2 1 6-3 3 1 13-4 10 1 3.5-1.5 1-3-2-3 1.5-.5 1 3 3.5-1.5 1-5-3-5-1-26 1-2-.5-1.5q19.2 22.8 44 40l-3.5-4.5-7-10 2 1 10.5 11.5.5-1.5-18-20 12 11 10 12-1.5.5-1.5-.5 3 5v2l1 5-1 50 4.5 27.5 1.5-.5-4-35 1-3-1-20 1.5-22.5 2.5 1.5 1 3v2l4 40v32l-1 59q.8 17.7 6 31l-8.5 2.5-2-46-1.5.5 1 46-19.5 7.5-4.5-41.5-1-43v-2l1-4v-2l-1-16h1l2.5 8.5 1.5-.5-1-8-7.5-21.5-1.5-.5-.5-1.5-1.5-.5-.5-1.5q-9.8-13.7-34-13-30.1 2.9-44.5 21.5l-9 13 2.5.5 1-2 1.5.5-2 11 1 2-1.5 5.5-.5-2.5-.5-1.5-1.5 4.5 1.5 2.5 1-2 1.5 1.5v87l6 35-23.5 8.5-1.5-9.5 12-6-2.5-.5-9 4-3-26-1.5.5 2 26-14.5 5.5-5.5-62.5-5-32v-14l2.5-8.5 1 2 .5-3.5-2.5-1.5-3 8-6.5-56.5 11-2-.5-1.5-10.5-.5-1-10 14.5-20.5 1 6 1.5-.5 4-10zm53.5 70v12q-4 5-13 6l1 2 12-5 2 12 2-1-1-12 6-4v-2l-6 3-2-10zm17 10-2 2 6 33 2 1zm-121 17-5 38-5 24h2l2-6 6-41zm-16 50 1 9h1zm14 23-2 13h2l1-7zm131 58-3 24h2l1-1 2-21zM555.5 250l-1.5 2.5q-29.8 47.2-69.5 84.5l-3 1 1.5-2.5 16-23zm27 6-3.5 4.5-46.5 62.5 2.5-3.5 30-44z"/><path fill="#f8f8f8" stroke="#f8f8f8" d="m604.5 257 10.5 9.5-1.5 1.5-4.5-4.5zm-201 2-.5 1.5-2.5 6.5-1-1-5.5 4.5zm-12 1 .5 1.5q-19.9 30.6-45.5 55.5l-3-1h-2l-2.5 1.5.5 2.5 3.5.5-7 3-5.5 6.5-3.5 2.5.5 2.5 12-8-1.5 2.5-1 3 1 1-4.5 4.5-11-1-.5 2.5 8 2-1.5 2.5q-10.9 1.9-16.5-1.5l33.5-36.5 40.5-39.5zm109 3-1.5 2.5-5.5 8.5-2.5-.5zm-107 2 1.5 2.5-3 2-6.5 7.5-.5-1.5 4.5-5.5 1.5-.5zm278 1 14 15 3.5 2.5 5 6-19-18zm-270 3-.5 1.5-28.5 39.5-18 6 4.5-5.5 21.5-23.5zm145 2-1.5 2.5-59.5 83.5-6.5-2.5zm71 0 3.5 1.5.5 2.5 2-1 25.5 24.5 8 12-1.5.5zm18 4 7.5 6.5.5 1.5 1.5.5 2.5 3.5 1.5.5.5 1.5 7.5 6.5 16 18-1.5 2.5zm-152 1 2.5.5-37.5 41.5-2.5 1.5-7.5 8.5-50.5-9.5 18.5-17.5 19-5-.5 1.5-1 7 2.5.5q22.8-20.2 57-29Zm6 0 2.5.5-26 45-6 15v6l4.5 1.5 10-7-1.5 2.5-5.5 7.5-6-2-33.5-3.5q16.5 1.5 25-5l-2.5-3.5-9.5-4.5 33.5-36.5 1.5-.5zm111 3 3.5.5-3.5 6.5-1.5-5.5zm7 0 1.5.5-7.5 9.5.5-1.5zm-17 1 2.5.5-2 1-7.5 10.5.5-1.5z"/><path fill="#f8f8f8" stroke="#f8f8f8" d="m428.5 281-.5 1.5-2.5 11.5-16 5 6-7zm153 0h2l3.5.5-5 3-.5 1.5-.5-2.5zm29 0 .5 3.5-6 5-3.5 4.5 2.5-3.5zm44 0 5 6zm-62 3-.5 1.5-6.5 10.5-1.5-.5zm-200 2 .5 1.5-8.5 18.5-7 2 .5-1.5zm218 1-.5 1.5-4.5 5.5-.5-1.5zm-17 1 .5 1.5-4.5 5.5.5-1.5zm-155 4 1.5.5-12.5 8.5-.5-3.5 1.5-2.5zm232 6 6.5 5.5-.5 1.5zm-65 1 .5 1.5-3.5 6.5-.5-6.5zm-10 3-.5 1.5-7.5 15.5-3 1-.5-2.5zm-198 2 2.5.5-16.5 14.5-.5-2.5 4.5-9.5zm215 2 1.5 5.5v2l-.5 1.5-5 1 .5-1.5zm-3 1-.5 1.5-4.5 7.5 1.5-2.5zm-73 1-1.5 2.5-19 24 1 2-9.5 14.5-.5-3.5 6-9h-2zm59 0 1.5 8.5-5.5 1.5-.5-1.5zm-214 1 2.5.5-4.5 8.5-8.5-.5 4.5-6.5zm-48 4-1.5 2.5-4.5 5.5 3.5-4.5zm36 0 1.5.5-3.5 4.5-6.5-1.5zm305 2 4.5 3.5-.5 3.5zm-323 5 14.5.5-8.5 17.5-18 1-2.5-1.5zm18 0 9.5 1.5-10.5 16.5-8.5-.5zm16 1q28.1 1.9 50.5 9.5l-9.5 8.5h-42l-12.5-1.5 2-1zm225 0 2.5.5-2 1 .5 2.5 1.5-.5 1.5-3.5.5 1.5-2.5 3.5-2-1-3-1-2.5.5-.5 1.5-1-2-1.5-.5 4.5-1.5 3.5.5zm65 0 3.5 7.5-1.5-.5-1.5-.5 1-2zm-237 10 12.5 5.5q-7.5 3.5-19.5 2.5zm270 0 5 6-5.5-4.5zm-218 3-3.5 4.5-8.5 11.5-2.5-.5zm-125 7 23 1 2-1 25 2 2.5 1.5-1.5 3.5-3 1-20-1-29.5-5.5zm-32 1q13.3-.3 22.5 3.5l-12.5.5-3-1-9.5-.5zm357 1 3.5.5-.5 35.5-1.5-1.5zm-265 1 40.5 5.5-2.5.5-44.5-1.5zm-114 4 26.5 2.5-10.5.5-15-1zm9 5 10.5 1.5-6.5.5zm41 0h36l22.5 4.5-11.5.5-47-4zm55 0 40.5 3.5q-3.2 2.2 2.5 4.5l9-4 4.5 6.5-1.5-.5-19-2-36-7zm-96 10 10.5.5-.5 1.5-10-1zm26 1 11.5 1.5-11.5.5zm13 1 13.5 1.5-6.5.5-7-1zm19 1 13.5 2.5-7.5.5-8.5-1.5zm227 0 3.5.5-2.5 1.5h-2l-14 7 1-2zm-175 2 39 2 7.5 2.5q-1 4.5-7.5 3.5l-9-3-5 1-24-4zm162 0 1.5.5-23 16-.5 4.5-1.5-.5-.5 3.5-1.5.5.5 8.5h2l1.5.5-.5 1.5-1.5-.5-.5-1.5-1.5 2.5 2 1 1.5 2.5 1.5.5-3.5.5-1-2-2.5-1.5 1-2-3-11 12.5-13.5zm-245 1 9.5.5-.5 1.5-9-1zm51 0h14l20.5 3.5-6.5.5-23-2zm234 0 10.5 8.5 5 8v11h-3l-1-3h1l.5 1.5 1.5-.5-3.5-9.5-1 2-1-2 1.5-.5-1.5-3.5-.5 1.5.5 1.5-1.5-.5-.5-2.5-1.5.5.5-2.5 2.5-1.5-2-1-.5-1.5-1.5.5-2.5-4.5-2.5-.5zm-21 4h2l8.5 1.5-1.5 1.5h-17l-.5-1.5 1.5-.5h2zm-225 3 55.5 2.5-28.5 3.5q-11.4-4.6-27-5zm245 0 5 6zm-268 1 3.5.5-6.5 4.5-.5-2.5zm9 0 15.5 2.5-12.5 6.5h-13l4-5zm252 2q6.4.1 8.5 4.5l1 2-1.5-.5zm-233 1 12.5 2.5-22.5 3.5v-1zm54 0 14.5.5-.5 5.5-28-3-5 1v-1zm18 0 7.5 1.5-1 2 1.5 2.5 2.5-1.5.5-3.5q8.3-2.2 10.5 1.5l-4.5 7.5-17.5-3.5z"/><path fill="#f8f8f8" stroke="#f8f8f8" d="m580.5 380 .5 1.5-2 1-.5 1.5-1.5-.5-.5 1.5-1.5-.5zm-224 1 .5 1.5v2l-.5 1.5-5.5-.5 5-3zm136 0 3.5.5 1 10h-1l-.5-2.5-1.5.5-.5 2.5-5.5-1.5q-1.7-6.7 1.5-8.5zm13 0 1.5 32.5h-1zm97 1 2.5.5-8.5 4.5 2-3zm9 1q11.7-.7 15.5 6.5l7 16-2 1 1.5 12.5 2-4 .5 2.5v2l-.5 3.5-1-4-.5 2.5.5 2.5 2.5.5 1 22h-1l-.5-1.5-1.5 3.5h2l-1.5 4.5 1.5-.5 1.5-3.5.5 7.5-.5 4.5-1.5-.5-1-5 .5-1.5-9-3-2 1-3-2-4.5 3.5-1 9 3.5 4.5 1-2 .5 1.5.5 2.5 1.5-.5.5-1.5 5 2 5-3 1 21 1.5.5-2 1 1 8 2.5 2.5 1.5.5-1.5 3.5-1.5.5 1 3v2l-.5 6.5-51 17-3.5-60.5-4-36 1-14-1-2q0-15 7.5-22.5 10.3-9.2 25-14Zm14 0 5 6zm-219 2h12l57.5 10.5-6.5 7.5-13-2 1 2 9.5 2.5-1 2 1.5.5 5-2 9 2q3-1.5 0-3l-9.5-1.5 7.5-8.5 6.5.5 2 37v2l-.5 3.5-5-2-7.5 13.5-5.5 33.5-4-7-3.5 1.5-1 10 4 28-2.5.5-7.5-3.5q-1.3-8.7 3.5-11.5l2.5-1.5-.5-1.5-6.5 4.5-1.5 9.5-9.5-3.5-1.5-4.5-2 3-61-17-.5 1.5 57 24q-8.9 5.1-23.5 4.5l-22.5-5.5-8.5-16.5-2-1-3.5 2.5-2.5 8.5q-8.9-20.6-8-51l-2.5.5 1 25-2 13 1 2-1.5.5-1.5-49.5v-2l1-5v-2l.5-50.5 7.5.5-7 3 .5 1.5 13-5zm-22.5 5-1 3h-6l1 2-2 3-2 1-1 2 6 2h-3l-2 1 1 2-1 3 2 48 1 3-2 5 7 3-2 1 1 3 8 3v2l11 2 3-1-1 2q7 3 19 1l1-2 1 2 2-1-1-1v-1l15 4 1-2 4-1 1-2 2 8h2l-1-6 5-1 1-2-1-1-2-3 1-6-1-2 2-9-2-25 1-2-2-7v-22l-2 3 1 2-2-1 1-2-3-2 1 2-2 1-1-1 1-2-2 1-3-1 1-2-5-3-3 1-5-1-5 2-1-1-25-4h-2zm76 18v6l9 11 4 3-12-16v-3zm14 20 1 5 4 3zm-36.5-42 23.5 3.5-5.5.5-18-3zm-90 2 1.5.5.5 1.5 1-2 2.5.5-5.5 4.5zm9 1 1.5.5-9.5 6.5 4-5zm108 0 13.5 2.5-6.5.5-7.5-1.5zm-109 4 2.5.5-1 3 1 34v2l-1 6 1 3-1 2v2l-.5 23.5-6.5-40.5-2-30z"/><path fill="#f8f8f8" stroke="#f8f8f8" d="m409.5 395 2 1 2.5.5-2.5.5-3 1v-1l1.5-.5zm80 0 4.5.5-1 8 1 13-1.5 11.5q-4.8-15-3-33Zm7 0 1.5 3.5v30h-1zm154 0 .5 20.5h-1zm-262 8 6.5.5-5.5 7.5zm9 1-1.5 2.5-5.5 8.5-.5-1.5zm3 0 2.5.5-12.5 14.5 1.5-2.5zm4 1 .5 6.5-7.5 6.5 1.5-2.5zm11 0 9.5 2.5-8.5 12.5zm13 2 6.5 1.5 1 26-.5 2.5-.5-2.5-.5-1.5-12-2-1.5.5 5.5-7.5 7.5-4.5-.5-1.5-9 6 1.5-2.5 6-11-1.5-.5-11 10 .5-1.5zm258 7q3.4 32.1 2.5 68.5h-1l-2-15zm-352 1 7.5 77.5v14l-1.5.5-6.5-2.5q-4.3-28.7-2-64zm62 0-1.5 2.5-3.5 6.5-1.5-.5zm9 0 1.5 13.5h-1l-.5-1.5-5 1-2.5-1.5z"/><path fill="#f8f8f8" stroke="#f8f8f8" d="m425.5 416 1.5.5-9.5 13.5-.5-4.5zm267 3 .5 11.5h-1zm-346 1 2.5 30.5h-1q-3.3-13.7-1.5-30.5Zm52 0-.5 1.5-3.5 5.5-1.5-.5zm96 2 6.5 94.5h-1l-5-47 1-2q-3.9-16.6-3-38zm78 1q3.6 3.9 1.5 13.5l-1 2v2l1 4-1 4v2l1 9-2.5.5.5-1.5 1-3-2.5-.5-1.5-.5.5-6.5 1.5 3.5-1 2 2 1-1-5 1-2-3-5 1.5-.5 1 3 1.5-.5-3-7 1-2-.5-1.5 1.5.5-.5-3.5-1 2-.5-1.5 3-6-2-1zm-71 1 2.5 30.5h-1zm-56 3 .5 2.5-.5 9.5zm251 1 9.5 78.5-6.5 2.5-.5-1.5 5-3-1.5-2.5-4.5-.5v-39q-3.2-15.8-1.5-34.5Zm-357 8 2.5 34.5h-1zm170 0q3.8 22.3 2.5 49.5h-1zm-110 1 2.5.5-7.5 9.5-.5-1.5zm6 1 2.5.5 3 23-1.5-.5q-6.9.9-9.5-2.5l8-16-1.5.5-8 7 1.5-2.5zm78 0 4.5 3.5-1 11 1 2-1 13 1 2v2l-2 17 1.5 2.5 1-6 .5 14.5-3.5 6.5-5.5-3.5q-8.7-7.3-8-24l5-28zm-65 1 7.5.5-7.5 11.5zm10 1 3.5.5-3 2-7.5 8.5 2.5-3.5zm5 1 3.5.5 2 25-1.5-.5-9.5-1.5 8-16-2.5-.5-7.5 6.5-1.5 2.5.5-1.5zm65 1 1.5 1.5q.3 21.7 5 39l1 39h-1l-3-17z"/><path fill="#f8f8f8" stroke="#f8f8f8" d="m490.5 445 2.5 7.5-1 3 2 11 1 26h-1l-1.5-4.5-2.5-.5zm-87 2-.5 1.5-6.5 10.5-2.5-1.5 5.5-6.5 1.5-.5zm245 0 .5 5.5-3-2h2l-.5-1.5-1.5-.5zm-223 2 .5 1.5-6.5 8.5-.5-2.5zm89 2 2.5 11.5 7 77-1.5.5-7.5-4.5 1-36q-4.3-21.4-1.5-48.5Zm-83 1 .5 1.5-6.5 10.5-5.5-.5zm147 9 1.5 9.5-1.5.5zm61 1 .5 7.5-1.5.5-1.5-2.5h2l-1.5-3.5-1.5.5.5-1.5zm-288 4 5 37 2-1 1.5 5.5-1.5.5-1-4-1 3-3.5-13.5zm295 5 2.5 1.5-2 3 2.5 1.5 1-4 .5 4.5-1.5.5-1.5-.5 1 3h-2l-.5 1.5-.5-1.5v-2zm-67 2 .5 16.5h-1zm-115 6 5.5 9.5-1 2 1 2-1 24 .5 1.5-2.5-.5q-4.5-17.1-2.5-38.5Zm101 0 1.5 18.5-1 2 1 3-1.5.5zm85 1 1.5 1.5 2 28-4.5.5v-1l1.5-.5-.5-1.5-1.5-.5 2-3-3-1 3-2 1-2-2-1 .5-1.5 1.5-.5-1-2v-2l-.5-1.5-2 3-.5-2.5-1-3 1-2-.5-1.5 1.5.5.5 2.5 1.5-.5zm-286 8 5.5 22.5-3.5.5-2.5-1.5zm107 4 10 15 5 1 3.5-2.5 2 21-1.5-.5-18.5-7.5zm109 0 .5 11.5h-1zm-89 3 2.5 6.5 1 25h-1zm-92 3 39.5 11.5-2.5 4.5-35-14zm173 0 2 7 2-1 .5 7.5-1.5.5-1.5-.5 1 5-2 1 1-8-1-3 .5-1.5-1.5-.5zm-194 2 7.5 13.5-2.5.5-9.5-2.5q-.3-8.3 4.5-11.5Zm309 0 2.5.5-.5 5.5-8 2-1.5-4.5zm-12 4 2.5.5-.5 4.5-18 5-.5-2.5zm-340 4 7.5 2.5-.5 7.5-2.5.5 1.5 3.5 1.5.5-.5 3.5-5.5-1.5zm108 3 9.5 4.5-1.5 6.5-7.5-4.5zm261 0 1.5.5-.5 7.5-7 2 1.5-2.5-1-5zm-330 3 13.5 3.5-.5 1.5-13.5-3.5zm80 2 10.5 3.5 3 12-2.5-1.5-11.5-7.5zm43 0 3.5 13.5-1.5.5-2.5-1.5 1-3-1-2 1-3zm-107 1 13.5 3.5-8.5.5-4.5-1.5zm47 0 4.5 2.5 2 9-1.5.5-20.5-6.5zm200 0 .5 2.5-51.5 16.5-.5-1.5zm54 0 1.5 4.5-6.5 3.5-27 6 .5-1.5 1.5-2.5zm-223 3 3.5 14.5-2-1zm-23 1 6.5 3.5-.5 7.5-5.5-2.5zm27 1 19.5 7.5 2.5 10.5 2.5-1.5.5-6.5 3.5 1.5 2.5 9.5.5-4.5-1-4 1.5-.5 2.5 1.5 1 11-2.5.5-1-2-1 2-26-7-3.5-3.5zm166 0-1 2-16 4v-1zm-265 1 17.5 5.5-.5 1.5-16.5-4.5zm32 0h12l26.5 8.5-2.5.5-36-8zm173 0 1.5 10.5-3-1-.5 2.5-2.5-1.5 4-3-1-4zm-173 3 36 8 4.5 2.5 1 2-2.5.5-36-10zm49 0 13.5 8.5 1 2-2.5.5-13.5-5.5zm48 0 4.5 3.5-.5 3.5-3.5-1.5zm-109 2 9.5 3.5-2.5.5q-6.5 0-7-4Zm255 4 1.5.5-.5 1.5-19 5v-1zm-243 2q24.3 2.8 43.5 10.5l-2.5.5-41-10zm244 2 2.5.5-50.5 17.5-.5-3.5zm-196 1 15 3 2.5 2.5 1 2-3.5.5-15.5-4.5zm87 0 1.5.5 1 9-14.5 6.5-2.5-8.5 2.5-.5 4 1 .5-1.5-4-2zm-25 2 6.5 2.5-6.5 2.5zm96 0 1.5.5-13.5 4.5v-1zm-44 1 1 2-22 7v-1zm-174 2 23.5 5.5-1.5 2.5-22-7zm82 0 26.5 7.5-8.5 2.5-17.5-6.5zm-24 2 18 4 3.5 2.5-1.5.5-20.5-5.5zm71 0 1.5.5 1 9-9.5 3.5-.5-3.5 3-1-.5-1.5-2.5-1.5 1.5-3.5zm18 6 1.5.5-9.5 3.5v-1zm-64 1 27.5 6.5-.5 1.5-24-6zm27 0 1 2 1-2 2.5.5-.5 7.5-2-4-6.5-2.5zm-12 13 15 5h2l3.5.5 1.5 3.5 3-4 2-1 3.5 7.5-5.5 2.5-28.5-9.5zm85 3 1.5.5-8.5 3.5v-1zm-149 1 5.5 4.5 2 4-1.5-.5-3.5-1.5zm-12 6 4.5 1.5 9 22-2-1-9.5-13.5-2.5 1.5 12 40-7.5 11.5q-4.3-7.2-3-20l-2.5 1.5q-.9 13.4 4 21l-10 19 1.5.5 1.5-.5-7 13 2 1-2 4-2.5 3.5-1.5-.5 2.5-3.5-3 1-.5-2.5 8-31-2 1q-7.5 15-9.5 35.5l-10.5 5.5.5 1.5 8-2-1.5 2.5-2.5 4.5-7.5 4.5.5 2.5 9-4-.5 1.5-4.5 6.5-2.5 1.5.5 2.5 4-2 .5 2.5q-9.4 30.6-12.5 67.5l-1.5-37.5 1-3-2 1-5.5 16.5-1.5.5-1 16 2 3 2 23-2.5 3.5-2.5-.5-1-19h1l2.5 4.5.5-2.5-2.5-9.5-2.5.5-1.5 24.5-17-9-.5 2.5 5 4-2.5.5-4.5-3.5 7-34 21-76-3-1q.3-21.2 10.5-32.5l.5 1.5-1 2 1.5.5zm151 1-1 2-14 7 1-2zm13 1 .5 1.5-7.5 5.5-1.5-3.5zm-156 1 6.5 3.5 7 16-3.5 5.5zm128 1 1.5.5-9.5 5.5-.5-1.5zm41 0 1.5.5 1 10h-1zm-160 1 5.5 2.5 3 7-1.5 2.5-1.5-.5zm136 1 1.5 4.5-16.5 7.5 3-4zm13 3 1.5 5.5-7.5 4.5-1.5-5.5zm-137 2 2.5 1.5 1 4-1.5 2.5zm110 0 1.5.5-9.5 8.5-1.5-4.5zm16 4 1.5.5 1 4-13.5 5.5 4-5z"/><path fill="#f8f8f8" stroke="#f8f8f8" d="m419.5 590 11.5 17.5-2 6 2-1 1.5-4.5 1.5 5.5-4.5 6.5-1.5-.5zm144 0-1 2-8.5 5.5-2.5 3.5-2 1-1.5-4.5zm-121 1 1.5 6.5-2 1-2-4zm141 1 1.5.5-.5 3.5-7 3-.5-1.5z"/><path fill="#f8f8f8" stroke="#f8f8f8" d="m572.5 596 1.5.5-14 12 3.5 1.5 11-8 1.5 5.5-13 17 2.5 1.5 9.5-4.5-.5-1.5-7 2 1.5-2.5 8.5-9.5 2.5 7.5-6 17 2.5.5 5-14q5.3 6.8 3.5 20.5l-1 9 2.5 5.5 2.5-.5-2-3v-17l4.5 3.5 4.5.5q-3.5 10-2 25l4.5 10.5.5-3.5q-4-7-3-19l2.5-13.5 9.5 28.5-9 15 2.5 1.5 8-5 .5 1.5-4 9 3.5.5 5-9 3-1q-1.7 11.7 3 17l2.5-1.5q-1-10 2.5-15.5l4 6 3.5-1.5-5-10 5.5-2.5 4 1 2-1v1l-8.5 4.5.5 1.5 12-6 22-6 45-6 2.5 13.5-5.5 1.5-.5-1.5 1-9-1.5-.5-3 13-26 11q-21.8-.3-37 6l-27 17-3-2-17 9h-4l-3.5-2.5-.5-1.5-1.5-.5-6-12 2 1 3.5 6.5 2.5-1.5-13-22-19-53h1l11 22 13 39 3.5 5.5 1.5-.5-34-94zm-134 1 2.5 4.5-4.5 7.5-1.5-6.5z"/><path fill="#f8f8f8" stroke="#f8f8f8" d="m584.5 598-5 6-1.5-.5 1.5-3.5zm2 2 2 6 2-1 2.5 3.5 4 27q-1.7 4.3-3.5 1.5l-3.5-2.5-2-5 4-19-2-1-.5 2.5-1.5.5-1.5 13.5-4.5-9.5 3-5-2.5-1.5-1 3-2.5-5.5 7-6zm-122 3-.5 1.5-35.5 51.5.5-1.5zm-22 2 .5 4.5-3.5 4.5-1.5-.5zm155 0 12.5 59.5h-1q-10.4-25.1-14-57zm-62 8 18.5 44.5 6 21h-1q-15.3-29.9-23.5-65.5Zm-149 2 .5 1.5-17.5 31.5-.5-1.5zm49 1q3.3 1.8-.5 3.5l-4.5 7.5-.5-3.5zm3 5-.5 1.5-3.5 5.5.5-1.5zm-11 7 .5 2.5-13.5 21.5.5-1.5zm352 0 2.5.5q7.4 14.1 9 34l-3 2q-.1-23.3-8.5-36.5Zm-12 2 3.5.5v2l6 16-1.5-.5q-12.7-3.3-19.5-12.5l-1-2zm5 0 3.5 7.5h-1z"/><path fill="#f8f8f8" stroke="#f8f8f8" d="m749.5 633 2.5.5q1.9 9.6 9.5 13.5l17.5 6.5q6.4 17.1 8 39h-1l-4.5-26.5-2.5 1.5 8 41 1 14-1.5-.5q-16.1-1.1-23 7l-2.5-8.5 7.5-4.5 2 5 2.5-1.5-1-5 5-2-.5-3.5-5 1-1.5-5.5 4-2 1-2-1.5-2.5-5 1-1.5-4.5 3-5-7-2-1-3 3-2 1-4-1.5-2.5-2-1-4 3-4.5-4.5 1-1 1-15q-2.1-12.9-9.5-20.5l-4.5-.5zm-320 5-.5 1.5-14.5 22.5.5-1.5z"/><path fill="#f8f8f8" stroke="#f8f8f8" d="m738.5 645 1.5.5q7.7 6.8 5 24l-7.5 1.5-5.5-22.5zm-16 3 1.5.5 3 16h-1zm-15 5 2.5 1.5-.5 4.5-41 5-33 7 1-2 19-8 27-1zm-59 1 4.5.5-26.5 10.5 1-2zm104 3 .5 11.5-1.5 3.5-.5-5.5zm-39 3 1.5.5 1 12h-1zm11 4 1.5 10.5-1.5.5zm-115 6 1.5 4.5h-2l-.5 2.5-5 3 .5-1.5 3.5-6.5 1.5-.5zm141 5 1.5.5 3 6-7.5 3.5-.5-2.5 3-2zm-37 1 .5 3.5-6.5 3.5-.5-3.5zm-11 4 1.5.5-1.5 4.5-8 3v-2l-7 2v-1zm89 5 6.5 13.5 1 31h-1l-2-23zm-88 2 2.5 1.5-9.5 2.5v-1zm55 0 1.5.5 1 3-7.5 3.5.5-1.5zm-71 2 2.5.5-36.5 13.5v-1l24-11zm-20 3 1.5.5-26.5 13.5-32 13-.5-1.5 32.5-20.5zm73 1 .5 2.5q-3.5 10-11.5 15.5l-.5-1.5zm47 2 4.5 19.5v8h-1zm-26 2 3.5 1.5-.5 1.5-8 3zm-364 1 .5 4.5-5 7 1.5.5 4-3 .5 1.5-7.5 27.5-1.5-.5-1-16 1-3-1-3 4.5-13.5zm347 2 2.5 4.5-2.5 7.5zm22 6 1.5 4.5-7.5 2.5-.5-1.5zm-194 1 6.5 9.5-1.5-.5-2.5-1.5zm-221 7 .5 2.5-15.5 53.5-1.5-.5q6-30 16.5-55.5Zm257 0-1.5 2.5-3.5 4.5-11 2v-1zm26 1 1.5.5-12.5 5.5 1-2zm-57 4 4 5 4.5 2.5-5.5 1.5zm204 7 7.5 1.5q3.6 22.6-6.5 31.5l-7 2-3.5-1.5q7.2.7 10-3l2-8-2.5-1.5q.2 6.7-4 9-9.5 2-11.5-3.5l-5-14q5.7-7.3 18-8l-.5-2.5-7 1v-1zm-394 3q-.5 7 3.5 9.5l-9.5 27.5-.5-2.5 5-33zm-15 16 2.5 35.5-2.5 7.5-3.5-32.5zm427 0 .5 5.5q-.2 10.2-6.5 14.5l-.5-1.5zm-34 19 10.5 4.5-7.5 1.5zm-422 1 .5 2.5-5.5 19.5-.5-3.5zm-40 26 8.5 13.5 1 9-3-2-7-14zm53 4 8.5 5.5-1.5-.5zm-17 1 22.5 13.5-1.5 2.5-21.5-14.5zm-21 3 14.5 11.5-.5 2.5-10-3-2 1zm20 1 7.5 6.5-1.5-.5-6.5-3.5zm-104 5 3.5 1.5-9.5 6.5-.5-3.5zm13 0q11.7-.2 16.5 6.5l-2.5.5-13-5zm0 10 14 3 2.5 2.5q4 8 2 22l-2.5.5q-14.2-6.3-22.5-18.5l-1-3 7.5-2.5 15 4 .5-1.5q-10.8-1.6-15.5-6.5Zm91 0 18.5 8.5-2.5 10.5q-9.9-.6-14.5-6.5v-2l-4-7zm-69 5 8.5 4.5 2 6-1 4 1.5 2.5 4 1 2-4h4l6 5 3-4 5.5.5 1.5 4.5 4.5-1.5.5-3.5 3.5.5 3.5 4.5 4.5-3.5.5-3.5 7-2q8.2 11.8 25 15l1.5-2.5-5-1 4.5-1.5 2 1 1.5-.5-1.5 6.5q-17.3 1.7-25.5 12.5l-2.5 3.5Q303 851 269 844.5q4.2-4.8 3-15zm-33 2 9.5 11.5-1.5-.5-8.5-6.5z"/><path fill="#f8f8f8" stroke="#f8f8f8" d="m323.5 823 1.5.5 3 5-7.5 2.5-4.5-5.5zm-39 2 5.5 2.5 1 4-1.5.5-4.5-2.5zm10 1 7.5 2.5 1 3-4.5.5zm12 0 4.5.5 3 5-4.5.5zm-83 1 11.5 9.5-1.5-.5q-8.3-.2-11.5-5.5zm32 19 27 12 8 1 14.5 5.5-7.5.5-15-6h-5l-18-9zm20 2 41.5 13.5-2.5.5-24-7zm82 4-.5 1.5-4.5 16.5-15.5-4.5zm-13 3-2 3-7 6 6-7zm-11 15 15.5 3.5-2.5 1.5-13-4zm-11 2 2 4 2.5 1.5-1.5-.5-3.5-1.5zm9 6 20.5 2.5-1.5 4.5-17-5z"/><path fill="#a7a278" stroke="#a7a278" d="m585.5 162 .5 6.5-2-1-.5-2.5-1.5.5 3-1zm13 0q6.8-1.7 8.5 1.5l-.5 7.5-1-8h-7zm-32 1 3.5.5-1.5 2.5v-2l-2.5.5 1 5-1.5.5-.5-5.5zm24 8 .5 10.5h-1zm-11 2-2 3-5 4q-3-1.5 0-3 2 3 4-2zm-140 10q4.5 2 1 4l-2-2-3.5 2.5zm50 3q24-2 42.5 1.5l-23.5.5h-2l-8-1h-9zm95 0 .5 1.5q-1.7 3.3-8.5 1.5v-1l7.5-.5zm11 2 3.5.5-3.5 4.5-1.5-.5 3-2-.5-1.5-1.5.5zm-178 2-2 3-5 1 1-2zm19 0 1 3 5.5.5-6.5.5-1.5-2.5zm98 0 10.5.5-10.5.5zm-84 1 3 2 49.5.5-51.5.5zm15 4 12.5.5-8.5 1.5zm82 2 14.5.5-4.5 1.5-2-1-5 1h-2l-4.5-.5zm20 0 10.5.5-10 1 1 2h-1zm47 0 7.5 5.5-7-3-.5 5.5-.5-5.5zm-114 3 27.5.5-12.5 1.5-15-1zm44 1 15.5.5-15.5.5zm-106 4 12.5 1.5-5.5.5-7-1zm54 0 19.5 1.5-24.5.5v-1zm60 2 15.5.5-15.5.5zm71 0 6.5 4.5-3.5-.5zm-170 1 8.5.5q-8.1-1.6-10.5 2.5zm27 0 7.5.5-1.5 2.5-2 1-.5-1.5 2-1-5.5-.5zm70 1 15.5.5-15.5.5zm39 0 1.5.5-3 2-.5 2.5-1.5-.5 2-1q-2.7-1.8 1.5-3.5Zm-170 1 1.5 2.5-3.5 6.5-1-3-6.5 5.5 3.5-4.5 1.5-.5.5-2.5q1.8 3.8 3.5.5l-1-2zm144 1 3.5 1.5-7 4zm46 0 11 12zm-30 1-9 10zm50 2 6.5 4.5-3.5-.5zm-71 1-.5 3.5-13.5 13.5-4.5 1.5zm17 4 .5 1.5-3 2-.5 2.5-1.5-1.5zm51 0 9 10zm10 1 4 5-5.5-3.5zm-173 1 4 2 3-1v1l-3 1zm117 1 1.5.5-5.5 8.5-1.5-.5 2-1zm-180 3-7.5 8.5-1.5 2.5.5-1.5 2.5-4.5 1.5-.5-.5-1.5 1 1zm33 0 2.5.5-6 3zm-12 2-5 6zm-35 1 1 3 1.5-.5-5 1-1.5 2.5-2.5 1.5-.5 1.5-2.5 1.5 1.5 2.5-1-1-8.5 7.5 1-3zm102 0 5.5 5.5-1.5 1.5q-6.2-3.5-4-7Zm74 2-6 7zm49 2 5 6-5.5-4.5zm36 0 9.5 9.5.5 2.5 1.5.5-1.5.5-3-5-2.5-.5 1-1zm-217 1-3 6zm-5 1 1.5 1.5-8.5 8.5zm167 0-2.5 3.5 1.5 1.5q2-5 4-2l1.5.5-.5 1.5-2-1 .5 1.5-2.5 3.5-2.5-1.5 1-2-2-1zm-32 1-7 8zm-20 1-3 4-4.5 1.5zm-66 1 1.5 1.5-4.5 6.5.5-3.5-1-2h2zm162 1 5.5 6.5-3-2zm-38 1 5 6q-3.8-7.7-7.5-3.5zm18 0 6.5 5.5-2.5-1.5zm-177 1 4.5 2.5-3 2zm-30 1-7 8zm153 0-1.5 2.5-4.5 6.5-1.5-.5zm-13 1 2.5.5-5.5 4.5 1-2 1.5-.5zm101 0 28 29-7.5-6.5-.5 1.5-1-2 1.5-.5zm-62 1 1.5.5 1 3-3.5 2.5-2.5.5.5 1.5 1.5.5-3.5 4.5-2.5 1.5q2.8 1.8-1.5 3.5l-1-4q1.7 2.8 3.5-1.5l-1-2 4.5-6.5 2.5-1.5zm38 0 13 14zm-210 1-2.5 3.5-4.5 5.5 1.5-2.5.5-1.5 1.5-.5zm48 0 4.5.5-3.5 5.5zm-45 1-5 6zm189 0 5.5 6.5h-1zm-14 1 6 7-1.5-.5zm11 0 14 15zm-145 1 2.5.5q2 3.8-3.5 7.5-2-2.7 2.5-5.5l-1.5-1.5-3 4-3 2zm103 1 2 1 1.5-.5-5 3 .5 1.5 1.5-.5-5 2zm78 1 5 6zm-244 1-7 8zm250 0 3 6q-5.1-3-3-6Zm7 1 8 9 1.5.5-1.5.5zm-78 2-1.5 2.5-24.5 31.5-1.5-.5zm-121 2q2.1 3-3 6-2.1-3 3-6Zm151 0 7 8zm-247 1-6 9-1-1-4.5 3.5zm45 0 .5 2.5-1 3-.5 4.5-5.5 3.5 1 2-2 1 .5-1.5-3 2-1.5-.5-2.5 3.5-1.5-.5 4-5 .5-2.5 1.5.5-1.5-3.5-1.5.5 2.5-4.5-.5 1.5 2.5 3.5 2.5-1.5-3 4 5-2 .5-2.5 1.5-.5v-2l-.5-1.5-4 3zm104 0-2 3q-1.7-2.7-3.5 1.5l-1.5 2.5-1.5.5 3 1-4 1-.5-2.5-4.5 3.5zm-96 1-5 6zm-44 1 1.5 1.5-7.5 7.5 1.5-2.5 1.5-2.5 2.5-1.5zm282 1 5 6zm-202 2q2.1 3-3 6-2.1-3 3-6Zm22 2v3l-1-1-4.5 3.5zm175 0 4 5 6.5 5.5-.5 1.5-10.5-10.5zm-71 1 2.5.5-7 4zm84 0 5.5 4.5 6 7zm-276 2-7 8zm60 0-3 6zm169 0 3 1 2.5.5.5 1.5 5.5 4.5-.5 4.5-5.5-5.5.5-1.5-2.5-.5.5-1.5zm46 0 10 11zm11 0 6.5 4.5zm-252 1 1.5 1.5-7.5 7.5q-2.4-4.5 6-9Zm80 0q3 1.5 0 3l-1-1-5 5-2.5-.5zm123 0 7.5 7.5-1 1 5.5 6.5zm-31 1 2 1 20-1 4.5 5.5-20.5.5-2-1v2l-11 2-3-1-1.5.5-.5 3.5-2.5 1.5 1 5-2 1 3 2 1 16-1 2 2 1-.5 6.5-2.5.5 2 1-1 3 .5 1.5-1.5.5 3.5.5-.5-1.5.5-3.5 1.5 5.5-3 1 .5 2.5 12-1 1.5.5.5-1.5 3 1 1-2 5 2 3-1 1 2 1-2 3 1 2.5-.5.5-2.5 1.5-.5-2.5-.5-1 2h-4l-2.5-.5 15.5-3.5 2 3 1.5-6.5-3-1-1-15 1-3-.5-2.5-1.5-.5 1-17-2-1 1.5-.5 2 3 7 6 1-1 14.5 14.5-1 1 8.5 9.5-14.5-14.5q2.8-1.7-1.5-3.5l-1 1-9.5-8.5-1 2 1 26 3 7-2.5 4.5-2.5.5-1.5 3.5-12 1h-2l-14 3-3 1-4 1-4.5-3.5.5-1.5-5.5-2.5.5-1.5-1.5-.5 1-2-2-1 .5-1.5 1.5-.5-1-2 1-2-1.5-.5-1 4-2.5-8.5 1-2-1-2 2-17-2-3 4-2-1.5-.5-3.5.5 3-4-3 1 3.5-2.5q2 3 4-2l4.5-.5-4-3 1.5-.5 3-1zm-77 2q3.3 1.8-.5 3.5l-2.5 3.5-.5-1.5 2-1 .5-2.5 1.5-.5zm-75 1-5 8q4.4-3 1-6 2 3 4-2Zm-69 3-4.5 5.5-3.5 4.5-.5-1.5zm119 1 1 2 2.5-1.5-8 5zm195 1 5.5 3.5-1.5 1.5zm-252 1-.5 5.5-.5 1.5-1-2-2.5 1.5zm99 0-6 7 2-5q2 3 4-2Zm102 0 12.5 10.5-4.5-3.5-1 1zm32 0 5 6zm-256 1q2.1 3-3 6-2.1-3 3-6Z"/><path fill="#a7a278" stroke="#a7a278" d="m607.5 278 4.5.5-.5 6.5-1-4-2.5-.5.5-1.5-2 1zm-220 2-6 7zm96 2-4 5-1-1-4.5 3.5zm101 0q3 1.5 0 3l-1.5.5v2l-1.5 3.5-.5-4.5zm102 1 7.5 3.5-3 1 3.5 2.5 2.5.5-1.5 2.5zm-166 1-1.5 2.5-3.5 4.5 2.5-3.5zm-174 1-13 14zm196 0-5 6v-3l1 1zm67 0 2.5 1.5-1.5 2.5-1-3-4.5 3.5.5-2.5q2 3 4-2Zm-188 1-5 6zm102 0-8 9zm-123 1-1.5 2.5-5.5 6.5.5-1.5 2.5-3.5 1.5-.5.5-2.5zm16 1-7 8zm223 0 8 9zm20 1 2.5 1.5 3 4zm6 0 9.5 8.5-1.5.5-7-8zm-310 3 .5 1.5-7 6zm4 0-13 14zm188 1-1.5 2.5-6.5 9.5-.5-1.5 6-8-2.5 1.5-1.5-.5 3.5-2.5zm42 0h4l1.5.5-.5 1.5h-2l-4 1-.5-1.5zm88 0 11 12zm-207 1 2.5.5-12 9zm-104 1-2 5-1-1-4.5 3.5zm319 0 7.5 5.5q-4.6.9-7.5-5.5Zm-190 1-.5 1.5-2.5 5.5-1.5.5-.5 2.5-1.5-.5 2-1 1-3zm158 0 9 10z"/><path fill="#a7a278" stroke="#a7a278" d="m669.5 297 2 3q2.3-3.3 4.5 2.5l-.5 2.5zm-323 1 1.5.5-9 8zm23 0-6 7zm324 0 6 7zm-183 2-9 10zm81 0 2.5.5.5 1.5 1.5-.5-.5 2.5-3.5-1.5.5-1.5zm17 0 4.5.5-1 4h2l-.5 5.5-3.5-6.5 1-2h-4zm-142 1-5 6zm187 0 7.5 7.5-1 1 3.5 4.5-4.5-1.5-1 2 1.5 2.5-4.5-4.5 1.5-1.5 2 1 1.5-1.5-3.5-5.5-2.5 1.5 2-2zm-64 2-.5 1.5-1 2 1.5 2.5 1.5-.5-5 3 .5 1.5 2.5-1.5-6 3v-2l1.5-3.5 2 1 .5-1.5-2-1zm118 0 8 9zm-309 2-.5 3.5-9.5 10.5 4.5.5-4.5.5-1.5-1.5z"/><path fill="#a7a278" stroke="#a7a278" d="m609.5 306 2.5 1.5-1.5-.5-1.5.5 2 3h-1l-2-3zm-282 1-27 28-1.5-.5zm340 0 7 8-2 1-.5-1.5 1-1zm-345 1-13 14zm134 1-7 8zm207 0 6.5 4.5q-4 2.2-6.5-4.5Zm44 2 13.5 14.5-2 1 1-2zm-94 1 1.5 2.5-5.5 1.5-5.5.5 1.5-3.5 4 2 4.5-.5zm82 0 6 7zm-29 3 6.5 4.5zm-332 2-8 9zm116 1-9.5 10.5.5 1.5-1.5-.5zm214 0 5.5 6.5-3-2-.5-1.5-1.5-.5zm-312 1 12.5.5-12.5.5zm-24 1-5 6 1.5-2.5 1.5-2.5zm53 0 1.5.5.5 1.5 1.5-.5q-2.5 4-5 2l.5-1.5 1.5-.5zm120 0-11 13 2-1-1 2-2.5 1.5q2.8 1.8-1.5 3.5l-4.5 1.5zm175 0 2.5 1.5.5-1.5.5 2.5-2 1 .5 1.5zm-6 1 2.5.5 1 3-1 2 1 5h-1l-1-5 1-2zm-146 1 2.5.5-1.5 3.5-3.5-1.5zm-185 2v2l3-2 .5 1.5-2 1-2.5 3.5-1-3-2 1-1.5-.5-1 3h2l-3 2v-2l3.5-5.5h2zm367 0 7 8zm-224 2L471 338.5l-.5 2.5-.5-2.5zm197 0 .5 3.5-2.5.5-1.5-.5-.5 21.5-.5-21.5 2.5-1.5 1.5.5zm-157 1 2.5.5-4.5 5.5-2.5.5-.5 1.5-4.5 3.5-1.5 2.5-2.5-.5 3-2 .5-2.5 1 1 7-7 1.5.5 1-2zm123 3 1.5 3.5-.5 6.5q1.1-6.6-2.5-8.5zm38 0 .5 5.5v2l-1.5 5.5-.5-3.5v-2l1-4v-2zm-246 1-7 8zm236 2 .5 13.5h-1zm-366 1-5 6zm62 3-1 2-9.5-.5zm-26 1 14.5.5-14.5.5zm28 0 12.5.5-12.5.5zm40 1 14.5.5-14.5.5zm287 1 12.5 1.5-8.5.5zm-368 1 1 2 3-2v1l-3 2-3 1-5.5-.5 7-2zm367 1 1.5.5-2 1-.5 26.5-.5-26.5zm-297 6 12.5.5-12.5.5zm63 0 3.5 1.5-1.5-.5-40 1v-1zm231 0 .5 15.5h-1zm-336 4 35.5.5-35.5 1.5zm62 5 8.5 1.5-9.5.5zm73 1 .5 1.5-4.5 5.5.5-1.5zm-90 1 9.5 1.5-3.5.5-6-1zm17 1 6.5 1.5-9.5.5v-1zm191 1 10.5.5-10.5.5zm-5 4 6.5.5.5 2.5 2-3q11.4-.9 17.5 3.5l-1 2 2.5.5v-2l2.5 4.5.5 2.5 1.5-.5.5 1.5 1.5.5v2l6 15-2 1 .5 1.5 2.5.5-1 30q4.4 4.1 2 15l-2 1 .5 1.5 1.5-.5-1.5 3.5-1.5.5 2 1-1 2 2 1 .5-4.5.5 11.5-1 6h1l.5-2.5.5 9.5-2 5 1.5.5 1-4 .5 6.5-1.5 6.5-1.5.5 2 1v2l1 2-1 2 .5 1.5-1.5.5.5 1.5 1.5.5-2.5 3.5-2.5-.5-1-19 1-2-.5-1.5 2.5 1.5-1-3 .5-1.5-1.5-.5 2-3-2.5-1.5-1 6-.5-11.5 2-4-3-2 1-25-1-9 .5-3.5-1.5-.5-1-15 1-2h-2l1-4-2-7 .5-1.5-1.5-.5q-1.4-10.1-8.5-14.5l-1.5-.5-.5-1.5-4 1h-2l-1.5-.5.5-1.5-8-1-3 1-5 1-2-1-.5 1.5 3 1-5.5 1.5v-1l1.5-.5-.5-1.5-2.5 1.5-.5 2.5q-12 4.5-19.5 13.5l-1.5 2.5-1.5.5-1 3-1.5 5.5-2.5.5 2 1q1.6 8.1-2 11l1 3-1 2 1.5.5 1-7 .5 9.5-3 6 1 4-1 2 1 2-1 2 3 8h-1l-.5-3.5-1.5.5 1 3v2l1 6-2 3 3 1-2 4 1.5 2.5 1-5 .5 21.5-1 2 .5 1.5-1.5.5 3 1-2 10 2 1 .5-2.5.5 6.5-2 1 1 2v2l-1 3 1.5.5 1-5 .5 7.5-1 7h1l.5-5.5.5 6.5-2 4 1 4 .5 2.5 1-7 .5 6.5-1.5 2.5-1.5-.5-.5-2.5-2.5 1.5 2 1-.5 1.5-2.5-.5.5-12.5 1.5.5v2l.5 1.5 1.5-2.5-1.5-3.5-2 1-.5-3.5 2-5-1-2 1-2-2 1-.5 6.5-.5-11.5 2-1-1.5-6.5-1 4-.5-11.5.5-1.5-1.5-.5 1-13-2-2v-15l1-2-2-2v-18l1-4-1-2 1-3h-1l-.5 1.5-2.5-23.5 1.5.5 1.5.5.5 1.5 3.5-.5-3-2-.5-1.5-1.5-.5 1-2-1-9 2-1 .5-3.5 1.5.5-.5-4.5-6.5 5.5 7.5-7.5 1.5 1.5-.5 1.5 3.5-2.5q-2.7-1.7 1.5-3.5v2l8-5 3 1 .5-1.5h-2l3.5-2.5 2 1 1-3v2l11.5-5.5-2-1 1.5-.5 3 2 1-2zm-282 1 3.5.5q-8.2 3.8-22.5 1.5v-1zm23 2q8.3-2.2 10.5 1.5l-.5 1.5-1-2-9.5.5.5 1.5q-3-1.5 0-3Zm82 0h2l15.5.5-17.5 1.5zm209 0 7.5 6.5.5 1.5 1.5.5.5 1.5 2.5 1.5h-2l-.5 1.5z"/><path fill="#a7a278" stroke="#a7a278" d="m309.5 369 16.5.5-17.5 1.5zm20 0 2.5 1.5-.5 7.5-1-8zm49 1 1.5.5-2 1 6.5.5 4-1-1 2q-8.2 2.3-10.5-1.5zm111 0 5.5 1.5-4 3 2.5-3.5q-5 1-4-1Zm-14 1 2.5.5 1 3-3 2-.5-1.5-1.5.5 2.5-3.5zm-84 1 9.5 1.5-2.5.5h-2l-5.5-.5zm104 1 1.5.5-.5 6.5-2.5-.5 2-1-.5-4.5-1.5.5zm-89 1 12.5.5-12.5.5zm99 0 .5 6.5-1.5 14.5-.5-19.5zm-124 1 3 1 10-1v1l-11 1zm27 1 11.5.5-11.5.5zm-57 2 2.5.5v2l-1.5 2.5-2.5 1.5 5 2-5 1-.5 2.5-1-2-1.5-.5 3-1-.5-1.5-2 1 3-4 1.5-.5-3-2 1.5.5 1.5-.5zm341 0 1.5 2.5v2l-.5 5.5zm-329 5-1 3 12.5.5-13.5.5-.5-1.5zm234 1v3l-1.5-.5-2.5 3.5-2 1q-2-3-4 2l-1.5-.5 6-5 1.5-2.5 2 1zm-244 4 1 3 1.5-.5-.5-1.5 2.5 1.5-2 1 2 1-1.5.5-2-1-1 3v-2l-2 1-4.5-.5zm7 0 9 1 1.5-.5-2.5 1.5-8-1-1 51-1.5-18.5 1-32zm23 2 10 1h2l25.5 3.5.5 1.5 5-2 5 1 3-1 3 1 1.5-.5-.5 1.5 1.5.5-2 1-.5-1.5-2 5-1-3-1.5.5 1 2-3.5.5-3.5-2.5-.5 1.5-16-2-1.5.5.5-1.5-3 1h-17l-1.5-1.5-.5-1.5-1 2-3.5-.5-1.5-2.5-2.5.5-1.5 4.5-2.5-.5 3-4-1-2 1.5.5 4.5-.5zm293 1 .5 5.5-1.5 4.5-.5-3.5zm-197 3 7.5 1.5-.5 7.5-1-8-7 1zm-37 1 2.5.5-3 1 .5 2.5 1.5.5-1 2 1.5.5.5-2.5.5-1.5 1.5.5.5-1.5q3.8 1.3 2.5 7.5l-1.5.5-9.5-3.5zm53 0 .5 10.5h-1zm-18 2-4 5-4.5 1.5zm177 3-.5 1.5-.5 14.5-.5-14.5zm37 2 1.5 8.5v2l-1.5 8.5zm-317 1 2 1 2-1 1.5 7.5-1 2h2l-1 9 1 2-1 4h1l.5-2.5.5 5.5-3 2 3 2 1 19-1 3 .5 1.5 1.5-.5 1 5-2.5.5-6.5-.5 1-3-1-3-2-48 1-3zm33 1 3.5 1.5 1 25-1.5.5-2.5-20.5 2-1-.5-2.5-1.5.5.5 1.5zm100 0 .5 13.5v2l1 6h-1l-.5-2.5-1 2-.5-3.5 1-2-1-5zm127 0 1.5 10.5q-3.7 1.7-.5 3.5l1-2 .5 7.5-2.5.5-1.5-3.5v-2l-1-12 2-1zm-246 3 2 5 1.5-.5-.5 2.5q-4.9-1.4-3-7Zm12 0q-3.2 2 0 4l1.5-.5-3 2 .5 1.5-3.5-4.5zm5 0 .5 4.5-4.5 3.5v-1l3.5-2.5zm37 0 7.5.5q-1.4 12.4 2 20l-1 2 2 25-2 9 1 2-1 6 1 3-3.5.5-.5-2.5 1-2-2-2-1-17 1-2-2-1 2-20-2-1-.5 7.5-.5-12.5 2-1q-4.5-1.5-3-9l2-3-1.5-.5-1.5.5zm-108 1 .5 6.5-2.5 12.5-.5-6.5 2-7v-2zm227 0 .5 6.5h-2l-.5 1.5-1.5-5.5 2-1-1 2 2 1zm122 0 .5 19.5h-1zm-255 3-.5 3.5 1 2-1.5-.5-2-1q-3.5 2 1 4l1.5-.5-6.5.5-4.5 3.5 1.5-2.5 1.5-.5-.5-1.5 1 1zm-34 1 1 3 2-1 2 4 2.5 1.5-2.5.5-1.5.5 1.5 2.5q-2.2-3.9-4.5-.5v-2l1-2q-5.4-3.2-1.5-6.5Zm93 0 .5 17.5h-1zm22 0 2.5 13.5-1.5.5zm-9 2 1.5 9.5-1.5 5.5zm-155 2 1.5.5-1.5 13.5zm120 1 1 3 3.5 2.5-1.5-.5-3.5-2.5zm24 3 1 6 1-3 .5 2.5-2 7v2l-.5 5.5zm90 1 .5 13.5h-1zm-86 2 .5 5.5-1.5 8.5-.5-8.5zm69 0 .5 34.5h-1zm-165 3 3 2 5-1 1 2 1.5-.5-.5 1.5-4-2-4 1-2.5-1.5zm19 0 1 4 2.5-1.5-1 2 1.5.5h2l12.5 2.5.5 1.5 1-8 .5 9.5-4.5-1.5-3.5-.5-.5-1.5-4 1-7.5-2.5zm269 1 .5 14.5h-1zm-354 1 1.5 11.5h-1zm178 0 .5 7.5-1.5 10.5-.5-10.5zm-36 1 3.5 2.5-.5 1.5 2.5 1.5-.5 1.5-3-5zm-82 1 4.5.5-2 1 2.5.5 4-1v1l-1.5.5 4.5.5 2-1 .5 1.5-6.5.5-8.5-2.5zm11 7 2 3-1.5-.5 1 2q-1.5 3-3 0l1-2zm15 1 4.5.5-4 1-.5 5.5zm82 0 .5 4.5-1.5 8.5-.5-7.5 1-3zm154 0 .5 19.5h-1zm-157 1 .5 10.5h-1zm80 0 1.5 10.5-2 1v-2l1-2zm112 0 .5 12.5h-1zm-53 1 1.5.5-1 2 1 3 .5 1.5 1-7 .5 8.5-2 4v4l.5 4.5 2-1 .5 1.5-4 2 .5 1.5 1.5-.5 1 3h-2l1.5 2.5 1.5-.5.5-6.5.5 39.5-1 2 1 4-1 4h1l.5-1.5.5 2.5-3.5 1.5-1.5-7.5 1-2-1-2 2-1-.5-1.5-1.5.5 1-3-2-2-1-8 2-1-2-1-1-21q3.2-2.3 2-9l-3-4 3-1-1-3 1-3zm-251 1 2.5 16.5h-1zm-54 1 1.5 10.5-1.5.5zm68 0 3.5 2.5-2.5.5-1.5.5 1.5 2.5h-2l-1.5.5 1.5 2.5-4.5-2.5.5-2.5 1 3 3.5-2.5q-4.2-2.2.5-4.5Zm91 1 .5 2.5-.5 24.5z"/><path fill="#a7a278" stroke="#a7a278" d="M441.5 444q4 2.5 1.5 11.5h-1l-1-8v-2zm-84 1 .5 28.5-2-1zm69 1 .5 2.5 1 2-2-1-.5-1.5-6 8 1-3-2.5-1.5 2.5-.5 3.5-2.5-.5-1.5zm196 4 3.5 2.5-3 2-1 10 2 4-1.5.5q-7.1-2.4-5.5-13.5l3.5-4.5zm61 2 .5 14.5h-1zm-353 2 1.5.5q1.9 17.9-1.5 30.5l-.5-9.5 1-16v-2zm92 1 2.5.5-5 6 .5 1.5-1.5-3.5 4-2-.5-1.5-1.5.5zm65 0 .5 12.5h-1zm142 0 3.5 1.5-.5 2.5-1-3-1.5.5 1.5 3.5 1.5.5-1.5 2.5-4.5-1.5q-1-5.5 2.5-6.5Zm-276 8 2.5 12.5-2-1zm-11 2 .5 9.5-1.5.5-.5-3.5zm222 1 1.5 12.5-1.5 21.5zm-182 1 3.5 1.5-.5 1.5 1.5-.5.5-1.5 1 2 1-2 2.5.5.5 1.5 4-1v2l5-1 1 2 4-1 5.5 1.5.5 2.5 1-2 12.5 1.5-2 1 .5 1.5 8-2-.5 1.5.5 1.5 1.5-.5.5-1.5 4.5.5-3 1 .5 1.5 4-2 1.5 1.5-2 1-1.5 2.5-13-3-3 2-1-2-1 2q-11.7 1.8-18.5-1.5l.5-1.5-3 1-10.5-2.5-.5-1.5-7.5-3.5-1-3zm49 3q6.8-1.7 8.5 1.5l-2 1 .5-1.5-4 1zm147 1 1.5.5-1.5 13.5zm-66 6 .5 11.5v2l1 6-1.5 2.5-1.5-12.5zm-157 1 1.5 9.5h-1zm132 0 1.5 6.5-1.5 6.5-1.5-6.5zm200 1 1.5 9.5-1 2 1 3-.5 1.5-1.5-6.5 1-5zm-325 4 1.5 9.5-1.5-.5-1.5-.5zm204 0 .5 12.5h-1zm14 0 .5 8.5-1.5 6.5-.5-7.5zm-223 9 .5 3.5-2 1-1.5 4.5-.5-1.5zm205 0 .5 10.5h-1zm-93 1 1.5 8.5-1.5 15.5zm-75 3 5.5 1.5-3 2 .5-1.5-3 1v-1l1.5-.5zm102 4 2.5 18.5h-1zm155 2-.5 1.5 1 3-1.5 2.5-1.5.5 4 1-4.5 1.5-.5-8.5zm-86 1 2.5 1.5-.5 14.5-1.5-.5 1-9h-1l-.5 3.5-.5-5.5 2-1-.5-2.5-1.5.5zm-59 2 .5 10.5h-1zm147 7 1.5.5-1.5 3.5-2-1-1 2-.5-1.5.5-2.5zm-71 2 .5 2.5-.5 16.5-1.5-17.5zm135 3 .5 2.5-3.5 1.5-2 1-.5-1.5 2-1-.5-1.5 2 1zm-344 1h2l5.5 1.5-2.5.5-2-1-2 1zm167 0 1.5 4.5-1 3-.5 1.5-.5-4.5 1-3zm100 3 2.5.5-4.5 2.5-2.5-1.5 1.5-.5zm-240 1 15.5.5-13.5 1.5zm105 0 1.5 6.5-1.5-.5-3.5-2.5 2.5 1.5 1.5-.5zm192 1 .5 5.5-2.5 1.5-1-2 2 1zm-295 2 4 2 3-1v1l-2.5.5-.5 2.5-3.5-1.5 1-2zm1 6 3.5 1.5-2 1-.5 1.5-4.5-1.5 4-1zm203 0 1.5.5-10.5 3.5v-1zm60 0 4.5 1.5-1.5.5-2-1v2l-3-1v2l-2.5-1.5.5-1.5zm-89 5 2 1 1.5-.5-.5 2.5-2-1-1 2-3-2-.5 1.5.5 1.5-1.5-.5 1.5-3.5zm-105 5 2 4 1.5-.5 1 2-1.5-.5-2.5-1.5-.5-1.5-1.5.5zm-27 12h4l1.5.5-.5 1.5 2-1 .5 1.5-2.5.5-3-2zm24 5 4.5 1.5 1.5 4.5zm19 2 8.5 2.5-2.5.5zm-79 5 1.5.5-8.5 13.5-.5-1.5zm16 0 1.5.5.5 1.5 3-1 .5 1.5-1.5-.5-1.5.5-.5 2.5zm8 3 1 2q2.2-3.2 4.5 2.5l-.5 1.5-2-3q-1.7 2.8-3.5-1.5zm17 0 1.5.5.5 1.5 2-1q3 1.5 0 3v-2l-2 1zm0 4 3 4-3.5-.5 3 5h-1l-2.5-3.5-1.5.5.5-4.5 2 1zm-7 1 3.5 6.5-1.5-.5-4-2-2 1v-1l1.5-.5.5-1.5 1.5.5zm100 0 1.5.5-.5 1.5-1.5-.5 1 2-2.5 1.5v-1l1.5-.5-2-1zm-144 12 1 2 1.5.5-3.5 5.5.5-1.5-1-4zm55 0 3.5 1.5h-2l1.5 2.5 2.5-1.5-1.5 2.5-2-1-1.5.5.5-1.5-1.5-.5zm-6 8 4.5 2.5-.5 1.5-1-2-3 1-1.5-.5 2-1zm108 2 2.5.5.5 1.5 1.5-.5-2.5 3.5-1-2-5 3 1.5-2.5zm-128 1v2l1.5.5 1 2-5-2zm143 0 1.5 1.5q-5 2-2 4l-.5 1.5-1.5-.5zm-118 2 1.5.5-2 1 .5 2.5 2.5-1.5-2.5 3.5-1-2-1.5.5.5 1.5q-3.2-1.7.5-3.5zm130 0 2.5.5-6 5q5.4-2.7 3.5-5.5Zm4 2 1.5.5 1 2-.5 1.5 2.5 1.5-2.5.5-2.5-1.5 1-3zm-157 4 2.5 3.5-3.5 6.5-.5-1.5 1.5-4.5 1.5-.5zm146 2 .5 1.5-7 6zm-33 3 1.5.5 8 19-2-1zm-156 1 2.5.5-2.5 4.5-.5-1.5 1-2h-2zm189 0-6 7zm6 0 1 3 1-2 .5 1.5q-2.5 3.6-5 0l.5-1.5 1 2zm-144 10 1.5.5-2 1 2.5.5 1.5.5-2.5 1.5q-4.5-2-1-4Zm104 2 5.5 13.5h-1zm-104 3 1.5.5-5.5 6.5h-2l-1.5.5 1.5 2.5-1.5-.5 1 2-3 2 .5 1.5h-2l-1.5.5 1.5 2.5-4.5-.5 2.5-3.5 3.5-1.5-2-1 3-2q-2.7-1.7 1.5-3.5l1.5-.5.5-2.5 1.5-.5-.5-1.5 2.5 1.5zm149 9 4.5 2.5-.5 2.5zm155 1v2l1.5.5-.5 3.5-1.5-.5 1-2h-2zm12 4 7 8zm-388 7 3.5 2.5-3 1-2.5 6.5-2 1 1.5-2.5-1-3 3-1 1-3h-2zm50 0 2.5.5-.5 1.5 1.5.5-2 1-1.5-2.5-.5 1.5.5 1.5-1.5-2.5zm301 3 2.5 4.5q-1.5 3-3 0l1-3h-2zm-308 4 1 2 4-1v1l-1.5.5 2 1-1.5.5h-2l-1.5.5-.5 2.5v-2l-1.5-.5zm342 0 1.5 3.5-1.5 9.5-.5-8.5 1-2zm-31 3 1.5.5v2l-1.5 5.5-.5-3.5 1-2zm25 1 .5 12.5-2.5 1.5v-1l1.5-.5zm-79 2 16.5.5-16.5.5zm61 5 .5 6.5h-1l-.5-3.5-1 2-.5-1.5zm-320 3 1 2 1.5-.5-5.5 7.5 1-4 1.5-.5-2-1 1.5-.5 1.5.5zm228 2 1 3 2.5 1.5-1.5-.5-4.5-1.5zm3 1 5.5 1.5-2 1 .5 1.5-2.5-1.5.5-1.5zm-78 1 3.5 7.5-1.5.5zm194 3q3.3 6.5 6.5 2.5l-2.5 2.5zm-354 1 2.5.5-2.5 4.5-1.5-1.5zm-6 8 3 1 1.5.5-.5 1.5-3 1-1-2-2 3-.5-1.5zm228 7 .5 5.5-2.5 1.5-1-2 2 1zm-207 1-5 6zm-18 6 1.5.5q1.3 9.3-5.5 10.5l4.5-5.5-.5-4.5-1.5.5zm252 5 1.5 2.5-4.5 1.5-1-2 2 1 2.5-1.5zm85 4-5 6zm73 2q4 1.5 2.5 8.5h-1q.9-7-1.5-8.5Zm-402 4 .5 5.5-3.5 18.5-1.5-2.5zm170 3 2 1 1.5-.5q-3.8 2.3-.5 4.5l-2.5-1.5zm216 11 1.5.5q1.7 8.2-1.5 11.5l-.5-5.5 1-5zm6 1 1.5 5.5-1.5 4.5zm-8 6 .5 10.5h-1zm-28 7 3.5 8.5-1.5.5-2.5-6.5zm-388 11 .5 11.5h-1zm383 2 2.5 3.5-.5 1.5 2.5 1.5-1.5.5-2-4-1.5-.5zm6 1 3 4 3.5 1.5-.5 1.5-6.5-5.5zm-428 15 2.5 1.5-.5 2.5-1.5.5.5 1.5-2 1-.5-1.5zm-4 20 .5 1.5-3.5 6.5-.5-1.5zm-9 3 .5 1.5-4 4 1 3-.5 3.5-.5-3.5-.5-2.5-1.5.5zm-79 22 4.5 1.5-2.5.5-1.5.5.5 1.5-3.5-1.5zm-8 4 .5 2.5-2.5 5.5-1-2-1.5.5.5-1.5 2 1zm6 0-.5 3.5 1 2-2-1 1-2-2-1zm84 4 3 1 1.5-.5.5 2.5 1.5.5-.5 1.5zm-81 5 9 10zm89 5 6 7zm-90 5 6.5 4.5-1.5.5zm10 17 2.5.5-.5 1.5 3-1v1l-3 1zm88 3 1.5 1.5-6 6 1.5 1.5 1.5.5-1.5.5-3.5-2.5 3-2-1-1zm-17 15 4 5 3.5.5-.5 1.5-4-2-2 1v-1l1.5-.5-2-1z"/></svg>