<svg xmlns="http://www.w3.org/2000/svg" viewBox="0 0 1024 1024"><path fill="#27261f" stroke="#27261f" d="m666.5 229 6.5 9.5h-1l-4.5-7.5-1.5-.5zm50 23 1.5.5 2 6-1 19 2-1q-1.6-9.6 1.5-14.5l.5 4.5-2 24 1 2-.5 1.5 1.5.5-2 1-1 27 3 26h-1l-.5-3.5-1.5 11.5 1 2-1 4 1 5-1 10 1 5v2l-1 4 1 3v54l2 25 2 5 1 25-1 2 1 9-2 23v2l1 13-1 2 2 53 2 10-1 2v2l1 10-1 2 2 25-1 6 1 2-1.5 2.5q-6.7-1.7-8.5 1.5l-.5 2.5-5.5 2.5-1 5 2 1-1.5 2.5-24 1-38.5-2.5.5-1.5 12-2h2l42 2 1.5-3.5-1.5-.5h-2l-2 1h-2l-15.5-.5 13.5-1.5h2l8.5-1.5-35.5-1.5-7.5 1.5 15 1-14.5 2.5-2-1-14 1v-1l14.5-1.5-.5-1.5-6-1-2 1-6.5-1.5.5-1.5 1.5-.5-2-1 .5-1.5 14-2 59.5-1.5q-4.1-44.4-3-94l1-24v-4q3.3-56.3-5-101l1-3-1-42v-2l1-25-3-43q3.4-11.1 2-27l-1-37-1.5-1.5-16 2-11-1-53 3h-2l-92-3h-2l-8-1-2 1-2-1h-2l-73 1-24-2-2 1-3-1-25 2h-2l-18 1h-2l-5-1-39 2-2-1-3 1h-2l-18.5.5 1 5-1 3 1 2v2l1 50-1 3-1 4 1 2-1 3 1 3v2l-1 41 1 2-1 3 2 15v2l4 101-2 24 1 3 1 19 1 3-.5 7.5-1-8-1.5 2.5 1 2v2l1 38-1 2 1.5 13.5 1-2 .5 1.5v2l-1 3 2 23v4l1 29 .5 2.5 45-1 5 1 33-2 4-2h2l13 1 20-2h2l11-1h2l19-1h2q20.6 3.9 47 2l2-1h2l13-1 3 1 20-2 1.5 2.5-3.5 1.5-6.5 1.5 4 2-7.5.5-1-2-1 2-3-2-8 1-2-1h-2l-21 2-26-1q-16.2 3.3-37 2l-21-1-30 3h-4l-25.5 1.5.5 1.5 6 1 3-1h2l4-1 2 3 8-4 1 2 1-2 21.5 1.5-23.5 1.5-1-2-1.5.5 1.5 2.5 15 1 17-2 22 1 38-2 2 1 4-1h4l9 1 31-3 4 1 16-2 10.5 1.5-.5 1.5-3 1-6-1-23 3h-2l-53 2-29-1-42 3-26-2-9 1-2-1-22 2-2-1-3 1h-2l-4.5.5 13.5 1.5h12l20-1h2l2 1 17-1v1l-19 2h-2l-8-1-1 2-4-2-50-1-13 2-4-1-1 3-2.5-1.5-1-3 1-2q-3.7-23.3-2-52l1-39-1-2v-2l-1-19v-2l-1-2 1-3-1-2v-2l-1-25 1-8v-2l-3-51v-2l1-22v-2l-1-43 1-2v-2l-1-12 2-53-1-47-2.5-16.5-3 1 1.5-2.5 1.5-4.5 8.5-4.5q1.3-5.7-2-7l7-1 .5-2.5 21-1 9 1 2-1 5 2 9-1 46 1 8-1 2-2 1 2 17-1 2 1 13-1 73 2 21-1 17 2 3-1 32-1h2l42-2 2 1h4l58 1 2-1 3 1h2l16.5-.5zM614 255l-17 2 1 1 2-1 21 1 7 1h25l27-2-5-2-9 1h-2l-48-1zm-304 1 1 2h13l1-1zm-8 12-2 6v4l1 1 2-7zm-8 5 1 24 2-1-1-22zm9 9-3 5 1 4-2 3 1 1 3-4zm0 11-2 7-1-2-1 8v2l-1 2 1 4-1 2 1 15-1 40v2l2 5-1 4 1 5v2l-1 10 1 6v2l-1 4v2l2 22 1-3v3l-1 3v67l2 19-1 2v2l1 5-1 4 2 26 2 3-2 4 2 1-2 1 2 4-2 1 1 4-1 2 1 7v2l2 20-1 2 2 18h1l-2-66 1-2-1-42v-2l2-19-1-33v-2l-1-14v-2l-3-53-2-6 1-2-1-13 1-2-1-2 1-5-1-34-1-5q4-7 2-20l1-3zm-6 4-2 3 1 22h1zm0 27-1 13h1zm-1 40-2 12 1 3-1 6 1 3-1 6v2l1 31-1 3 1 4-1 3 1 5v2l-1 6 1 2v2l-1 4 1 53v2l1 20v2l1 4-1 2 4 44-1 2 1 21v2l2 13-1 4 2 12 1-27-1-5v-2l1-3v-2l-1-16v-2l-1-6 1-5-1-13v-2l-1-5v-2l1-2-1-4v-2l-1-35-1-5 1-2-2-57 1-3-1-39v-2l-1-2 1-4v-2l-1-25zm10 261-2 2-1 13h2v2l-1-1-1 3h2l-1 4 1 3-1 3 2 25h1l-1-8 2-5-2-26 1-2-1-9zm-5 8-2 5v36l2 3 1-10zm8 14 1 12v-11zm1 16-1 19 3 1 20-2v-1l-13 1q-7 2-9-2l1-7-1-3 1-2zm398 3-18 1-3 2h12l16-1v-1zm-260 7v1l17 1h2l14-1zm-145 1v4l-2 3 2-1 1 3v-8zm44 7-9 3h5l3 1 13-1 1-1-3-2v2h-2l-4-2-2 1zm-23 2-9 2-2-1-5 1 1 3 8-1 3-1 2 1v-1l5-2zm33.5-413-12 13z"/><path fill="#27261f" stroke="#27261f" d="m562.5 276 2.5 1.5 1 2-8 16 8.5.5 5-18 2.5.5-1 16 9 2-1.5 2.5-5 1-2.5.5-1 16-1.5 1.5-2.5-1.5-1-8 1-7-5.5-1.5-11 1-1.5-2.5zm-103 1q7.3.3 9.5 5.5l1 6q-3.7 13.3-13 21l14 1 1.5 2.5.5-1.5-.5-1.5 2.5 1.5-1.5 3.5q-15-1.5-25 2l-1.5-3.5 15-19 2-9q-1-3.5-6.5-2.5l-5.5 4.5-1.5 3.5-4.5-1.5 5.5-9.5zm68 0q9-1.5 11.5 3.5l1 9-13 19 16.5.5 2.5 2.5-3.5 2.5-23 1-1.5-4.5 15-17 2-8-1.5-2.5-4-1-10 7-.5-1.5q.1-6.4 4.5-8.5zm-33 2 11.5 4.5 5 11v5l-6.5 12.5-5 2-1.5-.5-.5 1.5q-9 .5-12.5-4.5-4.8-5.2-3-17 1.8-9.2 8.5-13.5zm-.5 6q-6 3-7 11-1 11 6 14l6-1 5-8q1-9-2-12-1-5-8-4Zm-210.5 22 1.5 6.5-1.5 2.5-1-1-7.5 7.5-.5 1.5-2.5-.5.5-2.5 1 1 7-7 1.5-.5zm150 23 1 4 22-1 2 1 27-2 10 2 2-1 5 1 3-1 2 1 4-1 6 1h2l3-1h2l12 1h2q27.6 1.1 50.5-2.5l.5-1.5 2 2 51 1 .5-1.5-.5-1.5 15.5.5-13 1 .5 1.5 35-1h2l13-1 3.5 1.5-4 3 1 16-1 2 1.5.5 1-12 .5 13.5h-2l.5 3.5 1.5-.5q-3.8 2.5-1 5l1 14-1 15 2 1-2 1-1 3v2l1 3-1 2v2l1 2v2l-1 2 1 2-1 13 1 3q-2.6 17.6 3 27l-1 13 4 29v2l-2 56 1.5 22.5 2.5.5-3 1 1 21-1 6 3 32-1.5 3.5-9-2-32 2-2-1-3 1-4 1-7.5-1.5.5-2.5 7.5-.5-1-14 2-1v14l1.5 1.5 4-1h2l17-1 7 1h2l9-1 4 2 1-2-1.5-.5 1-8-3-33v-2l1-3v-2l-1-4v-2l-.5-2.5-3-1h-2l-23 1-14-1-3 1-2.5.5 1 13-1 2 1 2-1.5.5-1.5-19.5 1.5-33.5 1 33 47-1 1.5-1.5-1-3 1-2v-2l-1-2 1-2-1-4 1-2-1-32-1.5-5.5-42.5-.5 31.5-1.5 2 1 3-1h2l4.5-.5-1-13v-2l1-3v-2l-1.5-41.5-21 1-3-1h-2l-5 1-16-1h-2l-3.5-.5 4.5-1.5 36 1 11.5-1.5-2-26v-2l1-2-1-15v-2l1-3-1-2 1-9-22.5-1.5-6 2-3-1-8 1h-2l-7.5.5 2 17h-1l-2.5-17.5-12.5-.5.5-1.5 12.5-.5-1-19v-2l-1-36-1.5-1.5-10-1h-2l-38.5.5-1 5 2 36v2l.5 16.5 23.5.5-10.5 1.5-4-1-8.5 1.5-1 2 1 3 1 24v2l-.5 6.5-1.5-3.5-1-14 1-2-1-17-1.5-1.5-25.5-.5 25.5-.5 1.5-1.5-2-33v-2l-1-21 1-3-7.5-.5-18 2-2-1-22.5 1.5 1 9-1 5 1 3-.5 2.5-1.5-.5-1.5-19.5-4-1-5 1h-2l-39-1-.5 15.5 1 3-1.5.5-1.5-16.5-.5-2.5-5-1-43 1-1.5 1.5 1 5-1 2 1 2-1 3 1 2-1 3 2 11-1 3 1 17-1 12 2.5 1.5 2-1 3 1 2-1 3 1 3-1 4 1h2l4-1 3 1 23.5-1.5-1-12 1-2-2-27 1.5-.5 1.5 20.5-1 2 1 2v2l.5 15.5 20.5-1.5-5-11 1-1-6-6-2-13 4.5-6.5q6.4-6.6 19-7l9 8h3l13.5 13.5 10 12v8l-7 11 14 24 5.5 5.5 12 6h4l3-1q7 6.5 22 5l3.5-2.5-.5-2.5q-5.5 1-6.5-2.5l-.5-11.5-3.5-1.5 7-5 1-3q-6.9-2.6-8-11l4.5-1.5 7 3 3.5-2.5 1.5-2.5 9-1 8.5 6.5 1 7-2 4 8 8v3l-7.5.5-4-1-5.5 12.5 1.5 2.5 4.5 3.5h-2l.5 1.5 7.5 4.5 7 26h-1l-2.5-7.5-.5 3.5 3 23 9 36-6 1-5 15 1 8-3 44 1 2-2 25 8 38v37l4 9-1 3-1 4 5 12-1 4 21.5 86.5 1-2 .5 1.5-1 4h1l.5-2.5 1.5 4.5h-1l-.5-1.5-.5 2.5 6 15-10.5 3.5-16.5-8.5-.5-1.5-1.5-.5 1.5-.5 9 4 .5-1.5-7-3 1.5-.5 4 2 .5-4.5-7.5-27.5q-16.7-.2-27 6l-2-1-16.5 3.5 9 42-9.5 2.5-6.5-3.5-4-7 3 1-8.5-38.5-12 1v-1l11.5-1.5-11-57-3-6-5-35-14.5-63.5q-22.5 3.5-50 2l-15 2-3-1-46 2-1.5 1.5-1.5 3.5-2-5-11 2-40 2-11-1-38 3-6.5-2.5v-60l-2-3 2-11-2-1v-2l1-7-2-1 .5-4.5 1 4 .5-26.5-1-5 2-1-2-1 1-2-.5-1.5 1.5-.5-1-5 1-7-2-9v-4l-1-41 1-20-1-39-2-16 1-2-1-2 1-2v-2l-.5-3.5-1.5.5-.5 10.5-1.5-39.5 1-3-1-8 1.5-7.5 1 2 52-1q7.2 4.3 21 2l29-1 2.5-2.5zm257.5 4-41 2-4-1-1 21v2l2 25-1 11h4l44-1 1-3v-2l-1-42-2-6h2l-1-5zm-269 1-36 2-2-1-2 1 1 14-1 2 1 3-1 43h18v2l-1-1-6 1-7-1h-2q-4 2-2 9v2l4 52h38l12-1-2-33 1-2-1-26-1-2-5 1h-20l20-1 6-2-1-47v-2l-1-11-2-2-3 1-3-1zm-53 1-16 1h-2l-6 1-2-1-14 1q3 27 2 60l30 1 4-1h2l13 1 1-34-1-8 1-4-2-16zm150 17-12 5-7 9q0 9 7 13l1-4-6-9 1-2 6 7 19-11zm11 9-18 12 9 9 1-5 7 2v-1l-5-3-2-3 4-3 7 3v-1l-5-3 1-2 3 1 4 4-3-5-1-3 11 17v-4h2v-1l-1-1-6-6zm-201 5v11h1q2-9-1-11Zm196 5 3 3 5 8h-1l-1-1h-1l-4-2-4 1 5 1 8 12 3 1 21 43h2l1-2v3l18 11 2-8-15-7q-15-17-24-39l3-9v-7l-3 5-5-7-3-2 1 3v1zm-13 6 1 6 1-2v2l2 1-1-3-1-1zm36 1v3l-2 16 3 1 4-7v-2l-4 3h-2l7-6-5-7zm-25 4 8 12 2 1-4-8zm-5 1-1 4 2-1 1 5h3v3l9 9v-5l-9-9zm-6 7-2 5h2l-1-1 1-2 1 3 5 2v1l-2-1-1 3h-1l-1-3-1 2-3-2-12 1-2-1-5 1-2 7v2l1 30v2l1 4-1 3 1 14h34l7-5 1 3-4 2h13v-18l-1-3 1-2v-2l-1-8v-2l1-2-1-2v-2l2-1 1 42h12l8-1 6 2-26 1 1 9-1 5-2-9 1-3-1-3-13 1h-2l-4-1-31 1-1 3v2l1 6-2-1 1-3-1-7h-49l-2 2 1 34-1 2 1 14v2l2 8 16-1 21 1 2-1 11 1v-17l-2-15 1-2v-2l-2 1h-5l6-8v-2l2-5 1 6-1 2 1 3 5-3 4-3-10 11v2l2 18 1 2 2-3 1 2 2-5v3l-1 2 2 3 1 2 2-1 1-2 3 1v3l-5 7h5l5-6 1 1-2 5h11l3-5-1-1-1 2h-1l-1-1 4-3v2l2-1-1-3 2-1-1 2h3q3 3 0 5v-1l-1-3-3 5-1 2h9l-2-8-2-1 1-2-1-6-2 1-9-1-3-3 4-12-1-1-3-4 1-4 6-5 5 1 2 4 2-1 7 1 2 4 5 19 7-1 1-2 4-3 3 1 6-1 4 1v2l10 1 12-6-4-17-4 1 4 14v3q-5-5-4-14-1-3-3 0l4 15-2 1-4-12-1 2-2 1-5-1-4-4 1-5q2-6 10-5l2 3 4-3 6 2 5 17 5-4q1-17-5-27l-11-5h-2l-2-1-1-2-1-3-20-14-1 2 1 1-18-37-7 3-4-1-12-11-3-3zm23 7-2 4 2 3 4-1-2-5zm-202 1v65l20 1h2l29-2 1-1-2-9-3-52zm103 0 1 52v2l1 3v2l-1 2 1 2h14l36-1 1-3-2-58zm186 2-6 9 11 6 2-1-2-4 4 2-3-3 2-1 1 3h2v-1l-4-6 2 1v2l3 1v-1q-4-6-12-7Zm-16 4-1 2 23 15 1-2-10-6-3-3zm7 11-5 13 1 6h6l3 5 5-1v-3h-2l2-3 1 2 1-2-1-2 2-5 1 2v-2l-5-3-1-1zm-27 26-3 7 1 8 2-1 20 7 2 4v-1l2 1-1 2 3 1 1 2-8-6-2 1 6 8h-1l-2-3-2-1 6 13h-1l-4-5h-1l2 15-1 15v2l-2 10 17 5 17 2 6-1 6 4h1l-3-5v-7l-11-47 2-1 1 7h1v-10l-6-15-5-5-4-6-10 2 5 1h-8l-1 2 2 2-5-2h-2zm-192 22-8 2 1 5-1 2 1 37v15l2 1 3-1 2 1 2-1 2 1 12-1h2l3 1 23-1-1-27v-2l-1-31zm-30 1-29 1-2 2 1 7v2l-1 2 1 3-1 4 3 41h6l42-2 2 1v-24l-1-3 1-4-1-2 1-6v-2l-1-19zm211 15-3 3 2 6 5-1-1-2 2-5zm-51 1-4 3 1 5 4 1 2-6zm12 4-2 2 35 169v2l5 16 7 40v2l29 130q2 3 4-1l-9-40 1-3-14-62-6-17-2-20-7-23v-8h-2l1-3-14-68-8-30-16-84zm-4 3-2 2 2 8h1zm168 1-1 27v2l2 12 1-15-1-2 1-2-1-19zm-176 6-4 4q-1 5 3 6l4-1 1-2-2-5zm77 1-1 3v1l-1-2q-10 8-25 11l-5-6-2 1-9-1-1 2 5 1 2 5-3 2v1h12l24-9v-2l-2 1 3-4 1 4 2-4 1-3zm-67 2v12l12 49 1 13 12 50 8 44 8 30 19 98v2l2 10q2 3 3 0l-16-71-24-124zm67 8-3 3 1 7h2zm-53 2-2 4h12l3-1v-1l-1-2zm48 0-4 3 6 19 2-3-2-5v-2zm-11 4-13 5-10-1h-2l-2 1-2-3-9 2 5 23 34-3h2l3-1-4-21zm-91 2-2 6v2l1 3h8v-3l-2-1 1-3-1-1-1 1zm98 2 1 18h2l1-2zm-161 10-42 1-1 3h-1l-1-3-49 1-2 3v2l1 30-1 3 2 22h12l2 2 27-2 4 1 4-1 1-3 1 3h1l-1-16 2-1 1 17 5-1 40 1 4-1v-4l1-12v-2l-1-16v-4l-1-21-3-1h-2zm11 0-2 2 1 35v2l1 22 4 1 5-1 3 1h2l22-1h2l13-1 1-1-2-44-2-2-2-2 2-1 2-4-1-5zm52 0-1 8h2l-2 4 2 42 2 5 49-2-11-56-11-1-5 7h-3l5-6-11-1-1 2q-5-4-15-2Zm117 1-1 2 7 3 5-2zm-6 2-1 2h-1l-40 44q1 8 6 13l2-1v2h-2l6 9v-3l5 13h2l-1 2 8 12v1l-3-4-2-1 14 32h5q-13-24-20-53l-6-10-6-4-1-1 2-1 1-2-1-1-1 2-1-1-1 2h-1l1-3 2-1 4-5-6 4h-2l10-7-2 3h2q4-2 1-3l11-7 1-2 6-4 1-2-2 1h-3l11-5v-1l-3 1h-2l11-4v-2h2l2-1-5-1 3-2h2l4 1 4-1-4-1 6-2 3 1 2-3 2-1v-1l-10 1-3-1-2 1-6-4-3 1v-1zm19 1v2l2-1 5 2 2-1zm18 2-1 2h-1l-4 5 2-1 3 1 1-2-2-1 2-1 1-2zm-54 5-36 5 2 3 33-3 3-4zm48 3-2 1-3 4h2l3-2-5 7 1 1 1-2 3-2-10 14 1 10v2q4 12 2 30v2l1 2-1 2 1 14-1 2 10 54 1 29v2l3 5 4-3-2-7-1-1-2-11 2-9v-19l-8-32q-1-28 3-51l-1-22 1-2-1-5 2-10h-1l-1-1zm-56 5q-10 3-23 2h-2l-2 1 6 27 25-29zm38 0-10 6 17 70h1q3-45-7-75zm9 5-2 5 2 3 3-5zm-21 2-3 3 8 27-1 2 12 51v2l9 32v8l4 14h1l-5-40-3-6-1-12-13-44-7-36zm-4 3-3 3 5 18 2 1zm-6 5-19 18 4 8 26-3q3-1 0-3l-14 2q-9 3-12-1l18-3 1-4 1 4h1l-4-16zm-80 25-19 2-2 18 1 5-1 5 1 28 2 1h50l-1-24 1-2-2-20 1-3q2-8-1-10l-9 1-3-1-2 1zm93 0-2 2 9 33h1zm-117 2q-23 3-50 3l1 48 2 9 12-2 13 1-26 3 1 1 17-1 2 1 23-1h2l6-1v-3l-23 1-1-1 24-1v-24l-1-20v-2l1-6-1-4zm101 0-11 3 14 33 16-2-8-33zm-174 1-31 2-1 6-1-6-47 2-2 2 1 13v2l1 3v9l-1-7-1-3 1-3-1-8-2 13 1 4-1 3h2l-1 2 1 2v2l-1 3 1 23 2 1 8-1 4 1 38-2-1-5 1-2-1-31-2-13 2-1v10l1 8h2l-1 7 2 27h24l26-4v-6l-1-34v-2l-1-4 1-3-1-7-1-2zm-80 1v2l10-1zm224 2 7 35 13-2-16-31zm-13 7-1 20 3 1-3 2 1 5-1 2 1 3-1 3 1 6 1 4 9-1q-5-9-5-22l-1-3zm63 25-8 1h-2l-7 2 2 3 14-1 5-3v-2l-2 1zm-35 4-8 2 1 3 14-1-1-3zm41 3-1 5 9 31h1l-8-35zm-17 1-4 2 7 12 1 8 7 14 10-1-8-33-1-2zm-22 3-9 3 2 8h10l2-1 3 2-8 1-3-1-3 1 5 21q11-2 18-8v-4l-3-3-6-17q-2-4-8-2Zm-82 11q-3 2 0 3l27-1-2-1h-2zm-65 4-10 1-1 2h3l13-1h2l2-1zm169 4-2 2 1 5h4zm-2 10-15 6-1 2 5-1h2q7 0 10-5l-3 4 5 1 4-2v-5l-4 1zm27 5-13 1-2 4-16 1h-2l-14 1 1 3 28-4 2 1 8-2 3-1 3 1 2-1h2zm2 7 6 32h1v-11l-6-20zm-9 1-38 6 7 32 44-6-6-25-4-1 3-2-1-3zm13 34-42 6-2 2 1 2 5-1h2l7-2 2 1 30-4-1-2zm-1 7-35 6-3-1-4 2 9 34 21-3 1-3 9-5q6-6 8-17 1-8-2-11zm12 1-2 8 1 2-3 6h2l1-3 5-4-3-8zm1 17-9 15h2l8-14zm6 0-3 5 3 6 3 19 20 76 3-1zm-3 6-3 4 3 6h1zm-8 13-8 3h-13l-20 4 2 3 27-5h1l-15 3v1q20-1 35-6-2-5-9-3Zm11 6v6l1 3-1 4 2-1 1 4-1 3 5 15h1l-3-7 1-2v-4l-1 3-2-3 1-2v2h1l-3-16zm-12 1-10 2h-2l-26 5 8 34 18-3 2 1 25-6-8-32zm18 35q-22 6-48 9l1 5 14-2-1-1v-1l2 1 9-1v-1l-4 1h-4l9-2h2l19-5 2 1v-3zm4 7v10l7 26h1zm-62 4-2 2 8 34 2 1v-6z"/><path fill="#27261f" stroke="#27261f" d="m620.5 349 3.5 1.5-.5 1.5-8.5 5.5-3 11h1l2.5-3.5 6-1 4.5 3.5q1.5 9-4.5 10.5l-7 1-3.5-2.5q-3.5-4-2-13l7.5-12.5zm-1.5 18-5 6 1 2h5l3-5zm41.5-17 2 1 15-1 .5 3.5-4 9 6 2-7 2-3.5 12.5-2.5-.5 2-11-5-2 .5-1.5 6.5-1.5 3-9-4.5-.5-8 1zm63 0 7.5 33.5h-1zm-369 1 2.5 1.5v24l1.5 1.5 4.5 1.5-12.5 2.5-1.5-2.5 5-2-.5-17.5-6 5-.5-2.5zm52 0 5.5 2.5 2 6-9 16 1.5-.5 11.5 2.5-6.5 1.5h-2l-10 1-.5-3.5 11-15v-5l-4.5-1.5-5 6-1.5-3.5 4.5-5.5zm152 0h13l1.5 1.5-12 2 .5 7.5q8-1.5 10.5 2.5l1 8-4.5 5.5-8 1-3.5-2.5.5-1.5 5 1 6.5-3.5 1-5q-1.2-3.7-7.5-2.5l-4 2-1.5-8.5v-2zm-105 1h13l1.5 1.5-6 8 6 3 2 8-2.5 4.5-9 3-7.5-4.5 2.5-1.5q2.3 3.2 9 2l2.5-1.5 1-7-11-4 9-8-6.5-.5h-4l-1.5-.5zm-167 8 1.5.5-1 5 1 4-1.5.5zm192 12 1 2 4-2-2 3-4 1-.5-2.5zm41 28 3.5 7.5-1.5.5zm-3 1 2.5 5.5-1 2 1 2-1.5-.5-2.5-.5.5-2.5 1.5-.5zm-189 2 1.5 1.5v23h-1zm194 7 2.5 5.5v27l-1.5.5-1.5-2.5-.5-18.5-3 4-2.5-.5 7-12zm142 3 1.5.5 1 3-1 2v2l1 3-1.5 17.5-1.5-.5-1.5-19.5-2 3-2.5-.5zm15 0q5.5-1 6.5 2.5l-5 8 6 4 1 5-4.5 6.5-9 2-3.5-2.5.5-1.5 6 1 6.5-4.5q1-5.5-2.5-6.5l-7.5-2.5 6.5-7.5-8.5-.5.5-2.5zm-106 1 7.5 4.5v6l-6.5 8.5-1.5-.5 5-12-5.5-2.5-3 4-1.5-3.5zm-217 1 7.5 4.5q1.5 8.5-4 10l3 2 3 8-5.5 7.5q-8.3 1.3-10.5-3.5l-1-6 5-8-5-4q-1.2-8.2 4.5-9.5zm-.5 4-3 6 5 2 3-6zm1 13-4 6 2 5q6 1 7-2l-1-6zm51.5-17 9.5 3.5-2.5 27.5-1.5-.5-1-5 1-12-3.5 2.5q-6.5 1-8.5-2.5l-1-4 5.5-8.5zm.5 4-2 1-2 7h5l4-6zm98.5-4 2.5 1.5-.5 26.5-1.5-.5-1.5-20.5-3 4-1.5-.5zm-54 1 2.5.5 1 7-1 3v2l1 3v2q2.3 8.3-1.5 10.5l-1.5-.5-1-4 1-2-1-2v-2l-.5-10.5-4 3-1.5-1.5 4-4zm14 2q6.5-1 8.5 2.5 4.7 3.8 3 14l-5.5 7.5-5 1-5.5-4.5-2-11 4.5-8.5zm1.5 3-5 7q-1 9 5 12l4-1 3-7-2-8zm-139.5 22 .5 2.5-1 2 1 8v2l-.5 2.5-1.5-.5v-2l1-3-1-10zm320 18 .5 22.5h-1zm-151 7 1.5.5-1 3 2.5.5 1.5.5-7.5 2.5-.5-3.5zm-19 1 3.5.5-5 2 .5 1.5-2.5-.5 1.5-2.5zm-150 2 .5 2.5 1 2-1 2 1 4-1.5.5-.5-2.5zm221 0 2.5.5-4.5 6.5-.5-1.5 3-4zm115 4 6.5 4.5-1 8-7 11 11 2-.5 1.5-4 1-5-1-5 1-1.5-3.5 10-18-1.5-2.5-5.5 2.5-.5 2.5-2.5-.5 2.5-6.5zm-104 3 2.5.5 1 15-2.5.5-1-9-5 3-.5-2.5zm120 0q7.6-1.1 9.5 3.5 3.2 3.3 2 11l-5.5 8.5-5 1-5.5-4.5-1-11zm2.5 3-5 6 1 10 5 2 4-5q1-8-2-11zm-175.5-2 2.5 1.5-1 5 1 21-2.5 1.5-1.5-1.5-.5-19.5-4 5-2.5-1.5 6.5-10.5zm-145 1 1.5 4.5-4 10 3.5.5 3.5-1.5 1.5-6.5 1.5.5 1.5 7.5 3.5 1.5-5 2-.5 12.5-2.5-1.5-.5-11.5-10.5-.5zm40 0 1.5.5 1 7-1 3v2l1 15-2.5 1.5-2-22-3 4-1.5-3.5zm16 0 4.5.5-.5 1.5-5.5 3.5-4 11 1.5.5q1-4 7-3l3.5 2.5 1 6-4.5 5.5-4 1-6.5-4.5-1-11q1.9-9.1 8.5-13.5Zm.5 17q-5 1-4 7l5 1q4-1 3-6zm35.5-17 1.5.5 1 2v24l-1.5 1.5-1.5-1.5-.5-19.5-5 3-.5-2.5zm16 0 7.5.5-3 12 3 1-.5 2.5-4.5.5-3.5 12.5-1.5-6.5 2-6-4-1 .5-1.5 4.5-1.5 3-9-1.5-.5-10 1-1.5-2.5zm-122 1 2.5.5 1 20-1 3v2l-.5 3.5-1.5-.5-1.5-21.5-3 4-1.5-.5zm-21 40 .5 10.5h-1zm239 2 16.5.5-30.5 1.5v-1zm-62 5 1.5 3.5-3.5 4.5-3.5-.5zm-117 4 1.5 9.5-2 1zm-59 2 .5 13.5h-1zm335 4q7.3-1.2 8.5 3.5l-1 9-6 10 9 1-.5 2.5-13 1-1.5-2.5 9-15v-5l-2.5-1.5-4.5 3.5-.5 1.5-1.5-.5 1.5-5.5zm20 0 7.5 1.5-3 10 5 2-7 4-2.5 10.5-1.5-.5 1-11-4-1 .5-2.5 5.5-1.5 2-8-1.5-.5-9 1-1.5-2.5zm-156 2 .5 4.5-4 9 4.5.5.5-2.5 1-3 .5-4.5q4.3 2.2 3 10l3-1 .5 2.5-4 2 1 11-3.5 1.5-2-13-7 1-1.5-4.5zm-19 2 5.5 1.5 2 6-8 15 11 1-.5 2.5-15 1-.5-3.5 10-18-3.5-2.5-4.5 3.5-.5 1.5-2.5-.5 4.5-6.5zm-105 1 4.5 3.5 1 5-8 15 9.5.5 1.5 1.5-1.5 1.5-14 1-.5-3.5 10-18-1.5-2.5q-5.7-.7-6.5 3.5l-.5 1.5-2.5-1.5 3.5-5.5zm16 0q6.5-1 7.5 3.5l1 4-7 16 1.5-.5 8.5 1.5-.5 2.5-14 1-1.5-2.5 10-19-1.5-2.5-3-1-3.5 2.5-.5 2.5-1.5-.5q-1-5.5 2.5-6.5zm35 0q6.3-1.2 7.5 2.5l1 5-8 16 1.5-.5 8.5 1.5-.5 2.5-13 1-1.5-4.5 10-18-3.5-2.5-4.5 3.5-.5 1.5-1.5-.5q-.7-6.7 4.5-7.5Zm20 0 7.5 1.5-5 8 6 4 1 6-5.5 6.5-6 1-4.5-2.5.5-1.5 6 1 5.5-4.5 1-3q-2-5-10-4l2.5-4.5 1.5-.5.5-1.5 2.5-1.5-.5-1.5-9 1-.5-1.5zm-86 1 1.5 25.5-1.5.5zm-39 1q6.5-1 7.5 3.5l1 5-8 15 10.5.5 1.5 1.5-15.5 3.5q-4.2-1.7-1.5-3.5l9-14 1-5-1.5-2.5-6.5 3.5-.5 1.5-2.5-.5zm20 0 2.5 1.5 1 25-2.5 1.5-1.5-1.5-.5-19.5-5 4-.5-2.5zm263 10-.5 1.5-3.5 5.5.5-1.5zm-1 6 .5 2.5-1.5 4.5-1-2-1.5.5zm-247 5 1.5.5-.5 13.5zm-70 12 .5 11.5h-1zm0 13 1.5 4.5-1 2v2l-.5 9.5zm284 2 1.5.5 1 15-1 3 1 2v2l-.5 2.5-1.5-1.5zm-176 11q6.4.1 8.5 4.5 2.6 18.1-5.5 25.5l-5.5-1.5 5-2 3-13-1.5.5-7 1q-4.5-1-3.5-7.5l4.5-6.5zm1.5 3q-5 1-4 8l4 1 3-6zm38.5-3 3.5 1.5-5 9 6 4 1 5-5.5 7.5-9 1-2.5-4.5 2.5-.5 5 2 5.5-4.5 1-2-1.5-3.5-8.5-1.5 1.5-4.5 3.5-2.5 1-2-9-1 .5-2.5zm-58 1q5.5-1 6.5 2.5l1 7-8 14 1.5.5 7-1 2.5 1.5-1.5 2.5-5-1-8 2-1.5-2.5 10-20-3.5-2.5-4 6-2.5-1.5 3.5-6.5zm-35 1q6.9-.9 8.5 3.5l1 3-5 8q5.8 2.2 5 11l-3.5 4.5q-7.8 1.8-9.5-2.5l-1-7 3-6-3-2-1-7 3.5-4.5zm2.5 3-2 1-3 4 4 4 4-6zm0 14-4 6 3 4 4-1 1-2zm104.5-17 7.5 2.5q4.5 3.5 3 13l-4.5 7.5-8 1q-6.7-3.2-4.5-15.5l4.5-7.5zm.5 4-4 5 1 10 6 2 3-4-1-10zm-127.5-2q7-1.5 8.5 2.5l1 5-8 15 10 1-.5 2.5-14 2-1.5-2.5 9-14 2-7-4.5-1.5-3.5 2.5-1.5 3.5-1.5-3.5zm302 0 .5 12.5h-1zm-313 20 .5 2.5 1 2v2l-.5 1.5-1.5-.5zm161 48 4.5.5-2 1-.5 1.5-2-1-3 2-3-1-3-1-14 1v-1l8-1h2zm13 1 19.5.5-20.5 1.5zm-89 1 3 1 6-1 1 2 4-2 1 2 1.5-.5.5-1.5 4 1 3-1 23 1 4-1 .5 1.5-1.5.5h-2l-34 1-1-2-1 2-3.5-.5-.5-1.5-1.5.5.5 1.5-12.5-1.5zm175 3 22.5.5-.5 1.5-22.5-.5zm-38 129 12.5.5-12.5 1.5zm-25 2 2.5.5-.5 1.5-5 1-3.5-1.5z"/><path fill="#f3f3f2" stroke="#f3f3f2" d="M.5 0 1024 .5l-.5 1023.5L0 1023.5zM666 229l4 8 1 1-2-2-2-1 1 3q2 4 4 1l-1 2 4 2 4 8 2 2q-13 2-19-2l-1 2 1 1-3-2h-2l-1 2-2-1-1-1-11-1h-2l-4-1-1 2h17v2h-4l-4-1h-32l-42 3-51-1 5-1h2l5-2 10 1v-1l4-2 5 1 15-1h2l35-3h2l12-1h2l11-1h2l15-2 8 1h2l3-1 2 1h2l1-2h-31l-38 3h-2l-22 2h-2l-51 5-1 2-1-1-14 1h-2l-8 1-78-2-2 1-7-2-44-1 2-3 2-1 1-2v-3l-4 6q-1 5-9 3h-2l-7 1h-2l-23-3-5 2 6 1h2l12 2-28 1-2-1-2 4-1-1-6 3h2v6l-3 1-3 2 1-7-1-2 1-4v-12q-4 5-2 16h-5l-3 1 1 2 6-1 1 4-4 12 2 1-2 4h2v6l1 4-1 6 1 3-1 2 1 2-1 3h-1l-1 2 2-1v27h-1l-2-12 1-13-3-21 1-6-1-9-3 10 2 7 1 20-6 5-2 3h-1l-4-5-2-1 1 4 5 6 9-10 1 21v2l2 10v59l1 23v2l2 22-1 2v2l1 16 2 1-2 1h2l1 25-1 2 2 22 1 62h-1l-4-24-1-25v-2l1-14-1-3 1-6-1-4-2 19 1 2-1 5 1 4-1 2 2 26v2l6 43-2 37 1 11v2l-2 5 1 22-13 2-4-1h-2l-2 1 2 2 19-1 1 17-1 5v2l2 6 1-4v-4l-1-3 1-2-1-12v-2l3-4 1 4 5-1 15 2 3 8-7 2 9 1 6-2-5-1-3-5v-2l5 1h3l-1-1v-1l21 1 46-5 33 1h-3v1l9-2 29 1-4 1-2-1-66 8h-18l-3 2h10l21-2h2l7-1h2l18-2h2l38-4h4l4-1 5 1 20-2 3 1 3-1v-1l-23 1-11-1-2 1-3-1-5 2-1-1-4-2 31-4 36-1v5l-7 2 7 1-1 9 1 2v2l-1 13v2l-1 4 1 9 1-3-1-2v-2l2-13v7l2 26v2l-1 18v2l1 25-1 14-6 2-28 2-2-1-6 2h17l10-1h2l10-2 4 2-1 1-29 1-10 2-4-1-10 1 9 1 30-2h16l20 10v-1l2 1h-1v1l3-1 2 1v2l4-1-15-9-3 1v-1l-7-3 52-5 2 4 2-4 1 1-1 2 2 1v2l-3-1-1 5 2 1-1 3 3 1v-3l2 2q-2 4-3 1l-1 3-20 4-9-5-3 2h4l-1 2 4 1-2 1 4 1 2-1 2 1 1 4-2 1q12 9 29 14v2h2l1 3-1 2h2v-1l3-1 3 7 6-1-5-3 3-1v2l3 1v-4l2-4-8-32 1-4 3 3 27 8 1 2-10-2-1 2 26 7q5 3 5 12h2v2h7v-3h2v-3l7-3-3-10v-2l-4-20-1 4h-1l1-4-12-40-1-9v-2l-2-20-3-3-3-4 1-2-4-13 1-3q1-11-4-14l1-32-7-33v-2l-1-6 1-15-1-3 2-19-1-3 1-20v-2l1-19 4-13 6-1v-8l-4-11 1-4h-1l-7-33 1-4 2 8 1-3-8-28-3-3-4-4-4-3q-1-11 6-14l6 2 5-2-1-3-2-2-5-5 2-6-1-4q-3-8-13-9l-9 6-7-2-7 2 4 7 4 3-1 5-4 2-2 3 4 2-1 3 1 8 7 2-2 3q-14 1-22-3l-1-2-4 2-17-8-18-28 3-2 5-10-1-7-23-26-2 1-11-9q-13 2-20 9l-3 5 1 10-1 5h3l1 5-1 2 2 4-1 2 2 4h-10l-3 1-2-7 1-29 2-1-1-1-1-1v-2l1-10v-2l-1-7 47-1 1 4v2l-1 5 4 14v-9l2-1 3-5q4-2 1-4l-4 1-2 1 1-8 47 2 1 8 1 48h-25l-1 3h26l2 38h2l1-4-1-23v-2l-1-8 4-2 22-1-1-2-2 1-3-1-3 1h-2l-4-1h-2l-3 1h-6l1-4v-2l-1-2 1-3-1-2 1-2-1-1-2-28 1-12 1 7 1 25v-31l48-3 1 5-1 2 3 37-1 13-11 1-1 2h13l3 37-1 24-4 2h4l1 13-1 4 1 15h2v-23l-1-2 1-7 2 1 44-1 1 8v52h-24l-11-1-1 2 6-1 14 2h-25l-1 2 5 1 18-1 4 1h2l13-1 1 2v14l1 2v38l-8-1-7 1h-2l-9-1h-2l-3 1h-2l-3-1-10 2-1-2-1-39-1-1-1 42h-3l-1 2h4l2 58h-2l-3 1-1 3 4 1 2-1 1 3q2-4 10-3l-3 4 1 1 3-4 11-1-4 6 3-1 5-6 7 1-15 16 1 1 2-1v-1l2-1 2-3 7-5v-3l3-1v-2h2l6-1-1 3 4-3 2 1-14 16h-1l-1 2-34 3-1 2 2 1-1 2 12 3h-11l-1 2 3 2h-1l-2 3 4 1 25 1-20 1q-3 2 0 3l35-4h2l18-1-1-7 5-3 3 1 1-2-2-1 2-3 5 1-1 2 2 2v-4l10-3v-2l-3 1h-6l1-9-2-17 1-25-2-1 1-19-1-1-2-19v-2l1-53 2 32v4l2 21h2l-1-1 1-5-7-87 2-17v-2l-1-7 2-10-1-3 1-4v-2l-1-9 1-10v-2l-1-37-2 1 2 54-2 14 1 2-1 5 1 5-1 10-1-3v-2q-3-14-2-31v-2l-1-4 1-23-1-3 1-54 4 23-1 3h3l5 27h1v-7l-7-34v-16l-1 3v9l-4-14-1-35 2-1 2 24-1 4 2 10q4-2 1-11v-4l-2-14v-2l1-4-1-1-2-15v-2l-1-4 2-23-1-1-2 8-1-12 6-2-6-1-2-4-1-1-1 4h-16l-4-8-2 5 2-1 1 3 1 1-4-1-10 1-6-8 3 1h1l-4-4-8-11zm-51 21 4 2 4-1h2l5 1h4v-2l-2 1zm-49 1-22 1v1h37l8-1-10-1h-2l-3 1-3-1-2 1zm-291 36-10 3-1 2q2 3 10 1v-1l-2-1 6-3zm467 16-4 6 1 2h2v-2l2-1zm-223 36-6 6-2-1-1 2 3 1 3-2 3-4zm4 3-5 5 2 1 5-2 1-2-3 1 1-2zm-14 1-2 3-2 1-2 3h2v-1l2-1 2-3zm40 6-6 3 1 1 4-2-3 4h2l3-5zm70 0q-9 5-11 17 0 9 6 13l9-1 4-6-1-5q-2-4-9-3l-5 4 5-12 8-3v-1q-1-4-6-3Zm-52 1-10 3v13l3 2 4-3 5 1 1 4-1 2q-2 5-11 3l-1 3 6 2 8-3 3-5-1-6q-2-6-10-5l-2-3v-2l11-2 1-2zm-71 3-2 3-2 3 6-4zm1 34-5 4 4 1 3-4zm74 27q-5 1-4 8h3l3-4 3 2q1 8-4 11l2 3 7-11-1-5q-2-5-9-4Zm92 61q-5 2-5 9l3 1 1-4 3-2 2 2q-2 11-9 18v4l3 1 13-1v-2l-1-2h-10q8-6 8-20-1-5-8-4Zm19 2-2 1-6 11 2 10q2 4 10 3 6-3 7-11l-4-11zm-16 60-3 1-5 8 3 1 4-5 3 2-9 21 3 1 10-1 3-2-3-3-4 1h-3l8-14-1-6zm24 0-13 1-2 4 3 1 4-1 4 1-2 7-5 1-1 3 4 1h1l-2 10 4 1 2-11 5-1 1-3-4-1 2-7zm-431 4-6 9 1 4q0-8 5-11zm28 51-2 15 1 3v2l-1 16-1 3 1 4-1 11v2l2 6q-1-28 2-51l-1-2v-2l1-6zm404 56-2 1-1 2h-1l-7 8 1 1 8-9 2-1zm-22 2-6 7 6-5zm-392 4-2 2 4 4 3-1-2-2-1-1zm410 38-2 1q-4 2-2 10l2 1-1-7 5-3v-1zm-351 10v2l7-1 3 1h4zm33 0-12 1h-2l-4 1 3 1 15-1zm-92 4v2l2-1 3 1 3-1zm53 5 1 9 3 1v-1l-1-1zm379 89-18 2-5-1-10 2 1 1 6-1 6 1 29-3 6 1v-1zm-242 16-3 1v1l9-1zm-53 1-6 2h17l11 3 2-1 3 1h2l2-1 3 1 9-2v-1l-3 1-22-1-2 1-7-3h-2l-3 1z"/><path fill="#f3f3f2" stroke="#f3f3f2" d="m366.5 253 11 1h2l9.5.5-9.5 1.5-3-1-19 1-.5-1.5zm235 3 69.5.5-27.5 2.5-36-1-6-1zm-190 2 2 1 27-1 25 2 2-1 16 1 22-1v1l-10 1h-2l-19 1h-4l-3-1-8 1h-2l-30-1-3 1h-2l-3-1h-2l-16-1-3 1-3-1-2 1-3.5-1.5z"/><path fill="#f3f3f2" stroke="#f3f3f2" d="m712.5 258 2.5.5 1 8-1 2v2l1 13h-2l2 4v30l-1.5 2.5-7-44-.5 9.5 1 2h-1l-1.5-3.5-.5 2.5 4 9 6 34-1 2q5.7 29.3 3 67l-1 26 1 24-1 2v2l1 3-2 18v4q-2.3 59.3 6 108v2l-1 10 1 27-.5 1.5 1.5.5-16.5 17.5-.5-3.5 12-11-1.5-.5-10 9-.5-2.5 13.5-14.5-13 12-.5-6.5 10-9 3-4-.5-2.5-1.5.5-2.5 4.5-1.5.5-.5 1.5-2.5 1.5-3.5 4.5-1.5-.5v-8l13.5-14.5 2.5-1.5-.5-1.5-4.5 3.5-10.5 11.5-1.5-.5q-1.8-8.8 2-12h-2l-1-3v-2l1-4v-2l.5-7.5 2.5-1.5-4-3 1-85q-4.9-18.6-3-44l1-2-1-2 1-3-1-5v-4l1-10-2-29v-4l-1-28 1-26h-1l-1.5 7.5-.5-7.5 4-2-.5-1.5-8-1-13 1 1-2 3-1h2l3 1 3.5-1.5-6.5-1.5h-2l-7 1-3-1q-23.8 4.2-53.5 2.5l5.5 1.5 2-1 10.5 1.5-25.5.5-10-1h-2l-8 1-1-2-3 2-49 1h-2l-52-1h-4l-3 1-2-1-41 1-1-3-2.5.5-.5 2.5-13 1-3-1-3 1h-2l-57-1-3 1-7.5-.5-.5-1.5-6 2-5-1-1.5.5-.5-2.5-2.5 1.5v17l-2 3h2l1 16-1 10 1 15v2l-1 49 1 5-1 9 2 17-2 11v2l1 39v2l1 27 2 5 3 28-4 2 4 2 1 33-1.5 9.5-2-1 2.5 3.5-.5 7.5-1.5.5 3 5v2l.5 2.5 8 2 2-1 2 1 4-2 2 1 2-1 2.5 1.5.5-1.5 31-1 2.5 1.5.5-1.5 49-3 2 5 2-5q40.1.1 76-4l8 1 4-1 1.5 1.5.5 17.5 2-7 1.5 5.5-1.5 3.5-1-2-2 3-67-1-3 1h-2l-35 2h-2l-50-1-3-2 .5 1.5-.5 1.5-8-1-4 2h-2l-7.5-2.5-.5-1.5-6-4q-3 1.5 0 3l7.5 5.5-5.5.5-6-4 3 5-8-1-5 1-2-1-4 2-6-7-.5 1.5 4 5-4.5.5-.5-9.5 5.5 4.5 4 2-3-4-1.5-.5-.5-1.5-5.5-4.5.5-4.5 7 6-6.5-7.5-1-6 5.5 4.5 6 4-5-6-5.5-4.5-1-7v-2l.5-7.5 3 2-3.5-4.5-1-8 2-1-2-7q4.6-13.4 2-34l-2-26-3-12v-26l2-19v-2l-2-26v-2l-1-22 1-5-1-3 2-8-1-3 1-3-1-9v-2l1-5-1-3 2-16-2-9v-2q-1.5-8.5 3-11l-3 1-1-10 1-5-1-4v-2l-1-4 1.5-3.5 4.5-3.5-1-2 3-1v-2l-.5-1.5-4.5 5.5.5 1.5h-2l-1.5-.5-1-11 11.5-12.5 1.5-.5 16.5-18.5 1.5-.5 18.5-20.5 1.5-.5 8.5-9.5 7.5.5-9.5 10.5 13-11 .5 1.5-26.5 27.5-2.5.5-5 8 1.5.5 1-2 1.5-.5.5-1.5 1.5-.5.5-1.5 1.5-.5.5-1.5 1.5-.5.5-1.5 1.5-.5 4.5-6.5 1.5-.5.5-1.5 1.5-.5 6.5-7.5 1.5-.5 8.5-9.5 7.5.5-8.5 9.5 11-10h4l3 1 11.5.5.5 1.5q1.8-3.7 9-2l6 1h2l35-1 3 1 2-1h2l17-1 2 1 32-2 2-2 30 2 11-1 4 1 25-1 52 3 14-2 2 1 18-2 2 1 3-1 3.5 2.5-1-2 11.5-1.5 1 5 1-4 2.5 1.5-1-2zm-9.5 4 4 13 1-2 4 9 2 1zm-15 1 14 28h1zm-295 4-5 6-6 5 1 1 4-3 7-8zm-28 5-9 10 9-8zm12 3-5 6 5-4zm23 0-1 2h-1l-1 2-1-1-2 4 1 1 6-7zm302 0 2 9h1zm-171 1-8 3-5 6 1 4 3 1 2-3 5-4 5 2-1 8-16 19 1 3 3 1 13-2 6 1 5-1 1-3-4-3-9 1h-5q9-8 13-21l-1-6q-2-6-9-6Zm32 0-13 22 3 4 14-1 1 17h4l1-2v-15l8-1 1-4-8-1 1-11q1-6-2-7l-4 5-1 13h-10l8-13-1-5zm-106 1-4 2q-6 3-7 11l4 2 2-3 8-6 4 3-3 10-14 17v4l4 1 4-2h19l2-4-7-3-6 1h-6q9-8 13-20l-1-8q-3-6-12-5Zm-76 2-11 12 12-11zm111 0-3 2q-7 5-8 15-1 9 3 14l7 5 12-1q6-4 8-12 2-12-4-17-4-7-15-6Zm156 14 1 5 7 5v-1l-1-1-6-7zm-283 2-8 9 9-8zm-23 6-3 4-2 1 2 2 2-3 2-1zm266 0q-2 6 4 7l5-1v-2l-2 1-4-1zm-272 6-7 8 2-1 2 1v-2l5-4zm323 8-5 3 1 1 4-2 1 3v-4zm-332 2-6 7 4-1 2-4zm208 7-3 1-1 3-2 3h2l3-5 2 1v-2zM323 627v4l6 4h1l-5-5zm-6 14-1 2 19 16v2h2v2h2q2 5 4 2l-13-11-1-1-1-1-2-2-1-1-4-5zm15 22 6 7h1zm17.5-403-9.5 10.5-31.5 34.5-.5-2.5 3-5-3 1-1-3 4.5-5.5 1.5-.5.5-1.5 1.5-.5 8.5-10.5 1.5-.5.5-1.5 1.5-.5 2.5-3.5 1.5-.5 1.5-2.5 1.5-.5 5.5-6.5 1 2 1-2 1.5.5.5 1.5zm7 0 1.5.5-5 4 .5 1.5 8-6 2 1 1.5-.5-1.5 2.5-2.5 1.5-.5 1.5-2.5 1.5-25.5 27.5-1.5.5-.5 1.5-1.5.5-.5 1.5-1.5.5-.5 1.5-1.5.5-6.5 8.5-4.5 3.5-5.5 7.5-1.5-12.5 4.5-5.5 1.5-.5 38.5-41.5zm-3.5 6-18 19 18-17zm-28 29-6 7 6-5zm-14.5-34 1 2 1.5-.5-6 5 1.5-2.5-1.5-.5 2-1zm10 0 1 2 4-2-11.5 12.5.5 1.5 15-14-15.5 16.5-6.5 7.5-.5-1.5 4-5-4 2 4-6-4 2zm-1.5 4-8 9 8-7z"/><path fill="#f3f3f2" stroke="#f3f3f2" d="m332.5 261 4.5.5-16.5 17.5-3.5 2.5-8.5 10.5-1.5-.5q10.3-17.7 25.5-30.5Zm162 24 3 1 4.5 3.5 2 9q-1.1 7.4-6.5 10.5l-3 1-5.5-3.5-1-13 4.5-7.5zm-204 26q3.1 26.4 1.5 57.5l-1.5 36.5-1.5-5.5 1-2-1-2v-2l-1-50zm9 14 1.5 8.5-1 7v2l1 7-1 2 2 16-1.5 2.5zm360 6 3 1 14-1v1l-30 1v-1zm-61 3 3 1h2l4-1 1 2-14.5-.5zm12 0 2 1h2l9.5.5-13.5.5zm-150 1 2 1 21-1 .5 1.5-4 1 .5 1.5 3-1 1.5 11.5v2l-.5 7.5-1.5.5.5 2.5 1-2 1.5 9.5-5.5 4.5-.5-1.5 1-2-1.5.5-2.5 1.5-1 2 3.5 2.5 6-5 .5 1.5-1 2v2l1 19h-1l-.5-1.5-1.5.5-.5 1.5-44.5-.5-1-5v-2l-1-12 1-3-1-2v-4l-1-18 1-2-1-2 1-2-1-6 3.5-.5 3 1 2.5-1.5-9-1zm-2.5 2-4 2h21l-1-2-3 1zm-2 14-2 1-2 4h11l-8 7 2 3 3-1 4 1q3 1 2 7l-4 3-10-2-1 2 7 4 8-1 4-5-1-8-6-4 6-7-2-4-5 1zm25 32-6 6 2 2 4-1 1-2-2-1 2-3zm95.5-48 11.5.5-.5 1.5-11-1zm96 0 3 1h2l3-1 7 1 5-1-.5 1.5 2 17-1 2 1 36-44.5 1.5-1.5-14.5 1-2-2-14v-2l-2-24zm-1.5 14-10 1-2 3 2 1 13 1-4 8h-5l-1 4 5 1-3 10 4 2 3-12 6-1 1-3-5-1 4-11q-2-4-8-3Zm-266.5-13 25.5.5-13.5 1.5-6-1h-2l-26 1v-1zm-74 1 2 1 3.5-.5-1 2 1.5.5 1-2 8 1h2l10 1h2l18.5.5 1 45v2q2 7.5-1.5 9.5l-23 1-21-1-1.5.5-1-9v-2l1-3v-4l-1-5 1-2-1-6v-2l-1-18 2-3h-2zm24.5 14-9 14 3 1 5-6v4l-1 3v2l1 8-6 3 2 2 13-1v-2l-4-2-2-25zm74.5-13 1.5 3.5-1 4 2 4 2 28-2 1 2 5-1.5 12.5-31-1-16 1-1.5-25.5 1-5-2-25zM405 351l-3 2-3 8h3l1-3 4-3 3 3-1 5-11 15 3 3 5-2 11 1 1-3-13-2 9-13-1-7q-1-5-8-4Zm82.5-13 1.5 12.5-1.5 9.5zm-180 5 1.5 15.5-1 2 1 2-1 2 2 14-1 7 1 2-1 3 1 37h-1q1.2-20.2-2-36v-2l-1-23zm209 11q8.1.4 10.5 6.5L508.5 372l-6.5-9.5zm3 14-1.5 2.5-1.5 3.5-1-2-2 3-.5-1.5zm98 0 4.5.5-1.5 5.5-4 1-1.5-3.5zm-77 4 2.5 7.5-2-1-2-4zm-245 1 1.5.5 1 49-1 5 1 2-1 3 1 57-1 8 2 1-1 2 1 3v2l1 24v2l-1 15v2l1 21h-1l-5-87 1-3-1-2 2-63v-2l-1-13 1-5v-2l-1-12v-2z"/><path fill="#f3f3f2" stroke="#f3f3f2" d="m535.5 375 6 10 2.5-.5 1.5-3.5.5 2.5q-3.9 4.1-3 13l18 33 6.5 6.5 13.5 6.5-3 1-.5 2.5-5.5-4.5 1 3-2-1-1.5-2.5-2 1-4.5-3.5-3.5-5.5-1 2-1.5-2.5h2l-2.5-4.5-1.5.5 1-2-7.5-14.5-2.5-1.5.5-1.5-1.5-.5 1-2-2-1-5.5-10.5-3.5-2.5-6-9 1.5-.5 2 1 .5-2.5-1-2 1.5.5 2.5-.5zm-235 4 1.5.5-1 3 1 2v2l-.5 2.5q-3.1-3.1-1-10Z"/><path fill="#f3f3f2" stroke="#f3f3f2" d="m548.5 380 2 3 1.5.5 1 3-5.5 4.5-.5-1.5zm-165 2 .5 2.5-.5 6.5-1.5-4.5v-2zm119 0 2.5 8.5-2-1zm21 2 5.5 4.5 4 6-4-3-.5-1.5-1.5-.5zm-222 7 .5 9.5-1.5 24.5-.5-32.5zm250 0 .5 1.5-2 1 1 2-1.5.5-1.5-.5-.5 2.5-.5-3.5zm130 4 2 1 2-1h2l6.5.5-1 20 2 40-1.5.5-17-2h-2l-3 1-13-1h-2l-2 1h-2l-1.5.5 34 1-35.5.5-.5-60.5zM663 413l-6 10 1 2 4-3v18l3 1 1-1v-25zm12 0-5 3q2 4 4 1l6 1-5 4-2 4 8 1 2 3-1 5-3 2-8-1q-4 3 2 5 7 1 11-2l3-4-1-8-6-4q6-1 5-8-2-4-10-2Zm22.5-18 1.5 30.5-1 3 1 3-1 12 1 5h-1zm-304 2 35.5.5-12.5 1.5h-2l-27.5-.5zm-51 2 2 1 2-1 11.5 1.5-3 1 7.5.5v-1l-3.5-.5 5.5-.5 1 3 13-2 1.5 1.5q-.9 21.9 3 39l-1 3 1 17q-1.7 3.3-8.5 1.5l-3-1-3 1-28-2-6 3-1.5-13.5v-2l-1-44v-2l.5-2.5zm12.5 16-3 1-5 6 1 5 4 3-5 10 2 5 7 3 5-1 4-5q1-10-5-12l4-5-1-6q-2-5-8-4Zm93.5-16 25 1 7-1 4 1 2.5.5-1 8 2 37-1 2 1 12-1.5 1.5h-48l-.5-14.5 1-19v-2l-1-7v-2l-1-10 1-5-.5-1.5zm5.5 16-8 10 2 2 4-3v19l3 2 1-1v-27zm14 2-2 1-6 8q-2 9 2 14l5 3 7-1 5-9-2-10q-2-6-9-6Zm21.5-18 17.5.5-1 2 1.5 3.5 1-6 1.5.5 2 5-1 2 3 2 3.5 5.5 1.5-.5.5-1.5.5 2.5-5 12 1.5.5 4.5-3.5-1 2 1 17 1.5 1.5 2.5-1.5-1-15 1-3-1-3 1.5-.5 2 5 1.5-.5-1-4h1l6.5 19.5.5-2.5-3-10 2-1 5 17 1 15-8.5.5.5-1.5-1.5-2.5-8 4h-6l2.5-3.5-1.5-3.5-6.5 5.5-1.5 2.5-6-1-1.5.5 1-4-2.5-.5-3.5 2.5.5 1.5 2-1v1l-2 1-3-1h-2l-2.5-.5zm8.5 3-3 4-1-1-4 3 1 1 4-1 3-4zm9 13-7 11h4l2-3v19l2 1 2-1-1-26zm28.5-16 1.5.5 2 3-4.5 1.5v-1l2.5-.5zm-122 1 9 1 2-1h2l6.5.5 1 15-1 2 2 21v2l1 20-1.5 1.5-43 1-3-1-2.5-.5 1-3-2-10 1-2v-2l-3-30 2-5v-2l-1-4 1.5-2.5zm-6.5 15q-7 3-7 13l6 4 5-1 2-1-1 15 3 1 1-1 1-26q-3-5-10-4Zm214.5-13q5.8-.7 6.5 3.5l1 2-1.5-.5-1.5.5 1 2-2 1-.5 1.5-6.5-5.5 2-1zm-318 3 1.5 20.5-1 3 1 13v2l-1 22v2l1 41-1 5 1 3-1.5 6.5-1.5-4.5 1-2q-3.1-25.9-2-56l1-3v-2z"/><path fill="#f3f3f2" stroke="#f3f3f2" d="m540.5 406 17 37 7 1 14.5 10.5 1.5 5.5q11.7-.2 16.5 6.5 4.3 9.7 3 25l-5 4q.2-11.2-4.5-17.5l-7-1-3 2-1-2-4-1-6.5 4.5-1 7 2.5 3.5 7 1 1.5-.5 1.5 9.5 1.5-.5-6.5 2.5h-2q-1.6-3.9-8-3l-4 1-5-1-4 5-7.5-.5-1-7 7-9-2.5-.5-5 7-1.5-5.5 2-7 9-11-7-2 3-5-5 3-1-4 9.5-.5 3 8 .5-3.5-2-4 4.5-1.5 2 1 10.5-1.5-7.5-2.5-9 1 .5-1.5-2.5-6.5-.5 4.5 1 3-1.5.5-3-12-1.5.5 3 11-6.5.5-.5-1.5 1-2-1-4 3-1-1-2 1-4-3-8v-17l-1.5-2.5-1.5.5-.5 15.5-2-8-1 2-.5-1.5 1-3-3-7v-2l-1.5-2.5-1.5-.5.5-2.5zm54.5 60-2 2 1 14 2-1q2-11-1-15Zm-34 11-7 11 3 1 3-4 1 10h3l1-2-1-14zm45.5-71q7.4 1.1 10.5 6.5l-.5 2.5zm-79 1 2.5 8.5-2-1zm-91 2 .5 15.5h-1zm182 6 6.5 3.5-.5 1.5z"/><path fill="#f3f3f2" stroke="#f3f3f2" d="m532.5 416 1.5 9.5h-1zm80 1 3.5 2.5v2l1.5 3.5 1.5.5-1 4h1l.5-1.5 1.5.5-3 6 3 2-1.5 2.5-2.5-.5-1.5-3.5-6.5-1.5q-1.4-11.4 3.5-16.5Zm-257 2 4.5 2.5-4.5 5.5-3.5-4.5 1.5-2.5zm52 0 4.5.5q.8 6.8-4.5 7.5l-3.5-1.5zm61 2 4.5 3.5 1 9-3.5 5.5-4.5-.5q-3.3-3.7-2-12zm-139 9 1.5.5 1 23-1 2 1 8-1.5.5-1.5-14.5v-2l1-2-1-3 1-2v-2zm27 2 4.5 7.5-1.5 2.5-5 1-2.5-4.5zm229 10 30 8-2-3-1.5-.5 13-1-9-2 7.5-1.5 6 7 3.5 2.5 14 77-2.5-1.5-3.5-.5 1-7-2.5-.5-.5 2.5 2 1-1.5 4.5-17-1-10.5-5.5.5-1.5 9 3v-1l-9.5-4.5.5-3.5q5.7 4.8 16 5l3.5-1.5q-13.1.1-20-6l1-5h-1l-.5 3.5-1-2-1.5.5-1-6h1l.5 2.5 1.5-.5.5 1.5 1.5-4.5q-4-2 0-4l-1.5-3.5-1 3-.5-3.5 1-2-1.5-2.5 1.5.5 2.5 4.5.5-2.5-5-11 2 1 1.5 2.5.5-1.5-1-2 2-1-5-6 1.5-.5 2 1 2-3-2.5-.5-.5-2.5-1.5-.5-.5-1.5-1.5-.5-.5-2.5-2 1-5-7-2 1-7-4 1.5 2.5-.5 1.5-5-7-.5 2.5.5 1.5-2-1-1.5.5zm45.5 79-7 1v1l10-1zm87.5-66q5.1 28.9 3.5 64.5l-1 3-.5 45.5-4.5-51.5 1-11-1-3 2-36-1-2zm-270 8 39.5.5 1 8-1 2v2l1 6-6 8 3.5 1.5 2-1 .5 1.5-9 13 2.5 1.5 2-1 2 3 2.5-1.5.5-1.5.5 2.5-4.5 5.5 4-3 .5 4.5-4 3-.5 1.5q-4.7-2.2-.5-4.5l-.5-1.5-5.5 7.5 1.5 2.5q6.4-.1 8.5-4.5l.5-1.5 1.5.5-1 2 1 4-50.5.5-2.5-49.5 1-3-1-4v-2l.5-1.5zm31.5 5-4 2-1 3 3 1v-2l6-2zm-25 11-8 11 3 1 3-4 1 21h3v-27zm20 0-12 1-2 4 4 1 2-1 6 1-2 7-4 1-2 3 4 2-2 10 3 1 4-12h2l3-2-4-2 3-12zm16.5-16 29.5.5-6 5-4.5 5.5-3.5 1.5-6.5 10.5-3.5.5 2 1-1.5 2.5-2.5.5 1 2q-2 4.5-4 1v-4l10.5-11.5 2.5-.5 2.5-3.5 1.5-.5 2.5-3.5 3.5-2.5.5-1.5 1.5-.5-.5-1.5-7.5 5.5-.5 1.5-2 1 .5-1.5-.5-3.5-5.5 2.5-1.5 2.5-.5-1.5 1-2-3.5-.5-3.5 5.5 1 3-2 1zm38 0 11.5.5-1.5 6.5-1.5-.5-1.5-2.5-10 4-1.5-4.5zm-111 1 2 1h2l13-1 .5 5.5v2l-1 17 1 9-1 2v2l-.5 23.5-2-1-44 1-1.5-59.5zM403 479l-8 11 4 1 2-3v20l2 1h2v-27zm18 0-4 2q-6 5-8 15l2 10 5 3 8-2 2-3-1-8-8-2-3 2 3-9 6-4 1-2zm-46.5-14q6.7-1.8 8.5 1.5l-1 15v2l1 15-1 4 1 22-32.5 1.5h-2l-12.5-.5q-4.2-26.3-2-59l7.5-.5 3 1zM363 479l-7 15 2 5 8-1 1 2v11h3l1-1v-11l4-1v-2l-3-2q0-6-3-8l-2 8h-6l3-8zm-13 1-8 11 4 1 2-3v20l2 2 2-1v-27zm-19.5-14 1.5 1.5v19h-1zm54 5 .5 10.5h-1zm161 0 3.5 1.5-5.5 6.5.5-1.5 1.5-3.5 1.5-.5-3-1zm-18 1-.5 1.5-.5 1.5-1.5.5-.5 1.5-7.5 4.5-3.5 6.5-1.5.5-1.5 2.5-.5-2.5 2-1-2-1 3-2 3.5-5.5 2.5-.5.5-1.5 1.5-.5.5-2.5 2 1zm5 0 2 1 1.5-.5-.5 1.5-8 5q-3-1.5 0-3l2 1 1-2-1.5-.5 3-1zm-226 1 1.5 5.5v2l-.5 26.5-1.5-10.5 1-5v-2l-1-3v-4zm233 0 1.5.5 1 5-1 3 1 3-.5 1.5-3-4-4.5-.5-.5-1.5-1.5.5-.5 1.5-1.5-.5 8-7-.5 1.5 2.5-1.5zm37 7 2.5.5-1 6-2.5 2.5-2.5-1.5-1-3 2.5-3.5zm10 1 2.5 1.5 3 14-2 1zm-63 1 1.5.5-1.5 2.5 2-1 .5 1.5-3.5 2.5-1-2-1.5-.5 1.5-2.5zm158 0 5.5 2.5 1 7-3.5 6.5-5.5-2.5-1-8zm-166 5 1.5 2.5-.5 1.5 3.5 1.5-7 4 .5 2.5 2-1 .5 1.5-4 3 1-3-3-1 6-7-3-1zm-11 2 .5 3.5-5 4-.5 1.5-1.5.5-1.5 2.5-1.5-.5 4-5-2-1 1.5-2.5 1 3 1.5-.5zm33 5 1.5.5 2 13-2 1zm-33 1 .5 1.5-1 3q2.7 1.7-1.5 3.5l-1.5.5-1.5 2.5-2-1-1 2-1.5.5-.5 2.5-1.5-.5 2-1-2-1z"/><path fill="#f3f3f2" stroke="#f3f3f2" d="m489.5 496-.5 1.5-1 3 2 1-4.5 1.5-.5-1.5zm211 0 .5 23.5h-1zm-283 2 5.5 1.5-2.5 4.5-3 1-2.5-1.5zm107 0 1.5.5-1 2 2 1-1.5 2.5-4.5-1.5 2-1-3-1 4-1zm-195 1 3.5 63.5h-1l-3-24v-2l-1-35zm266 1-3 4-3 2-2.5.5-.5 1.5-3-1v2l-8 3v-1l1.5-.5-.5-1.5 1.5.5.5-1.5zm-36 4q10.3-2.2 12.5 3.5l2 5-7.5 1.5-3.5-1.5 1-4zm-43 1 1.5 2.5-3 2-2.5 4.5.5-1.5-.5-2.5-1.5.5 4-2zm6 3 3 1 1.5-.5-4 6 3-1-5 4-1 3 3 1-1.5 2.5-9.5-.5 1.5-2.5 1.5-.5.5-1.5 1.5-.5 2-4q-3-2 2-4zm19 1-.5 1.5.5 1.5 1.5.5-1 2 .5 1.5-2.5-4.5zm41 4 1.5 2.5 1 3 .5 4.5 2.5.5-3 1 2 1-1 2 2 6-.5 1.5-36 3-4.5-22.5 8.5-.5 1 2 13 1zm-6.5 9-23 1-2 2 7 1h2l23-1 1-1-2-2-4 1zm-82.5-7 1.5.5 1.5 2.5 2.5.5-1 2 1 3-5.5.5zm-35 11 2 1 2-1 5 1 3-1 20.5 1.5q1.5 8.5-4 10l4 3 3 44-25.5 2.5h-2l-24.5-.5 1-8-3-50 1.5-1.5zm-1.5 16-4 2-4 7 3 1 4-5 3 1q-2 12-10 20l2 3 14-1 1-2-11-2 8-13-1-8zm22 0-10 2-1 3h3l6 1-6 5 2 4 3-1 4 3-1 5-3 2-5-1-4 2 5 3 8-1 4-5-1-8-5-3 5-7zm24.5-16 1.5.5-.5 1.5-4.5 3.5-2 3 3.5 2.5 2.5-1.5 6.5-9.5 9.5.5-4 7 2.5.5 6-8 3.5.5-.5 13.5-2.5 1.5-6 15 10 2 1 12v2l-.5 10.5-33 2-.5-1.5v-2l-2-45 6.5-9.5zm4.5 16-2 1-4 7 3 1 4-5 3 1v4l-10 17 4 2 14-3q-2-5-10-3l-2 1 8-13-1-7q-1-4-7-3Zm-105.5-15 3 1h2l27-1 4.5 56.5v2l-.5 1.5-18-1h-2l-3 1-5-1h-4l-15 1-1.5-10.5v-2l-1-18 1-3v-2l-2-16 1-2-1-5zm-.5 16-2 1q-6 1-5 8l3 1 3-5 4 1q-2 12-10 20l2 2 15-1v-2l-8-2-2 1 7-13-1-8zm17 0q-6 1-5 8h3l3-4 4 2-9 22 3 1 14-3q-2-5-11-3 7-6 7-19-1-5-9-4Zm18.5-16 1.5 12.5v2l1 38h-1l-2-29 1-2zm-96 1 32.5.5-17.5 2.5-2.5.5 4.5.5 24-3 1.5 30.5-1 2 2 14v2l-.5 10.5-14 1-4-1h-2l-5 1h-2l-19.5-1.5q-3.9-24.1-2-54l6-1-6-2 .5-1.5zm10.5 16-3 1-6 8 4 2 3-5 4 1-1 7-9 13 2 3 13-2 2 1 1-3-3-2-4 1h-5l8-13-1-8zm17 1-7 9 2 3 5-4-1 2 1 3-1 2v2l1 11h4l-1-27zm16.5-17 3.5 55.5v2l-.5 1.5-1.5-.5-2-33v-2l1-2zm221 3h2l4.5 2.5-.5 1.5 2.5.5-2.5.5-3.5-1.5 1-2-1.5-.5-3.5 6.5 3 2-3.5 1.5-1.5-.5-1.5 2.5-2.5.5-2 3 .5 1.5-2-1-1 2-7.5 5.5.5 1.5-4 2 1.5-2.5-.5-1.5-4.5 5.5 1.5-.5 1.5.5-10 7 .5 1.5 2-1v1l-9 6 2.5-3.5 6-8 1-3 24.5-26.5 1 2 3.5-2.5zM591 548l-6 7h2v-1l2-1 2-3z"/><path fill="#f3f3f2" stroke="#f3f3f2" d="m607.5 536 7.5 2.5-5.5 1.5zm31 7 .5 2.5-5.5 7.5-.5-1.5zm-110 2 .5 8.5-3.5.5-.5-2.5zm47 1 7.5.5-23.5 26.5-1.5-.5-4-22 12.5-3.5h2zm40 0 3.5.5 6 29v2l1 40h-1l-16-67zm21 5 1.5.5v2l-1 7 1 8-1 3 1 19v2l-2 6 1 7-3 12 2 1-1 5 1 8h-1l-.5-7.5-1.5-.5 1-5-2-1 2-10-1-3 3-5-2 1-.5 1.5-.5-6.5 1-2-1-4 2-4-2 1-.5 1.5-.5-4.5 3-7h-1l-1.5 3.5-.5-7.5 4-9-2 1-2.5 4.5.5-1.5 4-11-2 1-.5 1.5-.5-2.5zm-330 4 .5 21.5h-1zm229 2 1.5.5 2 12v2l2 7v2l-.5 2.5-3.5-1.5zm16 2 1.5 9.5-2-1-1-5zm45 1 1.5 4.5-1 2 2 4-1.5 7.5-19 2-.5-2.5 8.5-9.5zm-285 1 1.5 11.5-1 2 2 16-1.5 18.5zm296 0 4.5 18.5h-1zm-75 8 .5 13.5h-1l-1-12zm-233 4 1.5.5 1 9v2l1 14-1 2 1 2-1 2 1 3-1 7 1 7h-1zm242 2 2.5 1.5 1 4-2 1-1-3 1-2zm111 7 7 2h2l25-2 10 1 2.5.5v12l-2 2 2 1-1 4 1 2-2 3 2 1-1 5v2l-.5 4.5-2.5 1.5-5 7 7-6 .5-1.5.5 8.5-8.5 9.5-7.5-.5 8-9-1.5-.5-10 10-10 1-.5-1.5 5.5-6.5-6.5 5.5-.5 1.5-5 1-2-1-3 1-1.5-7.5 1-2-4-33zm35.5 35-10 11 10-9zm-11 1-6 7 6-5zm-370.5-33q3.5 13 1.5 31.5h-1zm266 0 1.5.5.5 2.5 1.5-.5-.5-1.5 7.5 13.5h-1l-3.5-4.5-1.5-.5-.5-2.5-2.5-1.5zm-50 1 7.5.5 1 12-1 2 1 3-1 3 2.5 25.5.5-12.5-1-2v-2l1-6-1-4v-2l1-2-1-15h1l1 2-1 2 2 27-1.5 15.5-1.5.5 1 9-3.5 1.5h-2l-5-1-3 1-3-1-17.5-.5-1-15v-2l-.5-7.5-1.5.5q3.3-1.2 2-7l-1-2v-4l1-4-2-13 2.5-1.5zm16 0 3.5.5.5 1.5 1-2 .5 1.5-1 3 1.5 8.5 1.5.5 1 15-8.5.5zm92 0 .5 5.5-1.5 3.5-.5-4.5 1-2zm-33 1 3.5 1.5.5 1.5 2.5 1.5-.5 3.5-1.5.5 6 18v2l1 5-13.5 1.5-12.5-32.5zm2.5 2-2 2 1 27h2v-19zm-115.5-1 9.5.5-1 19 1 35-49.5 3.5-.5-4.5v-2l-2-35 1-2-1-2 1-9-.5-1.5 16-1 2 1zM455 604l-4 3 2 2 5-1 3 1-7 8 8 1 2 3-3 7q-7 1-9-2l-2 3 6 4 8-2 4-5-1-8-6-4 6-8-1-2zm21 2q-6 3-7 11t3 12l4 2 6-1 6-11-2-8q-2-6-10-5Zm-77.5-17 3 1 3-1h2l14 1 2-1 17.5 1.5-1 3 2 35-1 2 1 6-1 2 1 8-32.5 4.5-2-1-5 1h-2l-7.5-.5-1-4 1-2-2-11 2-14-1-2 1-3-1-24zm7.5 15-7 6 2 5 2-4 5-2 1 3-11 20 4 2q4-3 13-2v-2l-10-2 8-15-1-5zm16 0q-7 2-6 13l5 3 5-1 2-1-3 12-4 1-1 3 5 1q6-4 7-14l-1-13q-2-5-9-4Zm-49.5-13 12.5.5 3 35-1 2v2l1 5v4l-1 6 1 5-24.5 1.5-3-1h-2q-8.8 1.8-12-2l1 3h-2l-5.5-.5.5-3.5 1.5-.5-1.5-2.5 2 1-.5-1.5-.5-1.5-1.5-.5q1.8-23.7-2-42l1-3-1-4zm-3.5 15-2 1-4 6q0 6 5 9l-4 7 2 6 5 2 7-2 1-2q1-10-5-12l5-10q-1-6-10-5Zm-18 1-3 2-3 8h3l1-3 4-2 2 1-2 8-8 12 1 3 16-2v-1l-3-3-3 1h-5l8-13-1-8zm212.5-16 3.5 2.5 15 30-12.5 1.5-7.5-32.5zm50 0 1.5.5 13 53-1.5-.5-1.5-.5 1-2-7-22v-2zm-55 3 4.5 17.5h-1zm21 6 4.5 3.5 10 27h-1z"/><path fill="#f3f3f2" stroke="#f3f3f2" d="m422.5 608 3.5.5q1 6.5-3.5 7.5l-2.5-1.5zm-52 2 3.5 1.5-3.5 5.5-1.5-.5-1-4zm107 0 3.5 1.5 2 10-4.5 5.5-4.5-2.5-1-8 2.5-5.5zm61 6 8.5.5-.5 2.5-8.5-.5zm8 4 1.5 22.5-7.5.5-2.5-19.5 3-1 .5-1.5 3 2zm-176 4 4.5 3.5-1.5 4.5-4.5-1.5zm239 0-2 3-4.5-.5 3.5-1.5zm43 0 .5 15.5h-1zm-100 1 2.5.5v2l-1 3 2 3 1 3-1 2q4.3 2.3-.5 4.5l-2-3-.5 1.5.5 1.5-3.5-.5.5-15.5 2 6 .5-1.5-1-3 1-2zm169 4 .5 6.5v2l-.5 11.5-2.5 1.5-4 6 6-5 .5-1.5 1.5.5-2 6h2l-.5 5.5-3.5-1.5 2-3-3 2-.5 1.5-6-1-5 1 1.5-2.5 6-8-1.5-.5-9 11-4 1 3.5-4.5.5-1.5 1.5-.5 11-13-14 13-5.5 6.5-5.5-.5 6.5-7.5 1.5-.5 10.5-12.5 1.5-.5.5-1.5 2.5-1.5 1.5-2.5 1.5-.5zm-.5 12-7 9h2l1-2 2-1 2-3zm-112.5-10 3.5 1.5 3 9-2 1 .5 1.5 1.5.5 4 21-6.5 1.5-7.5-20.5 1-2-7-12zm-24 3 2.5.5 5 13q-3 2 2 4l3 7-1.5 2.5-17 6-4.5-19.5 14-2-.5-1.5-14.5-.5-1-7zm52 1 7.5 34.5-1 2 1 4-1.5 10.5-1.5-1.5-2-17v-4l-1-7 1-5-3-1zm-336 3 1.5 24.5-1.5 7.5-1.5-4.5 1-3zm402 6 .5 1.5-10.5 12.5-1.5.5-2.5 3.5-2.5-.5 7.5-8.5 1.5-.5.5-1.5 1.5-.5.5-1.5 1.5-.5zm-209 1q3 1.5 0 3l-18 1h-4l-24 1-2.5-.5.5-1.5zm4 1 11.5.5-11.5.5zm-202 1 .5 14.5h-1zm247 0 12.5.5-.5 4.5-8 1-5.5-1.5zm-237 4 1.5.5-1 3 1 5-1.5.5zm266 0 4.5 16.5-1.5.5q-4.8-6.9-3-17Zm-29 3 12.5.5 1 3-13.5 1.5-1.5-3.5zm87 1 1.5.5 1 10h-1l-1-2 1-3zm-82 5q7.5-2 9.5 1.5l1 6-15.5 1.5-1.5-3.5.5-4.5zm12 1 3.5 2.5-.5 1.5-1.5.5.5 1.5-2.5-.5.5-1.5 1.5-.5-.5-1.5-1.5.5zm-264 2 1.5 22.5q-1.5 3-3 0v-21zm336 4 1.5.5 2 16h-1l-2-7v-2zm67 0 13.5.5-13.5.5zm-2 4 3 1 2-1 .5 1.5-15.5.5v-1zm-319 1h2l6 1h2l2-1 3.5 1.5q-13.9 3.1-32.5 1.5v-1l10-1h2zm78 1 17.5.5-17.5.5zm67 2 10.5.5-5.5 1.5-4-1-1.5.5zm178 0 2 1 4-1 .5 1.5-17.5.5v-1zm-145 1 4.5.5 1 2-17.5 1.5-1-2zm60 1 6.5.5 1 2-2.5 1.5-19-1-9 2 1-2zm-204 1 6.5.5-2 1-.5 1.5-3-1-3 1-3-1h-2l-1.5-.5zm118 0 2.5.5-8.5 2.5-26 1v-1zm-76 2 5 1 5-1h2l12 1 2.5.5-2.5.5-3-1q-22.4 3.1-49 2v-1l9-1h2zm169 2 3.5 1.5q-.1 13.1 5 21l-1.5 2.5-18 3-5-1-11 3-1.5-4.5v-2l1-5-1-3 1-4-1.5-7.5-1.5 3.5 1 20-.5 2.5-2.5-1.5v-23l-1.5-1.5-.5 19.5 1 2-1.5.5-5.5-23.5 2.5-1.5h2l34 1zm-226 1 16.5.5-16.5.5zm156 0 8.5.5 3 17-27.5 6.5-1.5-4.5 1-4-1-7 14-2-.5-1.5-3 1-9 1-1.5-4.5 9.5-1.5v1l-3.5.5 8.5.5h2l2-1 2 1 .5-1.5zm-98 3 5 1 1.5-.5-.5 1.5q-22.9 3.1-50 2v-1zm108 0 2.5 1.5.5 1.5 2.5.5-3 2-.5 1.5-1.5-2.5 1-2zm-188 2 2 1 24-1v1l-23 2-34.5-1.5zm266 0 1.5 3.5-1 6 2 1-1.5 11.5-1.5-8.5 1-3zm-314 3 40.5 2.5-14.5 1.5-2-1-3 1-17-1h-2l-3 1-7.5-2.5zm205 0 1.5.5 1 12-1 11 1 3h-1l-.5-2.5-1.5 2.5 1.5 34.5 2-1 .5 31.5h-1q-4.8-36.7-4-79l1-4-3-1 1-2-1-4 1.5-.5.5 1.5v2l.5 2.5zm36 1-.5 1.5.5 1.5 1.5.5-2 1 2 1-.5 1.5-1.5-.5-.5-1.5-2 1zm15 9 2.5 12.5v4l1 2-1.5.5-2.5-5.5v-2l1-5-2-1zm-21 2 3 1 2-1v1l-3 2-28 3v-1zm2 4 2.5 3.5q.6 12.9 5.5 21.5l1.5-.5-2-3v-2l-1-2 1.5-2.5 1.5-.5-.5-1.5-3.5-1.5.5-1.5 1.5-.5-3-2 1-3-2-1 2-1-1-2h1l.5 1.5 1-2 2.5 1.5 1 5-1.5-.5-1.5.5.5 1.5 2.5.5 2 8-.5 2.5-2-1-1 4 2.5.5.5 2.5 1.5-.5-3.5 2.5-2-1-1 3-3.5 1.5 2.5.5 2-1 1.5 2.5-31.5 5.5v-1l24.5-5.5-.5-1.5-27.5 6.5.5 1.5 1.5.5-3.5.5-.5-14.5v-2l.5-18.5zm55 6 1 2 2.5-1.5-.5 1.5-6 1 1-2zm10 5 5.5.5 1.5 7.5 2-1v1l-1.5.5 1 4-4 12-5.5 5.5-11.5 3.5.5 1.5h2l1.5.5-4.5.5-1-2-2 3-5-1-4 2-5 1-4.5-21.5 1-2v-2l-.5-2.5-1.5.5-.5 1.5-1.5-6.5 1.5-.5 2.5 1.5 1.5-2.5 6-1h2z"/><path fill="#f3f3f2" stroke="#f3f3f2" d="m534.5 734-.5 1.5 1 3-1 4-.5 4.5-.5-11.5zm37 7 1.5.5.5 1.5 1-2 1.5.5-.5 1.5-2.5 1.5 2.5 3.5 1.5.5 1 2-2 1 .5 1.5 2.5.5-1 6h1l.5-1.5.5 1.5-2 3 1.5 3.5 1-2 .5 1.5-2 3 2.5 5.5 1.5-.5 1 2-1.5-.5-1.5.5-.5 2.5-2.5.5 4 2 3.5 12.5 2.5-1.5-1-2 1.5-.5.5 2.5-.5 1.5 1.5.5 1 7-1.5.5-1-2-2.5 1.5 1.5 2.5 1.5.5-1 2 4-2 1 3-3.5 1.5h-2l-20 2h-2l-27 2-.5-2.5 28.5-7.5 13.5-.5-6.5-1.5-2 1-2-1-31 7-1.5-2.5v-2l.5-16.5 4.5-.5-5-1 .5-1.5q12.8-5.2 32.5-3.5l-.5-1.5-12-1-3 1-18 4-.5-4.5v-2l1-23-1-4 15.5-4.5 15-1zm-8.5 43-8 1v1l11-1zm-19 1-1 2h10v-1l-1-1-3 1zm33.5-40 1.5.5 2 7-2-1-1-3zm46 12 .5 1.5-8.5 1.5 1-2zm-13 2 1.5.5-11.5 3.5-.5-1.5zm44 0 1.5.5 3 13-1.5.5zm-19 3 8.5.5-1 2 2 1-1 5 1.5 2.5 2-1-.5 1.5-.5 1.5-1.5.5 3 1-1 2v2l1 3-1 2 3 9-25.5 5.5-3-1-5 1v-1l2.5-.5-4.5-.5-6 3-7.5-32.5 1.5-.5 3.5.5.5-1.5 1.5.5-.5 1.5 3.5-.5-2-1 1.5-.5 2 1z"/><path fill="#f3f3f2" stroke="#f3f3f2" d="m583.5 767 .5 2.5-.5 1.5 1.5.5-1.5.5-2.5-1.5 2-1-2-1zm16 9 5.5 25.5-.5 2.5-3.5-1.5 2-4-1.5-.5-1.5.5-1-5-1-3-1-6 3-1-2-5zm-68 4 1.5 3.5 2 23-1 2 1 3-3.5.5-.5-1.5 1.5-2.5-1.5-.5 1-9-1-7 1-2v-2zm131 11 1.5.5 10 40-1.5.5-2.5-4.5-5-24-1-3 1-2zm-17 14 7.5.5 2.5 14.5 1.5.5-1 3 1.5 2.5 2.5 1.5-2 1 .5 1.5 2-1-1.5 2.5 1 2-3.5-.5-30-13-.5 1.5 2 1-2.5.5-14.5-5.5-1-4 13.5-3.5h7zm-51 24 1 2 2.5.5 1 3-2 1 2 1 1 6-3-2-.5-1.5-1.5.5 2 3-1.5-.5-20.5-8.5 3.5-2.5 2 1 11-2 2 4 2.5-1.5zm14 2 2.5 1.5-1 2 2 3v2l-1.5 3.5-1.5-5.5 1-2zm-25 11 14.5 7.5-1.5-.5z"/><path fill="#9c9986" stroke="#9c9986" d="m665.5 229 1 2 1.5-.5-.5-1.5 3.5 4.5-3 1 1.5 2.5q1.8-3.7 3.5-.5l-1 2 3 1 2.5 3.5 6.5 5.5-2.5-1.5-2-1-.5 1.5 4 6-20.5.5h-2l-4.5-.5.5-1.5h2l2 1 1-2q6 4.5 19 2l-1.5-2.5-4.5-7.5-6.5-5.5-1-3q3-2-2-4zm-300 13-.5 3.5-.5 1.5-1.5-.5-2 4 26 1 .5 1.5 17-1 .5 1.5q-9.4 4.1-24.5 2.5v-1l8.5-.5-10.5-1.5-11 1h-2l-8.5.5-.5 1.5-6.5-.5 5-1-5.5-.5-9 2-6-2-9 1v-1l8.5-.5-2.5-.5-10-1h-2l-5.5-1.5 4.5-1.5 22.5 2.5.5 2.5 1-3 3 1 5-1v1l-1.5.5 2.5.5 1-2 5.5.5.5 1.5z"/><path fill="#9c9986" stroke="#9c9986" d="m632.5 242 31.5.5-3.5 1.5-2-1-3 1h-2l-8-1-15 2h-2l-11 1h-2l-12 1h-2l-35 3h-2l-15 1-5-1-3.5 1.5-.5 1.5-10-1-5 2h-2l-12 2-10.5-1.5 14.5-1.5 1.5.5.5-1.5 51-5h2l22-2h2zm-341 2 .5 9.5v2l-1 4 1 2-1 7 3-1-4.5 2.5.5-1.5-1-4-.5-2.5-6 1v-3l3 1 4.5-1.5q-2.4-10.9 1.5-15.5Zm404 2 1 2-1.5-.5 1.5 2.5 1.5-.5 1.5 4.5 16.5.5-16.5.5h-2l-2.5-.5 3-1-2.5-3.5-1.5.5v-2zm-81 4 17 1 2-1 .5 1.5-4.5.5-5-1h-2l-4 1zm21 0 4 1h2l11.5.5.5 1.5 1.5.5-2.5.5-1-2-16.5-.5z"/><path fill="#9c9986" stroke="#9c9986" d="m565.5 251 3 1 2-1 3 1 3-1h2l10.5.5-8.5 1.5h-37v-1zm46 2 16.5.5-16.5.5zm107 0 1 2 6.5.5-5.5 1.5zm-279 1 30.5.5-30.5.5zm131 1 13.5.5-13.5.5zm45 0 24.5.5-24.5.5zm-306 1 7 1h2l6-1-1 2h-13zm288 0 9.5 1.5-6.5.5h-2l-1.5-.5zm-198 2 11.5.5-11.5.5zm124 0 2 1 2-1 2 1 2-1 7.5 1.5-15.5.5zm104 0 15.5.5-15.5.5z"/><path fill="#9c9986" stroke="#9c9986" d="m370.5 259 5 1h2l7-1 3 1 2-1 5 2 2-1 2 1 3-1 17 2 2-1 2 1h2l3-1 30 1h2l8-1 3 1h4l20-2 9 1q2.6-3.4 10-2h2l6.5.5-1.5 1.5-33 2h-2l-17 1-2-1-3 1-2-1-34 1h-2l-13-1-6 7-2.5.5-1 3-.5 1.5-1.5.5-10.5 12.5-1.5.5-6.5 8.5-.5-1.5 3.5-4.5 1.5-.5 8.5-12.5 1.5.5.5-1.5 1.5-.5.5-1.5 3.5-2.5q-2.7-1.7 1.5-3.5l1.5-.5.5-1.5 3.5-2.5-.5-1.5q-11.3-2.7-14 3 3.2-2 0-4h-4L379 273.5l-.5 1.5-1.5.5-4.5 5.5-5.5 4.5-.5 1.5-3.5 2.5-4.5 5.5-.5-1.5 3.5-4.5 2.5-1.5.5-1.5 1.5-.5.5-1.5 2.5-1.5.5-1.5 7.5-6.5.5-1.5 11.5-10.5-7.5-.5-9 10-7.5 6.5-.5 1.5-1.5.5-.5 1.5-1.5.5-4.5 6.5-1.5.5-.5 1.5-1.5.5-.5 1.5-1.5.5-.5 1.5-1.5.5-.5 1.5-1.5.5-.5 1.5-1.5-.5 5.5-8.5 4.5-2.5 24-26-1.5-.5-12.5 11.5-8.5 9.5-1.5.5-4.5 5.5-1.5-.5 3-2 23-24-7.5-.5-9 10-2.5.5 1 1-18 18-.5 1.5-1.5.5-16.5 18.5-1.5.5-10.5 11.5-1.5-.5.5-9.5 1 8 9-11 1.5-.5 6.5-8.5 1.5-.5.5-1.5 1.5-.5.5-1.5 1.5-.5.5-1.5 8.5-7.5 19.5-21.5 1.5-.5 1.5-2.5 2.5-1.5.5-1.5z"/><path fill="#9c9986" stroke="#9c9986" d="m468.5 259 15.5.5-15.5.5zm251 0 1.5 17.5-2 1zm-394 1 2.5 1.5-20.5 21.5-.5-1.5v-2l4-7-4 2-1-2 2-1-2-4v-2l.5-4.5 1 2 1-2 1.5.5-1 2 2-1 .5-1.5 8.5.5-9 10 10-9 .5-1.5 2.5.5-5 4-8 10 1.5.5 13.5-14.5zm4 0 2 1 17-1h2l5.5.5-7 3-36.5 39.5-1.5.5-3.5 4.5-.5-3.5 3-1 39-42-3.5-.5-5 6-1.5.5-8.5 10.5-5.5 4.5-.5 1.5-1.5.5-15.5 18.5-.5-6.5h1l.5 2.5 34.5-37.5-1.5-.5-4 5 2.5-3.5-.5-1.5-6 7-2.5 1.5-.5 1.5-3.5 2.5-.5 1.5-1.5.5-.5 1.5-1.5.5-8.5 10.5-1.5.5-.5 1.5-1.5.5-3.5 4.5-.5-2.5 2-1 10.5-12.5 1.5-.5 16-17-4.5-.5q-15 12.5-25 30l-.5-5.5 23-24zm29 0 2.5.5-8 6-43.5 46.5-.5-1.5 45.5-48.5zm326 0 2.5 1.5 4.5 9.5 1.5.5-.5 1.5 1.5.5 4 8-1.5.5zm-71 1 16.5.5-16.5.5zm89 1 3 4 2-3 .5 2.5 1 2-3-1 1 2-.5 1.5 1.5.5-.5 1.5 1.5.5 5.5 10.5 1-13 .5 12.5v2l-.5 2.5-8-14-1 2zm-310 5 1.5.5-7.5 8.5-30 29 .5-1.5 7.5-8.5 5.5-4.5 10.5-11.5 1.5-.5 2.5-3.5 3.5-2.5zm-91 1 1.5 3.5-2.5 7.5-.5-1.5v-4z"/><path fill="#9c9986" stroke="#9c9986" d="m699.5 270 7 16 1-10 2.5 17.5v2l2 11h-1l-2-11zm-406 3 2.5.5 1 22v2l-.5 24.5-1.5-16.5v-2l1-6-1-6 1-6h-1l-.5 3.5-1.5-11.5 1-2zm-11 3 1 8 4.5-3.5-.5-2.5-1.5-.5 3.5-1.5q4.8 22.2 2.5 51.5h-1l-.5-16.5-3 40-1.5-2.5 1-3h-1l-.5 1.5-.5-4.5 1-3h-2l1-3-1-6 1.5-5.5.5 8.5-1 2 2.5 1.5.5-26.5-2.5 1.5-1.5-.5-.5-4.5-1 4-.5-11.5 1.5-.5.5 3.5-1 3h1l.5-1.5 1 7 1-2 1.5-.5 1-3-1-2 1-2-1-3 1-6-1-4v-2l-.5-3.5-4 2-1.5-.5 1 2-1.5 5.5-1-6-8.5 4.5 2 1-.5 1.5q-7.5 2-9.5-1.5l.5-1.5 1 2 3.5-.5-.5-1.5-2.5-.5 3.5-.5 1.5.5.5-1.5 9.5-3.5 1-4-1-3zm20 6 .5 8.5-3.5 4.5-.5-1.5 2-3-1-4zm130 1-3.5 4.5-1.5 2.5-.5-1.5zm290 3 .5 3.5v2l-.5 2.5-1.5-.5 1-2v-2zm5 3 .5 1.5-2 11 1 2-1.5 2.5-.5-4.5zm-302 2-2.5 3.5-.5 1.5-3.5 2.5-1.5 2.5.5-1.5zm-123 2 .5 4.5v2l-1 2v2l.5 1.5 1.5-.5-1 5q1.9 11.9-2 18l.5 3.5-2-6-1 5-.5-14.5 1-2-1-4 1-2v-2l.5-7.5 1 2zm42 0-1.5 2.5-.5 1.5-1.5.5-2.5 3.5-.5-1.5zm303 0 1.5.5 5.5 7.5 1.5.5-.5 1.5-2.5-1.5-1.5-2.5-2.5-1.5.5-1.5-1.5-.5z"/><path fill="#9c9986" stroke="#9c9986" d="m721.5 295 1.5.5 1.5 11.5 1.5.5-1 4v2l2 14v4l-1 11 1 14-1.5.5-.5-1.5 1-10-1-3-1-10 1-4-2.5-23.5-1.5-.5v-2zm-5 1 .5 17.5h-1zm-336 1-.5 1.5-3.5 5.5-2.5 1.5-7.5 9.5-1.5-.5 12.5-14.5 1.5-.5zm-37 2 1.5 2.5-2 1-.5 1.5-1.5.5-4.5 5.5-2.5 1.5 1 1-11.5 11.5-2.5.5 2 1-3 2 .5-1.5-1.5.5-.5 1.5-1.5.5-1 2-1 3-3.5 4.5-2.5 1.5v2l1.5 4.5 4.5-3.5-5 7 1 2-.5 2.5-1.5.5.5 1.5 1.5-.5v2l.5 9.5 15-18 .5 2.5-.5 16.5-1-16-14.5 17.5v9l1.5 8.5 8-9-3.5 4.5-5 6-1 17 1 4-1 2v2l1 9-1 3 1 3-2 10 1 5-2 1 1-53-1-3 1-2-1-7v-2l-1-14 1-2-1-2v-2l-.5-14.5-1 23-.5-22.5 1-3v-2l-1-5 1-2v-2l.5-3.5 2 9 3.5-2.5 22.5-25.5 1.5-.5.5-1.5 1.5-.5zm393 0 4.5 2.5 2 4h-1l-2.5-3.5zm-174 1 5.5 1.5-.5 6.5-1-7q-5 1-4-1Z"/><path fill="#9c9986" stroke="#9c9986" d="m350.5 302-7.5 8.5-8.5 10.5-1.5.5-2.5 3.5-.5-1.5 2-1 1.5-3.5 1.5-.5 3.5-4.5 1.5-.5 3.5-5.5 1.5-.5 3.5-4.5zm-16 1 .5 1.5-14.5 15.5.5-1.5zm18 5L341 320.5l-.5 1.5-3.5 2.5-.5 1.5-1.5-.5 8.5-9.5zm119 2h2l2.5 1.5-2.5 4.5-16.5-.5 16.5-.5 1.5-1.5-.5-2.5-1.5.5-.5 1.5zm249 2 .5 10.5h-1zm-8 1 2 7 1-2 .5 4.5-1.5 6.5zm-428 1 .5 6.5-1 3-.5 5.5-.5-9.5v-2zm-4 3-5 6zm72 2 1.5.5-5.5 6.5-1.5-.5zm-56 5 .5 12.5h-1zm238 0 1.5.5-.5 2.5-7 5 2.5-3.5-.5-1.5-9 5 1-2zm13 2 2.5.5-2.5 4.5-2.5-3.5 1.5.5 1.5-.5zm-201 1-4.5 5.5-.5 1.5-1.5-.5zm326 0 3 1 7-1h2l2.5.5-3.5 2.5-2.5-1.5-.5 1.5q-2.8 4.7-12 3v-1l8.5-.5-13.5-.5-3-1-1.5.5-.5 1.5-13 1-.5-1.5 13-1-15.5-.5.5 1.5-.5 1.5-16.5-.5 11-1-11.5-1.5h-2l-4.5-.5q29.7 1.7 53.5-2.5Zm-241 3 1.5.5-2.5 3.5-12.5-.5 13-1zm-133 1 1 21 1.5-2.5-1-7v-2l1.5-8.5.5 5.5v2l1 27-1.5.5-1-15-.5 17.5h1l.5-1.5 1.5 5.5-1 2 1 13-1 2 2 11v2l-1.5 32.5-2.5-1.5 2-43h-2l-1-4 1.5-.5 1 2 .5-2.5v-2l-1-3 1-2-2-1-2-6v-2l1-12zm29 0 1.5.5-.5 2.5-1-2-1 7-.5-6.5zm210 1 26.5 1.5-25.5.5h-2l-10.5-.5zm32 0 11.5.5-11.5.5zm130 0 .5 1.5-4 2 1 18-1.5.5-.5-1.5v-17l2.5-2.5zm-377 1-1.5 2.5-.5 1.5-1.5.5-.5 1.5-1.5.5-.5 1.5-.5-1.5zm30 0 26.5.5-26.5.5zm82 0 21.5.5-21.5.5zm-49 1 16.5.5-16.5.5zm196 0 7.5.5-1 3 1 7h-1l-.5-6.5-34.5-1.5 9.5-1.5h2l9 1 2-1 12 2 .5-1.5-6.5-.5zm10 0 6.5.5-4 1 14.5.5v-2l1.5.5.5 1.5 13.5-.5-10-1 15.5-.5h2l11.5 2.5-.5 3.5-1-4-47.5 2.5-.5 31.5-.5-25.5-1.5-6.5-1 2-.5-1.5 1.5-2.5 1.5-.5zm-162 1 2.5 1.5 1 11v2l-.5 7.5-2.5-13.5 1-2-1.5-3.5-46.5 2.5 2 29v2l.5 24.5 11.5.5-14.5 2.5-.5-11.5h1l.5 3.5.5-6.5-2-3 1-3-1-3 1-4-1-2 1-2-1-10 1-2-1-3 1-2-1-12 26.5-1.5h2l6 1 13.5-1.5zm6 0 24.5.5-25 1 9 1-2.5 1.5-3-1-3.5.5-.5 2.5-.5-4.5zm51 0 36.5.5-34 1 1 7v2l-1 10v2l.5 1.5 4-3 .5 1.5-5 3-1.5 13.5-.5-13.5 2-10-1.5-12.5-1 13zm164 0 21.5.5-21.5.5z"/><path fill="#9c9986" stroke="#9c9986" d="m698.5 335 .5 4.5v2l-1.5 35.5-1.5-14.5v-4l.5-3.5 1.5.5-1-18zm-330 1 10.5.5-5 1 5 1 2 14-1 4 1 8-1.5 34.5-2-1-9 1v-1l10.5-2.5-1-9v-2l-.5-44.5-19-1-2 1-10-2-3 1-6-1-1 2-4.5 3.5-1.5 2.5-1.5-8.5h1l.5 6.5 6-7 8 1 6-1h2l14 1zm18 0 17.5.5-17.5.5zm98 0 .5 2.5-.5 10.5-1-11-3 1-.5-1.5zm55 0 1 8 5-2 1 2-1.5-.5-3.5 7.5-2.5-.5 1-5zm-215 1 .5 1.5-4.5 5.5-3.5 2.5-4.5 5.5.5-1.5 7.5-9.5 3.5-2.5zm133 0 13 1 3-1 1 2-20.5-.5zm-165 2 .5 24.5h-1zm226 0 .5 1.5-3 4 .5 1.5-2-1-3 1-1.5-.5.5-1.5 2 1zm14 1 .5 1.5-13.5 6.5-1-4q2 3 4-2l1.5.5-.5 1.5zm113 2 .5 13.5h-1zm-137 1 .5 1.5-2.5 3.5-1.5.5-.5 1.5-9 7-1.5-2.5 9.5-8.5 2 1zm28 3-2 3-4 2 1-2zm187 1 1.5 5.5-1.5 4.5-.5-3.5 1-3h-1l-.5 1.5-.5-2.5zm-175 2 1.5.5-3.5 5.5-2 1 3-5-4 2-.5-1.5zm43 1 .5 24.5h-1zm-157 1 1.5 1.5v11h-1l-1-10z"/><path fill="#9c9986" stroke="#9c9986" d="m357.5 353 1 24 4.5 1.5-1.5-.5-4.5-1.5zm167 0 5 6zm121 4 1.5.5 1 4-1 4 2 12-1 2 1.5 13.5 9.5.5-9.5.5h-2l-1.5-.5 1-11zm-160 1 .5 10.5h-1l-.5-8.5-1 2-.5-2.5zm-133 3 1 2-1-1-4 4-2.5-1.5.5-1.5 1 2zm237 0 .5 15.5h-1zm-60 1 8.5 6.5-.5 3.5-1-2-1 2-2.5-3.5 3-1-2.5-1.5-3 2-2-1-.5 2.5h2l-2.5.5-6.5 2.5 1.5 4.5 3-1-1 2-3.5.5-.5 4.5-8.5-9.5 4-3v2l.5 1.5 2.5-4.5-.5-1.5 1.5.5.5-1.5 2-1v2l2.5-1.5-.5-1.5 3 1 .5-1.5-.5-1.5zm-28 1 1 4 1-1 4.5 4.5-5-3 5 8-1 3-.5 1.5q-6.1-3.9-6.5-13.5zm193 2 .5 22.5h-1zm-365 1 .5 2.5-.5 9.5-1.5-.5q-2.5-9 1.5-11.5Zm388 0 .5 11.5h-1zm-411 1 .5 14.5h-1zm420 0 1 3 1-3 .5 2.5-1.5 3.5-2.5-.5 1-3zm-245 1 1.5.5-3.5 5.5-1-2-1.5.5 4-3zm-190 1 .5 22.5h-1z"/><path fill="#9c9986" stroke="#9c9986" d="m524.5 372 3 1h2l3.5 1.5 1 2-3.5-2.5-1.5.5 5 5-1.5 1.5v-2zm22 1 5 6zm-4 1 2.5 1.5-2 1-1 3 .5 1.5-.5-2.5zm-256 2 2.5 2.5 1 16-1 2 1 2v2l.5 4.5 1-12 .5 11.5v2l-.5 1.5-1.5-.5 1 2-1 2 1 2-1 2 1 4-2 1 2 1-1 2 2 1-1 28 1 7-1.5 14.5-1.5.5 3 2-1.5-.5-2.5-1.5 1-15-1-2v-2l1-2-2-22v-2l-1-23v-2l1-10-1-11h1l.5 3.5.5-5.5-2-1 2-1-.5-1.5-1.5-.5zm212 0 6.5 7.5-2 6 3 1 3 5-2.5.5-1-4-.5 2.5-.5 1.5-10 1v-1l8.5-.5-2-4 1-2-2-4 1-2-1.5-4.5-2.5-.5zm-13 1 .5 2.5-6.5 7.5 2.5-.5.5-1.5.5 1.5-2.5 3.5-1-2-1.5.5-.5-1.5-2 3-.5-1.5 10-9zm42 0 4 6 2-1-1 2-3-1-2.5-.5.5-1.5 2 1-1.5-2.5-.5-1.5-1.5.5zm199 0 1.5 37.5v2l-1 10 1 9v2l-1 4 1 3-2 10 1 7v2l-1.5 16.5-2.5-14.5h1l.5 3.5 1.5-10.5-1-5 1-5-1-2 2-14-2-54zm-215 1 2 3 1.5.5 1 3-2-1-.5-1.5-1 2-1.5-2.5v-2zm81 0 1.5.5-1 2 1 2-1 3 1 2v2l-1.5 4.5zm105 0 1.5.5 1 12-.5 2.5-2.5-.5 1-2zm-369 1 1.5.5-1 4 1 2-1 2 1 2v13l-1.5 1.5-.5-4.5-1-2 1-6v-2zm108 0 1.5 11.5-1 4 1 3-1.5-.5-1.5-.5zm86 4 6.5 4.5-4.5-3.5-1.5.5 3.5 4.5zm-89 1 .5 12.5-4.5 1.5-31.5-1.5 3.5-1.5h25l6 1zm84 0 5 6 6.5 5.5 1.5 4.5 1-2 .5 5.5-6-5-3-4-.5-2.5-2.5-.5-1.5-4.5-1.5.5zm-31 1 .5 11.5h-1zm158 0 .5 8.5-5.5.5v-1l4.5-.5z"/><path fill="#9c9986" stroke="#9c9986" d="m494.5 388-1 3 3-1-1 2-3.5-1.5zm-200 1 1.5 3.5v2l-1 5 1 13v2l-1.5 11.5-.5-13.5 1-2-1-3v-2l1-11zm255 0-2 4 5-3 .5 1.5-3 1 2 1-1.5 3.5-1.5.5-.5 1.5-2.5-1.5.5-7.5zm145 0 .5 2.5-1.5 1.5h-21v-1l21.5-.5zm-183 2 3.5 2.5h-4l1 2-1.5.5-.5-3.5zm221 1 1.5.5 1 11h-1zm-142 1-1 2-25.5-.5zm26 0 2.5 1.5-12.5 1.5v-1l9.5-.5zm56 1 8.5 1.5-10.5.5v-1zm25 0 2.5.5-1 25 2 5-1.5.5-1.5-2.5v-27zm-184 1 8.5 5.5-2 1 1.5 6.5 1.5-.5-2-5h1l.5 1.5 1-2q1.8 6.3 9.5 6.5l-2 1 .5 2.5 2.5 1.5 1 2v2l4.5 16.5 1-2 .5 3.5v2l-1 2 1 3-.5 9.5-.5-7.5-5.5-17.5-.5 2.5v5l5 13-2-1-7.5-23.5-1 3-2.5-1.5 1-3-3-1-2-9 .5-1.5-1.5.5 1 3-1.5 2.5-.5-1.5-.5-2.5-1 2-2.5-1.5-3.5-5.5-1.5-.5 1-2-2-4 2-1 .5-1.5 1 3 1.5-.5-.5-4.5zm4.5 9-1 3h-1l-1 3h3l1 1-1-2 1-2zm10 3v7l-1-5-2 6h4l1 1zm36.5-11h25l1.5 1.5-.5 10.5-1-11h-25zm82 0 2.5.5-1 23v4l1 4v2l-1 13 .5 1.5-1.5-6.5 1-5-1-15 1-2-2-5h1l.5 3.5.5-6.5zm-313 1 20.5.5-20.5.5zm85 1q10.3-1.2 15.5 2.5l-.5 14.5-1-15-14-1zm79 0 11.5.5-1.5 6.5-1.5-4.5.5-1.5h-9zm-200 1 .5 21.5h-1zm50 0h10l5.5 2.5-7.5.5v-1l2.5-.5-10.5-.5zm56 0 5 1 4.5.5-6.5.5h-2l-1.5-.5zm32 0 12.5.5-11 1 1 5v2l1 10-1 4 1 4v2q1.9 14.4-1.5 23.5l-1.5-22.5v-2l1-17h-1l-.5 11.5zm14 0 24.5.5-24.5.5zm267 0 .5 25.5h-1z"/><path fill="#9c9986" stroke="#9c9986" d="m365.5 400 2 1 2-1h2l8.5.5-.5 1.5-2-1-12 2q-3-1.5 0-3Zm18 0h2l5.5.5-6 1-1 2 1 4-1 3-.5 3.5-1.5-3.5v-2q-1.7-6.7 1.5-8.5Zm238 1 2.5.5-4 2-.5 2.5-1.5.5 2.5 1.5 1-3 4 5 1.5-.5-1-2 3-2-4-3 1.5-.5 2.5 1.5.5 1.5q2.2-3.2 4.5 2.5l-.5 1.5-2-1 1.5 2.5-.5 1.5-1.5.5.5 1.5-5-3 3 4 1.5.5-1.5.5-2-1h-2l-5.5-2.5-.5-2.5-1.5.5-.5-2.5-2 3-2-3 2.5 1.5zm-124 1 .5 1.5-3.5 4.5-3-1-1 2-.5-1.5 3.5-2.5 1.5.5zm224 1 .5 20.5h-1zm-413 3 .5 17.5h-1zm19 0 1 22 1-2 1.5.5-.5 1.5-1.5.5 2 1-2 1 1 8h-1l-.5-2.5-.5 4.5h2l-2 3 1.5 2.5-3.5-1.5z"/><path fill="#9c9986" stroke="#9c9986" d="m330.5 406 .5 12.5-1 3 1 3-1.5.5-.5-14.5zm2 0 .5 22.5h-1zm261 1 .5 15.5h-1zm-48 2 2.5 1.5-.5 1.5 1.5.5 15 27-2-1-.5-2.5-1 2-1.5-.5.5-1.5-2.5-1.5 1-2-2-1-1-2 .5-1.5-1.5-.5-8-16 .5-1.5zm-241 2 .5 13.5h-1zm313 2 6.5 4.5-1.5-.5-4-2v2zm-128 1 .5 23.5h-1zm-106 1 .5 11.5h-1zm313 0 .5 12.5h-1zm-209 1 .5 25.5h-1zm22 1 .5 24.5h-1zm82 0 .5 11.5h-1zm23 0 6.5 4.5.5 1.5 5.5 2.5-1.5 4.5-1-2-.5 2.5 1 2-2.5 6.5-3 1-2.5-.5 3-1 1-2-2.5-1.5-2 3-1.5-2.5 5-3 1-4-1.5-.5-2 4-.5-1.5 1.5-3.5 1.5-.5-4-3-.5-2.5-2.5-.5.5-1.5 1 2q3.2-2 0-4Zm11 1 3.5 1.5.5 1.5 1.5.5-.5 1.5-5.5-3.5zm-83 2 .5 16.5h-1zm123 4 .5 15.5h-1zm-253 4 .5 2.5-.5 9.5-1-10-1.5.5zm-107 2 1.5 19.5v2l-1 10v2l.5 4.5 1.5-.5-.5 9.5-1-4-.5 9.5 1 5-1 3 1 5v2l1 21-1 3-1 2 1 2-1 2 1 3-1 4 1 9-1 3 1 4v2l-1.5 12.5-1.5-2.5-2-26 1-4-1-5v-2l1-2-1-4h1l.5 3.5 1.5-6.5-1-3 1-5-1-41v-2l1-22v-2zm219 2 .5 10.5-2.5 1.5-1.5-2.5h1l.5 1.5 1.5-.5zm197 0 .5 13.5h-1zm-22 1 1.5.5v4l-1 5 .5 1.5-2.5.5.5 4.5 1.5-2.5-.5-1.5 1.5 2.5-1.5 9.5-2.5-12.5 3-6-1-2v-2zm-398 4 .5 18.5h-1zm242 1 2.5 10.5-1 2 2 4-1.5 1.5q-5.1-5.6-2-18Zm174 2 1.5 14.5-2 11 1 3-2 36 1 11v2l1 20v2l-1 3q3.3 1.3 2 7v2l2 33h-1l-2-25v-2l-1-12-1-3 1-12-2-3v-22l1-5-1-23v-4l2-18-1-3v-2zm-145 1 5.5 4.5.5-2.5 2.5-.5-.5-1.5 1.5.5-2.5 8.5-6.5-4.5zm55 0 3.5 2.5.5 2.5 2.5 1.5-1.5-.5-2.5-.5-2-3 .5-1.5zm-28 1 10.5.5-10.5.5zm-301 1 .5 47.5-1 3 2 5-1.5-.5-1.5-.5zm137 1 .5 13.5h-1zm185 0 4.5 1.5-13 1 4 3-2.5.5-1-2-1.5.5v-2l.5-1.5zm-310 2 .5 12.5h-1zm385 0 .5 10.5-3.5.5-5-1-3 2h-35l-2-1-4 2 1-2 3.5-1.5.5-2.5 1 4 35.5-.5-34-1 2.5-1.5h2l2 1 13-1h2l3 1 9-1 10 2z"/><path fill="#9c9986" stroke="#9c9986" d="m547.5 448 1.5.5 2.5 11.5 1.5-.5-1-7h1l2 6-.5 1.5 7.5.5-7.5.5h-2l-9.5-.5 7-1q-4.3-4.2-2.5-11.5Zm36 0 1 6 2.5-1.5.5-2.5 5 7 .5-2.5-2-1 1.5-.5 6 4 2-1 4.5 6.5-2.5-1.5-3.5-.5 2-1-6.5-2.5v2l-9-3-2 1zm-254 2 1 14 1.5.5-.5 2.5-1.5-.5-.5 5.5-1.5-.5-.5 3.5-.5-14.5 2-1-1-3zm4 1 .5 12.5h-1zm157 1 1 8 2.5.5-3.5.5zm-107 1 1.5 8.5-2.5 1.5.5-1.5zm135 0 1.5 3.5-2.5 3.5 7-1-1 2-8.5-.5-.5-1.5-3 2 .5-1.5 3.5-4.5 3 1 .5-1.5zm-17 3 1.5 3.5-.5 1.5h-2l-2-1-3 1v-1l2.5-.5 1.5-2.5zm30 0 1.5 2.5-.5 1.5 8.5.5-12.5.5 1-2 2.5-.5zm-237 1 .5 19.5h-1zm341 0 2.5 6.5-1 2h2l-2 3 1 2-1.5.5-1.5-3.5z"/><path fill="#9c9986" stroke="#9c9986" d="m604.5 458 2.5 1.5 2.5 8.5 2-1 1 3 2.5-.5-7-10 5 4 3 6-4.5 3.5-2-1-3.5-.5 1.5 3.5 2-1 3 4 3.5 1.5 2.5 3.5 4.5 3.5-1.5.5-9-8-.5 1.5 4 6-1.5-.5-1.5-.5-3.5-6.5-.5 1.5 1 2h-1l-3.5-6.5-1.5.5 1-3-2-5 .5-2.5 9 6-1-2-5.5-4.5q2.8-2.5-1-5zm95 0 .5 12.5h-1zm-52 1 .5 2.5-.5 9.5zm4 0 13.5.5-13.5.5zm25 0 17.5.5-17.5.5zm-336 2 29 2 2-1v1l-10 1h-2l-11-1v1l4.5.5-6.5.5v-2l-10 1 1-2zm98 0 11.5.5-11.5.5zm-45 1 28.5.5-28.5.5zm99 0 33 1h2l1.5.5-4 3 1.5 4.5 5-1 3.5 2.5-1.5.5-1.5-.5-.5 1.5-2.5.5 2 1-2.5.5-2.5 1.5.5 1.5-4-1-5 4 1-3-2.5.5-4.5 6.5-2.5-.5 2-1-1.5-4.5-2-1-1.5.5 1-4-2 1-.5 1.5-2.5.5-10.5 12.5-.5-1.5 5.5-6.5-5 3-.5-3.5 1-2-1.5-5.5-1.5 4.5.5 1.5-1.5-.5 1-6-1-2 4 3 .5 2.5 2-3 5.5-1.5-2-3 1.5-2.5.5 1.5-1 2 2-1 2.5-3.5 1.5 2.5-.5 1.5 1.5-.5.5-3.5 1 4 1.5-.5 3.5-4.5 4-2 1 2 3.5-2.5-28.5-.5zm33.5 11-2 2-2-1-1 3-2 1 1 1 5-2v-1l2-1v-1zm4.5-11q9-2.5 11.5 1.5l-.5 1.5-1-2h-10zm13 0 14.5.5-4 1 2 7h-1l-2.5-7.5h-9z"/><path fill="#9c9986" stroke="#9c9986" d="m488.5 463 1 6 1-2 .5 1.5-3 2zm-95 1 24.5.5-24.5.5zm150 0 1 4 4.5-3.5-3 5 7 2-.5 1.5-1-2-2.5.5 1 2-3 4 5-3q-8.5 4-10 15l1.5 5.5 5-7q3 4.7-4.5 9.5l-.5 1.5-2.5-12.5-2.5-3.5-1.5-.5 1.5-.5 4.5 1.5-.5-1.5-1.5-.5 1-3-1.5-5.5-1.5.5-.5 2.5-2-1-4 5 1.5.5-.5 1.5-1.5-.5-.5-1.5-2 1-1-2 7.5-5.5 1.5-5.5 1 2 2-1 2 8 1.5-5.5zm3.5 8v2l-3 2 1 2 4-5zm-183.5-7 10.5.5-10.5.5zm19 0 2.5.5-1 16 2 3h-1l-.5-1.5-.5 5.5h1l.5-2.5.5 5.5v2l-1 5 1 3-1 9 1 11-1 2 1 2-1.5.5h-2l-24.5-.5 25-1-1-25 1-8-1-8v-2l1-15zm257 2 .5 10.5h-1l-.5-1.5-1 3-.5-2.5zm-44 1 .5 12.5-2 1 1-3v-2zm54 1 .5 21.5-1.5.5-.5-3.5v-2l-1-10h1l.5 8.5zm48 5 .5 26.5h-1zm-370 2 1.5 4.5-.5 1.5 1.5-.5.5-2.5 1.5 9.5v2l-.5 1.5-1.5.5 2 1-1 14 2 4 1 14-1 3 1 3-2 1 1 2-.5 1.5 1.5.5-2.5.5-.5-16.5v-2l-1.5-19.5-1 2-1-3-.5 3.5v2l1 10v2l-1 4v2l-.5 4.5-.5-37.5v-2zm-36 3 .5 20.5h-1zm132 1 .5 1.5-6.5 4.5 3-4 2.5-.5zm100 1 3.5 2.5-2.5 6.5-3.5-1.5-1-2 5-4-1.5-.5-3 2 1-2zm62 0 2.5 8.5h-1zm15 0 .5 10.5-5 4q6.6-2.9 4.5-14.5Zm125 0 .5 15.5h-1zm-374 1 .5 18.5h-1zm254 0 5.5 2.5 4 9-2-1-1.5-2.5-1.5 5.5h1l.5-2.5 1.5 3.5-2 2 2.5 3.5-1.5-.5.5 3.5 1-2 3 4-3-2-1.5 5.5 5 3-2.5 1.5-2.5-1.5 1.5 4.5 8.5 3.5-4.5.5-5-3-.5 1.5 6 4-1.5.5-3-2-2 1-4-3-2.5-.5 1-2-2-7h1l.5 1.5 1.5-5.5-2-1 1-13zm-311 1 .5 16.5h-1z"/><path fill="#9c9986" stroke="#9c9986" d="m583.5 483 5 16 1-3 1 2 2.5-1.5-.5 1.5-19 9-.5-1.5 1.5.5 5.5-2.5-4-1 5-1-2-12h1l3.5 11.5 2.5-1.5-4-15zm-275 1 .5 16.5h-1zm194 0-2.5 3.5-1 3 2 4-5 4-1 2 1.5.5 2-3 1.5-.5.5-1.5 3.5-2.5-1-2h1l.5 1.5.5-3.5h-2l3-2v19l1.5 1.5 2.5-1.5.5-7.5 2.5-.5-.5-2.5-2.5 1.5 2-4-2-1 2-4-2-1 1.5-.5 2 1 2-3 3 6 1.5.5-2.5 1.5v-2l-4.5 3.5.5 1.5 6-3-2 3-2.5.5 2 1-.5 1.5-2-1 1.5 2.5-1 3 3 2 .5 1.5 3.5 1.5-4 5v2l-1.5 3.5-1.5.5-.5 1.5-1.5-.5-.5-1.5-4 3-1-2-4.5 3.5 3.5.5 1.5-.5-5.5 1.5-.5-1.5 5-6-.5-2.5-3-1-1 2-2.5 1.5-.5 1.5-1-2 1.5-.5-.5-1.5 2.5-.5-4-3 1-2-2-1-.5 3.5-1-2-2 3q-3-1.5 0-3l1.5-.5-3-1 .5-9.5 2.5-1.5-.5-1.5-2.5 1.5.5-3.5q1.8 2.8 3.5-1.5l-1-2 4-2-.5-1.5-1.5-.5zm1.5 13-1 3-1-1-8 9 3-1 1-2 2 1 1-2 4-3zm-50.5-10 .5 18.5h-1zm-83 1 1 6 3.5 1.5-1.5-.5-3.5-1.5zm161 0 18.5 84.5-1 4h1l.5-1.5 20.5 97.5-.5 1.5 1.5.5 11 60 16 71 1 3 8 36-3-2-8-34-1-3-2-10v-2l-22-109 .5-1.5-1.5-.5 1-3-2-1-11-57-7-25-6-38-16-69zm3 0 2 5 2-4 1.5 7.5h-1l-.5-2.5-1.5.5 1.5 9.5 1.5-.5-1 5 2-1 .5-5.5 2.5 14.5-2 1 1.5 3.5 1-3 1.5 8.5h-1l-.5-3.5-1.5.5 1 2-1 2 4 2-1 3 .5 1.5-1.5.5 3 1-.5 3.5-1.5.5 3 2 1 7-2 1 3 2-.5 2.5-1-3-1.5.5 2.5 4.5 1.5-.5-2 7 1 4h-1l-4-21h1l.5 1.5.5-3.5-1.5.5-1.5-.5zm165 1 1.5 6.5-1.5 20.5zm-398 3 .5 12.5h-1zm169 0-1 2-3.5.5.5 1.5 3.5.5-.5 2.5-1-2-3.5-1.5 1.5-2.5z"/><path fill="#9c9986" stroke="#9c9986" d="m488.5 492 1.5 3.5v2l-.5 3.5-1.5-.5 1-3-2 1-2 4 1.5.5 3-1 1.5 5.5v2l-.5 7.5-1.5.5-3.5 4.5.5-3.5 1.5-2.5 2.5-1.5-.5-4.5-4.5 3.5-2 3 .5 1.5-2.5-.5 9-12h-1l-.5 1.5-2 1-2-3-3 1-1.5-2.5zm35 3 2.5 1.5 2 5-1.5-.5-1.5.5 1.5 2.5-3-1v1l1.5.5-2.5.5-2.5-3.5 2.5-.5 2.5-.5 1-2-1.5-.5-1 2-3.5-.5zm77 1 1.5.5-1 3-2.5 4.5-1-4-2 3 1.5.5-.5 1.5-2 1-1.5-.5-.5 1.5-5 1-.5-1.5.5-2.5q2 4 4 0l3.5-2.5-.5-1.5 1.5.5 1.5-2.5zm-164 1 1.5 15.5-1 3 1 2-1 3 1 4-2.5.5-.5-23.5v-2zm-66 1 .5 11.5h-1zm-71 5 .5 2.5-.5 23.5-1.5-24.5zm427 2 5.5 62.5-1 5 .5 1.5-1.5-.5-2-21v-4l-3-36zm-434 2 .5 16.5h-1zm236 0 1.5.5 1 5-1.5 2.5 2.5.5 2 8-5.5.5-2-6-2.5 4.5h2l-4.5 2.5-10.5-.5 1-2-.5-1.5 1 3q8.3 2.3 10.5-1.5l.5-3.5 1.5-.5-.5-1.5-3.5 2.5 1 2-2-1 1.5-3.5 2.5-1.5-1-2zm19 1h12l1.5 1.5-.5 1.5-3 1-1-3-1 3h-2l-7.5-.5.5-1.5 6.5-.5-5.5-.5zm25 0 3 1 2-1 .5 1.5-.5 2.5-2-1v2l-3.5-2.5zm-285 1 1.5 3.5-1 6 1 3-1 14v2l-.5 7.5-1.5-4.5 1-2-1-4 1-5-1-2zm306 0 2.5 1.5 2 9v2l2 5-2.5 3.5-5.5-19.5zm-4 2 1.5.5 5 20-1.5 2.5-1.5-.5v-8zm-5 1 2.5 1.5-1 5 2 1 3 15-3.5 1.5.5-1.5-1-2v-6l-.5-1.5-1.5-.5 3-1-3-1-2-6v-2zm113 0 .5 8.5-5.5 1.5-3-1-2 1-2-1-30 1v-1l25.5-.5-14.5-1.5-6 1 1-2 11 1h2l22.5-.5zm-310 1 1 12 2.5.5-2.5.5-1.5-1.5zm246 1-2 3-6 1-3.5-1.5.5-1.5 9 1zm-337 3 .5 15.5h-1zm343 2 2.5.5-1 7 .5 1.5-5.5-.5 4-1 1-4-2-1zm-141 1 2.5 1.5v2l-.5 1.5-7.5-.5 6-1zm132 1 3.5.5-10.5 1.5v-1zm91 1 .5 17.5h-1zm-393 1 .5 10.5-1.5 11.5-.5-12.5zm224 0 13.5.5-14.5 1.5zm31 0-1 2-9.5-.5zm76 0 17.5.5-17.5.5zm24 0 11.5.5-11.5.5zm-243 1 15.5.5-15.5.5zm40 0 10.5.5-10.5.5zm-46 2 2.5 1.5 1 22v2l1.5 28.5 1-10 .5 9.5-1 3v2l-.5 2.5-1.5-2.5v-2l-2-43zm7 0 16.5.5-17.5 1.5zm30 0 19.5.5-19.5.5zm24 0 7.5.5-5 3-3.5 6.5.5-1.5-.5-1.5-1.5.5 4-6zm33 0 6.5.5 10 51-2 4 2-1 .5-1.5.5 3.5-4.5.5-1.5-3.5v-2l-2-7v-2l-2-12 1-3-2.5-1.5-1 2q1.3-7.8-3-10l-3 2 .5-1.5zm-180 1 37.5.5-2 11v2l1 3v2l-1 2 1.5 2.5-1.5.5.5 1.5 1.5.5-2 1q4 2 2 10l-.5 2.5-1.5-.5-1-5h1l.5 1.5.5-6.5h-1l-.5 1.5-1-28-28 3 1-2 2 1 16.5-2.5-25.5-.5zm40 0 13.5.5-13.5.5zm222 0 11.5 2.5-5.5 2.5-6.5-3.5zm-274 1 4.5.5-5 1 .5 1.5 5 1 6-1 .5 1.5-4.5.5h-2l-5.5.5-.5 28.5-.5-29.5v-2zm104 1 .5 14.5h-1z"/><path fill="#9c9986" stroke="#9c9986" d="m604.5 529 1.5.5-1 3-.5 1.5-4.5 3.5.5 1.5 7.5-5.5-1-3 1.5-.5v2l2-1-.5 1.5-1 2 2.5.5 1-3 3 1 1.5.5.5 3.5 1.5-.5.5-4.5v2l10.5-1.5-4.5-1.5-2 1-.5-1.5 7.5-.5 3 2 6-1v1l-3 1-2-1-1 2-1-2-4.5 2.5-2.5 3.5-2.5-.5 1-2-2.5-.5-.5 1.5.5 1.5-4.5.5 4 1-6.5 2.5v-1l1.5-.5-2-1 .5-1.5-7-2-.5 1.5 2 3-1 2 2.5.5 2-1-1 2-4 2q-1.7-3.7-3.5-.5l2 1-1.5.5-4-1-2.5 3.5 1 2-2 1q2.8 1.7-1.5 3.5l-5.5 3.5-1.5 2.5-10.5 6.5q2.8 1.8-1.5 3.5l-1.5.5 2 1-1.5.5-1-1-4 4-1.5.5 1.5 2.5 1-2 1.5.5-1.5 2.5-1.5.5.5 1.5 2.5 1.5-1 3 1.5 3.5 3.5 1.5.5 2.5 4 3 1-2 .5 1.5-1 2h2l1 5h-1l-3.5-4.5-1.5.5 5 11-1 3 2.5 3.5.5-1.5-.5-1.5 3.5 5.5-2-1-.5-1.5-.5 2.5 4 2 2.5 6.5 1.5-.5-1 2 2 1-.5 1.5 1.5.5-1 2 2 1 3 6-.5 1.5 1.5.5 2 5-5.5.5-3.5-7.5 1-4h-1l-.5 2.5-1.5-4.5h1l.5 1.5.5-2.5-3-1 1-2-2-1-3-6 .5-1.5-1.5-.5.5-1.5-1.5-.5-3-9-.5-2.5-1 2-2.5-4.5h2l-3.5-8.5-.5 1.5 2 4h-1l-2-5 1-3h-1l-.5 1.5-3.5-4.5.5-1.5-1.5-.5-3-5 2-1-.5-2.5-2-1-1.5.5-1-2 1.5.5 1.5-.5 1-2-1.5-2.5-1 3-2.5-1.5.5-3.5 2.5-1.5.5-2.5 1.5-.5-1-1 8.5-8.5-3 6-2.5 1.5-.5 2.5-1.5.5-.5 5.5 3.5-2.5.5-2.5v2l4.5-2.5-1.5-.5-1.5.5v-2l2.5-3.5 1.5.5 1.5-2.5 2-1 2 1v-3l-2 1-.5-1.5 14.5-17.5 1.5-.5 5-7-6 4 9-8zm.5 7-1 2h-1l-3 5-2 1-1-2-8 10 1 1 3-2h2v-2l2-1 2-3 3-1 1-2h2l3-1-2-2z"/><path fill="#9c9986" stroke="#9c9986" d="m641.5 532 1.5.5-1.5 2.5-1.5.5 2 1-2.5 3.5v-2l-2-1-1 2-.5-1.5 5-4zm83 4 .5 12.5h-1zm-237 1 4.5 3.5-.5 10.5-1-11zm6 0 .5 11.5h-1zm94 0 2.5.5-3.5 4.5-11-1q-2 4-10 2l-3 1-9 1-1.5-3.5 5.5-.5 2.5.5.5 1.5 2-3 13-1 1.5.5.5-1.5 6.5.5-1 2 2-1 .5-1.5zm62 1 1.5.5-1 3 1 2-1 2v2l-1 34 1 10h-1l-1-11zm-320 1 .5 10.5-1 3h2l-.5 5.5-2.5-1.5zm-36 1 1.5 24.5-1 2 1 3v2l1 2v2l-1 7v2l1 4-1 6h2l-1 2 1 39-2 5 1 4-1 3 1 15-3 9 1 7-1 2 1 3q-2.7 1.8 1.5 3.5l1.5-.5 1 3v2l1 3-1.5.5-1-4-2.5 3.5.5 1.5-1.5.5 2 12-1 2 1 3v4l-1.5 4.5-1.5-6.5v-2l2-5-2-1-.5-15.5-10-1-1 2q-7.5 2-9.5-1.5l.5-1.5 1.5.5-.5 1.5 3.5-.5-2-1 2.5-.5 2 1 13.5-2.5-1-22 1-2-.5-1.5 1.5.5-1-3 1-3-1-9 2-37-4-31v-2l-2-10v-2l-1-20h1l3 29v2l1.5 9.5 1.5-.5zm342 0 2.5 1.5-1 5h2l-1 3 .5 1.5-2.5.5-3 7h1l1.5-2.5.5 1.5-4 10 2 1-2 1 1 2h-2l1.5 8.5 5.5-11.5v-7h-1l-2.5 5.5-1.5-.5 4.5-7.5 1.5 1.5v21h-1l-.5-9.5-5 11-1.5-.5 1.5 5.5 3-5 .5 1.5-3.5 5.5-1.5-.5-.5-3.5-1.5.5 1-2-2-8 3-2-.5-1.5h-2l-1.5-.5v-2l-1-10 1-2-2-4 1.5-4.5 2-1 1 3 3.5-6.5-1.5-.5-1 3-1.5-.5 4.5-6.5zm-377 1 .5 1.5q-4.9 3.6-5.5 11.5l-.5-4.5zm42 1 1.5 4.5-1 2v2l1 5v2l1 13-1 5 1 6h-1l-1.5-8.5-1.5-.5 1-20-1-4v-2zm32 0 .5 16.5h-1zm56 0 .5 1.5-1.5 15.5-.5-15.5zm275 0-1.5 2.5-1.5 2.5-2.5-1.5.5-2.5 1 3 1.5-.5zm58 1 .5 23.5h-1zm-349 4 .5 20.5h-1zm82 0-1.5 2.5-1.5 2.5-2.5-1.5.5-2.5 1 3 1.5-.5zm99 0 2 1 10-1v1l-11.5 2.5-.5 1.5-.5-2.5 2-1zm33 1-6 7zm-274 1 1.5 12.5-1 4h2l-1 11v2l.5 11.5 1-11 .5 15.5h-1l-.5-3.5-.5 17.5 1 4q-1.5 3-3 0l2-22-2-17h1l.5 1.5.5-7.5h-1l-.5 4.5-1.5-11.5h2l-.5-7.5-1 6-1.5-.5 1-2v-2l1-2v-2zm268 0-7 8zm71 0 .5 28.5h-1zm-283 3 .5 2.5-.5 2.5-1-3-4 3-1-2 2 1zm71 0 .5 11.5h-1zm166 0 1.5.5-1 3 2 5-1 4 2.5 8.5 1-3 .5 2.5-1 5 1.5 2.5 1.5-.5-1 7 1.5 3.5 1.5-.5-.5 1.5-1.5.5 1.5 3.5 1-2 .5 1.5-1 5 2 9h-1l-6-25 1-2-8-27zm-4 3 4.5 21.5-2-1-5-18zm-212 2 .5 10.5h-1zm144 0 1.5.5 3 25-4.5.5-.5-13.5 1-3zm-202 3 1.5 3.5v2l-.5 3.5-1-4-1 4-.5-4.5 1-3zm198 1 1 9 1.5-.5-1 10 1 3-1.5.5-1.5-11.5v-2zm-20 1v2l8.5.5-8.5.5q-3-1.5 0-3Zm89 2 3.5 13.5-1.5.5-1-4-1 4-.5-6.5v-2l-1-4zm-291 2 .5 25.5h-1l-.5-6.5-1 5-1.5-7.5 1-2-1-4 1.5-.5 1.5.5zm246 0 .5 3.5-2 1 1.5 3.5 1-3 4.5 19.5-2 1 3 1-1 9 3.5 10.5 1-2 .5 2.5 1 3 1 6-2 1 3 2-1 5 2 1 2 12-1 2h2l-.5 2.5-1.5.5 1.5 2.5 1-2 .5 2.5-1 6 3.5 11.5 1.5.5-1 3h2v8l6 21-2 6 2 1-1 5 .5 1.5-1.5-.5-6-33 1-2h-2l-5-21v-2l-18-87h2zm-58 2 .5 11.5h-1zm-2 1 .5 12.5h-1zm-107 2 .5 13.5-1.5 3.5-.5-7.5zm339 4 .5 13.5h-1zm5 0 1.5.5-1 3 1 6h-1zm-340 2 1 10 3.5.5-4.5.5z"/><path fill="#9c9986" stroke="#9c9986" d="M577.5 579q4.1 4.9 15 3l14-2q3 1.5 0 3l-26 3zm128 1-1 2-1.5.5-.5 7.5-.5-8.5zm-51 1h2l14 1 23-1 3.5 1.5-9.5.5h-2l-24 1h-2l-6.5-1.5zm-3 1 .5 12.5h-1zm60 0 .5 1.5-2 1-2.5 3.5-1.5-.5zm-410 1 1.5.5-.5 14.5zm214 2 16 1 2-1 3 1 9-1q3.5 2 1.5 9.5l-2 1q3.8 3.2 2 12h-1l-.5-8.5-1.5-.5-2-9v-2l-.5-1.5-3.5.5.5 28.5 8.5.5-9 1 .5 2.5q7.5-2 9.5 1.5l-.5 21.5-1-22-2 3-3-2-1 2-2.5.5 2.5 19.5 7.5.5-7.5.5h-2l-6.5-.5 1-8-1-2 2-1 1-15-2-28v-2l-.5-1.5-.5 14.5v2l1 2-1 4v2l1 6-1 2 1 13h-1l-2-26 1-2-1-3 1-5-1.5-9.5-27 1v-1zm93 0 8.5 34.5-1.5.5-8.5-33.5zm-297 1 .5 10.5h-1zm287 1 5.5.5 8 33-6.5 1.5v-1l3.5-.5-2-6v-2l-5-17 2-1-1.5-4.5-1.5-.5-.5-1.5zm120 0-1.5 2.5-.5 1.5-7.5 5.5-.5 1.5-1.5.5-.5 1.5-1.5.5-2.5 8.5-.5-5.5v-2l.5-2.5 1 2zm-369 1 6.5.5-5.5 1.5h-2l-10 1-.5-1.5 2.5-.5h2l3 1zm74 1 15.5.5-15.5.5zm19 0 15.5.5-15.5.5zm54 0 1.5 12.5-1 4v4l1 7v2l1 8-1 4 1.5 12.5 17.5.5-19.5.5-1.5-5.5 2-1-2-1 1-18-2-4 1-5-1-5zm-120 1 9.5.5-.5 2.5-1-2h-8zm11 0 3.5.5-1 5v2l1 5-1 2 1 3-1 2 1 2-1 2h2l-1 2 .5 1.5-2.5-.5-1-8v-2l1-15h-1l-.5 7.5-1.5-.5 1-3zm341 0-1.5 2.5v12l-1.5 1.5.5-1.5.5-13.5zm-423 1q3.4 7.1 1.5 19.5h-1zm47 0 19.5.5-19.5.5zm280 0 1.5 3.5-1 8h1l3.5-8.5.5 2.5-4.5 7.5-1.5-.5 2 6-1.5 7.5-2.5.5 3.5.5 2-3 .5 2.5-2 1-1 5 1.5.5 1.5-.5-1 8 2 3-1 3-1 13 2.5 1.5 1.5-.5-1 7 2 6-1 3 4 24v2l-.5 4.5-1.5.5-.5 2.5-.5-2.5 2-9-2-1-.5 4.5-.5-10.5 1-2-2-3-3-20 1-3h-2l-1-6 .5-2.5 1.5-.5-1.5-3.5-2.5-1.5.5-1.5 1.5.5-1-2 1-2-3-1-1-10 1-2-1-14 1-2-1-2v-2l1.5-10.5 1 2zm59 0-3.5 4.5-1.5 2.5-3 2zm-405 1 1.5.5-1 6v2l1 2-2 8 1 10-2-1 1-8v-2l-1-3zm47 2 .5 31.5h-1zm318 2q3.9 10.6 3.5 25.5h-1l-.5-2.5-.5 4.5 2 1-2 1-.5-1.5-.5 15.5h1l.5-11.5.5 12.5-3.5.5.5-1.5-1-37h1l.5 3.5.5-4.5-2-1 2-1zm.5 12-1 13h1zm46.5-12 1.5.5-7 6-.5 1.5-2.5 1.5-.5 1.5-4.5 3.5-.5 1.5-1.5.5-.5 1.5-3.5 2.5-.5 1.5-1.5.5-9.5 11.5-.5-1.5 2-1 16.5-19.5 2.5-1.5.5-1.5 1.5-.5 1.5-2.5 1.5-.5.5-1.5zm-398 1 .5 10.5h-1zm420 0-.5 1.5-1.5 2.5-1.5.5-13 14-.5 5.5-.5-7.5 12-11 3.5-4.5zm-171 1 4.5 19.5 1 3q.4 13.1 5 22l-2.5.5-7 1-1-2 4 1-.5-1.5 1-2-2-4h1l2 4v2l.5 1.5 1.5-5.5-2-3 1-2-1-3-.5-2.5-2.5.5 1 2v2l-.5 1.5-2-6-1 2-.5-1.5 2-4h-1l-.5 1.5-.5-4.5 3-2-3-1zm49 0 .5 16.5h-1zm-296 1 1.5.5v2l-1 3-.5 2.5-.5-2.5 1-3zm34 1 1 7 1-6 .5 5.5v2l-2 4 1.5 8.5 1-7 .5 7.5-1.5.5-2.5-.5.5-1.5-1.5-.5 1-3-1-4zm-28 5 .5 26.5h-1l-1-14zm390 0 1.5.5 1 14-1 3 2 14-1 2 2 1-2.5.5-3 1v-3l1.5-.5-1.5-4.5-3 5-1.5.5 3 1-7.5.5v-1l8.5-7.5 1-10h-1l-15 17 5 1-6.5.5h-2l-9.5-.5 9.5-.5 11.5-10.5 6.5-8.5 2.5-1.5-1-3 1-3-.5-4.5-1.5.5-1.5 2.5-1.5.5-1.5 2.5-1.5.5-.5 1.5-1.5-.5 10-9zm23 4 .5 16.5-16.5 14.5-.5-1.5 16-14zm-290 1 .5 10.5h-1zm285 1 1.5.5-3 5-.5 1.5-9.5 8.5-.5 5.5-.5-7.5 5-4 1.5-2.5 1.5-.5.5-1.5 3.5-2.5zm-414 3-.5 1.5 1 7-2-1z"/><path fill="#9c9986" stroke="#9c9986" d="m639.5 615 .5 12.5h-1zm-326 1 4 6 1.5.5.5 1.5 1.5.5 3.5 5.5 8 6 1-9 .5 23.5h-1l-8.5-10.5-3.5-2.5-.5-1.5-1.5-.5-.5-1.5-3-2-1 7-.5-11.5h1l16.5 18.5 1.5-.5-.5-7.5-1.5.5q2.8-1.7-1.5-3.5l-6.5-4.5-1.5-3.5-4.5-3.5-1.5-2.5-1.5-.5zm374 1 .5 1.5-11 10-9.5 11.5-3.5-.5 3-1 5.5-6.5 2.5-1.5zm-68 3 6.5 22.5-.5 1.5 3.5 1.5 1 3-1 3h1l.5-1.5.5 4.5-2 1 1.5 4.5 1-3 .5 2.5-2 4 1.5 2.5 1-3 .5 3.5-2 1 2 8-2 1v-8l-9-32v-2zm100 0-14 15-.5-1.5zm-225 1 .5 22.5-14.5.5v-1l13.5-.5zm-51 1 .5 15.5h-1zm-106 1 .5 2.5.5 1.5 1-3 .5 4.5-3-2-1-2zm275 0 2 1 2-1 .5 1.5q-2.8 4.7-11.5 3.5l-1-3-1 3-6 1-1.5-3.5 3.5-.5 5-1 5 1zm-310 1 1 15 1.5-13.5-.5-1.5 1.5 2.5v2l-1 7 1 3 1 12-1.5.5-1.5-3.5h1l.5 2.5.5-3.5v-2l-.5-2.5-2.5 1.5.5-2.5 1.5.5-.5-1.5-2.5-1.5-1-12zm275 3 6.5.5 1 3-12.5 1.5-.5-1.5h2l1.5-2.5 1.5.5zm144 0 .5 1.5-5.5 6.5-2.5 1.5-1.5 2.5-1.5.5-.5 1.5-1.5.5-10.5 12.5-1.5.5-6.5 7.5-1.5-.5 2.5-3.5 1.5-.5 6-8-1.5-.5-1 2-1.5.5-.5 1.5-1.5.5-7 8 .5 1.5-6.5-.5 4-1 .5-1.5 1.5-.5 14.5-16.5q3.8 2.2-1.5 4.5l.5 1.5 5-8 1 4 .5-2.5zm-437 1 1.5 5.5-1 5 1 15h-1l-1-6v-2l1-11-1-4zm334 2 1.5.5 8 35-1.5.5-8.5-31.5zm-7 1 3.5 1.5 8 33-3.5.5-5-23-1.5.5.5-1.5 1.5-.5zm-311 2 .5 4.5-1.5 25.5-.5-25.5zm355 0 1 7 4-1 1 2-2-1-3 1q-3.4-1.9-1-8Zm66 3 1.5 1.5v12l-2 1-6.5 8.5-2.5 1.5 5.5.5 5-7 .5 1.5-4 5 3 1-20.5.5v-1l2.5-.5 8.5-10.5 1.5-.5 6.5-8.5.5 2.5-2.5 3.5-1.5.5-1.5 2.5-1.5.5-8 10 4.5.5 3-4 1.5-.5 5.5-7.5 1.5-.5-.5-11.5-4 5-1.5.5-11.5 13.5-1.5.5-4.5 5.5-1.5-.5z"/><path fill="#9c9986" stroke="#9c9986" d="M315.5 640q2.8 5.4 5.5 3.5l3.5 5.5 1.5.5 1.5 2.5 1.5.5.5 1.5 4 2 2-1 4.5 1.5-3.5.5-2-1 5 6 10.5 7.5.5 1.5 7 2 3-1 2.5-.5-14-12 3.5 2.5 12 10h7l.5-1.5-17-14 1.5-.5 3 4 15 11 6.5.5-2.5 1.5h-2l-5 1-2-1-9.5 1.5.5 1.5-5.5-.5-.5-1.5-3 2h-27v-1l2.5-.5-10.5-8.5-1 7-.5-9.5 4.5 3.5 1.5.5.5 1.5q3.2 5.8 12 6l-1-2-3.5-2.5-.5-1.5-13.5-11.5.5-3.5 8 10 12 11h7l-4-5-11.5-9.5-.5-1.5-11.5-9.5.5-2.5 5 6 23 20 7 1-2-3-11.5-8.5-.5-1.5-1.5-.5-.5-1.5-18.5-16.5-.5-1.5-1.5.5zm379 2 2.5 1.5-4 3-.5 1.5-1.5.5-.5 1.5-1.5.5-10.5 11.5-.5-1.5 2-1 6.5-8.5 1.5-.5.5-1.5 6.5-5.5z"/><path fill="#9c9986" stroke="#9c9986" d="m337.5 643 2 1 2-1 5 6q3.6 3.9 12.5 2.5l-8.5 1.5-3-2q-1.7 3.8-9 2-3.8-2.3-1-10Zm323 0 2 1 14-1-3.5 4.5-.5 1.5-3.5 1.5-9.5 10.5-.5-1.5 4-3 11-12-10.5-.5-8 10-.5-1.5 2.5-3.5 1.5-.5 3-4zm25 0 2 1 1.5-.5-5 3v2l-.5 1.5-6.5 4.5-2.5 3.5-1.5.5-.5 1.5-2 1-.5-1.5zm-224 1 9.5.5-.5 1.5-9-1zm11 1 20.5.5-20.5.5zm25 0 23 1h2l2.5.5-12.5.5h-2l-13-1v1l7.5.5-7.5.5q-3-1.5 0-3Zm-196 1 .5 14.5h-1zm257 0 2.5 1.5 10 51-.5 1.5 1.5.5-1 3 2 4-1.5 3.5-2.5.5-1 3 3 2-2 1 .5 1.5 3.5 1.5-.5 1.5-1.5.5-1 2 1.5 2.5 5-3 2.5 20.5 3 10-2 1 1.5 2.5 1-2 .5 3.5-.5 1.5 1.5.5-1 4 2 5-2 1 3 1 1 7-3 2 2.5.5 1.5-.5-1 3h2l1 8-1.5.5h-2l-1.5-.5-4.5-13.5-2.5-.5 3-1 .5-2.5 1.5-.5-.5-1.5-1.5.5-2-6v-2l-1-3 1-2-1-5 1-2-3-1 .5-1.5 1.5-.5-1.5-2.5-1.5-.5-2-3v-2l-.5-1.5-21 3-15.5 4.5 1 4-1 23v2l.5 4.5 19-5h2l12.5 1.5-.5 1.5q-20.5-2.4-32.5 3.5l.5 1.5 4.5.5-5 1 1 17v2l.5 1.5 32-7 2 1h2l5.5.5-13.5.5-28.5 7.5 1.5 3.5 5.5.5-6.5.5-1-2-8.5 1.5 3.5 1.5q2.5-2.8 5 1 14.2 2.8 23.5 10.5l-.5 1.5 2-1 9 5 20.5-4.5 1-3-2-1 1-3-2-1 1.5-5.5v2l2.5-.5-.5-2.5-1.5-.5 1-2-1.5-.5-2 4-1.5-3.5 5.5-1.5 1.5 7.5-2 1 3 1 3 15h-1l-.5-2.5-2.5.5.5 1.5-2 1-2-4-12 2h-2l-2.5 1.5 20.5 8.5.5-1.5-.5-1.5 1.5.5 2.5 3.5 1-2 1.5 6.5-1 2 3.5 5.5 9 2 5.5-2.5.5-1.5.5 1.5-2 4v2l-2.5 4.5-5.5-.5-2.5-6.5-2.5.5-.5 1.5-1.5-.5 1-2-1.5-2.5-1.5.5 1 2h-1l-1-2 1-2-29-15 2-1-1.5-3.5-2-1-2 1-3-1 1 3q-1.9-3.6-8.5-2.5l4.5-1.5 2 1 2.5-1.5-4-1 .5-1.5-5-2-1.5.5-.5-1.5-2-1-3 1-18-10-12-2-3 1-2.5-1.5 12.5-.5 1.5-1.5-4.5-1.5-10 2h-2l-10 1h-2l-14.5-.5 5.5-1.5 2 1 28-2 6.5-2.5 1-14-1-25v-2l.5-7.5 1.5.5-1-3v-2l1-2-1-2h1l.5 1.5.5-33.5-1-2v-2l.5-9.5 1 10 1.5-11.5-1-11 1.5-.5 1.5 9.5v2l.5 3.5 27.5-6.5-3.5-17.5-5.5-.5 5.5-.5h2l2.5-.5-.5-1.5-9.5-.5 6-1-1.5-2.5-6-2-2 1v-1l4-2v2l3.5-.5 1.5-2.5 1 2 1.5-.5v-2l-1.5-2.5-3.5-.5-2.5-7.5-14.5 1.5 1 5 .5 2.5 3.5.5-4.5.5h-4l-3.5-.5 1-2-2-19 3.5-.5 1 5 2-5 2-1-.5 1.5.5 3.5 5 1 8.5-1.5.5-4.5zm-15.5 8-2 2 2 3 13-1-1-3zm-6 6-2 7 2 2 1-3zm25 43-26 5v1l28-3 1-1zm2 4-27 4-1 19v2l1 14h3l-1-1-1-1 28-7v2l-22 4v1l29-4-1-3-2 1h-3l4-2v-2l2-1-1-1q-5-9-6-21zm-30 28v12-4l1-4zm0 16-2 2-1 15 2 2 2 13v-31zm-2 29-2 4 1 7 1-2v2l-1 3-1 2 2 3-1 9h2l-2 3 1 1h3l-1-3 1-2-2-23zm56 64 8 5h1l-1-2h-1zM308.5 647l1.5.5-.5 11.5zm118 1 12 1 3.5 3.5-4.5-1.5-13 1-2.5-.5-.5-1.5-2.5-.5 2.5-.5 10 1v-1q-6 1.2-5-1Zm50 0 10.5.5-10.5.5zm-28 1 12.5.5-12.5.5zm22 1 14.5.5-14.5.5zm-106 1 15.5.5-15.5.5zm81 0 11.5.5-11.5.5zm-36 2 13.5.5-13.5.5zm-31 1 12 1 6-1v1l-5.5.5-.5 1.5q-2.5-4.5-12-2zm-71 2 .5 9.5-1 3 1 2-1.5 6.5-1.5-2.5v-14l2-1zm34 0 8.5.5-3 1 .5 1.5-4-2zm394 6 2.5.5-1.5 2.5q-6.8-1.8-8.5 1.5l-.5 4.5-1.5-2.5.5-1.5-2.5-.5 4-1 1.5-2.5zm-426 1 1.5 3.5-1 2 1 3-1 7 1.5 2.5-2 1-.5-6.5v-2zm290 0 3 1 2-1-.5 1.5-1 3 2.5.5 1.5-.5-4.5 2.5-5-2-7 2-3.5-1.5 10.5-4.5 1 2zm90 4 7 1h2l8.5.5-8.5.5h-2l-9.5-.5zm-63 1 2.5 3.5-2.5.5-2 1-3-1-3 1-4 1h-2l-2 1-2-1-4 1h-2l-20 3-.5-1.5.5-1.5-2.5-.5 13.5-.5h2l16.5-1.5 1.5-3.5 2.5.5-3 1 2.5 1.5 3-1 1.5-.5-3-1zm-309 1 5.5 6.5-1.5.5zm172 1 32.5.5-32.5.5zm184 0 23.5 3.5-12 1 15 1-11.5 1.5-2-1-15 1-4-2-2 1-1-2 2 1 14.5-2.5-15-1zm10 0 12.5 1.5-8.5.5zm-301 1 3 1 15-1 2.5 1.5-9.5 1.5-4-2-2 1h-2zm65 2 17.5 1.5-10.5.5-7-1zm-145 1 1.5.5-.5 8.5-1-3-1.5.5 2-3z"/><path fill="#9c9986" stroke="#9c9986" d="m525.5 674 8 1 2-1 8 1h2l2 1 1-2 1 2 5.5.5-8.5.5-5-1v1l3.5.5-3 1 .5 1.5-1.5-.5-.5-1.5-3.5.5.5 1.5 2-1-1 2-5-1-9 1v-1l7.5-1.5-.5-1.5-3.5-.5 5-1-7.5-.5zm181 0 1.5.5-1.5 3.5-12.5-.5 13-1zm-221 1 13.5 1.5-7.5.5-6-1z"/><path fill="#9c9986" stroke="#9c9986" d="m502.5 675 9 1 10-1 .5 1.5-9.5.5-1.5 1.5-.5 1.5-13.5 1.5 7 1-6.5.5-4-2v2l-3-1-5 1-6-2h-2l-3 1 .5-1.5-.5-2.5-10 1h-2l-5-1-9 1-2-2-3 1-3-1-.5 2.5 13 1-12.5.5-2.5-1.5-.5-1.5-4 2-2-3-2 1-3 1-3-1-5.5 1.5 11.5.5 2-1 1 2 1.5.5-9 1 22 1-21.5.5h-2l-9-1h-2l-20 1-2.5-.5 1-2-2.5 1.5-3 1-2-3-5 2-3-1-5 1-2-1-1.5.5 1.5-2.5 26-2 3 1 7.5 1.5-2.5.5-2-1-4 1-1.5-.5.5 1.5 21.5-.5-1-2 2-1-6-1 8.5-.5h2l4 1 1-2 39 2 2-1 2 1 1-2 11 1 1.5-.5-8 2 9.5 1.5 3-1 1.5.5.5-1.5 3 1 3-1 2 1 2-1 1.5.5.5-1.5 1.5-.5zm126 0 1.5.5 5 18-2.5.5zm23 0 5 1 2-1h2l3.5 1.5-1.5-.5-9 1zm-32 1 5.5.5 1 3-3 2 4 1-.5 2.5-1-2-3-1-2 2h-21v-1l21.5-.5 2-3-1.5-2.5zm15 0 .5 4.5-1 3 2 7h-1l-2-9z"/><path fill="#9c9986" stroke="#9c9986" d="m515.5 678 13.5.5-13.5.5zm-196 2 4 1 8-1v1l-10 1-2-1-8 2v-1l3-1h2zm269 0 9.5 1.5-.5 1.5-12 1h-2l-1.5-.5.5-2.5 4 1zm13 0 18.5.5-18.5.5zm52 0 11.5.5-11.5.5zm-307 1 2 1 2-1 4.5.5-.5 1.5 2.5-.5-.5-1.5 3.5 1.5-1.5 1.5-13 1-3-1-5 1-9.5-1.5 4.5-1.5 5 2zm333 0 8.5.5-4.5 1.5-2-1-4 2-19 2q-3-1.5 0-3l8 1 3-2zm16 0 13.5.5-13.5.5zm-242 1 12.5.5-12.5.5zm-130 1 3.5.5-5 2-.5 1.5-2.5-1.5-.5 1.5h-2l-3.5-.5 2.5-2.5zm225 0 6 2 1.5-.5-.5 1.5-2-1-2 1h-2l-8.5-.5z"/><path fill="#9c9986" stroke="#9c9986" d="m535.5 684 4.5.5-5 1 1.5 4.5 10-2 2.5.5-.5 1.5-17.5 1.5-.5 6.5-1.5-3.5 1-2-1.5-.5-.5 3.5 1 2 .5 2.5 1.5-.5-1 29 1 20-2-1 1-3-2-24v-4l-.5-2.5-1.5 12.5v2l1 2-1.5 3.5-.5-9.5 1-4v-2l1-13v-2l-1-2 1-9-7-1 7-2 .5-4.5 3.5 1.5.5 3.5.5-2.5 1.5-2.5zm-31 1 13.5.5-13.5.5zm-43 1 3 1h2l10-1 2 1 11-1v1l-17 1-3-1-1.5.5.5 1.5-6-1-2.5 1.5 4 2 .5 1.5 5-2 3 1 2-1 11 1 23-1v1l-3 1-3-1-20 2-5-1-4 1h-4l-38 4h-2l-18 2h-2l-7 1h-2l-21 2h-2l-7.5-.5 2.5-1.5h18l66-8 2 1 4.5-1.5-29.5-.5-9 2v-1l3.5-.5-9.5-1.5-3 1-4-1-5 1-8.5-.5 5-1-14-1 16.5-1.5 5 2 16 1 5-1 3 1 4-2 6.5.5.5 1.5 2.5-.5-2-1 2.5-.5 1 2 3.5-1.5-.5-1.5 7 1zm127 0 1.5 1.5v23l1.5 1.5 1.5-.5v-2l-1-20 1.5-3.5 1.5 7.5-1 4v4l1 5-1 4 2.5.5 14-2 5.5 1.5-27.5 3.5-.5-1.5.5-1.5-1.5-.5.5-2.5 1.5-.5zm39 0 5.5 21.5-8.5 1.5v-1l5.5-1.5 1-2q-5.7-6.6-3.5-18.5Zm-258 1 4.5 1.5-24.5.5v-1zm11 0 12.5.5-12.5.5z"/><path fill="#9c9986" stroke="#9c9986" d="m426.5 687 13.5.5-13.5.5zm-65 3 15.5.5-15.5.5zm-43 1 7.5.5-8 1 7.5 2.5 3-1h2l19 1 2-1 3 1 12.5-1.5-24-1 25.5-.5 3.5 1.5-.5 1.5-23 2-21-1v1l1.5.5-3.5.5-5.5-1.5-1.5-2.5-1 2-15-2-1.5.5.5-1.5 3-1 3 1 3-1 6 2zm315 4 2.5.5-.5 11.5-1.5-6.5 1-3h-1l-.5 1.5zm-298 7 14.5 1.5-4.5.5-3-1-7 1zm33 0 .5 1.5-15.5 1.5-2.5-1.5 3.5-.5h2zm-47 1 7 1 1.5-.5-7.5 3.5-8.5-1.5zm322 1 1.5.5 2 7-1.5.5.5-1.5-1.5-4.5-.5 2.5-1.5 6.5-2.5-5.5h2zm-367 2 8.5.5-3.5 1.5-3-1-2 1zm297 3 .5 3.5-.5 1.5 1.5.5-.5 2.5-1-2-2.5-.5.5-1.5 1.5-.5zm59 1 2 1 1.5-.5-1 2h2q-6 4-16.5 3.5l-2-3-3.5 2.5 3 1-12.5 1.5-2-1-7 2h-2l-5 1-.5-1.5 2-1-.5-1.5 8 1v-2l11-1 1.5.5.5-1.5zm-51 5 3 5 1.5.5 4 14-1.5 2.5-1.5-.5.5 2.5 3 2 1-2 1.5 7.5-1 2h2l-.5 2.5h-2l-1.5.5 3 1 .5 1.5 1.5-.5-1 4h2l-.5 3.5-1.5.5 3 2 2 9-.5 1.5 1.5.5-2 6 2 3-4 1zm50 2 4.5 1.5 2 6-2 1 2 1-.5 3.5-4-12zm12 1 1.5.5 3 6-2.5.5-1.5.5.5 1.5 1.5.5-4.5 6.5-1.5-.5 3-6-1-2zm-50 4 2.5 1.5-2 3 .5 1.5-1.5-.5 1-2-2.5-1.5-1.5.5.5-1.5zm0 7 1.5.5-1 3 1 2-1.5 2.5-1.5-5.5zm51 6 1.5.5-5.5 10.5-1-2 1.5-.5v-2zm10 1 1 2 3.5 2.5 2 20v2l-.5 3.5-3.5-16.5.5-1.5-1.5-.5zm-5 1 2.5.5-1 4 2 4-1 4h1l.5-1.5.5 1.5-1 3h1l.5-1.5.5 2.5-2.5 1.5-4-14-.5 5.5 1 4-1.5.5-2.5-6.5zm-16 10 1.5.5-7.5 4.5v-1l5.5-2.5zm-13 3 1.5.5-2.5 4.5-18 2v-1l3-1 3-1 5 1 2-3 1 2 4.5-.5-2.5-1.5-1.5.5.5-1.5zm19 4q7.7-1.7 9.5 2.5l-9.5 2.5h-2l-4 1-3 1-3.5-.5.5-1.5-3.5-.5.5-1.5 2 1 11-3 3 1v-1zm16 1 .5 3.5-2 1 1 5h-1l-1-8h1l.5 1.5zm-44 3 4.5.5-.5 1.5 7-1 3.5 1.5-.5 1.5-12 1v-1l3.5-.5-5.5-.5-4 1v-1l4.5-1.5z"/><path fill="#9c9986" stroke="#9c9986" d="m603.5 759 6.5.5-10.5 2.5-.5-1.5zm47 1 7.5 26.5-1 2 2 5-1.5.5-5.5-18.5 1-3h-2l1-4-1-3zm-12 1 7.5.5 8 32-3.5 1.5-3.5-10.5 1-2-2-3 1-2-1.5-2.5 1.5-.5-.5-1.5-1.5-.5-1-5 1-2-2-1 1-2-5.5-.5zm-37 1 9.5 1.5-4.5.5-5-1-1.5.5zm25 1-1 2-18 4v-2l-1.5.5-.5 1.5-3-1-1.5-.5zm29 3 2 7 2-1 .5 2.5-2 1 3 1 4 17h-1l-.5-2.5-1.5.5 3 7-1 2 1 3 4 19h-1l-8-35 2-1-.5-2.5-1 2-1.5-.5zm-93 18 3.5.5-11.5 1.5v-1zm-19 1 5 1 3-1 1.5.5-.5 1.5-9.5-.5zm55 6 1.5 3.5.5 4.5 2-1v2l1.5.5.5 1.5 1.5-.5-1.5 1.5-3.5-2.5 1.5 3.5 3.5 1.5 2 13-2 1 .5 2.5 1.5-.5.5-1.5 1.5 8.5-1.5.5-2.5-.5-2-12 .5-1.5-1.5-.5zm-12 3q4.5 2.5 1 5l2-1-.5 1.5.5 1.5 1.5-.5.5-1.5 1.5 6.5h-1l-.5-2.5-3.5 2.5 1-2-2-1-1-2v-4zm70 2 1.5.5-.5 3.5-2-1-19 5h-2l-4.5.5 4 1-22.5 4.5-2.5-.5.5-2.5 1.5-.5-1.5-2.5 5.5.5-.5 1.5 3.5-.5-.5-1.5-1.5-.5 9.5-1.5h2l7-1 2 1v-2l4 1 1-2zm52 4 11 1 4-1 .5 1.5-4.5.5-2-1q-10.2 3.3-25 2h-2l-2 1-3-2-9 2-.5-1.5 4.5-.5h2l3-1 3 2 3-2h14zm-48 3 8.5 35.5h-1l-7-26zm-12 1q6.8-1.7 8.5 1.5l3 14-2 1-1 2 1.5.5 2.5-1.5 2 14-1.5-.5-2.5.5 5 2-.5 1.5-8-3-.5 1.5 3 1-2.5.5-12.5-5.5-.5-1.5-2 1h-2l-5.5-1.5.5-1.5 9 1v-1l-27-8-3-3-1 2-.5-2.5 2.5-.5 14 5v-1l-1.5-.5.5-1.5 30.5 13.5.5 1.5 1.5-.5v-2l1-2-2-1 .5-1.5 1.5-.5-3-2-1-4 .5-1.5-1.5-.5-2.5-14.5q-5 1-4-1Zm24 4 3.5 10.5-1 2 2 1-1 3h1l.5-1.5.5 1.5-1 2h2l-1 2 1 3h-1l-5-15 1-4h-2zm-104 1q10.3-1.8 15.5 1.5l-3.5.5-6-1h-2q-5 1-4-1Zm-24 2 10.5 1.5-5.5.5zm-45 3 6 1 3-1 2 1 3-1 1.5.5-1.5 1.5h-13l-9 1-2.5-.5zm-23 1q8.2-1.7 11.5 1.5l-3.5.5-8-1-2 1v-1zm-10 1 6.5.5-9.5 1.5v-1zm-53 1 4 1 3-1h2l7 3 2-1 22 1 3-1v1l-9 2-3-1-2 1h-2l-3-1-2 1-11-3h-16l-2 1v-1zm257 11 2 4 2-1 .5 2.5-1 6 1.5.5 1-2 .5 1.5-3.5 1.5zm-63 2 3.5.5-.5 1.5-2-1-.5 2.5 2.5.5 1.5.5-.5 2.5-1-2-2 3zm4 8 2.5 6.5q-2 4.5-4 1l-1-6h1l.5 3.5 1.5-3.5z"/><path fill="#9c9986" stroke="#9c9986" d="m659.5 839 9 6 6 1 1.5-.5-3.5 7.5-6.5-.5-.5-1.5-1.5-.5zm-157 37 1.5.5-5.5 9.5 1.5-2.5zm-246 44-.5 1.5-3.5 5.5.5-1.5z"/></svg>