<svg xmlns="http://www.w3.org/2000/svg" viewBox="0 0 1024 1024"><path fill="#232221" stroke="#232221" d="m773.5 122 1.5.5q-2 3.5-9.5 1.5l-21.5 8.5 2 1-1.5 2.5-2-1-4 3-2.5.5.5 1.5-3-1-1 2-9 5-3 1-7.5 4.5-29.5 42.5-1.5-.5 3-13-1-7 2-7-1-2 2.5-4.5 2.5-1.5-.5-2.5-1.5-.5 3-2 .5-2.5 2.5 1.5-6 23 4-3 16.5-22.5 6-5 2.5-.5-.5-1.5-2 1-.5-1.5 2.5-1.5 1 2 1.5-.5 1.5-3.5 43-16zM709 153q-13 12-21 30l1 1 5-9 3-1v-1h-2l14-18z"/><path fill="#232221" stroke="#232221" d="m778.5 126 16 2 11-1q9.6 1.9 13.5 9.5l1 4-3-2-.5-1.5-1.5-.5-1-2 .5-1.5-8-4h-6l-8 2-2.5-1.5-.5-1.5-4 1h-2q-7.5-1.5-9 3l-.5-1.5.5-1.5-3 1-2-1-1 2-5.5 1.5-2.5 4.5-4 3 5.5-6.5-.5-1.5-9 3-1-2-1.5-.5 17.5-4.5h9z"/><path fill="#232221" stroke="#232221" d="m772.5 132-1.5 2.5-.5 1.5-4.5 3.5-9.5 10.5 7.5-8.5zm11 1 1.5.5-24 22-6.5 7.5 3.5-4.5 9.5-11.5 2.5-1.5 2.5-3.5zm-29 9-5 6zm65 0 2.5.5 3 6-1 2 3 2-1 5v4l.5 2.5 5-12 .5 4.5-2.5 10.5-1.5.5-9 22 2 1 5.5-10.5.5 1.5-5.5 11.5-2.5-1.5-.5-1.5-26.5 46.5 2-1 16.5-23.5 1.5-.5-1-2 5.5-10.5 1.5-.5-1-2 2-1-.5-1.5 2.5.5-16 32-8.5 31.5.5-1.5q.9-18.1 7-31h-1L778.5 255l-2.5 1.5 2.5.5 9-4 .5 1.5q-26.2 13.8-56.5 23.5l-2-1v2q-15.1 6.4-34.5 8.5 8.9 5.1 25.5 2.5l3-1 11-1 1 2 3-1h2l4.5.5-.5 1.5-2-1-6.5 1.5 2 1-.5 1.5-7-1-3.5 2.5-.5 1.5-30 22-4 1-.5-2.5 32-23 .5-1.5 2.5-1.5-5.5-.5-2 4-2.5-.5-.5-2.5-1.5.5.5 1.5-12-1-2 1-18-2-2.5-.5 1.5-2.5 3.5-1.5-5-1 .5-2.5 8 1 36-10h2l10-2 22.5-10.5.5-1.5 8-4 2 1 2.5-1.5.5-1.5 13.5-12.5 2-4-1.5-.5-5 7-1.5.5-.5 1.5-1.5.5-.5 1.5-4 3-.5-1.5 7-6 21-29 12-23 10-26-1-2 1-2-1-2 1-5v-2l-3.5-10.5zm-65 10-6.5 7.5-11.5 15.5.5-1.5zm-11 3-2.5 3.5-9.5 12.5 1.5-2.5z"/><path fill="#232221" stroke="#232221" d="m680.5 160 1.5.5-20.5 11.5-48.5 37.5-.5 1.5-13.5 10.5-.5 1.5-14 13v-2l-6.5 4.5-27 37-15 37-5.5 25.5q-4.2-1.7-1.5-3.5l7-30-2 1-3.5 11.5-1-2-.5 2.5 1 3-3.5 12.5-2-1-2 9-.5-5.5q6.5-16 4-41l.5-2.5 1 11 2.5-20.5-3 2-.5 1.5-1.5.5-18.5 28.5-1.5.5-.5 1.5-1.5.5-8.5 14.5-2.5 1.5-14.5 21.5-2.5 1.5-26 46 3 6-2 1-.5 1.5-.5-1.5 1-2-1.5-3.5-6.5 10.5 2.5 3.5 2-1 1.5 5.5-2.5-1.5-1.5-.5-1.5-3.5-2.5 1.5-10 26-3 25-2.5 3.5-2-6-2 10-2.5-5.5 3-6-2.5-16.5-6.5 20.5-2 22-2.5 6.5-3-19-2.5 6.5.5 1.5-1.5-.5-3 11-1 25 1 3-1 2 2 1-2.5.5-.5-20.5 1-6h-1q-4.2 11.3-3 28l2 6-.5 3.5 1.5-.5 13.5-23.5 1.5-.5 2-6v-2l-1-6 1.5-5.5 1.5 5.5-1 2 1.5 3.5q5.6-3.4 4.5-13.5l-1-8 2 1 1 5-1 2v2l.5 1.5 25.5-38.5-2-3 1.5-.5 2 3 8.5-12.5-2-10 4.5-17.5.5 4.5-1 2 1 2-3 18 2-1q5.1-1.9 4-10v-2l4-23v-2l2-6v-2l.5-3.5.5 5.5q-5 14-5 33l3-2 18.5-27.5 2.5-.5 4-6-1-4h1l.5 3.5 4.5-7.5v-14l3.5-17.5.5 4.5-2 9v2l-1 16 4-3 26.5-31.5 1.5-.5 10-12q8.5-43 27.5-75.5l.5 1.5q-17.9 31.1-26 72l4-3 6.5-8.5 4.5-3.5 9.5-28.5.5 1.5-8 24 7-6 .5-1.5 21.5-18.5.5-1.5 78-63 22.5-15.5 2.5-3.5 10.5-6.5.5-1.5 10.5-6.5 1.5-2.5 23-13-2 3-7.5 4.5 2.5.5 8-4v1l-11 6 .5-1.5-.5-1.5-1.5.5q.8 5.8-3.5 6.5L698 217.5l5 1-6.5.5-9.5 7.5 3.5.5 3-1 2.5.5-10.5 1.5-10.5 8.5-.5 1.5-45.5 39.5-.5 1.5-7.5 6.5-.5 1.5-13.5 11.5.5 1.5 7-2-1 2-9 1-9.5 8.5-2.5 3.5-8.5 7.5 2.5.5 3-1v1q-11.6-.1-14.5 8.5l.5 1.5 21-4v1l-25 5-16.5 16.5-.5 1.5-1.5.5-17 19 1.5.5 35-14-1 2-34 13-9.5 7.5-44 58 1.5.5 35-12-1 2-35 11-4.5 4.5-3 4 2.5.5 22-9h2l14-4v1q-26.1 5.9-45.5 18.5l-2 4 1.5.5 18-7v1l-19 7-4.5 3.5-33 49 1.5.5 3-4q17.8-11.7 40-19l2 1 3-4 6.5-3.5-2.5-3.5-7.5 2.5 2 3-3.5-2.5-13-3-1.5.5 1.5-2.5 2 1 14.5-7.5-4-7 1.5-.5 5 6 7.5-3.5-4-7h1l1.5 2.5 6 3 39.5-22.5-3.5-4.5-7 4-33 10v-1l35.5-11.5.5-1.5 1.5-.5q-5.5-8-6.5-20.5l-3 6-.5-3.5 4-9-2 1-1.5 3.5-1.5.5-1.5 3.5-.5-1.5 3-5 1-2-3.5-.5-4 2 1-2q7.2.7 9.5-3.5l3-7-1.5-.5-8 4 1-2 12.5-6.5 2.5-3.5 2.5-.5 1.5-2.5 2.5-1.5-5-1 9.5-2.5v2l4-2 4 1v-1l-2.5-.5-.5-3.5-7.5-2.5 7.5-.5 4.5 3.5.5 1.5 3 1 1.5-2.5-2-3 3 2 .5 1.5 6-4v1l-4.5 2.5 2.5 5.5 10 4 13-1v1l-12.5 1.5 5.5 9.5 4.5-3.5 4.5-5.5q3.3 1.8 1.5 8.5l-5 18 1 2-1 2 1.5 2.5 3-2 4 2 17-10 13 7h22l4-2 .5 1.5-1 3 2.5 2.5 29 1 .5-2.5-2.5-9.5-1.5-.5 2-1-3.5-8.5-1.5.5 1-3q-10.4-23.6-26-42l4-7-2.5-.5-2 1-3-1-10 3-23.5 2.5.5 1.5 13 3 3 1 6 1 4-2v2l1.5.5-20.5 22.5-18.5 14.5 2.5.5 29-24 .5 1.5q-16.4 19.6-41.5 30.5l-1-2-1.5-.5 22-18-1.5-.5-18 12-.5-1.5 27-19-2.5-.5-2.5 1.5.5-2.5 7-4-.5 1.5.5 2.5 13.5-12.5-.5-1.5-3 1-26-7-.5 1.5 3 1-2.5.5-2.5-1.5-.5-1.5-1 2-4.5-.5-.5-1.5-4 1-1-2 4.5-.5-2-1 6.5-1.5 6 1 25-5 31.5-11.5-3.5-5.5-2 1-7.5-4.5-1-3 2.5-3.5 15.5 4.5 6.5 9.5 1.5-.5-5.5-12.5q-8.6-.4-12.5-5.5l-2-7 2.5-.5 9 5 10.5 2.5 2.5 5.5 1.5-5.5.5-2.5.5 2.5-1 10 1 7-1.5.5-6-17q-11.8.3-17-6l-.5 2.5 16 9 4 13-5.5.5-6-9-13-3-.5 2.5 12 5 5 9-2.5.5-2.5 1.5-.5 1.5-1.5.5-7 9-1 5q15.3 15.7 24 38h-1l-.5-1.5-.5 2.5 4 2 1 3 1 2-1 3 6.5 14.5 1.5.5 3.5 4.5 1.5.5-2.5.5-4-3-2 3-2.5-1.5.5-1.5-4 1-26-2-8.5 1.5 1 2h-2l-1 4 2.5 4.5 11-1 5 1 4-1h4l7 1h2l23 1 4.5-3.5-1-2v-2l-2-9-9.5-13.5-1.5-.5-2.5-5.5-2.5-.5-14-24-.5-2.5-1.5.5.5-1.5-2.5-1.5-5.5-13.5-2.5-.5 2.5-3.5 12.5-10.5 2.5-3.5 2-1 1 2q4.8-2.2 3.5-10.5l-1-4 1-2-1-3 1-3-1.5-5.5-2.5-.5 1.5-2.5 3.5 1.5 3 21-1 2 3 1-5 4-4.5 5.5-11.5 8.5-3 4q12.9 34.1 36 58l4 12 3 3v4l-1.5 2.5-14 3-17-2h-2l-4-1-5 1h-2l-3 1-7-1-4 10-9-2 2.5 3.5 6.5 7.5 21 12 28.5 9.5 3.5 7.5 2.5 1.5 1 5-12.5 5.5h-12l-5-1h-2q-12.6-1.6-17.5 4.5l2 8-4.5 1.5-4-6-1.5 5.5 2 7-2.5 3.5-4.5-3.5-3.5-14.5q-5.4 5.1-6.5 14.5l1 2v2l-2.5 3.5-4 1-2.5-1.5q.7-18.3 10-28l-1.5-.5-8.5 7.5-7.5 11.5-6.5-.5v-3l9.5-15.5 13.5-9.5.5-4.5 1 4 2.5-.5q-.1-10.9-4.5-17.5l-18 3-.5-2.5 6-2-.5-1.5q-8.1-.4-10.5-6.5l-2-9 4-5-2.5-.5-3 5-2.5-1.5.5-1.5 3.5-1.5-1-2 2.5-.5 6.5-1.5-.5-1.5-1.5-.5 3.5-.5 21 7 2.5-1.5-1.5-4.5-2.5-.5.5-1.5 1.5-.5-3-1q-1.2-7.7 2-11l-1-2h1l.5 1.5 3.5-4.5-6.5-.5-18 2-13-5q-6.9 5.1-7 17l-.5-6.5 2-6-3.5 2.5-2.5 1.5-2 3-3 19-6.5 14.5-8-11-2.5 1.5-1.5 2.5-.5-1.5 1.5-2.5 1.5-.5-1.5-4.5-2.5 1.5-2.5 4.5-6 4-8-4-12.5 14.5 2.5 1.5 4-8 2.5-1.5 1.5-2.5-.5 1.5-.5 2.5-1.5.5-5 12 2 1-1 3 2.5 3.5 4.5-3.5-1-2 2.5-4.5.5 1.5-2 4 1.5.5 5-7 3.5-2.5-1-3 1.5-.5 2 4 2 1q3.3-1.7-.5-3.5l-2-3 .5-2.5 2 1 3-4 1.5 3.5-1.5-.5-2.5 1.5 15.5 27.5 7.5-1.5-10-8-4-9 2 1 1.5 4.5 2.5 1.5-1 2 11.5 7.5 3-2 1 2q9.5-1 13.5 3.5l-24 8 9.5 3.5h8l14-4v1l-19 5-16-4q-5.1 13.4-15 22l-2.5 1.5 4.5 5.5 4 1 .5-1.5-2-1-.5-1.5-1.5-.5-1-3 3.5-1.5 4 2 3 1 18 12 9 1 15-6 .5 1.5-16 6 5.5.5 12-2 1 2 7 5-.5-1.5-4-7 1.5-.5 10 12 .5-2.5v-2l.5-2.5 1.5.5-1 4 4.5 9.5 1.5-.5-2-7v-2l-3-21 1.5-2.5 2.5.5.5 10.5 1.5.5-1 7h2l-2 5 3 2 2 11 .5 2.5 9.5 3.5-.5 1.5-8-3-2.5 1.5-.5 1.5-2-3-4.5.5-.5 1.5-2 1-1-2-4.5 1.5-9 24-9 37v9l1 4-1 2 12 33v2l-1 8 1 2q-4.6 14.9-3 36l6 20-5 3q-.1 12.6 4.5 20.5l7-1 43-33q37.5-19.5 71-43 30.3-19.2 66-33v1l-52 25-81.5 51.5 1.5.5 42-23 34-14 25-17v1L759 700.5l1.5.5 5-1 .5 1.5-12.5 6.5v-1l8.5-4.5-1.5-.5-16 6-63.5 38.5 2.5.5 11-3 43-23-1 2-34 20-30 10-19.5 12.5 2 1-.5 1.5-3-1-27 17-56.5 46.5 1.5.5 14-10-3 4-16 10-1.5-.5-2.5 3.5-11.5 8.5-.5 1.5q-26 19.5-47.5 43.5l-2.5 5.5-5.5 3.5-15.5 20.5-4 1q-3-1.5 0-3l6.5-5.5 6-9-2.5 1.5-17 12-18 8-17.5-4.5 3-2-14-18q-4.1-17.4-14.5-28.5l-7.5-4.5-.5-1.5-6.5-4.5 3 1-4.5-6.5q-4.5-5-14-5l-7.5-5.5.5-1.5 3.5 2.5.5 1.5q13.9 1.6 21.5 9.5l12.5 14.5.5-2.5-17.5-29.5h-2l-3.5-1.5.5-1.5 4 3 .5-1.5-4.5-5.5-3.5-2.5-2.5-3.5-25-12h-4l-13 2-7.5-5.5-5.5-8.5-8-1-6 1-5-2-20 2q-27.9-2.1-42.5-17.5l-7-11-2-12 5.5-9.5 29-23 22-8 5-4 9-1 .5 1.5-37 15 1 2-1.5-.5-13.5 10.5 1.5.5 3-2v1l-6.5 4.5-5.5 16.5-1.5.5-.5 1.5-.5-1.5 7-18-1.5-.5-8.5 7.5-4 6v5l3.5 10.5 1.5-.5 1.5-7.5.5 2.5-2 6 3.5 6.5 1.5.5.5 1.5q12.7 11.8 36 13l7.5-1.5-.5-1.5-5.5-3.5-3-9h1l4.5 9.5 5 4 13 1 3-4q1.9-4.1 9-3l5.5 3.5 2.5 3.5q15.7-1.2 27 2 11.3 4.2 18 13l8 3 5.5 5.5q1.8 10.2 8.5 15.5l2.5 1.5 23.5 39.5 1.5-.5.5-2.5q3.4 15.6 14 24l4.5.5.5 2.5 4-1q4.7 3.8 15 2 19.1-5.4 29.5-19.5l.5-1.5 10.5-9.5 4-7-4-3 9.5-11.5 34-25-2 3q-20.9 12.6-37.5 29.5l-1 4 3 2-1 5 5.5-4.5q23.9-26.6 53-48l.5 2.5q-25.5 16-44 39l.5 1.5 58-48 .5 1.5-.5 2.5-2-1-4 7 60-47L739 710.5l-.5-1.5q-38.2 15.3-70 37l-58 42-31 26q-2-2.5 2-5l15.5-12.5-1.5-.5-29 21 2-5q2 3 4-2l58.5-39.5-.5-1.5 2.5-.5-2.5-.5-18 4-6-1-3 1-5.5 1.5-.5 1.5-11 5-2-3-7.5 1.5 4 2-2.5.5-4-2-10 2-3-1-9 1-1.5-4.5 1-2-3-2 1.5-.5 2 1 1-2h2l7.5-3.5-.5-1.5h2l4-2 .5 1.5-1.5 2.5 5.5-.5.5-1.5 5 1 25.5-12.5-.5-1.5q6.5 1 7.5-3.5l-.5-3.5-2.5-.5.5-2.5 3.5-.5-.5-2.5-3.5-1.5q8-9.5 6-29l-3-19-9.5-26.5-3.5 6.5 1.5.5 1-2 .5 2.5-.5 1.5-2.5.5-1 3 1 2-3 2-4 7-.5 15.5-1-5-1.5 3.5-9.5 20.5-1.5.5-1.5 2.5-5 1-1.5-6.5 10-24 5-32-4.5-6.5-6 5h-4l-7.5-15.5-5.5-5.5-34-17-34.5-7.5 2-1-4-7v-6l3.5-7.5 8.5-5.5 2.5-3.5 41.5-34.5.5-1.5 18.5-15.5 2-4-3-6 9-8-.5-1.5-9.5 7.5-.5 1.5-1.5-.5 17-15 1-10-1-2 1.5-.5 1 6 2.5-5.5-3.5-6.5-1.5.5-.5 1.5-10.5 8.5-3.5 4.5-2.5.5 1 2-8.5 9.5.5-1.5-.5-1.5-22.5 25.5-4.5 8.5-2 1-27-15-33-11-23 18-14.5 5.5 2.5.5 16-4 3.5 1.5-.5 1.5h-7l-15 7v-2l-13.5 7.5-2 6 1.5.5 1-2 26-8v1L406 567.5l-1 2 1.5.5 21-8h15l9.5 2.5-.5 2.5-3 1v-1l1.5-.5-.5-1.5-19-2-15.5 5.5-.5 1.5-3-1-9.5 6.5 4.5.5 9-3 23-1v1q-17.2-.7-28.5 4.5l10 2-1.5.5-3-1-2 1-4-2h-2l-7.5 1.5-4.5 14.5-2.5.5 3 2-4.5 3.5-1.5-.5-9.5 32.5-1.5.5-4 21 3 1-1.5 2.5-3.5 1.5-1.5 3.5-3-1-23 15-13.5 13.5-11 15-5.5 11.5-1-2-1.5.5-2.5 3.5-4 1-1.5-2.5 2-3-1-3q17-26 21-65l-1-4 6-4 34-45-.5-1.5 1.5-.5-3-2 6-3-.5-1.5-2 1-1.5-3.5 1.5-3.5 7.5-3.5 5-9-7.5-13.5-4-2-.5 1.5 1 2h-1l-2.5-4.5-5.5-1.5 2.5-.5 2 1 .5-1.5-4-7 1.5-.5 5 10q7.6 1 10 7l.5-1.5-3-20h1l3 24 2.5 5.5q3.8-2.2 2.5-9.5l-1.5-6.5-1.5-.5-2-14q-4.1-11.9-13.5-18.5l-5-1-2.5 3.5 1.5 2.5-2.5-1.5 1.5-5.5h7l8.5 8.5.5 1.5 1-5 7 21 1.5.5 1 15 1.5 1.5 5-11 1.5-.5-1-2 1-3-1.5-2.5-1.5.5q.1-42.4 16.5-68.5l.5 2.5-1 11 1.5 5.5q1.3-24.7 9.5-42.5l-7-10 3.5-.5 3.5 2.5.5-2.5 6 23 1.5-.5 2-15 3-7v-2l7-18-15.5-2.5-3 1-2-3-6-2-5 2-3-6-6-1q-3 6-13 5l-3.5-2.5 1.5-2.5q4.7-4.8 14-5l7 4 .5-2.5h-2l5.5-20.5 6.5-1.5-7.5-4.5-14 2-3-1-5.5-3.5 1-2-1-3 2.5-.5q5.4 4.1 16 3l8-2q6.2 6.8 17 9l-.5-1.5q-.1-9.4-5.5-13.5l-5.5-4.5q-4.9-1.6-4-9l3.5-7.5 5.5 10.5 8.5 8.5 1.5.5.5 1.5 2.5 1.5h-2l7.5 16.5 3.5 1.5 5.5 14.5 38.5-65.5q18.2-27.8 41.5-50.5l1.5-.5 4.5-10.5.5 3.5-1 2 1 2-5 37 1.5.5 10.5-25.5-1-3 17-28-.5-1.5 1.5.5.5-1.5 1.5-.5q7.5-6.5 10.5-17.5l.5 2.5-2 3 1.5.5 38-41 .5 1.5-8 7-4.5 5.5-1.5.5-.5 1.5-1.5.5-22 27 2-1 12.5-13.5 49.5-41.5.5-1.5 1.5-.5.5-1.5 6.5-2.5 1.5-2.5 1.5-.5 1.5-2.5 2.5-.5.5-1.5 5.5-1.5-.5-1.5 2 1zm36.5 39q-79 54-147 118l-1 2h-1l-1 2h-1l-17 19h-1l-1 2-3 2-5 7h-1q-45 46-81 102h-1l-5 9h-1l-4 6v2l-1-1-34 52-18 33 1 3-2 4-1-1-2 1 1 2-3 1 1 2-1-1-1 2v2l-4 7 10 3v2h3l4-9v-3l-4 6-3 2 7-16 1-3 3-4 3 1 1-2h-2l3-1 3-6v-2l15-26-1-2 30-50 6-6-3-1 2-1 12-14 2-1 3-4 2 1v-1l-2-1 3-1v-2l3-2 2-3h-2l3-4 1 2v-3l3-1 3-6 4-3 4-10 5-3-1-1 2-3-1 2 1 1 2-3-2-1 1-2 2-1 1 2 6-8 2-1 8-11-1-1-1 2h-3l6-5 47-53q-4 2 0 4l18-14v-1l2-1 5-6 21-18 1-2 5-3v-1l3-2 1-2 39-34 1-2q2-5 4-2v-1l27-20v-1l17-13zm-168 74-8 12 1 2 7-11zm-40 30-4 6-2 1v2l-7 10-1-1-1 3-17 24 1 1q18-20 31-44zm62 22-9 12-2 1-13 15h2l20-22 6-4v-1zm-156 18 3 14 3 1q7 6 9 18l4 2h1l-7-17-1-1-10-11-1-5zm245 1-22 9-9 1v1l21-3 11-7zm-115 11-7 8 7-6zm-158 14-1 2 6 3 11-2 14 7h8l-17-10-10 2h-2zm43 10-12 3-4-1h-2l-2 1-3 3-3 14 1 1 8-14 3 1 3-1 5 1 5-1 1 1h-1l-1 2h2l2 3 2 9h-1l-1 2-3 3-7 1-7-4-8 3 1 1 2-1 10 5 5-1 9 2h5l-4-6 2-1 3 5 5-9-5-17zm123 6-11 5q-2 5-4 2l-8 9h2v-1h1l-2 3-1-2-1 5h2l-1 3h-1l-3 5 1 8h2l-2 3 2 5q2 4 9 4l3 4 1 10 8-4 2 1-1 2h-3l-1 2 5 1 12-3h1l-10 5 7 2 11-16 2-1-1-2 1-3 4-7-2-5 4-1 8-23-1-1-11 15 1 4v4l-1-2-1-1-1 2h-1l-3-3 2-6 5-4-3-8-5-5-1 2h-1l1-2zm-138 4-6 12q9-1 14 4l4-1 3-4-1-6q-3-7-14-5Zm-26 13-6 5 1 1 12-4v-1zm196 26-4 1-2 3h3l-5 6 1 1-2 4h3l3 5-1 3 3 2-2 3-2-1-2 1 4 5 3-6 4-20 1-3-2-3zm-48 15-2 4-17 10v1l11-4 1 1-31 13-2 3 5 3 7-2-1 2 2 1-5 4 5 5 25-16-3-3-1-1 12-6-1 2h2v-2l6-4-4-4-5 1zm83 2-2 1-8 9 2 7q3 7 14 7l3-1-4-1-3-3 3 1h4l-1-2 1-4 2 5 3 1-4 2 1 1 2-1q27 5 43 21l8-4q7-1 9 3l-2 1-2-1h-4l-10 5h-17l-3 1-5-2h-8l-16 9-3 5h-1l-7 12h3l6-11q4-7 14-9l2 1q-10 10-11 29h2l2-12 6-10 3-2v-1l2-1q-2 12 2 19l2 1-1-4 1-10 3-2 5 8h1l-4-8 2-3 2 1 3-2-2-1 4-3 1 3 11-3 3 2 11 1 8-1 7-4v-2l-2-2-4-6-29-11-13-7-1 2-14-13-11-5-7 2-2 3-3-1 6-4-4-1-2 1 6-4 2 1v-1zm-152 9-7 5 4 1 4-5zm-7 9-7 10 1 1 7-10zm31 8-5 3 2 2 7-2v-2l-2 1h-2l2-1zm147 0v4l2-1 1 1-2 1 5 13 7-1-1 3 22-1v-1l-19-12-2 1v-1l-5-3-2 1-1-1zm-104 1-23 16-3-1-4 12 2 2 6-3v-1l21-12 1-3 2-1 1-2v-3l-1 2-2 1 2-6zm-53 3-5 3v1l7-1v-1zm85 4-2 5q3 4 5 2zm-66 1-7 5 3 7 4 2v-1h1l-1 3h2v2h2l2-9-2-5-2-2-3 4-3 2 4-6zm63 1-1 3-4 3 1 3h-2l-1-2-1 3h2v3h2l3-5-1-3 3 1zm-10 1-3 4-6 3-2-5-5 1-2 4-2-1-21 12-1 3-8 2-13-17-19 13-13 15h2l1-2 3-1 9-6 2-3 2-1 4-4 1 2-11 13q16 8 40 9l10 5 25-29 8-16zm16 5-6 6 1 1 2-1 4-5zm24 3-11 3-2 5 1 1 21-6v-1zm-117 1q-22 8-38 20-4 2 0 4h-1l-1-2-5 3-2 4-1 2 31-16 2 1 4-6 12-9zm78 1-8 12h-1l-24 28v4l-14-4-19-10-7-1v3q-5-6-14-7l-2 3 5 1h2l3 2-3 1 8 3h2l-2-1 3-1 2 5 2-1 22 12 9 1v3h2l13-18 2-1 4-6 5-5-1-1 7-12 2-1 2-5h1l-1 5h-1l-7 10 1 1 5-7 2-1 7-9-1-1-2 3-2 1 1-2-1-3zm-96 16-31 16-8 12 1 3-2 1-8 14h3v-2l27-17 2-3-15 6h-2l1-3 21-10 5-6 2-1 5-9zm4 13-1 2 7 2h2zm40 4 3 3 12 4h1l-8-6-3 1-1-1zm73 4v3l14 5h1l-12-8-1 2-1-1zm-6 7-13 9v1l3-1 1 1-11 4 3 1-13 7-33 27v2l-1-1-3 2-3 4-2 1-1 2-4 2q-6 2-4 12l9 6 4-1 17 5 32 15 18 14q2 5 4 2l1 1-2 3 1 2 3-1v-1l1-3 2 1 1-2-1-1-1-2-1 2h-1v-1l-18-13v2l-1-2-1-2-2-1-3-4-1-1-1-1-3-3-2-2h2l-8-11-4-4-17-1-1 3-7 4h-2l1-2 4-5-8 3h-3l9-4-4-5 6-4 1 1-5 3 2 2h3l-3-1 4-1 2-5 18-14 17-5 19-9q3-2-1-4l-2 1-2 3v-2l-2 1-1-1 11-4v-1l-12 2h-2l10-3-5-3 2-4v3l4 2 6-1-1-2 2-5 1 3 2-1 6 2-1-1 1-2 1 6 6 4v3l4 1v2l7 4 3 5v1l-3-2-1-1-1-1-3-1 2 14-1 4 1 10v2l-1 17h-1l-1 6 1 3-1 3-1 3 1 13-1 3h3l5 8-1 2h3l5-1v-1h-1l-1-1 3-1v-6l-2 5-5-3v-1l2 1 3-4q2-30 10-52l-1-4 1-2v2h1l-4-11 1-3 1 5 2-1-1 2 2 2 2-3-2-6 1-4 1 2v-1h1l-1 2h2l4-12-2-3 2-1 1-6-12-10-4 1 4 6-1 1 3 6v1l-3-5h-1l1 3v1l-4-10-4-3-1 2-24-7-5 2-2-2zm67 20-1 3 10 3h2q-2-5-3-2zm-233 1-5 9h2l4-8zm178 7-38 20h-2l4-2 1-2-10 4-1 2 4-2 1 1-6 3-3-1-1 2-1-1-1 2-3 2q-6 1-5 8h-1l-1 2 5 1h2l13 3 9 14 23 18 14 4-1 6 8 2 1-4 1 1-2 4 3 1 1-5-1-6-1 4h-1l2-10-1-3v-2l3-18-2-40-4-5-2 1-1-3-1 2zm-202 15-3 4 6 1h2l4 2 1-2q-2-6-10-5Zm-4 8q2 4 11 4v-1q-4-4-11-3Zm-2 3-33 43h-1l-9 11-2 1 1 10q-2 20-10 35l1 2 22-41 1-10 6-5 6 5-1 6q-1 4-6 3l-21 36 1 1 4-5q14-17 36-26l2-2q-1-9 2-13l-1-3 6-19-1-3h2l2-12 3-4 1 2 2-7zm202 51-1 3 6 3 2-3zm12 11-2 7 1 2-1 2 2 1-6 30h4l-3 1-8 20 1 4 5-8 3-14v4l1 2 2-4-1-7h2v-4l-1 2h-1l15-28-6-5-1-1zm27 5-3 2-1 2 2-1 2 2-4 1-3 2 1-2-2-4-3 1 7 11 3-2v-1l2-1-1 3-3 1-1 3h-2l7 25 1 11q1 16-3 29l10 4 3-1h2l-1-3-4-3 1-2-2-7-2 1 1 2-1 5v2l-2-4 2-18v-2l-1-2 1-3v-2l4-23v-8l-6-15zm-41 58-3 5 1 4 2-1zm42 32-3 8 3 1 4-1-2-6zm-9 9-3 1-1 2h-2l-1 2-22 10h3l4 2 5-2 1 1-3 1v1l17-6-1-1h-2l-1-2 8 1v-1l4-3 1 1-2 1-1 2 7-2 2 1 3-1-1-7-3 4v-1l-2-1h-2q-2-4-8-3Zm-36 15-10 2 6 2q9 2 12-2zm-13 4-2 3h8zm-244 18-4 2-1 2h-1l-1 3 5 1 3-1 6 1h2l-2-4zm12 7-1 2 10 2 21 11 3-1 4 1-4 1 12 5 2-1-1 2 7 3 6 6-4-8-9-7-1 2 1 1-6-6q-12-15-40-13Zm3 5 1 6 8 5h11l1-1zm240 16-6 4-5 6-12 9-1 2-7 5-1 2-47 36-5 6 13-8v-1l2-1 1-2q2-5 4-2l17-13v-1l15-11 6-7 2 1v-1l2-1 1-2 15-12q4-2 1-3h2l4-3zm-45 42-29 25-23 14-3 4-3 1-1 2 11-1 8-7-1 3 12-9-1-1-4 3 5-4h2l9-11 18-17zm-110 13 6 14 5 4zm5 16 8 18 4 3q-3-14-12-21Zm11 11 8 17 10-5 3-4-3 1v-1l-4-2-1 2h3v1h-8l1-4zm19 3-1 2 4 1 6-1zm21 4-9 3 5 2 8-4zm-18 4-9 5q-5 2-1 4 9 2 13-2 2-5 4-2l5-2v-1l-2-1h-2z"/><path fill="#232221" stroke="#232221" d="m728.5 175-1.5 2.5-3.5 5.5.5-1.5zm20 2-1 2-7 4 1-2zm-80 18-.5 1.5-6.5 13.5-.5-1.5zm-8 16 .5 1.5-4.5 8.5-.5-1.5zm4 9 .5 1.5-4.5 8.5-.5-1.5zm-9 2 .5 1.5-8.5 22.5-1.5-.5zm25 15h2l9.5.5-11.5 1.5zm-140 30-3.5 4.5-1.5 2.5-.5-1.5zm189 0 2.5.5-.5 1.5-25 5v-1zm-121 1 .5 2.5-3.5 10.5-.5-2.5zm208 0 2.5.5-20.5 14.5 2-3 13.5-9.5.5-1.5zm-230 4 .5 1.5-10.5 28.5-.5-4.5zm115 2 2.5.5-41.5 8.5v-1zm-37 34 14.5 8.5-.5 1.5-14-8-1 3-.5-3.5zm39 17 9.5 3.5-2.5.5q-6.5-.5-7-4Zm27 11 .5 4.5-5.5 7.5 1.5-2.5zm-234 19 .5 5.5-1.5 4.5-.5-3.5zm-22 18 .5 2.5-3 11v2l-1.5 5.5-.5-3.5zm47 5-1.5 2.5-1.5 3.5-4 3 1.5-2.5.5-1.5 2.5-1.5zm-34 9 1.5 5.5-2.5 5.5-.5-2.5zm58 41 7 1 3-1 1 2-8 2-3.5-2.5zm5 6 6.5 1.5-1.5 3.5-6.5-2.5zm-111 1 .5 1.5-2.5 7.5-.5-3.5 2-4zm164 0 1.5.5 3 7-3-2zm-257 2q2.2 12.3 10 19l4.5.5-4.5.5-2.5-1.5q-7.9-6.8-7.5-18.5Zm28 8q12.9-1.4 16.5 6.5l-2.5-1.5q-3.4-5.1-13-4l-4.5 3.5-3.5 4.5-5 2v-1zm217 10 .5 2.5-7.5 12.5-4.5-2.5 1.5.5 6.5-3.5zm-18 1 1.5 2.5-1 2v2l-.5 1.5-1-3-1.5-.5zm-174 5 2.5 1.5-2.5 15.5-.5-3.5 1-12zm157 1 .5 2.5-1 4 1.5 2.5-4.5-.5zm-5 1 .5 2.5-3.5 10.5-1.5-.5zm79 10 2.5.5 2 5v2l-.5 4.5-2.5-5.5-.5-2.5-1.5.5 1 2-2-1 2-4zm-5 8 3 7 1.5.5v2l-.5 2.5-2.5-2.5zm-252 20 1.5 5.5v2l1 8-1.5.5zm72 18-2 3-9 7-.5-1.5zm133 1 29.5 15.5-1.5-.5-23.5-11.5-.5-1.5zm-125 11-.5 1.5-6.5 7.5-2 1 3-4 1.5-.5.5-2.5zm117 12 1 2 1.5.5 1 2-1.5 3.5-1.5-.5zm18 0 10.5 3.5-2.5.5q-7.4-.2-8-4Zm-142 9 3.5.5-11.5 3.5-1-2zm-26 1-2 3-4 2v-1zm175 2 1 5 9.5 3.5-2.5 1.5-1-2-7.5-2.5zm-37 7 1 2 1.5.5-2 1 1 3-2.5.5-2 1 1-2 2.5-.5-2-3zm-11 5 .5 1.5-1 2 1.5.5 4-2v1l-2.5 1.5.5 1.5-2 1-1-2-3 1zm-9 5h2l2.5.5-6.5 3.5-.5-1.5zm-117 8 4.5 2.5q7 8 7 23l-3.5 2.5-1-2q1.8 2.8 3.5-1.5-1-15.5-9.5-23.5zm105 1-4 5-2 1 3-4zm320 64 2.5 1.5-.5 2.5-4 2 2-4-8 2v-1zm-14 5 1.5.5-14.5 6.5v-1zm-1 31 2.5.5-10.5 5.5-1-2zm-534 47 .5 1.5-9.5 3.5v-1q6.8.3 9-4Zm-58 15 1.5.5-13.5 8.5 2-3zm-13 14q3.5 2 2.5 8.5l-6 10-1 7 5.5 7.5 2.5 1.5-1.5.5q-8.3-3.1-7.5-15.5l7-11v-4zm298 3 15.5 1.5-13.5.5-2.5-.5zm139 6 3 1 4-1 .5 1.5-8.5.5zm-417 2q-.7 7.2 4 9l7 1 13-3 9.5 4.5 1 2-4.5-3.5-11-1-14 2-4.5-3.5zm475 8 2.5 1.5-.5 1.5-14 3 1-2 10.5-2.5zm-182 2 1 2 1-2 2 3-5-1-8 3v-1zm-218 39 4 1h2l2 1 3-1 3.5 4.5-1.5.5-6-4-7-1zm48 9 .5 1.5-3 5 13.5 5.5 2-1 .5 2.5 6 12-2-1-7.5-10.5-10.5-2.5-1.5-2.5-3.5-1.5 2.5-4.5 2.5-1.5zm85 98-1.5 2.5-7.5 11.5-.5-1.5z"/><path fill="#fcfcfc" stroke="#fcfcfc" d="M.5 0 1024 .5l-.5 1023.5L0 1023.5zM760 108l-14 5-1 2 17-6zm-21 8-29 15-1 2 33-16zm27 6-37 13-18 9 3 1-6 5-4 3 2-5 5-3-1-1-1-2-4 6-1-1-4 1-1 2h4l-7 11 1 1 5-6 2-1-11 16-4 3 6-22 2-1v-2l-6 2-1 2q-26 9-44 25l-1 2-12 7-1 2-7 5h3l-20 15-6 6-1-1-2 4h-2l-2 4-11 9-9 8 22-24 1 2v-2l1-2 2-1v-1l16-15v-2l-10 8-29 31-7 6 17-53v-2q-11 23-17 51-3 10-10 16l3-4-1-1-5 5q-9 24-25 42l1 2 1-3 2-1v-1l2-1v-1h1l-8 20-2 1 4-32 8-9v-2l-6 5-1-2-2-1-4 10q-25 22-43 51l-38 66-3-7 2-5v-2l-2 4-2-3-3-3-8-14 2-1-1-2-1-1q-10-5-14-16v-2l-3-3q-4 1-3 7l-2 1 5 10 5 3q5 4 6 14v1l-18-10-4 2q-12 1-19-2l-3 1 1 5q3 5 12 5l8-2q6-1 8 4h-3l-6 18-14 3-7 4-2 3 4 2h7q3-5 12-4l3 6 4-1q8-1 10 4l4-1 14 3-9 19 1 2q-4 7-4 20l-2-1 2-19-1-5v-2l-3-8-2 1 1 5h-1l-2 8-4-2-3 1 3 5-6 29h-1l-2 4-2 1 2-17-1-1-2 5-2-2q-7-11-19-15l-6 1-5 6-10 5-3-1q-8-7-9-20l-2 1q1 14 11 21 9 1 13-3v-1l8-7q9 1 14 6l9 13q0 12-5 20l1 3v-2l2-1-6 22q-3 13-2 32l-4 7-2-3q5-4 3-13v-4l5-27-1-1-4 11-4 26-4-18-2-1 3 10v4l-3-8v-2l-3-22v-4l-2 1q-1 15 3 26v1l-1-1q-4-8-14-9l-4 6 6 3v-1l-3-1 1-4q7-1 9 3l6 9q-2 15 2 26v1l-9-6-5-10-2 1 3 7v1l-5-1-6 1-2 3 3-2 11 1q6 6 7 17l1 3h-1l-1-3-3 2h2l1 9-5 2 1 8-3 1 1 3-1 2v2l-2 1-1 2h-1l-1 2-1 3-28 32 1 4-6 4 1 3q1 8-3 13l1 2-2 4-2 4 1 3-1-1-2 4 1 6h-2l1 2-4 13-1-2-2 4h2l-2 4h-1v2h-1v2l-5 11-1-2-3 2h2v1l-2-1-4 1h-3l2-1h2v-1l-2-2-1 2-7 2-4 5 5-3 2 2-19 7-9 6-24 8-9 6-5 7 3 4v6l-7 12 2 9 17 11 34 7 3 1q13 1 23-3l24 1 4 7 7 6-5 1-4-2-5 2 11 2 9 6q15 2 22-5l7 2 1 3-5 4-2 3 1 2 5 1v3l12 2 7 12 1 1-15-5-7-6-1 3 8 6-1 2 2 4 3 2-3-5 1-2 12 3v3l3 5 5 2q4 4 5 13l3 23 9 17q4 4 14 3h2q9-1 14 4l9-1 2-1-9 12 1 3 9-14 10-6 8 3 7-2q4-2 1-3h2v-2l7-10 7-6 8-11 54-49 53-35 1-2 4-2v-3l-3 2-3 4-40 26-2 1 66-52 8 2-10 3 5 1-16 9-1 2h-1l-2 3 1 1 2-1v-1l12-7v-1l11-6h2l3-1v-1l3-2 5 2-5 2 2 3v-1h2q4-6 17-4l-5-2-1-1 4-3 9 1 3-1h2l18 1h2l11 2-8 4 1 1 16-4v-1l-7-4-2 1-11-1-4-3-17-1 1-2 15 1 4-1-1-2h-14l13-6v-1l-15 6-3-1v2h-11l10-5v-1l22-11 2-3-34 17-1 2-3 1-1-1 5-3v-2l-3 1q-6 2-3 5l-1-1-4 1h-2l-5-1q12-11 31-16l3 1-6 4-2 3 27-16v-1l31-18v-2l-45 24-9 2h-2l63-38 14-5 1 1-9 4 1 1 13-7v-3l-3 1h-2l35-24 29-14 1-2-29 13-1 2-35 23-32 13-36 19-2 1q19-16 44-25l2-3-6 3-2 1q51-36 116-59h1l-8 5-1 2 18-8-1-2-2 1-3-1-20 6-54 25-59 37-27 14-48 36-2-1-4 2 3 1h-3l-1-2-3 1-1-1 15-12v-3l-2 1-5 6-5 2-1 2-3 1-2-13 5-3-6-16-1-14 3-23 7 17 3 2-10-21v-17l-8-16q1-9-3-12v-8l2-3 3-18-1-4 1-3 1 3 2-8-2-1 2-1 1-4h-2l6-20h1l-4 36h2l3-35 4-13 3 2-2 12 1 5 2-16q1-4 7-3l3 15 1-15 10 2v-1l-9-4q-5-9-5-21l1-3-4-7 1-9 2 1v2h3l1-2-1-5 1-9 4 7 4-1-1-9 6-4 22 1q11 1 16-5l3 1-1 3h2v-4l3-1q3-1 0-3l-1 2-3-5-1-1-3-5-7-6-15-4-7-5-1 2-1-2-1-1v2l-1-3-2 1-18-10-6-7 1-2 7 3 2-8 11-2 2 1h2l4-1 2 1v-1h2l3-1 18 2h6l5-2v2l2 1-1-3 2-3-1-5-1-1-5-12-23-31-13-29 15-12 4-6 4-2v-2l-1-1v-1l-3-17 13-10 1 1-9 8 2 2 35-24v-1l5-2h2l3 1v-1q2-4 8-3l-1-3-3 1h-6l15-6q24-1 44-7v6l-5 9h2q6-3 4-14l15-6 1 1-15 11 1 1 21-14-1-3-20 6-1-8v-2l3-17 12-13-1-1-6 7-4 3 5-16 9-15 15-34-1-2q4-5 2-15l2-3-1-2 3-1v-1l-3-3-4 11h-1l2-10-1-4-2 1-6-10 4-1-4-1-6-7h-1l-10-3-7 1-19-2 2-2h9zm-62 12-18 11-1 2 21-12zm147 2-4 9 1 1 4-9zm-174 15-6 4 1 1 6-4zm-84 22-5 8 1 2 4-8zm21 1-4 2-1 2h4l2-1-2 4 1 2 3-8zm213 21-4 5-4 3 1 2 8-9zm-79 100-7 8 8-7zm-20 3-6 7 4-2v-1l3-2v-1zm2 13-18 13 1 3v-2h2l15-12zm-13 1-8 6-3 4 11-8zm-13 10-3 5 2-1 8 3 1 8 1-7q11 0 17 7l-1 5-11 16 1 1 4-3 9-16-1-4-8-6-16-4q-5-2-2-3zm-324 10-7 12h2l5-10zm275 127 2 2v2l3 1h1zm248 160-10 4q-3 2 0 3l13-6zm-38 21-8 4-1 2 11-5zm-84 37-12 6-1 2 15-7zm52 3-22 11-16 5q-3 2 0 3l3-2 2 1-2 1 1 1 5-2v-2l1-2 1 2 10-4v-1l18-8zm-86 6-15 7 1 2 15-7v-1zm16 1-24 14-1 2 26-15zm-40 10-4 4-1-1-5 3 1 1 8-3v-1l3-1zm68 1-4 2-3 1-29 15 1 2 37-19zm-80 6-9 5-4 4-1-1-2 1-2 3-16 9-2 3-1-1-15 12-7 3-1 2-1-1-3 4-2 1 2 2 1-2 18-12v-1l13-8v-1l34-21zm57 10-4 2q-3 2 0 3v-1l5-2zm-31 11-8 4-1 2 10-5zm5 2-6 4 1 1 8-4zm-15 8-4 2 1 2 6-3zm-14 7-4 2-1 2 7-3zm30 20-1 2h9zm-91 22-11 8 1 1 10-6zm-13 8-9 5-1 2-3 1-2 3 16-9v-1zm-18 10-17 11-2 3h3v-1l18-11zm-21 14-9 7 1 1 10-7zm-16 12-12 7-3 4-3 2h3l2-3 14-9zm-28 19-3 4h-1l-1 2h2l2-3 2-1v-1zm-7 6-3 2-1 2-8 5 1 1 3-1v-1l7-4 1-2zm-14 10-5 4 1 2 1-2 4-3zm-11 9-5 6 4-2v-1l2-1v-1z"/><path fill="#fcfcfc" stroke="#fcfcfc" d="m764.5 125 4.5.5-1.5 2.5-15 3v-1zm17 4 3 1 1.5-.5-1.5 2.5-12 4-.5-1.5z"/><path fill="#fcfcfc" stroke="#fcfcfc" d="M801.5 130q11.5-.5 14.5 7.5l-1 2 2 4-1.5.5-9-3-.5 1.5 7 2-10.5 2.5-22.5 11.5 2.5.5 11-5-1 3 2.5-1.5.5-1.5 1.5.5.5-1.5 7-3 2 1 11-6 3.5 12.5v2l-1 18-13.5 27.5-1-2-5 11-1.5.5-4.5 6.5-5 3-1-2-1 3-3 1-12 3 .5-1.5-.5-1.5-7 5-28 6-38 5h-16l-2-1-.5 1.5 1.5 1.5h19l24-4h2q21.4-1.6 38-8l.5 1.5-18.5 19.5-2.5 1.5.5 1.5 5.5-4.5 4.5-5.5 1.5-.5 13.5-14.5 10-2 3-1 5-2-3.5 4.5-.5 1.5-1.5.5.5 2.5 6-7 1.5-.5.5-1.5 4-3 .5 1.5-23 28 1.5-.5 12-11-5.5 6.5-2.5 3.5-23 11-.5-1.5 6.5-7.5q1.8 2.8 3.5-1.5l-.5-1.5 1 1 6-6 1.5-.5-.5-1.5-1.5.5.5-1.5 1.5-.5 2.5-4.5 1.5-.5-.5-2.5-8 9-2.5 1.5-.5 1.5-4.5 3.5-3.5 4.5-20 11h-2l-42 11-39 6-1.5 1.5 5.5 1.5 70-15-1 3 7-5 12-3 .5 1.5-2 1-.5 1.5-18 6h-2l-33 9h-8q-2-3-4 2l-9.5 3.5.5 1.5 1.5-.5.5-1.5 10-1v1l-1.5.5.5 3.5 19.5 1.5q-3.1 5.4-10.5 6.5l-67 12-2-1-35 8 6-7 16-4 2 1 8-3 37.5-5.5-8.5-.5-30 4-21 5 2-3 7-6 24-4h2l11.5-1.5-.5-1.5-34 5 5-6 1.5-.5.5-1.5 1.5-.5.5-1.5 3-2 2.5 1.5.5-1.5 8.5-2.5-1-2-.5-2.5-2 4-2 1v-2l-1.5.5-.5 1.5-.5-1.5 48.5-44.5h5v1l-2.5.5 2.5 1.5 4-3q50.9-4.1 93-17l-1.5 2.5.5 1.5q4.8-7.2 15.5-8.5l-2.5-.5-6 2 .5-1.5-.5-1.5-4 4-23 6-66 11-.5-1.5-.5-2.5-2 3-8 1 5-6 8-2-2.5 3.5 1.5 1.5 1.5-.5-.5-1.5 2.5-.5-.5-1.5 2 1 1-3 2 1 4-2 14-1 67-12 3-1 9.5-2.5-3.5-.5-4 1-3 1-65 11h-2l-2.5-.5 8-3-3.5-.5-7.5 3.5 2 1-1.5.5-3-1-2-1q-5.9 4.6-17 4l2-3 4-3 13-1 39-9 40.5-13.5-3.5-.5q-32.5 13.5-72 20h-2l-10 2-.5-1.5 30.5-23.5 16-7q1.7 2.7 3.5-1.5l-2.5-.5h-2l-8 3 1-2 16.5-10.5-2.5-.5-35 21 .5-1.5q17.7-30.8 41.5-55.5l6-1 .5 1.5q-20 17-33 41l1.5.5q14.6-24.4 35-43l7.5.5-7 6-16 18-4 9 2-1q8.1-14.9 20.5-25.5l10.5-7.5 1.5-2.5 3 1 3-1 4 1 4-1 2 1 .5-1.5-10.5-1.5-3 1 1-2 6 1zm.5 1 3 2v2l9 4h1zm-17 5 1 2 6 1h3zm1 38-45 18q-5 2-1 4l48-21zm9 24-6 7 1 1 5-6zm-50 58-5 6 5-4z"/><path fill="#fcfcfc" stroke="#fcfcfc" d="m769.5 131 3.5.5-2 1-.5 1.5-1.5.5-.5 1.5-6.5-.5zm-9 2-3 4-17 3v-1zm-10 6 5.5.5Q730.5 166 711.5 199l-1.5.5-.5 1.5h-2l-1.5.5.5 1.5-2-1-1 3-5.5 1.5-.5 2.5-2.5.5.5 1.5-6 4-2.5.5-.5 1.5-2-1-1 3h-2l-7 4-.5-2.5 9-24h-1L669.5 227l-6.5 4.5 1.5.5 13-9-2 3-54 42v-1l7.5-5.5.5-1.5 19.5-15.5 1.5-2.5 8.5-4.5 2-3-1-2 20.5-39.5 3 2 4.5-3.5 1-5 26.5-36.5 12-5 2 1 1-3 3 1v-1l-1.5-.5 3.5-1.5v2l5-2 2 1 3-1zm71 12 1.5.5-.5 8.5-1.5-6.5z"/><path fill="#fcfcfc" stroke="#fcfcfc" d="m685.5 159 .5 2.5-2.5 3.5-13.5 7.5 1.5.5 12-7-.5 1.5q-22.3 34.2-37 76l-5.5 5.5-1.5.5-.5 1.5-8.5 6.5-.5 1.5-3.5.5-1.5 2.5-1.5.5-.5 1.5-.5-4.5 8-32 10.5-24.5 1.5-.5q-.3-6.8 4-9l-1.5-.5-3.5 2.5-14 36-7 33-2.5 3.5-4.5 3.5.5 1.5 2.5-1.5.5-1.5.5 1.5-2.5 3.5-6 4 3-5-3 2-.5-2.5q11.9-44.1 31-81l-1.5-.5-17.5 38.5-16.5 50.5-1.5-.5-.5 1.5-2.5 1.5-.5 2.5-1-1-10 10-1.5.5-.5 1.5-1.5.5-1 2 .5 1.5-2-1-4 6-1.5-.5-.5 1.5-1-2-6 9-3.5 2.5-.5 1.5-1.5.5-.5 1.5-1.5-.5 1-3 7-21 20-46 10-14-2-1 4.5-8.5 1.5-.5-.5-2.5-5.5 6.5-1 6-10 16-23 54-6.5 20.5-3 2-.5-1.5q8.7-35.8 24.5-64.5l2.5-1.5-.5-1.5-2.5 1.5 12-24-2 1q-20.4 36.6-34 80v2l-3 9 1 3-6.5 7.5-.5-3.5q12.7-50.3 37-89l-2.5-.5-2.5 4.5-5.5 9.5-10.5 9.5.5 1.5 9.5-8.5-13 26q-8.5 18.5-13 41l-3 4v2l-1 8-39.5 44.5-1.5-.5 2-1 12-17-1.5-.5-2 4-5.5 4.5-1.5 3.5-2 1-.5-2.5 3-10h-2l11-56 9-15-8 7-3.5 6.5.5-1.5 15.5-23.5 1.5.5-6 10 1.5.5 2.5-1.5-1 4q4.5 2.5 2 12l-1 2v2l-2 3v2l.5 1.5 1.5.5-4 17 1.5.5 3-8 2.5.5-4 13 1.5 2.5 3-11 2 1 7.5-31.5 12.5-27.5 2.5-.5-.5-1.5-1.5.5 24.5-35.5 3 1 20-21 6-4 2.5-.5 4.5-6.5q32.8-30.7 74-53ZM612 217l-14 26v2l-2 3 1 3 10-21 2-1-1-2 5-9zm-17 34-18 42-2 9 1 3 20-53zm-67 98-4 7-2-1-6 11-3 2 2 2v-1l2-1 1-5h2v-2l3-1-2-1 3-1 6-7zm-19 8-6 11 1 1 3-2-1-2 3-1-1-1 1-3h2v-1z"/><path fill="#fcfcfc" stroke="#fcfcfc" d="m683.5 170 .5 4.5-1 11-28.5 52.5-3.5 1.5-.5 1.5-.5-1.5q13.3-38.2 33.5-69.5Zm144 1 .5 2.5-6.5 13.5.5-1.5zm-12 26 .5 1.5q-7.4 19.6-20.5 33.5l1.5-2.5zm-101 4-3 4-32.5 23.5-.5 1.5-9.5 6.5.5 1.5-28 24 13.5-14.5.5-2.5v2l3.5-2.5q-2.8-1.7 1.5-3.5l-1 3 5.5-3.5-1.5-.5-1.5.5zm88 27 .5 1.5-5 16-3.5 3.5-1.5.5.5 1.5 3-2 .5 4.5-2.5 20.5-27 5-2-1-2 2-14 2v-2l-1.5.5-1.5 2.5-4 1 5-6 1.5-.5 1-2-1.5-.5-17 14-4.5-1.5 2.5-3.5 1.5-.5.5-1.5 1.5-.5.5-1.5 1.5-.5.5-1.5 25-11v2l1.5-.5 1.5-2.5 24-11-1.5 2.5.5 1.5 5-6 1.5-.5-.5-1.5-2.5 1.5-.5 1.5-1.5-.5-.5-1.5-7 3 3.5-4.5zM781 263l-6 7 7-6zm-129.5-15L635 265.5 619.5 283 599 300.5l-4.5 5.5-20 16 2.5-3.5 6.5-8.5 1.5-.5.5-1.5 1.5-.5 7.5-8.5 4.5-1.5-2-1 .5-1.5 1.5-.5.5-1.5 1.5-.5.5-1.5 1.5-.5 2.5-4.5zm101 11-3 4-5 1v-1z"/><path fill="#fcfcfc" stroke="#fcfcfc" d="m754.5 263 3.5.5-9.5 4.5-.5-1.5zm-25 16 2.5.5-10.5 9.5-6 1-4.5-1.5 1.5-2.5q-3.1 4.9-13 3l-2.5-1.5 16.5-3.5h2zm-200 4 .5 1.5-1.5 10.5-.5-2.5q-2-7.5 1.5-9.5Zm175 11 10.5 1.5-13.5 3.5-.5-1.5zm-110 1-8.5 9.5-55.5 63.5 1.5-2.5 4-8-2 1-6 11q-19.7 20.3-34.5 45.5l-2.5 1.5-3.5 5.5-1.5.5q3 2-2 4l-2.5 4.5-1.5.5-6.5 10.5-1.5.5-14.5 16.5-1.5.5.5 1.5 2-1-4.5 5.5-1 5q-36.7 49.8-67.5 105.5l-1-2-1 2-.5-1.5 22-36-2 1-5.5 8.5-.5-1.5q19.1-36.9 44-68l-.5-1.5 1.5.5 13-17 1-5-.5-1.5 1.5.5 12.5-19.5-.5 1.5-3 7 2-1 5-10-3 1 3.5-4.5-.5 1.5.5 1.5q31-47.5 70-87l1.5-.5.5-1.5 2 1 .5-1.5-1-1 8-8 .5-1.5 6.5-5.5 10.5-11.5 5.5-4.5.5-1.5zM416 520l-11 17 1 1 10-16zm305.5-225-3 4-17 11v-1l1.5-.5.5-1.5 3.5-1.5.5-1.5 7.5-4.5.5-1.5zm-21 5 7.5.5-21.5 16.5-3-5-7 3-10.5-7.5.5-1.5 15-3h2l10-1h2z"/><path fill="#fcfcfc" stroke="#fcfcfc" d="m661.5 307 2.5.5-2 5 1.5.5 2-3 13.5 9.5-.5 5.5-3-6q-13-1-21-7l-1.5 3.5 4.5 7.5 12.5 5.5 2 8-4-3-2.5-5.5-16-3-1.5 5.5 3.5 4.5 2.5.5-1.5 2.5-4 3-10.5 2.5 6.5.5 2-1-3 4q-18.5 8-44 9v-1l5.5-1.5-3.5-.5-12.5 6.5.5 1.5 8 2 4-1 17.5 5.5-6.5 5.5-19 4-3 1-22.5 1.5.5 1.5h16l24-5v2l11-5 1.5.5.5-1.5 6.5-4.5-1.5-.5-9 5 2-3 9-3 .5 2.5-13.5 10.5-1-2-2 3-7 2-.5-1.5 2-1-.5-1.5-3.5 2.5-1.5 2.5-3 1-1-2-2.5.5 2 1-.5 1.5-22 3-1-2-6-5-2.5 1.5 1 2-1.5-.5-1.5-.5-2-3 6-3-.5-3.5-7 4-4-3-.5 2.5 2 1-.5 2.5-2.5-.5-3.5-4.5-8-1-2.5 1.5-1 3 2.5-1.5q5.5-1 6.5 2.5l-1.5 2.5-4-1-9.5 3.5 2.5.5 2.5.5-8 5-.5 2.5-14 8-2.5.5 1 2h-2l-1 2 1 2-3 7 2-1 1.5-2.5 6-2 .5 1.5-4.5 3.5-2.5.5 2.5.5 1.5.5-2 6 2.5.5 1.5.5-1.5 3.5-21 7 2-4-1.5-.5 1.5-.5 2.5-.5-2-1 .5-1.5q1.8 3.8 3.5.5l-2-1 11-18-5 4-14.5 23.5-4 2-.5-2.5 5-3-1-3 2.5-3.5 4.5-2.5v-4l17.5-22.5 2.5-.5-1-2 11.5-12.5 14.5-7.5-.5-1.5-10 5 2-3 43.5-17.5-3.5-.5-36 14-.5-1.5q11.1-7.9 26.5-11.5l3-1 17.5-5.5-3.5-.5-29 8-7 4 3-4 3-1 19.5-7.5-3.5-.5-1.5.5 4-6-1.5-.5h-2l-2.5 1.5 1 2-1.5.5v-2l-1.5.5-1 2 3 1-3.5 1.5-2-1-1 2-4 2 19-20 6-1-1 3 14-6 2 1 13-4q18-.5 31.5-5.5l-5.5-.5-45 8v-1l5.5-3.5-1.5-.5-9 6-6 1 2.5-3.5.5-1.5 16-5 2 1 5-3h2q30.5-3.5 57-11ZM649 334l-50 7-23 5v1l74-11v-1zm-72 1-7 8 7-6zm49 11-20 6v1l24-6zm-40 17-32 7-3-1-1 2h-1v1l27-4 10-3zm-82.5-51-.5 1.5-17.5 24.5.5-1.5zm7 1 .5 1.5-4 10-8 47-3 7 2 1-1 13-1.5 1.5-1.5-.5q-1.7-9.7 2-14l-2-1 4-20v-2l5-27 4-6-2-1z"/><path fill="#fcfcfc" stroke="#fcfcfc" d="m657.5 316 8 5q6.8-1.7 8.5 1.5l4 12-.5 1.5 1.5.5.5 1.5 2.5-1.5.5-2.5.5 2.5-6.5 8.5-1.5.5-9.5 10.5-2 1 2-3 1.5-.5 1.5-2.5 2.5-1.5 6-11-6.5-14.5q-9.2-.7-13.5-6.5zm24 1 1.5.5-.5 14.5-1.5-.5 1-13zm-179 3 .5 1.5-6.5 10.5-.5-2.5z"/><path fill="#fcfcfc" stroke="#fcfcfc" d="m651.5 329 12.5 2.5 5.5 8.5 5.5 1.5-12 11-1.5 2.5-6 4-.5-2.5 3-2 6.5-8.5 3.5-.5-5.5-11.5zm-152 1 1.5.5q-6.7 24.3-9 53l-2.5 3.5-.5-11.5 3-27 4-10-1-2h1l.5 1.5zm-6 3-.5 1.5-13.5 20.5-1.5-.5z"/><path fill="#fcfcfc" stroke="#fcfcfc" d="m656.5 336 3.5 1.5 1 2-13.5 6.5 4-5 1.5-.5zm-165 5-.5 1.5-.5 3.5-1.5.5 2 1q-4.9 21.6-5 48l-4.5 7.5-1.5.5-1.5 4.5-1.5.5-9.5 13.5-.5-4.5 3-16 3-3v-8q0-16.5 6-27l-2-1 .5-1.5q2.3 4.3 4.5-.5l2-4-1-3 4-2 1-2-1.5-.5-1 2-.5-1.5zm-76 5 8 12 5.5 4.5q.2 9.3 5 14l-1.5-.5-2.5-.5-4-12-10-12zm240 0 2.5.5q-2.7 5.3-11.5 4.5l1-2zm-6 8 2.5.5-5 9 1 1-4.5 4.5-2.5 1.5-.5 1.5-34 28 2-3 15.5-12.5.5-1.5 4.5-3.5 12-14-2.5-3.5-6 2-.5-1.5 7.5-5.5h2zm-27 3 11.5.5-8.5 4.5h-5l-7.5-2.5zm37 2 2 10 2.5 1.5.5 1.5 1.5-.5-.5 1.5 1.5.5 4.5 9.5 1.5.5 4 6-2 1 3.5 5.5q1.7-2.7 3.5 1.5l10.5 17.5 2.5.5h-2l1.5 2.5 2-1 2.5 4.5-2-1-1.5-2.5-.5 1.5 2.5 5.5 1.5.5 5 13-8.5 1.5-3-1-13.5-6.5-1-2 2.5-.5 1 2 1.5.5.5 1.5 6 3h2l3 1-1-2-1.5-.5-.5-1.5-1.5-.5 3-1-2.5-3.5-1.5-.5Q677.5 391 655.5 364l-1.5-.5.5-2.5 2 1zm34.5 63 3 10h1z"/><path fill="#fcfcfc" stroke="#fcfcfc" d="m649.5 363 5.5 8.5-1 2 2 1 .5-1.5 5 8 1.5.5 7 14h-1L656.5 375l-.5 2.5 14 22 9 20-2 1 .5 2.5 1.5-.5.5-1.5.5 2.5-.5 1.5 1.5.5-9.5 1.5-19-1-3.5-3.5 2-3-2.5-1.5-2 2h-22v-1l7-1 2.5-.5-4.5-.5-8 2-3-1-7-4h-4l-14 9-2.5-.5.5-1.5 15.5-9.5-.5-1.5-10.5 5.5-.5 1.5-9 5-.5-6.5 4-3-1.5-.5-2 1 .5-1.5.5-1.5 3.5.5-.5 1.5 23-13 36.5-32.5zm-179 3-.5 1.5-6 12 .5 1.5-3.5 2.5.5 2.5 1.5.5-1.5.5-2-1-1.5.5zm-65 3 16.5 8.5-5.5.5-10-6h-6l-10 1-1.5-2.5 1.5.5q10.3 1.8 15-2Zm67 2 .5 3.5-10.5 53.5-1.5-.5-1-6 7-36zm-44 9 4.5 1.5q2.1 8.9 8.5 13.5l1.5.5 1 2-2 4 1 2-2.5 4.5-1.5-.5-2.5-6.5-1.5.5 1-2q0-8.5-6-11l1-2-2.5-1.5-4 2-5-2-8.5 1.5-5.5 11.5.5-1.5 3.5-14.5q11.6 1.1 19-2Zm9 2 3.5 7.5-1.5.5zm178 0-2 3-7 4 2-3zm-7 1 1.5.5-19 16-1.5 3.5-.5-1.5 2-7-1.5-3.5-4.5 2.5-4.5 6.5-5.5-9.5 22.5-3.5v1l-2.5 1.5.5 1.5q4.3-6.2 13-8Zm-118 5 1.5.5-1 3 1 2q0 7.5-4.5 10.5l.5-1.5-1-3zm63 0 7.5 2.5-4 11 2 1 4.5-12.5 4.5 2.5.5 1.5 1.5.5-3 7 2-1 2.5-3.5-.5 1.5-1 4 3-1-2.5 4.5-1-3-4 15-1.5.5 2.5 3.5 2.5-1.5 1.5-2.5 3-1 2.5.5 1 2 1 3-1.5 3.5-1.5-.5 1-4-3.5 2.5-1.5.5 1 6-2 3 3-2 1.5-4.5.5 3.5-1 2-.5 2.5-1.5-.5-1.5 2.5-1-3-6.5 7.5 1.5.5 1.5-.5-2.5 4.5-1.5-.5 1-3-2.5-.5-9 1-3-1v2l-3.5-1.5-.5-1.5-.5 2.5 2 1-.5 1.5-3 1-1.5-8.5q3-2-2-4l-2-3 1.5-4.5 1 6 1.5.5.5 2.5 1.5.5.5 2.5 4 2-2-4 10 3 2-4q7.5-.5 10.5-5.5l-.5-1.5-10 6-3.5-1.5 5-1 .5-2.5 1.5-.5-.5-1.5-2 1-14-1-.5 1.5 3 2-1.5.5-1.5-.5.5 2.5 2-1 2 1 2-1v1l-6 2-3.5-4.5-4-18 2-5-2.5-1.5-3.5 6.5v2l-1.5 4.5-1.5-.5 2-4-1-2 8-13-7 5 1.5-5.5 2.5-1.5 1.5-2.5zm14.5 6-8 10 1 2 7-10zm-1 8-5 9 1 4 4-10z"/><path fill="#fcfcfc" stroke="#fcfcfc" d="M415.5 389q9.3-.2 13.5 4.5l-2 3 2 4-7.5 3.5q-3.7-4.2-12.5-3.5zm48 0 .5 4.5-6.5 27.5-1-2-.5 3.5 1 3-1 3-.5 4.5-2.5-1.5 1.5-12.5 1.5-.5-1.5-2.5-1.5.5-1.5 6.5-2 1-2.5-4.5 3-6-1-1 4-4 2-5-2-1 1.5-.5 2.5-.5 4.5-10.5 1.5-.5zm144 3-3 4-16 12-.5-1.5 3-2 2.5-4.5zm-20 4 .5 1.5-4.5 8.5-1.5.5 2 1-4.5 11.5-2.5-7.5zm-103 4 1.5.5-1 7-13.5 17.5-.5-3.5 6.5-9.5 2 1 1-2-1.5-.5zm37 1-1.5 2.5-1 3 1.5.5 1.5-.5-8.5 3.5.5-1.5 4.5-6.5zm-131 1 3 1 1.5-.5-.5 1.5-11 3v-1z"/><path fill="#fcfcfc" stroke="#fcfcfc" d="m432.5 402 5.5 8.5-4.5.5-11-1-2 1-10.5-5.5.5-1.5 15 3 6.5-3.5zm139 6-.5 1.5-1 4 1 2-3 2-.5 2.5-.5-2.5zm-126 1 1.5.5-1 2v2l-1.5 3.5-1.5-3.5zm90 6 1.5 10.5h-1l-.5-5.5-2 8-.5-2.5zm-95 5 2.5.5-10 24-3.5 14.5-.5-5.5q2.5-20 11.5-33.5Zm5 3 2.5 1.5-3 22v2l-7.5 12.5-.5-4.5 2-8v-2l-1-4zm164 0 7 1 16 8 1-2-10.5-4.5 17.5-1.5-1 2-2-1-.5 1.5v2l-1 6v2l1.5 6.5 1.5.5 2 4-3.5.5-3-7-3-1-1.5-.5-.5-1.5-4 2-7-1 1 2 1.5.5-3.5.5-2-1q-3.2 2 0 4l-4 1-2.5-.5v-2l1-3-4-3-1-5 3-5-1-2 2-1zm3.5 2-4 3h2l1 7v-3l1-4zm-161.5-1 .5 4.5-1 3v2l-.5 5.5-1.5-4.5 1-3 1-3zm70 3 .5 5.5-18.5 6.5 1-3q-6.2 6.3-17 8l2.5-3.5 2.5-3.5z"/><path fill="#fcfcfc" stroke="#fcfcfc" d="m601.5 427 2.5.5-1 11 5 6-2.5 1.5q-7.6-2.9-5.5-15.5zm-181 2 1.5 1.5v15l-2-1-1-12zm226 0q18-1.5 30.5 2.5l3.5 5.5 8.5 2.5-3.5.5-32.5-1.5 2.5-.5 6-1 2 1 3-1 5 1h2l3.5-.5-4.5-2.5-17-1h-2l-1.5-.5 2-1-3-2-.5 4.5-3.5-.5.5-1.5 1.5-.5-3-1zm-59 4 1.5 2.5-4.5 15.5-1.5-6.5 2-7h-1l-2.5 7.5-1.5-.5q0-7.5 4.5-10.5zm-126 2 .5 2.5-3.5 5.5-.5-1.5 1-2-1-3 1.5-.5 1.5.5zm59 0q5.8-.7 6.5 3.5L489.5 451l-1.5-.5-.5 1.5-6 2 3.5-4.5 1.5-2.5 14-5 3 1 2-3z"/><path fill="#fcfcfc" stroke="#fcfcfc" d="m597.5 437 4 8 6.5 3.5-4 2 .5 1.5 3.5 2.5q1.1 9.4 7.5 13.5l5.5 2.5-6 2 1.5 2.5 2.5.5-6 10 1.5.5 7-11 .5 1.5-1 12-3 8 2-1 .5-2.5 1 5 2-20 3.5 11.5q-3 2 2 4l-.5 1.5-7.5 4.5-10 18 5.5 2.5 5.5-3.5q2.4-9.1 9.5-13.5l3-2-1.5 2.5-4 7-3 19 7 2-.5 10.5-1-3-5.5-3.5 1-4-2.5-1.5-2 3-1.5-.5.5-1.5-2.5.5-.5 1.5-9 3-20.5-11.5 2.5-.5 21 7 1-2q-9.6-.4-14-6l-1 2-10.5-3.5-.5-2.5-1 3-2.5-.5 1-4h-1l-1.5 3.5-2.5-1.5 6.5-15.5 5.5 1.5-4 13 2-1 1.5-4.5 1.5-.5.5-7.5 8 2 15.5-6.5-.5-1.5-19 5-4.5-1.5-.5-2.5-1 2-1.5-.5-.5-1.5-3 1v-1l23.5-7.5-15-5 12-11 5-7-6.5 5.5-1.5.5 1 1-6.5 6.5-6 5h-3l-8.5-6.5 1.5-.5 9 3 12.5-7.5-1.5-.5-9 5 1.5-2.5-.5-2.5-3.5 4.5.5 1.5-5.5-1.5 7-14h-1l-7.5 14.5-3.5-2.5 9-14zm.5 20-5 5 2 2 3-5zm-67.5-18 2.5.5 2 3-19.5 11.5-1-2-2 4-19 8-.5-1.5 19-8-1.5-.5-19 8-2.5-1.5 20.5-13.5z"/><path fill="#fcfcfc" stroke="#fcfcfc" d="m592.5 439 1.5 3.5-7.5 23.5-2.5-1.5zm-107 2 1.5.5-3.5 4.5-1.5-.5-1-2 2-1-.5 1.5 1.5-.5zm137 1 6 1 2-1 1 2 1.5-.5-.5 1.5-10-2zm-208 1 1.5.5-2.5 8.5.5-3.5zm139 1 2.5 1.5q-1 4.5-7.5 3.5v-1l4.5-.5-1-2zm-17 1 1.5.5 2.5 5.5q7-1.5 8.5 2.5l-19 10 .5 1.5 3.5 2.5-5.5 4.5q-12.9 1.1-19.5 8.5l4.5.5 3.5-2.5.5-1.5 4-1-1 2-10 6-3.5-2.5 1-2-2-1 5-4-2.5-3.5-8 2-3-4 33.5-14.5-4.5-.5-4 2v-1l13.5-8.5zm-100 2 .5 3.5-2 9v2l-2.5 8.5-1.5-.5zm65 2 2.5.5-16.5 9.5-1.5-3.5 4.5-2.5v2l1.5-.5 1.5-2.5zm114 0 1.5.5-6 5zm-136 1 1.5.5-4.5 5.5-4 1-.5-1.5h2l.5-1.5 2 1 1-2 1.5-.5zm-62 3 1.5.5 1 13q-4.4 6.6-4 18l1.5.5 1-2 .5 1.5v2l-3.5 12.5-1.5-5.5v-2l-1.5-6.5-1 4-.5-11.5zm206 0 3.5 1.5 1 7-.5 2.5-2-1-2.5-.5h2l-.5-1.5-3.5-2.5.5-4.5zm8 1 1 2 7 1 17 14-.5-1.5.5-1.5 18.5 12.5.5 2.5 2.5-.5-.5-1.5 4.5 2.5-.5 1.5-6 2-18.5-12.5-1.5-2.5-21.5-8.5 1-4-1.5-.5-2 4-.5-5.5v-2zm27.5 18v3l13 6h2l-7-4v-1zm-44.5-17 3.5 1.5 3.5 9.5 1.5.5-4.5.5-4.5-3.5-2-6zm-132 1 1.5.5 2 3-7.5 4.5-2.5.5 1 2-14.5 10.5v-1l1.5-.5 1.5-2.5 1.5-.5.5-1.5 3.5-1.5 5-7-1-3zm72 3 1.5.5-2 3 1 2-3 4v2l-1.5 4.5-1.5-.5 2-3v-2z"/><path fill="#fcfcfc" stroke="#fcfcfc" d="m472.5 460 1.5 2.5-1.5-.5-1.5.5 1 2-2.5 3.5-2.5-4.5 3-1 .5-1.5zm-30 1 1.5 2.5-3.5 4.5-2.5-1.5.5-2.5 4.5-.5zm44 0 1 3 1.5.5-.5 1.5 1.5.5-2.5 1.5-3 1-2.5-.5-2-3zm63 3 .5 1.5-2.5 5.5-2.5-.5.5-1.5 1.5-.5zm-140 4-.5 1.5-1.5 16.5-.5-11.5zm67 0 2.5 1.5 1 2-13.5 6.5-.5-1.5 4-2 1.5-2.5zm-54 1 2 5 3-5 1.5.5q-.3 9.2-5.5 13.5l-.5-2.5-2-9zm158 0 3.5 1.5-4.5 6.5-1.5-.5zm64 0 10.5 4.5-1.5.5zm-9 6 2.5 10.5-2 1 1-3q-3.4-2.5-1.5-8.5Zm36 0 21 7 4.5 3.5 3 7-6.5 2.5-4-2-18.5 3.5-.5 1.5-8 2 .5-1.5.5-1.5 3.5-.5-4.5-1.5-1 2-4.5 2.5.5 1.5 1.5-.5-.5 1.5-5.5.5-.5 3.5-3-2-3 5-3-9q-7.9 5.6-11 16l-1.5-.5 10-19-4-2 9.5-3.5 5.5 2.5.5 1.5 3.5-.5-2-1 7.5-1.5 5 1 3-1 2 1 12-5 9.5-.5-.5-2.5-4-2h-2q-10.4-1.9-15-8Zm-97 1 2.5 3.5-.5 1.5 2.5.5-.5 1.5-2.5-.5-1-2v-2z"/><path fill="#fcfcfc" stroke="#fcfcfc" d="m641.5 476 29.5 12.5-17.5 1.5-1-2-2-1-3 1-4.5-1.5zm-177 5 1.5.5.5 1.5 3-2q8.4 1.1 12.5 6.5L449.5 502l-.5-1.5 5-6v-2l7.5-10.5zm19 0 4.5 1.5-1.5 2.5-4 1-2.5-3.5zm-79 1 2 16 2.5-.5 1.5-6.5 1.5.5v9L398.5 525l-.5-5.5 1-2-1-6v-2l.5-2.5 1.5-.5 2-10v-2zm98 1 1.5.5.5 1.5 1.5.5-1.5 9.5-2.5-.5 2-9-2-1z"/><path fill="#fcfcfc" stroke="#fcfcfc" d="m540.5 484 2.5 1.5 1.5 4.5 5-2 1.5 2.5-3.5 4.5-3.5 2.5-12 15 1.5.5 7-9-.5 1.5-3.5 5.5-1.5.5-14.5 16.5q-3.5-2 1-4l1.5-.5.5-1.5 1.5-.5.5-1.5 3.5-2.5-.5-1.5-10 8-6-3-5 2-24-5-7.5-6.5 6-7-1-1 5-5 1-2-1.5-.5-2 3-8 3-1.5-1.5 5.5-5.5 10-7 15 18 4.5-1.5.5 1.5 1.5-.5 2.5-3.5 21-13 2.5-.5 1.5-3.5zm92 0 1.5 6.5q-2 4.5-4 1zm-208 2 .5 1.5-.5 1.5 1.5.5-3.5 5.5-.5-2.5 1-3zm168 5 1 2 1.5-.5.5-1.5 6.5.5-.5 1.5-9 2-1.5-.5-.5 1.5-1.5-.5.5-1.5 2.5-1.5zm-119 2 1.5.5-7.5 6.5-2.5.5 1 1-4.5 4.5q-11.7 1.8-19 8l-.5-1.5 3-1 1.5-5.5zm224 1 2.5.5-2 1-1.5 2.5-4 1-.5-1.5 3-1 .5-1.5 1.5.5z"/><path fill="#fcfcfc" stroke="#fcfcfc" d="m569.5 495 1.5.5-4 17 2-1 1.5-5.5 2-1v2l1.5.5-4.5 5.5-12.5 9.5.5 2.5 1.5-.5 1.5-2.5 3-2-2 3-1.5.5-1 3q7.5 3.5 1 7l-4.5 5.5-4.5 1.5 1 1-6.5 6.5-8 7-2.5.5-.5 2.5-2-1-6 8-9 7 4-6-8.5 7.5 1.5.5 1.5-.5-18 14-2.5 4.5-5 3v-2L470 610.5l1.5.5 6-6 1.5.5 6.5-7.5 2-1-.5 1.5-1.5 7.5-4.5 1.5 1.5 2.5 1-2 2.5.5 4 6-3 2 4.5 2.5 15 1 30 16 1.5-.5.5 2.5 16 8-2-3-33.5-18.5 1.5-.5 27 12 14.5 11.5v3l8.5 12.5 9-5q4.4 1.6 3.5 8.5l-4 27-10 24v8l2.5 1.5 6-4 1.5 7.5-3 8 3-2 4-15-2 1-.5 2.5-.5-4.5 2.5-3.5 1 4 .5-5.5-1-2 4.5-7.5.5 2.5.5 1.5 1.5-.5 2-8-1-11 3-8 9-12-1-2h1l3 8-1 3 4 23 1 23v2q1.1 8.1-3 11l1 2-2 8-3.5 4.5-1.5.5-.5 1.5q-4.7 4.8-14 5l-10-1h-2l-3 1h-2l-37 1-9-1-.5 1.5 27.5 2.5 16-2 1 2-4 2-3-1-2 1-3-1-1.5 2.5 6 1-.5 1.5-5 1-3-1-4 1-3 1-3 1h-2l-16 2-2-1-9.5 4.5 1.5 2.5 16-1-.5 1.5.5 1.5 10-2 5 1 9-1 8.5 2.5-6.5 1.5-2-1-21 2-2-1-10.5 1.5.5 1.5q24.7 1.7 44-2h2l4.5.5.5 1.5 11-2 3 1 9.5-1.5.5-1.5 1 2 1.5.5-3 4 1.5.5 4.5-3.5.5-2.5 11-4 .5 1.5-25.5 17.5 2-3 1.5-.5 2-4-1.5.5-3.5 1.5-.5 2.5-4.5 3.5 1.5.5 1.5-.5-8.5 6.5-1-2-1 3-3 1Q546 826.5 525 849.5L512.5 863l-4.5 2.5-.5 1.5-2 1 .5-1.5-.5-1.5-4.5-2.5 12.5-13.5 33.5-24.5-1.5-.5q-24.3 14.7-44.5 33.5l-3 7 3 2-4.5 5.5-30.5 21.5-2.5 3.5-15 4-.5-4.5 1-2-1.5-.5-2.5 5.5 1.5 2.5-8.5-1.5-11-29-8-30-12.5-15.5-7-1-12-10-17-1q-7.6-9.4-20-14l-22-2-4 1-5-6-7-2-8 7h-12l-8.5-7.5q-.7-9.2-6.5-13.5l-11-2q-5.1 3.4-15 2l-3.5-2.5-1-11 7.5-15.5q6.9-4.6 18.5-4.5l-1.5-5.5-3 4-14 4 1-2 9-7q9.3.8 14-3l2 1q11.2.2 17.5-4.5l1-3-1.5-.5q-5.3 6.7-18 6l-3-1-8 3 1-2 10-2 13-6h2l3.5-1.5.5-1.5 2 1 10-4 4 2 .5-1.5-3-1 1.5-2.5q5.8.8 6.5-3.5l.5-4.5 1.5.5-1-2 14.5-19.5 2.5.5-3 1 1.5 2.5 2.5-1.5 5-7h-2l.5-2.5 3 2 .5-1.5-2-1 .5-1.5 1.5.5.5-2.5 2-1 1 3 3-1 1.5-.5 2.5-4.5 7.5-4.5 2.5-4.5 3-2 1 2 4-5 3.5-1.5-.5-3.5-2 1-.5-1.5 2.5-8.5-.5 1.5.5 4.5 7.5-34.5 5.5-15.5q6.8.8 7.5-4.5l.5-5.5 1.5.5-1 2 2-1-.5-2.5-3.5-1.5 4.5-8.5 1.5.5-.5 2.5-1.5.5.5 1.5 9-5 5.5 3.5-1 2 2.5.5.5-3.5-.5-1.5 8.5 5.5 5 13v6l-2.5 1.5-3-2-.5 1.5 5.5 2.5 2.5-1.5 1-4q-1.8-15.7-11.5-23.5l-4.5-1.5 1.5-.5 2 1-1-2-1.5-.5 21-3-.5-1.5-20 1-4.5-3.5q9.6-6.9 28.5-4.5l5.5 1.5-.5 1.5-2.5.5 4.5.5q4.5-2 1-4-8.5-4-22-3l-16 5 1-2 30-10 42.5-5.5-15.5-.5q-33.8 2.2-58 14l-.5-1.5q11.1-12.9 33-15l-.5-1.5-2.5-.5 8-7 9.5-12.5 17 6 1.5-.5.5 2.5 1-2 2.5 1.5.5 1.5 13 6-1-2-5.5-2.5 1.5-.5 14.5 8.5-1.5-.5-3.5.5 11.5 5.5 1-2 8 3 4-3v1l-1.5.5 2.5.5 1.5-2.5-3-1 3-6 19.5-21.5-1.5 2.5-8 13 1.5.5q12.6-21.4 30-38ZM529 560l-2 1-3 4 6-4zm13 205-10 1-2 2-8-1-1 2h-2l-2 1-2-1-4 2-2-1-4 2-2-1-16 3-2-1-7 2 2 2 37-5h2l27-4h2l5-1v-2l-6 1zm-49 2q-19 3-41 2-3 2 0 3l2-1 2 1 14-1h2l15-2 3 1 12-1v-2l-4 1zm11 0v2l13-1zm31 26-5 1v1l10-1zm-13 2-3 1v1l10-1zm111.5-300 2.5.5-.5 1.5-12.5 8.5-5.5 10.5-1.5-.5 12.5-17.5zm-215 1 .5 3.5-2.5 4.5-1.5-.5zm54 5 1 3 1.5.5-2 1-.5-1.5-1.5.5 1 2-1.5.5-2.5.5-1.5 2.5-1.5-.5-.5 1.5-1.5-.5z"/><path fill="#fcfcfc" stroke="#fcfcfc" d="m581.5 503 2.5.5-5.5 15.5-2.5-.5 4-8-3 1zm-170 2 .5 3.5-2 1-.5 2.5-1.5-.5zm-16 2 .5 7.5-1.5 16.5-1.5-9.5zm149 0 .5 1.5q-5 2-2 4l-6 8 1 2h-1l-.5-1.5-16 23-5-3-2 1-30.5-17.5-2-3 1.5-.5 26 12 14 3 .5-2.5v-2zm96 1 2.5 13.5-3.5 5.5-.5-13.5zm-185 2-2 3-16 12-.5-3.5 2.5-3.5zm-48 3 1.5.5-3.5 8.5-1.5.5-.5 2.5-1.5.5-.5 3.5-1.5-2.5zm230 0-.5 1.5 1 8-1 5 1 3h-1l-.5-1.5-1.5.5 2 9v2l-1 5 1 2h-1l-2-3 1-8-2-7 2-2q-1.4-9.9 2.5-14.5Zm-186 3 1.5.5-6.5 8.5-14 7 3-4zm180 1 .5 3.5-1.5 5.5-1.5-.5 2-5v-2zm-46 9 22.5 10.5-.5 1.5q-10.3 1.8-14.5-2.5l-.5-1.5-8.5-6.5zm54 2 2.5 16.5-2-1zm-187 1 .5 1.5-12.5 12.5-10 2v-1q12.6-3.4 19.5-12.5l.5-1.5zm127 1 6.5 3.5-.5 1.5-2.5-1.5-.5-1.5zm-202 2 3.5 14.5-1 2v2l-.5 6.5q-3.8-10.9-2-25Zm245 2 1 3 1.5.5 4 6-1.5.5-1-2-5-4-6 2h-2l-3.5-.5 9.5-4.5 1 2zm-191 2 5.5.5-9.5 5.5-.5-2.5.5-1.5zm158 4 2.5 1.5.5 1.5 2-1 .5 2.5-1.5.5-3.5-1.5zm-8 3 3.5 1.5-1.5 6.5zm16 0 4 1h2l7.5 2.5-7.5.5-7.5-2.5zm20 0 3.5.5 2 5-1.5-.5-4.5-3.5zm-53 1 1.5.5-2.5 8.5-2.5-.5zm4 0 3.5 10.5q-1.7 3.3-3.5-.5l-1.5-.5zm20 1 3.5 1.5.5 1.5 1.5-.5 1 12-1.5.5q-8.3-2.8-5-15Zm-201 1 1.5 3.5-1.5 2.5-1.5-.5.5-1.5 1.5-.5-3-2zm173 0 .5 1.5q-1.8 10.2-8.5 15.5l-1.5.5 1 2-2.5 1.5-.5-1.5 2-6h-1l-3.5 8.5-4 1 .5-1.5 6-11-3 2q-4 11-12.5 17.5L511 593.5l-1.5 2.5-4.5 2.5 4 5-10.5 4.5q-5-3-5.5-10.5l7-5 3.5-4.5.5 1.5-1 2 3-2 9.5-11.5 23-19 12-7 1.5.5.5-1.5 1.5.5-1 3h1l4.5-7.5zM502 592l-7 11h2l6-10z"/><path fill="#fcfcfc" stroke="#fcfcfc" d="m597.5 547 4.5 1.5-4.5 10.5-1.5-.5q-2.5-9 1.5-11.5Zm6 2q6.8-1.7 8.5 1.5l-1 3 2 1 2 9v2l-1 2 5 16-1.5 3.5-1-2-2.5-1.5 1-12h-1l-2.5 13.5-1.5.5 1 3-1 6 1 2-5 31 1 2-1 5 1 9-2.5 5.5-4.5-1.5 1-16-1-12 1-4-1-3 2-11-1-6 1-4-1-2 3.5-1.5 1.5.5-.5-1.5-4.5-1.5v-2l.5-2.5 1 2 2.5-1.5-2-5 1.5-2.5 4.5 3.5-5-9v-2l.5-2.5 7 3-2-3-5.5-2.5 2-3-1.5-.5-2 3-3.5-1.5zm-235 2 6.5 3.5 4 13-3.5 4.5-.5-1.5 2-7-1.5-.5-1 2zm247 2 1.5.5 2 6v2l3 12h-1l-5-14 1-3zm-216 3-.5 1.5-1 2v2l-7.5 16.5-2.5-.5zm183 8q3 1.5 0 3l-37 19-8 2v-1q24.8-9.2 45-23Z"/><path fill="#fcfcfc" stroke="#fcfcfc" d="m585.5 567 4.5 3.5 2.5 14.5 1-3 .5 2.5-1 29-3 20 1 2 .5 2.5 1.5-3.5-1-3 2-1-1 3v2l-2 8 1 4-1.5 2.5-5.5-2.5 1-5-2.5-2.5-10-1-13.5-9.5 1.5-.5 10 3v-1l-16-5-5.5-4.5-10.5-15.5q-4.4-4.1-13.5-3.5l-.5-1.5-2.5.5 2 1-2.5.5-2.5-1.5.5-1.5 2.5-.5-1-3 2.5-3.5 2-1v2l24-8zm-173 2 4.5 2.5-.5 1.5-13 2 1-2zm180 1 1.5.5 1 3-1 5-.5 2.5-.5-2.5-1-6zm-212 9q6.4.1 8.5 4.5l-2 1-.5-1.5-4 1-4.5-1.5zm150 1 1.5.5-7.5 5.5 3-4zm-8 6-3 4-6 4 3-4zm92 0 1.5.5 1 3-2.5 7.5-2.5-4.5z"/><path fill="#fcfcfc" stroke="#fcfcfc" d="m534.5 588 1.5.5-7.5 3.5 1-2zm-161 3 8.5 2.5-1.5 2.5-1.5.5 1 3-4 2 1 2-1.5 2.5-1.5.5 1 2-3 4q-.7 13.8-7 22l1 2-2.5 3.5-1.5.5v2l-6 14-1 3-.5 2.5-1.5.5.5 1.5-19 15-.5-2.5 14.5-25.5 7.5-4.5 1-5-4.5-5.5q-7.2-1.2-8.5 3.5l-2 8v2L328.5 673l-1.5-.5 3-9v-2l2-15-1-3q23.5-24 42.5-52.5ZM337 644l-5 9 1 2 4-9zm259.5-52 .5 9.5-1.5 2.5-.5-1.5zm16 5 1.5 3.5-4 18 1 2-2.5 9.5-.5-3.5 1-2v-2zm-122 3 7 13 1.5.5-1.5.5-7.5-4.5-1-2 1-2v-2zm19 6 1.5.5-3 2-1 3 2.5.5 7-4 2.5 1.5-1 2q2.3-3.4 4.5.5 9.4 2.1 14.5 8.5l-3.5.5-17.5-5.5-.5-1.5-6 2-8.5-5.5.5-2.5zm20 0 7.5 3.5.5 2.5 1.5.5-.5 1.5-3.5-2.5-.5-2.5-5 1-2.5-1.5 2-1zm66 1 .5 8.5-1.5 6.5-.5-5.5zm-60 9q9.3 2.7 13.5 10.5-5.3.7-10.5-7.5l-1.5-.5-.5-1.5z"/><path fill="#fcfcfc" stroke="#fcfcfc" d="M523.5 620q17.5 4 29.5 13.5l1 2-1.5-.5-28-13zm89 1 .5 6.5-2.5 10.5-.5-6.5zm6 2 .5 2.5-2.5 8.5-.5-3.5zm-58 14 2 4 2-1 1.5 4.5-6-5zm7 5 7.5 4.5-2.5 3.5-4.5-3.5 1-2-2-1zm-198 7 .5 5.5-7.5 3.5 3-6 2.5-.5zm232 0 5.5 2.5-1.5 3.5-3.5-2.5zm-6 8 3.5 2.5 1 4-4.5 6.5.5-1.5 2-5-1.5-3.5-1.5.5-2.5 5.5-.5-2.5zm16 6 2.5 1.5-3.5 5.5-2.5-3.5zm8 0q6.3 7.2 4.5 22.5h-1l-4-18v-2zm-32 5 .5 6.5-3.5 11.5-.5-4.5 3-9v-2zm25 3 3.5.5 2 11-3-2zm-280 8 1.5 1.5-4.5 4.5 1.5-2.5.5-1.5 1.5-.5zm280 2 2.5 1.5-1 3 4 5-1 2 2 7v4l-1.5 4.5-.5-3.5v-2l-4-15v-2l1-2zm8 2 2.5 8.5-1 3-.5 1.5zm-9 16 .5 2.5-.5 1.5 1.5.5-1 2 1 19h-1l-1-5v-4l1-7-2-6zm-31 3 .5 2.5 1 2-5.5 9.5-.5-3.5zm156 8 1.5.5-85.5 51.5-6 1v-1q40.5-30.5 90-52Zm-118 9 1.5 7.5-1.5 2.5-2 1 .5-1.5q-2-7.5 1.5-9.5Zm-2 12 2.5.5-.5 5.5-2.5.5 3 1-.5 1.5-3.5-1.5zm5 6 2 1 3-1 2.5 4.5-6.5.5zm-366 1 1.5.5-22 19q-3.2 3.3-2 11 3.1 16.9 15.5 24.5l21.5 8.5-6.5.5-4-2q-22.7-1.2-34.5-13.5-3.2-2.3-2-9l7-16-3-7 2.5-3.5z"/><path fill="#fcfcfc" stroke="#fcfcfc" d="m248.5 750 .5 1.5-9.5 25.5q-3.7-5.2-2.5-15.5l8.5-9.5zm359 6 5.5 2.5-3 2 1 2-1.5.5-2.5-1.5 2-1 .5-1.5 1.5-.5-2.5-.5-3 1-.5-1.5zm-30 5 9 1 1.5-.5-5.5 2.5-2.5.5-.5 1.5-2.5-.5 2-1-3.5-.5v2q-4-2.5 2-5Zm21 0 7.5 2.5-9.5.5zm-354 7 4 10 13 1 11-2 6.5 4.5 4 11-12.5 1.5-20-5-6.5-5.5-2-8zm406 0 3 1 3.5-.5.5 2.5 3 1 3-1 8-2 3.5 1.5-2 1-.5 1.5-7 1-10-3-1 2-8.5-1.5zm26 3 21.5 2.5-4.5 1.5h-2l-13-2h-2l-1.5-.5zm-110 1h2l4 1 3-1 1 2-5 1-1-2-4 1zm-25 2 5.5.5-1 2 2.5.5 1-3 1.5.5-1.5 4.5-2-1-2 1-1-2q-7.8-.8-11 3l-5-2-3 1-7.5-.5.5-1.5h2l7-1h2l5-1h2zm115 1 8.5.5-.5 1.5-3 2-6.5-1.5zm-66 3 1.5.5.5 2.5 8-1 3 1 1.5.5-4.5 1.5h-2l-4-1-7 1-.5-1.5zm35 0 .5 1.5-34.5 26.5 4-5 25.5-18.5.5-1.5zm-51 2 8.5 2.5-.5 1.5-2-1-2.5.5-.5 2.5-1-2-13.5-.5.5-1.5z"/><path fill="#fcfcfc" stroke="#fcfcfc" d="m254.5 791 19 5 11-2 4.5 3.5-11.5 2.5-22-7zm58 3q6.9-.9 8.5 3.5l-.5 1.5-7 1-6.5-1.5zm283 3-2 3-35 26-36 31 7.5-8.5 1.5-2.5 1.5-.5 6.5-7.5q25.8-22.7 56-41Zm-263 3q22.5 0 32.5 12.5l-11.5 1.5-18-10-9.5-2.5zm-4 6 6 1 13.5 7.5-9.5 1.5-9.5-7.5zm33 9 7.5 1.5 3 4-1.5.5-9.5-4.5zm15 0 12 2 5.5 4.5-1 3 6 4 2 11-1.5.5q-8.2-.7-11.5-6.5-2.1-10.9-9.5-16.5zm-30 2q8.9-1.4 12.5 2.5l-.5 1.5q-6.1 4.4-18 3l-6.5-4.5 2.5-1.5 4 1zm26 0 7.5 4.5 4 7-4.5-3.5-5.5-3.5zm-1 8 2.5 1.5 3.5 7.5.5-2.5-2-4 12 11-.5 1.5-6-4-1.5.5-1.5-2.5-.5 1.5.5 1.5-10.5-4.5zm30 2q7.5-1 8.5 4.5l7 11 5 15 2 14 11 28-5-4-7-10-8-27-11-14zm-17 13 8.5 7.5 14 24-8-7-1.5-2.5-1.5-.5-2-3 3 1-6.5-9.5-.5 1.5 4 5-3-2-3-5h2zm10 0 5.5 2.5 7 17-2-1z"/><path fill="#fcfcfc" stroke="#fcfcfc" d="M406.5 850q9.4 10.6 12.5 27.5l-1.5.5-7.5-10.5zm125 3 .5 1.5-24.5 18.5 5-6zm-14 16-5 6-4.5 3.5-11.5 12.5-20 16-7 1-.5-3.5q27.4-14.6 48.5-35.5Zm-116 2 4.5 3.5 10 16q1.2 12.8 9 19l.5 5.5 1-3 6.5 7.5-9.5.5-9.5-4.5-8-16zm102 3-.5 1.5-8.5 9.5-9 6 7-8zm-13 3 .5 2.5-18.5 16.5 1-2 1.5-.5.5-1.5 1.5-.5-.5-1.5-7 5-.5-2.5 11.5-7.5 1 2 .5-2.5 1.5-2.5zm-76 1 9.5 13.5-5-4zm6 18 4.5 3.5 3 8-3-2zm47 1 1.5.5-1.5 2.5-12 3v-1zm-37 7 7.5 3.5-1 4 9.5.5 1.5 1.5-10.5 5.5q-6.9-6-7-15Zm54 1-1.5 2.5-8.5 11.5-6.5-1.5zm-13 5 1.5.5-6.5 4.5-4.5-2.5zm-18 4 4.5 1.5-2.5 4.5-11 3-.5-1.5 5-3 2.5-3.5z"/><path fill="#8d8d8a" stroke="#8d8d8a" d="m769.5 104 .5 1.5q-55.1 19.4-98.5 50.5l-.5-1.5q43.7-30.8 98.5-50.5Zm6 18 2.5 1.5-.5 1.5 2.5.5q-2.8 4.2-11.5 2.5l.5-1.5-.5-1.5-3.5-.5q8.1 1.6 10.5-2.5Zm31 5 6 2 1.5-.5 5.5 7.5 4.5.5-4.5 1.5-4-5-1 3-4-5 4 2-3-4z"/><path fill="#8d8d8a" stroke="#8d8d8a" d="m786.5 128 3.5.5.5 1.5 4.5 1.5-3 1 9 1-.5 1.5-5-1h-2l-4 1-3-1-3-1-.5 2.5-.5 1.5-1.5-.5.5-1.5-2.5 1.5 1 1-6.5 6.5q-1.9-3.5 3-7-8.2-1.7-10 3l-1-3q-8.4.1-11.5 5.5l1 1-4 4-6.5 7.5-1.5.5q2.8 1.7-1.5 3.5-4-2.5 2-5l1.5-.5-1-1 4.5-4.5 2.5-1.5-1-1 5.5-5.5 1.5-.5-6.5-.5-5 2-3 1-2-1-5 2v-2l-3.5 1.5 2 1-2.5.5-1.5-.5-.5 2.5-3-1-2 1 1-2 7.5-3.5.5-1.5 3 1-1-2-2.5-.5 2.5-.5 3 1 4-3 2 1 1.5-2.5-1.5-.5-2 1v-1l9-3 1 2-2.5.5 2 1 .5 1.5 1.5-.5-.5-1.5 3 1v-1l-1.5-.5 1.5-.5 3 1 3-2 2.5 1.5-2.5 3.5 6 1 2.5-1.5 1-2-.5-1.5 1.5.5-.5-1.5-6 1v-1l2.5-.5.5-1.5 3 1 2-1-.5 1.5-2 5 1.5-.5 8-1 4.5-3.5zm-28.5 6-17 5v1l17-3 2-2z"/><path fill="#8d8d8a" stroke="#8d8d8a" d="m800.5 129 8.5 1.5-1.5.5-6-1v1l14 8 1-2 3 4 1-2 5 9 2-1 1.5 3.5-1.5 4.5-1-3-2.5-1.5 1-2-3.5-6.5-2.5.5 2 1 2 7-2 1v2l1.5 6.5 1-5 .5 4.5-1 2 1 2-1 2v2l-2.5 9.5-.5-2.5 1-15-1-3-2.5-11.5-13 7v-2l-7.5 3.5-.5 1.5-1.5-.5-1.5 2.5-1.5-.5 1.5-2.5-18 8 1-2 26-13 10.5-2.5-7-2 .5-1.5 10 3 .5-2.5-12-7-.5-1.5-8.5-2.5zm-87 5-.5 1.5-4 8 1.5.5 9-5-.5 1.5-.5 2.5-1.5.5-1.5 2.5-1-1-5.5 4.5 4.5-5.5-7.5 3.5-2 5 4-2-4.5 6.5.5-1.5-.5-1.5-8 9 .5-1.5 7-12h-4l.5-1.5 4-1 1.5.5z"/><path fill="#8d8d8a" stroke="#8d8d8a" d="m784.5 136 10.5 2.5-3.5.5-6-1zm66 0 1.5.5-11.5 21.5-.5-1.5zm-87 5 1.5 1.5-9.5 9.5-2.5 1.5 1 1-5.5 5.5-2.5-.5 11-10-1-1zm-41 4 .5 1.5-9.5 5.5 2-3zm47 0 2.5.5-10.5 10.5-2.5-.5q5-8 10-8zm-41 2-.5 1.5-5.5 9.5-1.5-.5zm-121 3-2.5 3.5-2.5 3.5 1.5-2.5zm224 0 3.5 2.5-.5 1.5-2.5-.5-.5-1.5-1 3-.5-2.5zm-141 1 1.5 3.5-1.5-.5-2.5 1.5 2 1 1 3-2.5.5-2 1-1-2-4 3v-2L651 175.5l-.5 1.5-3.5 1.5-.5 1.5-2.5 1.5-.5 1.5-5 2-2.5-1.5 3.5-2.5v2l5.5-3.5.5-1.5 22-15v2l2.5-1.5.5-2.5 8-3 1.5.5.5-1.5 5-2 1.5.5.5-1.5 2.5-1.5zm18 2 .5 1.5-13 17q2-3.2 4 0l-3 1 .5 1.5 1.5-.5-3 2 .5-1.5-2.5.5-1.5 3.5-1.5.5-1 3-1.5 2.5-.5-1.5 2-4h-2l3-1 4-8h-2l4-2-.5-1.5-1.5.5 6-4-.5-1.5-1.5.5 7-5zm-40 3 1.5.5-.5 1.5-11 7-.5-1.5 7-4 .5-1.5zm149 0 .5 2.5-2.5 5.5.5-1.5zm-28 1 1.5.5-.5 1.5-8 4 2-3zm-188 1-.5 1.5-12.5 23.5-.5-2.5zm156 0 1.5 1.5-4 4-1.5 2.5q-3-1.5 0-3l1.5-.5q-3.2-2.2 2.5-4.5Zm81 1 1.5.5-3.5 6.5-1.5-.5zm-8 1 .5 10.5-2 4 1 2-3.5 7.5-1.5-2.5h2l-1-2 1-5-1-2h1l.5 1.5.5-2.5-1-2 1.5-2.5 1.5-.5z"/><path fill="#8d8d8a" stroke="#8d8d8a" d="m685.5 162 .5 1.5-1 2v2l-.5 5.5-1-3-1.5.5v2l-2.5 4.5-1.5.5v2l-2.5 4.5-1.5.5.5 1.5-.5-2.5.5-1.5 1.5-.5.5-2.5 1.5-.5v-2l1.5-2.5 1.5-.5v-2l2-4-1.5-.5-22 13 2-3 23.5-13.5zm-29 3-4 5-2 1 3-4zm78 0 2.5.5-9.5 12.5q-3.2-1.7.5-3.5l4.5-6.5 1.5.5-1-2zm54 8-1 2-30 13-1.5-.5-.5 1.5-10 4-1.5-.5-.5 1.5-4 2q-3.5-2 1-4l7-2 1.5.5.5-1.5zm-175 1h2l1.5.5-1 3-2.5 5.5-.5-2.5 2-4-2.5 1.5-3.5-.5.5-1.5 3 1zm139 0 2.5.5-3 1-.5 1.5-1.5-.5-1.5 2.5-2-1-1 3 1-4zm-69 1 2 6 1.5-.5-.5 2.5-1.5-.5-.5-1.5-1 3zm25 1-1.5 2.5-10.5 19.5-1.5-.5zm100 1-.5 1.5-4.5 7.5-.5-1.5zm-83 1q3 1.5 0 3l-1.5-.5 1 2-7 11 1.5.5 1.5-.5.5 2.5 1.5-2.5.5-2.5 1 3 1.5-.5-9 8q3.3 2.3-2.5 4.5l-13 10v-2l-2.5 1.5 1 2-1.5.5v-2l-2 1 1-2 4-3 1 2 5.5-4.5-1.5-.5-3.5 2.5 7.5-6.5-1 3 3.5-2.5-.5-2.5-2 1 1-2 2-1 1.5.5 1.5-2.5 2.5-.5.5-1.5 1.5-.5-2.5-1.5-4.5 2.5-2.5 3.5-7 4-.5-2.5 4.5-2.5 1.5.5.5-1.5 3.5-2.5z"/><path fill="#8d8d8a" stroke="#8d8d8a" d="m743.5 179-1 4-4.5 2.5 2.5.5 5-2h2l3-1-3 4-2-1-7 3-2-1-1 3-4 2v-2l-2.5.5 1 2-5.5 4.5 2.5-3.5.5-3.5 3.5-2.5.5-2.5v2l6.5-3.5-1.5-.5-1.5.5zm-156 5 .5 1.5-11 31 1 2-2-1 4-10-1-2 2-1v-2zm234 0 1.5 2.5-2.5 4.5-1.5-.5.5 1.5 2 1 3-6-.5 1.5-2.5 6.5-3 1-1.5.5 1 2-2.5 1.5-2.5-.5 3.5-6.5 1.5.5-1-2v-2l1.5-2.5 1 2zm12 0 .5 2.5-15.5 20.5-1.5-.5 2-4h-1l-5.5 11.5.5-1.5-1.5-3.5-.5 1.5.5 1.5-2.5 1.5-1.5 2.5.5-1.5 1-3-2 1-1.5 2.5.5-1.5 4.5-7.5 2.5.5-1 2 2 1 3-7-.5-1.5 1.5.5.5-1.5 1 2 3.5-2.5 3.5-4.5 1.5-.5.5-1.5 1.5-.5zm-197 1 .5 1.5-2 1-4.5 5.5-1.5-.5-2.5 3.5v-2L607 208.5l1.5.5 2.5-1.5-15.5 13.5-1-2 1.5.5.5-1.5 2.5-.5-.5-1.5-1.5.5 1.5-3.5 1 3 1-2q2.2 3.3 4.5-2.5l-1-2 2-1 .5-1.5 25.5-18.5.5-1.5zm20 0 .5 1.5-9.5 5.5 1-2zm16 1 .5 2.5-1.5 2.5-1.5.5.5 1.5-1.5.5.5 1.5-1.5.5.5 1.5-.5-2.5 2.5-4.5 1.5-.5-.5-1.5 1.5-.5zm10 0 .5 5.5-3 2-6.5 11.5-1.5.5.5 1.5-1.5.5v2l-6.5 13.5-1-2 1.5.5-1-2 2-1-.5-1.5 1.5-.5-.5-1.5 1.5-.5-.5-1.5 1.5-.5-.5-1.5 1.5-.5v-2l4.5-8.5 1.5-.5v-2zm-42 1-3 5 9-5-2 3-7.5 4.5-15.5 38.5-1.5.5 1 2-7.5 20.5-1.5-2.5 11.5-30.5 1.5-.5-1-2 13-28-1-1zm162 0-.5 1.5-16 22 3.5.5 4-1v1q-9.1-.1-12.5 5.5l-1 2 1.5.5 7-2v1q-11 1-15.5 8.5l-1 2 1.5.5 2-1h2l5-2q2.1 3.2-3.5 6.5l-.5 1.5-1.5.5-.5 2.5-1.5.5-2.5 4.5-1.5.5.5 1.5 1.5-.5-.5 1.5-10 9-2.5.5-5 7 1.5-.5 9-4-2 3-3.5 1.5-1.5 2.5-4-2-1 2-1.5-.5-.5-1.5-1 3-2.5 1.5-.5 2.5-2.5-.5.5-1.5 1.5-.5.5-1.5 1.5-.5-2-1 5-3-1.5-.5-1.5.5.5-1.5 11.5-8.5 3.5-4.5 1.5-.5 1.5-2.5 4.5-3.5 7.5-9.5 1.5-.5-3.5-.5-7 2-13.5 13.5-.5 1.5-5.5 4.5-4.5 5.5-1.5.5-4.5 5.5-1.5.5.5 1.5 8-4 .5 1.5-4 2 1.5 2.5-2-1-8 3v-1l2.5-.5-4-1 11-10 1.5-2.5 3.5-2.5 16-18-1.5.5-2-1-12 4-2.5-1.5 3.5-.5 1.5.5.5-1.5 3 1 12-4 4.5-4.5 2-3-1.5-.5-33 8-1.5-.5-.5 1.5-4-1-9 3-3 1-14 2h-2l-6 1-3-1v1l1.5.5-6.5.5-4.5-1.5 5.5-.5 2 1q1.3-3.2 7-2l2 1v-2l5 1 6-2 3-1 3 1 9-3h2l9-2 2 1 1-2 6-1h2l24-6 5.5-5.5-4.5-.5-19 4-3 1-6-1-1 2-5-1-1 2-3-1-5 2-3 1-7.5-1.5 4.5-.5 3 1v-1l-1.5-.5 4.5-.5 2 1 1-2 9-1 3-1 5 1 1-2 24-3 7.5-4.5 11.5-17.5 1.5-.5zm-168 5-4 5-4 3 3-4z"/><path fill="#8d8d8a" stroke="#8d8d8a" d="m644.5 193 1.5.5q-4.4 2.6-4.5 9.5l-1.5.5q-8.5 15-12.5 34.5l-1.5-2.5 2-1-1-3 15.5-37.5zm-28 1 .5 1.5-7 5-.5 1.5-.5-1.5q3-6 6-4zm172 1 1.5.5-37.5 12.5-.5-1.5zm-106 1 .5 2.5-3.5 7.5-1.5.5 1 4-3.5 6.5-1.5-.5 1 3h-1l-1-3 3.5-7.5 1 2 .5-2.5-1-2zm160 3-4.5 5.5-3.5 5.5-4.5 3.5-.5 1.5-1.5-.5.5-1.5 1.5-.5.5-1.5 1.5-.5 1.5-2.5 1.5-.5zm-218 1-6 7-10.5 8.5-5.5 10.5-1.5.5-4 8 1.5.5 1.5-.5q-12.3 12.2-17.5 31.5l-.5-2.5 14-31-2 1-.5 1.5-.5-1.5 2.5-3.5 1 2 8.5-12.5-1.5-.5-4.5 3.5.5-1.5 13.5-10.5.5-1.5zm-18 2-5.5 6.5.5 1.5-1-1-5.5 5.5.5 1.5-2.5.5.5 1.5-1-1-7.5 6.5zm199 1 1 2 1.5-.5-3 5 .5 1.5-1.5-.5-7.5 13.5-1-3-3 5-1.5.5-.5 1.5-1.5.5-12.5 13.5-1.5-.5.5-1.5 3.5-1.5 2.5-4.5 1.5.5.5-2.5 1.5-.5 3-4-2.5-.5-1.5.5 4.5-5.5 1 2 8.5-6.5 1.5-3.5 2.5-1.5zm-105 2 2.5.5-.5 1.5-7 3 1-2 1.5.5.5-2.5zm49 2 1.5.5-.5 1.5-17 4-1.5-.5-.5 1.5-6 1-2-1-1 2-3-1-1 2-5-1-1 2-9 1-2.5-1.5 11-3 .5-1.5 2-1-1 3 12-2 2 1 1-2z"/><path fill="#8d8d8a" stroke="#8d8d8a" d="m690.5 211 1.5 2.5-2 3h2l-3 2 .5-1.5-9 6-1.5-.5-3.5 4.5-3 2-2-1-2 4v-2l-9.5 6.5.5 1.5 2.5-1.5-5 4 .5-1.5-8.5 4.5-.5 1.5-.5-1.5 1-4-1-2h1l.5 1.5 1-2 1 2 5.5-3.5.5-1.5 1 2 .5-2.5-1-2 1.5-2.5 1.5.5-1-2 2 1-1.5 3.5-1.5-.5 1.5 2.5 10.5-8.5.5-2.5 1 2 .5-2.5-1-3h1l1.5 3.5 11-7 1.5.5 1.5-2.5 2.5-.5zm136 5-5 6-1.5-.5 4-3 .5-1.5zm-215 1 1.5.5-5 9 1 2-2 1q-9.3 13.7-14.5 31.5l-.5-2.5 2.5-7.5 1.5-.5 2-6v-2zm83 0-4 5-6 4 2-3zm-38 1 1.5 2.5-1.5 2.5-1.5-.5 1 3h-1l-1-3 1.5-2.5 1.5.5zm66 0 2.5.5-8 3 2.5.5 6.5 1.5-4.5.5-2-1v2l-6-1v1l1.5.5-6.5.5-2-1v2l-6-1-1 2-12.5 7.5-.5 1.5-3.5-.5 2-1 5-6-5-1 11-2 .5-1.5 10-3 3 2q3.9-5.6 13-6Zm-147 1 1.5 3.5h-2l1 2-1 3-.5 2.5-1-2-1 2-.5-1.5z"/><path fill="#8d8d8a" stroke="#8d8d8a" d="m686.5 220-2 3-4 3 3-4zm-96 1-5 6zm3 1-7 8zm210 0-.5 1.5 2 7h-1l-1.5-2.5-1.5.5 2-3-6 2 2.5-3.5-.5 1.5.5 1.5zm-206 1-5.5 8.5-15 29 3-2 2.5-4.5 1.5.5-5.5 7.5-2.5 1.5-2.5 5.5-1-2 1.5-.5v-2l6.5-13.5 1.5-.5v-2l9-17-10 9 .5 1.5-2.5.5-.5 1.5-1.5.5.5 2.5 3-1-.5 1.5-6.5 12.5-1.5-.5 1 3-4.5 7.5-1.5-.5 1 2h-2l1 2h-2l1 2-2-1 5-11-14 13-.5 1.5-1.5.5-1.5 2.5-1.5-.5-2.5 5.5-.5-1.5 5.5-10.5-.5 1.5.5 2.5 5-6 2.5-1.5 9.5-10.5 3.5-2.5 5-9-2-1-.5 1.5-3 1 2.5-3.5-.5-1.5-3.5 2.5 6-4v-2l1-3-5 4-4.5 6.5-.5-1.5 6.5-8.5 3.5-2.5-1-1 5.5-5.5 1.5 1.5-5.5 6.5 6.5-4.5.5-1.5 2 1zm-14 3-5 6zm95 0-2 3-4 3 3-4z"/><path fill="#8d8d8a" stroke="#8d8d8a" d="m681.5 227-3 4-3.5 2.5-1.5 2.5-2.5.5-1.5 2.5-7 6 1-3q-13.1 6.9-21.5 18.5l1 1-5.5 5.5-6.5 5.5-1.5 2.5-2.5 1.5-.5 1.5-2 1 3.5-4.5 21-23 .5-2.5 2.5-.5 1.5-2.5 2.5-.5 3.5-4.5 1.5.5 4.5-5.5 4-3-3 4-3.5 2.5 2.5 1.5 4.5-3.5.5-2.5 8.5-5.5.5-1.5zm115 2 2.5.5-7.5 8.5.5-1.5 2.5-4.5 1.5-.5zm16 1 1.5.5-13.5 14.5-.5-3.5 5-3 5.5-6.5 1.5-.5zm-133 2-3.5 4.5 1.5 1.5 2-1 1.5 2.5-3.5 2.5-2-1-1 2-1.5.5 1 2-2.5.5.5-1.5 3.5-4.5 2.5-.5-5-1 2-1zm64 3 4.5 1.5-2.5.5-2-1v2l-5-1v2l-7.5-1.5 3.5-.5h2zm47 0-.5 1.5-2.5 4.5-1.5.5 1 1-5.5 5.5-1-3-1 3q-3.5-2 1-4 1.8 3.8 3.5.5-3.2-2.2 2.5-4.5l1.5-.5-.5-1.5 1.5-.5zm-64 3 5.5 1.5-3.5.5-2-1v2h-2l-4-1-8 2-2-1-5 2-5.5-1.5 6.5-.5 2 1q1.3-3.2 7-2l2 1v-2l7 1zm-45 3 15 2h2l3.5.5-7.5.5-9-1-3 1zm-35 1 .5 1.5-1 2q3.3 3.7-3.5 7.5l2-4-15.5 11.5.5 1.5 1.5-.5-4 3 1.5-2.5-3.5 2.5q2.7 1.7-1.5 3.5l-2-1-3 5-2 1-2-1-11 13-2.5.5-.5 1.5-11.5 8.5-3.5 4.5-2.5.5-6.5 7.5-9.5 7.5-6.5 7.5-.5-1.5 3-2 .5-1.5 1.5-.5 2.5-3.5 1.5-.5-.5-1.5 2.5-.5 4.5-10.5 1.5.5 1.5-6.5.5 3.5-3 6 5.5-4.5 2.5-1.5.5-1.5 1.5-.5.5-1.5 11-10 1.5.5 1.5-3.5 1.5-.5.5-1.5 1.5.5.5-1.5 1 2 1.5-5.5-1-4 2.5-5.5 1.5.5-1-4 1.5-3.5 1.5 3.5h-2l1 4-1.5 3.5-1-2-.5 2.5 1 2h-1l-.5-1.5-.5 3.5q1.8 3.3 3.5-.5l2.5-1.5 3.5-4.5 2.5-1.5.5-1.5 1.5-.5-1-4 2 1 .5 2.5 1-2 2.5-1.5.5-1.5 3.5-.5 4.5-5.5 4.5-2.5.5-1.5 6.5-5.5zm-80 2-.5 1.5-5.5 6.5-1.5.5.5 1.5-1.5.5-4.5 7.5-.5-2.5 2.5-3.5 1.5-.5v-2l5.5-7.5 2 1zm231 2 1.5 8.5h-1l-1.5-5.5-3.5 2.5-.5 1.5-1.5.5-22.5 24.5-1.5.5 5 1-.5 1.5-6-1-1 2-7.5-.5 4.5-1.5 2 1 2-3 2.5-1.5 2.5-3.5 1.5-.5 1.5-2.5 1.5-.5 5.5-6.5 5.5-4.5 1-2-2-1 1.5-.5 1.5.5.5-1.5 1.5-.5.5-1.5 2.5-1.5.5-1.5zm-20 3q2.1 3-3 6l-1.5.5-.5 1.5-4 2v-2l-1.5-.5 9-4q-2.8-1.8 1.5-3.5Z"/><path fill="#8d8d8a" stroke="#8d8d8a" d="m622.5 250 1.5 5.5-1.5 3.5-1.5-3.5h2zm44 0-5 6-1.5-.5 1.5-2.5zm117 0-2 5-1.5-.5-1.5 2.5-5 2 1-2 3-2 1.5.5zm-220 2-.5 1.5-4.5 7.5-.5-1.5zm93 0-8 9zm-5 1-5 6zm-21 11-2 3-5 4 4-5zm13 0-7 8zm152 0 2 9 2.5.5-.5 1.5-4.5-1.5zm-255 2 1.5.5-4.5 5.5-2.5.5.5 1.5 1.5-.5-3.5 6.5-.5-3.5 1-2-1-2 1.5-4.5 1 3zm40 0 1 2-1.5.5 1 2-4 5 1 2-2-1 2.5-5.5 1.5-.5-1-2zm150 0 2.5.5 1 2-8 6 .5 1.5-1.5-1.5 3.5-4.5-1.5-.5 5-1-.5-1.5zm-143 2 1.5 2.5-1.5 2.5-1.5-.5 1 2-2-1 1.5-3.5 1.5.5zm57 0 .5 1.5-2 1-.5 1.5-8 6 5-6 1.5-.5.5-1.5zm-23 3-9 10-7.5 5.5-2.5 4.5-1.5.5-.5 1.5-1.5.5-.5 1.5-1.5.5.5 1.5 1.5.5q-8.2 1.8-11.5 8.5l-1.5-1.5 7.5-9.5 1.5.5 4.5-5.5zm131 1-3.5 4.5-.5 1.5-6.5 5.5 1.5.5 2-1 1 2-9 3-1.5-.5 1 2-1.5.5-1-2-2 1 1-2zm-204 1 .5 2.5-2.5 1.5-3.5.5 5-3zm154 0 6.5 1.5-6.5 1.5v-1l1.5-.5zm-133 1 1 2-1.5.5v2l-1.5 4.5-1.5-.5zm168 2 1.5.5-4 2-.5 1.5-1.5.5-.5 1.5-1.5.5-.5 1.5-1.5.5-2 3 4 1-8.5 1.5-.5-1.5 10-9-3-2 1.5-.5 4 1zm47 0 2.5.5-.5 1.5-2-1-5 2-.5-1.5 1.5-.5h2z"/><path fill="#8d8d8a" stroke="#8d8d8a" d="m751.5 277 1.5.5-.5 1.5-3.5 2.5 2.5.5 3-1 .5 1.5-6.5 1.5-.5-2.5.5-1.5 2.5-1.5zm-206 1 1.5.5-2 1 .5 1.5-1.5.5v2l-3.5 4.5-1.5-.5 1 3h-1l-.5-1.5-1.5.5-.5 1.5-1.5.5-1.5 3.5-.5-2.5 5.5-6.5 2 1 2-4 1.5-.5v-2zm82 1-2 4 3 1 2-4 .5 2.5.5 1.5 2.5-1.5 1.5-2.5 2.5.5 1 2-16 5-.5 1.5-1.5-3.5zm168 0 .5 6.5-4.5 5.5-1.5-2.5 5-7zm-133 2 4.5.5-5 1 3 1-3.5.5-.5-1.5zm-133 1-1.5 2.5-.5 8.5-2.5.5 1 8-4 1 3-6-2.5 1.5-1.5.5-12 24 1 2h-2l1 4-1.5 5.5-1.5-.5 1-9-3 2-.5 2.5-4.5 1.5-4.5 10.5-2-1-1 2 2.5.5-1 3-2 7 1 4h-1l-1-7 2-3-1.5.5-1.5.5-2.5 4.5-2.5.5 1 2h-1l-.5-1.5-.5 2.5v2l-7.5 15.5-1.5.5-1.5 5.5-.5-3.5 1-4h-1l-4.5 13.5-1.5-.5 1 5h-2l1 5h-1l-1.5-5.5-1 2-1.5.5-6 14-5.5 6.5-1.5.5 2 1-2.5 5.5-1-2-2 1-1.5-.5 1.5 3.5 3 2 1.5-.5.5 1.5 2.5-1.5 1.5-6.5 2.5 1.5 1.5 3.5 1.5-.5-2.5 6.5.5-1.5-1.5-6.5-1.5.5-2 11 4 3-1 2 1.5 9.5 2-6 1 2 3-4 .5 1.5-5 3 1 2-4.5 5.5-1.5-.5 1 2-5.5 7.5-2-3-1.5.5 2 4-2.5 3.5-1.5.5.5 1.5-5-1 1 4 3-2-1.5 2.5-5.5 8.5-1.5.5-1 3-4.5 6.5-2-1-.5 1.5 2 1-2.5.5-2-1-1 2-3-5h-2l-1.5-.5.5-4.5 1 3 .5-3.5-1-3 .5-3.5 2-1 .5 2.5.5 2.5 2.5 1.5 1.5 3.5 3-6 1.5.5-1-5 1-2-2-1 2-7-1-6h1l.5 3.5 1.5-.5v-2l2-12 10-24-2.5-.5-2 4 .5-1.5 1.5-4.5 1.5.5 1-3-.5-1.5 2 3 1-2h2l1.5-.5-3-1v-2l1-2-2-1 3.5-4.5 1.5 3.5.5 1.5 1.5-.5-3-6 1.5.5 1.5-.5 1-2-1.5-.5-1.5.5 4.5-8.5 1 2q3.3-1.7-.5-3.5l2-2 1.5-3.5 2 1 3-5 1.5-.5v-2l5-11h-2l4.5-5.5 2.5-.5-.5-1.5-1.5.5 3.5-5.5 5.5-2.5 11-18 .5-2.5 1.5-.5.5-1.5 1 2 4.5-8.5h-2l4-2-1-2 1.5-2.5 1.5-.5.5-1.5 1.5-.5 3.5-6.5 1.5.5-1-2 1.5.5 2.5-.5-.5-1.5-2.5-.5q4.5.1 9-7l6-10-2-1 2-1zM510 315l-3 4h-2l1 2-1 2 3 1 1-5h2zm-33 46-4 2-1 2v2l1 2 2-5 1 3v-2l3-2zm-31 62-5 13h-2l1 2v2l-1-3-1 3-1 4 2-1v6l-1 7-2 1 2 4 3-2-1-1 5-9v-2l3-22zm5 6-1 3-1 3 2 4 1-6zm-17 24v3l-3 14h2l3-9zm139.5-171 1.5 2.5-2.5 4.5-1.5-.5 1 2-2-1zm45 1-12 13-6.5 4.5-5.5 6.5-1.5.5-.5 1.5-16 13v-1l22.5-19.5 1.5-2.5zm97 0 1.5.5-6 5 4 1-13.5.5v-1h7zm45 0 1.5.5-12.5 10.5v-1l4.5-2.5 2.5-3.5 1.5-.5zm-201 1 1.5 2.5h-2l1 2h-2l1 3h-1l-1-3zm6 0 1.5.5-.5 1.5-1.5.5 1 2-2.5 5.5-1.5.5.5 1.5-1.5.5 1 2-2 1 1 2h-1l-1-2 4.5-10.5 1.5-.5-1-2zm-44 1-8 9zm159 0 1 2 3 1 1.5-.5-2.5 1.5-8-1-4.5 1.5.5 1.5-1.5-.5 1.5-2.5zm13 0 3.5.5-2 1 4 2-1.5.5-7.5-2.5zm28 6 5.5.5-3 2-4.5 5.5 1-3-5.5 2.5-.5 1.5-7.5 4.5-.5 1.5-3.5 1.5-.5 1.5-1.5.5.5 1.5-3 2 1-3-3.5 2.5.5 1.5h-2l-8 5-1.5-2.5 1.5.5 13-10 1 2 3-5 1.5.5 3-4-7.5-.5-9.5 6.5-.5 1.5-6.5 4.5 1 2-1.5-.5-3.5 1.5 2 4h-1l-.5-1.5-2 1 .5-1.5-.5-1.5-1.5-.5 13-9 .5-1.5 3.5-2.5-4.5-.5-7 2h-2l-2.5-.5.5-1.5 4 1 2-2 10-1 6.5-5.5-5-1 4.5-.5 2 1 2-1 11 1v-2l1.5.5.5 2.5 2.5-.5zm-16.5 3-4 4 1 1 13-3zm-93.5 0-3.5 4.5 1.5 1.5 2.5.5-2.5.5-2.5-1.5zm31 0 .5 1.5-12.5 2.5h-2l-4-1-6 2-1-2 12-1h2zm105 1 1.5.5-10 9-.5 1.5-2 1-.5-1.5 2-1 .5-1.5zm-237 2-5 6zm3 1-2.5 3.5-.5 1.5-1.5.5-4.5 8.5-1.5.5.5 1.5-1.5-.5 1 2q-2.5 3.6-5 0l3-1 2-3-.5-1.5 2.5-1.5 1-2-3-1q2-3.2 4 0l3.5-5.5zm214 0 1.5.5-.5 1.5-2.5 1.5 1 2-2 1 .5-1.5-4.5 2.5.5 1.5 2-1-3 4-1.5-.5 1.5-2.5-5.5 3.5-.5 1.5-8 6 4-5 1.5-.5.5-1.5zm-71 2 1.5.5-31.5 5.5-2.5-1.5zm-52 1-5 6zm-19 1-6 7zm-52 1 1 2 1.5-.5-1.5 5.5-1.5.5 1 3-5 15 1 2h-1l-1-6 2-6-1-3h1l.5 1.5 1-3 1.5-.5-1-3 1-3-1-2zm140 0 3.5.5-.5 1.5-10.5 1.5-.5 1.5-2.5 1.5-.5 3.5-.5-3.5 1.5-2.5-25 5-.5-1.5zm-56 2 6.5 1.5-4.5.5-2-1v2l-5.5-1.5z"/><path fill="#8d8d8a" stroke="#8d8d8a" d="m585.5 306 1 2-1.5.5-.5 1.5-1.5.5-9 11 .5 1.5q-1.7-3.7-3.5-.5l-1 2 4.5.5 4-2v1l-3.5 1.5-.5 1.5-4 3 2-4-2.5.5-2 3 1 2-15 14 1 1-6.5 6.5-3.5 2.5-9.5 11.5-.5-1.5 3-4-3 1 17.5-15.5 1.5-.5-1-1 6-6-.5-1.5-8.5 7.5 8.5-8.5 1 1 2.5-1.5 7-10-4 3-5.5 6.5 4.5-5.5 12.5-14.5 1.5-.5-1-1zm21 1 6.5 1.5-4.5 2.5-1-3-1.5.5-.5 1.5-2-1-4 2-2-1v2l-4 1 1.5-2.5.5-1.5h2l4 1 1-2zm23 2 .5 1.5-3 1 5.5.5 4-1 .5 1.5-7.5 1.5-5.5-2.5zm88 2 1.5.5-2 1-4.5 5.5-8.5 5.5 1.5 2.5-2-1-2.5 1.5 2.5-4.5zm12 0 .5 1.5-21.5 16.5v-1l3.5-1.5 1.5-4.5zm-108 1 4.5 1.5-.5 1.5-5-1-1 2-10 1-3.5-1.5zm-30 1-5.5 6.5 1.5 1.5 1.5.5-1.5.5-3.5-1.5zm-66 3 .5 3.5-1.5 3.5-1.5.5-7.5 17.5-.5-1.5 9-19 1-3zm-28 1 3.5 1.5-5 2z"/><path fill="#8d8d8a" stroke="#8d8d8a" d="m597.5 317 2.5.5-.5 2.5-10.5 6.5 7.5 1.5v-1l-1.5-.5 3.5-.5 3 1v-2l3 1 7-2 3-1 5.5 1.5-3.5.5h-2l-5 1-2-1-15 5v-1l1.5-.5-6.5-1.5-.5 1.5 4 1-3.5.5-4.5-1.5 11-7-6-2 2.5-.5 5 2-1-2-1.5-.5 2.5-.5 2 1zm35 3 5.5.5-15.5 3.5-2.5-1.5zm47 0q3.8 2.3 1.5 10.5h-1zm-199 2 1.5.5-5.5 6.5-.5-1.5 1.5-2.5 2.5-1.5zm213 0 1 3 1.5-.5.5-1.5.5 1.5-3.5 2.5-1.5-3.5zm-136 2 .5 1.5-5 4-5.5 6.5 3.5-4.5-1-3 1.5-3.5 2 3 3.5-2.5zm4 2-5 6zm152 2 1.5.5-3 2-.5 6.5-.5-7.5zm-170 2-.5 1.5-1.5 6.5-1-3-8 11-1.5.5-2 3 1 1-5 5-1.5 2.5-2.5.5 2 1-3 1-.5 2.5-1.5-.5-1 5 3-1q-1.7 4.3-3.5 1.5l-1.5.5-.5 1.5-1.5-2.5 3-2 5.5-10.5 2 1 .5-1.5-.5-1.5 2.5-.5-.5-1.5-1.5.5.5-1.5 2 1 1-2 1.5-.5zm40 0 2.5.5-9 5-11 14 1.5-.5 5-2 .5 1.5q-14 3-23.5 10.5-2.2-3.2-4.5 2.5l2 1 .5-1.5 1.5.5.5-1.5 39-12-1 2-18 5-4 3-3-1-16 7-2-1v2l-4 2 .5-1.5 11.5-12.5 5.5-2.5.5-1.5 3.5-2.5.5-1.5 4-2h2l1.5-.5 9-10-.5-1.5zm67 2 5.5 3.5-3.5 5.5-4.5 3.5.5 1.5h-2l-2 1 2-4-15 3v-1l17-4 5.5-4.5-.5-1.5-2.5-.5zm-96 1-5 6zm17 0-16 17zm100 0 2.5 5.5-1.5.5-3-4 1.5.5z"/><path fill="#8d8d8a" stroke="#8d8d8a" d="m648.5 334 1.5.5-.5 1.5-9 1v-1zm-163 2 2.5.5-16.5 21.5.5-1.5zm42 0 3.5 2.5-1.5-.5-1.5.5-2.5 10.5-1.5-4.5zm156 0 .5 4.5-2 1q3 2-2 4l-.5 1.5-1.5.5-1.5 2.5-1.5-.5 2-1 3-5h-2l5-4v-2zm-102 1 1.5 2.5-10.5 4.5v-1l5.5-2.5.5-1.5zm79 1 2 3 1.5.5-1.5 2.5-5 4v-3l4.5-2.5-.5-1.5-8 3v-1l7.5-3.5zm16 0 .5 2.5-6 9 4-2-7 6 1.5-2.5-2.5 1.5-.5 1.5-2.5 1.5-.5 2.5-1.5.5-1.5 2.5-1-2-4 3-1.5-.5-.5 1.5-.5-2.5 1.5-3.5 1 2 7.5-5.5.5-1.5 11.5-10.5-4-1 5-1zm-71 2 4 1 1.5-.5-3.5 1.5-2-1-1 2-6-1-4 2-2-1v2l-6.5-1.5zm-59 2 1.5.5-5.5 8.5-.5-1.5 3-4-2-1 1.5-.5 2.5-.5zm-7 2-6 7zm187 1 2.5.5-5 4 .5 1.5q-3-1.5 0-3l1.5-.5zm-101 1 4.5.5-34.5 9.5v-1zm-78 3-5 6zm98 0 1.5.5-.5 1.5 3.5.5-5 1 4 2-4.5 1.5-.5-1.5.5-1.5-2.5-.5 3-1zm-225 1 8 9zm94 1 1.5.5-5.5 8.5-1.5-.5-1 3 .5 1.5-2.5.5 1 2-4 3-2.5 8.5-.5-4.5-1-3 .5-4.5 1 5 8-14 2 1zm208 0 .5 2.5-.5 2.5-5 4 .5-1.5 2.5-4.5 1.5.5-1-2zm-84 1 4.5 2.5-.5 2.5-2-1v2l-2.5-1.5-.5 1.5-5.5 4.5.5 1.5 2.5.5-2.5.5-6-3-4 1v-1l11.5-4.5-5-1 11-2-4.5-.5-7 1v-1zm-101 2-.5 1.5-5 10h2l-2.5 3.5 1.5.5-4 3-3.5 5.5-2.5.5 1 2-4 2-1.5 4.5-1.5.5-11.5 14.5-4.5 2.5-4.5 10.5-3.5 2.5-3.5 6.5-2.5.5v2l-4.5 6.5-2.5 1.5-.5 2.5-2.5.5 2 1-.5 1.5-2-1-3 4-1.5-.5 2-1 6.5-10.5 1.5-.5 1.5-2.5 2.5-.5-.5-1.5-1.5.5 2.5-4.5 3.5-2.5 2.5-4.5 1.5-.5 13.5-19.5v2l2.5-1.5-1-3 2-1-.5 1.5 2.5-1.5 2-3-1.5-.5-2.5 1.5 4.5-5.5h2l1.5-.5-.5-1.5-1.5.5 4.5-5.5 3.5-.5.5-1.5 2.5-1.5-.5-1.5-5 4 5.5-6.5zm-9 2-7 8zm5 0-7 8zm60 0v2l1.5.5-5 1 .5 1.5-1.5-.5 1.5-2.5zm-28 3 3.5 1.5-4.5 1.5-2.5-1.5 1.5-.5 2 1zm31 0 3.5.5-4 1 .5 1.5 1.5.5-1.5.5-4.5-2.5zm12 2 18.5 4.5-4 2 2.5.5 2-1v2l1.5-.5.5-2.5 3 1 1.5-.5-9.5 10.5-1.5-.5-3.5 4.5-5 4 1-4 4.5-1.5-.5-2.5-2.5 1.5q7.3-3.2 1.5-6.5l-1 2-1.5-.5-.5-1.5-2 3v-3l5.5-4.5-9-3-.5-1.5-4 1v-1zm17.5 8-5 4 2 2 4-5zm22.5-8 1.5.5 1 2-1 3 1.5 2.5-4-2-14 13-2.5.5 1 1-9.5 9.5 10-13 8.5-6.5 1.5-2.5 5.5-4.5v-2zm12 1 2.5.5-1 3h1l.5-1.5 4.5 10.5h-1l-.5-1.5-2.5-1.5-1.5-2.5-1.5-.5-1-4zm-75 1 .5 1.5-12.5 3.5h-2l-10 2-2-1q-2.9 4.1-11 3v-1l1.5-.5.5-1.5 3 1 20-4 2 1v-2zm-97 1 1.5 10.5h-1zm150 0 2.5 1.5-9.5 10.5 8.5-9.5-.5-1.5zm-127 5 1.5.5-12 17h2l-4 3 .5-1.5 1.5-.5-2-1v-2l.5-4.5 3 1 6-8 1.5-.5zm144 1 4.5 6.5-3-1 3.5 5.5.5-1.5-.5-1.5 2 3-1.5.5 8.5 14.5 1-2 4 8 .5-2.5-3-6 2-1-1 2h2l-1 2h2l-1 2h2l-1 2h2l1 2-1.5.5-2-1-.5 2.5 3 5-.5 1.5 1.5.5-.5 2.5-1.5.5 2 1 3 10-3.5 1.5v-1l2.5-.5-2-1 1-3h-1l-.5 1.5-1.5-.5.5-2.5 1.5-.5-4-9 .5-1.5-1.5-.5-3-6 .5-1.5-1.5-.5-5-8 .5-1.5-1.5-.5-10-18z"/><path fill="#8d8d8a" stroke="#8d8d8a" d="m498.5 372 .5 2.5-1.5 4.5-1.5.5q-3.7 4.3-2 14l2 1-5 4 .5-4.5 1 3 .5-3.5-1.5-2.5 1.5.5-1.5-3.5-1.5.5-.5 2.5-2.5-4.5 1-3-1-10h1l1 5-1 2 1.5 6.5 3-8 1 4 1.5-2.5-.5-1.5 1.5-.5zm44 0 .5 1.5-.5 1.5 1.5.5-1.5.5-3-1-11 6-7 7 6.5-7.5 5.5-6.5v2zm68 1 1.5.5-2.5 4.5-1.5-.5.5-1.5-2-1-5 2 1-2 6-1 2 1zm-44 1 2 5q11-1.9 16.5 1.5l-6.5.5h-2l-2-1h-2l-4.5 1.5 6 5-.5 2.5-1.5-.5.5-1.5-2 1-1-3-1.5-.5v-4l-1.5-2.5-4-1-1 3-2.5-.5-1.5-2.5-2 1-.5-2.5 1.5-.5 4 3z"/><path fill="#8d8d8a" stroke="#8d8d8a" d="m615.5 376-.5 1.5 1 2-3 1-3.5 5.5-3.5 2.5-.5 2.5-5 2 7-8 2.5-1.5-2-1-.5 1.5-2-1-1 2-4-1-3.5 1.5 3.5.5 1.5-.5-6.5 5.5-.5-1.5 3-2-3-2 2-1-.5-1.5-1.5-.5 2.5-.5 1 2 4.5-2.5 2.5-3.5 1.5.5-.5 1.5-1.5.5.5 1.5 4-1 1 2 1-3 2.5-1.5zm53 0 4.5 3.5-1 2 .5 1.5-1.5-.5zm-253 1 6 1 2-1 1 2q-9 2-9-2Zm131 1 2.5 1.5.5 3.5 2.5.5-4.5 1.5.5-3.5zm-117 1 7.5 2.5 2.5 8.5 2-1 .5 1.5 1 3-.5 1.5-5.5-4.5-4.5-9.5zm199 0q.7 5.5-8 11l3-6 2.5-.5q-3.2-2.2 2.5-4.5Zm-67 2 2 3 1.5-.5.5-1.5 2 4 1.5.5-1.5.5-5.5-3.5zm81 2-2 3-1.5.5-1.5 2.5-16 11v-1l12.5-8.5 1.5-2.5zm-214 2 2.5 1.5-1 2 5 5v5l4.5 9.5 1.5.5-2.5 3.5-3.5-.5q3.9-2.3.5-4.5l3.5 2.5-2.5-4.5-3.5-1.5-1-2 2-1-2-9-2.5-2.5-1.5-.5-.5-1.5-1.5-.5zm124 0q11.5 1 18.5 6.5l-1 2h2l.5 1.5 2.5.5 1 3-.5 1.5 1.5.5 1 3-2.5 1.5-1-2-1.5.5v2l-1.5 5.5-1-2-2.5 7.5 1.5-.5 1.5-.5-1-2 2 1 1 2-4 3-1.5 2.5-1.5-.5-2-3 2-1v-5l5-14-2 1-6 15 .5 1.5-1.5-2.5v-2l8-17-1.5-.5-8 12-.5-2.5 9-12-2.5-.5-3-1-5 13-1.5-2.5 4-10-6-2 2-1-3.5-1.5-1 3-5 2-2-1-1 3-3-1-1 3-4.5 2.5-1.5 2.5-2-1-.5 1.5 1.5 4.5 5.5-4.5-9 15h2l-1.5 3.5-2.5.5 3.5.5 2.5-5.5 1-3 1.5-4.5 2 1 2-3 .5 1.5-4 8 4 17 3.5 4.5 4.5-1.5-2.5-1.5-2 1-.5-2.5v-2l.5-1.5 1 2 5 2 3-2h2l1.5-.5-.5-1.5 3 1 1.5-.5-.5 1.5-1.5.5-.5 2.5-7 1-2-1-.5 2.5-.5 1.5-3.5.5 2.5 3.5-4.5-2.5-.5-2.5-1.5.5.5 1.5q-2.2-4.8-9-5l-1.5.5-1.5-4.5 2 1-2-3-1.5.5-1-3 1.5-2.5-1.5-.5 1-4-2-1 2.5-7.5 1.5-.5 1-3-2 1-.5 1.5-.5-1.5q1.4-10.6 9.5-14.5l5-1 1.5-.5.5-2.5zM535 415l-1 5-1 6 1 2v-3l2-9zm-62.5-27 .5 2.5v8l-3.5 6.5-1-4-1 3-.5-2.5 3-1-1-8h1l.5 1.5zm63 0-.5 1.5-1.5 2.5-3.5.5.5-1.5zm83 0-4 7-2.5-.5zm-132 2 1.5 8.5-4 2-4.5 9.5-1.5-.5.5 1.5 3.5 1.5-5.5 6.5 1.5-2.5 2-3-2.5-1.5-6.5 9.5v3h2l-4.5 2.5-1-2-1.5.5 1.5-13.5.5 4.5-1 5 4-3 6.5-10.5 1.5-.5 1.5-4.5 1.5-.5 3.5-6.5 1 2 .5-2.5zm189 0 3.5 1.5 7 12h-2l14 28h-1z"/><path fill="#8d8d8a" stroke="#8d8d8a" d="m550.5 392-2 3-8 5 3-4zm-148 3 .5 1.5-2 5 2 1-1.5.5-2-4-3 1 1-2 4.5-1.5zm205 2v2l2-1-1 2-8 4 1-2zm-83 2 1.5.5-1.5 3.5-1.5.5v2l-2.5 3.5-2.5-.5 3-1-2-1-1-2h2l1-2-.5-1.5 1.5.5.5-1.5zm-37 1 1.5 3.5-3 1-.5 2.5-.5-3.5 2-1zm102 0 2 3-1.5.5.5 1.5-2 1-.5-3.5h2zm-75 1 3.5 1.5-5 8 .5 1.5-1.5-.5-2.5 4.5-.5-1.5 2-5-4 3-2 4h2l-4 2-2 4 .5 1.5-1.5-.5.5 2.5 1.5.5-5.5 6.5 3.5 1.5-1.5.5-3-2-1 2-6 2v-1l3.5-1.5 5-10-1.5-.5-1.5.5 8.5-12.5.5 1.5q-5.4 2.8-3.5 5.5l-1.5-.5.5 4.5zm164 3 3.5 5.5-.5 1.5 1.5.5-.5 1.5 1.5.5-.5 1.5 1.5.5 3 10-1.5.5-3.5-6.5 1-2h-2l-2-8v-2zm8 1 2.5.5 2.5 5.5 1.5.5 3 5 .5 2.5 2.5.5h-2l1.5 2.5 1.5-.5-1 2 3 1-1 3h2l2 7-1 2 .5 1.5q-5.1-4.4-6-13l-1.5-.5zm-99 2 2.5.5-.5 1.5 4-2-1 2-5 1zm20 2-.5 1.5-.5 1.5-15.5 9.5.5 1.5 2.5.5-2.5.5q-2-4-4 0l-1.5-.5-1-3h1l.5 1.5 9.5-5.5.5-1.5zm-85 1 .5 3.5-2.5 3.5-2.5-1.5 2-1 .5-1.5 1.5.5-1-2zm30 1 1.5.5-13.5 10.5-.5-1.5z"/><path fill="#8d8d8a" stroke="#8d8d8a" d="m518.5 412-2.5 3.5 2.5 2.5 1.5.5-2 3 1 3-.5 2.5-1.5-.5 1-3-2.5-1.5-1.5.5 1.5-4.5 1.5.5-1.5-2.5-2 1q-3-1.5 0-3h2zm55 0 1.5.5.5 2.5 1.5.5.5 2.5 1-3 .5 3.5-2.5.5-1-2-1.5.5 1-2-2-1zm43 5 3 2 3-1 11-1-1 2h-2l-6.5.5 22 1-22.5.5q-6.5-.5-7-4Zm-40 3 1 2-1.5-.5-1 4 1.5.5 2-3 .5 1.5-3.5 5.5-1-3-4.5 9.5 2-1 .5-1.5 2 3-1.5.5-11.5 16.5-6.5-2.5 2.5-1.5 3 1v-1l-1.5-.5 2-1-3.5-.5-6 2v-1l1.5-.5-4.5-.5-1.5.5.5-1.5 3.5-.5 1-2-2.5-.5-3 2-1-2-1.5-.5.5-2.5 1 2 3 1v-2l10 2 7.5-4.5-1-1 5-5 3-5-2-4zm29 0 12.5 4.5-1.5-.5-7-1-1 2-1.5.5 1 2-2.5 4.5-1-3-1 2-.5-1.5 1-2-2.5-.5-1 3-1-3-1.5 9.5h1l.5-5.5.5 7.5-2 1-.5-2.5-3.5 7.5 1 2h-1l-2-5 1-2h-2l2-3-2-7h1l.5 1.5 3-4 4-3 1 3 4.5-1.5 3-4zm-186 2 2.5 1.5 2 6v2l1 5-2 4 1 6-1.5 8.5-2.5-9.5h2l1-13-2.5-3.5-2 12-1.5-8.5 1.5-4.5 2-1 1.5.5-1.5-3.5-1.5.5zm104 1 1.5 5.5-1 2h2l1 2-3 1 2.5 1.5 2.5.5-2 1 2 1-2.5.5-6.5-4.5 2-1-.5-5.5-1.5.5zm113 0 6.5.5-5.5 8.5-.5-3.5 2-1 2-3-4.5-.5-13.5 1.5 11 5-2.5.5-12.5-5.5zm-159 1-.5 1.5-13.5 22.5-1-2-3.5 2.5 6.5-8.5 2.5-.5-.5-1.5-1.5.5 3-1-1-2 3-2 .5-2.5 1.5.5 1-2-1-1zm-14 1 .5 3.5-2 4 1 3h-2l-1.5 2.5v-2l-1.5-.5.5-4.5 1 4 1.5-3.5-2-4 2-1 .5 1.5 1.5-.5z"/><path fill="#8d8d8a" stroke="#8d8d8a" d="m612.5 425 .5 2.5-1 4 3.5 5.5 11 3 3-2 1 2 3 2 1.5-.5 2 6-1.5-.5-3.5-1.5 1-2-2.5 1.5-7.5-1.5 1.5-.5 6 1 .5-1.5-1.5-.5h-2l-3-1-5 2v-1l1.5-.5-7-5-.5-1.5-1 9-.5-2.5-1.5-13.5-1.5-.5zm-120 1 1 2-2.5.5 1 3-3 1 .5 1.5-2.5.5-1.5 3.5-1.5-.5zm-27 2 4.5.5-5.5 6.5.5-1.5zm119 0 3.5.5 2 3-.5 2.5-1.5-.5-.5-1.5-2.5.5 2 1-4 2-3 9 1.5.5 3-8 .5 2.5-2 9 1.5 2.5 1-2 .5 1.5-4.5 10.5-5.5-7.5 2.5 1.5 3 1 2.5-3.5-3-2 1-3-3.5-4.5-2.5-.5 2-4-1-1 5-5-1-1 .5-2.5zm-18 1q3 1.5 0 3l-9.5 4.5-1.5 3.5.5-1.5 1-3-2-1 1.5-.5 3 1zm78 0 1.5.5.5 2.5 2.5.5-2 1 .5 1.5 3.5-.5.5-4.5 2 3-1.5.5 2.5 1.5 3-1v1l-1.5.5.5 1.5q4.4-4.6 16-2l4.5 2.5-3.5.5h-2l-8-2v2l-5-1-3 1q-2-3-4 2l-7.5-.5-1-2 .5-1.5-1.5-.5zm21 0 12.5.5 3.5 5.5 11.5 4.5-3.5.5-5-3-2 1-3.5-2.5-3.5-5.5h-10z"/><path fill="#8d8d8a" stroke="#8d8d8a" d="m679.5 429 3.5.5.5 2.5 1.5-.5 1.5-2.5 6.5 3.5-3 1 2 1 .5 1.5 2.5 1.5-1.5.5-3-2h-2l-5.5-2.5-.5-1.5-1.5-.5-.5-1.5zm-169 3 1.5.5-8 5 5 2-2.5.5-3-2-.5 1.5 2 1-1.5 2.5-10 5v-1l5.5-3.5-2-1 1.5-.5 2 1v-2l2.5-.5-3-1zm93 0 5 8 1.5.5-1 3q4 2 0 4l.5 1.5 1.5-.5-2.5 3.5 2-1 1 1 6.5-5.5.5 1.5 3-1v1l-3.5 1.5 3 2-4 3 2.5 1.5 2-3 7-2 11 5 6 6 2.5.5.5 3.5-9-9-7-1-2 6-2-3-1 2-1-7-1.5.5-.5 2.5-.5-2.5.5-1.5-3.5 1.5q-1 5.5 2.5 6.5l1.5.5 1.5 2.5 1.5-.5-.5-1.5 1.5 2.5-4.5.5-2.5-1.5 2.5 3.5 4.5.5-3.5 1.5-6.5-1.5 4-1-2-1-4.5-10.5-1.5-.5-.5-1.5-2.5 4.5-.5 1.5-1-3-1 3-3.5-6.5q5.8-2.7.5-5.5l-3.5-1.5-.5-1.5-1.5.5v-2l-.5-1.5-1.5.5q1.5-3 3 0l3.5 4.5 2.5-1.5-2.5-3.5 1.5.5-1.5-3.5-1 2-1.5-3.5h1l.5 1.5.5-2.5-2-1zm-193 4 5.5 6.5-2 1-1 6 2 2-1 3-5 14 1 3h-1l-.5-2.5-1.5.5 4.5-21.5 1.5-.5-1-3 1-5zm226 0 1 4 2.5.5-2 1-.5 1.5zm-145 1-1.5 2.5-3 4 .5 1.5-3 1 1.5-2.5 1-2-1.5-.5-2 3-1.5.5 1 2-1.5.5-1-2-1 3-2.5-.5 7.5-8.5zm50 3 1 7 2-1v1l-3 1z"/><path fill="#8d8d8a" stroke="#8d8d8a" d="m615.5 441 1.5.5-2 1 2 1-1.5 2.5-1.5-.5 2-1q-3.7-1.8-.5-3.5Zm49 0 5 1 2-1 1.5 2.5-1.5.5h-2l-4-1-2 1h-2l-3-1-5 1-.5-1.5 6.5-.5h2zm-128 2 .5 1.5-4.5 5.5 2.5-3.5zm-65 1-4.5 5.5-7.5 8.5 6.5-7.5zm-98 1q2 2.5-2 5l-2.5-.5zm131 1 4.5 1.5-20 13 2.5 1.5 20-8v3l-3-1-15.5 6.5.5 1.5 2.5.5-2.5.5-4-3-1 2-1.5-.5-.5-2.5-7 4 1-2 5.5-3.5-2-3 3-2-1 2h2l-1 4h1l2.5-3.5 6.5-3.5-3.5-1.5-2 3-2 1v-2l-3.5-1.5 2-1 1.5-2.5 9 4 5.5-3.5-1.5-2.5 3 1v-1zm-19 1-.5 1.5-4 5 .5 1.5-4 1-3-2-1 2q-4-2.5 2-5l1.5.5.5-1.5 1.5.5.5 2.5 1.5-2.5-.5-1.5zm-96 2 5 6-1.5-.5-.5-1.5-1.5-.5-.5-1.5-2.5-.5z"/><path fill="#8d8d8a" stroke="#8d8d8a" d="m458.5 450-.5 1.5-3 9h1l.5-1.5h4l8-5-3.5 4.5-.5 1.5-3-1-7 9-2-5-29 40 .5-1.5 25.5-39.5 1.5-.5 3.5-6.5 1.5-.5-.5-1.5 1.5-.5zm-.5 10-5 3 1 2 5-4zm182.5-10 1.5.5.5 1.5 3-1 4 1 1-2 .5 1.5-3.5 1.5-3-2q-2.8 4.5-4-1Zm-68 1 .5 2.5-2 1-1 3 2-1 .5-1.5 2-1 8 11q1.8-2.7 3.5 1.5l-6 3-2.5 6.5-1-3-.5 3.5 3 4-3.5 1.5-1.5-3.5-1-3 2-1-4-2h2l-.5-4.5-2 3v-2l-2.5-1.5 1-2h-2l-1.5-2.5-2.5 1.5 4 5-2.5.5-2.5-1.5 2-1-.5-1.5h-2l-1.5.5 1 3-4 3-4.5 6.5-6 4-2.5-4.5 1-2-2-1 1.5-4.5 3.5.5-1 4 1.5.5 3-2 1.5.5-1-4 1.5.5 4.5-.5-2.5-5.5-1.5.5 1-2-2-1-.5 2.5-1-2-1 2-3.5.5 1-2-1.5-.5-4 8-2.5-1.5 12.5-14.5 8 4 6.5-4.5 1.5-2.5 1.5.5-2 1 2.5.5zm1.5 5-1 3-3 2h3l1 3 1-2-1-2 1-3zm25.5-2 .5 1.5-14 25-.5 2.5-.5-2.5 9-18-3 1z"/><path fill="#8d8d8a" stroke="#8d8d8a" d="M643.5 454h2l11 5 13.5 10.5.5 2.5 1-2 6.5 4.5-1.5-.5-7.5-2.5-.5-1.5h-2l-7.5-3.5 1.5-.5 2 1-2-3-3.5-1.5-.5-1.5-11-6zm-247 2 2 4 2 1 2-5 1.5.5-1.5 7.5-1-2-1.5.5-.5 1.5-.5-1.5.5-1.5-3.5-2.5zm205 1 .5 2.5-4.5 11.5.5-1.5zm-126 1-.5 1.5 1 3-5 7 1.5.5 5-3v1l-7.5 5.5 1 2-2 1 .5-1.5-3.5 1.5 1 2-1.5-.5-1.5.5.5 1.5 4.5 1.5-2.5 1.5-1-2q-7.1.9-9.5 6.5l-2 5 1.5-.5 4-2-1 2-8.5 6.5-1.5 4.5-14.5 8.5.5 1.5-1.5.5.5 1.5 7.5-4.5.5-1.5 4-3-.5 1.5.5 4.5 5-2 1 2-3-1-3 2q-1.7-3.7-3.5-.5l-.5 2.5-1.5-.5-1.5 2.5-10 5 1.5-2.5 1.5-3.5 1.5-.5-1-2 26.5-38.5 3.5-1.5-.5-2.5-2 3 .5-1.5 2.5-3.5 1 3 2.5-3.5-3-1 4.5-5.5 1 3 2.5-1.5.5-1.5 1.5-.5zm-5.5 12-2 1-1 2-3 2 1 1 6-5zm119.5-11 1.5 2.5-2.5 4.5-1.5-2.5h1l.5 1.5.5-2.5-.5-1.5 1.5.5zm44 0 1.5.5-1 4 9 3 .5 1.5 1.5-.5-1.5 2.5-2.5-.5 2-1-2.5-.5-2 1-4-3-4 2-.5-1.5 4-2-3-1zm-93 2 1.5.5-4.5 4.5-1.5-1.5.5-1.5 1 2 1-3 1.5.5zm-80 2 1.5.5-24.5 35.5 1.5-2.5zm191 2 4.5 2.5-1 2 11.5 5.5v-2l4.5 1.5.5 1.5 1.5-.5-.5 1.5 3-1v1l-1.5.5 2 1 .5 1.5 2.5.5.5 1.5h2l5.5 1.5-4.5 1.5-1-2-3-1-3 1-16-8-1.5.5 1-2-5-4-.5-2.5-1.5.5.5 1.5q-4.5-2-1-4Zm16.5 10-2 2 7 3h1zm-118.5-9 1 2 1-2 1 2 1.5-.5-3 1-.5 1.5zm-148 1 1 7 1.5-.5-3 2 1 2-2-1zm186 0-1.5 2.5-5 9 1 2 1.5 6.5h-2l-2 1-3.5-4.5 4-2 1-2-3-2 4-3 2-4-2-1 1.5-.5q2 3 4-2Z"/><path fill="#8d8d8a" stroke="#8d8d8a" d="m647.5 468 1 2 2-1 1.5 2.5-2 1 1-2-1.5.5-2 1v-2l-2 1zm-36 1 .5 1.5-5 4-1.5 3.5-3.5 2.5-5.5 6.5-3 1 4-5 1.5.5 4-5-1-2zm-204 2 1.5 9.5h-1zm84 0 4.5 1.5-.5 1.5-6 2-.5-2.5.5-1.5zm17 0 2.5 3.5-3 2 1.5-2.5-1.5-.5zm130 0 5.5 2.5.5 1.5 2-1 19.5 10.5.5 1.5 3 1 3.5 1.5-.5 1.5-11.5-.5 10-1-29.5-12.5-1 2zm-111 1-2 3-2.5.5-.5 1.5h-2l-3-1-1 3-2.5 1.5-.5 2.5v-2l-4.5-.5 9.5-5.5 2 1v-2l2 1v-2l2 1z"/><path fill="#8d8d8a" stroke="#8d8d8a" d="m534.5 472-.5 1.5.5 1.5 1.5-.5.5-2.5 2.5 8.5h-1l-.5-1.5-1 2-2-1-1.5 3.5h2l-7.5 4.5-2-3-.5 1.5 1 2-6.5 4.5.5-1.5-.5-2.5-1 2-2-3-.5 1.5 2 4-1.5.5-1-3-1 3-1.5-.5.5 1.5 1.5.5-4 1-2.5 3.5-2.5-1.5 1 2-2-1-.5-1.5-1.5-.5.5-1.5-2.5-.5-.5-1.5-3.5-2.5-3-7 6.5-4.5.5 1.5-1 2 2.5-1.5 2.5 1.5-2 10 2.5 4.5 3-11 2 4 2-4 .5 3.5-1 2 3-2v-2l-1-2 2.5-1.5v2l1.5-.5.5-1.5 1.5.5-.5-1.5-1.5-.5 3.5-1.5-.5 1.5 1.5 3.5 2.5-2.5-1.5-4.5zm93 0 7.5.5 1 2-1.5 3.5-2-5-2.5.5 1.5 2.5h-2l-1.5.5 1.5 2.5 1-2 2.5 1.5v2l1.5 4.5 1-4 1.5 2.5-4.5 9.5 1.5-2.5-1.5-6.5-2 7-1-3-2-1-1.5.5 1-3h-1l-.5 1.5-.5-1.5 1-3h-1l-.5 1.5-.5-2.5-.5-2.5-2 20-1-5-2 4-.5-1.5q4.6-5.8 3-18h-1l-3.5 5.5-1.5.5-.5 2.5-1.5-.5 2-1q-2.7-1.8 1.5-3.5l1.5-.5 1-3 1.5-3.5zm-222 1 1.5 9.5h-1zm-7 2 2.5 5.5-2.5 5.5-1-2-3 6-.5-1.5zm165 1 1.5.5-2 4 1.5 3.5 2-5 3.5 6.5-5-1-.5 2.5-1.5-.5 1 3h-2l-2 4 2 1-7.5 9.5-1.5.5-.5 1.5-1.5.5 1 1-4.5 4.5-1-2-2.5 3.5h2l-7.5 8.5-1.5-.5-1.5 4.5-1.5.5-4.5 5.5 3.5-4.5 10-15q-3-2 2-4l-.5-1.5-2.5 1.5 3.5-4.5 1.5-.5 1.5-2.5 2.5 1.5.5 1.5 1.5-2.5-2-1-.5-1.5-1.5.5 4-2-.5-1.5-1.5.5 3.5-4.5 2.5.5 1 3-1 2 2-1 1-2-2-1-.5-2.5-1.5-.5.5-2.5 1 2 3.5-.5-2-1 1-3-1-2 2-1-1 2 1.5-.5 1.5-.5-2-5zm31 0 .5 2.5-1 3-.5 1.5-1.5-.5-.5 1.5-2-1-2 1v-1l1.5-.5-.5-1.5q2.3 3.2 4.5-2.5zm6 1-.5 1.5-.5 1.5-1.5-.5-.5 1.5-1.5-.5-.5 1.5-.5-1.5zm-190 3 1 9 1-4 2.5 7.5-1 2 1.5 4.5 3-11 1.5 11.5-1.5 2.5-.5-1.5 1-4h-1l-3 7 1.5.5 1.5-.5-2.5 3.5-1.5-3.5 1-2-1.5-5.5-1.5 6.5 1 5h-1l-.5-2.5-1.5 3.5 3 1-2.5 6.5-1.5.5-4.5 7.5-.5-1.5 2-1 3-8-1.5-.5-2 3-1.5.5v2l-.5 1.5-1.5-.5 1 2-2 1 1.5 2.5 1.5.5-8.5 14.5-1.5-.5 1-3-2-11h1l.5 5.5 1-16 1 14 2.5-.5-2-1 5.5-9.5 1.5-.5v-2l3.5-6.5 1.5-.5v-2l4-13-1.5-2.5-1.5-.5zm30 1 .5 1.5-9.5 13.5.5-1.5zm39 1 3 4 1.5.5-3.5.5-3-4 1.5.5z"/><path fill="#8d8d8a" stroke="#8d8d8a" d="m403.5 483 .5 3.5-3 9v2l-1.5 9.5-1.5-.5q-2.2-8.7 2-11l-1-2h2l-1-4zm166 4 1.5.5-2 1q3.3 2.3-2.5 4.5l-3 2 .5-1.5zm-89 1-.5 1.5-.5 1.5-5 4-1-4 2 1v-2l2 1 1-2zm172 0 1 2 2.5.5-6 1 6 3-3.5.5-1-2-4.5-1.5zm-78 2 1.5.5 3 7-2 1v2l-.5 1.5-1-6-1.5.5 1 7-1.5 3.5-2 1v-2l-1.5.5-2 6 1 3-6.5 7.5-1.5-1.5 3.5-5.5-1 3 5.5-4.5-2-3 4-16-1.5-.5-6.5 5.5 11-9zm125 0 3.5 2.5-.5 2.5-4 1v-1l1.5-.5-2.5-.5-1 2-1.5-.5-.5 1.5-3-1 .5 1.5-.5 1.5-4 1-2-5-1.5-.5 6.5-1.5 3 2 6.5-2.5zm-110 1 2.5.5-1 2 1 2h-1l-.5-1.5-1.5.5-.5 2.5-5-2 1 2 1.5.5-2.5 1.5v-2l-1.5.5-.5 1.5-.5-1.5 1.5-4.5zm48 2 3.5 5.5-2 1 1-2-2.5-.5-1.5-.5-.5-1.5-1.5-.5zm-265 1 1.5.5-1 2 1 4-1.5 4.5-.5-4.5 1-3zm334 0 1 2 1-2q3 1.5 0 3l-2.5.5-.5 4.5-1.5-.5 1-3-.5-1.5 1.5-.5zm-160 1 .5 3.5-6.5 7.5-2-1q3.5 2.5-1 5h-2l-2.5 1.5 2 2-4.5 4.5v-2l-1.5-.5 3-2-1 2 3-2q-4.2-2.2.5-4.5l1.5-.5-1-1 4.5-4.5 1.5-.5zm122 0 10 1 4-1 2.5 1.5-5 1 3 1-6.5.5-3-2v2l-2.5-1.5-.5-1.5-2 1zm-191 1-3.5 4.5 1.5 1.5 5-3-3 4-1.5.5-2.5 3.5-4.5 2.5-1.5 2.5-4 2-1.5-.5-1.5 2.5-1.5-.5 3.5-4.5 2.5-.5-.5-1.5-1.5.5 9-8-7 7 1.5 1.5 3-4 2 1 .5-1.5-.5-1.5 1.5-.5q-.7-6.7 4.5-7.5Zm8 0 1.5.5-6 7 .5 1.5-1.5.5 1 1-5 5 2.5 2.5 4.5 3.5-1.5.5-3.5-1.5.5-1.5-2 1v-2l-2 1v-2l-2 1 .5-1.5 10-12-.5-1.5 2.5-1.5zm-95 2 1.5.5-5 27q2.8 2.5-1 5l1 4v2l1 2-3 1-.5 2.5-1-3-1.5-.5-3-8 1-5-3-10 2 1 3.5 18.5 2.5-4.5-1-5h1l.5 3.5 1.5-.5-1-3 1-4h-2l1-8 2-2-1-3zm39 0-.5 1.5-9.5 15.5-.5-1.5zm88 0-3 4-3.5 2.5-.5 1.5-1.5-.5.5-2.5 2.5-.5.5-2.5zm64 4 11.5 3.5-.5 7.5-1.5.5-3 8 10.5 3.5.5-1.5-5-6 5 4 3 4-.5 1.5 2-1-1 2-13-4-3-1-1.5-.5 2-1 5-16-5.5-1.5-3 6-1.5-2.5 2-4-2.5-.5-1.5.5zm-159 2-.5 1.5-5.5 8.5.5-1.5zm8 0 .5 2.5-2.5 4.5-2.5-1.5 2-1zm219 0 3 2 1.5-.5 1 2h-2l-.5 1.5-2-4-2 1zm-191 2v2l1.5.5-2 1-3.5 8.5-1.5.5-5.5 6.5 4.5-5.5 1-3-1.5-.5-4.5 2.5-1.5 2.5-2.5-.5 3-1 1.5-2.5 1.5.5 3.5-4.5 2.5-1.5-3-2 1.5.5 2 1 1-2 1.5-.5-2-1z"/><path fill="#8d8d8a" stroke="#8d8d8a" d="m588.5 506 .5 4.5-6 13 4 2-3 2 1.5 2.5-3.5-2.5-2-6 2-1-.5 1.5 1.5-.5 5-13zm56 0 2 3 1.5-.5-1.5 6.5-2.5-.5 1-6zm-4 1 1.5 6.5h-1l-.5-5.5-2.5 6.5 1.5 12.5 1.5-.5-1.5 7.5-2.5.5-.5 1.5-.5-2.5v-2l-1-2 1.5-.5 1 2 .5-2.5-1-5 1-2-2-8zm-83 1-4 5 1-4zm20 1 1 2 1.5-.5-4 8 2.5.5 2-5 1.5.5-2.5 5.5-1.5.5 1 2-1 2 .5 1.5-3-1-4-2-4.5 1.5 6.5-8.5q1.8 2.8 3.5-1.5l-.5-1.5-1.5.5zm-151 2q3 1.5 0 3l-1.5.5.5 1.5 1.5-.5-16 28v2l-5.5 9.5-3-1-2.5 3.5-.5 2.5-1.5-.5 1-2-1.5.5-1.5.5.5 1.5-1.5.5v2l-2.5 5.5-1.5.5.5 1.5-1.5.5 1 2-4 2 .5 1.5 1.5-.5-1.5 2.5-3.5-2.5-.5-1.5-1 2-.5-1.5 2.5-3.5-.5 1.5 1.5 3.5 8-14 1.5-.5v-2l1.5-2.5 1.5-.5 1-3 .5-1.5 1.5-.5 4.5-8.5 1.5-.5 1-3 3.5-6.5 2 1 2.5-4.5h-1l-1.5 2.5-1.5-.5 2-1 .5-2.5 1.5-.5-.5-1.5 3 1 1.5-2.5-1.5-.5-1 2q-3-1.5 0-3l1.5-.5.5-2.5 1.5-.5.5-2.5 2 1 .5-2.5h-2l3-2-.5-1.5zm-59 3 6.5 5.5.5-2.5 1.5.5-2.5 3.5zm185 0-3.5 4.5-2.5 3.5-1.5.5q2.8 1.8-1.5 3.5l-1.5.5-1 3-1.5 3.5-1.5-.5 4.5-7.5 1.5-.5q-3-2 2-4l-1-2 4.5-3.5zm-25 2q3.5 2-1 4l-2.5.5.5 1.5-1.5-.5-.5 2.5-1.5-.5-2 3 .5 1.5-2.5-1.5 1-2-2-1 .5-1.5 3 2zm-60 1 8.5 2.5-2 1 .5 1.5-2.5-1.5 1.5 2.5 7-3v1l-1.5.5 1.5 2.5 2-1 .5 1.5-2 1 2 1-2.5.5-1-3-1 2-.5-1.5 1-2-2 1-.5 1.5-10.5-6.5zm-29 1-.5 1.5-1 6-.5 2.5-3-1 .5 1.5-1 2-.5 2.5-5.5 1.5-1 3 1 2 .5 2.5 5-3-1 2-6.5 3.5 2 1-3.5 1.5-2.5-1.5-.5 1.5-6.5 4.5-.5 2.5-2.5-.5 2.5-4.5 2.5-.5-1-3 3.5-5.5 2.5-1.5-1-3 3-1-2-1 4-3-.5-1.5-1.5.5 7-4 .5-2.5zm122 1q-3 2.5 0 5l-3.5-1.5zm-170 1 .5 16.5 2 5v2l-.5 1.5-1.5.5-3.5 8.5-1.5-.5 1 2-2-1 .5-6.5 2 1 .5-2.5-1.5.5-2.5-.5.5-3.5 1 3 3-4 2.5 1.5-.5-4.5-1.5.5 1-3zm25 0 .5 1.5-6.5 10.5-1.5-.5zm115 2-5 6zm-70 1-.5 1.5-2.5 3.5-2-1-2 6-3.5.5 7.5-9.5zm42 2 5 2 1.5-.5-.5 2.5zm62 1h2l2.5.5-3 1 5 1 .5 1.5 1.5.5-.5 1.5-1.5-.5-.5-1.5-2 1zm41 1 8 2 3-1 .5 1.5-1.5.5h-4l-6.5-1.5z"/><path fill="#8d8d8a" stroke="#8d8d8a" d="m634.5 527-.5 3.5 1 13 .5 2.5 2.5-5.5-2-1 1.5-2.5 1.5.5.5-2.5.5 3.5-1 2 .5 1.5-1.5.5-1 3 2 4-2-1-.5-2.5q-1.8 2.8-3.5-1.5l-1-2 1-11-4-2zm-98 2-5 6zm39 0 1.5.5.5 1.5 1-2 1.5.5-.5 1.5 2-1v2l2-1-.5 1.5.5 1.5 1.5.5-1.5.5-4-2-3.5-1.5zm49 1 2.5 1.5-.5 1.5-1.5.5.5 1.5 1.5-.5-1 3 2 3-3-2-.5-1.5-1.5-.5-.5-2.5-2 3-.5-1.5 1-2-1.5-.5-2.5 1.5.5 1.5q-3-1.5 0-3l1.5-.5.5-1.5 2.5.5-.5 1.5 1.5-.5zm-141 1 7.5 2.5-1.5 2.5-6.5-3.5zm79 0-1.5 2.5-8.5 9.5-5 4 1-3-6 4-.5-1.5 7.5-4.5 2.5-.5-.5-1.5 8.5-5.5zm82 0 3.5 6.5-1 3 1 7-1.5-.5-1.5-.5 2-5h-2l1-7-2-1zm-203 1 1.5.5q-2.2 4.8-10.5 3.5v-1q7.1 1.1 9-3Zm-34 1 1.5.5-5.5 8.5-1.5.5-.5 2.5-1.5.5v2l-6.5 10.5-.5-2.5 3.5-8.5h2l1.5-.5.5-2.5 1.5-.5.5-2.5 1.5-.5 1-3zm85 1 1.5.5-2 1 .5 1.5h2l10 5 3 1 5.5 2.5-.5 2.5-21.5-11.5zm-44 1 1 2 1.5-.5-8.5 7.5h-2l-2.5-.5zm121 1 9.5 1.5 1.5 2.5q2-3 4 2l1.5-.5.5-1.5 2-1 1.5 4.5-.5 1.5 3-1v1l-3 1-1.5-.5q-2.2 10.8 4 13l-5-4-.5-3.5-3 1-4-2-1.5.5-1.5-2.5-1.5 4.5 1 2-4.5 1.5-.5-2.5.5-2.5 1.5-.5 1-3-1.5-2.5-1.5-.5-.5-1.5-1 2-1.5-.5-1 9 3 2-1.5-.5-2.5-1.5-.5-2.5-1.5 3.5v2l.5 1.5 3.5 1.5-1.5.5-4.5-1.5 1-3-2.5-1.5-2.5 5.5h2v2l.5 1.5 2.5-1.5.5-1.5 1.5.5-.5 1.5-2.5 1.5.5 1.5 2-1 1.5.5.5-1.5 1.5-.5-.5-1.5 3.5 2.5.5-1.5 1.5.5-.5 1.5-5 3-1.5-.5-.5 1.5-2 1v-2l-1.5.5-.5 2.5-2-3-2 1-1-2-1.5.5 2-5-1.5-.5-.5 2.5-.5 1.5-1.5-.5-.5 1.5-1.5-2.5 5-4 5-14-2-1 1 2-2-1 2.5-3.5v2l2.5-1.5.5-2.5 1 3 2-5 1.5.5zm11.5 7v6l1-2v3l4 1-1-6zm-16 1-1 2h-1v2l-2 4 2 2 3-9z"/><path fill="#8d8d8a" stroke="#8d8d8a" d="m591.5 540 7.5 2.5-3 2 2 1-2 1 .5 1.5-1.5.5 1 2v2l-1.5 4.5-1-10-1.5.5.5-1.5 3.5-.5-1.5-3.5-2 1zm51 0 1.5 7.5v2l-1 5h1l.5-2.5.5 3.5-1.5.5-4.5-9.5 1.5-2.5 1.5.5zm-25 2 2.5.5-3 1 3.5 4.5 2 1 .5-1.5-2-3 2.5-.5 8.5 7.5-1.5 6.5-1.5.5 2 3h-1l-.5-1.5-1.5.5-1 4 2 1 .5-2.5.5 2.5-3.5 8.5-2.5-1.5-.5-1.5-.5 3.5 2 6-2.5 3.5-3-5-1.5.5 2-4-3 1 1-2-2-1-.5-2.5-1.5 12.5 3 2 .5 1.5 2-4 2.5 6.5-4 10 1 2h-2l1 4h-2l1 5h-1l-.5-1.5-.5 2.5 1 3-2 1 1 3h-1l-.5-1.5-.5 2.5 1 6h-1l-.5-4.5-2 10-1.5-.5 2 9-3 1 1 7-2 3 3.5 2.5 1-2 1.5 2.5-2.5.5-3-1 .5 1.5.5 1.5 3.5-.5-.5 1.5-5 1-2.5-.5 1-2-.5-1.5 1.5.5 1-3-5.5-2.5-2 3-1.5-.5.5-2.5 1.5.5-.5-1.5-2.5-.5 1-3-1-3 .5-2.5 2 1 .5-1.5-1-5-.5-2.5-1 2-.5-1.5 1-3 1-3-1-3 .5-5.5 1.5-.5.5-1.5.5 3.5-1 12 1 9-2 4 1.5 4.5 4 1q3.8-4.2 2.5-13.5l-1-5 1-2v-2l1-2-1-5 1.5-.5.5 3.5v2l.5 1.5 1.5-6.5v-2l3-19-2-1-3.5 20.5-.5-4.5 3-18-2-3h2l.5-4.5 1.5.5-1 5 2.5 3.5 2.5-8.5-1.5-2.5-2 1-1-2-1 2-1-2 1.5-.5 4-18-2-4 1-5h-1l-.5 1.5-.5-2.5 2-1-1-2-.5-2.5-1 3-8.5 6.5.5 1.5 3.5 1.5-2 1-.5-1.5-3.5-1.5 2.5-3.5 7.5-5.5 1-3-2.5-.5-2-1-6.5 2.5-3 9 .5 1.5-3.5-1.5 3-1v-2l3-9-1.5.5-1.5-.5.5-1.5 5 2 7.5-1.5-.5-1.5-2 1-1-2 1.5.5.5-1.5 4.5 2.5.5 3.5 1-2 1.5 2.5h-4l.5 1.5 2.5 1.5-2 1 1.5 2.5q1.8-2.7 3.5 1.5l-2 1-.5-2.5-1.5 3.5 2 5-1 2 2 1-.5 1.5-1.5.5.5 1.5 2-1 2 4 .5-3.5-1-2h1l.5 1.5 1-2 3.5-1.5-4-2-.5-1.5-2 4-1.5-4.5 3.5-6.5 1.5 4.5-1 2 2-1 .5-2.5 1.5-.5-1.5-4.5-1 4-1-4-3 2 .5-1.5-.5-1.5-2 1-.5-2.5 2-3-4.5-5.5zm-93 3 3.5.5.5 1.5 2.5.5-2.5.5h-2l-3.5-1.5zm32 0v2l1.5.5q-6.9 7.6-9 20h1l.5-1.5 3.5 1.5-.5 1.5 2-1 4.5 2.5-5.5 2.5q-2-3-4 2l-5 1-1.5-.5-.5 1.5-3 1-2-1v2q-6.8.2-9 5l2-4-6.5 4.5-.5 2.5-4 3v-2l-2.5 1.5q3 2-2 4l-.5 1.5-1.5-.5-1.5 2.5-1.5.5 2.5.5 2.5-1.5-6 3 3 1-3.5.5-1.5-2.5 3-2v-2l1.5-2.5 3 1q4.5-2 1-4l-1 2-1.5-.5 4-2 2.5-3.5 2.5 1.5 2-3 .5-2.5 1.5.5 1.5-2.5 3.5-.5.5-2.5 7.5-6.5 11-17-2.5-1.5-1 3 1-4 7.5-2.5zm-5.5 5 1 2-9 16v1l3-1-1 5 3-1v2h3v-4l-2 1h-2l1-2-1-2 7-15zm-196.5-4 5.5 1.5-8 1-.5 1.5-.5-1.5zm160 0 5.5 2.5-1.5-.5-3 2-.5-1.5 2-1zm-134 1 2.5 1.5 1 9-2.5.5-2 1-.5-1.5 1.5-7.5 1 2 .5-2.5-2-1zm91 1 15.5.5-14.5 1.5-2.5-.5zm-12 1 9.5 1.5-4.5.5-3-1-5 2-2-1v2l-8 1-3.5-1.5 2.5-.5 4 1v-1l-1.5-.5 2.5-.5 2 1v-2l5 1zm-86 2 4.5 3.5-.5 1.5-2.5-.5q2.7-1.7-1.5-3.5l-1.5.5zm48 0 2.5 1.5h-2l-2.5 3.5-2.5-1.5 1 2-2.5.5-1.5.5-1 3-.5 2.5-1-2-1 2-1.5.5-.5 1.5-1.5-.5 3.5-7.5zm120 0-5 6-2.5.5-5.5 6.5v-2l-3.5 2.5q3.2 2.3-2.5 4.5l2-4-6.5 5.5-.5 2.5-4 1 7-8 16-12 1 1zm39 0 1 2 8.5 6.5-1.5.5-7.5-5.5-.5-1.5-1.5-.5zm56 5 5 3 3 1q1.8-3.7 3.5-.5l.5 3.5-2.5-.5-.5-2.5-1 2-4.5-1.5-.5-2.5-1 2-2.5-1.5zm-233 1 1.5.5-1.5 2.5-1.5.5.5 1.5-1.5.5v2l-.5 1.5-1.5-.5zm-13 2 .5 3.5-5.5 7.5.5-3.5zm39 2 10.5.5-10.5.5zm-56 2-.5 1.5.5 1.5 2-3 1.5.5-1 6h2l-3 1 1 2-1.5.5-1-2-.5 2.5-1.5 3.5-2-9-1.5-.5 2.5-1.5 1 3 1.5-.5-1-3z"/><path fill="#8d8d8a" stroke="#8d8d8a" d="m602.5 563 2.5 4.5-.5 2.5-4.5-3.5 3-1zm-190 1 1.5.5-.5 2.5-9 4 1.5-2.5.5-1.5zm230 0 5.5 1.5.5 1.5 1-2 .5 14.5-2-1 1-8-2-4-.5-1.5q-5 1-4-1Zm-58 1q3 1.5 0 3l-20 11q-3-1.5 0-3l15-8 1.5.5.5-1.5z"/><path fill="#8d8d8a" stroke="#8d8d8a" d="m587.5 565 5.5 4.5-1 3 1.5 6.5 1-5 .5 4.5-.5 1.5 1.5.5 1 11-1 10 1 10h-1l-.5-4.5-.5 8.5 1 4h-1l-.5-3.5-.5 5.5 1 6h-1l-.5-3.5-.5 4.5 1 3 1 3-2 10h1l.5-3.5 1.5 5.5-2 3 1 2-1.5.5-2.5-3.5h1l.5 1.5 2.5-4.5-1.5.5-1.5-.5-1-5 1-2-1-3-1-2 5-50-2-1-.5 2.5-1.5-12.5-4-5zm53 1-.5 1.5-2.5 16.5-.5-5.5 1.5-11.5zm-241 2-1 4-1.5.5v2l-1.5 3.5-2-1 1.5 2.5-.5 1.5-1-2-1 2-1-2-1.5-.5 2.5-3.5 2.5-.5zm16 1q3 4.5 11.5 3.5l-9.5.5-1-3-1.5.5zm187 4 4 2 1.5-.5 1 3h-1l-.5-1.5-3-2-1.5 3.5 2 4-2.5 1.5-1-2-1 2-.5-8.5h2zm30 0 .5 3.5-3.5 21.5-.5-4.5 2-17q-2.7-1.8 1.5-3.5Zm-217 2 6.5 2.5-1.5.5-2-1-.5 4.5-.5 1.5-2 1-1-3-3.5-1.5 1.5-.5 2 1 3.5-1.5-2.5-1.5-6 2 2-3 2 1zm98 0-1 2-14 11 2-3zm-112 3 3 1 3-1 .5 1.5-6.5 4.5-.5-1.5 2-1-.5-2.5-1.5.5-3.5 7.5-.5-1.5zm159 0 2.5 1.5q-15.8 9.7-36.5 14.5l-1-2 1.5.5 2.5-4.5 1.5.5.5-1.5 2-1 1 3 1.5-.5-.5-1.5 1.5-.5-2-1 12.5-6.5-1 3 1.5.5-3.5 1.5-2-1v2l-3-1v3l6-1zm-174 2 5.5 7.5-1.5.5-1-4-1 2-3.5-1.5 2-1 .5 1.5 1.5-1.5zm123 3-1.5 2.5-1.5 2.5-1.5.5q3 2-2 4l-6.5 10.5-1.5.5 3.5 4.5 2-1 .5 2.5.5 2.5q2-3 4 2l3.5 1.5-4.5.5-3-2-4 1-4.5-3.5 2.5 1.5 1.5-.5-5-10 1-2-3-1 3-2 1.5 5.5 7-11 1.5-.5.5-1.5 1.5-.5-1-2zm-129 4 6.5 2.5-.5 1.5-3.5-.5.5-1.5-3 1zm17 1 3.5 2.5-1.5 2.5-.5-1.5.5-1.5-1.5.5-1 4 1 1-4.5 4.5 2.5-3.5-.5-1.5-2.5-.5 3-1zm97 1 .5 1.5-1.5 3.5-2 1-2.5.5-.5 1.5-1.5.5.5 1.5-3-1-6 8-1-1-6 6-1.5-.5 20.5-17.5h2l1.5-.5-2-1zm-113 3 5.5 2.5-2.5 7.5-1-2-2.5 3.5-6 28-3 6 1 3-1 3-2 4 1 6h-1l-.5-4.5-7.5 8.5.5 1.5-8 5-1-2 1.5-.5 2-4-1-4 7-12-.5-1.5 1.5-.5 2-4-1-2 5-9 2-12 3-5-.5-1.5 1.5-.5 1-3 .5-2.5 2.5-.5-1-3 2-1 1-2zm-18 3-1.5 2.5-6.5 8.5 3.5-6.5.5-1.5 1.5-.5.5-1.5zm266 4 .5 6.5-1.5 7.5-1.5-.5zm-198 1 .5 4.5q-2.5 6-5 2l-.5-1.5-1.5.5-.5-1.5-1.5-.5 1.5-.5 3.5 2.5.5 1.5zm92 1 2.5.5.5 1.5 7.5.5-7.5.5-2.5-.5.5-1.5zm99 1 2.5.5q-5.3 12.7-6 30l-2.5 4.5-.5-2.5 3-11h-2l2-3v-4l2-3-1-3h2l-1-4 2-1zm-106 3h2l4 2 2-1 2 1 2-1 1.5 2.5-3 2 .5 1.5 3 1 1.5-.5-.5-1.5-1.5-.5 2-1-.5-1.5 3.5 1.5 2.5 4.5 1.5-.5-.5-1.5-2.5-1.5-.5-3.5 5.5 6.5.5 2.5 4.5 3.5-.5 1.5-5-3-3-1-1 2 9 7 1-3 2 4 2.5.5 2.5 4.5 2.5.5 1.5 2.5 16.5 10.5-2 1-.5 4.5-5-4-1.5.5 1-1-5.5-5.5-6.5-4.5-.5-1.5-1.5.5 1-2-3-2-.5-3.5-2.5-.5-.5-1.5-.5 2.5.5 1.5-5.5-3.5 1-3-2-1-1 2 .5 1.5-5.5-2.5 1.5-2.5 1.5-.5-5-4-.5-1.5-11-5-4.5 5.5 12 4-1.5-.5-2.5.5-.5 2.5-12.5-5.5 5-3 .5-1.5 1.5-.5 1-2-3-2zm51.5 37-1 2h2l-1 2 3 3 1-3zm334.5-23 3.5.5-13.5 6.5q-3-1.5 0-3zm-393 2 10.5 2.5-.5 1.5 3-1 2.5 1.5-2 1 23 13 .5 1.5 3 1 11.5 7.5-1.5-.5-40.5-22.5-.5-1.5h-2zm43 2 6.5 3.5.5 1.5 2-1 1 2 2-1 12.5 6.5-1.5-.5-15-5 2 4zm-212 1 .5 1.5-9.5 12.5-1.5-3.5zm41 4 .5 3.5-1.5 5.5-1.5-.5 1 6-2.5 7.5-1.5-7.5 3.5-10.5 1.5-.5zm-44 8-6 7zm3 3-1.5 2.5-6.5 13.5-.5-2.5zm527 0 1.5.5-14.5 7.5-1.5-.5-.5 1.5-1-2 2-1 3-1zm-511 2 .5 2.5-4.5 6.5 2.5-3.5zm200 0 5 6zm292 4 2.5 3.5-5.5 2.5-1.5-.5-1.5 2.5-56 28v-1l9.5-5.5.5-1.5 39-18 9.5-6.5-3-2 1.5.5 2 1 1.5-.5-.5 1.5 2.5-.5z"/><path fill="#8d8d8a" stroke="#8d8d8a" d="m329.5 646 1.5 12.5-2 4 1 2-3 8 1.5.5 11-18-.5 1.5-10.5 19.5-1.5-.5 1 2-1.5 2.5-.5-1.5.5-1.5-1.5.5-.5 1.5-.5-1.5 6-23zm245 1 1.5.5-.5 1.5 1.5-.5.5-1.5 1 2 1.5.5-2 1 .5 1.5-2.5 1.5-.5 1.5-2.5.5 2 1-.5 1.5-2.5-4.5 4-3-3-1zm13 5 6.5 3.5 1 2-3 8h1l.5-1.5 1.5-.5v-2l.5-1.5 1.5.5 1 3-1 3 .5 1.5-1.5-.5 1 2-1.5 2.5q-1.7-3.7-3.5-.5l3 2-3 2q2.8 1.7-1.5 3.5l-1.5.5v2l-3 8h1l.5-1.5.5 3.5-2 4 1 3h-1l-.5-1.5-2.5.5 1.5 4.5.5-1.5-.5-1.5 1.5 2.5q-2 3.2-4 0l-.5 1.5-2.5-.5 3.5-7.5 2.5-.5-3-1 .5-4.5 1.5-.5-1-5h1l.5 2.5 3.5-17.5-1-2 3-2 2-3-1.5-.5-2 3-2.5-1.5 1-2-1-2 1.5-4.5 1.5-.5zm-8 5 3.5 4.5h-1l-2.5-3.5-2.5 1.5zm35 0 4.5 2.5-.5 1.5 1.5.5 1 3h-1l-.5-1.5-2.5 6.5 1.5.5 1-2 .5 6.5-.5 1.5 1.5.5 3 13h-1l-1.5-4.5-.5 10.5h1l.5-1.5.5 4.5h-1l-.5-1.5-.5 4.5v2l1 3-1.5 3.5-2-1-.5 1.5 3 1-1 2 1 3-1.5 3.5-2.5-.5 1-4-2-14h1l.5 1.5.5-4.5.5-3.5 1.5.5-.5-1.5-2.5-1.5 1-2-3.5-4.5-2.5-.5-1-5 1-2h-2l.5-1.5 1.5-.5-.5-1.5-2 1-.5-2.5h2l-.5-2.5-2 1v-1l1.5-.5-6-11 2.5-.5 2.5 3.5-1 2 3-1q-5 2-2 4l1.5 2.5 3.5-5.5-1.5-2.5 3.5-.5-.5-1.5-2 1h-2l-1.5-.5zm2.5 8-3 4-3 2 2 6v2l1 2 1-2v2l3 2-2-11-3-1 2-1 2-3zm-293.5-4 .5 3.5-2.5 8.5-1.5.5 1 2-1.5 4.5-1.5-5.5 4-8v-2zm42 2-1.5 2.5-.5 2.5-1.5-.5-1.5 2.5-3 2-1.5-.5-2.5 5.5-1.5.5-.5 1.5-1-2-1.5.5-.5-2.5-1.5.5q1.7-4.2 3.5-1.5l1.5-.5-.5-1.5 1.5.5.5-1.5 3-2 1.5.5 1.5-2.5 1.5.5 1.5-2.5zm234 1 2.5.5-1 2h2l1 3-3 2-.5-2.5-1 2-1.5-.5 2-5zm-261 3-.5 1.5-3.5 6.5.5-1.5zm8 1-5 6zm253 4 .5 2.5-1.5 3.5-2.5.5-.5 2.5 1.5-4.5zm-261 3-4 5-3.5 1.5.5 1.5 1.5-.5-6 5 1.5-2.5 1.5-.5v-2l1.5-2.5 1.5-.5-.5-1.5 1.5-.5-.5-1.5q2.5 2.8 5-1Zm438 0 1 3 10-3v1q-22.6 8.4-40 22l-1.5-.5-.5 1.5-1.5-2.5.5-2.5 3 2q-3.2-2 0-4l1 3 1.5-.5-.5-1.5 2 1 1-3 2 1v-2l2 1v-2h2l1.5-.5-.5-1.5 2 1 3.5-2.5-.5-3.5 1 3 2.5-1.5-1.5-2.5 3 2-1-3 3 2q-3.2-2 0-4l1 3 1.5-.5-.5-1.5h2l1.5-.5-2.5-1.5-1.5.5zm-431 1 .5 2.5h-2l.5 1.5 1.5.5-.5 1.5-1.5.5-5.5 7.5-2 1-2-3-2.5 1.5zm455 0 2.5 1.5 3 4zm-195 1 1.5.5 2 7 1 3-1 5h1l.5-2.5.5 2.5v2l1 4-1 3h2l-.5 1.5-1.5.5 1 5-2 7 2 1-2 1 3 11h-1l-.5-1.5-.5 2.5v2l-.5 1.5-1.5-6.5 1-2q-.3-26.6-4.5-47.5Zm-288 3 1.5 3.5h-1l-.5-1.5-.5 2.5 1 2h-1l-1-4zm6 0 1 2 1.5-.5-5.5 10.5-.5-2.5 2.5-5.5 1.5-.5zm431 2 3.5.5-8.5 4.5-.5-1.5zm29 0 2.5.5-5 4zm37 3 2.5 1.5-1.5 2.5-5.5 1.5-.5 1.5-1.5-.5-.5 1.5-15 7-.5-1.5 2-1-2.5-.5-3 2-3 1-36 18-1-2 29-15 3-1 24-9zm-74 1 1.5.5-.5 1.5-15 7q-2-3-4 2l-5 3-1.5-.5-.5 1.5-8 3-34.5 21.5-.5 1.5-12.5 7.5-.5 1.5-17.5 11.5-1.5 2.5-1-2-4 6-11.5 8.5.5 1.5 3-1 1 2 3.5-.5-3-1 3.5-1.5q3.5 2-1 4l-6.5.5 1.5 2.5-2.5.5-.5 2.5-18 13 1.5-2.5-.5-1.5-11.5 4.5-1.5 3.5-6.5 3.5-2 4 2 4-2.5 2.5 1.5-2.5-1.5-3.5-2.5 1.5q3.8 1.8.5 3.5l-1-3-2 3-2.5-1.5 5-4 .5-2.5 7.5-4.5 2-3-2-1-.5-1.5-1 2-9 1h-4l-10 1-1-2-5 1-3-1q-12.9 3.1-30 2l-1-2-1.5.5.5 1.5-4.5-1.5 5.5-1.5 2 1 21-2h2l5.5-.5-8-2 9.5-1.5 2 1 10-2 2 1v-2l1.5.5.5-1.5 6.5 1.5-1.5-.5-1.5.5.5 1.5 6-2-2.5 3.5.5 1.5 7-1 4 1h2l4.5-1.5-2.5-1.5h-2l-8 1-1.5-3.5 7-3 .5-1.5 2-1 9 1v-1l-3.5-.5 5.5-.5 4 1 15.5-4.5-3-7 4-2 .5-1.5 5.5-2.5 4.5-5.5 4.5-2.5 2.5-3.5 1.5.5.5-1.5 7-3 15-12 1.5.5 1.5-2.5 16.5-9.5 1.5-2.5 2-1 1 1 4-4 11.5-5.5.5-1.5 4-2 1 1 4-4 2 1 11-8zM575 780l-11 2-1 2h14l1 2v-2l3-1 2 1v-1zm52.5-92 5.5 10.5-.5 1.5 1.5.5-2 1-2-4 1-2h-2zm-314 4 1.5 2.5h-2l1 2-2 1 .5 1.5-1.5-.5 1 2-2-1zm428 4 2.5 3.5-22.5 12.5 1-2 3.5-2.5.5-2.5 1 3 1.5-2.5-.5-1.5 3 2v-4l3 2v-4l1 3 2.5-1.5-1.5-2.5 3 2q3-1.5 0-3l-1.5.5q1.8-3.2 3.5.5l1.5-.5zm-416 3-1.5 2.5-3 5 1 2h-2q1 6.5-3.5 7.5l1.5-2.5q1.5-9.4 7.5-14.5Zm263 2 2.5 1.5.5-1.5.5 2.5-2.5 6.5-1.5-.5 1-2-2-2 1-3zm46 1 3.5 7.5-3-2-2-4z"/><path fill="#8d8d8a" stroke="#8d8d8a" d="m613.5 709 .5 14.5h-1zm-307 4 .5 1.5-2 3 3.5 1.5 4.5-3.5.5-1.5 1.5.5-.5 1.5-1.5.5-1 2 3 1-.5 1.5-5-2-9 4-2-1-2 3-3 1h-2l-2.5-.5 15-6-.5-1.5-3-1-2.5-.5.5-1.5 1 2 3-2 1 2zm422 0 2.5 1.5-1.5 2.5 5-3-1 2-5 3v-2l-2 1 1-2 2.5-1.5zm-434 1 2.5 1.5-.5 1.5h-2l-1.5.5 1 2-2 1-.5-1.5-2 4-1.5-.5 2-1-2.5-1.5-5 3 4-5 7.5-2.5zm288 0 1.5 6.5-6 14 1 2-3 2 3-8-1-3v-2l-1-3 2.5-1.5 1 4 2.5-7.5h-2zm185 0 1 2-4.5 1.5-.5 1.5q-3-1.5 0-3zm-15 3 .5 1.5-13.5 6.5 1-2zm-136 5 1 7 1.5-.5.5-1.5.5 2.5-4 2-.5 2.5-.5-2.5 1-3zm120 3 1.5.5-22.5 11.5v-1zm9 1 1.5.5-10.5 5.5-.5-1.5zm-448 1 1.5.5-.5 1.5q-1.7-2.7-3.5 1.5l.5 1.5-2.5-1.5zm394 2 2 1 2.5.5-2.5.5-2-1-1.5 2.5.5 1.5-2.5-1.5 1 2-2 1 .5-1.5-6 3 1-2 6-4 1.5.5zm-70 1 2.5.5-1 2h2l-1 3 2 1-3 2 1 2-2-1 1-2-1.5-.5-.5 3.5.5 1.5-7.5-3.5.5-3.5 1 4 4 1-1-2-2.5-.5 3-1 .5-3.5 1 4 .5-2.5zm-345 2 6 1 5-1 1 2-5-1-4 2h-2l-4.5-1.5zm-8 1 1 3 1.5-.5-.5-1.5 3.5 1.5-5.5 1.5h-2l-1.5-.5 2-1zm458 2 3.5.5-6.5 3.5-1.5-.5-1.5 2.5-4 1-.5-1.5zm-474 2 3.5 2.5-5 4 3.5-4.5zm355 0 2 3 2.5.5-.5 2.5-3.5.5.5 2.5 2.5.5q.8 5.8-3.5 6.5l-4.5.5-.5 2.5-3.5-.5 2-1 .5-1.5 3.5-1.5 1-3 2-9zm-336 1 1.5 5.5-4.5.5h-2l-11 4-2-1 .5 1.5-6.5 14.5-.5-1.5 6-13 .5-2.5 2-1 2 1 1-2 2 1 1-2q7.2.7 9.5-3.5zm437 0 1 2-1.5-.5-.5 1.5-4 2 2-3zm-461 1 1 2-5 2-1.5-.5-.5 1.5-1-2 2-1 2 1v-2zm465 3 2.5.5-32 17-.5 1.5-9.5 4.5.5 2.5 2.5-.5-2-1 10-1-.5-1.5 3 1 15-6v1l-12.5 5.5 13.5.5 1.5 1.5-1.5-.5-5 1-2-1-3 1-2-1-3 1-3.5.5 1 2-10 2 2.5 1.5h2l12 1h2l4.5-1.5-2.5-.5-2.5-1.5 1.5.5 6-1v1l-1.5.5 2 1-.5 2.5-3-1-12 1-3-1-3 1-7.5-1.5 1.5-3.5 1.5-.5-8.5-1.5-4 3h-2l-3-1v2l-1.5.5 2.5.5 6-1 4 2 2.5-1.5-1.5 2.5-2.5 1.5.5 1.5 5.5 1.5q-12.7-1.7-17.5 4.5l-1.5-.5-.5 1.5-1-2-2 4-9 5-.5-1.5 11-8-.5-1.5-1.5-.5 1.5-.5 4 1 1-2-5-1-2.5 1.5-.5 1.5-3 1h-2l-10.5 5.5-.5 1.5-11.5 6.5-.5 1.5-2 1-.5-1.5 1.5-2.5 1.5-.5.5-1.5 16.5-9.5-5-1 10-3-8-2 12.5-8.5-1 3 8 1 1-2 1.5-.5-.5-2.5-1.5.5-.5-2.5-1.5.5 1 2-1.5-.5-3 1 1-2 4-3 5 2h2l11-6 .5 1.5-5 3-1.5 2.5-3-1-1 2 8.5-.5-.5-1.5-1.5-.5 3-1 .5-1.5zM665 774l-8 1-2 3 7 1 3-2z"/><path fill="#8d8d8a" stroke="#8d8d8a" d="m695.5 746-3 4-12 7 2-3 6.5-4.5-2-1 2.5-.5 1.5.5.5-1.5zm-464 1q3.5 2-1 4l-2.5 1.5-1 4 2 3h-1l-1.5-2.5-1.5.5-1-2 2.5-3.5 1.5-.5.5-2.5 2 1zm384 0 2.5 1.5 2 6h-1l-1.5-3.5-4 2 .5-1.5 2-3zm-5 9 4 3 1.5-.5.5 1.5 2-1 2.5-.5.5-1.5 1.5 6.5-3.5 1.5-2-1-2 1v-1l1.5-.5-.5-1.5-3.5 2.5-.5 1.5-2.5-.5 4-3 1-2-2.5-.5-1 3-1.5-2.5.5-1.5-1.5.5-.5 1.5-1.5.5 3 2-1.5 2.5-8-1v2l-7 5 1-2 2.5-1.5-2.5-.5-2.5 1.5-1.5 4.5-3.5-.5 4-2-1.5-.5-3 1v-1l3.5-1.5-1.5-.5-4.5 2.5.5 1.5-3-1-4 2-2-2-4.5 1.5-.5 1.5-5.5-1.5.5-1.5 1 2 4.5-1.5-.5-1.5 8 1v-2l11-4 1 2 3.5-1.5-3-1 6.5-4.5-1 3 9.5-.5-7-2 1.5-2.5 2.5-.5.5-1.5 1.5.5.5 2.5 5.5-2.5zm-40 3 2 1 2-1h2l10 1 6-1v1l-5 3-10-2-2 3 3.5.5-2 1 2 1-3.5.5-2-1-1 2-2-4-3 4 1.5-2.5-.5-1.5-8 6-1-2-1.5-.5-.5-1.5-1 2-2.5-.5 1.5-2.5 4 1 3-1h2l3.5-1.5-2.5-1.5-10 1h-2l-3-1v2l-3-2-2 1-4-1-10 1v-1zm-343 2 1.5 5.5h-2l1 2h-3zm515 1 8.5 1.5-9.5.5zm-98 1 5.5.5-23.5 16.5-1-2-3 5q-2.1-3 3-6zm-398 1 .5 3.5-1.5 4.5-2.5-5.5 1.5.5 1.5-.5z"/><path fill="#8d8d8a" stroke="#8d8d8a" d="m541.5 765 5 1 6-1 .5 1.5-5.5 1.5h-2l-27 4h-2l-19 2h-2l-5 1-3 1-8 1-1.5-2.5 6.5-1.5 3 2v-2l11-1 1.5.5.5-1.5 4 1 4-2 2 1 4-2 2 1 2-1 2.5-.5.5-1.5 8 1 2-2zm227 1 1.5.5-.5 1.5 1.5.5-2.5.5-1.5-.5-.5 1.5-2.5-1.5zm-276 1 5 1 4-1 .5 1.5-12.5 1.5-3-1-15 2-.5-1.5 1.5-.5 3-1 15 1zm11 0 13.5.5-13.5 1.5zm-52 2 14 1 4-1 .5 1.5-5.5.5-5-1h-2l-6.5.5 2 1-1.5.5q-3-1.5 0-3Zm95 1 4 1 3-1h2l3.5.5-4.5 1.5-1.5-.5-.5 1.5-1.5.5 1 2h-1l-.5-1.5-2.5 1.5.5 1.5-2.5-.5 1-3-1.5.5-10 2h-2l-5 1-2-1-7 2-1-2-1.5.5 1.5 2.5 8-1 3 1 4 1 2-1v1l-6 3-.5-1.5.5-1.5-14 1-3.5-1.5 1.5-2.5 9-3h2l16-2h2zm-323 2-.5 1.5.5 1.5 1.5-.5-1.5 2.5-1-2-1.5.5zm479 0 2 2 11 1 2-1 3.5 2.5-.5 1.5-6 1v-1l1.5-.5-11.5-1.5-1.5.5-1-2zm-425 5 2 4 1.5-.5-.5 1.5 1.5.5-1.5 4.5-4-8-1.5-.5z"/><path fill="#8d8d8a" stroke="#8d8d8a" d="m539.5 777 5.5.5.5 1.5 2-1 2 1 1.5-.5 1 2-11.5 1.5v-1l3.5-.5-3-2-.5 1.5-1-2-2 1v-1zm-317 9 5.5 3.5-.5 2.5zm27 2 9.5 2.5-4.5 2.5zm-20 2 7.5 4.5-.5 1.5 2-1 8.5 2.5.5 1.5 3-1 10 3 3 1 7-1 3 2 3-1v1l-1.5.5 4.5.5 4-1 7.5 1.5-15.5 1.5-3-1-6-2-3 1-14-3-5-3-3 1v-1l1.5-.5-2.5-.5-2 1-9.5-5.5zm55 1q4 2.5 2 5l-2-4-2 3-7-1-4 2-3-1-3-2-1.5.5.5-1.5 10 2 8-1zm256 1 4.5.5-26.5 4.5v-1zm98 0 1.5.5-.5 1.5-34.5 20.5-.5 1.5-13 8-.5-1.5 12-8 .5-1.5 18-11q2 3 4-2l3.5-1.5.5-1.5zm-350 2 3 4-1.5-.5-.5 1.5-3.5-.5 4-2zm324 0-4 5-3 2 2-3zm4 3 .5 2.5-4 2-1.5 2.5-30 21 1-4 1.5.5 3.5-4.5 23.5-14.5 2.5-3.5zm-295 1 1.5 2.5-2.5.5-6-1-3 1-4.5-1.5 5.5-.5h2zm7 0 11.5.5-11.5.5zm-3 2 6.5.5-6 1 2 1-1.5.5zm269 1-5 8-1.5-.5-1.5 2.5-2.5-.5zm-18 4 1.5 3.5-2.5.5-6.5 4.5q2.8 1.8-1.5 3.5l-1.5-.5-2.5 3.5-1.5-.5-1-2 6.5-5.5 1.5.5 2.5-3.5 3-2 1.5.5zm-212 3 5 6zm-2 1 5.5 6.5-1.5-.5-5.5-1.5 4-1z"/><path fill="#8d8d8a" stroke="#8d8d8a" d="M580.5 809q7.5 4-1 8v-2l-1.5.5-3.5 5.5-26.5 20.5-1.5 2.5-1.5.5-.5 1.5-2.5-1.5-5.5 7.5-4 3-1-2-6 8 3-5-3 2 2-3 3.5-2.5q-2.8-1.7 1.5-3.5l-1 3 5-3 2.5-.5-2.5-1.5-1.5.5 3-2-.5 1.5 4.5-3.5-1-1 5.5-5.5-1 3 12.5-9.5 2-3-1.5-.5-8.5 7.5 15.5-13.5 1 3 1.5-2.5q-3.3-2.3 2.5-4.5l-1.5 4.5.5 1.5 1-3 2.5-.5 1.5-5.5 2 4 .5-1.5v-2zm-232 5 1.5.5-.5 1.5 4.5.5-4.5.5-4.5-1.5zm23 0 16 1 12 10 7 1 7.5 7.5q8.7 11.3 11 29l-.5 1.5 1.5.5-.5 2.5-1-2-1.5.5-6-21q3-2-2-4l-9.5-13.5-4.5.5 3 17 12 17-1.5 2.5-3.5-7.5.5-1.5-2.5-1.5.5-1.5-2-1-.5 2.5 3 13h-1l-4-7h2l-4-13-3-3 3-1-3.5-1.5h-2l-1.5-.5-.5-1.5-2.5-.5 2.5-.5 5 2 .5-5.5-5.5-9.5-2.5-.5 1-3q-4.2-6.8-16.5-5.5l-3-1zm-49 2 3 1 2.5.5-2.5.5-4 1-1-2 3 1v-1zm12 0 1.5 2.5-2 1 4 5-1.5-.5-1.5-.5q3-2-2-4l-.5-1.5-2.5.5 3.5 4.5-4-4-1 1-2.5-.5zm37 0 1.5.5v2l2 4-1.5.5-1-3-3.5-2.5h2zm-20 7 3.5 1.5-2.5.5-3 1-2-1h-2l-6 1v-1zm196 0-3 4-1.5-.5-1.5 2.5.5-1.5 1.5-2.5 1.5.5.5-1.5zm27 1-2 7-.5-4.5z"/><path fill="#8d8d8a" stroke="#8d8d8a" d="m379.5 825 4.5 2.5-.5 1.5 1.5.5-.5 1.5zm-5 1 6 11 2-1 2 5 1.5-.5q-1.5 3-3 0l-1-2 .5-1.5-4 1-.5-2.5zm211 1 1.5.5-16 10-2.5 3.5-8 5-.5-2.5 9-5 2.5-3.5zm-39 2-1.5 4.5-4.5 4.5zm24 0v3l-2-1-1 3 1-4zm-30 5-15 16zm-152 5 3.5 6.5-5-4zm-22 4 4.5 3.5-3-1 2 3-4-3zm19 0 12.5 17.5-4-1 .5-1.5-7.5-4.5 3-2-.5-1.5-1.5.5.5-1.5-2 1 .5-1.5-.5-1.5-1.5.5 1-3zm170 4 1.5.5-.5 1.5-1.5.5-2.5 3.5-1.5-.5.5-1.5 1.5-.5zm-26 1-6 9-1.5-.5-3.5 4.5-.5-1.5zm-19 1q.7 5.5-8 11zm-136 2 3.5 1.5-3 1 4 7-4-3-2-4zm174 2 .5 1.5-1.5 2.5-6.5 3.5-.5 1.5-3 1-.5-1.5 8-5 .5-1.5zm-33 2 1.5.5-11 10 1 2-7 6 1.5-2.5 1.5-.5 1-5-3-2 1.5-.5 3 2zm-126 2 3 5 1.5.5-1.5 2.5-1-3-3.5-2.5zm132 6 2.5.5-8.5 9.5q-3.2-2 0-4l-3.5 2.5q2 3.7-3.5 7.5l3-7-4.5 3.5 1 1-7.5 7.5q3.2-2 0-4l-1.5.5q1.8-3.2 3.5.5l4.5-4.5-2-1-.5 1.5-2-2-3.5 2.5 5-3 1.5-2.5 4-3-2 4 11-8-2.5 3.5 1.5 1.5 1-2 1.5-.5 2-3zm13 0 1.5.5-4 3-4.5 5.5-.5-1.5 3-2 1.5-3.5zm-135 2 6 6 1.5-.5-1.5 3.5.5-1.5z"/><path fill="#8d8d8a" stroke="#8d8d8a" d="m500.5 865 1.5 2.5-13.5 15.5 2.5-3.5-.5-2.5-8.5 6.5.5 1.5 2-1 2.5.5-17.5 14.5-1-2-13.5 5.5 3 1-4.5.5h-2l-8.5-1.5 4-1-2-3 2.5-4.5 1.5-.5.5-1.5 1.5-.5 1.5-2.5.5 1.5-2.5 3.5-1.5.5-1 6 2.5.5 3-1v2l1.5-.5.5-2.5 10.5-4.5 1.5-2.5 2 3 10-7h2l3.5-2.5-1.5-.5-2.5 1.5-.5-1.5-5 4-1.5-.5-1.5 2.5-2 1q-3-1.5 0-3l2 1v-2l4.5-1.5 2.5-3.5 1.5.5 1.5-2.5 10-7v2l1.5-.5 1.5-3.5 1.5.5 4-6zm26 1-10 11zm-102 2 2.5.5 1 5-2 1 3 1 7 19-2.5.5v-2l-1.5-.5-3-8 2-1-2.5-3.5-1.5.5zm-23 4 .5 4.5 1 3-1 7h1l.5-1.5.5 1.5-1 3h1l.5-1.5.5 4.5 1 3-1.5 6.5-3.5-20.5v-2l-1-4zm122 0 1.5.5-.5 1.5-1.5.5-.5 1.5-4 2zm-110 4q2 5 4 2l1.5.5-2.5 1.5-2.5-.5.5-1.5-1.5-.5zm92 6-7.5 8.5-9.5 10.5-1.5-.5-1.5 2.5-3 1-4.5 1.5 6-4 2.5-3.5 1.5.5 3.5-4.5h2l1.5-.5.5-2.5z"/><path fill="#8d8d8a" stroke="#8d8d8a" d="m459.5 884-.5 1.5-.5 1.5-4 3-.5-1.5 2-1 .5-1.5zm30 1-2 5-3.5.5zm-71 7 3.5 4.5-2 1 .5-1.5-1.5-.5-.5-1.5-.5 2.5 1 2h-1l-1-4zm-13 11 2.5.5 6.5 12.5q5.6 5.4 18 4l1.5-.5-4.5 2.5-2-1v2l-3-2-5 1-6.5-3.5q-6.6-6.3-7.5-15.5Z"/><path fill="#8d8d8a" stroke="#8d8d8a" d="m427.5 905 1.5 3.5-.5 1.5 2.5 1.5-.5 1.5-3.5-2.5 6 7-7-5-.5 2.5-1.5-6.5 3 1-1-2zm20 5 3.5 1.5-2.5 3.5 4-1v1l-3.5 2.5-1.5 2.5v-2l-1.5.5-.5 2.5-1.5.5-.5 1.5-3.5-1.5 8-6-2-4zm22 0 2.5 1.5-4.5 3.5 1-2 2.5-1.5zm-14 4 4 1 1.5-.5-2 3 1.5-.5 1.5.5-3.5 1.5-.5-2.5-.5-1.5zm14 1q-3.2 2 0 4l3.5.5-.5 2.5-7.5-3.5zm-15 7 4.5.5-5 2-.5 2.5.5-3.5z"/></svg>