<svg xmlns="http://www.w3.org/2000/svg" viewBox="0 0 1024 1024"><path fill="#020201" stroke="#020201" d="m746.5 236 .5 6.5.5 2.5 7-2 1.5 3.5-11 7 .5 2.5 6-4 1.5 3.5-2 1-4.5 5.5q-43.8 32.2-82.5 69.5l6.5.5 9-2 2 1 8-2q3.7 6.3 14.5 5.5l4.5 8.5 1.5.5.5 1.5 7 4 3 1 2-1 52 26 11 3 16.5 9.5 4 11 1 14 2.5 3.5 2-1 .5 2.5.5 2.5 1.5.5 1 5v2l5 82-1 5 1 3v2l-1 4 1 3-1 3v2l1 2-1 5v2l-1 20v2q-1.7 20.7 3 35l1 3 .5 3.5 22-3 3.5 2.5-4 8 4 6 2 27 11 41-3 5 2 8-3 10 1 4-2.5 3.5-3.5-.5-2.5-5.5-2.5 1.5-.5 1.5-26 8-32 14-3 1-7.5 2.5-.5 1.5h-4l-38 15-54 14-3-1-4 8q-7.6 1.1-9.5-3.5l-11-26-4-34-3-9 1-2-6.5-28.5-2 1-2-1-2 1-2.5-1.5 1-2-1-2 8-6 1.5-5.5 2-1 1 2 2 1 4-8 5 2 5.5-3.5-3-27-5.5-8.5-3 1-8-9-1.5-.5-2.5-3.5-2.5-1.5-1.5-2.5-4.5-3.5-3.5-4.5-42.5-39.5-13-39-1-8-3-5-4-22-7.5-18.5-1.5.5-27 43-42 74-5 5-1 3-34 59-35 72-1 7v2l-3 9-21.5 27.5q-14.4 16.1-37 24h-2l-17 4-2-1h-2q-25.9-3.6-37.5-21.5l-20-28-51-85 .5-1.5-2.5-1.5-31-65-11-34-9-46 3-2 11.5-19.5 6.5-4.5 9.5-13.5 3.5-2.5.5-1.5 25-16 20-5 16 3 3-1q15.8 3.2 27 11l21.5 18.5 13 23 23 55 5.5 7.5 1.5-.5 14.5-24.5 1.5-.5q30.9-50.6 70.5-92.5l3.5-2.5 1.5-2.5 8.5-7.5 1.5-2.5 36-32 55.5-43.5.5-1.5q83.4-72.1 200-111ZM728 268q-25 15-44 35l-3 4-6 5 1 1 3-2v-1l11-9v-1l17-13v-1l21-16zm-34 7q-59 30-109 69l2 3-35 26-1 2-19 14-2 3-51 44-2 3-3 2-3 4h-1l-27 30h-1l-41 50h-1l-27 40-29 71-7 3-5-3-3 4q-4 3-12 2l-3-2v-7l-4-10-15-29-37-90q-5-15-15-24l-8-6-7 2-20 12-8 11-2 17 1 2-1 4 17 55 34 76 30 59 20 23q11 11 27 17 21-3 33-15l22-29q16-42 39-77 42-62 79-127l50-67-8-24 10-16 12-7 20 5v2l4 1 1 2-5-3-2 4 6 2 2-1h2l1 2 5-7-3 2-2-1v2l-2 1 1-3-1-2 1-2-4-2 2-7 33-39 3-2 8-10 8-7v-1l5-4 24-25 25-21zm-11 68-13 3-22 1-27 31v1q24 2 42-3l2-3 8 2 3 9 10 12 3 1 18 20 2 9 5 1-14 44 1 6-5 4q-4 1-3 8l-2 1-5-1-1 2-2 1-2-3q-2-4-3 0l-16-8-3 1-5-1-1-2-36-15-5-9-4-2-2-3 2-1-3-8-3-3-9-12-9-9-3-4-10-6-15 8q15 27 24 60l12 19 6 13 4-1 20 16v2q17 7 30 19l20 24 4 2v2l4 2 5 6 2-1 4 1 4 24 11 35 30-9h2l15-6 9-1 40-12-2-25-4-4-2-2 1-4v-2l-1-39 2-11-1-4 2-18-1-2 2-39-1-50-12-8-2 3-5-1-2 1 5 16-3 2-5-1-1 2-7 2q-7-8-9-20l-34-30-1-1-29-22-5-6-2-2-1-1zm96 41-1 2 16 9v-1q-5-8-15-10Zm-123 6-10 2h-2l-20 2-9-2h-2l-3-1-13 15v3l15 21v6l5 11 15 7v-3l-3-19 1-5-3-6 3-8 5-5 24-13zm-426 60-26 16-1 2h-1l-2 3q18-8 32-20zm22 1-12 5 3 1 11-4h2zm415 1-2 6 1 3h1zm150 40-3 2v48l2 8 1-2-1-2 2-13-1-2 1-3-1-8 1-3-1-9v-2l-1-7 1-4zm-295 11-23 33-26 48 1 1 48-80zm-344 1-3 5q1 16 7 29h1l-5-23zm146 15 4 16 16 34h1zm308 21-1 2h2v2l8 5v2l3 1v-1zm-454 9 15 47 26 52 2 1-27-67zm506 40 2 9v-7zm146 32-6 4 2 4 6-2-1-5zm4 17-3 1-2 4 4 2 3-1zm3 16-16 8 1 1 17-5-1-3zm-145 18-10 4 1 1 11-4zm151 18-17 8 2 4 18-5-1-5zm-150 1-24 8 1 3 23-9zm13 42-21 7-4-1h-2l3 7 26-12zm48 8-48 15v1q28-5 51-15zm-396 8-16 9h5l12-8zm-46 14-1 2 13 8q6 1 8-2zm43 6-13 6v1q10-1 16-6z"/><path fill="#fefefa" stroke="#fefefa" d="M.5 0 1024 .5l-.5 1023.5L0 1023.5zM747 236q-76 23-134 63l-2-1-1 2-18 12q-2 5-4 2l-1 2h-2l-1 2-15 10-1 2h-1l-1 2-54 43-3 1-1 2-5 3-1 2-8 5v2l-5 2-1 2-25 21-1 3h-2l-1 2-4 3q-60 59-103 134l-26-53-3-10-15-25-4-3-2-2-6-5-1-1-21-13-24-5h-11l-15 4-24 15q-11 8-17 21l-7 4-6 14h-1l-1 2-5 4 4 27v2l3 9v2l11 37 23 51 33 59 36 57 16 21q12 14 34 19 36-2 55-21l28-33q5-8 5-20l34-70 82-141 28-44 8 20q7 40 22 74l9 6v2l3 1 1 3 25 22 12 14h2l10 12q2 3 9 3l3 9 1 14v2l1 9-3 1q-3 5-5-1l-5 8h-1l-2-3q-6 1-5 8l-4 2q-4 1-3 8l9 1 4 17 4 34v2l4 22 6 14v2l6 10 9 2q4-2 3-8h8l55-15 74-30 29-9 6-4 2 5 4 1 2-3v-11l2-2-1-8 2-6v-6l-9-29-1-9v-2l-2-21-4-8 4-6-1-3-5-3-19 4-4-8-2-16 1-23v-2l1-3-1-56 1-2-2-39-2-10v-2l-1-2 1-2-1-17-3-3 1-3-2-2-2 1-1-9-5-17-18-12-6-1-47-23-1-1-8-4-2 1v-2l-2 1-7-3-8-10-9-2-2-2-4-3-20 3h-3l40-35v-1l44-35 3-7-3-1-2 3h-3l12-8-1-4-7 1h-2l1-7z"/><path fill="#fefefa" stroke="#fefefa" d="m726.5 269-3 4-40.5 32.5-.5 1.5-6 5 12-13 1.5-.5.5-1.5zm-35 8-1 2-32.5 29.5-1.5 2.5-14.5 12.5-13.5 15.5-3.5 2.5-1.5 2.5-2.5.5 1 1-7 7-9.5 11.5-1.5-.5-.5 2.5-1.5-.5v3l-8.5 10.5-1.5.5-.5 2.5-3.5 2.5-.5 1.5-1.5.5v2l2.5 5.5 1.5-.5-1 2 1 2q-1.5 3-3 0l-.5-1.5q-2 3-4-2l-20-5-5 2-1.5-.5-1.5 2.5-1.5-.5-1.5 3.5-1.5.5-6.5 11.5-3.5 2.5 4 11-2 1 3 1 3 13-7.5 9.5-1.5.5-1 3-2.5 4.5-1.5.5q-26.3 32.2-48 69l-74 120-38 74-16.5 19.5-20 12-13 2q-15.8-6.7-26.5-18.5l-6.5-7.5-1.5-.5-.5-1.5-3.5-2.5-14-23-24-48-35-79-14-47v-13l2-13 4.5-7.5 28-16 10.5 7.5 14 23 24 60 32 69 .5 7.5 9 2 5.5-2.5 2.5-3.5 6 2 6.5-2.5 13-30 4-14 21-43q40.2-56.3 88.5-104.5l1.5-.5 2.5-3.5 3.5-2.5 1.5-2.5 15.5-13.5.5-1.5 5-4 1.5.5.5-2.5 3.5-1.5 2.5-3.5 2.5-1.5.5-1.5 8.5-5.5 5.5-6.5 4.5-2.5 1.5-2.5 1.5-.5.5-1.5 20.5-14.5 1.5-2.5 5-4 1.5.5 1.5-2.5 24.5-18.5v-2l2.5-4.5 4-3 1.5.5 3.5-4.5 5-3 1.5.5.5-1.5q39.6-28.9 85-52Z"/><path fill="#fefefa" stroke="#fefefa" d="M679.5 344q6.5-1 7.5 3.5l.5 1.5 1.5.5 6.5 7.5 36.5 27.5 2.5 3.5 10.5 7.5 4.5 5.5 6.5 5.5 1 7 7.5 13.5 10-4q2.5 2.8 5-1l1.5-.5-4-16 1.5-.5 3 1 2.5-1.5.5-2.5 11.5 7.5 1 13-1 2q3.1 4.4 2 13l-1 2 1 8-1 7v2l-1 9 1 8v2l-1 10v2l1 2-2 19 1 2-2 20v2l1 3-1 17 1 2v2l-1 4 1 5-1 2v2q-2.5 11 3.5 13.5l1.5.5 1 4-1 2 1 4v2l1 14-45.5 13.5h-6l-11 5-32 9-10.5-32.5-3-21-3.5-5.5h-5L667 560.5 654.5 545 610 512.5l-3.5-4.5-7-2-1.5.5-6-14-12-19-9-24v-2l-9-25-5-8h2l1.5-2.5 10-4 6.5 2.5 1.5 2.5 1.5.5 4.5 6.5 1.5-.5.5 1.5 1.5.5.5 1.5 5.5 4.5 11 14 2 6-1 5 6 3 5.5 9.5 34.5 13.5 2.5 3.5 6-1 17 9 2.5-1.5 1.5 3.5 6-3 4 1q3.8-1.7 3-8l3.5-1.5 4-7-1-3 14-44-5-2v-4l-6.5-8.5-1.5-.5-6.5-7.5-3.5-2.5-16-19-2.5-7.5-7-3-5 4-25 3-2-1-3 1h-2l-8-1-1.5.5 6.5-7.5 1.5-.5 19.5-22.5 11-2 8 1zm100 41 13.5 7.5-.5 1.5q-9.2-2.6-13-9Z"/><path fill="#fefefa" stroke="#fefefa" d="m653.5 391 4.5 2.5-.5 1.5-22 12-7.5 7.5-1 8 2 2 2 28-2.5-1.5-10.5-3.5-6-14 1-3-7-12-.5-2.5-1.5-.5-6-8q-1-3.5 5-7l6.5-8.5q12.6 4.4 32 2zm-423 59 1.5.5-30.5 19.5 4-5 21-14h2zm19 2 2.5.5-6.5 3.5h-5v-1zm-72 53 .5 6.5-1 2 4 18h-1l-4-24zm638 3 1.5 19.5-1 3 1 3-1.5 5.5-1.5-14.5 1-7-1-3zm-299 3-.5 1.5-40.5 68.5.5-1.5q17.1-37.4 40.5-68.5Zm-191 13 19.5 42.5-1.5 2.5zm307 17 10.5 9.5-7.5-6.5zm-453 12 11.5 22.5 28 69h-1l-24-48zm649 69 2.5 1.5-.5 3.5-5 1-.5-3.5zm8 33 1.5.5-.5 2.5-15 4 1-2zm5 36 2.5.5 1 5-17.5 4.5-1.5-2.5zm-159 4-1 2-11 5-1.5-3.5zm24 38-1 2-24 10-2.5-5.5 1.5-.5 6 1zm38 11 2.5.5-32.5 9.5v-1zm-432 20 17.5 7.5-4.5 1.5q-9.2-2.6-13-9Zm44 5-2 3-9 3 1-2z"/><path fill="#918d76" stroke="#918d76" d="m686.5 258 1.5.5-7.5 3.5v-1zm54 0-2 3-6 4 1-2zm-132 20 .5 3.5-4.5 3.5-.5-1.5 4-3zm95 7-5 6zm-8 7-4 7q-2.2-3.5 4-7Zm-26 5-11 12zm10 10 2.5.5-4 2 .5 1.5-2.5.5-2.5 3.5 1.5-2.5zm-24 4-10 11zm-68 3 .5 1.5-9.5 7.5 4-5 1.5-.5.5-1.5 2.5-.5zm90 5-5 6zm-66 6-1 2-4.5 2.5-.5 1.5-3 1-2 1 1-2zm58 1-3 6-2.5-.5zm-116 14-6 7zm36 0-1.5 2.5-1 3q2.8 1.8-1.5 3.5l-12 9 3-4 10.5-7.5-2-3zm30 6 2.5.5-7 6 2.5-4.5 2.5-.5zm100 1 8.5 3.5-2.5.5-3-2-2 1zm-174 1-1 2-5 4 4-5zm31 1 1.5.5-6.5 4.5 1-2zm68 2-7.5 8.5 1.5 2.5-2.5-2.5zm-30 3-8 9zm-82 4-5 6-10 8-1-2q2 3 4-2l3.5-2.5-.5-1.5 3-1zm32 0 .5 1.5-6.5 5.5-.5-1.5zm7 0-3 4-6.5 4.5-.5 1.5-1-1-4 4-2.5 1.5-.5 1.5-12 9 5-6 4.5-2.5.5-1.5zm64 3-7.5 8.5-.5 1.5-.5-1.5zm-34 8-4.5 5.5-2.5 3.5 1.5-2.5zm16 1-3.5 4.5-12.5 16.5-1.5.5.5 1.5-1.5-1.5 6-6zm-115 11 1.5.5-7.5 6.5 3-4 2.5-1.5zm84 7 3 6 1.5-.5-1 2 1.5 2.5 2 1 5-6 .5 1.5-3.5 4.5-1.5.5q3.2 2.3-2.5 4.5l-1-2h-2l-2 1-5.5-2.5 2-5-11-3 2.5-.5q7.9.1 11 5l1.5-.5 1.5 2.5 1.5-2.5q-5.5-2.2-3.5-8.5Zm-24 1q6.5-1 8.5 2.5l-1.5-.5-7-1-7 3 .5-1.5.5-1.5h2zm51 2 9.5 2.5-5.5.5zm-125 1 1.5.5-6 5zm136 1 17.5.5-17.5.5zm-101 3v3q-1.7-2.7-3.5 1.5l-.5 1.5-7 5 5-6zm27 0 .5 1.5-5.5 7.5.5-1.5zm55 0-2.5 3.5-5 6v2l6.5 8.5 2 1 1.5-.5-3 2-8-10v-3zm18 3 .5 1.5-7 6zm72 5 6 7zm-126 3 6.5 2.5-1.5.5-5-2-5 2v-1zm-99 1-8 9-.5-1.5zm39 0 1.5.5-5 4-.5 1.5-2 1zm33 0-1.5 2.5 3 10h-1l-3-10zm254 1 .5 11.5h-1zm-219 1 3.5 2.5 2.5 4.5 9.5 8.5-3.5-2.5-1.5-.5-.5-1.5-1.5-.5-.5-1.5-1.5.5-4.5-6.5-2.5-1.5zm-18 2-.5 1.5-1 4 .5 1.5-2.5-4.5zm-58 3 .5 2.5-6 3zm-42 3 1.5.5-7.5 6.5 1-2 2.5-1.5-.5-1.5 2.5-.5zm248 0 3 7 4.5 1.5-.5 2.5-1-3-4.5-.5q.8-6.2-1.5-7.5Zm-148 2 4.5 9.5h-1zm-65 1 .5 1.5-14.5 13.5zm-42 5-7 8zm94 1 2.5 9.5-12.5 16.5 1.5-2.5 2-3-.5-1.5 4.5-3.5 4-6zm45 3-.5 1.5-.5 1.5-4 3zm-122 15-7 8zm-37 2-6 7zm97 15-6 7zm-80 5-6 7zm369 1 .5 12.5h-1zm-305 1 1.5.5-.5 1.5-8 2v-1l6.5-1.5zm301 11 1 2 1.5.5-1 7 1 5-1 4 1 7v2l-.5 7.5-1-7-1 6-.5-10.5h1l.5 2.5.5-6.5h-1l-.5 2.5-.5-5.5v-2l.5-1.5 1.5-.5-2-1 .5-4.5 1.5-.5-2-1-1-2h2zm-134 5 .5 1.5v2l-.5 1.5-1-2-4 2v-1l4.5-2.5zm-257 11-1.5 2.5-5.5 6.5 4.5-5.5zm396 0 .5 12.5h-1zm-302 12 .5 2.5-1.5 2.5-2.5-.5 4-3zm-109 6-.5 1.5-4.5 5.5 3.5-4.5zm409 7 .5 6.5-1 3 1 2h-1l-1-4zm-3 4 1 14 1-5 .5 6.5h-2l2 7-1.5 2.5zm-20 11 .5 16.5h-1zm25 4 .5 11.5h-1zm-183 3 7.5 8.5h-1l-.5-1.5-1.5.5-.5-2.5-1 1-4.5-4.5zm18 2 8 9zm-67 8 5 6zm231 9 .5 16.5h-1zm-334 1 2.5.5-3 1 1 2h-3zm122 8 15 16zm241 36 .5 1.5q-5.1 2.7-1.5 5.5-5.2-2.7.5-5.5zm-186 40 .5 2.5-5.5 3.5 1-2 3.5-1.5zm33 24 1.5.5-5.5 3.5-2.5-1.5 1.5-.5 1.5.5.5-1.5zm-287 16 .5 1.5-5 7q2.8 1.7-1.5 3.5l.5-1.5zm-116 38 6 7zm77 0-6 7zm385 16 3.5.5-9.5 3.5-.5-1.5zm-394 7-3 4-1.5-.5-1.5 2.5-1.5-.5-2.5 3.5 1-3-1.5-.5 3.5-1.5 1.5.5 1.5-2.5zm24 12-6 7zm-94 8 8 9z"/></svg>