<svg xmlns="http://www.w3.org/2000/svg" viewBox="0 0 1024 1024"><path fill="#131312" stroke="#131312" d="m596.5 223 21.5 11.5-1.5-.5-18-9 .5 1.5 53.5 67.5 1-2q4.9 14.1 14 24l.5-1.5-11-21 2 1 41 81 5 17-2-1-2.5-7.5-1.5.5-2-12-14.5-28.5-.5 2.5 10 33 3 25 2 2v9l-2 26h2l-13 49-29.5 48.5-1.5.5-.5 2.5-2.5.5-13 18 6.5-5.5 22.5-19.5.5-1.5 1.5-.5-1-2 2-1-1 2 3-2 18.5-25.5.5 1.5-27 37-16 33-4 13 2.5.5 7-5-2 3-8 4-.5-4.5 18-40-6 5-3.5 4.5-33.5 26.5-13.5 15.5-2.5-.5 26-29-1.5-.5-52.5 28.5.5 1.5q24.6-7.4 43-21l-3 4q-17.7 11.8-40.5 18.5l-1.5 3.5-1-3-2.5 11.5v2l-.5 1.5-1-4-1.5.5-2.5 3.5-2 1-5-1-8.5 2.5q-3.7 11.3-2 28l3 6-1 2 1.5 3.5 3.5 1.5q1.8 8.8-2 12l6.5 2.5 1-8 .5 7.5.5 2.5 6.5 3.5-1.5.5-15-8-.5 1.5 6 9-2 7 1 3q-3.8 7.3-2 20l-2 4v17q.3 16.7 5 29v2l10 39 5 33h-1q-4.4-36.6-14.5-67.5l-.5 6.5 5.5 33.5 1-7 1.5 12.5v2l1 36 3 20-2.5 16.5-.5-12.5 1-3-1.5-.5-5.5 33.5 2-1 2.5-7.5 1 2 3-4 .5 1.5-5 8-3 16 2.5.5 16-12 .5 1.5-19 13-6.5 23.5-.5-3.5 5-18-2.5 1.5-9.5 5.5-12.5 15.5-5 3 1-2 7.5-5.5 7-10-1.5-.5-8 4-25 2-2-3-7-2-.5 1.5 4 3-1.5.5-4-4-14-5 .5 1.5 4 13-2-1-6.5-16.5-8.5-6.5 2.5 1.5 7 4-.5-1.5q.2-11.7-7-16l4 2q-.8-18.2-8-30l-1-15 1-11-1-3v-2l4-44-1-6 2-4-1-2 2-1 7-57v-2l-.5-20.5-9.5 7.5-.5 1.5-10 8 7-8 2.5-1.5 1-2-1-9h1l.5 8.5 9.5-6.5-1-14-5-20q3 2 6-4l-.5-1.5-21 7v-1l20.5-7.5q-4.5-3.5-3-13l3-2 .5-1.5 2.5-1.5 5-9v-18l-3.5-8.5-1.5.5 3 6-1.5.5-5-8-5.5.5 3 7-4-3-1.5-4.5-14.5-2.5.5-1.5 7 1-2.5-3.5-4-8 1-2-14-3 3-1-29.5-13.5 1 2q8.4 9.6 24.5 11.5l-2.5.5-10-3 8.5 9.5 4 7-1.5.5-16-18-43-22 3.5 4.5 3 4-5-4-5-6 2.5-.5 39 20-3-4-9.5-7.5-1.5-2.5-20.5-14.5-.5-1.5-1.5.5 4 6-1.5.5-11.5-13.5 2-1-3-4 8 6-15.5-22.5-.5 1.5 4 7-2-1-14.5-24.5-.5 1.5 20 40-1.5.5-19.5-37.5-16-41h1l2.5 6.5 1-2 6.5 19.5 17.5 27.5.5-1.5q-15.4-21.6-25-49l-4-13-5-39-2-4v-2l2-27-.5-1.5 1.5-.5 2-15h-1l-.5 2.5-.5-2.5 2.5-7.5 1 3 1.5-6.5h-1l-.5 2.5-.5-2.5 3-11h-1l-4.5 10.5-.5-1.5 10.5-22.5 1.5 3.5-6 20 1.5.5 22.5-52.5-2 1-14.5 26.5h-2l-1.5-.5 12-31-8.5 7.5-1.5.5-18 22 1.5.5 1.5-.5-.5 1.5-4 2-.5-2.5 21.5-26.5 10.5-9.5 9.5-19.5-.5 1.5-6 15 6.5-5.5 1.5-.5 1.5-2.5 20-18v2q20.1-16.4 46-27v2l2.5-1.5-.5-1.5 7-3v1l-3.5 1.5 2.5.5q22.3-10.7 51.5-14.5l-4-1q35 1.5 64-3l-5-2 2.5-.5 6 3h21l4.5 1.5-1.5 2.5-1.5-.5-.5-1.5-16-1v1l47.5 20.5-1.5.5-17-7 .5 1.5 3.5 4.5 8 3 33 21-1.5-2.5-10.5-13.5-1.5-.5-3-6-22-25zm-46.5 8-11 1-1 2 11 1 25 8 2-1 6 1h2l-25-12-7 1zm-47 7-48 11-3 4q-2 6-12 4l-7 9h-3l-2-3 4 2 6-7v-2q-26 12-44 30l-2 3v2l-2-1-11 14v3l-1-1-1-1q-24 27-35 68l1 3q6-8 7-21h1l-3 14-9 20q1 10-2 17-1 24 2 45l9 31h3l1 1-1 2 4 10v-8l3-2-3 11 2 5h1l-1-6 2-3 1 1-1 2v2l1 5 3-4v4l-1-1-2 4v2l2 4 2 1-2-7 2-1 1-2v3l1 3-1 2 3 9 2 1-1-9 2-1v6l1 3-1 2 5 3h-1l-1 2 32 23h1l-2-2-15-15-1-1q-22-22-32-54l-1-1-1 2-2-1 3-2-3-8-5-32v-39l2-8 1 2 5-21v-2l-2 4h-1q3-18 11-30l20-31q22-27 54-43l28-11 30-8 2 1 2-1 2 1 2-1 20 2h2l9 2 10-1 5 3 2-1 4 3 3-1 48 19 12 7 12 16h2l11 15 3 1q15 25 26 56v-2h1l-1 3 3 5-1 3 4 35-5 45-14 40q-12 25-33 43l1 1 2-1 1 2v-2l5-4v-1l6-4 5-6-3 1 9-6 2-3-3-2 5-1 1-2 2 1 5-8 1-2-5 2-2 6-3-5 11-5-2-1 2-3 2 1q13-21 16-51l-1-4 2-5 2-22q-4-2 0-4 2-15-2-24l-2 8-3-6 5-3-3-17-14-37-2 1-1-1v-2l-2-5-1 2-5 1-2-7 4-1-2-5-1 3-1-2-1 3-2-1 1-7-13-21-1 2-9-11-1 2-3-2-1 3-2-5-4-1 1-4q-21-16-46-27l-21-7-26-3h-2zm77 6 6 4h2zm-129 6-10 4-1 2h5l7-5zm68 4v1l28 5h2q-12-7-30-6Zm-28 2q-23 4-39 13l-1 2q21-9 46-14zm30 2-2 2 23 3v-1zm-112 6-23 15-23 29 1 1 9-12 2-1v-1l3-1v-2l32-27zm84 0-15 3-2 3-9 3-1 2-17 8-2-1-1 2h-2l-1 2h-4q15-11 36-17v-1q-35 10-60 29l-12 13 13-9h1l-16 12q-20 21-29 52h2l-1 3h-2l-2 4 1 3-1-1q-7 14-7 34l2 2-2-1-1 3 3 1-3 1 1 26 9 37q11 24 28 43l16 15-2 1q-5-2-2-3l-5-6-1 1q-14-12-22-28l-2-1q7 16 18 27l18 16h1l-3-3-1-1 2-1 2 1-1-1-1 2 17 11v2l4 1v2l17 7h2l5 2v2l2-1q12 7 32 7h2l2 1 23-1 9 1 15-3 3-1 2 1 24-9 11-9-1 3 26-17 6-7 2-1q18-22 32-48 10-23 12-53l-1-3v-2l1-7q2-12-1-18l-1 10-2-5v-4l1-6 1 4h1q-1-19-8-32h-1v-1l-6-15-6-5-2-2-3-3-1 2 1 1-4-4 3 1-9-14 3-1v3l10 14 6 5-11-20-1-1-14-16-11-10-1 2 2 2-3-4-2-1-1-2-14-12-24-11-45-10zm127 3 12 11h1zm-11 11 11 9v-1l-1-1-1-1zm25 0 7 7 22 31 3 2-16-25zm-40 3 6 6h1zm10 5 2 5 3 1v-1zm-229 2-9 8-10 10-1 4h-1v2l-3 8-3 3v4l-3 7 1 2q12-26 29-46zm238 2 6 6v-1zm2 7 5 6h1zm11 6-1 2 8 7-2-5zm7 2 8 14 4 3-3-6-1-1zm5 10 7 18 3 2-2-8zm-253 2-8 11 1 1 8-11zm276 5-3 6 4-1h1zm-8 9 2 8h1zm-284 15-12 26 1 2-2 7 1 5 1-5 3-1 1-5h-2l3-11h1l-1 3 1 1 2-6h-2l5-14zm288 3 1 10h1zm4 1 2 11h1zm1 13-1 5 4 11h1zm5 4 6 33h1l-3-23zm-308 17-3 12h2l1-5zm308 7 1 17h1l-1-11v-2zm-310 6-3 12-2 4 1 2-1 4h2l1 14h1l-1-11 2-13zm316 4-1 22-4 9-5 35q-12 33-32 58-26 28-64 44l-27 7-38 4 4 1 15 1-6 1-23-2-11-3v-1l3 1h5l-25-6-4 1 22 7v2l2-1 19 4q52 0 86-20h1l-14 8v1q16-5 28-15l2-1-10 7-4 9 1 1 3-1 2-3-1-4 2-1 2-1-2 7h3l3-10 2-1-1 2 1 3-2 1 1 3 4-3 1-7v-3l-2 3h-1l2-4 3-2 8-9 2-1 31-40 15-38 1-12h-2l2-4 1 3v-3l4-22q2-10-2-14l2-4-1-3v-2zm-319 35-1 9 2 1q2-8-1-10Zm3 2-2 11 2 7 1-3 1 5-2 1 1 3-1 3 2 6h2l-1 3 2-1 7 22h1l-10-34zm335 9-5 19 1 3 4-14zm-4 26-15 33h2l13-31zm-311 33 6 12 3 2zm278 15-9 9 2 2 7-9zm-281 8 2 6 5 3v-1l-1-1-3-4zm273 3-3 2-5 6-2-1-5 7-1-1-1 2q3 1-1 3l-1-1h-1l1 4v-1l19-18zm-263 4q-3 5 1 7l1-2 3 5 2-1 6 9v-1l-1-3 2 1 3 4 3-1v2l6 5-1 2 5 1 1-2v3l1 1 4-2 1 1-2 3h2l3 4-14-8-1 2q11 9 27 13h2l-14-10-1-1 4-2v2l3 1 5 7 1-2 10 7 1-2v3l6 2q3-2-2-4l2-2v2l2-1 7 4 3 1 1 4-1 2h2l2-5 1 3 2-1v2h2l-2 3 7 2h2l-5-3-1-2 1-3 1 3 5-2 2 4 2 2-3-2-2-3-1 2-2 1 4 1v2l6 1v-2l8 3 2-1 6 2 4-1 2 1 29-2 33-11 4-6v-2l-4 1-3 6-2 1 2-3-3-2-38 8-15 1-3 1-26-3-38-12v2l-2-3-1 3-2-1 1-2-45-27zm279 3-13 12-1 2-13 10-6 7-4 5 21-16 16-18zm-35 4-2 1-3 4 1 2v-1l2-1 3-4zm-247 5 4 8 8 6 2 2-7-9zm38 3 5 5h2zm198 0q-6 3-5 13h2l3-7zm7 0-1 2h-1l-3 4 1 2 5-4 1-3zm7 11-11 8-1 2 13-9zm-194 2q3 5 13 7h2zm154 4-4 7-1-2 1-2-9 4-3 6 1 2 4-2 2-6h1l-1 4v1l8-3 2-8zm-184 5 7 7 41 19h2l-1-2zm49 9-2 3q2 4 10 3v-1l-3-2zm123 1-13 6v1l15-6zm5 6-12 6 1 1 12-6zm-79 20-7 4 1 1 6-3zm4 0-6 4 1 1q17 3 24-4l-17-1zm36 11-4 10 1 14 2 1-1-3 2-16zm-34 6-8 3 1 1 8-2zm-9 3-5 3h-2l1 2 6-3zm9 0-4 2-3 6-1-1-5 16h-1l5-17-1-1-4 12-2 1 1 2-2 5 2-1 3 1 4-16v9l-2 4 1 3 17-1 2 1 2-1 3 1h5l-2-5-1-1v3l-12-1 5-1v-2l-6 1-1-1 2-1 3-1 2 1h4l-1-1-1-1h-3l2-1-4-2-2 1 1-2 5 1v-1l-1-1-1-1-3-1-3-7zm21 8v5h-1l-1 3 3 1 1 1-1-9zm1 11-1 2h2l-1 2 1 5h4v-1l-3-1 2-1-2-4zm-37 11-2 2 2 5 2-1 2 1v-2h-2l1-3zm6 1 1 6 18-2 1-3zm23 0 4 3 1 3h5l6-1q-4-7-16-5Zm10 12-1 2 8 3 2-3zm-46 1-3 4 1 1 1-2 5-2zm-3 19-2 3 3 5 1-7zm26 2-5 5 4 5 2-1-1-4-1-1-2 1 4-2zm-8 9-5 7 1 1 3-5 2-1v-1zm4 0-2 5q4 7 7 0l-1-2zm-4 5-3 4 1 3h-1l-2 6h2l2-4 2-1-1-1 1-6zm21 1-1 2-4 3h2l3 5 1-5-1-2zm-36 1-2 2 1 8 2-5zm39 0v16l-1 3h2l3-4-3-2 2-1 1-4-1-3h-2l1-3zm-15 2-5 4-2 3 5 2 2-3-1-2 1-2zm6 2-5 6 2-1 7 2v-2l-1-1zm-3 6-2 2 1 6 5-4zm-27 2-2 2-1 13h2l1-2zm49 0v10h1q2-8-1-10Zm-29 2-2 2 1 3 4 2 1-3zm11 2-4 3 1 2-3 1 1 4-1 5h2l1-2 2-1 1-4zm2 0v8l3-2zm-26 1-2 4 1 6 2-3zm9 0-6 8v8h2l5-8 4-2-1-2-2-2-1-1zm26 2-4 5 1 3v-1h1l-1 2 1 2v-1l2-1v-3l1-5zm-18 3-1 2h-1l-3 4 4 5h1zm27 3-2 3 4 10v-4l-1-3 1-2zm-43 2-4 5 1 2-1-1-3 6 1 4q3-2 3-8v3h2l1-2zm26 0-2 2 1 6h3v-6zm9 1-5 11h2l1 3h-3l1 6v-1h1l-1 2 1 2h-1l-1 6 3-2-1-2 3-1q1-6-2-7l1-2v2h2v-2l-1-4 1-10zm-46 1-2 7 1 4q4-2 3-9zm20 0-3 4h-1l-4 9 5 2 3-5 2-1v-1h2l1-3-2-2-1-1zm13 1q-5 1-4 7l5 3v-1l2-1q3-1 0-3l-1 2-2-4 1-2zm20 5q-3 13 1 22l1 2 2-3-2-15zm-26 1q-6 3-4 14h2l3-5-1-2 3 1 2-3zm-26 3q-5 4-5 13h2l4-7zm8 2-1 2v3l-1-2-4 8 2 3 3-1 3-5v-6zm13 0-5 5 4 5h1zm11 1q-5 1-4 7h-2l-3 4q-3 2 3 4l2-1q0 6 5 8l2-1-2-20zm4 3-1 9v2l1 5 3-2q2-11-3-14Zm-21 2q-7 3-4 15h2l7-8-4-6zm-15 4q-7 5-7 17l2 2 1-7 2-1-1-1h2v-2l-2-1 2-1 1-3zm49 3-2 2 2 8 1-2-1-4zm10 0 2 31-1 3q2 3 3 0l-3-27v-2zm-38 1-8 8 7 7 1-2zm2 0v10l-1 8 3 1v2l2-1 1 4 5 3 3-8-2-7-1-1-6 7h-2l1-2v-2h2l4-3-2-3-2-2zm20 1-1 3-2 1 1 6-1 2-1-7-3 4 1 4 4 1-1 2h2l4-6-1-3 1-6zm-37 1q-6 3-5 14l-2 4 1 2v-1l2-1 2-7v3h2l3-5v-4l-1-1zm50 1-3 3 2 6-1 3h2l1-4v-2zm-5 5v5l-1 7h2l1-2-1-7v-2zm-52 2-2 6v2q-3 3-2 12l1 2 1-10v-2l2-5zm13 0q-4 14 5 17l4-6-1-4zm-3 3-2 4h-1l-2 3h-1l-1 3h-1l-2 6v2q-5 6-4 19h2l3-4-2-3 1-2 2 3q3-3 3-11v8l3-1-3 7 3 1v2h2v-12h-2l3-5-4-6-1 2v3h-2l1-8 2 1v2l3 2q1-8-2-10h2zm38 0-5 5 1 2h-2l-1 2 1 1-2-1-3 5-1-1-2 3 3 1 2 3q4-2 1-3l2-4v3h2l2-3-2-4 4 2 2-5-1-1-1-2zm11 1-3 5 2 8 1-2-1-2 1-3zm-34 7-3 4h-1l-2 4 8 5v-1l5-4-5-6zm29 0-2 6 1 2 2-1-1-2 1-4zm-41 2-2 5v2l3 1q7-4-1-8Zm35 3-5 6 2 5-2 13 1 2h5l2-5-1-12-1-1-1 3h-1l2-10zm12 0-3 3 2 8v-2l1-3zm-42 2-4 6 8 5 3-4zm15 1-5 6 1 3 4 2 3-5 2-1-1-1-1-1zm-39 3-2 4 1 8 2-11zm60 1q-3 7 1 9l1-2-1-6zm-41 1-2 16h2l1-2 3-2 3-5zm51 0-3 2h2l1 3-1 3v2l-2 1 1 2-2 7 2 3v-2l2-4 1 5-1 3v2l1 2h2l-1-16v-2l-1-10zm-25 1q-4 2-2 10h2q3-2 1-9zm-13 1-1 2q-7 3 2 7l1-4v2h2v-1q3-2-1-4l-1 2-1-3zm6 6-3 6 5 3v2h2l2 4h3l1-2-2-6-1-1-1 4-3-1 1-5zm-11 1-9 10 6 4 2-4 2-1 4-5zm-18 2-3 8q2 4 4 1zm-10 2-2 3 1 9 1-9zm59 0-2 7 3 4 2-1v-4zm-46 1-1 10h2l2-4 1-1zm21 0-8 11 6 3h2l-1-2 2-3-1-2 2-4v8h2l-3 4-2-1-1 3h3v2l4 2v2h2l2-4-2-1 3-2v4h2l3-4-2-5-2 3h-2l2-4-1-1-3-3-1-1-2-2-2-1-1-1zm-30 3v13l-1 2v2l1 3h2l-1 5 1 8 2-5h1l-3 7 1 3 1 1-2-1-1 2 2 1h-1l-1 2 2-1v3h-2l3 13 4-5-1-10-3-2 3-1v-13l-2-1 1-3v-4l1-2-1-4-3 5-2-2 1-6 1 6 4-8-1-2q-2-5-3-2l-1-2zm48 3q-3 9 2 12v-2l1-3-1-5zm11 3-3 6-2 1 1 3v2l-1 2 1 6 3-2-1-2 2-1 1-5zm-62 1-4 13 1 16v-2h1l-1 6 1 2-1 4q-1 9 2 13l3 2q2-10-3-13h2l1-8-1-9h2v-1l-1-1-1-13-1 4-2-1 2-6zm24 1-5 7 6 3 1-2 2-1 1-2zm-12 1-1 11h2l3-7zm61 4-2 2 2 11h2l-2-5 1-7zm-22 1-2 2 1 2-1 2 2 1-2 5 3 5 4-3q3-1 0-3l-1 2q1-10-4-13Zm-22 1-3 5 6 4 3-4v3h2v-2l-2-2-1-1zm-10 1v6l1 2 3-4zm28 0-5 4-1 2h2l2 3q4-2 3-8zm-30 1-3 4 1 3v2l-1-2q-1-3-3 0l1 6h3v3l3 1v-1l-1-5zm7 4-5 7 2 3 6 3 5-7-2-1-5 4 4-5-2-2-1-1zm16 1-2 1-3 4 1 3 7 3v2l3 1 1-3 2-1-2-3-2-2-2 4-2-2 3-2v-1zm21 5-4 3 1 6h2l1-3zm-28 2-6 7 5 3 2-4 4-2zm22 1-3 2-3 4 1 1 4-1 1-4zm-35 1 1 7 4-2zm49 1-2 2 1 8 1-5zm-30 1-4 6-3 1 3 1 3 4 4-5 3-2-2-2-1-1zm33 0-1 3-1 2 1 3-1 3 1 5-1 3 2 6q3-3 2-9l-2-1 2-5zm-56 1-1 4-1-1-2 1 1 3-1 2 1 2h4l1-4 3-1-1-1zm11 2-4 4 5 3 2-1zm18 3-2 4h-1l-3 4-3 2 1 4 4 1 1-2-2-4h2l1-2v4h2l3-8-1-2zm-23 2-2 3 1 6h3l3-5zm10 0-3 3 5 5h1l-1-6zm23 0-5 1v2l-1 3 1 6-1 5 2 4 3-2 1-8h1l-1 6h2l2-4v-8l-2 4-2-1-4 3 6-5v-1l-3-2 2-1v-1zm-27 5-5 7 5 3 2-1 3-5zm-12 2-2 12h2v-2l2-1 1-6zm50 0-2 4 1 4-1 6h2l1-2-1-5 1-6zm-32 4-5 6 5 3 2-7v3h2v-2zm-11 1-2 2 3 7 2-3 1-1zm-34 1 1 13h1zm31 2-4 6 4 4h1zm20 0-4 5h-1l-1 2h-1l-2 6-1-1-3 4 3 1q6-2 6-10l3 2 3-6 2 1v-1zm-31 1-3 6 6 7v-1l-1-3 2-3zm-10 2q-3 7 2 10l2-1v-3zm30 0-6 7 1 3 3 1 2-4q6-4 0-7Zm44 0-2 6h2l-4 9v2l-2 5h2l1-5 2-1-5 14 1 1 5-11 1-19zm-28 1-2 3-2 1-1 2h2v3h3l2-4-1-4zm22 3-3 8h2l2-7zm-29 3-2 3v2l-2-1-3 4 4 1 1-3 2 3 4-2-1-5zm13 0q-4 2-3 9l2-1 2 1 2-4v-2l1-2-2-1-2 7h-1l1-5zm-23 12-2 2 1 2 5 2 1-2zm26 0-3 1-2 3 1 2 3-2 2-3zm-49 9 2 8h1zm17 0-2 4 5 3h1l-1-4zm56 5-12 21 1 1 8-5 3-10zm-79 3q-1 10 6 15l2 1zm1 9v8l10 5h1zm56 0-9 6 1 1 9-6zm11 4-10 9 1 1 6-3 3-5z"/><path fill="#131312" stroke="#131312" d="m488.5 228 2.5.5-8 3 .5 1.5-2-1-37 13v-1l20-9zm31 19 20.5 3.5-2.5.5-18-3zm51 2 3.5 9.5-2-1-1.5-4.5-2 3-1.5-.5-1-2 1.5-3.5 1 2zm-162 3 1.5.5-6.5 4.5 1-2zm174 3 1.5.5 4 7-1.5.5zm-181 4-12 13zm240 7 11.5 18.5-2-1-2.5-4.5-.5 2.5 3 5-2-1zm-119 1 1.5.5-12.5 2.5-.5-1.5zm134 0q8.9 7.6 9.5 23.5l-1.5.5-.5-2.5-1-2 1-5zm-172 2h2l4.5.5-5.5 1.5h-2l-1.5-.5zm21 0 1 3 8.5.5-9.5.5-3.5.5.5-1.5-8.5-.5zm61 13 7.5 3.5-1.5.5zm-113 5-1 2-7 4 2-3zm129 2 10.5 6.5-1.5-.5zm-148 1 1.5.5-10.5 5.5-.5-2.5 1.5.5zm160 6 23.5 17.5 4 7-2-1-7.5-8.5zm-178 8 .5 1.5-18.5 19.5-.5-1.5 2-1 1.5-3.5 1.5-.5 6.5-8.5 1.5-.5.5-1.5zm11 7-9 10-2 1 2-3 1.5-.5 1.5-2.5zm154 0 6.5 5.5-1.5-.5zm-208 5-.5 1.5-4.5 11.5-.5-3.5v-2l.5-1.5 1.5-.5zm223 6 12.5 14.5h-1l-9.5-11.5-1.5-.5zm-201 5 .5 1.5-3.5 5.5-1.5.5-5.5 7.5 1.5-2.5zm-37 8 .5 2.5-1 2 .5 1.5-3 1 1.5-2.5zm23 13-.5 1.5-3.5 6.5.5-1.5zm139 4 24 6 2-1 6 2 2-4 1.5.5-3 4 15.5 6.5 1.5-2.5-5-1 2-1-3.5-.5-2.5-.5.5-1.5-1.5-.5 2.5-.5 13.5 7.5.5 2.5 1.5-.5-.5-1.5 15.5 11.5-1.5-.5-2-1-.5 1.5 7.5 3.5.5-2.5-10-9 2.5 1.5 14.5 12.5 1.5 2.5 4.5 2.5 3.5 4.5 5.5 4.5 7 13-2.5 1.5-.5-1.5 1-2-2-1-.5-1.5-2.5 1.5 1 3-7 4 3.5 5.5 11.5-4.5.5-1.5 1.5.5 1 3-1.5-.5q-6 6.5-18.5 6.5l21 6q-4.8 5.7-15.5 5.5l-6-1v1l18.5 8.5-1.5.5q-6.8-5.7-18-7l-1.5 3.5q8.6.9 13 6l-1.5.5-13-4-.5 1.5h2l-.5 2.5-1.5.5 5 3-4 6 1 2-7 8-.5 4.5-3.5-1.5-.5-2.5-3.5 2.5 3-4-4.5-2.5-3.5 2.5 1.5 2.5 1.5.5 2 5-1 2 .5 1.5-2-1-3 5-12 8 2-3 14.5-12.5-2.5-1.5-1.5.5 1-2-4.5-3.5-5.5 4.5 2.5 5.5 5-3-3.5 4.5-.5 1.5-9 5-2.5-1.5 2-1 .5 1.5 6.5-5.5-2.5-5.5-8.5 4.5 1 2-1.5.5-3-1-3.5 2.5-.5 1.5-4.5-.5 3-2-2.5-3.5-4.5 2.5 5 12-1.5.5-7-13-4 1-2-1-1 2-3-1-3 2-1.5-2.5 12-3-3-1 .5-1.5 7 1 1-2 6 1 2.5-1.5.5-1.5 1.5-.5-1-2 22-12 9.5-13.5 3.5-2.5 5-8-4.5-2.5.5 1.5q.9 7.9-4.5 9.5-24.6 27.9-72 33l-.5-1.5q17.1-1.4 29-8l-3-7 1.5-.5 3 7q21.4-6.1 33.5-21.5l-.5-2.5-7.5-2.5-.5-1.5-7 1 1-2 5.5-.5.5-7.5 3 10 5 2 3.5-1.5 3-6-4-7h2l-5.5-7.5-1.5.5-.5-2.5-6.5-4.5 1.5-.5 1.5.5-.5-1.5-2-1-4.5-1.5 1 2-3-2-1.5-2.5-2 1v-1l1.5-.5-4.5-2.5v2l-7.5-4.5 1.5-.5 2 1-1-2-10-4 1.5 2.5q6.6 6.9 8 19l-3 18v2q-3 14-12.5 21.5-8 8.5-23 10l-4-1-4 1-2-1h-2l-5 1-1-2-15-9-.5 1.5 2.5 3.5-12.5-11.5 1.5.5 1.5-.5q-10.1-9.4-9-30v-2q2.4-12.1 9-20l-1.5-.5-5 3v-2l-6.5 3.5-1.5 2.5-6.5 3.5-.5 1.5-2.5.5 1 2h-1l-.5-1.5-8 9-1.5.5-.5 3.5-1-3-6.5 9.5 1.5.5 13-8 5 3q4.3-2.2 3-10l2.5.5-4.5 10.5-8-2-12.5 8.5-1 8 5.5 10.5 28 13 17.5 5.5-.5 1.5-44-15v1l6 4q2-3 4 2l11 5h2l3.5 1.5v2l-.5 1.5-3-1-7 8 .5-1.5 3.5-5.5 3.5-2.5-22-10-3.5-4.5-6-1-2 1-3-1-3 1-13.5-1.5-2.5-3.5-4.5-2.5q.7-11.3 8.5-15.5h2l11.5-7.5-1-1 10-10 .5-1.5 6.5-5.5-.5-1.5-6.5-2.5 10-10-.5-1.5q3.2 4.3 11 4l3.5-2.5-5.5-5.5-1.5.5 1-2-1-2 1.5-.5 3 5 6 3 4.5-2.5-1-4 2.5 1.5 2 1 1.5-1.5-5-5-2-3 1.5-.5 4 6 2-1v2l7.5-1.5-3-4 4.5 3.5 4.5-1.5-4-11h1l3.5 7.5 1-2 2 3 5 1 5.5-2.5-1-5h1l1.5 5.5 1.5-.5-1-10h1l1.5 9.5 4 1 3-1 1.5-.5 1.5-4.5.5 2.5-1 2 1.5.5 4-14 .5 6.5-2 7 4.5 1.5 8-14 1.5.5-5 14 6.5.5q7.1-5.4 9.5-15.5l-10.5-2.5-1 2-1.5-.5-.5-2.5-14-2-4 3-3-1-4 1-2-1h-2l-8 3-2-1v2l-7 2-.5-1.5 1.5-2.5-19 6-18.5 14.5-2 3 1 2h-1l-.5-1.5-4.5 3.5-.5 1.5-1.5.5-8 9 1.5.5 3-2-1 2-5.5 4.5-.5 1.5-1.5.5-.5 1.5-10 9 3-5-5.5 4.5-.5 2.5-6.5 2.5.5 1.5h-2l-3 1v-1l3.5-2.5 4.5-6.5 11.5-9.5.5-3.5 2.5-.5q-2.8-1.7 1.5-3.5l1.5-.5.5-1.5 1.5-.5 7-10-1.5-.5-2 1 2-3 3.5-.5-1-2h1l.5 1.5 1-2 20.5-13.5.5-1.5h2q8.2-7.3 21-10l-1 2-5.5 2.5 2.5.5 16-4h2zm25.5 10v3h-1l-8 14h2l9-11q2-5 4-1h-1l-9 14 1 1 10-4 7-9 1 1-10 13 1 1 8-4 2-3 2-1 2-3 2-1v-1zm25 10-9 8-1 2h-1l-2 3h-1l-1 2h5l5-3 4-5 2-1 2-3zm6 4 10 10v-1zm-1 1-6 8-3 4 12-6 1 1-11 6 1 2 12-3v-1l2-1 1 1zm22 6 5 10 3 1v-1h1l-1 2 4 5v-1l3-1 1 3-1-1-3 1 7 8 3-6-2-2-1-1zm-10 5-12 6 2 2 11-2v-1l3-1zm7 4-1 2-14 7 4 1h2l13-3zm-95 1-3 1-1 2h-4l-5 7v2l-2 3-1 3 3 1 1 3-4 1 5 2 1 3-3 1h2v2l-8 3 1 1 7-3 2 1-7 3-2 3v1l3-1-1 2h2v-2l9-4-1-2 1-9 2-1v-3l2 1 4-1 5-6v-2l3-2 1-2 1 2h1l-1-5-1-1-1 2-1-1-6-2-12 6-1-1 5-3q2-5 4-2l4-2 2 1h2l2 1 2-1-4-1h-2zm-53 1-3 2-4 6 4 1h3l5-4-2-2-1-1zm74 2-2 3 2 1-4 2 4 1 1-3q3-2-1-4Zm81 5-10 5 1 1 6-1 4 1 2-1-2-4zm-68 2-6 5 1 1 6-5zm-2 6-3 2 3 8q1 11-5 16l-12 7q-10 0-14-5l-5-8-15 11 2 5h3l2-3 1 1-3 5h2l1-3 1 1-1 3h2v-2l3-2v-1l2-1-4 6 1 1 2-1 1-3 4-3-3 6h-1l-2 3 5 2v-2l-1-1-2 1 3-5 3-2-2 4 1 3-1 2q2 4 4 1l2 1 4-12 2 6 2 3 2-6v3l2 1-1 4q2 3 4-1l-1-4-2-1 1-5 5 9h1l-3-5 1-5 2 4v-1l5 4v2l-3-4-2 1 2 4-2 1 1 2 13-7 1 2 3-8 2 1 5-10v-2l-5 9-2 1 2-6-3-2-2 4-1-3 2-1v-2l5 1h2l1-2v-4l-1 2-7-1-1 2-1-1-3-2 4-2-6-3h5l-3-1 1-3-2-1 1-2-2-1 1-2-1-2zm68 0 1 3h6l-1-3-3 1zm-90 1-8 7 1 1 7-4zm102 4-3 1h-2l-9 2 14 4 3-1zm-67 9-1 3-1-1-3 1 7 1v-2zm64 3q1 5 11 6l7-1zm-179 7-3 4 8 12h2l-1-1-5-6 1-4 1 6h1l-1-11-1 3-1-2zm-8 3-8 7 1 3 2-1 17 6v-1l-1-1-4-4-1-1-3-7-2 1-3 2 4-3zm-7 11 1 3h6l-2-1h-2zm188 2-3 4 7 3 2-4h-1zm-4 6-2 1-4 6 4 1v-1h1l-1 3 3 1 1-2h-2l2-3 1 2 3-5zm-18 10-5 2-1 2 3 1 5-3zm-8 4-7 3 3 4 5-3-1-1v-1l2 1h1zm-11 5-3 2 3 5 3-2 1-2zM402.5 353l.5 1.5-1 2 3 4-3-2-1-4zm58 8-.5 1.5-.5 1.5-13 7-.5-2.5zm-80 1 1.5.5-8 17-1 5-3.5 11.5-.5-3.5q3.4-17.6 11.5-30.5Zm-50 4 .5 1.5-6.5 16.5-.5-1.5zm319 0 4 7 1-2 1.5 4.5-2.5.5zm-208 3 2.5.5-3.5 4.5-1.5.5-8.5 9.5-1.5-.5 4.5-5.5 1.5-.5 2.5-3.5 1.5-.5.5-2.5 1.5.5zm213 8 1.5.5 2 11h-1zm-331 8 .5 2.5-6.5 19.5-.5-2.5z"/><path fill="#131312" stroke="#131312" d="m432.5 387-1.5 2.5-9.5 10.5-1.5-.5zm-25 6-.5 1.5-.5 1.5-6 5zm274 5 .5 14.5h-1l-1-8zm-342 7 2.5 9.5-2 9 4 1-.5 6.5-1-5-3 1-.5-6.5 1-10zm-23 3 .5 3.5-2.5 9.5-.5-3.5zm90 0-8 9zm166 2 2.5 6.5h-1l-1-2-.5-2.5-2 3-8 1v-1l7.5-2.5.5-1.5zm3 10 7.5 2.5 1 4h-1l-3.5-5.5-3.5 1.5-.5 2.5zm-262 2 .5 7.5-1.5 7.5-.5-7.5zm111 0-.5 1.5-2.5 3.5-4 2 1-2zm-60 4 1.5.5-1 2 1 5-2 1 1-2-1-2v-2zm4 1 3.5 24.5h-1q-4.3-10.6-2.5-24.5Zm36 1 .5 1.5-2 1-3.5 5.5.5-1.5zm89 5-3.5 4.5-.5 2.5-2-1-4 3 2-3 1.5-.5.5-1.5zm-34 1 2.5.5-4 3 .5 2.5 1.5.5-.5 1.5q-1.8-2.8-3.5 1.5l.5 1.5 4.5 2.5 2.5 3.5 5.5 3.5 1 4h-1l-1.5-4.5-12-9h-4l-4.5 2.5-.5 1.5-1.5-.5 2.5-4.5 2 1 5.5-2.5zm75 2 4.5 3.5-.5 1.5-1.5-.5-.5 1.5-1.5.5 1 3h-1l-.5-1.5-1.5-.5-1-2 1.5-.5q1.8 2.7 3.5-1.5zm-40 1-1.5 2.5-2.5 4.5-.5-2.5 1.5-2.5zm-151 4-.5 1.5-1 4 1 3h-1l-2-4zm217 0 5.5 3.5-1 7 2 4-1.5.5-2.5-5.5 1-5zm95 0 .5 3.5-5 14 .5 1.5-1.5.5 1 4-3.5 8.5-.5-1.5 3-9-2-4 3-1zm-259 5 .5 1.5-2 7 3 7h-1l-.5-1.5-2.5-1.5-1-3zm246 14 .5 2.5-3 11 2-1 4.5-9.5.5 1.5-14.5 25.5-2.5 1.5-17.5 22.5-.5-1.5q13.6-12.4 23-29zm-173 9 10.5 3.5.5 1.5 2-1 .5 1.5-2.5.5-3-1-5.5 4.5-2.5 3.5-.5-1.5 4.5-6.5 1.5-.5-.5-1.5-2 1-1-2-2 1zm-89 5 12.5 20.5-3-2zm106 0 20.5 3.5-2 1 .5 2.5 2.5.5.5 1.5 2.5-.5-2-1 4-1-.5-1.5-3.5-.5 9.5-.5 8 1 3-1 4.5 2.5 2.5 3.5 1.5-.5 1 2v2l1 12-1.5.5q-.2-11.8-7-17l-4.5.5-.5 5.5-2-6-5.5 1.5-1.5 7.5-2-8-4-1-3 1-2.5.5-1.5 3.5-1-5-2-1-4 9-1.5-.5 2-6-1-4 7-1-1.5-1.5h-11l-4 8-.5-1.5 3-6-2.5-.5-5.5 4.5-2.5 7.5-.5-4.5zm28.5 5 1 2h13zm131.5-5 .5 3.5-3.5 4.5.5-1.5zm-329 2 3.5 7.5h-1zm61 3 6.5 13.5-2-1zm77 2 8.5 5.5-2.5.5zm114 4 1.5 2.5-24.5 14.5 1-2 9.5-5.5.5-1.5h2l8.5-4.5.5-1.5 1.5-.5zm100 1 1.5.5v2l-.5 2.5-3-1-2.5-1.5zm-39 9-.5 1.5-7.5 11.5.5-1.5zm-243 3 12 17 1.5.5 4.5 6.5 1.5.5 5 6-10-9-1.5-2.5-1.5-.5zm209 13-8 9-3 2 2-3zm20 3 .5 2.5-8.5 9.5-1.5.5-1.5 2.5-1.5-.5.5-1.5 3.5-2.5 6.5-7.5 1.5-.5zm-7 1 1.5.5-9.5 10.5-1.5-1.5zm65 1 .5 1.5-5.5 11.5-.5-1.5zm-296 7 1 3 1-2 .5 4.5h-1l-3-4zm202 1-2 3-5 3 2-3zm18 1 .5 1.5-10.5 6.5 3-4zm4 4 .5 1.5-6 4-1.5 3.5-16.5 11.5-.5 1.5-1.5-.5-1.5 2.5-9 6 1-4 8.5-4.5-1-2 2.5-1.5v2l1.5-.5 2.5-3.5 1.5-.5.5-1.5 1.5-.5.5-1.5 1.5-.5 2.5-3.5v2zm-187 3 1.5.5 1.5 2.5 17.5 13.5-1.5-.5q-12.5-6-19-16Zm19 7 1.5.5 4.5 5.5 3 1 1.5-.5-.5 2.5-9.5-6.5zm118 0 2.5.5-10.5 3.5v-1zm22 1-1 2-13 5v-1zm-137 9 9.5 5.5-1.5.5zm17 1 13.5 5.5-2.5.5-10-4zm54 5 15.5.5-15.5.5zm-39 1 27.5 6.5-3.5.5-19-4zm-75 14 6.5 4.5-1.5-.5zm173 196 2.5 6.5-1 4 1 9h-1l-1.5-11.5-2.5-.5zm-98 8 1.5.5-.5 17.5zm-7 22 .5 2.5-1 3-3 13 2 1-3 2-3.5 16.5-.5-4.5 4-15v-2zm-4 93 12.5 18.5-4-3z"/><path fill="#fafbfa" stroke="#fafbfa" d="M.5 0 1024 .5l-.5 1023.5L0 1023.5zM495 217q-1 3 6 1h2l26 4 22 8-26 2-2-1-3 1-17-1h-2l-3 1h-14l22-6v-2l-37 10-23 4-23 8v1l30-9 3 1q-37 13-65 34l-3 2 11-12 2-1v-1q7-10 21-13v-1l-9 3-2 1 7-6v-2l-23 19h2l2-1-8 9-23 21-1 2-5 4-3 2 6-12v-4l-11 22-3 2q-17 14-29 33l1 2 6-2v-1l-3-1 11-14 14-13h1l-3 4-31 84-7 35q-2 19 2 34l14 28 4 3q-14-16-18-42-1-24 3-42l19-57h1l-8 32 1 8-2 22 1 3-1 3v2l1 22 8 34 21 49q5 14 15 24h1l-20-39 1-2 17 30 4 3-4-7v-2l8 12-3-3-1 2-6-4 6 8h2l5 8 5 3v-4l16 11 2 3-13-8-1 2 21 11 7 8-39-21-3 1 2 3 20 16h1l-17-14 1-2q17 12 39 20l6 5v2l5 3 6 9 3-1-7-9-1-1-1-1-1-1-2-3 25 6 5 12 1 1-2-1-6 1q4 4 15 3l2 6 4 3-2-5 1-4 5 1q5 8 7 21l-5 15-3 2-2-1-2 6 1 9 2 2-22 8v1l17-5h1l-1 4 3 12v2l2 3-2 19-4 3-3-20-2 1 1 12v2l1 7-12 11 1 1 11-10 1 39v2l1 23v13l-2 2 1 3-2 35-2 7 1 2-1 4 2 32q5 6 6 17v2l2 7v1l-14-21-3-2 3 8 14 18 3 11v1l-8-6-1 2 7 4 3 4 7 18h1l-5-15 1-3 14 6v2l12 7h1l-8-6-3-4 5 1 1 3q2 3 9 1h2l9-2h2l12-4 1 1-6 8-13 9 1 1 12-7 8-11 12-9 1 1-6 18 2 3q5-9 6-23l14-9 7-8-17 11-3 2 2-15 5-8v-4l-2 3h-1l3-18q1-21-3-35v-25l-3-21 1-4q6 20 8 45l2 1-4-29-12-47-3-23v-2l-2-13 2-9 1 12h1l-1-18-1-3 1-13 2-4-1-2 1-7-3-7-1-3 5 2 1 2v34l4 20h1l-3-18 1-36 7 4v-1l-6-4-2-4v-2l3-21-1-1-4 26-6-3 3-4-2-11-1 2-3-3 2-1v-1l-1-1-1-1v-2l-2-6 3-24q2-4 9-2h2q6 1 7-4l1 4h2l1-3-1-2 1-6 2-1 1-3q24-8 43-21l4-3-11 12-6 5-1 2q-4 1 0 3l5-3 8-10 29-23 14-15h1l-16 33-1 8q-3 1 2 3l13-9 3-4-14 9-2 1 2-9 17-36 26-37q4-2 1-4l-19 26-2 1 21-47 11-31v-3l-14 36h-1l12-47h-2l3-45v-2l2-7 5 17h1l-7-24q2-19-1-31l-2 1 2 12v13q-26-56-56-107l-3 1 11 22v1l-20-24 3-1-6-4-25-30-3-5 25 14h1l-28-18-3 2 26 32v1l-15-8-40-16v-1l16 2 1-2-12-3-2 1-13-1-34-10zm-119 44-9 17 1 1 8-16zm278 2 10 21-1 7 3 1v-5l-1-7-10-16zm46 159-3 11h2l2-10zm5 10-3 9 1 4 2-8zm-381 11v12l11 46h1zm13 58-3 2 3 5 2-1zm3 11 1 9h1zm16 38-3 3 6 5 2-1zm207 202 2 11h1l-1-9zm4 11v6l-2 5 1 1 2-1 2 13v-1l1-3-1-2 1-9zm-105 33-9 40h2l4-18 3-1-2-2 3-18z"/><path fill="#fafbfa" stroke="#fafbfa" d="m556.5 231 25.5 10.5-10.5.5-30.5-8.5zm-72 2 4.5.5-21.5 4.5-17 6v-1q13.9-8.1 34-10Zm13 6q44.5-3.5 72.5 9.5l-2.5.5-1.5.5 1.5 7.5 1.5-.5 1.5-2.5 3 5 1.5-.5-3-9 1.5.5 8.5 3.5-.5 1.5-2.5-.5-.5-1.5-1.5.5 1.5 5.5 4-3 5 8 6 1v-1l-7.5-4.5-2-5 1.5.5 28 15 7.5 6.5-1 4 1.5.5 2-1 2 7 1.5-.5.5-2.5 3 1 5.5 3.5 4 6-2.5.5-3-1-.5 1.5q1.8 4.3 3.5 1.5 7-1.5 8.5 2.5l1 3-4.5.5-4 1-22-25-65-27h-2q-18.2-6.8-44-6l-4 2-13 1-39 12q-22.9 9.6-41 24l1.5-2.5 2.5-6.5 2 1 3.5-2.5-.5-2.5-6.5 2.5-3.5 8.5-1-2-3.5.5.5 4.5 3-1 .5 1.5-21 20-23 35-7 16q-7.5 20.5-9 47l1 2-1 18q.6 24.9 7 44l-2.5-1.5-4-1q-3 1.5 0 3l1.5.5-1.5 4.5-1.5-.5-5-17 3 2 .5 1.5 1.5-.5-1-2 2-8h-1l-.5 4.5-2.5-.5 1-5-2-3 4-8-1.5-.5-5 9-1.5-13.5 2.5-6.5 2.5 1.5-1 4 1.5.5 1.5-6.5-5-3q3.1-4.4 2-13-5.2-5.8-3-19l12.5-32.5 1.5-.5-1-5 2.5-9.5 5.5-2.5-1-3 1-3-2-1q7.1-15.9 18.5-27.5 2 4 4 0l3.5-1.5-3.5-.5-1.5.5 4.5-7.5 2.5-1.5 4.5-5.5 1 2 1.5-2.5-1-1 5.5-5.5 29-20 5 4 9-10 5 1 7.5-6.5.5-1.5zm3.5 1-1 2 12 2h4zm-110 55-2 2-2-1-2 4 4 1 3-5zm-16 16-4 9-2 1-2 9h2l6-15zm217.5-65 31 14 5.5 5.5 6 8-1.5-.5-40.5-23.5z"/><path fill="#fafbfa" stroke="#fafbfa" d="m508.5 247 5 1h2l10.5 1.5-9.5.5-7-1zm-72 10-2.5 3.5-2.5 3.5-3.5-1.5.5-1.5zm51 0 5.5.5-32.5 8.5v-1zm21 7 14.5 1.5-1.5 1.5q-13.3-.8-22 3l-3-1-5.5-.5 17-3zm-101 1-3 4-29.5 24.5-4.5 5.5 2.5-3.5 14.5-17.5zm126 2 35 9 26 13 7.5 7.5 6 8-1.5-.5-17-12-22-10-8-6-8-3-22.5-3.5.5-1.5 3 1z"/><path fill="#fafbfa" stroke="#fafbfa" d="m527.5 268-.5 1.5.5 1.5q19.5 2.5 34.5 9.5l-5 1q14.4 2.1 23.5 9.5h2q18.6 8.4 31.5 22.5l-1.5-.5-5-3 3 4 3.5 2.5 10 12 15 31 6 25-2 1-2-7 .5-1.5-2.5-1.5-7.5-17.5-1.5-.5-20.5-31.5-4.5-3.5 1-3-1.5-.5-1 2-10-9 13.5 14.5 18 25-1 2 4 2 2 5-4 3-3-7 1-2h-2l-2.5-7.5-1.5.5-1.5-2.5-.5 1.5 1 2h-1l-1.5-2.5-.5 2.5 4 13-7.5 10.5-1.5.5-5.5 9.5-3.5-2.5 3.5-4.5 2.5-.5 1-3-1-2h1l1.5 2.5.5-1.5-4.5-8.5-2.5-1.5-1.5-4.5-1.5-.5-12-15 1-2-1.5.5-1.5.5 7 10-2 4 2-1 1.5-2.5 5.5 8.5-5.5 8.5-7.5-4.5-.5-1.5-2 1-4.5-3.5 2.5-5.5 6.5 2.5-1 3 2-1 .5-1.5 1.5-.5-8-4 1-5h-1l-1.5 3.5-18.5-7.5-.5-2.5-3 1-19-3-23 4-24 7-2-1-1 2-7-2-1 2-7-1-1 2-3 1-1.5-2.5 9.5-2.5 1 2 1.5-.5-.5-1.5 7-2 1 2 3-2v2l1.5-.5.5-1.5 23-8 10.5-1.5-8.5-.5-48 12v-1l1.5-.5.5-1.5 4.5-1.5-2.5-.5-3.5 1.5-.5 1.5-25 13-2.5-1.5 15-9 1.5-2.5v2l3.5-1.5-4.5-1.5-17.5 9.5 1.5.5 1.5-.5-5.5 6.5-15 9 .5-1.5.5-1.5 1.5-.5.5-1.5 5.5-3.5-2.5-.5-21.5 16.5 1.5.5 12-9 .5 1.5-4.5 5.5-3 2h-2l-1.5.5-.5 1.5-1.5.5-.5 1.5-3.5 2.5-18.5 19.5-1.5.5.5 1.5 14-12 1 2 10.5-11.5q-2.8-1.7 1.5-3.5l-1 3 2.5.5-6.5 8.5-6.5 5.5-1.5 2.5-1-2-1.5.5-.5 1.5-2.5 1.5-5 7 1.5.5 1.5-.5-9.5 11.5-1.5-6.5 4-8-1.5-.5-1.5.5 1-7v-2l1-4-1-10q4.4-26.1 18-43l-3 2-2.5 4.5-1.5-.5-9 18v2l-4 21v12l-2 3 1 7-1 2 1 11-2 3 1.5-.5 1.5.5q-.8 13.8 3 23v2l1.5 8.5.5-7.5-3-20 1-2h-2q-1.5-9 4.5-10.5l3-2 .5 4.5-2 3 1 6-3 11 2-1 .5-1.5 1.5.5-1 2 1.5 6.5.5-11.5 11.5-11.5 2-1-.5 1.5-8 14 4-3 10.5-13.5 1.5-.5 2.5-3.5 10-8-4.5 5.5-1.5 2.5-1.5.5-1.5 2.5-3.5 1.5-4 8 3.5-2.5 1.5-.5.5-1.5 8.5-5.5-1-2 3-2 3.5-4.5 5.5-4.5.5-1.5 2 1 1-3 1.5.5 1 3-1.5-.5-2.5 1.5-.5 1.5-3.5.5 1 2-8 7-.5-1.5-.5 2.5-5.5 6.5-2.5 1.5-1.5 2.5-1.5.5-.5 1.5-1.5.5-7 12 3.5 5.5 3.5.5.5 2.5 26 1 4.5 3.5-7.5 1.5-11-1-2.5 1.5q9.6-.6 14 4l-4.5.5-10-2v1l6.5 1.5-6.5.5-6-2v1q16.4 6.6 27.5 18.5l10.5 11.5 1.5-.5-10-11 3.5-2.5 5 4 .5-1.5-2-1-1.5-2.5-1.5-.5 1.5-.5 7.5 5.5.5 2.5 2 1 3 1 8.5 4.5-1.5.5-6-3v1l5 3 41 12q10.4 3.1 25 2v-1q-28.2-.8-48.5-9.5l3.5-.5 26 3 2 2 1-2q11.5 1.5 18-2 1.8 3.8 3.5.5l.5-6.5 14-5-1 2-3.5 1.5.5 1.5-2-1-2 3-2-1-1 2-2.5 1.5 2.5.5 12-6q4 2.5-2 5l-10.5 5.5.5 1.5 15-7 23-16-4 5-19.5 14.5 2.5.5 17.5-11.5.5-1.5 13-10 1 1 7.5-6.5-21 20 1.5.5 19-15 .5 1.5-4 3-6.5 7.5-3.5 2.5 1.5 1.5 5-5 8-5-.5 1.5-7 10 2.5 1.5 5-6 13-9-.5 1.5-2.5 8.5-1.5.5-5 7 5-3-7.5 9.5-1.5.5-.5 1.5-1.5-.5.5-1.5-1.5.5-1 2 2 1-2.5 1.5-2.5.5-5.5 7.5-8 6-.5-1.5 6-10-2 1-8.5 13.5-7 4-1-2-3 4-4 2-1.5-.5-.5 1.5-9 3 .5-1.5-.5-1.5-4 5-8 2 .5-1.5 6-10-3 2-7.5 10.5-9 1-3 1-32-2v1l21.5 2.5.5 1.5 8-2 1 2 2-2 10-1 3-1 8-2 1 2 17-9 1 2 11-8-.5 1.5-6.5 11.5-8 3-3 1-13 3-1-2-2 3-8 1-1-2-2 3-11-1-16 1-5-2-2 1q-22.5-4.5-40-14v2l-14-6 1 2 15 6v-2l5.5 2.5-1.5.5-3-1v1l19 7 29 6 8-1 2 1 11-1 .5 1.5-1 2 2-1 1.5-2.5 8-2 .5 1.5-3.5 5.5-32 1-3-1h-2q-34.8-3.7-57-20l1 3-5-6-3 1-15.5-12.5-.5-1.5-4.5-3.5-9.5-19.5-1.5-.5-1.5-2.5-1.5 3.5q5.4 1.6 5.5 8.5l1.5-.5 7 16-5-4-3.5-8.5-.5 1.5 1 2-2-1q-25.5-28-34-73h1l6 23q8.5 19.5 21.5 34.5l1.5-.5q-11.8-11.2-16.5-29.5l-1.5.5q-8.8-16.2-11-39v-2q-1-18.5 3-32v-2q.6-16.4 7-27l19.5-32.5 1 2q9.1-17.9 24-30 19.6-16.9 45-28 18.8-8.2 47-7l39 10v-1L510 270.5l7.5-1.5 2 1 3-1 3 1zm-7.5 12-16 1h-2l-32 5-21 9-1 2q14-9 34-12l2 1 30-4 24 1 24 8 6 4h1q-18-14-49-15Zm-32 8q-26 1-42 12l1-3-6 4h2v1l-2-1-20 15-12 13 2-1 1 2 5-7 4-3v-1l2-1v-1l9-7 4-4 1 1q17-14 45-17 32-3 54 5h3l-20-5h-2l-9-2-2 1zm-9 5q-31 6-49 24l-1 2h-1q-15 13-24 32h-1l1-4v-4l-5 17 3-2v2l4 2 11-3 1-2-8 3q-6 1-7-2 8-21 22-34 20-21 52-29l7 2q-3 11-13 16h2l12-12 1-5zm120 10 1 4 6 3h1zm-74 1 2 1h2l5 1v-1zm54 1-1 5 17 12 1 3h2q10 7 14 20l2 1-1-3v-2l1 3 2 1-9-15h-1q-9-11-22-17zm-17 15 6 5h1zm-101 1-8 7 1 1 8-7zm-52 8-5 6 1 1 4-5zm2 1-7 11 1 2 6-11zm87 4-23 6v1l3-1 5 1-1-1h2l17-5zm-57 5-6 5-3 4 10-8zm158 0-5 7 1 1 4-6zm-157 9-4 2-2 3 7-4zm-13 1-9 6-1 2 11-7zm4 4-5 4 1 2h2v-3l2 1 2-3zm-14 9-2 1-3 4 6-4zm-23 4-4 7 1 1 3-6zm-14 5-5 12 1 3 4-12zm10 3-4 9 1 2 3-8zm10 1-3 2-6 7 10-8zm5 3-6 5-5 6 12-10zm-16 6-3 2-3 5 1 1 6-7zm-14 2-5 18 1 23 7 22h1l-8-36q0-14 4-23zm20 59-4 8q-1 9 5 12l6 4h2l-1-1-9-11 1-9zm6 10q-1 8 6 14l4 2h1q-8-6-11-16Zm-15 15 5 19 2 1v-8l-1 3-4-9 1-3h-1zm27 1 8 6h1zm-7 14 1 6 14 20-1 5h-1l-8-6 2 4 3 1 4 8h1l-1-2 1-2 30 20v-2l21 5 35-3h2l8-2v-1q-14 4-32 3h-2l-4 1h-2q-26 0-40-12-2-5-4-2l-12-8 3-8 4 3h1l-5-4 1-3v-2l-3 2zm46 0-1 2 1 1-2-1-2 1 12 9 7 3v-2l5 3h2l-9-6-3 1v-1l-2-2-3-1v-1l-4-5zm-50 4-1 4v2l-1 2 1 3v-2h2zm21 3 4 9 2-1 4 3zm30 3q16 17 46 25h2q-28-9-48-25Zm-44 5-1 3h-1l-1 2 3 2-1-2 2-4zm66 1 7 4 34 6h2l12 2h7q-4-4-12-2h-2l-23-3zm-39 4q15 17 47 20l3 1h10q-38-3-60-21Zm127 8-2 3-5 4 2 2 1-2 5-4zm13 0-9 13 1 1 8-12zm-140 4 1 2 15 7h1zm113 4-8 10 1 1 5-7 4-2zm8 1-8 11 1 1 7-10zm-59 3v1h12zm-44 1q9 6 26 8h4zm81 2-8 4v1l3-1-3 4 1 1 3-4 4-3zm-106 1 7 6h1z"/><path fill="#fafbfa" stroke="#fafbfa" d="m482.5 271 8.5.5q-45.8 12.7-75 42l-.5 1.5-11.5 10.5-.5 1.5-1.5.5-19.5 29.5-1-2q-10 20.5-15 46l-.5-5.5 1-3q1.6-17.4 8-30l20.5-32.5 1.5-.5 22.5-25.5 21.5-11.5-2.5-.5-7 3v-1l31-18zm-27 4 1.5.5-29.5 14.5-18 14 7-8zm153 3 11.5 8.5-3.5-2.5zm28 2 4.5 3.5.5 1.5 1.5.5.5 1.5 2.5 1.5 13 18-4-3zm-263 9-.5 1.5-23.5 36.5-.5-1.5q4-20.5 18.5-30.5l1.5-.5zm283 6 8.5 14.5-3-2z"/><path fill="#fafbfa" stroke="#fafbfa" d="m413.5 304 1.5.5-12 11-1.5 2.5-8.5 7.5.5 1.5 3.5-2.5-20.5 30.5-.5-2.5 12.5-21.5 2.5-1.5-1-2 12.5-15.5zm213 0 4.5 3.5 1 2zm-17 1 6.5 5.5-1.5.5zm32 0 3.5 1.5 1 5-2-1zm6 7 1.5.5.5 2.5 3.5 1.5-1 2 1.5 2.5 2.5.5-1 2 1 4h-1zm-292 9-.5 1.5-16.5 40.5-.5-2.5q5.2-23.3 17.5-39.5Zm287 2 5.5 10.5-3-2zm-18 1 4.5 6.5-2-1zm6 1 1.5.5 12 19-7-6zm30 5 .5 1.5-1 4 4.5 2.5 3-4q12.8 23.2 18.5 53.5l-4.5 1.5-14-44-.5 3.5 4 13h-1l-13-30zm-30 7 9 16 2.5.5q8.9 12.6 13 30v2l2 19v25l-2.5 12.5-.5-7.5 1-21-1-3v-8l-5-21-8-24zm-93 3q19 0 31.5 6.5l-1.5 3.5-2.5.5 2 1-.5 1.5-1.5.5 12 6-1.5.5-17.5-7.5 4-1-3-2 4-1-7.5-3.5 1 2 1.5.5-.5 2.5-15-4h-13l-8 2-2-1q-2 4-10 2l-.5-1.5 17-4-.5-1.5 5 1z"/><path fill="#fafbfa" stroke="#fafbfa" d="m637.5 343 8.5 7.5.5 2.5 1.5-.5-1 3 5 12h-1zm-66 4 8.5 4.5-2.5 5.5-8.5-5.5zm112 0q9.9 15.1 15.5 34.5l-2.5 21.5-3.5-20.5zm-154 1 1.5.5.5 1.5 1.5.5-.5 1.5-2-1-8 1-1-2 3-1 3 1zm4 0 12.5 2.5-4.5 1.5-6-1zm-17 2 2.5.5-.5 1.5-13 1v-1zm101 0 3.5 7.5-1.5.5zm-70 1 7.5 2.5-.5 1.5-8.5-2.5zm-68 1 1 2 5-2v1l-5 2-4-1-3 1v-1zm-130 1 .5 3.5-6.5 16.5-.5-2.5zm142 0 3.5.5-9.5 2.5v-1z"/><path fill="#fafbfa" stroke="#fafbfa" d="M527.5 353q11.5-1.5 17.5 2.5l-.5 1.5-17-3zm30 1 17.5 7.5-.5 1.5-17.5-7.5zm64 5 1.5.5 2 7-3 2zm-118 1 4 1 12-1 .5 3.5-3.5 12.5-.5-3.5 1-5h-1l-3.5 8.5-6.5-.5-2.5-10.5-1.5.5 1 9h-1l-2.5-8.5-.5 6.5 1 4-8.5 1.5-5-9-1 2-2.5-4.5zm96 0 1.5.5 2 3-1 2 3 1-5.5 11.5-7.5-6.5 1.5-2.5 7 4-2-3-3.5-1.5zm-152 1 .5 1.5-3 2-.5 1.5-3.5.5 1 1-4.5 4.5-6 3-.5-1.5 3.5-4.5zm75 0 7.5 3.5-5.5 11.5-4.5-.5 1-13zm108 1 4.5 8.5-.5 1.5 2.5 1.5 2 5-2 3 3-1 6 19 1 35-4.5 18.5-.5-5.5 1-20v-2l-3-19 1-3-2.5-4.5-.5 4.5 1 1-4 6-2 4 1.5.5 4-7q3.3 1.8 1.5 8.5h-2l1.5 3.5 1.5.5-1 2 1 10v2l-1 7h2l-1 12 2 1-3 5v8l-4 13-16.5 23.5-.5-1.5 10.5-20.5 1.5-.5.5-5.5 1 2 .5-3.5-.5-1.5 2.5-.5-1-4h2l-1-3 1-4h-1l-6.5 15.5-4.5 2.5.5 1.5 2.5-1.5-6.5 15.5-1-2-1 4-1.5.5-2 7 1 2-3 1-4.5 7.5-1-4-2 8-11 9-.5-1.5 19.5-31.5 1.5-.5 1.5-3.5 2.5-1.5 11-25-1.5-.5-6 7-4.5 2.5-6.5 8.5-4 3v-2l-2.5 1.5-.5 1.5-1.5-.5 8.5-11.5 6-5-.5 1.5-1 3 3-2 10-19-2 1-8.5 11.5-10 9 .5-1.5 14-22-2.5 1.5-2.5 1.5-.5 1.5-2.5-1.5-12.5 16.5-.5-3.5q6.5-4.5 8.5-13.5l3.5-.5-.5-1.5-1.5-.5 3.5-4.5 2.5.5-2 6 2-1 1.5-3.5 1.5-.5-1-3 4.5-2.5 4 3 .5-2.5-8-5-.5-1.5-2 1 1-2q10.1-.4 14.5-6.5l-14-3-1-2 2-1 1.5 2.5 4.5-1.5-2-3q2.5-6 5-2l1.5 2.5.5-1.5 1-3-.5-1.5-1.5.5 3-5-1.5-.5-3 4-2.5-5.5 4-2-1-3 7-6 .5 1.5 3.5-8.5-3.5 2.5-1.5.5-10.5 13.5-.5-1.5.5-1.5-2.5-1.5 4.5-7.5 1.5-.5 4.5-6.5 1.5.5 2-6-2.5 1.5-1.5-.5-1.5-3.5-.5 2.5 2 3-6.5 8.5-1-3-1 2-1.5.5.5 1.5 1.5.5-3.5 4.5-3.5-5.5 1.5-2.5 3.5-2.5.5-1.5 1 3 .5-2.5 4-8-4 2 1-2-2-1-1-9 4-3zm1.5 84-1 2 7 3-2 6 1 4 3-13v-2l-2 3zm-13.5-83 2.5 8.5-6.5 8.5-3.5-6.5zm-84 1 7.5 2.5-6.5 10.5-2 1-4.5-1.5zm18 1 7.5 2.5-.5 1.5zm-74 2 3.5.5 4 13-3.5.5-5.5-4.5 3 5-4.5 1.5-4.5-3.5 1 2-3-2 .5-2.5 2.5-1.5-1.5-.5-6 3-1.5-2.5zm66 0 2.5 1.5-8.5 10.5.5-1.5zm6 1 6.5 1.5 1 2-2.5.5-2-1 1 2 1.5.5q-4 6-12.5 7.5l1.5-2.5zm32 0 6.5 4.5-1.5.5-5.5-3.5zm85 1 3.5 14.5h-1zm-107 2 5.5 2.5-4.5 1.5-1-2 1.5-.5zm-134 2 .5 2.5-9.5 8.5 1.5-2.5 3.5-5.5z"/><path fill="#fafbfa" stroke="#fafbfa" d="m621.5 373 1.5 12.5-2.5 4.5q-1.7-2.8-3.5 1.5l-.5 2.5-6.5-5.5 4.5-5.5 1.5.5-1-2zm-186 1-2.5 3.5-2.5 3.5-1.5.5-.5 1.5-3.5 2.5-.5 1.5-1.5-.5 8.5-9.5zm6 0-7 8zm117 1 2.5 1.5-1.5 2.5-1.5.5-.5 1.5-2-1-1 2-1.5-.5zm52 1 2.5 5.5-4.5 5.5-3.5-2.5zm-150 1 1.5 2.5-6.5 4.5.5-1.5.5-2.5zm105 1 3.5 1.5-2 1-1.5 2.5-1.5-.5-1.5 2.5-5 1 6-7zm92 0 3.5 16.5h-1zm-191 1 5.5 6.5-1.5.5zm210 1 4.5 19.5-1.5 8.5-1.5-2.5zm-213 1 1.5.5 3 6-3.5 1.5-1.5-.5-.5 1.5-5.5-3.5.5-1.5zm110 0 1.5.5-.5 1.5-1.5.5 1 2-1.5.5-1.5-.5-.5 2.5-2.5-.5 3.5-4.5 1.5-.5zm-152 2 1.5.5-5.5 6.5-1.5.5-2.5 4.5-.5-1.5zm225 1q8.5 19.5 6.5 49.5-1.8 23.2-11.5 38.5l-.5-2.5 4-11 4-22v-2l-1-26v-2l-2-15v-2zm-195 1 1.5.5-1.5 2.5-1.5.5-.5 1.5-3 1zm3 3 2.5 1.5.5 1.5 1.5.5-.5 1.5-1.5-.5-.5-1.5-2.5 1.5-.5 1.5-4.5-1.5zm-33 2 1.5.5-4.5 6.5-4 3-.5-1.5 4.5-6.5zm264 0 1.5 15.5-1 3 1 2-3.5 8.5-1.5-18.5 4-1-2-8zm-29 1 1.5 9.5h-1zm-246 2-.5 3.5-7.5 8.5 2-1-.5 1.5-.5 1.5-4.5 3.5-6.5 8.5-.5-1.5 2-4 1.5-2.5 6.5-5.5-2.5-1.5-5 6-.5-1.5 5.5-6.5zm32 0 2.5.5-7.5 6.5 1.5-2.5.5-1.5 1.5-.5zm4 1 1.5 1.5-3.5 4.5 5-3 1 2-7 3-3.5-1.5zm46 2 1.5.5-2.5 3.5-1.5.5-1.5 3.5-1.5-.5zm8 1 7.5 3.5q1.3 8.3-3.5 10.5l-6 2h-2l-5.5-2.5-1-5 1.5-3.5z"/><path fill="#fafbfa" stroke="#fafbfa" d="m552.5 399 4 3 1-2 1 2-1.5.5 8 5 .5 1.5 4.5 3.5-8 3 .5 1.5 7-2 2 4 1.5-.5-1-2 1.5-.5 1.5 3.5-3 1 .5 1.5 2.5.5-.5 7.5-7-3-.5 1.5 9 3-.5 2.5-6.5 1.5.5 2.5 5-2 2.5 1.5-4 13 .5 1.5h-2l-1.5.5.5 1.5-2 1q-3.7-1.2-2.5-7.5l1-2-7.5-5.5-.5 1.5 5 4-1.5 4.5-5.5.5.5 1.5 5.5.5 1.5 3.5 1.5.5-13.5 7.5-2-5-1.5-.5-.5-2.5-1.5.5 3 8-32 9 11.5.5q40.7-6.8 63-32l-.5 1.5-10.5 13.5-19 10-7 6-3-1-2 3-9-1-5.5 2.5-1.5 2.5-6-2-6 2-14-2 .5 1.5 1 2-1.5.5-3.5-1.5 2-3q-32.5-1.5-52-16l1.5-.5q15 9.5 37 12h2l5-1 3 1 .5-1.5-9.5-.5-18.5-5.5-1.5-3.5-.5 1.5.5 1.5-17.5-7.5-1.5-3.5-1 3-4-7-.5 3.5.5 1.5-2.5-6.5 6.5-2.5 13.5 10.5 2.5 6.5.5-3.5-2.5-5.5-11.5-8.5.5-2.5 3.5-.5-.5-1.5-2.5-1.5 2.5-3.5 2.5-.5-.5-1.5-5.5 2.5-3.5 7.5-5 2-1-3-4 7-2.5-1.5-2-6 2-6-1-5 3-2 1.5 7.5.5-9.5 1.5-1.5 4-2 5 3q5.3-3.2 5.5-11.5l-2.5-.5-1.5 4.5 1 2q-3.2 6.8-6.5.5l-7 3-.5-2.5 6.5-8.5-.5 1.5-2 4 3-2 3.5-4.5 2.5-1.5-.5-1.5h2l16-9-.5 1.5-7 18-1 8q2.2 16.8 12.5 25.5 10.5 14.5 36 14h4q17.4-2.6 26.5-13.5l11-18v-2l2-20zm-196 1 .5 3.5-1.5 8.5-1.5-.5zm47 8 1.5.5-6 5zm5 0 1.5.5-18.5 24.5-.5-4.5 2-4-1-2h1l.5 1.5 2-3 2.5-1.5zm-70 1 1.5 8.5-2.5 4.5-.5-4.5 1-2v-2zm341 1q4.2 5.8 3 17l1-2 2.5 6.5h-2l-2 5h2l-3 5v2l-2 8 .5 1.5-2.5 1.5-1 4 1 2-2.5 8.5-1.5-7.5 5.5-32.5 1.5-.5-2-4 1-3-1-2zm-104 2 5.5 4.5 1 3-1.5.5zm40 1 2.5 1.5.5-1.5 3.5 5.5-4.5.5-3.5-4.5zm44 0 1.5 15.5-1 6 1 2-2 1-1.5 4.5-.5-6.5zm13 5 1.5.5-1 4 1 3-2.5 18.5-.5-6.5z"/><path fill="#fafbfa" stroke="#fafbfa" d="m578.5 421 3.5 2.5 3 14-1.5.5-5.5-3.5 1-4-2-8zm-110 4 1.5 9.5h-1zm117 2 2.5 4.5v2l-.5 3.5-1.5-2.5v-2zm84 3 .5 7.5-2 10 1 2-2.5 5.5-.5-3.5zm-340 2 7.5 44.5h-1l-6-26zm100 1 1.5 9.5-2-1-1-6zm99 1 2.5.5.5 1.5 2.5 1.5 1 3-1.5-.5-7-1 .5 1.5 1 2-2.5.5-1.5-.5.5-1.5-2 1-.5-1.5 2-1 .5-1.5 1.5-.5.5-1.5 1.5-.5zm14 0 1.5.5-1.5 7.5-1.5-.5-.5-1.5-1.5-.5.5-1.5 2.5-.5-1-2zm-45 1 1.5.5.5 2.5 2.5.5-4.5 5.5-.5-2.5.5-1.5-3.5 1.5-1.5 2.5-.5-1.5zm-74 3 1.5.5 6.5 10.5 1.5.5-3.5.5-3.5-1.5-.5-2.5-1.5.5-.5 1.5-6.5-3.5 4.5-5.5zm155 1 6.5 2.5-8.5 7.5-.5-1.5zm81 1 1.5.5-3 13v2l-7 19 1 2h-1l-.5-1.5-1.5.5 2.5-7.5 1.5-.5-.5-1.5-1.5.5 4.5-15.5 1.5-.5zm-121 1 2.5 5.5-4 2-1.5 2.5-4 2-1.5-3.5 3-1 .5-3.5 1.5.5 1.5 2.5.5-2.5-1-2zm145 4 .5 4.5-1.5 8.5-1.5-.5v-2l1-3-1-2 2-4zm-317 9q12.5 43.5 40.5 71.5l-2.5-1.5-1.5-.5-27-37q-7.8-14.4-9.5-32.5Zm232 2 .5 1.5-2 1q2.8 1.7-1.5 3.5l-1.5-.5 1.5-3.5z"/><path fill="#fafbfa" stroke="#fafbfa" d="m668.5 456 .5 7.5-4.5 11.5-1-2-.5 2.5 1 3-13 29-25.5 31.5-2.5 1.5-11.5 13.5-33 19 1-2 15.5-9.5-1.5-.5q-17.6 13.9-45 18v-1q20-5 35.5-14.5l-1.5-.5-38.5 15.5-.5 1.5-10 3-26 2-18.5-3.5 3.5-.5q10.4 3.1 25 2l7.5-2.5-20-1q36.5 0 62.5-10.5 40.9-17.1 67.5-48.5l1.5-2.5 1 1 6.5-6.5 19-36h-1q-9.1 23.4-24.5 40.5l1.5-2.5 25.5-49.5.5 1.5-.5 1.5 1.5-.5zm-310 3 1.5.5 9 31h-1l-10-28zm75 2 9 2v-2h4l10.5 5.5-.5 1.5-13-5v1l9.5 4.5-.5 2.5z"/><path fill="#fafbfa" stroke="#fafbfa" d="m648.5 463 .5 1.5-10 22 1 2-6.5 10.5.5-1.5 4-8-2 1-5.5 8.5.5-1.5zm-210 4 4.5 1.5.5 1.5 2 1h2l2.5 1.5-1.5 2.5zm-12 1 9.5 4.5.5 1.5 6 3v-2l3.5 2.5-2.5 4.5-1.5-.5.5-1.5-6.5-4.5-.5-1.5q-7.5-1-9-6Zm158 0-.5 1.5.5 1.5 1.5-.5.5-1.5.5 1.5-6.5 4.5-1.5-2.5 2-1 .5 1.5 2.5-1.5-2-1zm24 1-.5 1.5-4.5 7.5-.5-2.5zm-143 2 .5 1.5-.5 1.5 4.5 2.5-2.5 4.5-7.5-4.5 2.5-3.5 2.5-.5zm205 0 .5 3.5-2.5 11.5-3.5 1.5 1 10-2 1-.5 2.5-1-2-1.5.5-.5 4.5-2 1-.5-2.5zm-47 1 .5 1.5-7.5 13.5-.5-1.5 1.5-4.5 1.5.5-1-3zm-34 1 .5 1.5-5.5 5.5-1.5-1.5z"/><path fill="#fafbfa" stroke="#fafbfa" d="m451.5 474 1.5.5 1.5 2.5 2.5.5.5 2.5 3-2 1 3 1.5-.5-.5-1.5 1 3 2-1v2l5 2h2l6.5 3.5-1 2 1.5.5 1-3 15.5 5.5-4 1 4.5.5 9-2v1l-2.5.5 5.5.5 3-1 1 2 3-1 1.5 2.5-8.5.5-13-2-2 1q-26.9-5.1-43.5-20.5zm124 0 2.5 1.5-1.5 2.5-3.5.5 2 1-12.5 4.5-.5-1.5 9-3-1-2zm-98 1 6.5 1.5-4.5 2.5-4.5-2.5zm84 0 2.5.5-3 1 4 1-3.5 1.5-1.5-2.5zm-206 2 1.5.5 1 5q-2.5 6-5 2l-1-2zm294 0 .5 2.5-4 7v2q-11.1 21.9-26.5 39.5L606 539.5l-.5 1.5-20 13v-1l29.5-24.5.5-1.5 1.5-.5.5-1.5 1.5-.5.5-1.5 1.5-.5 27-43-.5-1.5 1.5.5z"/><path fill="#fafbfa" stroke="#fafbfa" d="m473.5 478 7.5 3.5-2.5 3.5-7.5-3.5zm19 0 6.5 1.5-3 1-.5 1.5-4.5-.5zm63 0 2.5.5 1 2-1.5-.5-1.5.5-.5 2.5-1.5-3.5zm120 1 1.5.5-3.5 9.5-.5-3.5v-2zm-126 3 2.5.5-1.5 2.5-11 4-.5-2.5zm-60 1 7.5 1.5-1.5 5.5-7.5-2.5zm11 0 3.5 1.5-1 3q1.5 3 3 0l1.5-3.5 6 1 1.5-.5 2 9-1.5.5-17.5-3.5zm183 0 .5 1.5-8.5 18.5-.5-1.5zm-163 1 4.5.5 1.5 5.5 8-2q3 1.5 0 3l-15 3-.5-5.5 1-2zm47 0-1 2-8 4-1-2zm-209 1 7.5 14.5q-1.5 3-3 0l-.5-5.5-1.5.5-1.5-3.5-1.5.5-.5 1.5-1.5-2.5zm-16 2q7.8 22.2 20.5 39.5l-2-1-16-28zm326 3 1 4 1-2 1.5.5-2.5 5.5-1-4-1 2-.5-3.5zm-133 3 1.5.5-.5 3.5-3 1-3.5.5.5-1.5-12 1 1-2q10.4.9 16-3Zm93 3-1.5 2.5q-11 19-27.5 32.5l-5 4 10.5-11.5.5-1.5 1.5-.5zm52 3-.5 1.5-14 33-13.5 13.5-13 11 2.5-3.5 7.5-9.5 4.5-3.5zm-314 2 2.5 5.5v2l1 10h-1q-4.9-6.1-2.5-17.5Zm239 3-1.5 2.5-14.5 24.5-9 5 .5-1.5-.5-1.5-6 7-5 2-.5-1.5 9.5-13.5 9-6-1.5 2.5.5 1.5 7-9-.5 1.5-1 4h1q2.8-12.2 12.5-17.5Z"/><path fill="#fafbfa" stroke="#fafbfa" d="m629.5 504 .5 1.5Q618.5 525 601.5 539l-25 20-18 7 1-2q29-17 53.5-38.5l-.5-1.5-5 4 2-3 1.5-.5 6.5-7.5-2.5 3.5.5 1.5zm-243 3 16 20 1.5.5 11 12-6.5-5.5-6.5-5.5zm268 2 2.5.5-1.5 5.5-4.5-1.5zm-282 4 2.5 1.5 3 7-2.5.5-2.5-1.5 1-5h-2zm278 2 3.5 2.5-3.5 4.5-3 1 .5-1.5-1-2zm-269 8 6.5 10.5-1.5.5-2-6-1.5.5 1 4-3-2 1-6zm263 0 .5 1.5-13.5 15.5-4 2 2.5-3.5 3.5-4.5 1.5-.5.5-1.5 1.5-.5zm-49 6 1.5.5-5 4-.5 1.5-.5-1.5zm-177 1 1 3h3l25 17 32 11 13.5 2.5-4.5.5q-47.3-3.7-70.5-31.5zm-29 3 3.5 2.5.5 1.5 10.5 9.5-1.5-.5-12.5-9.5zm198 1 1.5.5-6.5 8.5-8 5 .5-1.5-.5-1.5-4 5-7 3 .5-1.5-.5-1.5-3 4q-9.6 5.4-24 6l.5-1.5 3.5-5.5 11-2 3-1 10-4 1 2 2-3z"/><path fill="#fafbfa" stroke="#fafbfa" d="M419.5 538q20.3 18.2 50 27l11 2h42q24.9-1.6 43-10v1l-11 9-10 3q-22.7 3.8-51 2l-6-2-3 1q-38.2-8.8-63.5-30.5l-.5-1.5zm242 2 1.5.5-18.5 19.5-15 12-.5-1.5 29-26 1.5-2.5 1.5-.5zm-271 2 4.5 3.5-.5 3.5zm7 5 7.5 4.5-2 1-.5 1.5-2-3-2 1zm-16 2 12.5 13.5-11-10zm25 3 5.5 3.5-1 3h1l.5-1.5 1.5.5-1.5 3.5-7.5-5.5zm201 5 .5 1.5-6.5 4.5 2-3zm-191 1 9.5 6.5-3.5 1.5-2-3-3 1-2.5-3.5zm193 4 .5 3.5-4.5 3.5 2.5-3.5zm20 1 1.5.5-7.5 5.5 1-2zm-27 1 1.5.5-2 1 1 4-3 2 .5-1.5 1.5-.5-.5-1.5-1.5.5zm-175 1 13.5 7.5-.5 4.5-1.5-.5-.5-1.5-7.5-4.5-1.5-2.5-1.5-.5zm12 0 9.5 4.5-1.5.5zm-25 3 9.5 5.5-1.5-.5zm8 0 10.5 8.5-1.5.5-6.5-3.5zm168 1 .5 2.5-2 3-.5 2.5-6 3-.5-1.5 5-2zm34 1 1.5.5-16.5 12.5-35 15 1-2zm-163 2 16.5 5.5-2.5.5-13-4zm-53 2 20.5 11.5-1.5.5q-13.1-3.7-19-12Zm38 0 7.5 3.5-3.5 1.5-4.5-3.5zm10 4 29 9q13.4 3.1 31 2l39-7-3 4-18 4-5-1-10 2-2-1-6 2-21-3h-2l-8-3-1 2-3.5-1.5-.5-1.5-2 3-4.5-2.5-.5-1.5-2.5 1.5-1.5-2.5h-3zm115 0 2.5 1.5-1.5 3.5-4 2-.5-1.5 5-4z"/><path fill="#fafbfa" stroke="#fafbfa" d="m417.5 583 22.5 11.5-2.5.5q-14.6-2.4-20-12Zm148 0 1.5.5-6.5 4.5 2-3zm-7 2 .5 1.5-6.5 4.5.5-1.5.5-1.5 2.5-.5-.5-1.5zm-128 1 22 8 3.5 3.5-.5 1.5-21-9zm121 2-3 4q-16.1 5.4-39 4l-2-1-8 1-2.5-3.5 7.5-.5 4 2 2-1 8 1 13-4 7 2zm-67 2 8 1 3.5 3.5-1.5.5-9-3zm30 19h2l7.5.5-2.5 3.5-13 1-1-2-4 2 1-2 3-2 1 2zm29 15 .5 3.5-2.5 10.5-.5-4.5zm-34 6 4.5.5 2 10-1.5 5.5-1.5.5 1.5 2.5 1.5.5.5 1.5 4.5.5-.5 1.5-19 1-.5-2.5 1.5-3.5 3.5-.5 1-3-1.5-2.5-1.5-.5 1.5-9.5zm-8 30 19.5.5 1 2q-7.5 3.5-19.5 2.5zm-23 55 .5 10.5-6.5 61.5-1.5-.5 1-31v-2l4-24v-12zm-4 3 .5 3.5-1 2v2l-2 14v2l-.5 7.5-1.5-12.5v-15l2.5-2.5zm30 10 .5 4.5v2l-.5 1.5-2.5-4.5zm-4 6 3.5 4.5-5 4z"/><path fill="#fafbfa" stroke="#fafbfa" d="m504.5 741 .5 9.5q-3 6.5-6 1-1.2-9.2 5.5-10.5Zm13 1 1.5.5 1 6q-1.5 3-3 0l-2-4zm21 4q3.4 3.6 2.5 11.5l1 3-1.5 7.5zm-26 1 .5 8.5-2.5 3.5-1.5-3.5 1-3v-2zm-27 4 .5 5.5-2.5 4.5-.5-4.5zm21 2 1.5 4.5-.5 2.5-2.5-1.5-1-3zm-5 5 2.5 1.5 2 5-7 6q-2.5-10 2.5-12.5Zm17 1 1.5.5 1 3-1 2 1 9-1.5.5-4.5-8.5zm5 1 1.5.5-1 2 1 7-1.5.5zm-17 6 1.5.5-1 3-.5 9.5-5.5-6.5zm3 0q6.2 2.7 3.5 14.5l-1.5 2.5-2.5-1.5 2-8-2-6zm-17 2 1.5 5.5-1 3v2l-.5 1.5zm7 7 7.5 7.5v5l-2.5 3.5-6.5-5.5q-2.2-8.2 1.5-10.5Zm55 0 3.5 14.5-1.5.5zm-35 2 1.5.5 1 10-3.5 4.5q-4.8-2.2-3.5-10.5zm9 8 .5 2.5.5 2.5 1-2 .5 1.5-1.5 2.5z"/><path fill="#fafbfa" stroke="#fafbfa" d="M511.5 786q3.2 3.3 1.5 11.5l-1.5.5q-4.2-1.7-2.5-9.5zm-23 2 1.5 2.5-1 3-.5 14.5-1.5-.5-1-13zm4 5q3.8 1.3 2.5 7.5l-2.5 3.5zm11 1 3.5 2.5-.5 7.5-6.5-6.5zm16 0 2.5 3.5-3.5 6.5-2.5-1.5-1-3zm-21 6 6.5 4.5v3l-6.5 6.5-.5-1.5 1-5zm-3 3 .5 1.5-1.5 9.5q-3.5-1-2.5-6.5zm23 4q3.8 1.3 2.5 7.5l-1.5 1.5-4.5-4.5zm-13 2 .5 8.5-3.5 4.5-3.5-5.5 4.5-5.5 1.5-.5zm-27 3 .5 5.5-1.5 4.5-.5-3.5zm34 1 .5 8.5-3.5 5.5q-8.2-3.7-1.5-7.5zm-20 1 2.5 4.5-2.5 3.5-1.5-.5 1-3zm-6 6 2.5 5.5-2.5 4.5zm33 1 1.5.5q1.2 8.7-3.5 11.5l-2.5-.5q-1.4-9.4 4.5-11.5Zm22 2 .5 9.5h-1l-1-7zm-39 2 3.5 2.5q1 5.5-2.5 6.5l-3.5-5.5zm-10 1q5.7 2.3 2.5 4.5l-1.5 3.5-1.5-.5zm17 5 3.5 2.5-1.5 5.5-3.5-1.5-1-3zm23 4 1.5 4.5-2.5 6.5-.5-1.5v-2l1-2-1-2zm-46 2 1.5 2.5-2 1 1 2-1.5 3.5-.5-5.5zm18 0 3.5 4.5-3 2-1.5 3.5-3.5-2.5zm14 2 2.5 1.5-1.5 5.5-3.5-1.5zm6 5 2.5 1.5-1 3-.5 2.5-1.5-.5-1-3zm-13 2 2.5.5q1 6.5-2.5 8.5l-1.5-.5-2-4z"/><path fill="#fafbfa" stroke="#fafbfa" d="M519.5 849q3.5 1 2.5 6.5l-4.5 4.5-1.5-1.5q-1.5-8 3.5-9.5Zm6 6 1.5 5.5-2.5 4.5-1.5-.5q-1.8-7.7 2.5-9.5Zm-23 2 3.5 2.5-3.5 6.5-1.5-7.5zm30 1 2.5 4.5-5 4q-1.5-7 2.5-8.5Zm-45 1 2.5.5 1 8-3.5 4.5q-3.2-1.7-1.5-8.5l2-1 1-2zm-9 4q3.4 2.6 2.5 9.5l-.5 1.5 1.5.5-1.5.5q-4.5-3.3-2-12Zm29 0 4.5 2.5-2.5 3.5-1-2-2 4-2.5-3.5 1.5-2.5 1.5-.5zm-12 2 2.5.5 1 4-2.5 3.5zm18 4 1.5.5v2l-1.5 4.5-3.5-2.5zm19 2 1.5.5-2.5 5.5-1.5-.5 2-1-2-1zm-33 2 1.5 7.5-1.5.5-2.5-3.5zm19 0 2.5.5-2.5 6.5-2.5-1.5zm-30 1 2.5 1.5 1 4-2.5 3.5-1-3-1.5-.5 2-1zm-10 2 3.5 7.5-1.5.5zm30 0 2.5 1.5-1.5 2.5-1-2-1 2-1.5-.5 2 4-1.5 2.5-1.5-.5-1-2 1-3 1.5-2.5 1.5-.5zm10 6 3.5 4.5-2.5 3.5-3.5-1.5q-1-5.5 2.5-6.5Zm34 0 .5 5.5-4 3 1.5-2.5 1.5-.5-.5-1.5-1.5.5zm8 1 .5 9.5-4.5 13.5.5-1.5zm-3 27-.5 1.5-1 11-2.5 2.5-6 4-.5-1.5zm-78 4 5.5 9.5h-1l-5-7zm1 8 8 9 1.5.5-1.5.5-7.5-3.5zm65 3 .5 1.5-3.5 4.5-3 1z"/><path fill="#82817f" stroke="#82817f" d="m494.5 217 20.5 1.5-.5 1.5-12-2h-2q-7 1.5-6-1Zm34 4 5 2 1.5-.5-.5 1.5-4-2zm9 2 5.5 1.5-3.5 1.5v-2l-3 1zm-33 1 1.5.5-.5 1.5-6 1h-4l-1.5-.5 6.5-1.5h2zm52 5 11.5.5-11.5.5zm-54 2 16.5.5-16.5.5zm60 0 8.5.5-7.5 2.5v-2l-2 1zm38 0 6.5 4.5-3.5-.5zm17 2 2 3 2.5.5.5 1.5q2-3 4 2l6.5 4.5-2.5-1.5-9.5-5.5-.5-1.5-2.5-.5-.5-1.5-1.5.5zm-155 1 4.5.5-4 2 2 1-1.5.5-3-1h-2l-1.5.5 1.5 2.5-2-1v2l-1-3-12 3-1.5-.5-.5 1.5-24 8-1.5-.5-.5 1.5-5 2-2-1-2 4-2-1-2 4-2.5 1.5.5 1.5-2.5.5 1 1-9 9-1.5 5.5v-2l-2 1-1-1-10.5 10.5v2l-1.5 2.5.5-1.5 1-2-1-1 14.5-14.5 3.5-2.5-1-1 5.5-6.5-6 4 3-4 22-18-.5 1.5-3 4q2.2 3.7 4.5-1.5z"/><path fill="#82817f" stroke="#82817f" d="m426.5 235 .5 1.5-9 7-.5 1.5-.5-1.5zm180 3 7.5 5.5-4.5-1.5zm-106 2 15.5 3.5-4.5.5-11.5-2.5zm-24 1 7.5 1.5-1.5.5-5-1-4 1v-1zm-31 2 2.5 1.5-10.5 4.5-1-2 2 1v-2l2 1v-2l2 1v-2l3 1zm166 1 6.5 4.5-3.5-.5zm-106 2 3.5 2.5-4.5.5h-2l-1.5-.5zm65 2 1.5.5-.5 1.5-2.5.5-.5 1.5-1-2-1 3-.5-3.5 1.5-.5zm-122 3q3.6 2.5 0 5v-2l-6 2v-1l3.5-1.5-.5-1.5 3 1zm100 1 2 1h2l6.5 1.5-3.5 1.5-4-3-2 1zm-168 1 .5 1.5-6.5 10.5-1.5-.5zm198 0 1 2 2.5-.5.5-1.5 1 2-1.5.5-1.5 2.5-1.5-.5 2-1-3-2zm39 2 2.5 1.5.5 1.5 2-3 4 5-3.5-2.5-.5 2.5-1-2h-2l-1.5-.5-.5-1.5-1.5.5zm-180 1 1 2 1.5-.5-6 3 1.5-3.5 1.5.5zm71 2 8 1 1.5-.5-.5 1.5-9-1zm143 2 2 3 1.5.5.5 2.5 3.5 2.5-2 1-.5-2.5-2.5-1.5zm-215 1-3 4h-2l-1.5-.5 3.5-2.5zm192 0 7.5 4.5-1.5.5-5.5-2.5zm-217 1-5 6-1-2 2.5-.5.5-1.5zm81 2 10 1h2l3-1 .5 1.5-17 3 6 1-3 2 4.5 1.5h2l2-1 3 1 12-1 6.5 2.5.5 1.5 2-1 1 2 2-1 3 1 2.5.5-3.5 1.5-3-1q-10.5-5-26-5l-17 3-2-1v2l-5 1-2.5-1.5 2.5-.5 2 1v-2l4-1 2 1v-2l4.5-1.5-2-1 2-1-4.5-.5-3 1-1.5.5-.5 1.5-15 3-.5-1.5 10-4 1.5-2.5 4-1 3 1 4.5-.5-2-1 2.5-.5z"/><path fill="#82817f" stroke="#82817f" d="m523.5 265 3.5.5.5 1.5 3-1 2.5 1.5-.5 1.5-3-1-1 3-1.5-.5-.5-1.5-3 1-2-2-9.5-.5 9.5-.5zm-136 2 1.5.5-6 5 .5-1.5 2.5-1.5zm60 0 1.5.5-11 6-.5 1.5-6 3 2-3zm177 0 7.5 9.5-.5 1.5-4-5-1.5-.5-.5-1.5-2.5-.5-1-2 2 1 .5 1.5q3.2-2 0-4Zm-255 4 .5 2.5-2.5 5.5-.5-1.5zm204 0 7.5 3.5-2.5.5zm60 0 2.5.5-1.5 2.5 2 1 2.5.5-2.5.5-3.5-2.5zm-218 1 1.5 3.5-3.5 1.5-1.5-.5-3.5 7.5-1.5.5 2 1-6 5 4-5-2.5-.5-1.5.5 2.5-4.5 1.5.5.5 1.5 1.5-.5 1-3 2-4 .5-2.5zm126 0q11.6-.1 18.5 4.5l.5 1.5q2-3 4 2l2.5 1.5-.5 2.5-1.5-.5-.5-1.5-2 1-5.5-1.5 5-1-7-3-.5-2.5-1 3-3.5-1.5.5-1.5-3 1-3.5-1.5-.5-1.5-3 1zm49 0 8.5 5.5-1.5-.5zm56 4 2.5.5-1 2 2.5 3.5 1.5-.5-3 2-2.5-6.5-1.5.5zm-199 2q3 1.5 0 3l-1.5.5 2.5 1.5 1.5-.5-15.5 10.5 1-3-4.5 2.5 4.5 1.5 5-2v2l2-1 1.5.5 2.5-3.5v3l-1.5-.5-1.5 2.5-1.5-.5-1.5 2.5-3 2-1.5-.5-1.5 2.5-2.5.5-1.5 2.5-6 5-2.5.5-16.5 19.5-1.5.5-.5 2.5-1.5.5-.5 2.5-1.5-.5 1 2-2 4 3-2q7-13.5 18.5-22.5l-.5 1.5 1 2-1.5-.5-2.5 1.5v2q-9.5 10.5-14.5 25.5l-.5-2.5 5-11-3 2-2.5 4.5-1.5.5-1 3-9 16-6.5 22.5-.5-3.5 2-3-1-4 3-8 1-3 9-21-2 1-12.5 21.5-2-1-1.5.5 6.5-15.5.5 1.5-2 4 2-1 16.5-24.5 1.5-.5 10.5-11.5 2.5-.5-.5-1.5q1.8 2.8 3.5-1.5l5.5-6.5 1.5.5 3.5-4.5 9.5-6.5-2.5-.5-11 6-1.5-.5-1.5 2.5-19.5 17.5-7.5 10.5-1.5-.5 1-2q-2-3.2-4 0l8.5-9.5 1.5-.5-.5-1.5 1.5.5 9-10-1.5-.5-2.5 1.5 1.5-2.5-3.5 2.5q3.3 2.2-2.5 4.5v-2l-1.5-.5 13-12-5 5 1.5 1.5 1.5-.5.5-2.5v2l2.5-1.5.5-2.5 10.5-8.5.5-2.5 2-1v2l4-2 1 2 2.5-1.5.5-2.5 2-1v2l2-1 1.5.5.5-1.5 2.5-.5-.5-1.5-4 2v-3l2 1v-2l2 1v-2l2 1zM417 304l-5 4-1 2h-1l-7 9 14-13zm216.5-26 2.5 1.5 1.5 2.5 2.5.5-.5 2.5zm-248 1-6 7zm-19 1-.5 1.5-2 3 1 2h-1l-1-2zm276 0 5 6zm-179 1v3l-3 1-1-2 2 1v-2zm40 0 8 1 3-1v1l-11 1zm26 0q26.8 2.2 42.5 15.5l-1.5-.5-19-9-20-4zm-156 1 .5 1.5-3 4h2l-5.5 4.5v-1l1.5-.5v-2zm119 0 7.5.5-.5 1.5-16 2-2-1-8 2 1-2 2 1 2-2 10-1h2zm79 1 4.5 2.5.5 2.5 1.5.5-2.5.5-7.5-4.5zm55 0 3 2 1-2 1 2-2 1-2.5-1.5-.5 2.5-1.5-.5zm26 0v2l1.5.5-4.5 3.5q-2.1-3 3-6Zm-50 2 6.5 5.5 3 5h-1l-.5-1.5-1.5-.5-.5-1.5-2.5-1.5-.5-2.5zm-220 1-4.5 5.5-.5 2.5-3-1-1.5.5q4.7 0 9.5-7.5Z"/><path fill="#82817f" stroke="#82817f" d="m466.5 287 1.5.5-.5 1.5-6 2-1.5-.5-.5 1.5-13.5 6.5 1.5.5q9.8-7.2 25-9h2q12.9-3.1 30-2h2l10 2h2q15 .5 24.5 6.5l-1.5.5q-23.5-10-60-7-28.8 3.2-46 18l-5.5 1.5-5.5 6.5-2.5-.5q3-6 6-4l3.5-4.5 1.5.5 3.5-4.5 20-12 1.5.5.5-1.5zm177 1 6.5 4.5zm10 0 2.5.5-3.5 5.5-2.5-3.5 1.5-.5 2.5-.5zm-42 1 7.5 5.5.5 1.5 1.5.5.5 1.5 1.5.5-.5 1.5zm45 1v2l1.5.5-1 2 3 1-1.5 1.5-3.5-1.5-1-2h2l-1-2zm-297 3-.5 1.5 1.5 3.5 1.5-.5-4 3 .5-1.5 1.5-.5-1.5-2.5-1.5.5zm40 0-13 14zm200 0 4 6 2.5.5.5 2.5 1-2 1 2 1-1 4 4 5.5 4.5 8.5 12.5q1.7-2.7 3.5 1.5l-1 2 2 4-4.5-3.5-1.5 1.5 1.5 2.5 1.5-.5-.5 1.5 2.5 1.5-.5 1.5 4 3 2.5.5h-2l.5 2.5 3 2 5.5 1.5-.5 1.5 1.5.5 1 2-.5 1.5 1.5.5 3 6-.5 1.5 1.5.5 6 16-2 1-.5-3.5-2 4-1.5-3.5 1-2h-2l3-4-2-1-5-14-5-5q2.8-1.7-1.5-3.5l-2.5 1.5.5 2.5 2.5 1.5 3 5-1.5.5-2.5.5-.5 1.5-2.5-.5 1-2h-2l-3-6h3l1 2-1 2h2l1.5 2.5.5-1.5-5-9 1-2h-2l-.5-2.5-1.5.5 1 2-.5 1.5 1.5.5 1 2h-3l-3-6 1-2h-2l-6-11 .5-1.5-7.5-6.5-1.5-3.5-8.5-5.5.5-1.5 4 3-3.5-4.5 2-2-5-5zm8.5 11-2 2 5 5-1 1 3 1-1-1 7 5-1-3-1-1-1-2 2 1v-1l-2-1-6-5 2 4zm-235.5-9q2 2.5-2 5l-2 1-2.5-.5 3.5-1.5 2.5-1.5zm13 0 3 2 3-2 .5 1.5h-2l1 2-4.5 2.5-2.5-4.5z"/><path fill="#82817f" stroke="#82817f" d="m468.5 295 2.5.5-.5 1.5-2-1-3.5 1.5-.5 1.5-1.5-.5.5-1.5zm155 0 5.5 6.5-4-3-.5-1.5-1.5-.5zm-258 1-8.5 9.5-2.5 6.5-3-2-1.5.5 4-3-1 2 1.5.5q2.4-10.1 11-14Zm225 1 12.5 9.5-.5 1.5-2.5-1.5.5-1.5zm25 0 5 6-4.5-3.5zm45 0-.5 1.5.5 1.5 1.5-.5-1 2h2q-1.5 3-3 0l-1-3zm-177 2 1.5.5-12.5 13.5-1.5.5-.5 1.5-47 40-1.5-.5-.5 1.5-8 4-1.5-.5-.5 1.5-6 1-1-2-2.5-.5q1.8-3.2 3.5.5 12.6-1.4 20-8l26.5-22.5-.5-1.5 1.5.5 2.5-3.5 10.5-7.5.5-1.5 15.5-14.5zm117 0q5.1 3 3 6-5.1-3-3-6Zm46 1 6.5 9.5-3 2 1-2-2 1-.5 1.5-3 1-1-2 1.5.5.5-1.5 1.5.5.5-1.5 1.5-.5-2.5-4.5-.5 2.5.5 1.5-1.5-.5-.5 1.5-.5-1.5 1-2-2.5-.5-1.5-.5.5-1.5 4.5-.5zm-266 1-.5 1.5 2 3-3.5 2.5-3.5-1.5 4-3zm74 0 1 2-1.5-.5-.5 1.5-1.5-.5-.5 1.5-1.5-.5-.5 1.5-1.5-.5-.5 1.5-2.5-.5zm170 0 1 2 1.5.5-1 1 4.5 4.5 1.5-.5-.5 1.5 1.5.5 3 5-1.5.5-9.5-11.5zm-256 1-1 2-1.5.5-.5 2.5-1-4h2zm156 2 9.5.5-.5 1.5-5-1h-2zm54 1 1.5 3.5-.5 1.5 1.5.5 2.5 3.5 2.5.5q-4 2.3-8-5z"/><path fill="#82817f" stroke="#82817f" d="m583.5 305 20 16 1-2 1.5.5-1 3 4.5 3.5 1.5-.5-1 2 6 7-.5 1.5 2.5 1.5.5 2.5 2.5 1.5-.5 1.5 2.5 1.5-.5 1.5 2.5 1.5 2 3-1.5-.5-2.5-1.5.5-1.5-2-1-1.5 4.5 2.5 4.5 2-3 2 1 1.5-.5-.5 1.5 1.5.5-1.5.5q-1.7-3.7-3.5-.5l-.5 1.5-1.5.5.5 1.5 1.5-.5 2.5 6.5 4-5-1.5-.5 2.5-.5.5 1.5-.5 1.5 1.5.5-6 4 1 5h-1l-.5-2.5-4.5 2.5 2.5 9.5 2-1-1.5 2.5.5 1.5 4.5-5.5-2-1-.5 1.5-.5-1.5 1.5-4.5 2 5 1.5-.5-1-2 4-5-2-4 1.5-.5v2l1.5.5-.5 1.5 1.5.5 2 5-1.5.5-1-2-5.5 6.5 2.5 4.5 3.5-2.5 1.5-2.5 1.5-.5-2-1 .5-1.5 3.5 1.5-1 3 2.5 5.5 1.5-6.5-2-7 2.5-.5.5 1.5-.5 1.5 1.5.5-1 2 2 1 3 12-1.5 2.5-.5-1.5-1-3-1.5-4.5-.5 5.5 1 3 1 13-1 2h2v2l-1 15 1 10-2-1 1-3-1-18v-2l-1.5-11.5-5.5 7.5 3 19v2l-1 25h1l1.5-5.5 1.5 5.5-1 3-1.5 6.5-1-2-.5 2.5 1 2h-1l-.5-1.5-.5 3.5 1 2h-1l-1-9 3-5-2-1 1-12h-2l1-7v-2l-1-10 1-2-2-1-1-3h2q1.8-6.8-1.5-8.5l-4 7-1.5.5-2 3 1 2-2-1-1-2 3.5-7.5 6-5 1.5.5-.5-1.5-1.5-.5-1.5-6.5-6.5 7.5 1 2-4 2 2 5-1.5.5-4-10-1.5.5v-2l-.5-1.5-4.5 7.5.5 1.5-2-3 1.5.5-1.5-2.5q-1.7 2.8-3.5-1.5l1-2v-2l-.5-1.5-3.5.5 1.5 2.5q-5.7-2.2-2.5-4.5l-.5-1.5-4-2-2 1-7-8-4.5-3.5.5-1.5 8 7 .5-1.5-2.5-3.5-2.5-1.5 2-1-7-3 .5-1.5 2 1q3-1.5 0-3l-3.5-.5q3-2-2-4l-.5-1.5h-2l-2 1-.5-1.5 3-1-7-3 .5-1.5 5 3 .5-1.5-6.5-2.5-.5 3.5 1.5 2.5 2.5.5-2.5.5-1.5.5.5 1.5 1.5-.5-.5 1.5-4.5-2.5.5-1.5 1 2 1.5-3.5-3-2 2-1-.5-1.5-2.5-1.5.5-1.5 5 2 3-1 4 3 3.5-6.5-6.5-2.5-3 5-2 1-9-4 1 2 2.5.5-.5 1.5-13-5-.5 2.5 2.5.5 2.5.5-2 1 2 1 .5 2.5 4.5-1.5-4-2 1.5-.5 7.5 4.5-1.5-.5-3-1-2.5 1.5 5 1-1 2 2 1-1.5.5-9.5-4.5.5-1.5-3 1-6-4-2 1-1-2h-2l-3 1v-1l1.5-.5-.5-1.5-5.5-1.5 2-1-3.5-.5-3 1-10 1-4-2-8 1v-1l6.5-.5-.5-1.5-13.5 2.5 3 1-8.5 1.5-2-1v2h-2l-17 3 1-2 5.5-2.5-.5-1.5 1.5-.5-2.5-.5-2.5 1.5 2 1-1.5.5-3 1-16 9-1.5-.5-.5 1.5-20.5 13.5-1.5 2.5-5.5 2.5 1.5.5 2-1-1.5 2.5-5.5 8.5-1.5.5-.5 1.5-3.5 2.5.5 1.5-2.5.5-2.5 5.5-1.5.5-4.5 5.5-3.5 1.5-3.5 4.5-1-1-4.5 4.5 2 2-11 11-.5 11.5-1.5-7.5.5-1.5-1.5.5q-4.1 2.9-3 11l2 12h-1l-.5-3.5-2 1-.5-3.5h1l.5 2.5.5-3.5-2-6 1-2-3.5-22.5-3 2 .5-1.5q4-3.5 2-13l-1-2 1-7-1-2 3-4-1-5v-2l1.5-5.5 1 8 3-6 1.5-.5-1-3 12.5-26.5 1.5.5.5-1.5.5 1.5-4 4-10 24 1.5-.5 12.5-9.5.5-1.5 21-15 .5 1.5q-21.4 12.6-38 30l-4 8 1 2-1 6 1.5-.5 1.5-.5.5-1.5 19.5-18.5 2.5-3.5 1.5-.5.5-1.5 1.5-.5.5-1.5 1.5-.5-2.5-.5-26 22 8-9 35-28 12-7 .5 1.5-14 9-.5 1.5-1.5.5-1 2 1.5.5 17.5-12.5 1-2-2-1 22.5-11.5v2l3.5-1.5-2-1 4.5-2.5v1l-2.5 1.5 2.5.5 6-3 24-5v1l-27.5 9.5-.5 1.5-1.5.5 2.5.5 40-11 14-1v1l-10 1-23.5 8.5-.5 1.5-1.5-.5.5-1.5-2.5 1.5 4.5 2.5 23-7 28-4 8 3 2-1 5 2 2.5-1.5.5 2.5 7 2 6.5-12.5-8-6-.5-1.5-17.5-9.5 1.5-.5 24.5 15.5.5 1.5 3-6-.5 1.5-1 5 5 4 1.5 2.5 2.5-1.5 6.5-11.5.5 1.5-7.5 12.5-10-7-6.5 12.5 10.5 4.5 5-9 7 6 10-15-.5 1.5-10 15 4 3 2.5 4.5 1.5-.5 10-16-2-1-.5-3.5q-1.8 2.8-3.5-1.5v-2l-.5-1.5-1 1-5.5-5.5-.5-2.5-1 2-2-4-2.5-.5q1.8-3.2 3.5.5l10 9 1.5-.5 11.5 18.5 3-4-2.5-1.5q-11.2-17.3-26.5-30.5zM543 339l-25 7-4-1v2l-4-1-2 1 2 2q7 2 10-2l3 2 7-3h13l15 4v-2l-1-1-1-2 2 1 3-1-1 2 8 3 1-3q-9-5-21-6l-3-1zm-65 1-16 7-2-1-1 2-15 9 3 1 25-13v-1l8-3zm109 2-4 10 7 2 2-4zm24 0-10 15 1 4 3 1 2 5 9-15v-2l-1-1-3-4 2-1v-1h-1zm-122 3-7 2v2l-2 1h3l1-2 4 2h3zm-9 2-9 2-1 2 3 1v-2l2 1v-1l5-1zm59 0-6 2 3 2 6 1 4-1-1-1-1-1h-5l4-1zm33 0-3 5 9 5 2-5zm-42 1v2h-2l-3-1-4 2 5 2 5-2 2 1v-1l-1-1-1-1zm30 1q0 3 7 4v-1zm-12 1-2 3 8 2-1 4 3-2-1-3zm46 0-2 3q-4 2 0 4l-2-2-4 8 8 4 3-6 3-2-2-3q-5-2-2-4zm24 0-1 2 2 4-1 1-1-3-10 14 2 4h2l7-10v-3l3-1zm-59 2 6 3h2zm63 7-1 4h-2l-8 11 4 6 6-10 4-3-2-7zm-22 1-5 9 4 1 4-6-2-3zm-152 1-7 5h4v-1l3-2zm156 4-5 6q3 5 6-1zm-164 1-5 3-4 5 1 1 10-7zm-18 2-8 8 2 1 3-2 4-6zm172 1-2 3 8 6 1-4zm14 2-2 4h-2l-4 5 4 2 5-7zm-181 1-1 2-3 2-4 5 1 1 7-6zm195 1-7 9 3 4v2l-3-5-4 5h-3l5-6-2-6-6 9 1 1-2-2-1-1h-2l-3-5-2 4 14 11h-2l1 3 4 1q2-3 4 3l-1-1-1 2 5 1q3-2-1-3l3 1 3-4-1-1-1-1 2-1-1-5-1 2-3 2-2 4 1 1-4-3 8-8zm-184 1-3 4-2-1-7 5 3 1v-1l2-1-2 3h2l8-9zm192 6-5 9v2l1 3h2l5-8-2-5zm10 0-5 6 2 7 5-4zm-227 3-11 12-1-2-13 11q-6 2-6 10l2 6 9-10v-2l-2 1-7 6 11-13 3-2v-1l2-1 1 3q4-2 1-3l7-6 6-8zm9 0-9 11 1 1 3-5 1 3-4 6 1 1 4-3 4-5v-2l-3 2-1-1v-2l4-5zm8 5v2l-10 10h2l10-11zm204 0-5 7h-1l-5 8 3 1q2 3 4-2l-2-4 1-2 2 5 5-6zm9 1-5 6 3 8v-1l4-3zm-236 5-1 3-6 5-6 7 1 1 5-6 2 1 8-8v-2l-1-1zm-4 11-7 6-2 3-2 4 1 1 6-8 5-4v-1zm6 3-11 12-2 1-5 8 1 4 3-1-2-1 17-22zm-18 8-8 7 1 6 7-6zm-1 8-6 7 2 12 4-13zm-39.5-117-5 6zm93 0 1 2-4.5 1.5-1.5 2.5-1.5-.5-1.5 2.5-10.5 8.5-6.5 7.5-1.5.5q3.3 2.3-2.5 4.5l-1.5.5.5 1.5q-3.5-2 1-4l1.5-.5-1-1 4-4 8.5-9.5 1.5-.5.5-1.5 1.5.5 3.5-4.5 1.5.5 1.5-2.5 1.5.5 1.5-2.5zm219 1 2.5.5-.5 1.5 2-1 1 2-1.5-.5 1.5 3.5 1.5-.5-1.5 2.5zm-302 1 2.5.5-5.5 9.5-2.5-1.5h2l-1-2 3-1-1-2 3-1zm300 1 2.5 1.5-.5 1.5 2.5 1.5-.5 1.5 1.5.5 5 8-3-2-7-10 .5-1.5zm-286 1 .5 3.5-1.5 3.5-1.5-.5 1 2-2.5 5.5-1-3-1.5-.5 1.5-.5 1.5.5 1-2-1-2 1.5-2.5 1.5-.5-1-2zm263 0v2l4.5 2.5-.5 1.5-1.5-.5-.5-1.5-1.5.5 2.5 3.5 3.5-.5-.5 1.5 1.5.5-.5 1.5-3.5-2.5 2 3-1 2 1 2h-1l-5-11zm16 0 .5 1.5-1.5 3.5-4-2-.5 1.5.5 1.5-1.5-2.5 2.5-.5zm-310 3v3l-1-1-9.5 8.5zm312 0 6.5 9.5h-3l.5-1.5-4.5-1.5.5-2.5 1 2 .5-2.5-2-1z"/><path fill="#82817f" stroke="#82817f" d="m587.5 315 2 3 2.5.5-4-1-.5-1.5-1.5.5zm-240 5 1 2 2.5-1.5-1 4 3 1h-2l1 2h-2l1 2-3 1-1 4 .5 1.5-2.5-.5 2.5-6.5 1.5-.5-2-3q4-2 0-4zm35 0 1.5.5-3 2-.5 2.5-1.5.5q3.3 2.2-2.5 4.5l.5-1.5 2.5-4.5 1.5-.5q-2.7-1.8 1.5-3.5Zm9 5-1.5 2.5 1 2-4.5 3.5 1.5-2.5zm268 0 2 1 1.5-.5 2 3-2.5-1.5-2-1-2.5 1.5zm-27 1 1.5.5 5 8-4-3zm33 4 .5 1.5v2l-1.5 4.5-.5-2.5zm-271 1-.5 1.5-8 12 .5 1.5-2.5.5-4.5 7.5-1.5-.5 1 2-2.5 4.5-1.5-.5 1 2h-2l1 3-1.5 2.5-1-2-1 2-.5-1.5 4.5-11.5 1.5.5 1.5-2.5 1.5.5-1-2h2l-1-2 2.5-3.5 2.5-.5-.5-1.5-1.5.5 3-2 .5-2.5 1.5.5-1-2 4-2-.5-1.5-2.5 1.5q1.8-4.2 3.5-1.5l1.5-.5zm258 0 5.5 11.5-2-1-2-5 .5-1.5-1.5-.5zm-295 3 2.5.5-.5 2.5-1-2q-3.8 2.2 1.5 4.5l-.5 1.5-3-4-.5 1.5-.5 4.5-1.5.5-1.5 8.5-1-2-.5 2.5 2 5-1.5.5-2.5-5.5zm-13 3 1.5 2.5-2.5 4.5-2-3-1.5.5.5-1.5 3.5-1.5zm67 1-1 4-1.5.5v2l-1.5 2.5-1.5.5-1 3-1.5 3.5-2.5-.5.5-4.5 1.5.5.5 1.5 4-7 1.5-.5.5-2.5 1.5-.5zm47 0-1 2-24.5 15.5-.5 1.5-1.5.5-.5 1.5-1.5-.5-.5-1.5-2 1v-1zm222 2 4.5 7.5-1.5-.5-1.5-.5zm-14 2 5.5 16.5-2 1-.5 1.5-1.5-2.5h2zm-298 4 .5 1.5-5 14 2-1 1.5-3.5-.5 1.5-3.5 9.5-.5-1.5 1-3h-1l-3 11h2l-2.5 7.5-1-2-2 6-.5-5.5 2-7-1-2zm330 5 1.5 2.5v21l-2-1 1-12v-2zm-86 1-1.5 2.5-5.5 6.5 3.5-4.5zm30 2 2.5 1.5-.5 1.5 2.5 1.5 2 4-2 1 .5-1.5-1.5-.5-1-2 .5-1.5-2.5-1.5.5-1.5zm19 0 1.5.5 2 7-2-1zm-156 3 2.5.5-.5 1.5-2.5.5 3 1-2.5.5-2-1-13 4v-1l1.5-.5-.5-1.5 2 1 8-3h2l1.5-.5zm11 0 14.5 2.5.5 2.5 1.5-.5.5-1.5 10.5 2.5-1.5 3.5-8-2-1.5.5-.5-1.5-1.5.5-.5 2.5-2-3-6-2-2 1-1-2-6.5-.5zm-23 1 2.5.5-8.5 2.5v-1zm-161 2q3.9 2.1 3.5 8.5l-1.5 3.5-1.5-5.5h1l.5 1.5.5-2.5zm307 0 1 2 1.5-.5-1 3h2l1 3h-3zm32 0 2.5 5.5-1 3h2l-.5 3.5-3.5-7.5.5-1.5-1.5-.5zm-189 1 3.5.5-2 3 .5 1.5-1.5.5 2.5 4.5 1-2 2.5 5.5-1.5 2.5-1.5-2.5.5-1.5-1.5-.5-1.5-3.5-1 2-1-4-10 4-1.5-.5-.5 1.5-6.5 3.5 1.5 2.5 3.5.5-1-2 8.5-3.5v1l-6.5 3.5-1.5 2.5-1.5-.5 1 2-.5 1.5 3.5 2.5-3-1 1 2-2-1-1.5-4.5-8 5-1-2 6.5-4.5-1.5-2.5-4.5 3.5-.5 2.5-2.5.5 1 2-1 2h2l-6 5 4.5 1.5 1-2 3-2-.5 1.5.5 1.5 2-1-1 2-5 1-7-3-5.5 2.5-.5 1.5-1.5.5-2 3-.5 3.5 1.5.5-1 3 1.5.5 1-3 3.5 1.5-5.5 6.5-1.5.5-8.5 9.5-3.5.5 3 2-10 6-.5 1.5-2 1-1-2 2.5-1.5 1.5-2.5v2l2.5-1.5-1-1 5-5-.5-1.5-8 6-1.5-.5-.5 2.5-1.5-.5-2.5 3.5-.5-2.5 4-6-1.5-.5-6 7-2.5.5 1 2q-2 4.5-4 1l3-1-1-2 3-5q-4.2-2.2.5-4.5-3.2 2 0 4l2-3 6.5-2.5-1-1 5.5-5.5 2 1 4.5-6.5.5-1.5 3-2q2.2 3.3 4.5-2.5l-2-1 8.5-9.5 1.5-.5 3.5-4.5 4.5-2.5.5-2.5 1.5.5 3.5-4.5 12-9zM452 385l-5 6 3-1v-1l2-1 1-2zm-27 25-12 11 1 1 3-1 1-2 2-1 6-7zm7 0-3 2-5 3 2 3-1 2 8-7zm113.5-48 1.5.5-.5 1.5 3 1v-2l3.5 1.5-.5 1.5 6.5 2.5-.5 2.5-1.5-.5-.5-1.5-6-1-1 2-.5-1.5 3-2q-2-3.5-4 1l-.5 1.5-3-2-1.5.5 1.5-2.5 1.5-.5zm116 3 1.5.5-1 2 4 11h-1zm-308 1 1 2 1.5-.5-5.5 22.5-1.5-4.5 2-1-1-5h2l-1-4 2-3-1-2h2zm17 2 2.5.5-4.5 14.5-1.5-.5 1 4h-2l1 6h-2l.5 2.5 1.5-.5-1 6 1.5 2.5.5-2.5-1-3 1.5-4.5 1 3 4-12 .5 1.5-3 12v2l-.5 6.5-1-2-.5 2.5 1 9q-3.8 2.5-1 5l-1 5v2l.5 9.5 1-4 .5 3.5-2 5 2 1 .5-1.5.5 1.5-3 9 2 1 6 19-.5 1.5 1.5.5-1 3h2l-.5 1.5 1.5.5-1 2h2l-1 2h2l-1 3 2 3-2-1-12.5-30.5-1 2-.5-1.5 1-3h-1l-.5 1.5-.5-3.5 1-2-2-1 .5-1.5q1.8 3.8 3.5.5l-.5-2.5-2 1-.5-2.5h2l-.5-4.5-3 5q-4.1-12.9-2.5-31.5l3-1-3-1 .5-2.5 1.5-.5-1-5 3-12-1-2zm6 0 1 2 2.5-1.5-3.5 7.5-.5-2.5 1-3z"/><path fill="#82817f" stroke="#82817f" d="m382.5 369 .5 1.5q-8.9 17.1-10 42l1 9-2-1 1-23zm169 0 6.5 3.5-6 5 3.5-4.5zm8 3 5.5 2.5-3 2-2.5 3.5-1.5-.5 3-2-1.5-2.5-2 1 1.5-2.5zm11 0 3.5 2.5-2.5 3.5-1.5.5-4.5 5.5-2 1 .5-1.5.5-1.5 2.5-.5.5-1.5 1.5-.5-3.5-1.5v2l-1.5-1.5zm-237 1 .5 2.5-2.5 6.5-1.5-3.5h2l-1-4h1l.5 1.5zm343 2 2.5 6.5 1 3 1.5 4.5 1.5-.5q-4 2 0 4l-1.5 5.5-5-18-1 2-.5-4.5zm-199 1 6.5 5.5-1.5.5-4.5-2.5.5-1.5-1.5-.5zm68 0-.5 1.5-1 2 3.5.5 3-2-1 2-7 2-.5-1.5zm32 0 3 4 1-1 5.5 5.5-.5 1.5-1.5.5-.5 1.5-1-2-2 3-5-2-.5 1.5 1.5 2.5-6 1-2-3-3.5-.5 9.5-11.5 1.5.5zm76 0 3 1 1.5-.5-1.5 4.5-1-4-2 1zm-183 2 7.5 5.5-4.5.5-2-1q3.2 2 0 4 1.9-2.7-3.5-5.5l1.5-1.5 1.5.5zm85 0 1 4-5 2-.5-1.5z"/><path fill="#82817f" stroke="#82817f" d="m654.5 379 3 10 1-2 .5 2.5-1 3h1l1.5-4.5.5 2.5-2 9v4l1.5 5.5 1-10q3.6 5.9 1.5 17.5l-1 7v2l1 3-2 20-2.5 5.5-.5-1.5 3-12-1.5-.5-3 11-1.5.5-.5 1.5-.5-2.5 2-1-1-4h2l-2-8 2 1 .5 3.5 2-5 1.5-.5-.5-1.5-1.5.5 2-15-1.5-7.5-1 14-1.5-1.5q1.4-23.4-3-41l1-2zm17 2 2.5 18.5-1.5.5-2.5-15.5zm27 1 1 3 1.5-.5-1.5 6.5-1.5-3.5zm-340 2 .5 6.5-1.5 5.5-1.5-.5 1-6h-1l-1.5 2.5-.5-1.5 1.5-3.5 2.5 1.5zm232 3 2.5 3.5-4 2-.5 1.5-3 1-5.5-.5-.5 1.5-3-1-4 1v-1l3.5-.5.5-1.5 7-3 1.5.5.5-1.5 3-1 3.5 2.5zm-131 1 2.5.5-.5 1.5 1.5-.5.5-1.5 2.5 1.5-4.5 1.5zm-131 1 2.5.5-.5 2.5-1.5.5 1 5-2-1zm376 1 .5 1.5v2l2 8h-1l-3-9zm-224 2-1 2-3.5 1.5 2 1-3 2 1 2-3.5 1.5q-13 4.5-21.5 13.5l-3.5 4.5.5-1.5 2-4-4 2 9.5-9.5 1.5.5.5-1.5 1.5.5 1.5-2.5 4.5-2.5 1.5-2.5 1.5.5.5-1.5zm114 0 2 4 1.5.5 1 2-11.5 3.5h-4l-1.5-.5 1.5-2.5 3-1 3-2-.5 1.5.5 1.5 3 1 .5-1.5-2-3 3-2zm-95 1 1.5.5-2 1 2 1-1.5.5q-2-3-4 2l-1.5.5 2 1-3.5 2.5 1-3-1.5-.5 5-3-.5-1.5zm4 0 2 1h2l3 1 1.5-.5-2.5 1.5-2-1h-2l-2-1-1.5.5zm44 0 3.5 1.5.5 1.5 2-1 1 2h2l12.5 8.5-3 1 2.5 3.5 2.5-.5-1.5-2.5 1.5.5.5-1.5 4.5 2.5-1 2 5.5 9.5 1.5-.5-4-6-1-3 .5-1.5 1 2 1.5.5-1 2 8 7 2 4v2l1 3-1 4-.5 2.5-1-3-.5 2.5 1 2-4 1 1-6-2-5 1-3h-1l-.5 1.5-.5-1.5 1-2-2.5-1.5-1.5.5.5-1.5-4.5.5-.5 1.5-2.5-.5.5-1.5 2.5-.5-1-2 1-4-2 1 .5 1.5-1.5.5 1 2-1.5.5-1.5-3.5 2.5-3.5 1.5.5-1.5-2.5-3 2-3-4-1.5.5-.5-2.5-3-1-2.5-.5.5-1.5-7-4-1.5.5-2-3 .5-1.5zm38.5 34-2 2 1 2 1-2v4l2-1z"/><path fill="#82817f" stroke="#82817f" d="m651.5 393 .5 2.5-1 2h2l1 10-1 3 .5 1.5 1.5-.5v22l-2 2 1 2v2l1 4-1.5 4.5-1.5.5 1 3-1.5 4.5-1-2-.5 2.5q1.5 3 3 0l.5-2.5.5 2.5-1.5 2.5-4-1-.5 2.5 2 3-4-1 5-14 1-14 2-4-1-2v-2l1-12-2-2-2-17zm15 0 1.5 3.5-1 2 .5 1.5-1.5-4.5zm-219 1 1.5 3.5-4.5 2.5zm69 1 .5 2.5.5 3.5 3.5-1.5-2-1 1.5-2.5q4.3 1.7 1.5 3.5l-1.5 3.5q-2.7-3.9-5.5-1.5l1-2zm-14 1 7.5 1.5.5 1.5 1-2 1.5.5 1 3-.5 2.5-1.5-.5-.5-1.5-1 2-2 1-2-5zm185 1 .5 15.5q-4 2 0 4l-1 13-2 2 1 7-2 5 1 4h-1l-.5-2.5-1.5 2.5-1 3 1 2-1 3 .5 2.5 1.5.5-1.5 2.5-1.5.5-1 7h1l.5-1.5.5 1.5-1.5 4.5-1.5.5 1 3-4 3-3 4 2 1-1 4v2l-.5 1.5-2.5.5-1.5 6.5-2-1-1.5 2.5 1 2-4.5 1.5-.5-4.5 1.5-.5 1 2 1-3 1.5-.5-1-8 1.5.5 2-1 2.5 1.5-1-3 .5-1.5-5 2-1.5-.5-.5 1.5-.5-1.5 1.5-2.5 1 2 3.5-1.5.5-7.5 1 4 1.5-4.5-2-1 1-5-1-2 1.5.5 1.5.5 1.5 2.5.5-1.5-1.5-2.5-1.5-.5-1-2 1.5-4.5 2 7 2.5-9.5-1-3 2.5-3.5 1.5-.5v-2l2-8-1-3 1-3-1.5-3.5-1.5-.5 1.5-2.5 1.5.5.5 4.5 2.5-7.5-1.5-2.5-2 3 .5-1.5q1.8-10.3-2-15h1l.5 1.5 1-12 1 18 3.5-9.5-1-3zm8 1 2.5 13.5h-1zm-357 1 1.5 5.5-2.5 9.5-.5-8.5zm111 0-3 4-6.5-1.5 2.5-.5 4 1zm41 1 .5 4.5-3 1 1 3 .5 2.5 5 3 2.5.5-.5 1.5-1.5.5-1 9 1 2-2 1 3 1 4.5 7.5q4.7 4.8 14 5l12.5-7.5 5.5-10.5 1.5.5-.5 1.5 3-1v2l2.5 1.5.5 1.5 1-2 7 1 1-2 .5 3.5-1 2h2l-1.5 4.5-1.5.5.5 1.5-1.5-.5 1 2-2-1-1-4h1l.5 2.5 2.5-4.5-3-1 1-3-1.5-.5-1.5 2.5.5 1.5-3-1 1 3-2-1-1 5-3-2 2.5 3.5-3.5 4.5-2 1-3-4-.5 3.5 2 1 .5 1.5 1.5.5-3.5.5-4.5-3.5-.5 1.5-2-4-.5 4.5 3.5 5.5 1.5-.5-2-4 1.5-.5 3 4 1-2 .5 3.5-5.5 2.5-1-3-1.5-.5.5-1.5-2.5-1.5-1-3 1-2-4 1 1.5 3.5 1.5.5 1 2 .5 2.5 1.5.5-1.5.5-2.5.5 4 1-3.5.5-2.5-4.5 1-2-2-1-.5-2.5q-4.2 1.8-1.5 3.5l-.5 2.5-1.5-3.5-.5-2.5-1 4-.5-3.5v-2l-1.5-2.5-1 2-2.5.5 1.5 2.5 1.5-.5.5-1.5.5 1.5-1.5 3.5-2-3-.5 2.5 1 2h-2l1.5 2.5 1.5-.5-2.5 1.5-4.5-2.5 1-2-1-3 2-4-2.5 1.5-1.5-.5 2-1-2-2 3.5-4.5-2.5.5-4 10 1.5.5 1-2 1.5.5-2 3 2 1-.5 2.5-4.5-2.5 1-2-1.5-.5-1.5.5 4-7-2 1-.5 1.5-3.5 1.5 1 2-1.5.5-.5-2.5.5-1.5-2.5.5 1 2-1.5.5-.5-4.5-.5-1.5-2 3-2.5-5.5 1.5.5 1.5-.5-1-2 10-8-1.5-.5-2 1-1-2-1.5-.5 4-2-2.5-.5-1.5.5.5-1.5 1.5-.5-.5-1.5-1.5-.5.5-1.5-4.5-1.5 2.5-.5 4 3 .5-1.5-6-4 4-1-1.5-2.5-2.5-1.5 1-3 2-3-.5-1.5 2 1zm38.5 34-1 2h-1l-1 2h-1l-1 2-2 1 1 1 2-1-1 2h2l1-2v-2l7 1 1 1-1-3-2-2-1-1zm-38 1-2 2-3-1-1 2 5 2 2-4zm7 0-4 5-2-1-2 5h3l1-2 4-2 1-4zm25.5-34 1.5.5-1 2 1.5.5 2-1 .5 2.5q-2.5 4-5-2zm78 0 1.5.5-.5 1.5 2.5 1.5-.5 1.5-2 1-4-1-6 1v-1l1.5-.5-.5-1.5 1.5.5.5 1.5 1.5-.5-1-2zm71 0 1.5 3.5v2l1 3-2 4q3.7 4.3 2 14h-1l-1-3 1-3-.5-3.5-1.5-.5zm-139 2 1.5.5-6.5 5.5-.5-1.5 3-1zm87 3 1.5.5.5 1.5 1.5.5-1 3h2l-2 5 2 1-2.5.5-2-3-1 2-.5-1.5-.5-2.5-2 3-1.5.5 5 3-3.5.5-1-2-1 2-3.5.5.5-1.5-2 1-3-4-1.5-.5 1.5-.5 5.5-.5.5 1.5 2-3 3-1 2.5-1.5-1-3zm-273 1 .5 17.5h-1zm7 0 .5 1.5-1 3 2 1-.5 2.5-1-2-.5 5.5h1l.5-1.5.5 3.5v2l-1.5 5.5-1-9-1.5-.5 1-4-1-2 2-4zm252 1 .5 2.5-.5 1.5-4-1-2 1-1.5-2.5 1.5-.5 2 1z"/><path fill="#82817f" stroke="#82817f" d="m531.5 409 2.5.5 1 2-1 2 2 1-1 2 2 1-1 3 3 1-4 1 8.5 3.5 1-3 2.5 1.5-.5 2.5q-5.7 1.3-7-2l-1.5.5-.5-1.5-5.5-1.5-3-12zm26 4 .5 11.5-3 10v2l-7.5 13.5 1.5-2.5 6-14-1-4zm-89 4 1.5.5-2 14h1l.5-1.5.5 1.5-1 3h2l-1 2 2 1 1 2-3 2-1-2 1-2-2-1-2-12zm159 0-2.5 3.5 2 3-4.5 1.5-1.5-2.5 2-1 .5 2.5zm-185 2 2 5 4-3-1 4v-2l-2.5 1.5v2l-.5 9.5-2-8q-3.5 1-2.5 6.5h1l.5-1.5.5 1.5-2.5 6.5-1.5.5 4.5 7.5 1.5-.5 3.5-6.5.5 1.5-3 5 1.5.5 1-2 2 6 1-4 3.5 6.5-1.5-.5-1.5-.5-.5-1.5h-2l-1.5-.5-.5-2.5-1.5.5.5 1.5-6.5-3.5-3-7 1-2h-2l-1-6h2l.5-2.5.5 2.5-1 2 2-1 1-3-.5-1.5 6.5-4.5-2.5-.5-6 4-.5-1.5zm-104 2 1.5 7.5-1.5 3.5-.5-2.5-1-7zm113 0 2 4 2.5.5-2.5.5q-4-2.5-2-5Zm126 0-.5 1.5-1.5 8.5-3.5-.5 3-1zm41 1 1.5.5v2l-.5 1.5-3.5-.5.5-1.5-3 1-2.5-1.5zm81 0 1.5.5-2.5 10.5-1.5-.5zm-372 1 1.5.5 1 8h-1l-.5-1.5-1 4-.5-6.5v-2zm47 0 .5 2.5-.5 1.5 1.5.5 6 23h-1l-8-26zm297 0 .5 3.5v2l-.5 8.5-1.5-.5-1-8zm-57 5 6.5 3.5-1.5.5-6.5-2.5zm-17 2 4.5 2.5-.5 1.5-1-2-1.5.5.5 1.5zm107 2 .5 4.5-3.5 11.5-.5-2.5zm-393 1q3.1 6.4 1.5 17.5l-1.5 5.5-.5-7.5 1-2-1-2 1-2-1-2v-2zm119 0 1 3 1-3 1.5 10.5-1 2 3 1-.5 1.5 1.5.5-3 1-.5 1.5-2.5-.5 3-2-4-5 2-1 .5 1.5.5-4.5-2-1-.5 1.5zm174 0 2.5.5-.5 1.5-1.5.5-2.5 3.5.5-1.5-.5-1.5-5.5 3.5-2.5 3.5-2 1-1-1-6.5 5.5 12-11 .5-1.5 3-1 4.5-.5zm91 0 1 6 1.5-.5-.5 3.5-2.5-.5zm-85 1 8 1 3-1v1l-2.5.5 2 1 2 3-1.5-.5zm-255 1 .5 1.5-2 6 1 3-2-1 .5-8.5 1.5.5zm66 1 4.5 2.5-.5 2.5-2-4-1.5.5.5 1.5-2.5.5-3 5 .5 1.5h-2l-1.5-.5q-.7-6.7 4.5-7.5zm186 0 1 2 3-1 2.5 1.5-3 1 .5 1.5 3.5-1.5.5-1.5 1.5 2.5-2 1 1.5 2.5-8.5-3.5 2-1-.5-1.5-4.5 1.5.5-1.5 1.5-.5zm-251 2 1.5 9.5q-3.7 1.8-.5 3.5l1-2 1.5 9.5-2 1-.5 1.5-.5-2.5 2-1-1.5-4.5-1 3-1.5-7.5zm221 0 1.5.5-3 10q3.2 2.2-2.5 4.5l-9 6 2.5-3.5-1-2 3.5.5 1.5-.5-.5-1.5 3.5-2.5zm92 0 2 6 1-5 .5 4.5-2 6v2l-1.5 10.5-2-7-.5 1.5 1 2-2-1-1-5h1l.5 2.5 1-2 2.5-.5-.5-2.5-1 2-.5-1.5 1-2-1-2h1l.5 1.5.5-3.5zm-126 1 1.5 4.5-1.5.5-1.5-.5-2.5 7.5-.5-2.5 2-5-2-3 1.5-.5 1 2 2.5-.5zm-214 1 .5 8.5-2 1 1-6v-2zm291 0 3 1 1.5-.5-5 4 .5 1.5-2.5-1.5zm-147 1v2l1.5.5-.5 1.5 1.5.5 2 3-1.5.5-3.5-2.5.5-1.5-2.5-1.5z"/><path fill="#82817f" stroke="#82817f" d="m584.5 442-6 7v-3l1 1zm-261 1 3.5 16.5-2-1zm283 0 10.5 2.5-3 2 2 1-2 1-.5-1.5-1.5 2.5 2 1-.5 1.5-2.5-.5-1.5-3.5q-1.7 2.7-3.5-1.5l2-1-.5-2.5-1.5.5zm-15 2-1.5 2.5-4.5 5.5 3.5-4.5zm101 0 .5 1.5-1.5 8.5-1.5-3.5zm-353 1 3.5 6.5-2.5 4.5-.5-3.5 1-5h-1l-.5 2.5-.5-2.5z"/><path fill="#82817f" stroke="#82817f" d="m618.5 446 2.5 1.5-3 2-2 4 2 1 1.5-2.5 3.5-2.5 1.5-2.5.5 1.5-3.5 4.5-1.5.5-1 3-.5 1.5-1-2-.5 2.5 1 1-4 4-1.5 2.5-1.5.5v2l-2 4 8.5-7.5 1.5-.5 7.5-9.5-1.5 4.5-7 13 1.5.5 5.5-4.5 3.5-4.5 1.5.5-6 14 1.5-.5 3.5-1.5q7.2-10.3 9-26l-3-1 .5-1.5 2 1 2-3 .5 1.5-3 13 1 2h-1l-.5-1.5-.5 3.5.5 1.5-1.5-.5 1 3h-2l1 4-3 1 1 4h-1l-.5-1.5-1 6-1.5.5-8 18q3.5-5 7 0l-3-4 4-2-.5-1.5-1.5.5 3-1-1-2 3.5-4.5-.5 1.5-1 2 1.5.5 2.5-5.5h-2l4-2 4-8-2-6h1l3 5-7 16 2-1 9.5-20.5 1 3 .5-3.5-1-2h1l.5 1.5 1-2 1 2 1.5-.5.5 1.5 5-13 .5 2.5-6.5 18.5-1.5-.5 1 3-6.5 12.5.5-1.5-1-2 3-6h-1l-4 7 .5 1.5-1.5-.5-1 3 .5 1.5-2.5.5-4.5 6.5-3.5 1.5 2 1-2 1 .5 1.5-1.5.5-1 3-8.5 13.5-1.5.5-.5 1.5-1.5.5-.5 1.5-1.5.5-6.5 7.5-2.5.5-4.5 5.5-2.5.5-2.5 3.5.5-1.5 3.5-4.5q1.8 2.7 3.5-1.5l23-28-3 2-14.5 17.5-18 13-1-3-2-1-2 3-1.5.5-.5 1.5-1.5.5-.5 1.5-3.5 2.5.5 1.5 10-7-2 3-11 8 .5-1.5.5-1.5 1.5.5-.5-1.5-3-1-.5 1.5-.5 4.5-2-1-5.5 2.5 1.5 2.5-2.5.5-2.5 3.5-5.5 3.5 2 1-9.5 3.5-1-2 5-1 9.5-8.5-2-1-.5 1.5-4-1-1 3-3-1-1 2-3-1-1 2-6 1-4-1v1l1.5.5-6.5.5-2-1v2l-51 1-14.5-3.5-.5-1.5-2 1-9-3v1l11.5 4.5-2.5.5-2.5-.5-.5-1.5-5-2h-2l-16.5-7.5-.5-1.5-3.5-1.5-.5-1.5-3.5-2.5 2.5 1.5 10 5 1-3 1 5 6 2v-1l-3.5-1.5.5-1.5-2 1 1-2 28 10 3-1 16 2v-1l-3.5-.5 7.5-1.5h2l2.5.5.5 1.5 1.5-.5.5 1.5 1-2 3.5.5-.5 1.5 1.5-.5.5-1.5 7 1 2-1 2 1h2l5 1h2l1.5-.5-8-2 7.5-.5 3 1 4-8 1.5-.5-3-1 3-1 4-7-1-2 1.5-.5 2 1 1.5-3.5 12-19-1.5.5-1.5-.5 7-5 8.5-11.5-1.5 2.5-5 8h2l-6 5-13 20 1.5 2.5-3-1v1l1.5.5-5 4-2 4 4 2-2.5.5-3-1-1.5 3.5-2 4 7.5 1.5v-1l-1.5-.5 7.5-1.5 1.5.5.5-1.5 4 1v-1l-1.5-.5 2.5-.5 1.5.5 1.5-2.5 2.5-1.5 4-7-2-1 3-2 6-11-1-2 2-1-.5 1.5 3.5-2.5-1-2 19-29-1.5-.5-1.5.5 9-12-1.5-.5-6 5-1.5-.5-4.5 5.5q-3.5-2 1-4l7.5-6.5-.5-1.5-13 10-1.5-.5-.5 1.5-1.5-.5 14-13-1.5-1.5-3.5 2.5-.5-2.5-8.5 7.5 1.5.5 1.5-.5-4 3-.5 1.5-3 2q-1.7-3.7-3.5-.5l2 1-7.5 5.5 1-3-3.5 2.5-.5 2.5-8 3v-1l22-16v2l2.5-1.5-1-1 3.5-4.5-1.5-.5 3.5-1.5 1 1 5.5-5.5-.5-1.5-5.5 4.5 1.5-2.5-4 2-1-2 5.5-3.5-1.5-.5-3 2-1-2-1.5.5.5-3.5-1.5-.5.5-1.5 3-1 1 2-2-1-.5 1.5 2.5.5 2-1 2 4 1-2 2 3 3 2 .5-1.5-2.5-4.5-2.5-1.5-2.5-3.5-1.5.5 3-1 .5-1.5 2.5 1.5-1.5 2.5 4-2 3.5 2.5 1.5 4.5 3 1 .5-4.5 6.5-7.5-.5 1.5-5 6v3l2-1-.5-1.5 1 1 4.5-4.5zM608 470l-3 1v2l-2 3 1 2 4-6zm9 0-5 4-9 12h2v-1l3-2 9-11zm1 3-3 4 3-1-1 2 2-1zm5 1-5 5 1 3-1-1-2 5 1 1 6-10zm1 5-5 11 2-1 1 3 5-12-2 1zm-11 4-7 4-4 4-1-1-2 1q-5 2-2 4l-18 29 1 2 1-2 3-1 3-4 2 1-1-1 5-7 3-1 3-1-3-1 1-2 2-1-1-1 4-6-1 2 1 1 2-3q5-2 2-4l5-8 1 2 1-4zm3 7-2 3h2l-1 2h-2v2l-3 5v2l-1 6h-1l1-3v-4l-15 26q3 2-2 4l2 1 1-2q4-3 1-5l9-8-3 4h3l-6 8 17-15 1 1-1-3 5-6 3-1 1-2h-5l-8 9 7-6-9 10 1-2-1-1-4 3 2-7 1 4 4-7 3-1-1-2 2-7 2-1 1-4 1 2v-2q-2-5-3-2zm-7 6-9 10h2l7-8zm-5 10q-9 6-12 18l-2 1 3-6v-2l-12 18v1l4-2h2l2-3v2l5-3-3-1 13-21zm11 11-7 8v2l-1-1-3 2 1 1 4-1q4-2 1-3h2l3-4h-1l2-3zm-28 3-2 3h-2l-3 4-2-1v2l-9 13 2 3-1-1-3 1 2 1h-1l-4 7v2l-4 1v1l5-1h2v-1l-2-1 6-3 4-6h1l-1 2 1 1 13-10v-3l-10 6-2-1v2h-4 2l11-17q4-2 1-4Z"/><path fill="#82817f" stroke="#82817f" d="m602.5 449 5 3 1.5-.5-2 4 3-1-1.5 2.5-8.5-4.5zm98 1 .5 2.5-3.5 7.5-.5-1.5zm-256 3 4.5 2.5-3 1 2 1-.5 2.5-6-4 1.5 2.5.5 1.5 2.5.5-4 1 14.5 7.5.5-2.5-2-1 2-1-8-5 .5-1.5 5.5 1.5 1.5 3.5 3-2v2l3-1v1l-1.5.5 2 3-1.5-.5-4-1 1 2 1.5.5-2 1 4.5 2.5 1-2 1.5.5v2l.5 1.5 1-2 1.5.5-1-2 .5-2.5 2.5 1.5-2 4 3.5 2.5 2-3 1.5.5-.5 1.5-4 3-9-5-2.5 1.5-.5-2.5-2-1-2.5 1.5 1.5 2.5 3.5 1.5-1 2 1.5-.5 8 4 2-3 .5 1.5-1 2 3-1 .5 2.5 6 2 1.5-.5-1.5 3.5-7-4-3 1-8.5-5.5.5-1.5-3 2-1-3-3.5-1.5-.5-1.5-2.5 1.5 1.5 2.5 5.5 3.5q-3.2 2.3 2.5 4.5l4 1v-2l11.5 6.5.5 2.5 2.5-.5-2-1 1.5-.5 17 5 2-1 20 2 1.5-4.5v-2l.5-1.5 1 4 5 1v-1l-1.5-.5 1.5-.5 4 1v-1l-1.5-.5 8.5-2.5 1.5 2.5-19 5 2.5.5 10-1 3 1 3.5-1.5.5-1.5 1.5 5.5-2.5-1.5-8 2h-2l-9-1-.5 1.5.5 1.5-2-2-16-1-3-2-6 1-4-1v1l3.5 1.5-1.5.5-6.5-2.5-.5-1.5-2 1-11-3-7.5-5.5-.5-2.5h-2l-2.5-1.5.5-1.5-6-4 .5 1.5.5 1.5 1.5.5.5 1.5 1.5.5 6.5 7.5 24 11 39 7h2q8.9-1.9 12.5 1.5l-7.5.5-12-2h-2q-25.3-1.7-44-10v1l13.5 8.5-1.5.5-1-2-23-12-11.5-9.5 1.5-.5 2 1-.5-1.5-.5-1.5-6-4-2.5 3.5q22.2 24.8 59 35l-2.5.5q-36.1-10.4-58-35l-11 13-.5-1.5 11-13q-6.6-3.3-4.5-6.5l-2 1-21.5-13.5 2.5-.5 10 2v-1l-6.5-1.5 5.5-.5 4.5 1.5.5 1.5 4.5-1.5q-3.8-4.7-13.5-3.5l-3 1v-1l6-2h2l7.5.5-1 2 11 5 .5 1.5 3 1 5 2 .5-2.5-17-8 6-2-4-3 1.5-.5h2l2.5-.5zm-5.5 14 2 2 1 3 2-1 5 4 1-2-2-2h-2l-2-1-1-1zm-12 1q1 5 9 6v-1zm11 5-3 3 8 4-1 2h2l1-2-1-1-1-1-4-3v-1zm-23.5-19 10.5.5-10.5.5zm-12 1 4.5 7.5-1.5.5zm83 0 4 5 1.5-.5-.5 1.5 2-1 8.5 4.5-.5 1.5-12.5-5.5-.5-1.5q-1.7 2.8-3.5-1.5zm113 0 6.5 2.5-5.5 8.5-2.5-1.5-.5-1.5-1.5-.5-.5-2.5-1 2-.5-1.5 4-2-2-1zm-224 3 .5 1.5-.5 1.5 1.5.5 1 3-.5 1.5 1.5.5 1 2-1.5 2.5-2.5-5.5.5-1.5-1.5-.5-1-4z"/><path fill="#82817f" stroke="#82817f" d="m470.5 458 .5 3.5-2.5 1.5-4.5-2.5 1.5-.5 4 2 .5-1.5zm194 0 2.5 3.5h-1l-.5-1.5-.5 2.5 1 5-1.5.5.5-1.5-.5-1.5-1.5.5zm-270 1 2 1 1.5-.5-1 2h2l5.5 6.5 1.5.5-2.5.5-1-2-2.5-.5-.5-2.5-1.5.5zm-15 2 1.5 8.5-2 1 1-5zm-21 2 3.5 9.5-2 1 1-3h-2l-2-6zm337 0 .5 2.5-3.5 10.5-1.5-.5 3-5v-2zm-289 1 11.5 8.5.5 1.5h2l3.5 2.5-1.5.5-11.5-7.5-.5-1.5-1.5.5.5-1.5zm97 1 4 1 2-1 4 1 4-1 2.5 1.5-1.5.5h-4l-11.5-.5zm-156 1 1.5.5-2 1 3 2 .5 1.5 1.5-.5-.5-2.5-1.5-.5 1.5-.5 2.5.5v2l1 3h-1l-.5-1.5-4 1-1-3-2.5-1.5zm136 1 20.5 3.5-.5 1.5-3-1-5 1h-2l-2.5-.5-1.5-2.5-1 2-3.5-.5 1-2zm79 0-.5 1.5 1 2h-2l-.5 2.5-3 1-1-2 3.5-.5-.5-1.5-1.5.5zm-234 2 1.5 2.5 1 3-.5 3.5zm244 0 1.5.5.5 1.5 1.5.5-3 2 2 1-2.5 1.5-2-1-1 3v-2l-2.5-1.5-1-3zm-236 1 5.5 14.5h-2l-1.5 3.5.5-1.5-1.5-4.5-1 2-.5-1.5 2-3-1.5-.5-1 2-.5-1.5 1-2h-2l1.5-3.5 1 3 .5-3.5zm51 0 2 3 1.5-.5-1 3 3.5 9.5 1-3 .5 7.5 6.5 12.5 2-1-.5 1.5 12.5 22.5 1.5.5.5 1.5 14.5 11.5.5 1.5 1-2 3.5 1.5 1.5 2.5 2-1 4 5 1.5-.5.5 1.5 1.5-.5-1 2 2.5.5v-2l2.5 1.5-.5 1.5 2-1 1.5 2.5-1.5-.5-8.5-2.5-.5-1.5-1.5.5.5-1.5-3-1q-1.8 2.8-3.5-1.5l-1-3-.5-1.5-1.5.5 2 3-2.5-1.5-11-8h-3l8 10-2.5.5 2.5 3.5-7-4 1 2 5.5 3.5-1.5-.5-7.5-4.5-.5-1.5-9.5-7.5 1-1-5-5 2-2-2.5-4.5q-2.2 3.3-4.5-2.5l6 2-2.5-3.5-2.5-.5 1-2-1.5-.5q-2.7 2.9-5.5-1.5l5 1-1.5-2.5q-1.7 2.7-3.5-1.5l1.5-1.5 6.5 6.5 1.5 2.5.5-1.5-1-2 2 1 1 2-.5 1.5 1.5.5-.5 2.5-1.5.5 7 4-7.5-16.5-1.5.5v-3l-5.5-6.5-1.5-.5.5-1.5-1.5-.5-.5-1.5-4.5-3.5q1.5-3 3 0l-.5 1.5 5 4 .5-1.5-9-18zm31.5 65v4h2l-1 2 5 2v-2zm-37.5-64 3.5 9.5-2 1 1-2-3-1h2l-2.5-4.5-1.5.5-1-2z"/><path fill="#82817f" stroke="#82817f" d="m410.5 471 20 28 4.5 3.5-1.5.5q-2.3-5.2-4.5-1.5l-3 7q22.6 19.9 60 25l-4.5.5q-23.1-3.4-39.5-13.5l-.5-1.5h-2l-14-9-.5 1.5 8.5 11.5 1.5.5 2.5 4.5 6.5 3.5-.5 2.5-3.5-2.5.5-1.5-2 1-16-12-.5 1.5 1 2-1.5.5-4-8-2.5-1.5-10-14 2 1 1.5 2.5 1.5-.5.5-2.5 1.5.5-2 4 10.5 11.5 1.5-.5 1-5-4.5-8.5-3.5-2.5.5-1.5-2.5-1.5.5-1.5-2.5-1.5.5-1.5-2.5-1.5-1-2 1.5-.5 14 18 3.5-2.5 2-5q-12.4-11.4-18.5-27.5Zm14.5 41-2 6 8 5 1 3 2-1zm55.5-40 1.5.5.5 2.5 1-2 2.5 1.5-5.5 6.5-7-3-1.5.5 6.5-4.5v1l-3.5 1.5 6.5 2.5 2-3-2.5-.5z"/><path fill="#82817f" stroke="#82817f" d="m401.5 473 1.5.5 6 13-1.5.5zm175 0 1.5.5 2 5-3.5 5.5-2-1-3 5-1-2-2.5 1.5 1 2-3 2 1.5-2.5-7 4v-2l-3.5-1.5 2.5-.5 7.5-3.5-2.5-.5h-2l-1.5.5-1.5 2.5-3.5-.5-2-5 3-1-.5-1.5 2-1q3 1.5 0 3l-1.5.5 8.5 1.5 9.5-4.5-2-1 5-2zm87 0 1 2 1.5-.5-1.5 3.5-1-2-.5 2.5 1 2h-1l-.5-1.5-5 10-1.5.5.5 1.5q-3.2-1.7.5-3.5zm-317 1 1.5.5.5 1.5 1-2 4.5 1.5v2l1 2-5.5 3.5-2.5-5.5.5-1.5-1.5-.5zm195 0 2.5.5.5 1.5 2.5.5-2.5.5h-2l-7.5 2.5.5 2.5 5-3v3l-2.5.5 2.5 1.5 3.5-2.5-1-2 1.5-.5 1 3 2.5-1.5-.5-1.5 3.5 1.5-.5 1.5-12 5-.5-2.5-.5-1.5q-1.7 2.8-3.5-1.5l-1-2 3-2 1.5-2.5.5 1.5-.5 1.5 5.5-2.5z"/><path fill="#82817f" stroke="#82817f" d="m561.5 474 4.5 2.5-1 2 3 1-5.5 2.5-2.5-3.5 2.5-.5 2.5-.5-4.5-1.5-1.5.5.5-1.5zm-73 3 .5 2.5-1.5 4.5-4-2-1.5.5 3.5-1.5 2.5-.5 1-2zm-158 2 1.5.5 5 23-1 1 5.5 5.5 2.5 1.5-1.5-.5-4-3-1.5.5-5-7 2.5 1.5 1.5-.5zm160 1 1 2 4.5-.5.5-1.5 1.5 4.5-1.5-.5-7.5-1.5zm15 0 8.5 4.5-4.5.5v-1l1.5-.5-2.5-.5-2.5 1.5.5-2.5 1.5.5-.5-1.5zm13 0 10.5.5-10.5.5zm-160 1 1.5 4.5q-2.5-3.5-5 1l-.5 2.5-1.5.5-.5 1.5-1.5-3.5 1-2 .5-2.5 2 3zm165 2 2.5 1.5.5 4.5 7-4 2.5 3.5-1.5-.5-8 2-2-6zm29 0 2.5 4.5-15 6-.5 5.5-.5-9.5zm-66 2 2.5.5-1 2 8.5 3.5 20.5 3.5-.5 1.5-3-1-1.5.5-.5-1.5-8 1v-1l2.5-.5-3.5-.5-10 2-7.5-2.5 3.5-.5 7 2-1-2-14.5-4.5 2.5-1.5 3 1zm-83 4 1.5 8.5h-2l-.5 2.5-.5-3.5 1-2v-2z"/><path fill="#82817f" stroke="#82817f" d="m554.5 489 2 3 2.5 1.5-1.5-.5-2-1-14 6 1-2 1.5-.5.5-1.5 2 1 2-3zm-230 2 4.5 3.5-.5 1.5 2.5 1.5-.5 1.5-4-6zm30 0 1 4 1-4 1.5 9.5-1.5.5-.5-1.5.5-1.5-1.5-.5-2-5zm300 0 1 2-1.5.5-1 3-.5 1.5-1.5-.5 1.5-2.5 1.5-.5v-2zm-10 1 1 2-1.5-.5 1 3-4 1zm-285 1 1.5.5.5 1.5 2.5-1.5-3 7 2 1 .5-1.5 2.5-.5-1-2h1l5 9-1 2h2l-2.5 1.5-1.5-2.5 1-2-2.5-4.5-1 4-1-3-1 2-2.5.5 1.5 2.5-2.5-.5v-2l1-3h-2l1-6zm10 1 4.5 6.5-2 1zm11 3 3.5 1.5-1 2 3 1h-2l1 2-1.5.5zm172 0 2.5 1.5-4.5 2.5v-3l2 1zm128 0 2.5 1.5-3 1 2 1-.5 2.5-2.5-3.5zm-30 2 1.5.5-11.5 16.5-2.5 1.5-.5 1.5-2.5-.5 3-2 .5-2.5q2.3 3.3 4.5-2.5zm-153 3 14.5 3.5-.5 1.5-13-3zm87 0-1.5 2.5-16 27 3 1h-2l-.5 1.5-1.5-.5-9 13 2 1 .5-1.5 1 2-5 2 1.5-4.5 5.5-11.5 2.5-1.5 16.5-28.5zm-148 1 1 2 8.5 5.5-.5 1.5-9.5-7.5zm142 3-5 6zm-240 3 7.5 22.5h-1zm49 1 5.5 3.5zm-7 1 2 4 1.5.5 3 5-4-3-2-3 .5-1.5-1.5-.5zm67 0 7.5 4.5-.5 1.5-7.5-4.5zm-76 1 4.5 2.5 7 9-2 7 2 1 .5-3.5 1.5-.5-1.5-2.5 5 6 1.5.5 2 3h-2l2 4h-3l.5-1.5-1.5-.5-.5-1.5-11.5-7.5 1.5.5 1.5-.5-3.5-2.5-1.5.5 1.5-2.5-2-1-1.5.5.5-1.5-1.5-.5 1-2-1-3zm1.5 1-1 3h2l-1 5 3 1h2l-1-4h-1v-1l-1-2zm277.5 1 3.5.5-2.5 1.5-1.5-.5-2.5 3.5 1.5-2.5zm-95 1-3.5 4.5-1 2 2 1-4 2-13 19 1 2-1.5.5v-2l-2 1 2.5-3.5q7.7-15.3 19.5-26.5Zm-99 1 1.5.5.5 1.5h2l2.5.5-.5 1.5-6.5-2.5zm201 0 1.5.5-19.5 24.5-.5-2.5 8-7-1-2 8-7zm-300 1q3.5 2-1 4l-2.5-.5 4-2zm36 1 7.5 5.5-4.5-1.5zm253 2 1.5.5-1 2 .5 1.5-1.5.5 1 2-5.5 5.5-1.5-.5-.5 1.5-3.5 2.5-.5 1.5-.5-1.5 10-12-6 4zm-176 1 27.5 4.5-10.5.5-5-1-11-2zm153 3-5 6-1.5.5-6.5 7.5-7 5 1-2 1.5-.5 5.5-6.5zm-124 1 12.5.5-12.5.5zm39 1 1.5.5-3 2-1.5 2.5-2.5 1.5-10 13 5 1-9 4-2 3 10 1 .5 1.5 2-1v1l-2.5 1.5-1.5 2.5-.5-1.5 1-2-2.5-1.5h-15l-6 4 1-3-2.5-.5q4.3-3.7 14.5-1.5l1.5-1.5 2.5-4.5 1.5-.5 10-14-2.5-.5-9 5-5-1-4 2h-2l-33 2-2-1v2l-8.5-2.5 9.5-.5 4 1h2l4-1h2q22.3 1.3 36-6l3 1zm-176 1 1.5.5 6 10-.5 1.5 3.5 2.5-3 1 2.5 1.5 2.5.5-3 1 3 2-1.5-.5-2.5-1.5.5-1.5-2.5-1.5.5-1.5-2.5-1.5 1-2-3-1 1-3-3-1h2z"/><path fill="#82817f" stroke="#82817f" d="M429.5 528q9.9 8.6 24 13l-1-2-4.5-2.5 1.5-2.5 14.5 4.5-.5 1.5-10-2v1q17 9.5 39.5 13.5l.5 1.5 2.5-.5-.5-1.5 4.5 1.5-6.5 1.5-3-1q-25.1-3.9-44-14l-14-8zm239 0q5.5 3-1 6l-1.5.5-.5 1.5-1.5.5q2.8 1.8-1.5 3.5l-2.5.5 1.5 2.5q-2.2-4.2-4.5.5 3.2 2.3-2.5 4.5l-1.5-1.5 13-13 .5-1.5 1.5.5-1-2zm-108 4-.5 1.5-1 2 1 2h-2l-.5 1.5-1.5-.5-.5 1.5-1-2 3.5-1.5zm71 0-5 6zm-254 1 2 3 1.5.5 1 2-1.5-.5-4.5-3.5zm244 0-5 6zm-238 3 1 3 2-1 4.5 3.5-2 1 2 1 3.5 5.5.5-3.5-2.5-3.5 7.5 5.5-1.5-.5-1.5.5 1 3-2 1 1.5 2.5 1.5-.5-.5-1.5 2-1 2 3 1-2 1.5-.5-.5-1.5 1.5 2.5-1 3 1.5 2.5-3-4-3 1-1.5-.5-.5 1.5-8-11-2 1-2.5-3.5 2-1-1.5-2.5-1.5.5v2l-.5 1.5q-3.1-1.6-1-7Z"/><path fill="#82817f" stroke="#82817f" d="m655.5 538-1 2-1.5.5q3.3 2.3-2.5 4.5l-3 2 2.5-3.5 3.5-4.5zm-19 1 1.5 3.5-8.5 8.5-1.5.5-.5 1.5-.5-4.5 2-1-1 2 2.5-1.5 1.5-.5-2-1 .5-1.5 1.5.5zm-42 5-.5 1.5-3 4 1.5.5 1.5-.5-3.5 2.5 1.5-4.5zm-226 1 4 5 2 1 1.5-.5 1 2-1.5-.5-6.5-4.5zm120 0 29.5 2.5-6.5 1.5-3 3 1.5-2.5-.5-1.5-17-1zm41 0 4.5 1.5-4 6 6 2-3.5.5-4.5-1.5 4-6-3-1zm91 0-4.5 5.5 1 1q1 8.5-4 11l3-1-3.5 2.5-.5-2.5 2-3-1-2q3.8-1.7.5-3.5l-1.5.5zm19 1-9 10-1.5-.5 2-1 .5-1.5zm-260 1 8.5 7.5-7-4 .5-1.5zm272 0-2 5-2.5.5 1 1-4.5 4.5q-.7-5.5 8-11Zm-101 1 3.5.5-6 2 2 1-2.5.5-2.5-1.5zm106 0q4 2.5-2 5l-1-1-4.5 4.5 1 1-6.5 6.5 3.5-4.5-1-1zm-301 2 7.5 8.5-3.5-.5-1.5-.5v-2l-1.5-3.5-3.5.5zm268 1 2.5.5-1.5 3.5-3-1-.5 1.5q3.3 2.2-2.5 4.5l1.5-4.5 1.5-2.5 1.5-.5zm-39 1v2l1.5.5-2.5 1.5-2-1-4.5 3.5zm-173 2 6.5 4.5h-2l-1 3 3.5 2.5 2-1 2 3 1.5-.5-.5-1.5 2 1v-2l5.5 3.5-1.5.5-1.5-.5.5 1.5 2.5 1.5-1.5-.5-2.5-1.5-.5-1.5-1.5.5.5 1.5-2-1-1 3-3.5-2.5 2-3-1.5-.5-4 2-.5-1.5-.5-2.5-1 2-2.5-.5-.5-1.5-1.5.5 1-2-1.5-2.5 2 1 1.5-3.5zm199 0-.5 1.5.5 1.5 1.5-.5-.5 2.5-1.5-.5 1 5h-1l-.5-1.5-2.5 4.5q2.7 1.8-1.5 3.5l-.5-2.5.5-1.5 1.5-.5-1-3 1.5-3.5 1.5.5-1.5-2.5-2.5 4.5-.5 2.5-2-1-.5 1.5 2 1-.5 2.5-2-3-.5 2.5 2 3-2 1 .5-1.5-1.5.5-.5 1.5-.5-2.5 2-1-1.5-3.5-2.5 1.5 1 3-1.5 3.5-4 2-.5-1.5 3-8-.5-1.5 2 1 1-3 2 1 2-4 1 3 2.5-1.5q-3.7-1.8-.5-3.5l1.5.5.5-1.5zm28 0-1.5 2.5-3.5 4.5-1.5-.5 1.5-2.5 2.5-.5zm-259 1 5.5 4.5.5 1.5 5.5 3.5-2.5-1.5-1.5.5-.5 1.5-4-6-2 1q-4.2-1.8-1.5-3.5zm6 0 9.5 7.5 1 2-2-1-1.5-2.5-1 1zm258 5-5 8q-.9-4 5-8Zm-213 1 8.5 3.5 1 2-2.5-1.5zm154 1-2 3-7 3-.5-1.5zm51 1-5 6zm-183 3 8.5 3.5-1.5.5zm15 0 11.5 3.5-3.5.5q-7.4-.2-8-4Zm117 0 1 4-3-2v2q-3-1.5 0-3zm7 0 .5 2.5-.5 2.5-1-2-2 3-.5-1.5 1.5-3.5 2 1zm-23 1 3.5 1.5-.5 1.5-3-2 .5 1.5-.5 1.5-1.5-2.5zm55 0 3.5 2.5-1.5.5-2.5-1.5-1 2 .5 1.5-2-1v2l-2-1-1.5.5zm-240 3-.5 1.5-1 2 .5 1.5-3-4h2zm16 0 2.5 4.5-.5 1.5-1-2-1.5.5q3.8-2.2.5-4.5Zm27 0 5.5 5.5-1.5 1.5-1.5-.5 2-1zm6 1 6.5 4.5-.5 1.5-3.5-2.5-1 2 5 3-1.5-.5-5.5-1.5 1-3zm153 0 1.5.5-2 1 1.5 2.5 1-2 .5 1.5-1 2 .5 1.5-2-1v2l-3.5-1.5-.5-1.5-1 2h-2l-1.5.5.5 1.5-1.5.5-.5 2.5-2-4-4 3-3-1v1l1.5.5-7 4 .5 1.5-1.5-.5-.5 1.5-6 2-1.5-.5-.5 1.5-2.5-.5 1.5-2.5-10 2-1-2q11.7.2 16.5-6.5l-.5-1.5 10-2 4 2 .5-2.5-2-1 1.5-.5h2l4-1 1 2 1-3 1.5.5.5-1.5 1.5.5.5-1.5zm-87 1 22.5.5-22.5.5zm-55 1 1 2 1.5-.5-.5 1.5 5 3 1.5-.5q-3.2 2.3 2.5 4.5l5.5 1.5.5 2.5 1.5-.5-.5-1.5 2.5 1.5-5.5 1.5-4.5-3.5-.5-1.5-1.5.5q2.7-1.7-1.5-3.5l-2.5.5 1.5 2.5 1.5.5-1.5.5-3-5-1 2-1-5-1.5 2.5.5 1.5-3.5-2.5 1.5-2.5 1.5.5zm22 0 9 2 2-1 1 2 3-1 8.5 2.5-5.5.5-3-1v1l7 3 3-1v1l-1.5.5 3.5.5 7-1v1l-10 1-6-2-1.5.5-.5-1.5-9.5-2.5 3-1-9.5-2.5-2 1v-1zm157 0-.5 1.5-12.5 14.5 6.5-7.5-1.5-1.5-1.5.5 4-2 1.5-2.5 2.5-.5zm-237 3 8.5 7.5.5 1.5 2.5.5-.5 1.5-1-2-2.5-.5-.5-1.5-4.5-2.5z"/><path fill="#82817f" stroke="#82817f" d="m452.5 576 3.5 1.5.5 1.5 2-1v1l-2 1-2-1-1.5.5 1-2zm96 0 1.5.5-.5 1.5-1.5-.5.5 1.5 1.5.5-2.5.5-2-1v2l-4.5-.5 3-1 .5-1.5zm-46 3 20 2 2-1-1 2-18-1zm158 0-4 5-2.5.5-2.5 3.5q-3-1.5 0-3l1.5.5 2.5-3.5zm-241 3q-5 3.5 0 7l-3.5.5 2-2-1.5-4.5zm162 0 1.5.5-8.5 4.5-.5-1.5zm-155 1 4.5 2.5-.5 4.5-1-3-2 1 1-3-3 2zm36 0 3.5 1.5.5 1.5 2.5-1.5-1.5 3.5-1.5.5.5 1.5-1.5-.5 1-2-1.5-3.5zm20 2 1 3 6 2 3-1 19 3 7-2 7 1 8-2 5.5 2.5-3.5.5-5-2-12 4h-7l-2-1h-2l-10-1-1 2 2.5 1.5-2.5.5-1.5-.5q3.2-2.2-2.5-4.5-9 .5-12.5-4.5z"/><path fill="#82817f" stroke="#82817f" d="m474.5 587 1 2 1-2 2.5 1.5-4 2 4.5 1.5v-1l-1.5-.5 2-1 .5-1.5 2 3 3 2 1.5-.5.5 1.5 2-1v1l-4 1-3.5-1.5-.5-1.5-1.5.5.5 1.5-5-1-1.5-.5-.5-1.5-1.5.5 3-2zm100 6 2 3-2-1 1 2 4.5 1.5-2.5.5-3-2-.5 1.5 2 1-2.5 1.5-.5-2.5 1-2-2-1 .5-1.5 1.5.5zm11 0 4.5 1.5-3.5 1.5v-1l1.5-.5-2.5-.5-2 1v-1zm-142 1v2l3-1-1 2-4 1 .5-1.5zm64 1 10.5 1.5-8.5.5-2-1-4 1v-1zm31 8 2 1 3-1 1.5.5-2 1 4.5 2.5 2.5-1.5-.5 1.5-2 1-3 1-2.5-.5q3.8-1.8.5-3.5l-1 2-1-2h-2l-1.5.5-.5 1.5-1-2-4 2-1-2-3 2 2-3 2 1h2l2-1zm-39 5 .5 1.5q-3.7 1.8-.5 3.5l1.5-.5.5-2.5 3-1 1 2 1.5-.5-2.5.5-1.5.5.5 1.5-3 1-2.5-.5-.5-1.5-3 1 1-3-3 1 1-2 4 2zm9 1h2l3.5.5-6 3-.5 1.5-1.5-.5zm16 0 2 1 3.5-.5q-2.2 4.8-4.5.5l-1.5.5-.5 2.5-1.5-.5zm11 0 3.5.5-2.5 3.5-3-1-1.5.5zm9 11 .5 5.5h-1l-.5-1.5-1 3-.5-2.5zm-62 5 1.5.5.5 1.5 1.5-.5-.5 11.5-2.5-9.5zm28 1 1 2-8 2-.5-1.5zm35 1 .5 14.5h-1zm-44 2 .5 1.5-6.5 3.5-.5-2.5 1.5.5zm-2 7 2 1 2.5.5.5 4.5 1.5.5-2.5.5-1-5-1 2-1-3-.5 3.5 2 1-.5 2.5-2-3-.5 3.5 1.5 2.5q-5.8-2.3-2.5-4.5zm32 1 1.5.5v2l1 7-1.5-.5-2.5-1.5.5-2.5 1.5-.5zm-16 4h2l1.5.5-2 1 1 3h-3zm5 1 2.5 1.5.5 1.5 1.5.5-2.5.5h-2l-1.5-.5 3-2zm-7 4 1 2 6-1 .5 1.5-1.5.5h-2l-4.5-1.5zm14 2 1.5.5 1 3-1.5 2.5-4-1h-2l-2 1 .5-1.5.5-1.5 3.5.5.5 1.5 1.5-.5 1-3zm5 0 2.5 1.5-1 2 3 2-2 1 3 1-.5 1.5-3.5-.5-1-5 .5-1.5-1.5-.5zm-47 11 2 1 1.5-.5 1 7-2-1-1.5-5.5-.5 1.5.5 1.5-2.5-.5zm5 0 2.5.5.5 2.5 2-3 2.5.5-2 1 1.5 3.5 1.5-.5-1-2h1l1 4-1.5.5h-2l-1.5-.5-.5-3.5-3.5.5zm34 1 4.5.5.5 2.5 2.5-.5.5-2.5 5.5 1.5-2 3 .5 1.5-3-1-1.5.5-.5-1.5-1 2-1-2-1 2-1.5-.5.5-1.5 1.5-.5q-2.2-4.7-4.5-.5l-1.5-.5 2-1zm-23 2 1 3 6.5.5-6.5.5z"/><path fill="#82817f" stroke="#82817f" d="m519.5 663 6.5 1.5-.5 1.5-8.5-.5 4-1zm20 0h4l1.5.5 1 2-4.5-1.5-2.5 1.5zm-5 9 7.5.5-4 1 2.5 1.5 1.5-.5-.5 2.5zm21 3 2.5 2.5v29l-1.5 4.5-.5-5.5v-2l1-4-1-5 1-3-1-8v-2zm-70 17 2.5.5-1 4 1 2-2 1v-2l-2-3zm32 0-2 3-2.5.5-.5 1.5-2.5.5 2 1-2 1 3 1-1.5 3.5-2 1-3.5-2.5 1.5.5 1.5-.5-.5-1.5 1.5-.5-3-2 4.5-4.5zm0 5 .5 4.5-.5 2.5-1.5.5-1.5 2.5v-3l1.5-.5-2-1 1.5-.5 1.5.5-1-2zm-50 1 1.5 11.5-1.5 2.5-1.5-12.5zm10 0 1.5 12.5v4l-3 3q1.4 12.9-2.5 20.5l-.5-5.5 2-3-1-4v-2l1-5h-4q1.8-4.2 3.5-1.5l3.5-2.5-1.5-.5-1.5.5zm10 3 1.5.5-1.5 6.5-1.5-.5 2-1-1-3zm16 2 1.5.5-.5 1.5-1.5-.5-.5 2.5-1.5-.5 1.5 2.5 2-1v1l-2 1-3.5.5.5-1.5 1.5-.5-1-2zm24 5 1.5.5-1 2 2 1-1 3h2l-.5 1.5-2 1-1.5-6.5zm-3 1 .5 2.5 1 2-1.5 2.5-1.5-2.5.5-1.5-1.5.5-.5 1.5-1.5-.5 4-3zm27 2 .5 2.5-1 2-1 3-.5 5.5-.5-7.5zm-50 2 2 1 1.5-.5-.5 2.5-1.5.5-1.5 2.5.5-1.5-.5-1.5-1.5.5.5-1.5 1.5-.5zm14 4 .5 1.5-1 3q-1 8 3.5 10.5l1.5-.5-1.5 3.5-3-4-1 4-.5-3.5 2-3-2-1 1-7-1-2zm-9 1 .5 2.5-.5 3.5-3-2-1.5.5 1.5-3.5zm22 1 2.5.5-.5 2.5-1.5-.5.5 1.5 2.5 1.5-1.5-.5-1.5.5q4.3 2.3-.5 4.5l-1.5-.5 2-1-2-3z"/><path fill="#82817f" stroke="#82817f" d="m470.5 720-.5 1.5-1 14h2v2l.5 11.5 1.5-8.5-.5-1.5 1.5.5-2.5 14.5-1-2-.5 9.5v2l-.5 3.5-.5-3.5v-2l1-17v-2q1.3-5.7-2-7v-12zm40 0 2.5 1.5-1 3 1 3-.5 2.5-2-4-1.5 2.5-.5 2.5-1.5-.5 1 4h-2l-1.5 3.5-4.5-3.5-.5 4.5-.5-4.5 3.5-4.5 2 3 .5-4.5h-2l2.5-1.5 1 2 1.5-.5-1-3 2.5-.5 1.5-.5-1-2zm42 0 .5 6.5v2l-.5 1.5-1.5-8.5zm-64 2 .5 4.5v2l-1.5 8.5-1.5-.5.5-5.5 1 3 .5-3.5-1-7zm35 0 2.5 1.5-1.5-.5-1.5.5 1.5 3.5 1.5-.5-.5 1.5-1.5.5 1 3-2 1 1-3-2-1-.5 5.5-.5-7.5h2l-1-3zm14 0q3.5 2 1.5 9.5h-1l-1-4v-4zm22 0 1.5 8.5-1.5.5-1.5-7.5zm-94 2-4 5q-1.8-2.7-3.5 1.5l-1.5 2.5-.5-1.5zm65 5 1.5.5-1 5v2l.5 1.5 1.5.5-1 10 1 4-.5 2.5-1.5.5 1 2h-1l-.5-1.5-1.5 2.5 1.5 3.5 1-3 .5 2.5-2.5 3.5-1.5.5-.5 1.5-.5-5.5 2-1q-3.2-2.3-2-9l1.5.5 1.5-.5-1.5-2.5-1.5-.5 4-8-.5-2.5-1.5.5-.5 1.5-1.5-6.5zm-38 4 .5 1.5v4l-1.5 2.5-.5-2.5zm31 2 1.5.5-1 2 1 3h-1l-.5-2.5-2 1 1-2 1.5-.5zm16 0 2.5 3.5-1 2 1 3 1 7h-1l-4-13 2-1zm-43 2 .5 8.5-1.5 2.5-1.5-.5q3.5-1.5 2-8h-1l-2 4v2l-.5 5.5-1.5-6.5zm9 2 2.5 1.5h-2l-.5 3.5-1-3-1.5.5zm4 1 3.5 2.5-3 2-.5 2.5-1.5-3.5.5-1.5 1.5-.5zm10 3 1 4 2-3-1 4-2.5-.5zm-35 2 3.5 9.5-2 1zm31 0 1.5 2.5 1 3 .5 1.5 1.5-.5-1-2 2 1-1.5 2.5-3.5 2.5.5 2.5 3.5-1.5.5-2.5.5 7.5h-1l-1.5-3.5-3.5 7.5 3 6-3 6 4.5-1.5 2-1-1 2-3 2h-2l-2 1-.5-2.5q2-10-4-12l.5-2.5 3.5 2.5-.5-5.5-2.5 1.5.5-1.5-1.5-.5.5-1.5 3 1 2.5-.5 1-4-2-1-.5 1.5-.5-1.5v-2l-.5-4.5-2.5 1.5q1.8-4.2 3.5-1.5l1.5-.5zm-17 3 2.5 5.5-2.5 4.5 1-3-1.5-.5 1-2zm25 0 1.5.5 1 3-2-1-.5-1.5-1 4-.5-3.5zm-29 3 2.5 1.5v6l-3.5 5.5-3 1-1.5-3.5 3 1-.5-6.5-1 2-.5-1.5z"/><path fill="#82817f" stroke="#82817f" d="m507.5 751 .5 5.5h-1l-.5-3.5-2.5 3.5.5 1.5h-2l-3.5 2.5.5 10.5 6.5-3.5-5 6 6 5 .5-1.5.5 1.5-1.5 3.5q-7.5-4.3-6.5-8.5l-.5-1.5-1.5-.5q-2.7-11.7 3.5-14.5l1.5-.5zm16 3-.5 3.5.5 1.5 2.5.5-.5 9.5-1.5-6.5 1-2-1.5-.5-1 4-.5-8.5zm15 1 1 4 2-3 .5 3.5h-2l-.5 5.5zm25 2 7.5 14.5-2-1-1.5-4.5-1 2zm-19 1 2.5 10.5v2l1 6-1.5.5-.5-2.5zm-58 3 .5 2.5-1.5 3.5-1.5.5 2 1-1.5 3.5-1.5-.5 1-3-2-1zm48 1 1.5 3.5v2l1 4-1.5 2.5-1.5-8.5v-2z"/><path fill="#82817f" stroke="#82817f" d="m495.5 763 1.5.5-.5 6.5-2-3-1.5.5.5 1.5-1.5-.5 1 12-1.5.5-1-3-2 1-.5-5.5h1l.5 4.5.5-6.5-1-1 5.5-5.5 1.5-.5zm34 3 1 5 1-5 1.5.5-1 6 1 3-1 3h2l-.5 2.5-2.5.5 5 2-2.5 5.5-1.5-.5-2 5 3.5-2.5 1.5-.5.5-1.5.5 1.5-2 8 2 1 1 3-1 5 5 11-1 2 1 3-2 8h1l.5-1.5.5 1.5-1 2h2l-.5 3.5-1.5.5 1 2h-1l-1.5-3.5-1.5-.5 1-2v-2l-1-3 2-1 1-4-3-2 1-4-1.5-5.5-2 5-5 1 .5-1.5-1-2 2.5 1.5 2.5-.5-2-1 1-4-1.5.5-1.5-.5 1-9-2-5h1l.5 3.5 2.5-1.5-1.5-4.5h-2l-1.5-.5-.5-2.5-1.5 3.5q3.3 2.3-2.5 4.5l-1.5.5-2 3 2 1-1.5.5q-3.2-1.7.5-3.5l.5-2.5 2.5-.5-1.5-2.5-2.5-1.5-1-2q2-3.2 4 0l2.5-4.5 2.5 1.5-2 1 2.5.5 1-3 1.5-.5-2-1 1.5-.5 1.5.5-1.5-3.5-1 2-1-2-1.5-.5.5-1.5-2.5.5 1 3-2 1 1-3-.5-3.5q1.8 2.7 3.5-1.5l-1-7 2-1zm10 1 3.5 1.5-.5 1.5-1.5.5-.5 2.5-.5-2.5zm-58 3 1.5 4.5-1.5 5.5-1.5-2.5 2-3zm56 3 1.5.5v2l1 7-2 1 .5 1.5-1.5-.5 1-7zm-52 2 .5 4.5-2 5v2l-1.5 10.5-.5-2.5q-1.3-8.3 2-12v-2l1-2v-2z"/><path fill="#82817f" stroke="#82817f" d="m493.5 778 3.5 1.5-2 6 1 8-4-1 1-2-2.5-1.5-1.5.5 1-3-2.5-1.5-1 2-.5-2.5 3-1 .5-3.5.5 3.5-.5 1.5 1.5-.5 1.5-2.5 1.5-.5zm51 1 .5 5.5-1 3h2l-2 4h2l-1 6v2l.5 2.5 3.5-2.5q-3.7-1.7-.5-3.5l1.5.5-1 2 2 1 1 10v2l-1 7 2 1-.5 5.5-1-4-1 3-.5-2.5v-2l-.5-3.5-1.5 3.5-.5 2.5-1.5-3.5 1-3 1-4-1.5-2.5-1.5-.5 2-1 .5 1.5 1.5-.5v-2l1-3-2.5 1.5-2 1-.5-1.5-1-3-1-8v-2l-.5-2.5-1.5.5zm-35 3 4 1 1.5-.5-.5 4.5-1-2-1.5.5.5-1.5z"/><path fill="#82817f" stroke="#82817f" d="m548.5 784 .5 1.5v2l1 4h-1l-.5-1.5-1 4-.5-8.5zm-50 2q10 5.5 2 11-3.8-2.3 1.5-4.5l-3.5-3.5-1 4-.5-3.5z"/><path fill="#82817f" stroke="#82817f" d="m510.5 786-1.5 2.5q-1.8 7.7 2.5 9.5l1.5.5-2 1 .5 1.5 1.5.5-1.5.5-2-3-1.5.5-.5 4.5-.5-6.5 1.5.5 1.5-.5-5-4h2l-.5-2.5-1.5.5 1.5-3.5v2l1.5-.5zm29 0 1.5.5-2 5h2l-1.5 2.5-1.5-.5v-2zm19 3 .5 1.5-2 4h1l.5-1.5 1.5.5-.5 1.5-1.5.5-.5 2.5-1.5-7.5zm-69 4 1 4 1.5.5.5 6.5 2.5-1.5-.5-1.5.5 2.5 1 11-2 1 1.5 2.5q-4.7-2.2-.5-4.5l-.5-8.5-3.5.5-.5-7.5-1 8zm-4 3 .5 1.5-1 2 3 9-1 2h2l-2.5 4.5-.5-1.5 1-2-2 1-1.5 2.5-1.5-.5.5-7.5 1.5.5-1-6zm30 2-.5 1.5 2.5 4.5 2.5 1.5 1 2-2-1-.5-1.5-2 1-1.5-.5 1.5 2.5 1.5-.5-2.5.5-1.5-.5-1-2 2-1v-2l-1-3zm24 0 1.5.5 1 6h-1l-.5-1.5-.5 2.5.5 1.5q-3.6-2.1-1-9Zm20 1 .5 2.5-1.5 7.5-1.5-6.5zm-35 1 1.5.5-.5 8.5-1-8-1 4-.5-3.5zm-18 8 5.5 3.5-4-2-1 6q2-3.2 4 0l-3.5 1.5-1.5-.5zm-4 4-3 4-2.5-1.5.5-1.5q2.5 2.8 5-1Zm22 1 1.5.5 2 6-2-1-.5-2.5-1.5-.5zm-47 1 1.5 7.5-1.5 2.5-.5-1.5 1-4zm43 1 3.5 2.5-.5 2.5-2-3-1.5 2.5 3.5 2.5 1.5-.5q-3.7 1.8-.5 3.5l2.5.5-5 1 2 1-.5 3.5-1-2-2 1-.5-1.5 1-7-1.5-.5q-5.4 2.6-5 11l-1-2q-3.2 1.8.5 3.5l.5 1.5 2.5 1.5.5 3.5-2.5-1.5-.5-2.5-1.5 2.5 1 2-6.5 7.5-1-2-5 3v-3l2 1 3-5-.5 1.5.5 1.5 3.5-2.5-1 2 2-1 2-4-1.5.5-1.5-.5 3-2-2-6v-2l-1-3 3.5-6.5.5 1.5-1 2v2l-1 4h1l3-5-.5-1.5 1.5.5zm-38 1 2.5 1.5.5 2.5 1-3 3.5 1.5-1.5 3.5-3-1-2.5.5 3 1q-1.8 6.8 1.5 8.5l.5-1.5-.5-1.5 2.5 4.5-1 2 .5 1.5-1.5-.5.5 2.5 1.5-.5-2 4 2 1-.5 13.5-2.5.5 3 2-3 1 2 1-1.5 2.5-1.5.5-.5 5.5-1.5-8.5h2l-.5-2.5-1.5.5.5-1.5 1.5-.5-2-1 .5-1.5 2 1-.5-1.5-1-3 1-2h-2l1-13h-2l-1-3v-2l1-2zm3.5 24-1 6 4 6v-5h-1l-2-2 1-2zm8.5-21 2.5 1.5-.5 6.5-1.5.5.5 1.5-2.5-.5-.5-2.5-.5 7.5 1.5.5 2-4 .5 1.5-1 2h2l-.5 1.5-2-1-3 2-.5-10.5 1.5-.5 3.5.5-1.5-5.5-1.5.5zm36 0 2.5 1.5 1 5-1 3v4l1 6v2l.5 2.5 1-2 1.5.5.5-3.5 1.5 3.5-7.5 5.5-2.5-5.5 2-5-2-1 .5-1.5 1.5-.5-2-1 1.5-2.5 1.5.5q-3.9-3.3-1.5-11.5Zm31 0 .5 18.5h-1z"/><path fill="#82817f" stroke="#82817f" d="m503.5 824 5.5 4.5-1 2 .5 1.5-2.5-1.5zm-4 2 .5 2.5 3 5q-2-3.2-4 0l-.5 2.5-.5-3.5 2-1-1-3zm53 3 1.5.5-2 1 .5 4.5 1.5-.5-1 2 2 5-2.5.5-1.5-11.5zm-72 3 1 13 1.5.5-.5 1.5-1.5-.5-1 9h1l.5-3.5.5 3.5-2 7 1 3-.5 1.5-1.5-2.5.5-1.5-1.5.5-.5 7.5-.5-9.5 1-4-1-2 1-6h-1l-.5 2.5-.5-5.5v-2l.5-9.5 2 12 .5-7.5-1-4h2zm43 0 2 1 2-1 .5 4.5-1 2 1 4-2 1 .5 1.5-2-1-1.5 4.5 1.5 2.5 2-1-1 2-1.5.5-.5 4.5v-2l-1.5-.5.5-2.5 1.5-.5-1.5-2.5-1.5.5.5 1.5q-3.2-2 0-4l-5-1q-3 1.5 0 3l2.5.5-3 2 .5-1.5-2.5-.5-.5-3.5-1.5-.5 1.5-.5 2 1h2l2.5-.5 1-5-1.5-2.5 4 3v-2l2.5-.5 1-5-4 3-.5 1.5-1.5-.5.5-1.5 3.5-2.5zm-28 8 1.5 3.5 1 5-.5 1.5-1.5.5-1 9 2 1-3.5.5-1.5-2.5 2-1 1-2-2-1-.5 1.5-.5-2.5 2-1 .5 1.5 1.5-4.5-1.5-3.5-2.5-.5zm39 6 .5 1.5-1.5 4.5-4 1-.5-1.5 2.5-3.5zm14 2 .5 2.5v2l-1.5 5.5-.5-3.5v-2zm-35 4 1 3 1-2 .5 4.5-1.5-.5-1.5.5.5 1.5-2-1-1.5 2.5 2.5 3.5-4-5-1.5-.5 2-1 .5-1.5 1 2 2.5-1.5zm38 0 1.5.5 1 6h-1l-.5-1.5-1.5.5-1-4zm-85 3 .5 10.5h-1zm55 1-4.5 5.5 1 2-1.5 3.5-.5-2.5v-2l1-2-.5-1.5 1 1z"/><path fill="#82817f" stroke="#82817f" d="m521.5 859 1.5.5-1 3-1 2 1 3h-1l-2-6h1l.5 2.5zm29 0 1 4 1.5-.5-.5 1.5 1.5.5q.9 6.9-2.5 9.5l-1.5-6.5h2zm-44 1 1 2 3.5 2.5-2.5-1.5-2-1-1.5.5zm28 0 2.5 1.5.5 1.5 1.5-.5-.5 7.5-2-7-2.5 1.5 3 2 1 6-2.5 1.5-1.5-.5-.5 2.5-.5-2.5 1-2-1.5-.5-2.5 3.5 2 1-2 1 .5 1.5-1.5-4.5 1.5-3.5 3.5-1.5 1-2q-2-3.5-4 1l-.5 1.5-1.5-6.5h1l.5 4.5 4.5-5.5zm-31 5 .5 2.5 2 3 .5 3.5q-2.7-5.4-5.5-3.5l3-4zm9 0 .5 1.5-2 3 2.5-1.5 3 1 1.5-.5-3.5 2.5v-2l-3 2h-2l-2 1-.5-2.5 1.5-2.5 1 2zm-31 3 .5 5.5-2 1 2 1-.5 1.5-3.5-1.5q4-1.5 3.5-7.5Zm42 0 1 4 1.5.5-1.5.5-5.5-3.5 1.5-.5 2 1zm-55 2 2.5 12.5-1.5.5zm21 0 2.5.5-1 2 1.5 2.5-1.5-.5-1.5-3.5-1 3-2.5-.5.5-2.5zm21 2 2 4 3 1 1-2 .5 1.5-1 2 2.5 1.5h2l2.5-1.5 1-2-3-2-.5-1.5-1.5-.5 1.5-.5 3.5 2.5.5 1.5 1.5.5-2 1-2.5 8.5.5-1.5-.5-2.5-1.5.5.5 1.5-.5-2.5-.5-1.5-2.5 1.5-.5 2.5-1-5-2.5 6.5 1.5.5 1.5-.5-1.5 3.5v-2l-2-1-3.5 2.5 1-3-2 1-.5 1.5-.5-1.5.5-2.5 6.5-.5-.5-6.5-4.5-3.5zm51 1 1.5.5-1 15 1 5h-1l-2-17zm-64 2 .5 1.5-1 2 4 3-2 1 .5 1.5-2.5-.5.5-1.5-2.5-.5 3-1-2-3z"/><path fill="#82817f" stroke="#82817f" d="m508.5 875 1 2-1.5-.5 1.5 3.5q1.7-3.7 3.5-.5l-1.5 2.5.5-1.5-.5-1.5-3 4-3-4-1.5 2.5.5 1.5-.5-2.5zm44 0 1.5.5-.5 11.5-1-5-1.5.5v-4zm-72 3 2.5 5.5-2.5 1.5-1-2 2 1 .5-3.5zm66 1 1.5.5-2.5 7.5-1.5-.5zm-55 1 1 4-1.5-.5 1 2-4-3h2zm39 2 1 2 1-2 1 2 1-2 .5 1.5-.5 2.5-2.5-1.5 2 4-3.5 2.5-2.5-.5v-2q-1-5.5 2.5-6.5Zm19 4 2.5.5 1 4-1 2 1 2h-1l-1.5-3.5-.5 2.5 2 4-2.5 1.5.5-1.5-.5-3.5-1 3-1.5-.5 2-5-.5-1.5q1.8 2.7 3.5-1.5l-1.5-.5-1.5.5zm-61 1 1 2 2.5 1.5.5 1.5 4.5 2.5-.5 1.5-4.5-2.5-.5-1.5-1.5-.5.5-1.5-2.5-1.5zm11 0q2 4 4 0l1.5.5-1.5 2.5zm46 1 .5 2.5-2.5 6.5-.5-1.5zm-84 4 2.5 4.5q-1.5 3-3 0h2l-1.5-2.5-1.5.5zm46 2 5.5 3.5-1.5 2.5-1-2-1.5.5-.5-1.5-1.5.5 1.5-2.5-2 1zm21 0 4 1 2-1-1 2-2.5.5 2 1-3.5.5.5-1.5-.5-1.5-1.5.5zm-12 4 1 2 1.5.5.5 1.5 2-3-.5 1.5-1.5 2.5-2.5-1.5zm-28 2 1.5.5-.5 2.5-2.5.5 1 2-2 1 1-2-3-1h2l-1-2 1.5-.5 1.5.5zm13 3 3.5 2.5-2.5-1.5-1.5.5.5 2.5 1.5-.5-.5 1.5 3.5.5-.5 1.5-5.5-3.5zm-32 2 1 3 3 2 1-3 .5 2.5-1.5 3.5-2-4-2.5-1.5zm16 3 1 2 1-2 1 3 1.5.5-.5 2.5-2-3-2.5-1.5zm89 2-.5 3.5-3.5 3.5.5-3.5zm-95 10 5.5 1.5-2.5 2.5-3.5-1.5zm56 0 1.5.5-3.5 4.5 1.5.5-3.5 2.5-2.5-3.5 3.5-2.5 1.5.5zm7 7-3 6-2 1-.5-1.5zm-38 10 2 3 7.5.5-7.5.5zm-4 3 8.5 4.5-.5 1.5-5.5-3.5-.5-1.5z"/></svg>