<svg xmlns="http://www.w3.org/2000/svg" viewBox="0 0 1024 1024"><path fill="#090908" stroke="#090908" d="m501.5 329 29 1 18 5q22.9 9.1 37.5 26.5 12.8 15.7 18 39l2 11v10l1 1 1.5 38.5 16 4 6.5 4.5 2 4v11l1 1v85l1 1v20l-1 2 10.5.5 4.5-11.5 6.5-6.5q4.7-3.8 15-2 7.4 2.6 11.5 8.5l5 11 1 16q-2.2 13.3-10.5 20.5-4.7 5.3-16 4-8.3-2.1-12.5-8.5l-5.5-12.5-9.5.5-1 58-4.5 5.5-5 3-15 5-29 6-28 2-1 1-52 1-1-1-35-1-1-1h-9l-1-1h-9l-1-1-12-1-25-7-12.5-8.5-2-5v-53l-1-1v-124l1-1v-16l5.5-6.5 6-3 13.5-3.5 1-43 5-26q8.2-26.3 27.5-41.5 11.1-9.4 26-15l14-4 12-1zm-.5 6-16 3-14 5q-13 6-22 15-14 13-21 32l-4 14-1 12-1 1v13l-1 1v20l1 1v12l-1 1 1 7q6 4 19 2l1-34 1 34h2l1-1v-52q3-2 1-7l4-16 8-14 6-5-9 13-4 10-3 14v9l-1 1v45l2 2 3-2v-21l-1-1v-19l1-1 1-18 5-16 8-12 13-11 14-6 10-2 22 1q15 4 26 13l8 10 8 19 1 11 1 1v13l1 1v39l3 1h2v-27l-1-1-1-30-4-16-5-11v-2q5 4 7 12l5 21v14l1 1v40h3v-19l2-7 1 26q11 1 17-2v-44l-1-1-1-20-7-24-10-16q-13-17-34-26l-13-4-11-1-1-1zm5 35-18 5-12 8q-8 6-12 17l-3 9-1 13-1 1 1 33h22l1-1h61l1 1h19v-36q-2-2-1-7-3-16-12-26-14-18-45-17Zm-22 91-1 1-23 1-1 12-11 5q-7-2-8 1l-12-1-8-3-4-3q1-6-1-7l-15 5-2 3 7 4 20 5 15 1 1 1h12l1 1h15l1 1h19l1 1h40l1-1h25l1-1 28-1 29-5 12-6q-6-7-17-8l-1 7q-4 5-12 6h-19l-10-4q-5-3-3-12l-8-1-1-1h-16l-1-1zm-87 20-1 6 3 2 10 4 29 6v1l-24-3-17-6-1 5 6 3 15 4v1q-13 0-20-5l-2 6 1 132 13 5v1h-4l-8-4-1 7q8 5 20 7v1l-8-1-11-4-1 5 6 3 22 7v1l-15-3-12-5-1 5 8 4 16 5 41 7v1l-16-1-23-4-15-4-10-5-1 4q4 5 11 7l22 6 28 3 1 1 44 2 1 1h25l1-1h15l1-1h12l1-1 17-1 39-8 11-5q3-1 2-5l1-2q-11 7-24 10l-17 3h-8l-1 1-21 1-1 1h-7l5-2 46-6 14-4 13-6 1-2v-4l-16 7-15 3h-5l24-7 12-6v-5l-17 6h-6q13-3 23-9v-5l-12 4h-3l15-7v-6l-8 3h-2q2-5 9-4l1-1v-16l-5-1q0 7-3 10l-9-1-1-7-1-2-2 2v11l-2 2-9-1-2-2v-12l-2-1-4-4q-1-7 1-10l4-3h34l1-1v-96l-5 3-15 4h-3l2-2 17-5 4-3v-5l-14 6-29 5h-13l39-7 14-5 3-3v-5l-14 6-14 3-27 2-1 1h-13l-1 1h-20l-1 1h-52l-1-1h-18l-1-1-24-1-1-1h-8l-22-4zm265 97-4 2q-9 5-10 18l-6 1h-47q-4 1-3 8l5 2 1 2v13h5l1-13 3-2 6 1v8q1 2 5 1v-8l2-2h27l7 16 10 5h4l7-3 6-8 3-11-1-13-4-9-9-8z"/><path fill="#090908" stroke="#090908" d="m492.5 342 2.5.5-6.5 2.5-.5-1.5zm-16 5 2.5.5q-19 9-32 24l-10 16-6.5 18.5-.5-2.5q5.7-27.3 23.5-42.5 9.9-8.6 23-14Zm30 10h13l11 2q16 4 25.5 14.5l-.5 1.5q-9.5-8.5-23-13l-8-2-14-1-1 1-14 1-21 9 2-3 9-5 13-4q6.3 1.8 8-1Zm52 18 6.5 7.5-1.5.5-6.5-6.5zm30 17 5.5 14.5 2 20-1.5.5-2.5-20.5zm7 40 1.5 15.5-1 1-.5 15.5zm-103 32h20l1 1 17.5.5-4.5 1.5h-23l-5-1-1 1-35 1v-1l11-2h18zm-23 7 13.5.5-17.5 1.5v-1zm70 11 26.5.5-9.5.5-1 1-41 1-6.5-1.5 30.5-.5zm81 26 1.5 5.5v42l-1 1-.5 13.5-1.5-7.5v-47zm-217 8 .5 20.5 1 1v45l-1 1-.5 10.5-1.5-8.5v-61zm97 2 4.5.5q-16.5 3.5-25 15-8.4 9.7-9.5 26.5l-.5-10.5q3.8-16.2 15.5-24.5z"/><path fill="#090908" stroke="#090908" d="M505.5 524q12.4-1.4 20 2 9.7 4.3 15.5 12.5l6 14v14q-3.6 13.9-13.5 21.5l-7.5 4.5 8 42 2 5v6l-2.5 2.5h-42l-2.5-1.5-1-6 10-48q-8.6-3.9-14-11-8.1-8.4-8-25l2-9 4-8 6.5-7.5q6.6-5.9 17-8Zm3.5 9-8 2-5 3-3 4 8-4 9-2 15 2 7 4h1q-8-9-24-9Zm-3 5q-14 4-21 14l1 1q8-8 23-11 20 0 30 11v-1q-6-9-16-13-7-2-17-1Zm-7 10q-11 5-18 14 8 10 24 14 10 1 18-1l15-8 4-6q-6-8-14-12l-2 1 1 2q2 11-3 16l-6 4h-11l-2-1-8-9q-2-9 2-12zm18 0-2 1q-3 1-2 6l4 2 3-1 2-4q0-4-5-4Zm-16 3-2 5 1 1q4 1 4-2l-3-1 3-1zm2 6-3 2 1 2 2-1q3-1 0-3Zm1 3-3 2 1 1 2-1-2 3 1 1 3-2-2 3 3 1v-1h1l-1 2 5 1h3l-1-5-3 2-1-1-1-1-4-4zm14 4-3 2 1 3h2v-3l2 1v-1zm-32 5-1 2q7 8 20 11h16q9-3 16-9v-1l1-2q-8 7-20 9l-16-1-13-6zm18 14v1l3 1q9 2 15-1v-1l-4 1zm40.5-50q7.2 5.3 8.5 16.5l-2-1-2-7-5-7zm-74 30 1.5 5.5-2-1z"/><path fill="#090908" stroke="#090908" d="m552.5 567 .5 3.5q-4.2 14.8-15.5 22.5l-3 1 10.5-11.5zm68 12 .5 6.5h-1zm42 2q8.7-1.2 11.5 3.5l-.5 1.5q-2-5-11-3l-8 6 .5-1.5 4.5-5.5zm2 7q6.5-1 8.5 2.5 4.4 5.6 4 16l-2 7-3.5 4.5-8 1q-8.4-5.1-6.5-20.5l5.5-9.5zm.5 4-4 6q-2 10 2 16 1 2 6 1l4-7q1-9-2-13-1-4-6-3Zm-174.5 7 .5 2.5-6 30-3 12-1.5 1.5-.5-1.5 6-30zm107 3 39.5.5-5.5 1.5h-34zm-194 2q3 4.5 1.5 13.5l-1.5 3.5-1.5-9.5zm196 9 .5 7.5h-1zm76 6 .5 1.5-3.5 4.5q-2.3 2.7-8 2v-1q6.6-.4 9.5-4.5zm-277 11 6.5 2.5-3.5.5zm90 23h31l2.5 1.5-7.5 1.5h-16l-1-1h-8z"/><path fill="#fefefe" stroke="#fefefe" d="M.5 0 1024 .5l-.5 1023.5L0 1023.5zM509 328l-1 1h-10l-11 2-13 4q-16 6-27 16-20 17-28 46l-3 16v8l-1 1v39q-12 1-20 6l-5 6q1 4-1 6v40l-1 1 1 132 1 1v18l1 2q5 6 13 9l19 6 16 3h7l1 1 22 1 1 1h16l1 1h56l1-1h13l1-1 18-1 35-7 16-6q5-3 7-9v-42l1-1v-13l9-1 5 14q4 7 15 8l12-3 9-10 4-15-2-15-5-10q-4-7-13-9-10-1-14 3-9 5-10 18h-9l-1-97-1-1v-20l-1-4-7-7-12-4h-4l-2-1v-30l-1-1v-12l-1-1-1-13q-5-27-20-43-13-15-32-24l-20-6z"/><path fill="#fefefe" stroke="#fefefe" d="m508.5 335 23 2 17 5q19 8 31.5 22.5l12 19 6 20 1 15 1 1 1 51-5.5 2.5-11 1-2-29-1.5.5-.5 27.5-2.5-.5v-50q-2.7-1.7-1-8l-4-16-8.5-13.5-.5 2.5 7 16 3 15v12l1 1v40l-2.5.5-1.5-1.5v-48l-1-1-1-13q-5-22-20.5-33.5-8.8-6.7-21-10l-19-2-1 1-12 1-15 6q-10.2 5.3-16.5 14.5-8.2 11.3-11 28 1.8 6.2-1 8l-.5 50.5-2.5-.5v-52q2.5-1.5 1-7 3.8-21.7 16-35l-1.5-.5-9.5 11.5-8 21-1 16-1 1v35l1 1v10l-2.5.5-.5-31.5-1.5-3.5-1.5 7.5-.5 28.5h-8l-9.5-3.5v-48l1-1v-9l3-15q7.9-27.6 27.5-43.5 11-9 26-14l12-3 16-1zm-17.5 7-3 1-1 2 9-1v-1zm-12 4q-13 4-21 11-21 15-28 44l1 6 7-20 8-13q12-17 33-25l1-2zm23 11-15 4-14 9 1 1 14-7 16-4h18l9 2q15 5 26 14l6 7h2l-1-3q-11-13-28-20l-11-3zm86 34 4 19 2 17 2 1-1-19-6-17zm8 40-2 2v24l2 8h1v-31z"/><path fill="#fefefe" stroke="#fefefe" d="M502.5 371q35.6-2.1 49.5 17.5 7.2 8.8 10 22l1 14 1 1v30l-10.5.5-1-1-56-1-1 1h-27q-1.7 2.7-8 1-3.3-8.7-1.5-22.5l1-1v-16l4-16q4.8-12.2 14.5-19.5 9.5-7.5 24-10Zm-1 90h11l2 1h32l1 1 16.5.5q-2.5 12 4.5 14.5l11 3h13l8-2 7.5-4.5 1-5-.5-1.5 10 2 6.5 3.5-1.5 2.5-16 6-18 2-1 1h-9l-1 1-33 1-1 1h-64l-1-1h-18l-1-1h-13l-1-1-19-1-19-4-10.5-5.5.5-1.5 6-3 10-2q-.2 6.7 4 9l12 4h14l8-2 6.5-3.5 1.5-12.5 40-1zm-21.5 3-1 1-16 1-2 2 1 1 23-1 1-1h47v-1l-5-2zm64 1-3 2q1 2 7 1v-1zm-67 5-1 1h-10l-1 2 24-1v-1zm75 11-1 1h-37l-1 1-10 1 1 1h45l1-1 17-1v-1z"/><path fill="#fefefe" stroke="#fefefe" d="m396.5 482 15 6 10 2 24 2 1 1h10l1 1h16l1 1h73l1-1h16l1-1h12l1-1 24-2 13-3 11-5 .5 4.5-14.5 6.5-25 5-13 1-3.5 1.5.5 1.5 26-2 14-3 15-6 .5 4.5-23 8 .5 1.5q13.9-.1 22-6l1.5 94.5-33.5.5-6.5 4.5-1 8 4.5 5.5 2.5 1.5-1 2 1 1v9l2.5 2.5h9l1.5-1.5 1.5-12.5.5 6.5 2.5 2.5 7 1 2.5-1.5 1.5-8.5 4.5.5-.5 15.5-7 2-2.5 2.5 4.5.5 5-2 .5 4.5-14 6 .5 1.5h4l9-4 .5 4.5-3.5 2.5-19.5 6.5q.8 2.3 4.5 1.5l18-6 .5 3.5-12.5 6.5-22 5-1.5 1.5 9.5.5 21-6 5-3 .5 3.5-7.5 4.5-18 6-30 4-1 1h-6l-1 1h-7l-9.5 2.5 14.5.5 1-1h11l1-1h8l1-1 18-2 16-5 9-5 .5 2.5-1.5 2.5-14 6-34 7h-7l-9 2h-10l-1 1h-16l-1 1h-37l-1-1-32-1-1-1h-9l-1-1-21-2-21-5-9-4-4.5-4.5.5-2.5 8 4 18 5 17 3h7l1 1h13v-1l-26-4-21-5-12-4-5.5-3.5-1-3 2.5-.5q10.5 6.5 27 7l-1-2-24-7-4.5-3.5.5-3.5 9 4 10 1-1-2-13-4-5.5-3.5.5-4.5 13 4-2-3-9-3-2.5-2.5.5-4.5 6 3h3l.5-1.5-10-4 .5-129.5q8.3 5.2 21 6l.5-1.5-22-8 .5-4.5 14 6 28 4 1-2-33-7-10.5-5.5zM621 508l-2 2v14l-1 1v30l1 1v15l2 1 1-5v-57zm-218 5-1 38-1 1 1 41 2 2 1-2v-21l1-1-2-57zm100 4q-12 2-19 9-12 9-15 26v8l2 1 3-16 5-9q9-14 28-17v-1zm7 6-12 3-7 4q-11 8-15 24l1 16 8 14 12 9-1 10-8 35v8l5 3h39l3-1 2-3-11-52 11-7q6-6 9-14l2-9q0-17-7-25-9-14-31-15Zm34 9-1 2 6 9 2 7 2 1-1-8-5-8zm-73 30-1 7 2 1q1-6-1-8Zm82 3q-3 12-10 20l-10 9 1 1 5-2q12-9 15-27zm67 13v8l2-1-1-6zm-130 21-10 42 1 5 2-4 5-21 3-15v-6zm-86 4-2 4v13l1 2 2-1v-15zm84 50 1 2 5 1h26l3-1v-1zm43 0-1 2h6v-1z"/><path fill="#fefefe" stroke="#fefefe" d="M505.5 534h12l12.5 5.5-1.5.5q-7.6-5.9-23-4l-13 6 1-2z"/><path fill="#fefefe" stroke="#fefefe" d="M508.5 538q21.7-.2 29.5 13.5l-3.5-2.5q-6.4-5.1-16-7h-13q-12.4 3.1-20 11l8-9q6-4.5 15-6Z"/><path fill="#fefefe" stroke="#fefefe" d="m497.5 549 .5 1.5q-2.8 2.7-2 9 1.9 7.6 7.5 11.5 4 3 12 2 7.2-1.8 10.5-7.5 3.1-4.4 2-13l-2-3 1.5-.5 10.5 8.5-.5 1.5-2-1-.5 2.5 1 3-.5 1.5 1.5-.5 2.5-5.5 1.5 3.5q-6.2 7.8-16.5 11.5l-9 2h-8q-16.6-2.9-25.5-13.5l8.5-9.5zm-10.5 9q-3 6 1 8h1z"/><path fill="#fefefe" stroke="#fefefe" d="m515.5 549 4.5.5 1 4q-.7 3.3-5.5 2.5l-2.5-4.5zm22 21-4 5q-8.9 8.1-27 7-13-2-19.5-10.5l2.5 1.5 14 6 9 1 14-3zm128 8 7 2 5.5 5.5 5 12v12l-5 13-4.5 4.5q-3.6 2.9-11 2l-8.5-5.5q-4.1-4.9-5-13l-2.5-2.5h-27l-1.5 1.5-1 8-1.5 1.5-1.5-1.5q1.1-6.1-1.5-8.5h-8l-1.5 1.5-.5 12.5-3.5-.5 2-1v-9l-1.5-1.5-1 2-1-5q-4.7.8-5.5-2.5l1.5-5.5h40l1-1 13.5-.5 5-13 5.5-5.5zm-1.5 2-5 2-6 7 1 2q3-6 11-8h5l5 4v-2q-3-5-11-5Zm2 7-3 1-5 6-2 7 1 11 2 4 6 4 7-1 5-9q2-12-2-17-2-6-9-6Zm-67 14-3 2 1 1h41l1-1-4-2zm77 17-2 3q-4 5-13 5l5 2 8-3 3-6zm-166.5-34 7.5.5-7.5.5z"/><path fill="#fefefe" stroke="#fefefe" d="M665.5 592q5-.5 5.5 3.5 2.3 4.8 1 13l-4.5 6.5q-4 .5-4.5-2.5l-2-6v-6l2-6z"/><path fill="#8f8e81" stroke="#8f8e81" d="m508.5 328 8.5.5-8.5.5zm-8 7 7.5.5-7.5.5zm15 0 7.5.5-7.5.5zm-69 16-8 9zm130 0 8 9zm-119 6-3 4zm-9 1-3 4zm9 3-10 11zm51 2 7.5.5-7.5.5zm-61 4-3 4zm28 0-1 4-1.5-.5zm30 3 12.5.5-12.5.5zm48 0 4.5 5.5-2.5.5-1-2 1.5.5zm6 5 4 5zm-95 2 1.5.5-2 1q2.3 1.3-.5 2.5l-1-1-2.5 1.5zm82 5 4 5zm-71 1-4 5zm89 2 2 3-2.5-.5zm-149 36 .5 9.5h-1zm37 0 .5 7.5h-1zm7 1 .5 10.5h-1zm111 0 .5 9.5h-1zm7 0 .5 10.5h-1zm-3 1 .5 7.5h-1zm-126 2 .5 45.5h-1zm-3 1 .5 35.5h-1zm155 1 .5 18.5h-1zm7 2 .5 9.5h-1zm-186 1 .5 20.5h-1zm174 1-.5 1.5-.5 24.5-.5-24.5zm1 2 .5 11.5h-1zm-154 8 .5 17.5h-1zm-2 4 .5 28.5h-1zm135 0 .5 27.5-2.5.5v-1l1.5-.5zm6 0 1.5.5-1.5 8.5zm15 3 .5 16.5-1.5.5.5-1.5zm-144 1 .5 21.5h-1zm44 5 27.5.5-27.5.5zm-28 1 13.5.5-13.5.5zm76 0 8.5.5-8.5.5zm39 1 .5 17.5h-1zm-100 5 17.5.5-17.5.5zm33 0 21.5.5-21.5.5zm-49 1 6.5.5-6.5.5zm80 0 7.5.5-7.5.5zm-88 1 .5 10.5h-1zm20 1 12.5.5-12.5.5zm34 0 14.5.5-14.5.5zm18 1 1.5.5-.5 1.5-5.5-.5zm-69 1 1.5.5-2 1 6 1-6.5.5-.5-1.5zm79 0 5 1 1.5-.5-.5 1.5q-6.4 1.3-6-2Zm-147 1-3 4zm20 0q2.5 1 1.5 5.5h-1zm61 0 9.5.5-9.5.5zm1 3 12.5.5-.5 1.5-12-1zm-5 2 6.5.5-6.5.5zm162 3 .5 9.5h-1zm-244 3 .5 11.5h-1zm190 2 13.5.5-13.5.5zm-28 1 15.5.5-.5 1.5-1-1h-14zm-38 1 25.5.5-25.5.5zm-10 1 10.5 1.5-10.5.5zm31 1 14.5.5-14.5.5zm-94 1 6.5.5-6.5.5zm13 1 7.5.5-7.5.5zm111 0 7.5.5-7.5.5zm-95 1 10.5.5-10.5.5zm76 0 10.5.5-10.5.5zm-56 1 40.5.5-40.5.5zm137 2 1.5.5-.5 4.5-1-4-1.5.5zm-169 3 7.5.5-7.5.5zm101 0 6.5.5-6.5.5zm-84 1 9.5.5-9.5.5zm63 0 10.5.5-10.5.5zm97 2 .5 74.5h-1zm-7 2 .5 50.5h-1zm-56 2 8.5 1.5-8.5.5zm-176 4 .5 92.5h-1zm7 9 1.5.5-1.5 10.5zm-14 6 .5 79.5h-1zm104 1 1.5.5-4.5 2.5 1-2zm17 3 6.5.5-6.5.5zm109 1 .5 30.5h-1zm-214 1 .5 11.5h-1zm79 1-5 6zm3 1-6 7zm47 3 7 8zm10 2 3.5 2.5-4-1zm-35 1 6.5.5-6.5.5zm23 11 7.5 8.5h-1l-.5-1.5q-1.7 2.8-3.5-1.5l1-1zm-40 1-4 7-2.5-.5zm10 5v2l2.5.5-3 1 3 1-2 2q3.8 1.8.5 3.5l-1.5.5 3 2 .5-2.5 4.5 5.5-1.5.5-1-2-1.5.5.5 2.5 2.5 1.5-1.5-.5-4.5-2.5 1-2-3-3 .5-2.5 2 1-1-2-2.5-.5zm-100 1 .5 19.5h-1zm68 0 .5 8.5 1 1-2-1zm58 1 .5 8.5h-1zm-39 2-2.5 3.5 1 1 1 5-.5 1.5 1.5.5-1.5.5-1.5-1.5-.5-6.5q-2.8 1.3-.5 2.5l-.5 2.5q-1.7-3.1-3.5-1.5zm47 0 6.5 7.5h-1l-1.5-2.5-3 6-1.5-.5 1-3-1-3 1.5-.5 1.5.5zm-13 1 1.5.5-1.5 3.5-1.5-.5q3.1-1.7 1.5-3.5Zm25 0 .5 7.5h-1zm74 1 .5 10.5h-1zm-216 1 .5 13.5h-1zm135 6-3 4zm79 0 1.5 8.5-2-1zm-107 2 1.5.5-.5 1.5 1.5.5-.5 2.5-5.5-1.5.5-1.5 1.5.5.5 1.5q2.8-1.2.5-2.5z"/><path fill="#8f8e81" stroke="#8f8e81" d="m515.5 565 3.5 1.5-1.5 2.5-1.5-.5 1.5-2.5q-3 .5-2-1Zm-16 1 4 5zm-14 3 3 4 1.5-.5-.5 2.5-4.5-4.5zm23 3 7.5.5-7.5.5zm153 1 7.5.5-7.5.5zm-7 3-5 6zm23 1 4 5zm-58 1 1.5.5-1.5 7.5zm38 2-4.5 5.5-2.5 5.5-.5-1.5zm16 0 6.5 7.5-2-1zm-4 1 5.5 3.5-.5 2.5-4.5-3.5.5-1.5zm-147 1 1.5.5-6.5 2.5 1-2z"/><path fill="#8f8e81" stroke="#8f8e81" d="m658.5 582-3.5 4.5.5 1.5 3.5-2.5-6 5q.7-6.3 5.5-8.5Zm-254 1 .5 9.5h-1zm99 0 5.5 1.5-2.5.5-3-1zm42 2-7 8zm-143 1 .5 6.5h-1zm134 4-2.5 3.5.5 1.5-1.5-.5zm58 4 32.5.5-32.5.5zm0 5 39.5.5-39.5.5zm-7 1 .5 6.5h-1zm69 0 .5 6.5h-1zm16 0 .5 7.5h-1zm11 0 .5 7.5h-1zm-85 1 36.5.5-36.5.5zm39 1 1.5.5q-1.2 2.8-6.5 1.5v-1zm-18 6h27l2.5 2.5-.5 1.5-2-3h-27l-1 1zm-20 3 1.5 1.5v9l-2 1 4 1-4.5.5-.5-10.5zm.5 2-1 8h1zm13.5-2 1.5 7.5-2-1zm4 0 .5 7.5-1.5.5.5-1.5zm-9 2q3 1.5 1.5 7.5h-1l-.5-6.5-1 10-.5-9.5zm14 0 5.5.5v16l-1.5 1.5-1.5-.5 2-1-.5-15.5q-5 1-4-1Zm12 0 .5 13.5h-1zm-245 2 .5 36.5h-1zm270 0 3 4zm14 1-2 3-7 1v-1q7.1 1.1 9-3Zm7 1 .5 1.5-2.5 3.5.5-1.5zm-5 1 1.5.5-1.5 3.5.5-1.5-.5-1.5-1.5.5zm-2 3-1 2-5 2v-1zm4 2-3 4zm-23 1 4.5 3.5-1.5-.5zm-5 2 4 5zm-246 5 2.5 1.5-.5 1.5-3.5-.5 3-1zm223 1 1.5.5q1.3 5.3-1.5 6.5l.5-1.5zm1 9 .5 4.5-2 1zm-135 7 39.5.5-39.5.5zm134 1 1.5.5q1 4.5-1.5 5.5l.5-1.5zm7 0 .5 20.5h-1zm-7 8 1.5.5-.5 3.5-1-3-1.5.5zm-230 8q0 6 4.5 7.5l-5-4zm73 21 8.5.5-8.5.5zm17 1 9.5.5-9.5.5zm48 0 9.5.5-9.5.5zm-32 1 25.5.5-25.5.5zm-33 5 6.5.5-6.5.5zm17 1 11.5.5-11.5.5zm44 0 12.5.5-12.5.5z"/></svg>