<svg xmlns="http://www.w3.org/2000/svg" viewBox="0 0 1024 1024"><path fill="#0b0b09" stroke="#0b0b09" d="m554.5 244 3.5 1.5 1 4q-.7 5.3-7.5 4.5l-1.5-6.5zm-54 1 5.5 1.5 1 2-3.5 6.5-4.5-2.5-1-5zm2 19 3.5 1.5 11.5 29.5 30-31 3.5 1.5v17l2.5 22.5 30-18 1.5 3.5-11 22-11 32-2.5 2.5-3 1-2-1-.5 2.5 16 54 9.5 20.5 4 2h20q27.5-5.5 63-3l50 2 17 4 4.5 3.5 2 8-4 10-12 15-38.5 38.5-53.5 49.5q-5.2 5.3-4 17l26 106 5 37v17l-5.5 11.5-10 1-15-6-29-20-88-81-4-1-25.5 22.5-61.5 63.5-33 27q-5.7 6.8-18 7l-5.5-4.5-1-27 7-44 22-78 6-30-3.5-4.5-29-16-68-48-11.5-10.5-4-9q1.1-7.4 6.5-10.5l14-7 25-8L437 433.5q23.2-58.8 55-109l-3-2 .5-1.5h4l45 17 19 4q7.8-25.7 20.5-46.5l-1.5-.5-21 13-5 1-1.5-2.5-2.5-34.5-4.5 3.5-.5 1.5-2.5 1.5-18.5 19.5-4 2-2.5-1.5-9.5-25.5-1.5.5-7 34-4.5 10.5-1.5-.5zm-5.5 63-20 33-38 73-5 4-13 4-54 14-35 7-38 14-6 7 2 6q50 41 109 74l5 7v8l-7 30-21 74-7 45v19l3 4 13-6 35-29 51-53q14-20 36-32l10 2 50 45v2l46 40 23 15 11 4 5-1 2-5v-23l-5-34-25-100q-3-17 4-24 28-30 60-56 28-24 48-55l-1-3q-5-5-14-6l-28-2-2 1-2-1h-68l-20 3q-14 2-21-2l-10-13-21-70zm96.5-54 4.5 1.5 1 3-2.5 3.5-5 1-1.5-5.5 1.5-2.5z"/><path fill="#0b0b09" stroke="#0b0b09" d="m417.5 398 5.5 1.5 1 9-4 9 1.5.5 10-5 .5 2.5q-2.7 7.8-14.5 6.5l-9 8-11 2-3-1q-5.5 6.5-19 5l-4-3q-5.5 7.5-19 7l-5.5-2.5 1.5-.5 6 2q9.8-1.2 14.5-7.5l-2-7 3.5-4.5 4.5 2.5-2 9 6.5 2.5 11.5-4.5q-4.4-5.1-3-16l5.5-6.5 4-1 4.5 2.5 2 8-6 11 4.5.5 11.5-8.5q-4.5-2.5-3-11zm1.5 4-4 7 2 7q4-4 3-13zm-24 8-4 6q-1 8 4 10l6-10-1-4zm200.5-11 7.5 3.5q1.3 7.3-3.5 8.5l-3 1-6.5-3.5q-1.2-7.2 3.5-8.5zm-49 38q14.7-2.2 19.5 5.5l1 3-2.5.5q-4.7-5.8-17-4l-21 15-1.5-3.5 7.5-8.5zm-100 13q16.7-1.7 23.5 6.5l1 2-3.5.5q-7.9-5.6-23-4l-9 3-1.5-3.5zm106 18q14.1 1.4 20.5 10.5l-1.5 3.5-11-6-.5 2.5 1 5-4.5 5.5-8 1q-7-1.5-5.5-11.5l2-4-1.5.5-15 6-1.5-2.5q8.3-9.7 25.5-10.5Zm-107 2q16.5-2 22.5 6.5l-.5 3.5-7-2q.7 8.2-4 11l-9 1-4.5-3.5-1-6 2-5-1.5.5-13 5-.5-3.5q6.1-5.9 16.5-7.5Zm46 2 1.5.5 1 16q-3 15.5-13.5 23.5l-9.5 6.5-1 2 1.5 2.5q4 3.5 13 2l12-8h6l3.5 2.5 1 2-3.5 2.5-5-2q-6.5 9.5-24 8l-6.5-3.5q-3.2-2.3-2-9l5.5-6.5 10.5-7.5 7-14zm19 35 6.5 3.5 1 9-2.5 3.5-1.5-.5 1-7-3.5-4.5-1.5-.5-1-2zm46 3q11.2-.2 15.5 6.5 4.2 3.8 3 13l-2.5 1.5-8-14-1.5.5q-2.9 14.6-14.5 20.5-24.8 20.2-66 24l-2-1-2 1h-2q-8 .5-11.5-3.5l2.5-1.5 12 1q45.8-4.7 71.5-29.5l9.5-10.5 2.5-1.5-8-3zm127 13q5.5-1 6.5 2.5l-1.5 4.5-5 1-1.5-6.5zm-20 21 2.5.5-13 12-6 15 3.5 5.5 4.5-2.5 5.5-6.5q4.5-6 16-5 3.5 1 2.5 6.5l-6.5 7.5q-6.2 5.8-18.5 5.5-3.4 5.1-2 15l5.5 6.5 5 1 7-12 10-4 4.5 3.5q.5 11.5-7.5 14.5l-11.5 4.5q-.9 13.4 7.5 17.5l2.5 1.5-5.5 1.5-6.5-5.5q-3.8-4.7-3-14l1-2-9-5q-6.2-5.3-4-19l2-5q-7.8-2.7-6-15 3.9-11.6 12.5-18.5zm10.5 22-10 4-7 8 1 1 13-5q5-1 4-7zm2 28-8 10 1 1 8-4 3-5zm-324.5-31q6.5-1 8.5 2.5l1 3-3.5 4.5-6 1-4.5-3.5 2.5-6.5zm171 2 2.5.5-3.5 5.5q-6.3 4.2-17 4l-3.5-2.5 12.5-2.5zm-150 15q6.5-1 7.5 3.5 1.3 7.3-2.5 9.5l-4 1-4.5-3.5-1-4zm-10 31q6.3-1.2 7.5 2.5 1 7.5-4.5 8.5t-6.5-2.5q-.9-6.9 3.5-8.5Zm155 59 4.5.5-.5 1.5-7.5 4.5q3.3 5.7 2 16l-4.5 5.5-6.5-1.5-1-12 4-7q-1.7-3.2-8.5-1.5l-6.5 5.5 2 11q-1.7 13.3-10.5 19.5-5.5 1-6.5-2.5v-11l9-18-3.5-.5-12.5 10.5-15.5 25.5-1.5-.5q6.6-22.4 22.5-35.5l10-4 4 2q3.6-7.9 17-6l4 2zm-6.5 11-4 8 2 5 3-2zm-21 4-8 15 1 8q7-5 8-16zm45.5 4 5.5 2.5 2 7q-1 3.5-6.5 2.5l-2.5-1.5-2-7 1.5-2.5z"/><path fill="#fefefe" stroke="#fefefe" d="M.5 0 1024 .5l-.5 1023.5L0 1023.5zM555 243l-6 5q-1 6 4 7l6-4-1-6zm-53 1-2 1-2 8q1 3 7 2l2-8zm2 19-10 21-5 22v11l4 2v2l-3-1-2 3 3 2q-31 49-54 107l-3 2-103 23-31 10-12 7-5 7 2 10 12 11 29 21 72 48-4 25-24 86-7 47q-3 15 2 23l8 4 14-6 38-31 48-50 35-33h4l50 45v2l46 40 21 14 18 7 7-1q5-3 6-10v-25l-4-29-26-105q-2-12 2-18 29-32 63-59l33-34 12-16 2-7-3-8-16-7-28-2h-77l-20 3q-11 1-16-2l-9-16-17-59 5-1 2-2 4-13 2-1 10-27 7-12-1-5-2-2-29 16v-1l-3-27 1-3v-2l-1-4-3-2-5 6-2 1-23 24-11-28zm90 9-2 1-3 4q-1 5 3 6l5-1q3-1 2-7zM419 397l-2 1-7 13 3 9-1 2-8 5h-5l5-8q2-11-4-13l-7 1-6 10q-1 8 4 12l-8 4-9-1 2-6q1-6-3-7l-3 1-3 4 1 8-10 6q-8 1-10-2l-1 2 8 3q11 0 16-7l6 3q12 1 17-5h11l9-5 5-5 1 1 9-3 4-5v-3l-10 5h-2l4-10-2-8zm176 2-2 1q-5 2-3 10l5 2 6-1 3-4-1-5q-2-4-8-3Zm90 123-4 3q-1 6 4 7l5-2 1-4zm-20 21-10 6q-9 7-12 20l2 9 5 4-3 7 2 14 11 7q-1 11 3 18 3 4 11 5l1-3-4-3q-6-4-5-15l12-5 7-9-1-6-3-3q-7-1-9 2l-10 14-3-1q-6-2-7-9l2-11q12-1 20-7 5-3 6-11l-5-4-15 6-4 5q-4 8-8 1 0-15 8-20l11-9zm-315 20-4 8 8 4 4-1q4-1 3-7-2-6-11-4Zm25 16-3 1q-5 2-4 11 2 4 9 3l4-6-1-5zm-11 31-2 1-4 5q-1 6 4 7l5-1 4-7-1-2zm153 60-5 3-5-2q-13-1-16 6l-2-1q-10 0-14 5-16 13-21 36h2l14-24 13-12 3 1-9 19 1 10 4 2 4-1q7-6 9-16l-1-14 8-6 5 2-4 9q-2 10 5 12l5-1 4-7-3-14 11-5q-2-4-8-2Zm20 18-2 1q-4 2-3 9l6 4 5-2-2-9z"/><path fill="#fefefe" stroke="#fefefe" d="m545.5 275 1.5 8.5-1.5-.5-7.5 6.5-4.5 6.5.5-1.5zm-38 8 2.5 5.5-4.5 3.5-.5-1.5zm39 3 1.5 11.5h-1l-.5-1.5-11 10 .5-1.5zm-35 7 1.5 5.5-2 1-.5 1.5-1.5.5-.5 1.5-1.5-.5zm59 6 1.5.5-6.5 8.5-1.5.5-2.5 4.5-3.5.5 2-3-3 1 1.5-5.5zm-55 1 3.5.5-7.5 9.5.5-1.5zm32 0 1.5 5.5-7.5 5.5.5-1.5zm-27 7 .5 1.5-8 14 3.5 1.5 7-9 .5 1.5-5 11 3.5 1.5 7-8-1.5 2.5-3 5 4.5 1.5 6.5-5.5-4.5 10.5-30.5-11.5 13-9 .5-1.5 1.5-.5.5-1.5 1.5-.5zm29 2 1.5.5-5.5 7.5-.5-1.5zm-53 19 7 4 45.5 15.5 19 65 10.5 17.5 13 3 3-1 2 1q31.1-5.9 70-4l49 2q12.8.2 19.5 6.5l-1 6-14 18-39.5 39.5-51.5 47.5q-7.7 6.8-6 23l24 96 7 47v2l-1 17-2.5 3.5h-6l-13-6-22-15-92-84-10-3q-16.1 7.9-26.5 21.5l-1.5 2.5-2.5 1.5-62.5 64.5-31 25q-3.8 4.7-12 5-3.7-5.2-2.5-15.5l2-12v-2l4-31 27-99q3.1-8.4 2-21l-4.5-5.5-30-17-67-47-12.5-11.5-1-6 13.5-9.5 21-7 99-24 16.5-7.5 38-73zM551 436q-19 4-27 18l2 3 6-2 1-2q6-8 18-11 10 0 16 5v-3q-4-8-16-8Zm-107 14-11 6 2 2 14-3q12 0 20 5h2l-1-4q-8-9-26-6Zm103 18q-13 2-20 10l1 3 15-6 1 1-2 4 1 6 7 5 8-2q5-2 3-11v-2l10 7 3-2-1-3q-7-11-26-10Zm-98 1q-14 1-21 10l2 2 12-5 1 1-1 2q-1 7 2 10l5 2 7-1 5-7-1-2 1-3 5 3 3-2-1-3q-6-7-19-7Zm43 3-2 2-2 18-5 10-14 11-4 6 1 6q3 5 11 6 15 1 22-8l4 1 4-1-1-4-4-3-6 1q-5 7-14 8l-9-2-2-3 12-9q10-9 12-25l-1-12zm18 35-1 3 5 5-1 6 2 3 4-5-2-9zm46 3-2 4 8 3-2 1-4 5q-28 34-90 34l-1 3 6 2q52 0 80-25 9-7 14-19 5 3 5 12l5 1 1-3q0-9-5-13-4-6-15-5Zm-32 54-9 5-14 3 2 3q13 1 20-4l3-5zm17.5-235-.5 1.5-1 5 3.5.5 1.5-.5.5 2.5q6.3 1.3 7.5-2.5l1.5-2.5.5 2.5-1 3 4 2-.5 1.5-22.5-6.5z"/><path fill="#fefefe" stroke="#fefefe" d="m418.5 403 1.5.5-3.5 11.5-1.5-4.5zm-22 7 3.5 2.5q1.1 10.1-5.5 12.5-4.5-2-2.5-10.5l2.5-3.5zm274 157 4.5.5-5.5 6.5-11 4-.5-1.5zm6 27 2.5.5q.8 6.8-4.5 7.5l-5 2-.5-1.5zm-166 88 .5 9.5-2.5 1.5-.5-6.5zm-21 3 .5 8.5-6.5 13.5-1.5-.5q.5-14 7.5-21.5Z"/><path fill="#b7a771" stroke="#b7a771" d="m554.5 243 3.5 1.5-1.5-.5-6.5 3.5-.5 4.5-.5-4.5zm-14 27-6 7zm5 2 1.5.5-.5 8.5-1-6-10.5 17.5 3-2 6.5-7.5 3.5 2.5-.5 3.5-1-3-10.5 18.5 9.5-8.5 1.5.5.5 1.5 1-5 .5 10.5h-1l-.5-3.5-5.5 9.5 3.5-2.5 3-1 1.5 2.5-3 5 4-3 .5-1.5 6-3-.5 1.5.5 4.5 2.5-1.5 1.5 2.5 3-5 2.5-1.5 5-7-.5-1.5 6-3-.5 1.5-16.5 38.5-1.5.5v2l-.5 3.5-4.5-2.5 1-5-2 1-2.5 3.5-5.5-.5-.5-2.5-4 1-.5-3.5 1-2-6 5 2 1-1.5.5-3.5-2.5 2-8-4.5 3.5-4.5-1.5 1-2-3.5 2.5-3.5-1.5 5-12-2 1-5.5 7.5-3.5-1.5 8-15-3 2-.5 1.5-1.5.5-.5 1.5-1.5.5-1.5 2.5-11.5 7.5.5 1.5-8.5-4.5-1-3 5-11-1-2 7.5-31.5 1.5.5 1 3-1 6 3-1 1 2h-2l-2 8 3.5-2.5 2-1 1.5 4.5-5 10 1.5.5 1-2 1.5-.5.5-1.5 1.5-.5.5-1.5 1 2 1.5.5-4 9 5-4 2-4-2-1 22-20 1.5-2.5 1.5-.5zm48 0 5.5 2.5-.5 1.5-2-3-5 1v-1zm-94 1 .5 2.5-10.5 41.5-.5-11.5 5-22zm91 2-.5 1.5 1.5 5.5 6.5-2.5.5-1.5.5 1.5-7.5 3.5q-3.5-1-2.5-6.5z"/><path fill="#b7a771" stroke="#b7a771" d="m529.5 282-12 13-1.5-2.5h1l.5 1.5zm52 4 1.5.5-29.5 18.5-.5-2.5zm3 5 1.5.5-17.5 40.5-1.5.5-.5 1.5-.5-1.5zm-83 38 18.5 7.5-2.5.5-14-5zm-35 40 .5 1.5-4.5 8.5-.5-1.5zm-95 50 4.5 3.5-.5 3.5-3-6zm26 3-3 4-2-3q2.5 4.5 5-1Zm271 1 26.5.5-26.5.5zm-1 6 21.5.5-21.5.5zm-230 1 .5 1.5-1 2h2l-3 2 .5-1.5-2.5-.5 3-2zm263 0 10.5.5-10.5.5zm17 34-30 31zm4 5-27 28zm-431 19 5 6zm376 24-8 9zm-104 4 5.5 4.5-4-2-.5 1.5-1-3-1.5.5zm91 8-24 25zm-94 3-9 10zm98 2-24 25zm-189 28 11.5.5-11.5.5zm155 3 .5 11.5h-1zm-100 4 2.5 1.5-3.5 5.5 2.5-3.5-.5-2.5zm140 6-5 6zm12 24-5 6zm7 7-5 6zm-323 13-.5 1.5q-1 5.5 2.5 6.5l3.5.5-3.5.5q-4.5-1-3.5-7.5zm135 23-13 14zm34 5 11 12zm-33 3-12 13zm27 0 11 12zm-52 17-18 19zm85 4 10 11zm-83 3-16 17zm79 2 9 10zm-73 12-7 8zm33 1 .5 7.5-3.5 2.5v-1l2.5-1.5zm64 1 7 8zm-130 3-26 27zm127 3 11 12zm-122 1-26 27zm140 7 5 6zm-227 29 .5 18.5h-1z"/></svg>