<svg xmlns="http://www.w3.org/2000/svg" viewBox="0 0 1024 1024"><path fill="#14140f" stroke="#14140f" d="m541.5 146 .5 1.5q-1.7 3.3-8.5 1.5v-1l6-1 1.5.5zm12 1 2 1 2-1 2.5.5-.5 1.5-3-1h-2z"/><path fill="#14140f" stroke="#14140f" d="m525.5 148 2.5.5-1 2 20.5 5.5q19.1-.6 33 4 17.1 6.9 27.5 20.5l35 41 5 25v2l3 20v21q-6.5 22.5-7 51l1 5-3.5 4.5-2.5 1.5-.5 1.5-1.5.5-11 16 1.5-.5 12.5-10.5.5-1.5 1.5-.5.5-1.5 6.5-5.5 2.5-5.5 3-1 3-1 .5 1.5-3.5 4.5-1.5.5-6.5 7.5-1.5.5-.5 1.5-1.5.5-27 31-9 19 1.5.5 16.5-15.5 1.5-3.5 6-2 .5 1.5-2.5 3.5-29.5 24.5-9 20-2 9 1.5-.5 7-5 .5 2.5-11 9 .5 5.5 3.5-1.5 3.5-5.5 3.5.5-2 1 1 2h-2l-3 11 1.5.5 15.5-12.5.5-1.5 29-19 .5 1.5-33 26-1.5 3.5-.5-1.5.5-1.5-1.5.5-.5 1.5-10.5 8.5 1 3-1 2 1 2v2l.5 8.5 21-13 .5 2.5-3.5 4.5-18.5 15.5-1 8 1 3h-1l-.5-2.5-1.5.5-2 5v4l.5 3.5 1.5-.5.5-1.5 11-8 .5 2.5-2 1-.5 1.5-12.5 10.5-1.5 49.5-2-6-2.5 9.5-2 24v2q-1.7 23.3-8 42 3 2-2 4l-3 18v2l-1 7v2l.5 2.5 1.5.5-2 1 2 13 5 10 8 31v14l-3 21 2 24q-3.2 6.8-2 18l4.5 10.5 1.5-.5 1.5-6.5 1.5.5 3 13-1 2 1 2-2 6 7.5 12.5 3.5-5.5-2-1 1.5-3.5 4 3 1.5-.5 1 4-3.5 5.5-3 2-1-4-1.5.5v10l-10 13v9l-5 10v8l1 2-1 2 1 5-4.5 3.5-2-1-4 9-4-2-3 6-6-2-5 6-4-2-3 4-6.5-1.5 1-6h-1l-2.5 7.5-5-1-11 4-2.5-4.5h1l1.5 2.5 4.5-1.5-3-9 1-4-4.5 3.5-1.5.5.5 1.5-1.5-.5 2.5-5.5 7.5-4.5 4-13 4.5-4.5 4.5-3.5q4.8-4.2 4-14l-2-7 3-1 6-14-1-2 3-1 3-13-2 1-2.5 4.5-1.5.5-.5 2.5-1.5.5 1 2h-3l5.5-8.5 1.5-.5v-2q4.8-7.2 3-21l-6-43-16-37q-3.1-11.4-2-27v-2q1.1-7.6-3.5-9.5l-3.5-2.5q-3.9-6.1-2-18l2-6-4-18-1-23v-2l1-6v-2l-1-3 3-27-2.5 1.5-7.5 1.5-1 4 2 5-3 2-2.5-5.5-3 2-1-5-1.5.5-1 2 2 5-2-1-.5-1.5-4 5-3 1-.5-2.5 5-11-.5-1.5 2.5-.5 1-3-5.5-7.5-1.5.5 3 9h-1l-4.5-9.5-1.5 3.5 1 2-3 2-15 52-8 19h2l1 6-2-1v-2l-.5-1.5-1.5.5v9l4 9 6 25 3 4 1.5 9.5 1.5.5-2 1 1 3-2 3-3 44 1 4v2l1 9 7 18v8l16 28v5l-6.5 7.5-9.5 6.5q-.1 6.4-4.5 8.5l-1-2-2 4-.5-2.5 3.5-4.5 1.5.5 1-3-1.5-.5-3.5 2.5q-7.6 12.4-8 32l1 4-3.5 5.5-8.5 3.5-1 5 2-1 .5-1.5.5 1.5-10.5 12.5-7 2-3.5-2.5-2.5-10.5-3.5-.5-.5-4.5-3.5-1.5-1.5-2.5-4.5-2.5 4-6-4-2 2-9-3-1v-2l2.5-4.5 7-5v1l-2.5 1.5-.5 3.5-1.5-.5-.5 1.5-1.5.5-1 3 1.5.5 11.5-8.5 2.5-5.5 1.5-.5-.5-1.5-1.5.5 8-16-.5-1.5 1.5-.5-2-1 1.5-7.5.5 2.5-1 2 .5 2.5 1.5-.5 1-4-.5-1.5 1.5-.5q5.7-10.3 7-25l-2-6 2-7-6-22 .5-1.5-2.5-.5 2-1-.5-1.5-1.5.5-3-8h2q-3-37-16.5-63.5l-2.5 1.5 3 12h-1l-5-18h1l.5 1.5 2-1 2 3 .5-1.5q-4.7-16.8-14-29l1.5-.5 2.5 1.5-3-8 1-4-2-5 4-2 5-17 4-45v-2l7-42-2 1-11 46v2l-.5 4.5-1.5-.5 10-47-1.5-.5-2 3-1.5.5-11.5 14.5-2.5-.5q9.4-21.1 23-38l1-13-1.5-.5q-6.7 9.8-22 11l-.5-1.5 20-25 4-9-1-2 1.5-2.5 2 4 2.5-3.5-7-14v-4h1l1.5 2.5 1.5.5.5 1.5 1.5.5 2.5 5.5 1.5.5.5 1.5 1.5-.5q-.8-12.7-8.5-18.5l-2 1-1-2 1.5-.5-2-1-2.5-4.5-2.5-1.5.5-1.5 1.5-.5-2.5-.5-1 1-6.5-5.5-.5 1.5-1.5-.5q4.5-2.5-1-5l-10-13 1.5.5 4.5 3.5.5 2.5h2l1.5.5-.5 1.5-1.5-.5.5 1.5 1.5.5.5 1.5 2-1 3.5 2.5 4.5 6.5 3-1 3.5 7.5-.5 1.5 3.5 2.5 1.5 2.5.5-1.5-11-24-4.5-5.5-1.5-.5v-4l-16-36-9.5-14.5-1.5-.5-13.5-23.5-1.5-.5v-2q-1.7-11.3-8-18l-3-13-3-41 2-14h-1l-2 7 .5 1.5-1.5-.5 2-12 8-14 12-34 5-7h-2l4-2 8.5-16.5 1 2 1.5-2.5-.5-1.5 2 1 2.5-3.5-.5-1.5h2l9.5-6.5.5-1.5 26-20q7.9-5.6 21-6h11l18-5 2 1 1-2 4 2 5-3 3 1 4-1 7 1 .5-1.5zm32.5 12-1 2 34 13 1 4h2v-2l5 2v1l-2-1-3 1 11 6 1 1-5-7q-9-11-22-16zm-27 1-7 2h-26l-15 5v1l16-2h2l7-1h2l15 2h2q16 2 27 10l4 6 2-1 2 4 9 6 3-4 1 4 6 2h3l-1-2 4-2-1 2 1 4 6 4 4 4 1-1 1 5 4 2 1 6 27 42 4 3-10-35-27-35-27-19-19-5-13-6zm-32 7-13 4-3-1-3 1-1-2-1 2-1-1-4 1v2l-2-1-1 2-5 1-2 3-1-1q-18 7-31 18l-20 24-14 43-2-1 9-29v-4q-12 16-15 40v8l14 59 3 1-1 2 9 29 4 2-2 1 2 6-2 1h2l7 16 5 3h1l-1 2h2l3 3-1-8-8-17 2-1 6 12v-2q2-3 3 0l-1-1-1 3h2l-1 2 6 18 1-2-5-14v-2l13 27v1l-3-4-3 2 4 15 7 3 1 1-6-12 1-4 8 17 16 7h1l-11-22-4-2-1-1 2-1-1-4-7-4 1-2 2 1h1l-7-12 1-2 7 14 11 4h3l-1-4 13-4h1l-2 1-1 2 7 1 7-3-2-8-7-5-12 3-1-1 5-2v-1l-9-3h-2l-15-2 2-3 8 2h1l-8-6-15-16q-6-21-18-35l-4-16v-2l-2-9 2-14 3-5 3-15 11-28 7-12q6-8 17-11l2 1 14-8v-1l4-1v-1l13-5h3l-22 11-2 3 17-8h13l4-5 12-5q31 5 53 21l24 29 10 25h-1l-3-7-2 6 1 2-2 9 1 4-2 11 1 11 5-11-1-8 2-4q-2-4-4 0l2-4 5-4 3-6 1 4-1-1-2 1 1 2-4 9 1 3-3 16h2l3-6 3-1 3-2-1 2 1 2-2 5-1-1h-1l-1-2-2 1 3 4-1 3h-1l-1 2 3 1-2 1 1 2-5 3h2l-1 2h2v-1l4-4-1-1 2-1v-1l2-1 2-2 4-18v-4l-3 2 1 2-2 1 3-9 1 2 1-4-1-1v-1l-1-7-1-1-8-17v-2l10 20h2l5-11-1-3-2-2-29-47q-4-9-14-10l-1-1-8-4-2 1-4-1-7-7-1-1-1-1q-17-17-51-17h-2zm-48 8-13 6-11 12 1 1 26-18zm67 24-5 2-3 4 2-1 25 2h2l1 1-2 1q22 7 39 20v-2q-12-15-34-18l-1-2 2 1h2q-12-7-28-8Zm-107 2-16 25 1 1 15-24zm208 0 10 20 2 1q-3-14-12-21Zm-107 9-4 2h5l5 2v1l-8-2h-2l-6 1h-2l-17 7-2 3 11-3 3 1 6-1h2l8 3 5 7v1l-3-3q-5-6-16-6h-2l-19 5q-21 24-24 67h-1v-12l3-14q5-22 16-37v-2l-7 5-8 8-11 26q-5 14-2 37l5 4-2 1 9 17 9 6h-3l6 7 5-3-7-19 4-2v2h2v2l3 1 7 10 6-1v-1l-6-6-3-5 2-1 9 12 36-18 4-4 1 1 5-3q6-6 9-16l2-1 15-30q-1-17-9-27l-3-3-3-3 2-1v-2l-1-1v-1l3 1-1 2q10 11 13 30l2 1-1 2 2 12h2l3-4-6-20 2-3 3 7 2 11h2l3-4-2-4 1-2-1-1-4-6-4-3 3-2v3h3v2h2l8 21 1-2-1-6-15-27q-11-13-29-17l-5 1q-8-4-20-3Zm123 7 7 25 2 1-4-19zm-177 2-8 5-1 2h-1l-7 11 1 1 2-3 16-15zm23 0-15 10-2 3 13-7 1-2 3-2zm-27 11-4 3-2 4 6-5zm130 3 7 19 7 25v-2l1-3-1-9 1-2q-4-18-15-28Zm-2 11 3 11 2 1zm59 10 4 28 1-4q1-16-5-24Zm-65 4-4 5 2 9 4-5zm-15 2-22 42 1 2h-1l-8 13v1l9-5 6-6 18-36zm22 4-2 3 2 8 3-4-1-5zm51 0-4 7 3 1-11 31h2l3-4 3-2v-1l6-5 2 1 1-2q1-16-4-25zm-253 4-4 14 1 8 3-19zm188 0-3 7h-1l-17 31 1 1 10-5 8-19 2-1 2-4-1-9zm-130 3q-5 8-5 20l-1 3 1 6 5-26zm140 0-5 6 2 8 4-5zm6 7-1 6h2l-1 2 1 2 5-6-1-3-1-1-3 5zm-158 1-4 14q-1 21 6 35l2 1-3-14 1-3-2-13 1-7zm145 3-2 4v4l-1-1-1-1-12 24h2l13-17-1-3h2l1-2zm-182 3-3 5-1 17 22 62 8 10h1l-7-14-11-38v-2l-4-13v-2zm191 0-5 7 1 2 4-3zm10 0-4 10h2l-5 11 1 4 2-1 3-3 2-20zm-152 1-4 23q3 15 12 24h1l-2-3 2-1-2-1 1-2 2 1 4 9 5 3 1 1-12-21-2 3h2v3h-1l-6-18-1-10v-2l1-3v-2zm141 8q-6 4-7 13h2l5-9zm58 0-6 5-6 9h2l1 3v2l-1-2-2-1v-1l-1-1-2 3 1 4-1-1-6 13 2 1h-1l-1 3 6-5-2-1 5-4v2l-2 1 1 2 2-3 7-6 2-9v-2l2-7zm-67 9-10 16 1 1 5-4 1-2v2l-9 8 1 1 7-5q4-3 4-10zm34 1-1 3-4 10 1 1 5-3-1-4 1-3 1 3v-3l-1-1zm-50 1-8 5-6 6-3 7 1 1 4-2 1-2-2-1 4-5 3-2-4 6 1 1 10-13zm-22 3-43 24 2 3 2-1v2h2v-1l5-1 25-13 7-11zm67 0-5 13 1 2 3-2-1-2 3-10zm-224 2q-1 14 3 26h1q1-16-4-26Zm185 2-17 19 1 1 16-18zm27 0-6 13 1 2 5-9zm-48 3-9 5-9 12-3 4 11-5q7-5 10-14zm76 2-3 4 1 3-1 5-1-2-4-1-1 2-1 3 1 3h-1l-3 7v2l-1 2 3 1v-3l2-1 4-10 3-1q3-5 3-13zm-12 3-2 2 1 2h-2l-12 16 1 1 14-16zm-58 3-9 6-15 16 14-7 11-14zm-23 1-25 14-1 2 5 2h2l1 2 7-3 13-16zm57 0-5 8 1 2 4-8zm-110 1 4 11 4-1-7-9zm102 0-5 9h2l3-4zm58 0-15 17-8 25-3 4h3l6-12-1-2 2-1 1-2 2-1 4-12 10-15zm-66 1-7 5-2 3h-1l-1 2h-1l-1 2h2l5-6 2 1 4-5zm-174 2q-1 10 4 16h1q0-11-5-16Zm213 3-3 2-10 14h3l3-4 3-2 2-6 2-1 1-2zm-116 1-1 2-2-1-2 2 6 5 4-1 1-2zm143 1-25 45h2l14-25 5-4 4-12zm-103 2-14 8-2 3h-2l-3 1-1 2 5-1h4l9-7v-1l4-3zm-49 1-4 3 5 6 6-3-3-4zm66 2-16 12 1 1 11-6 5-6zm-97 1 4 10q2 3 3 0zm120 0-3 2-5 7 1 1 2-1 7-8zm8 0-10 11 1 1 9-10zm-104 1v2l-2-1-2 1 6 3h3l-2-2-1-2zm24 0-4 3 4 5 7-2v-1zm-27 4 5 5 4-1zm-5 1-1 2 7 3v-1zm23 0-4 1-1 2 10 2v-1zm63 0-7 5-7 8h3l1-2 10-9zm39 0-17 20 1 1 7-8 3-2 7-10zm15 1-5 9h2l3-7zm-144 1-1 2 8 6h2v3l5 2 3 1 2-1zm-4 3-1 2 8 6v2l8 4v-1zm21 0-1 2 8 4v-1l-1-1-3-3zm28 0-2 1-1 2 4 1 6-3zm91 0-14 17h3l12-16zm-101 3-5 3 2 2 6-2v2l5-2-4-2h-2zm-102 4 2 8 2 1zm56 1 2 8 8 4h1l-1-2-8-8-1-1zm96 1-2 1-5 6 4-2 1-2 2-1zm-13 2-4 2-2 3 1 1 9-5zm73 0-2 4-5 4 3 5 4-10zm-127 1-1 2 8 3v-2l-3-3-2 1zm30 0-9 4 7 1 3-4zm7 3-6 3 7 3 3-1 3-4zm48 1-11 6-3 4 1 1 12-5 3-4zm70 1-4 3-9 11 1 1 13-14zm-66 5-4 3-2 3v1l6-5zm38 0-4 8h2l2-5zm-58 2-14 8 1 1 11-3 3-5zm51 0-7 17 1 2 6-16zm-133 2q1 5 10 7h1zm21 1-1 2 19 2v-1zm67 2-4 2-1 6h2l5-7zm-74 1q2 6 13 4v-1zm67 2-10 5-4-1-11 2-2 4h-2l-2 3 5-1 1-2 2 1h2l15-4 6 1 1-2zm-30 1-24 3v1q17 2 27-3zm48 0-9 6-3 5 1 1 8-6 4-5zm35 3-5 8 1 2 4-7zm-90 4-9 3 7 8 3-1-1-2 4-7zm61 0-2 1-1 2h-1q-5 2-2 4l-3 2q-5 2-1 4l4-2 7-10zm10 0-5 6 1 4 4-8zm31 2-16 26 1 1 1-2 2-1q9-9 13-23zm-72 1-6 3h-2q-14 1-23 7l4 7 13-7 4-5-1 2h2v-1l9-4zm20 3-9 8-5 7 1 1 5-3 5-8 2-1 2-3zm29 0-5 11h2l3-7zm-164 3 2 9 2 1zm8 2v7l7 15 5 2v2l3 2q-8-11-11-25zm107 1-15 11 4 1 5-2v-1l7-6zm28 1-7 10 1 2 2-1q5-3 5-10zm-62 1-2 2 3 5h2zm-5 1-5 3 6 2h1zm-54 1-2 1-1 3 3 1-1 2 1 1 2-1zm32 2-2 3 9 4 2-1-1-3q-2-4-8-3Zm80 1-3 5-2 1-2 3 1 1 3-2 4-7zm-69 1 1 5h3l6-1-4-2-3 1v-1zm-23 2 2 4h9zm111 0-5 7 1 1 4-6zm-28 1-4 7-2-1-2 5h3l6-10zm-47 2-5 2-1 3 7 2 3-4-1-2zm18 0-4 3 3 5 7-6zm14 2-4 2-1 2h5l3-2zm33 0-1 2-3 2 1 2h-1l-2 3 1 1 6-9zm-97 1 10 25 4 1 3-1-4-13-2 1-1-1 2-1-1-3-1-1-2 1 2-3-1-3q-2-4-9-2Zm90 0-2 1-9 15 1 1 2-1 5-8 2-1 3-6zm39 0q-11 5-12 20h2l1-5 2-1 1 2 6-14zm-167 1 10 26h1l-8-21zm49 0 3 8 8-2v-2zm99 0-3 5-2 1v3l-1-2-4 7 1 1 2-1q6-3 7-12zm-27 3-3 2-3 4v2l-4 6 2 2 8-14zm-24 1-2 1-2 3-5 2 3 3 10-8zm43 1-7 11 1 2 6-10zm-67 2-8 6 3 3 10-7zm28 1-9 8 1 2 6-3 3-6zm-45 1-4 2 3 7h3l-1 2 1 2 7-4-1-3q-2-4-4 1l-1-1 3-2-1-2zm29 1-3 3 3 6 4-3-2-5zm44 2-8 13h2l7-12zm-50 1-10 7 1 3q2-4 4 0l-3 1 3 6 1-2 4-2v-1l4-3-2-6-7 5 6-7zm27 0-3 3-4 13h2v-1l2-1 5-12zm-94 1 15 38 2-1-14-34zm9 0 6 5h1zm118 3-6 9h2l6-8zm-108 1-1 2 16 7h1zm68 0-5 4 1 3h2l2-5zm-76 1q6 25 18 46l3-5-2-6 3-1 1 4 2-3 2-1v-1l6-5-6-16-4 2h-3l2-3-11-6-2 1-1-1zm95 1-5 7 1 1 4-6zm-52 1-8 6 2 4 3 1 5-6-1-4zm26 2-4 3 4 8 2-4-1-6zm21 1-7 11 1 2 6-11zm-44 2-5 7 5 2 3-2zm66 1-2 1-4 7-2 1 2 1-2 1v-1l-1-1-1 3-2 1 1 2 5-2 6-10zm-50 1-10 8 1 3 7 2 6-4-3-8zm21 1-5 8 1 1 4-7zm-113 3 3 7 4 3zm61 0 3 8 2-5zm44 3-4 4 2 4 2-3zm18 0-5 6 3-1 2-3zm-55 3-4 5 1 2 4-3zm8 1-2 2 1 2-2 1 3 7 7-5-1-5-4-2-1 2zm89 1-1 11h2v-3l1-3 1-2zm-69 2-2 1-2 3-1-1-4 3 2 7h2l5-11zm38 1-8 5-1 2v2l-3 5 1 1 5-2 4-7 1-2-3 1-4 3 8-6zm-64 2-1 2-2 1 3 7 3-2-2-7zm-6 5-11 12v1l14-6-2-6zm21 0-8 7 4 7 3-6 2 1h1zm-47 3-1 7 6 11h1q-1-12-6-18Zm66 0-7 9v1l8-5v-4zm63 2-2 2 1 16 3-7zm-92 2-3 3 3 8 4-2-3-8zm51 1-4 2-1 5h3l3-6zm-57 3-10 14h2v2h-1l-1-1-1-1-1 2-2 1-1-2 3-4-2-4-6 3 7 15 1-2 2-1v-1l2-1v-3l2 1 9-8zm-6 1-5 4 2 1-2 1-1-1h-1l2 4 6-8zm26 0-6 5 1 3 7-4-1-3zm26 4-3 6-1 3h-1l-3 4 1 2v-1h2l5-11zm65 0-5 3-4 5 10-7zm-32 2-13 15 1 1 4-5 2-1 6-7zm-68 1-4 4 1 3 4-3zm18 0q-5 1-4 7h2l3-6zm-52 3-2 3 6 12 1-3zm28 2-5 4-4 5 10-5v-3zm74 0-1 2h-1l-6 11h2l7-12zm-45 1-5 8h2l3-6zm-19 3-4 3 1 5 4-3zm9 4-6 7 1 1 4-2 2-5zm-16 1-9 9 2 5h3v-1l4-2v-2l-2 1-1-1 2-1 2-3zm60 4-7 8-10 20h2l9-14-1-3h2l-1-2h2v-2l4-5zm-122 1-20 26 1 1 17-10 2-2 1-14zm3 0v13l3-1q1-8-2-11zm45 0-5 4 15 40 5-9-2-7-1-1-2 3-4-1 4-6-2-8-5 2-1-3 4-3-1-3q-2-4-3 0l-4-2 4-5zm-29 1 2 9 2 1zm113 2-7 7 1 1 6-5zm5 3-4 3-1 3-1-1-4 2-6 6-9 22 1 1 17-22 3-2 5-8zm-44 2-5 10h2l4-9zm-5 3-5 9-4 2 2 4h-2v2l-1 2 1 1 1-2q5-2 2-4l7-13zm-27 1-4 3 1 4h2l3-6zm-44 1 2 8h2l-3-7zm-12 1-3 3-1 9h2l2-7zm133 2-6 8h-2l-11 13 1 1 18-15zm-124 1v8q2 3 3 0l-2-7zm-2 3-4 14v1l5-4zm57 0-7 5 3 6 4-9zm73 3-1 20h2l-1-1 1-2-1-5 1-11zm-26 1-11 14h-1l-3 12 1 2 14-26zm-97 2-3 5h3l4 8 3 2zm119 0-7 9-1-2-15 12-7 9-5 17h2l11-18h1l-14 23-3 12-1-3v-2l2-6v-3l-6 17-3 1 1 9v-5h1l-1 8 1 1 4-11 1 3-4 16-3 2q-1 11 2 18l-1 2 1 4 1 2 3-4 4 2-3 13h-1l2-11-2-2-5 7q1 13-3 23l2 11h2v-2l1-3-2-4 3-1-1-1 1-2 1 3-3 12 1 3 4 1 2 4 10-6 3 2-3 10 7 4-3 14-3 2-4-1-2 1-6-4 5 14-1 2 1 18 10 29-1 2 6 35 2 2 1 16 2 1-1 10 1 3-1 10h-1l-2-3 2-4-1-1-6 9-2 9h2l5-8 2 1h-1v2l-7 11 2 3v-1h2l2-1 1 1-7 3-1-1-1-1-9 22 2-1 1 1-1 3-8 5-7 12 1 1 2-1v2h3l8-13 4 2-4 10v6h2l6-12 3 2-3 6 2 3 7-11 2 2-1 3h2v-1l5-3 3-7-1-7-3 5-4 3-2 1q9-9 13-23l-1-2q-1-10 4-13l2 1q7-4 6-16l1 1-1 5 1 1 4-7-5-11h-1l1 3-6 10h-2l2-7-5-1-1-1-3-2 2-3 2 1 2 3 2-1v-8l-4-11 1-4 2 1 1-2-5-12v-2l1-2-1-2 1-2-1-15 1-29 3-16v-8l-7-27-7-16-1-10 1-5-1-1-2 6h-3l5-30 4-8-2-16 1-2-1-2 1-2-1-3 2-11v20h2q2-34 11-61l-1-26-1-1v2l-1 2h-1l2-5v-9zm-135 3-5 13 1 3 2-3 2-11zm29 1 3 11 2 1zm51 1-4 7 1 4 3-8zm-70 2-7 8-5 26 1 3-3 37-9 45-2 1 2 1-1 8-2 1 2 2 1-2 8 16 2-4 2-1 1-4-2-1 2-1-1-5 2 1q2 12-4 16l2 2 5-1v2l-6 2 3 9-2 7-2 1 22 97-1 10v8l2 2 1 8-3 4-1 10-1-7q-6 7-7 19l-1 3 1 2 2-1v2l-3 1 1 4-2 1 1 2h-1l-1-7-7 14-9 6-2 3-2 3 5-3 1 1-1 4 1 1 3-4 3 2-6 11h2l1-3 6-5q1 4 3 1l-1-2 2-1 2-3 1 1-2 3 5 1v3l-8 12 1 2 2-1 4 1 2-2 2-11 8-16-4-3 5-10-3 1 9-13 3-1 2-6 3-2 2-1-3 6 1 1 5-1-1-1-1-2 4-2-1 2 1 1 7-9v-5l-6-10-3-2 1 2-4 9q-2 3-8 2l-2-2 6-1 5-7-5-8-1-8v-2l1-2 1 3 2-1-8-23v-12l-2 3q-1 16 2 28h-1l-1-6-1-3q-2-16 2-25l1 2q-2-21 3-35l-1-23-10-32-2-1 1-3-1-5-5 10h-3v-5q5-4 5-12l-2-1v-6l8-22-4-15 1-7 4 18 6-19q1-10-3-14l-1-1-3-12-1 2-1-2 2-1q-3-30-13-51Zm56 0-5 7 1 1 4-5zm-71 3-16 25 1 1 5-6 2-1q7-5 8-15zm21 1-1 4q7 8 8 22l3 1 8 29h1v-11l-4-5-4-20-1 6-1-11zm55 0-4 8h3l2-7zm-46 2q1 13 9 23l2 1-10-23zm82 2-5 8 1 1 4-6zm-72 2 2 9h2l1 4 2 1-6-13zm38 0-8 18-3 2 2 4 3 1 7-19v-2zm-6 2-4 8h-1v2l-1 2 1 3 7-13zm29 2-8 14 1 3 4-5 3-10zm6 9q-7 3-8 11h-1l-4 7 1 13 12-29zm-81 3 5 32 6 12 1-3q0-12-5-19l1-3-2-2zm9 0 6 22 2-1v-7zm9 3-2 4 2 3 3 1-1 2 2 2v-4l-1-1zm1 16-2 4 2 5zm-46 3-4 26 1 7 3-17zm89 13-3 20 1 40 2 11h1q2-38-1-71Zm-49 11-3 10 1 2 3-11zm-3 12-4 10 1 4 3-9zm-4 15-8 18 1 2 7-16zm-40 35q-1 9 4 14l-2 1 3 3 2-1q-1-12-7-17Zm98 9-2 10 3 1 1 1zm-89 10-3 3 3 11h2l1-2q1-9-3-12Zm110 1-8 5 1 2 6 2 4-8zm-2 13-3 1-1 2h3l1 4h1l-1-2 2-3zm4 1-2 12h3l3-7-1-3zm-16 10q-1 19 6 33h1q-1-19-6-32zm-37 124-4 9h2l3-4zm-30 28-4 11h2l2-5zm116 14-3 4 2 5v-3l1-3zm-119 7-6 11v1l3-1q5-2 4-10zm75 9-5 6 1 1 4-5zM419.5 175l1.5.5-6.5 7.5-.5-1.5z"/><path fill="#14140f" stroke="#14140f" d="M456.5 192h2l3.5 1.5-1 6-10.5 11.5-1.5.5-2.5 3.5q-5.3 9.2-20 9l-1.5-6.5 12.5-16.5zm-.5 2-20 11-9 13 2 4 6-1 11-8 15-17zm145.5 39 3.5 1.5 1 3-.5 1.5-4-2-2.5 1.5-.5 1.5-.5-1.5zm5 10 2.5.5 1 4-.5 1.5 1.5.5-.5 2.5-1.5-.5zm-232 5-1.5 2.5-.5 1.5-1.5.5q-8.2 14.3-12 33l-3 38 1 3-1 4 2 5v7l8 25-2-1-6-18 1-2q-7-15.5-4-41l1-3-1-2 2-3-1-2 6-28 10.5-18.5zm-26 51 5.5 3.5-1.5.5-1.5-.5 1 3-2.5.5-2.5-4.5zm137 17 5.5 2.5q-.7 4.3-6.5 3.5l-1.5-2.5zm-119 53 10.5 18.5-3-2-3.5-7.5-1.5-.5zm11 20 9 10 4.5 3.5-3.5-2.5-9.5-8.5zm-27 9 2.5 9.5-1.5.5.5-1.5zm280 6-.5 1.5-2.5 7.5-.5-2.5zm-19 12-.5 1.5-.5 1.5-1.5.5-3.5 5.5-2.5 1.5-.5 1.5-1.5.5-3.5 4.5 2.5-3.5 4.5-7.5zm-146 35 1.5.5 6.5 18.5 1.5.5q-1.5 3-3 0l-1.5-5.5-1.5-.5-1-2-1-3zm-58 16 1 2 2.5 1.5 1 3-2.5-1.5-1.5-.5zm8 13q5.8 3.3 6.5 11.5l-1.5-.5-5.5-4.5-1-5zm19 4 4.5 11.5-2.5.5-1.5-4.5.5-1.5-1.5-.5 1-3-2-1zm138 72 1.5 7.5-1 3 1 2-2 1v-2l1-4zm-119 10 2.5 1.5 3 10-1.5.5-3-7-.5 5.5 2 7-1.5.5-2.5-16.5zm-94 5 7.5 2.5-2.5.5-8 1 .5-1.5.5-1.5zm206 0 2.5 1.5v2l-.5 1.5-1.5.5 1 6-3 10v2l-.5 8.5-.5-18.5 2-6v-2l1-4zm6 8 .5 2.5-1 3-2 14v2l-2.5 11.5-.5-3.5 3-12-1-2zm-31 22 1 2-1.5.5 1 2-2 4-.5 1.5-.5-4.5 2-1-1-3zm-81 6 1.5 4.5v2l-.5 6.5zm-35 2 .5 3.5-1 3-.5 2.5-.5-4.5zm198 2 2.5 4.5-2.5 3.5-2.5-1.5zm-60 3 .5 2.5-5 30 1.5.5 2-3 .5 1.5-2.5 4.5-2.5-.5v-11zm-105 3 .5 3.5-3.5 13.5-.5-2.5zm-34 2 1.5.5-1.5 12.5zm30 16 1.5.5-3.5 21.5-1.5-.5 2-6v-2zm185 29 3.5 2.5 1 2-1 3-.5 4.5-2.5-.5-2-8zm-214 32 2.5 1.5 3 7-1.5-.5-2.5-.5zm33 19 3.5 14.5h-1zm314 5 4 1 6-1 1.5 3.5-10.5 3.5-3.5-2.5-1-2zm-338 7 1.5.5 11 40h-1zm115 2 1 2 1.5.5.5 2.5 1.5.5-.5 1.5-1.5.5.5 3.5 3-1-.5 1.5 5 18-2-1-1-4v-2l-3.5-10.5-.5 2.5 5 17-1 2 3 9q-1.9 11.9 2 18l-1 3 2 15-1.5 11.5-1.5-10.5 1-3-1-2v-4l-2-31-3-9v-2l-4-20-3-3 2-1-.5-1.5-1.5-.5zm-87 2 3.5 14.5h-1zm24 19 1.5 5.5v2l-.5 1.5q-3.6-2.1-1-9Zm-12 59 .5 4.5-1 5 1 2-2 1-1-10h2zm145 10q7.3-.2 9.5 4.5l-1.5 4.5-8.5-6.5zm29 12 2.5.5 1.5 3.5 2.5 1.5-1.5 2.5-2.5-1.5-1.5-2.5-1.5-.5zm-101 28 .5 1.5-3.5 12.5-1.5-.5 2.5-12.5zm-74 28 2.5.5-1.5 8.5-1.5-.5-1-6z"/><path fill="#f7f7f3" stroke="#f7f7f3" d="M.5 0 1024 .5l-.5 1023.5L0 1023.5zM483 134l-16 5-3 1-19 11-3 4-11 7-1 2-3 2-3 4-2 1-8 10h-1q-15 17-23 40l-6 4-2 4h-1l-8 19-6 7-6 14-6 31-4-2-3 1-1 4v2l5 2 2-5h1l-1 8v2l1 11-1 2 4 28q7 22 20 40 11 14 33 19v-1q-14-4-23-12-32-29-31-91v-2l5-30 11-24 3-2-1-4q4-14 13-22l1 1-11 31-10 21q-2 8 2 11v21l5 29-2 7 1 4 5-2 3 8-3 12 6 1 2-3 3 7q-5 3-4 13h2q4-2 5-8 5 2 3 12l1 3-1 4 1 3 5 2 3-6q17 26 25 61l1 1-12-11-4-16v-2l1-7-1-2-1-1-3 8 3 14 1 1-3-2-2 1 10 15 3 12 16 37-24 31 1 3q14-2 22-11h1l-2 14-18 27-4 10h4l8-11 7-6-10 43-2 25v2l2 2 6-26 1 1-3 33-5 19-4 3 1 6v2l-9-6q-3 2 0 3l2-1 1 3 5 3 2-1 1 6-3 1 8 14 4 12 1 1-5-10-3 1 12 46 13 37 3 19v2l3 12v2l2 5-3 17-2 1 3-12-1-1-4 7-9 36-6 8-2-1-9 6-3 4 1 4 2 1-2 7 4 3-3 7 5 1v2l4 2v4l5 2q-1 9 5 12 7 1 10-3l9-12-2-1-1-1 8-4 4-4 1-14 1 6h2l1-7v-2l2-13 2-1 4-3-7 17h3l6-19-1-4 1-2 10-6 5-6v-8l-1-1-5-9-1-3-17-66 4-32 3 17v2l5 24-1 4 2 9 2 1-1-11 1-3-11-54 1-2-3-10 1-2-7-22 2-9v-2l2-10v-2l6-31-1-2 8-33 4-3-1-2 1-3 5 12-4 11 1 2 4-1 3-4 11 31 2 1-12-36 2-1-1 2 2 2 3-1 1 4 3 1 1-2-2-7 7-4 3 1-2 18q-2 33 4 59l-2 11 2 14q7 2 8 12l-1 6 3 26 12 40v2l6 15 4 24-1 4 1 3q-3 13-11 22l-3 11v14l2 3-5 14-5 3-4 5-3 11-5 3q-6 1-5 9h2l4-6 1 1-1 3h-1l-4 9 3 3q7 1 10-3l5 1 4-2 3 2 6-2 1-2 5 1 5-6v2l4 1 4-6 4 2 2-7 8-4-1-13 5-17v-2l2-7 2-1 7-11 1-7 1 2 6-7-2-12-1-1-1 3-1 2-1-1-3 5 3 1-4 1-7-9q3-4 2-11v-2l-2-9-3-1-2 6-5-13 2-6v3l2 1-2-8 1-3-2-8v-24l2-20 1-3-7-31-7-16v-6q-3-3 1-5l-1-4 1-5-2-1 5-10 1-21 8-36 1-26 3-10v5h2l1-3-1-13 1-10v-2l-1-9v-2l1-11 2-1 1-2v16l-1 9 1 14-1 4-1 3 1 3-3 18 1 2-2 6 1 2-2 12 1 5-1 5v2l-5 34 1 3 6-31-1-2 1-3v-2l1-3-1-4 3-16-1-4 2-2q-1-11 2-17l-1-3 2-9-1-3 1-4-1-4 1-7v-2l-1-15h2l-2-5 2-1-1-3 10-10-1-2-7 5h-2l1-5-1-3 1-9 22-19v-3l-5 1-15 10-2 1 13-28 33-25v-1l2-1v-2l-28 18-2 1 16-38 2-1-1-1 21-58 2-1 5-6v-4l-2 1-3 2 9-42v-2l-1-6-1-4-2 1 2 7-2 14v2l-8 32-5 2-3 2 4-5-2-5 6-44v-2l2-6v-14q-4-15-4-34l-4-17-5-7-7-7-25-30q-13-18-40-22v-2l-2 1-8-1-6 1-20-5 6-2 2 1 2-1 4 1 9-1 13 2 2-1 20 6h3l-23-9-34-1-31-11zm207 21-3 6 3 1 2-5zm-52 46 6 15h1l-6-14zm10 22-1 5 9 30v2l4 23-1 2v2l1 2h2l1-3-1-2v-2l-4-25v-2zm72 92-2 2 1 4 3 1h2l-1-5zm-410 18-4 6 1 5 3-3 1-7zm450 25v5l4 1 1-2-2-2-1-1zm-409 39v8l-1 3 2 2-1 4h2v-6h2v-3h-1zm341 5-2 2 1 2v1l-1-2-2 4 1 2 1-2 2 1 2-6zm-444 61-3 3q2 3 4-1l7 2v-1l-1-1-3-1zm111 3-2 2 2 4h4l-1-4zm48 1 4 7h1l-1-4zm7 10v2l-1 5 2 4h2l6 6-1-3v-2l-6-10zm-164 6-1 2 9 4h2l-7-6zm404 8-4 2-3 5 1 2 2-4 4-2 1-2zm-293 79-2 1-3 4h3l2 1 7-2zm254 23-2 4 5 3 2-3zm167 4-1 2 2 2-2 3 4-1 1-4h-1zm-160 14-2 8 3 1 3-6zm16 53q-3 9 3 13 4-2 1-3l1-6zm41 12-2 2 3 4 3-1-1-3zm95 43-6 3 4 5 10-1 2-2-3-5-3 1zm-419 12 3 8h1l-2-6zm42 24v6l-2 1 1 1 4-1-2-6zm-32 19v16l1-8 2 3 2-1-1-6zm5 17-2 2 1 3-2 1 1 7h2v-7l1-2zm158 16-2 4 5 1 1-2-2-1h-2l2-1zm66 8-2 3 4 2-1 2h2v3l4 2 1-2-3-1 1-3-1-1-1-2zm25 4-2 2 1 2 10 5 1-2-1-3q-2-5-9-4Zm29 11-2 4 8 5v-3l-2-2-1-1zM496 975l-2 1-2 4 1 1 4-3z"/><path fill="#f7f7f3" stroke="#f7f7f3" d="m490.5 135 7 2h2l32.5 9.5-8.5 1.5-2-1-3 2-16.5 1.5-.5 1.5-6-1-2 2-20 4-3-1q-14.1.4-22 7-14.8 16.7-37 26l-.5-1.5 14.5-16.5 1.5-.5.5-1.5 1.5-.5.5-1.5 1.5-.5.5-1.5 1.5-.5 2.5-3.5 22-16 17-7zm36 27h9l20 8 11 2 17.5 10.5-4.5.5-2.5 1.5 2.5 3.5 2.5-.5.5-1.5 1 2 2-4 13.5 9.5 15 18-3 2-2.5 3.5-2 1-4-8-3.5-2.5 1-5-3-1-.5-2.5-4 2-5.5-4.5 1-3v-2l-2.5-3.5-2.5 1.5-1 3 1 2-1.5-.5-5.5-1.5-2.5-4.5-1.5.5-1.5 3.5-8.5-6.5-1.5-2.5-17-11-29-6h-2q-15.3-1.3-26 2v-1l15-4 18 1zm37 0 13 2q14.8 4.8 23.5 15.5l-2.5-1.5z"/><path fill="#f7f7f3" stroke="#f7f7f3" d="m498.5 169 3 1 7-1 3 1q33.7.3 49.5 18.5l4.5 5.5 1.5.5.5 1.5q10.4-1.4 14.5 3.5l.5 1.5 2-1 2.5 1.5-2.5 6.5-1.5.5-1 7 1.5 3.5 4-1 2 1 2-7 .5 2.5-5.5 17.5-5-6-1.5-.5-3.5-4.5-2.5-1.5-.5-1.5q-16.9-12.1-39-19l-19-2-9.5 5.5-.5 1.5-1.5-.5-3.5-4.5-11 2-15.5 8.5-.5 1.5-5 4q-10.4-.4-16 4l-8.5 7.5-12.5 27.5-2.5-.5 1-7-3.5-1.5-17 32-2.5.5 2 5-11.5 24.5-1.5-6.5 19.5-45.5 1.5-.5 2-12-1.5-.5-2 3-2.5 1.5-3.5 6.5-2.5.5-11.5 19.5-.5-1.5 13-44 7.5-13.5 2 1 1.5-2.5-2-1 14.5-15.5q11.3-10.2 27-16l2 1q8.3-7.2 22-9l2 1zM459 191q-14 2-22 10-10 8-14 22l4 2 8-1 13-9 13-14 2-7zm-9.5-14 2.5.5-16 9-.5 1.5-1.5-.5 4.5-5.5zm147 3 8.5 5.5-1.5-.5z"/><path fill="#f7f7f3" stroke="#f7f7f3" d="m454.5 195 5.5.5-8.5 11.5-15 12-7 2 .5-1.5 7-11-2.5 1.5-1.5.5-.5 1.5-2 1 1.5-2.5 5.5-6.5zm62 6h8l14.5 4.5-.5 1.5-21-3h-2l-5 1 1-2zm-19 1 4.5 1.5 1 2q-15.4-.9-23.5 5.5l1-2zm-90 5-.5 1.5-4.5 6.5.5-1.5zm215 0 7.5 13.5-2-1zm-28 1 2.5 5.5h-2l-.5 1.5q-3.2-1.7.5-3.5l-.5-1.5-1.5.5zm-49 2q15.9 2.6 25.5 11.5l.5 1.5 1.5.5.5 1.5 3.5 2.5-2.5-1.5zm-31 2 11 1h2q25.8 2.2 38.5 17.5l4 8-1.5.5-13.5-10.5-.5-1.5-1.5-.5-.5-1.5-6-4-9-2-2 3q8-1.5 10.5 2.5l-2 3 7 6 8 19v6l-14 29-11.5 18.5-4 3 .5-1.5 7-16 1-3 4-12-1-2 1.5-2.5 1 2 1-2 2.5-1.5 1-9 4-10-1.5-2.5-15 30-3.5 2.5-4.5 7.5-1.5.5-.5 1.5-1.5.5-.5 1.5-1.5.5-8.5 11.5-1.5.5-5.5 7.5-3.5 2.5-.5 1.5-1.5.5-2 3 1.5.5 10.5-9.5 2.5-4.5 1.5-.5.5-1.5 1.5-.5 7.5-10.5 2.5-1.5.5-1.5 1.5-.5 2.5-3.5 1.5-.5.5-1.5 1.5-.5.5-2.5 3-1-1.5 2.5-11.5 27.5-29 14-1.5-.5-1.5 2.5-6 3-2-3-1.5-.5-5.5-8.5-2.5 1.5 3.5 6.5 3.5 2.5.5 1.5 1.5.5-.5 1.5q-7.2 1.3-8.5-3.5l-2.5-7.5-2 1-1.5-3.5 1-2-1.5-.5-6.5 2.5 7 20-5.5 2.5-2-3-1.5-.5-1-2 2.5-.5 1.5-.5-6-3-.5-1.5-2.5-1.5-4-7 2-4-3-1 1.5-2.5 1.5-.5-2.5-.5-2 1-3-6-2.5-1.5-1-14 1-2-1-6 1.5-8.5 1.5.5.5 1.5 2.5-.5-1.5-4.5-2 1-.5-1.5 11-28 8.5-8.5 4-3 .5 1.5q-9.6 15.9-15 36l-3 14v11l4 3-2-9q5.3-34.7 21.5-58.5l17-6h11l11.5 5.5 2.5 3.5 1.5-.5-6.5-9.5-15-3h-2l-11 3 1-2q10.6-7.4 29-7l8 2 .5-1.5-4.5-2.5zM485 316l-2 2 3 5 3-1 2-4zm-26 5-3 4 1 4 3-4zm157.5-102 2.5 11.5-2.5 3.5-1.5-.5-2-4zm3 1 5.5 8.5-2 1-.5 1.5-1.5-.5zm16 0 3.5 3.5 4 17h-1zm-180 2 1.5.5-5 4-.5 1.5-2.5 1.5-.5 1.5-3.5 2.5-1.5 2.5-.5-1.5 6.5-8.5zm139 3 1.5 3.5-2 6 1 3 .5 2.5 2.5.5-2.5 3.5-7.5-11.5 1.5-2.5 2.5-1.5zm-192 6 .5 2.5q-8.1 20.4-11.5 45.5l-1.5-.5-1-6q2.5-25 13.5-41.5Z"/><path fill="#f7f7f3" stroke="#f7f7f3" d="m553.5 231 6.5 3.5 3.5 4.5 1.5.5-3 5 3 7q-2 4.5-4 1-1.7-13.7-7.5-21.5Zm55 2 2.5.5-3.5 6.5-.5-2.5v-2zm19 2 .5 2.5v2l-1.5 3.5-2 1-.5-3.5zm-42 2q13 10.5 12.5 34.5h-1l-1-2-1-3-2-7 1-3-2-1z"/><path fill="#f7f7f3" stroke="#f7f7f3" d="m602.5 237 1 2 1.5.5 1 4-5.5 10.5-2.5-6.5h1l.5 1.5q3.7-3.8 3-12Zm11 2 1.5.5q.9 6.9-2.5 9.5l-1.5-.5q-1.2-7.2 2.5-9.5Zm5 8 1.5.5 1 3-4.5 9.5-1.5-5.5zm-48 1 3.5 8.5-2.5 3.5-1.5-.5-2-8zm36 1 1.5.5-1 3-1 3v2l-1.5 4.5-1.5-.5 1-2-.5-1.5 1.5-.5-1-4zm-42 5 1.5.5 2 11-2.5 3.5-2.5-13.5zm14 0 3.5 8.5-2 1zm-170 4-.5 1.5-13.5 35.5-2.5-9.5 2-1q3.6-13.4 11.5-22.5l1.5-.5zm203 1 1.5.5 2 4-2 1-3.5 8.5-1.5-4.5zm-36 1 1.5 7.5-3.5 4.5-1.5-6.5zm-15 2 2.5 11.5-21.5 38.5-9 6-.5-1.5 5.5-9.5 7.5-5.5-.5-2.5-4 3 .5-1.5zm82 0q4.6 4.9 2.5 16.5h-1zm-59 3 2.5 5.5-3.5 4.5-1.5-7.5zm-164 3 1.5.5-1 2 1 4-5.5 8.5-1.5.5 1 2-2 1-2.5 7.5-1.5.5-1.5 2.5-.5-1.5 11-20v-2l1-2-2-1 2-1zm149 2 2.5 7.5-1.5 2.5-1.5-.5-1-7zm9 3 1.5.5 1 6-3.5 5.5-1.5-.5-1-6zm-206 2 .5 3.5-1.5 6.5-.5-6.5zm231 0 2.5.5-2 1 1 4-2 1-.5 2.5-.5-2.5 1-3zm11 0 1.5.5-6 17-.5 2.5-.5-9.5zm23 1 1.5.5-.5 15.5-2-1-5.5 4.5-.5 1.5-.5-3.5 1-2-1-2 3-4 1.5-8.5 1.5.5-1 7v2l.5 2.5 1.5-.5 1-5-1-3 1-2zm-72 2 1.5 7.5q-4.2 11.8-12.5 19.5l-4 2-.5-1.5zm24 2 1.5 3.5-3.5 4.5.5-1.5zm-199 7 2.5 12.5-4.5 13.5-.5-16.5zm36 0 1.5 5.5-1 5 2 10-2 1-.5-1.5-1 2-1.5-4.5zm176 2 2.5 1.5-1.5 9.5-1.5.5 1 2-1.5 2.5-.5-1.5v-13zm-34 1 1.5.5 1 6-4.5 5.5-1.5-4.5zm-129 2 .5 7.5v2q1.3 16.7 7 29l-2-1q-7-7.5-8-21l1-2v-2zm188 0 1.5.5q0 7.5-4.5 10.5l-.5-1.5zm-48 5 .5 3.5-3.5 4.5-.5-3.5zm11 0 .5 6.5-1.5 3.5-1.5.5-.5 1.5-1.5-4.5zm47 0 .5 3.5q.2 11.2-4.5 17.5l-5 2q-3.2-1.7.5-3.5l.5-1.5 1.5-.5-3-8zm-226 1 .5 2.5-5.5 11.5-.5-1.5 1-4h-1l-4.5 14.5-2.5-6.5 6.5-10.5 2.5-.5 1.5-3.5 1.5-.5zm153 2 1.5 4.5-3.5 4.5-2 1 .5-3.5zm6 6 1.5.5-2.5 7.5-2.5-.5zm-157 1 2.5 1.5-1.5 2.5-1.5-.5-1 9-6.5 14.5-1.5-.5-1-6 7.5-15.5 1.5-.5zm142 0-.5 1.5-6.5 8.5 1.5-2.5 1.5-3.5 2.5-1.5zm45 3 .5 2.5-2.5 6.5-.5-5.5zm-69 1 .5 1.5-6.5 9.5-15 7 2-3 11.5-7.5.5-1.5 2.5-1.5 1.5-2.5zm16 1-1.5 2.5-3.5 5.5-.5-1.5zm-128 2 1.5.5v2L408.5 347l-1.5-.5-1-4 1-3zm7 0 2.5 1.5 2 11-2-1-2-8 .5-1.5-1.5-.5zm162 0 .5 2.5-4.5 9.5-.5-2.5zm-211 1 2.5 17.5h-1zm181 1 1.5.5-8.5 10.5-4 3 .5-1.5 2.5-3.5 1.5-.5.5-1.5 3.5-2.5z"/><path fill="#f7f7f3" stroke="#f7f7f3" d="m518.5 317 .5 1.5-15 12 2 1q-2.9 3.6-10.5 2.5l-3-1-1.5-.5zm20 0 .5 1.5-6.5 10.5-12 7 .5-1.5 8.5-12.5zm-143 2 2.5 6.5-2.5 7.5-2.5-9.5zm26 2 2 6 1.5.5-2 1 1 2-12.5 28.5-.5-5.5 3-10 1-3q3.2-3.3 2-11zm124 4-.5 1.5-7.5 10.5-13 7 6.5-7.5 3.5-4.5zm-23 1-.5 1.5-8.5 12.5-8 4-5-3-2.5-1.5 4.5-2.5 4 1 1-2-1.5-.5zm-52 2 6.5 6.5-1.5 1.5-2.5-.5zm-80 5 3.5 8.5h-1zm37 0 1 2-1.5-.5-6.5 14.5.5-1.5 3-11zm202 3-.5 1.5-4.5 12.5-3.5 2.5-3.5 5.5-.5-1.5zm-151 1 2.5 1.5 1.5 2.5 1.5.5-1.5 2.5-4 1-3.5-5.5zm120 0 1 2-2.5.5 1 2-2 1-1.5 2.5-1.5.5-.5 1.5-1.5-.5zm22 0 .5 2.5-1.5 4.5-2.5 1.5 2 1-.5 1.5-1.5.5-4.5 7.5-1.5-.5 1.5-3.5 1.5-.5-1-3 4-2-2-1zm-96 1-6 7-5 3-1.5-2.5zm-93 1 1.5 2.5-.5 1.5 2.5 1.5-3 2-.5-3.5-6 12-1.5-.5zm111 1-.5 1.5-4.5 5.5-9 5 5-6zm25 0 .5 1.5-7.5 6.5 1.5-2.5 3.5-4.5zm7 0-.5 1.5-8.5 10.5 1.5-2.5zm-80 2 6.5 3.5-.5 1.5-5 2-4.5-4.5 1.5-1.5zm-59 4 2.5 3.5-5.5 11.5-1.5.5-8.5 23.5-1.5-6.5 5-9-1-5 2-1-2-1 2-1 1.5-2.5 2.5-.5-3-5h1l1.5 2.5zm49 1 6.5 2.5-6.5.5-3.5-1.5zm101 1 1.5.5-4.5 5.5-1.5.5.5 1.5q-3.2-1.7.5-3.5zm-181 1 1.5 4.5-1 3-.5 1.5-1.5-5.5zm55 0 3.5 2.5 2.5 3.5 1.5.5-1.5.5zm-4 3 6.5 5.5.5 1.5 2.5 1.5-1.5.5zm187 0 2.5.5-18.5 17.5.5-1.5 3.5-5.5 2.5-1.5 5.5-8.5zm-50 2 .5 1.5-10.5 12.5.5-1.5 6.5-9.5 1.5-.5zm-168 2 .5 2.5-3.5 6.5-1.5-.5v-3zm45 0q6.8-.7 7.5 4.5l-3.5.5-5.5-3.5zm-30 1 1.5.5 2 6-7 10-3.5 10.5-1.5-.5-1-4 1.5-2.5 1.5-.5 3-9-2 1-1.5 5.5-.5-3.5zm206 0 1.5.5-27 72-12.5 25.5-13 10-.5-4.5 5-6v-4l-3.5-.5-5 6-2 1-.5-3.5 12-10v-3l4.5-5.5 1.5-.5.5-1.5 2 1 4.5-2.5-1-6 4.5-6.5 1.5-.5-4-1 3.5-8.5 1.5-.5 3-7 12-13-5-2 8.5-18.5 1.5-.5.5-2.5 1 5 1.5-3.5-1-4zm-229 1 1.5.5-3.5 6.5v-2l-1.5-.5zm34 4 1.5.5 6 7-1.5.5-2.5-1.5-2.5-3.5-1.5.5 1-2zm83 0-2 3-5 2-.5-1.5zm-89 4 10 11 7.5 5.5-1.5.5-3-1-2.5 3.5q2.6 3.4 9.5 2.5l2-1q3.3 1.8-.5 3.5l-.5 1.5-2-1-.5 2.5.5 1.5 1.5-.5.5-1.5 1.5-.5 2.5-4.5 10.5 3.5-5 2 .5 1.5 10-3 9.5 3.5 1 2-13.5 7.5-8 2-3-14-7 16-3.5-1.5-3-6 3-2 2-4-1.5-2.5-1 2-1.5.5-2.5 3.5-7.5-14.5 1-2v-2l1-6-2.5-.5-2.5 4.5 2 4-2 1 1-3-1.5-.5-1.5 4.5 1 2-2 1-1 2 1 2-3 2-2-9zm68 1 6.5.5-2.5 3.5-7.5-1.5.5-1.5z"/><path fill="#f7f7f3" stroke="#f7f7f3" d="m422.5 368 1.5.5-5.5 8.5-.5-1.5 2-1 1-3zm140 0 .5 1.5-14.5 8.5.5-1.5 2.5-3.5zm67 2 1.5.5-2 1-4.5 5.5-2.5 1.5-1.5 2.5.5-1.5 2.5-4.5zm-83 5-.5 1.5-1.5 3.5-12 4 3-4zm-82 2 8.5 5.5-1.5-.5-7.5-3.5zm23 2 14.5 2.5-5.5.5-9-2zm138 1-1 3 2-1-1 2-2-1-4.5 10.5-6.5 7.5-1.5-.5q4.6-12.9 14.5-20.5Zm-75 1 2.5.5-5.5 6.5-.5-1.5 1.5-4.5zm-71 1 10.5 1.5-4.5 1.5zm64 2 1.5.5-1.5 6.5-7-1q-5.4 4.1-16 3l-1.5-2.5 1.5-1.5 15-1zm-114 1 1.5 7.5-1.5 3.5-3.5-2.5zm133 0-7 8-3 2-.5-1.5 3.5-4.5 3.5-.5 1.5-2.5zm-61 1 7.5.5-10.5 1.5v-1zm-53 5 7.5 11.5-2.5 3.5q-1.7-3.7-3.5-.5l2 1-1.5.5h-2l-2.5-1.5zm61 0 2.5.5q-4.7.8-4 7l-.5 2.5-4.5-2.5-4-5zm100 3 .5 2.5q-4.2 12.8-13.5 20.5l-.5-1.5zm-88 4 5.5.5-4.5 5.5-12 6-3.5-5.5zm-28 2 3.5.5 1 3-5.5 4.5-7.5-2.5zm-62 2q5 3 5.5 10.5l-2 1 1 2h-1l-5-12zm39 0 3.5 9.5-1.5.5-3.5-1.5-.5-1.5-1.5.5zm81 2 1.5.5-4.5 5.5-.5-3.5h1l.5 1.5zm-17 1 2.5 1.5-9.5 8.5-3.5-1.5zm31 0 .5 2.5-4.5 6.5-2 1 .5-1.5zm-112 4 8.5 4.5-.5 2.5-4.5 1.5-2.5 4.5-3.5-7.5 1-2-1-2zm23 1 7.5 1.5 1 3-3.5.5-5.5-2.5zm128 5 .5 3.5-6.5 11.5-1.5.5-.5 1.5-.5-1.5 5-12zm-102 1 1.5 3.5-4.5 2.5-4.5-2.5zm17 0 4.5 1.5-6.5 5.5-2.5-3.5zm-83 1 2.5 1.5.5 1.5 1.5.5 1 5-4-3zm12 0 1.5 3.5-2 1 .5 1.5 3.5 1.5 1 4-3.5 1.5-2.5-8.5zm111 2 .5 1.5-5.5 8.5-1.5.5-1.5 4.5-2 1-.5-1.5 8.5-13.5zm-97 1 3.5 1.5-3.5 6.5-1.5-.5-.5 1.5-1.5.5 1 3-2-1-1-3 2-1-1-2zm7 0 7.5.5 1 3-4.5 5.5zm127 1-1.5 2.5-4.5 8.5-1.5.5-1.5 5.5-1.5-.5q1.2-9.8 7.5-14.5zm-111 1 1.5.5-1 2 2.5.5 1-2 .5 2.5-7.5 1.5-1.5-2.5 2-1 .5 2.5zm92 1-.5 1.5-1.5 5.5-2 1-.5-1.5 2-1zm-110 2 5.5 11.5-2.5 3.5-10.5-5.5 1.5-3.5 2.5-1.5zm58 0 4.5.5-8.5 6.5-1.5-2.5 5-3zm-23 3 5.5.5-.5 1.5-9 5-1.5-3.5zm29 0 .5 1.5-3.5 5.5-4 3-.5-2.5zm-47 2 4 1 2-1 .5 2.5-3.5 4.5-1.5-.5zm32 0 2.5 5.5-3.5 2.5-1.5-5.5zm-36 2q3.5 2 2.5 8.5l-2.5 3.5-2.5-5.5 3-1-2-1zm79 0 .5 3.5-4.5 6.5-.5-2.5zm-23 1 1.5.5v4l-6.5 10.5-.5-2.5 1.5-2.5 2.5-1.5-2-1zm-93 2q10.7 14.7 15.5 35.5h-1zm68 1 1.5 5.5-8.5 7.5-1.5-3.5zm59 1 .5 1.5-4.5 5.5-.5-1.5 2.5-4.5zm25 2 .5 2.5-5 4zm-141 1 7.5 4.5 2 9-1 4 1.5.5 1.5-.5 3 8-2 5 2 1 .5 2.5 1.5-.5-1 4 2 6-2-1zm42 1 1.5 3.5-4.5 6.5-2.5-1.5-1-4zm25 3 2.5.5 1 3-2.5 5.5-3.5-6.5zm-57 1 5.5 2.5-1.5 4.5-1.5-.5zm78 1-.5 1.5-3.5 7.5-.5-1.5zm-43 2 1.5.5 1 5-4.5.5q-3.8-2.3 1.5-4.5zm16 0 3.5 8.5-5.5 3.5-.5-2.5 2.5-4.5 1.5-.5zm49 0 .5 2.5-3.5 5.5-.5-2.5zm-92 1 2.5.5-1.5 3.5-2.5.5 1 3-1.5 3.5-1.5-5.5zm40 2 .5 1.5-2 4-.5 1.5-3.5-.5 3.5-5.5zm-32 2 4.5 9.5-6.5 8.5-1.5.5-.5 1.5-1.5-7.5 6-11zm-44 6 5.5 11.5-2-1zm-10 1 4.5 3.5q6.2 4.3 6 15l-1 4q6.5 5.5 7 17l-1.5.5-13.5-31.5zm75 0 3.5.5 1 5-6.5 4.5-2.5-5.5 4-3zm102 3 .5 1.5-9.5 19.5-.5-12.5zm-86 1 1.5.5-4.5 9.5-1.5-.5 3-5zm37 4 1.5.5-5.5 7.5-3 1 .5-1.5 4.5-6.5zm-67 3 1.5.5 2 4-4.5 2.5-.5-2.5h1l.5 1.5 1.5-2.5-3.5-.5-1.5.5zm21 0 1.5 2.5-5.5 6.5-1.5-.5 2-4-.5-1.5 1.5.5.5-2.5 1 2zm19 3 1.5 2.5h-2l-1.5 3.5-5 3 2.5-3.5zm-86 1 2.5 1.5 4 13-1.5.5-3.5-6.5v-2zm21 0 5.5 14.5-1.5.5-4.5-10.5zm128 1 1.5 12.5-1.5 3.5zm-101 11 .5 1.5-1 3-1.5 3.5-.5-2.5.5-1.5-1.5-.5zm113 0-2 3-5 4-.5-1.5zm-127 2 2.5 6.5-2 1-2-6zm-6 4 4.5 12.5h-1l-5-10zm102 2 .5 2.5-6.5 8.5.5-1.5zm-133 14 .5 7.5v2l-1 2q3.2 2.3-2.5 4.5l-16 9 1.5-2.5zm4 0q3.4 2.6 2.5 9.5l-3 2zm41 5 3.5 1.5 3 16h-1zm48 3 .5 1.5-3.5 6.5-.5-1.5zm38 2 .5 1.5-1 7-16.5 20.5.5-1.5 9.5-22.5zm-75 8 1.5.5-3.5 8.5-1.5-.5 1.5-7.5zm-44 2 1.5 8.5-5 4zm56 0 .5 1.5-2 1 1 2-2 1-.5 3.5-1.5-5.5zm48 3-.5 1.5-12.5 23.5-.5-1.5 2-9zm14 1 .5 2.5-2.5 3.5-5 3 4.5-5.5zm-111 1 3.5 7.5-3-2-.5-1.5-2.5-.5zm119 1 1.5 6.5-2.5 3.5-.5-1.5zm-78 1 1.5.5 1 6-1.5 2.5-2 1-.5-7.5zm-48 6 1.5.5 7 19 5 26h-1l-7.5-21.5-3.5.5 1 7v2l6 35q-7.5 20.5-9 47l3-2 5.5-37.5 1.5.5 1 14 3 11-8 27 2 5-5 10 2.5 4.5 2-1-.5 1.5-1 26 11 41q3.4 12.1 2 29l-1 13 3 20 2.5 5.5 2.5 1.5 3 9q-1.8 4.7-9 4l1.5 2.5 5 1 5.5-4.5 3.5-9.5 7.5 14.5-5.5 8.5-1.5-.5 1-6-3-1 1-2-2.5-.5q.1 7.6-5 10l-1.5.5-3.5 6.5-1.5.5-15.5 22.5-1.5.5-2.5 3.5-1.5-.5-1-3 4-18-2-1q.5-13 6.5-20.5l.5 2.5.5 4.5 3-13 1.5-.5-1-6v-2l-2-10 2-8q-2.6-23.4-10-42l-3-22-10-36 2-1 3-7-4-10 1.5-.5 2 1 2.5-1.5-.5-2.5-5.5-.5 4-9v-6l-1.5-3.5-1.5.5-3.5 15.5q-7.4-7.6-9.5-20.5l4-15 1-16 6-22 1-14-1-2 4-38q.9-11.1 7.5-16.5Zm117 0 .5 2.5-3.5 19.5-1.5.5.5 1.5 1.5-.5-.5 3.5-1-2-.5 8.5v2l-1 11 1 2v2l-7 57 2.5 1.5 5.5-9.5-1.5-.5-3 5-.5-8.5 5.5-26.5.5 26.5 2 9-4 9-6 30q2.5 5 5 0l.5-1.5 1.5 10.5-2 12 13 63v4l-1.5 9.5-3-1-1.5 8.5 1 6v2l5 31-1 3 1 2-3 2 1 9-2 6q1.6 4.9 8 5l-2 6 2.5 1.5 7-11 3.5 8.5-2.5 4.5.5-1.5-1.5-4.5-1.5.5-1 10-5.5 6.5-.5-1.5 1-3h-1l-5 13 1 6-9.5 18.5-2 1 .5-1.5-.5-3.5-2.5 5.5 1.5 2.5 6.5-3.5 2.5-4.5.5 8.5-3.5 4.5-4 1-1-2-4.5 1.5-4.5 8.5-.5-3.5 2-6-2.5-1.5-3.5 2.5-3.5 9.5-1.5-3.5 5-11-1.5-2.5-4-1-7 12h-2l-2-1-1.5.5 5.5-10.5 4.5-2.5.5-1.5 3.5-1.5 9-20-.5-1.5 2.5-.5-.5-1.5 8.5-4.5-.5-1.5-8 3 .5-3.5v-3l7-9 2-10-2-14 3-6-4 2q2.3-42.8-5-76l3-2q-2.7-19.8-11-34l5-2 4-15-7-4 3-10q-1.8-4.2-3.5-1.5l-11 5q-5.1-5.4-3.5-17.5.5-7.5 5.5-10.5l2.5.5 4.5 9.5 1.5-.5-5.5-12.5-6.5 2.5-2.5 4.5.5-1.5 5-26-3.5-1.5-4 3-.5-1.5q5.2-14.3 6-33l14-35 2-10-1-2 4-8-2 1-12.5 19.5-.5-1.5 6-18 7.5-7.5 5-4 2 10 .5-9.5-1-1zm2.5 285-3 3 2 4 4-1v-4zm-13 62q-5 2-4 10v2l-2 8 3 1q7-8 9-20l-1-1-6 14h-2l4-13zm-43.5-344 .5 1.5-3.5 6.5-.5-2.5zm-78 1 .5 3.5-1 5-13.5 15.5.5-1.5zm23 0q7.1 6.9 8.5 19.5l-.5 2.5-1.5-.5zm113 1 .5 9.5-1.5.5-.5-3.5 1-2v-2z"/><path fill="#f7f7f3" stroke="#f7f7f3" d="m577.5 549 1.5.5-1 6q3.3 3.7 2 12l-9 39-2.5 23.5-1.5-3.5 1-3v-14l5-35 4-8zm-109 1 7.5 16.5h-1l-7-13zm46 3 .5 7.5-6.5 14.5-2.5-1.5-1-3 2-1zm-6 1 1.5 2.5-5.5 8.5-.5-1.5zm-70 1-.5 1.5-3 19 1 2q-3.8 4.7-3 14l-5.5 13.5-.5-1.5 1-3 2-10v-2l6-31zm132 4 .5 2.5q-.2 26.8-5.5 48.5l-1.5-.5 1-21 3-8 2-16v-2zm-36 2 .5 4.5-4.5 5.5.5-1.5zm8 5-.5 1.5-6.5 18.5-.5-2.5 1-10zm-74 2 3.5 13.5h-1zm4 1 7.5 14.5-1.5 4.5zm79 2-.5 1.5-10.5 25.5-.5-4.5q2.9-14.1 11.5-22.5Zm-96 4 8 22 1.5.5 3 23 2 4-4.5 13.5-4.5-22.5v-10l1-3-1.5.5-1.5-.5zm78 2 .5 6.5-1 5v2l-1.5 2.5-.5-7.5 1-3zm-67 6 1.5.5 6 18v7l-2-1zm29 5 3.5 2.5 2 6-2 1zm42 4 .5 1.5-3.5 12.5-.5-6.5zm-103 6 1.5 2.5-2.5 15.5-.5-6.5zm90 10 1.5 34.5-1 14 1 3v2l-1.5 3.5-1.5-8.5v-42zm8 14 2.5.5-1 3-1.5 9.5zm-54 11 .5 2.5q-6 18.5-7.5 41.5l-3.5-17.5zm-10 8-.5 1.5-4.5 11.5.5-1.5zm68 7 1.5.5-6.5 30.5-1.5-.5 2-23zm-70 20 2.5 11.5v2l-.5 1.5q-4.3-5.1-2-15Zm-37 9 4.5 9.5-3-2zm32 3 1 8 1.5.5 4 16-1 9 1 2-1 4 1 2-1 7v2l3 27 2 4-1 5v2l1 5h-1q-3.6-31.4-13-57v-19l1-13zm65 5 2.5 9.5-1.5.5q-3.8-2.3-1-10Zm-55 8 2.5 8.5h-1zm-34 2q3.6 2.9 2.5 10.5l-2 1-3-9zm111 0 1.5.5-3.5 7.5-5.5-2.5.5-1.5zm17 6 4.5 9.5 4 20 3 6v19l-2 1-1-11-3-6 1-2-6-21zm-96 6 5.5 19.5v11l-2.5 12.5zm80 2 3.5 2.5q.7 7.2-3.5 9.5l-1.5-.5 2-6zm-117 2 3.5 5.5 8 26 5 28-2-1-10-33zm102 9q5.5 12 5.5 29.5h-1l-4-13 1-2-3-12zm5 0q7.1 3.9 6.5 15.5h-1zm4 19 1.5.5 3.5 16.5 2.5-1.5.5-3.5q5.4 15.6 6.5 35.5v2l1 10v2l-.5 11.5-4.5-31.5-9-25z"/><path fill="#f7f7f3" stroke="#f7f7f3" d="M540.5 758q9 13.5 10.5 34.5h-1zm-63 25 3.5 12.5h-1q-4.3-4.5-2.5-12.5Zm-6 3 3.5 17.5-2.5 4.5q-3.4-8.8-1-22Zm101 1 2.5 10.5-1 2 1 2-1 2v2l-.5 2.5-1.5-10.5v-2l-1-6zm-97 22 .5 13.5-2-1zm10 2 3.5 12.5h-1q-4.5-4.2-2.5-12.5Zm90 30 1.5.5 2 9-2 1-.5-2.5-1.5-.5zm-21 4 .5 2.5-2.5 8.5-2.5-.5zm-6 12 1.5.5-1 3-1.5 5.5-1.5-.5zm11 0 .5 6.5-4.5 5.5-.5-3.5zm-112 12 .5 1.5-2 19-10.5 15.5-.5-2.5 6-8-4.5-1.5-1.5.5-1.5-3.5-5 3 6-7 6.5-3.5zm-11 8-5 6-6 4-.5-1.5 2-1 .5-1.5 5.5-2.5.5-1.5zm26 0-.5 1.5-2 5 3 2 1 2q-9.5 9.5-11.5 26.5l-7.5-.5 5.5-10.5 3.5-2.5-2.5-4.5-1.5-.5q3.1-12.4 12.5-18.5Zm1 16 .5 5.5-5.5 4.5.5-1.5zm59 34 3.5 6.5-4.5 1.5-.5-5.5z"/><path fill="#888777" stroke="#888777" d="m482.5 134 21 1 31 11 6.5.5.5 1.5 1-2 26 1 23.5 8.5-3.5.5-20-6-2 1-2-3-1 2-10-1-9 1v-1l3.5-.5-.5-1.5-2 1-2-1-1 2-6-2-3.5 1.5 3 1-5 1 2 1-3.5.5-2.5-1.5 1-2-2 1-.5 1.5-9-1-2 1-3-1-5 3-4.5-2.5 2.5-.5h2l12-1 4-2h2l7.5-.5-33.5-10.5-2 1-3-1-3-1-16 3-19 9-1-2-2 4-12.5 7.5-.5 1.5-1.5.5-1.5 2.5-3.5 2.5-.5 1.5-1.5.5-.5 1.5-1.5.5-.5 1.5-1.5-.5-.5-1.5-1.5 2.5 2 1-2 1-14 17 1.5.5 16-10-3 4-2.5.5-1.5 2.5-10.5 7.5-1.5 2.5-1.5.5-1.5 2.5-1-2-5 10-1.5-.5 1 2-3 2v2q-6.9 6.6-9.5 17.5l-.5-1.5 2-4-1.5-.5q-8.7 8.3-12.5 21.5l1 4-2.5 1.5v-2l-4 3 3.5-4.5 4.5-12.5 1.5.5-1-2 2.5-4.5 1.5-.5 1.5-3.5 6.5-4.5 6.5-14.5 1.5-.5v-2l14.5-22.5 1.5-.5 6.5-7.5 1.5.5-1-2 3-2 2.5-3.5 3.5-2.5.5-1.5 11.5-7.5 2.5-3.5 19-11 3-1 3-1 1.5.5.5-1.5zM420 175l-6 7 1 1 6-7z"/><path fill="#888777" stroke="#888777" d="m490.5 153 1.5.5-8.5 2.5v-1zm67 7 3 2 4-1v1l-4 1-3.5-1.5zm26 1 7.5 4.5-1.5-.5zm-81 2 17.5.5-17.5.5zm75 6 12.5 5.5-1.5.5zm20 0 9 10zm-119 1 .5 1.5-19.5 9.5-2-1-5 3v-1l9-4 1.5.5 1.5-2.5 5.5-1.5.5-1.5 6-2 1.5.5zm117 4 10.5 12.5h-1l-.5-1.5-1.5.5q3.3-2.2-2.5-4.5l-2.5-.5 2-1q-2-3.5-4 1l.5 1.5-4.5-3.5-1-3 1.5.5 2.5 1.5-.5 1.5 3.5-1.5zm-14 5 6.5 5.5-1.5-.5-2.5 1.5-.5 2.5-1-2-1 2-4.5-2.5 1.5-2.5-.5 1.5 1.5 2.5 3.5-2.5-1-2zm27 2 6 7zm-171 1v3q-1.8-2.7-3.5 1.5l.5 1.5 1.5-.5.5-1.5 6-3-1 2-11 8-1.5-.5-2.5 3.5.5-1.5zm135 6 3.5 2.5-.5 2.5-2-4-1.5 2.5.5 1.5-2.5-.5zm13 0 2.5 3.5v2l-.5 2.5-3-5-2.5 1.5 1.5-3.5zm39 2 12.5 9.5.5 1.5 1.5.5 6 14h-1q-1.9-11.1-9.5-16.5l-1.5-.5-.5-1.5-1.5-.5-.5-1.5zm-166 1 4.5 2.5-.5 3.5-1-4-3-1-1.5.5zm-8 2 1.5.5-10.5 5.5 1-2zm-20 3-7 8zm67 3q5.8-.7 6.5 3.5l.5 1.5 1.5-.5.5-1.5 1.5.5q-3 7.5-16.5 4.5v-1l11.5-.5-2.5-3.5-6 1v-1l2.5-.5zm97 0 2.5.5.5 2.5 2.5.5-1.5 4.5-1-3q-2.2 3.3-4.5-2.5zm-158 2-5.5 6.5.5 1.5 4.5-3.5-5 6 1.5.5 1-2 3-2 .5 1.5-8 11 3.5.5 3-2-1 2-6 1-1.5-4.5 2-1-1-2 1-2h-2zm151 0 9.5 8.5 10 15-1.5-.5-2.5.5.5 1.5 1.5-.5-1 3 4-2 3 6-4 2 1 2-1 3 2-1 2.5-4.5 3.5 4.5-3 2-1 8 1.5.5 3-9 4.5 6.5-2 1-3 10 1.5 2.5 4.5-10.5-.5-1.5 5 9 2.5 1.5 1 3-5.5 11.5-1.5-.5 1-2h-2l-5.5-10.5-1 3-2-4-1.5.5-3 11 1.5 2.5 3.5-8.5-1-2h1l.5 1.5 2.5 1.5 3.5 6.5 1.5.5 1 2-2 1 2 1-1 4 2 1-1.5 4.5-1-2-1.5 4.5 1.5-.5 1.5.5-2.5 13.5-1-3-1.5 3.5 2 1q.4 6.4-3.5 8.5l-1.5.5-.5 1.5-1.5.5 1 1-4 4-.5 1.5-1.5-.5.5-1.5-1.5-.5 4-2-3-2 2-1 .5 1.5 1-2 1.5-.5-3-1 .5-1.5 1.5-.5 1-3-3-4 2.5-3.5 1.5.5-.5 2.5-1.5-.5.5 2.5 1.5-.5.5 1.5 2.5-5.5-1.5-2.5-2 1-2.5.5-3 6 1 2h-1l-.5-1.5-1.5.5.5 2.5 1.5.5-2.5 8.5-4 2-.5-1.5 4-10q-3-2 2-4l1.5-13.5 1 5 2.5-1.5-2-1 1.5-2.5 1.5.5-1-4 4-11-1.5-.5-4 7-.5-1.5 2-4-1.5-2.5-1 3-4 3-1.5-3.5 2-1-2.5-.5-1 4-.5-3.5 1-3-1-2h1l.5 1.5 1-2 3 2 .5-2.5-7-15 5.5-10.5 3 5 1.5-2.5-1.5-3.5-3.5-1.5-.5-2.5-1.5-.5.5-1.5 2.5 1.5-2-3 .5-1.5-3-1-.5 2.5 1 9-3.5 5.5.5-1.5-.5-1.5-1.5.5-2-3 3-4-3-1-1-3v-2l2-7-1.5-2.5-4 5-1.5.5-1 3 1.5 2.5-7-8 4.5 3.5 1.5-5.5 1.5-.5v-2l-.5-4.5-4-1-2 1-1.5-5.5 1.5-5.5 1.5-.5zm7.5 7-2 3 2-1v2q-4 1 0 3v-1h2zm11 43-2 3 1 4h-1v2l-1 2h2l1-4v-2l1-2zm11.5-50 5.5 7.5-2-1zm-126 2 1.5.5-7.5 3.5v-1zm-34 1-10 11 1.5-2.5.5-1.5zm-35 1-5 6zm117 0 6.5 2.5-2.5.5-2-1 .5 1.5.5 1.5 6-1v1l-3.5.5 9 4-1.5.5-15.5-7.5 1.5.5 1.5-.5zm-89 2-5 6zm30 1 1.5.5-2 1 .5 1.5-1.5-.5-1.5 2.5-4 2 2-3 2.5-.5zm152 1 6 7zm-19 1 7.5 10.5h-2l2.5 10.5 1.5-.5.5-1.5 2.5.5 2 5-4 9 1.5-.5 2.5-1.5-1-3 1.5-2.5 5.5 20.5-1 3h2l-.5 2.5-15.5-21.5 1-3-1.5-.5v2l-1-3-2.5-1.5 3-2 1-3-2.5-10.5-3 10-2.5-1.5-2-3 2-3-3 1-5-8 2 1 1.5 2.5 4.5-3.5 1.5-2.5 1.5-.5zm-102 1 11.5.5-9 1-.5 1.5-5.5-1.5zm-109 2 2.5.5-10.5 16.5-.5-1.5 6.5-11.5 1.5-.5-.5-1.5 1.5-.5zm153 2 7.5 4.5-1.5-.5z"/><path fill="#888777" stroke="#888777" d="m424.5 218 2 6 5.5.5-5.5.5-3.5-2.5zm36 1-7 8-1.5-.5 5-4-1.5-.5-6 4v-1l8-5zm77 0 9 2 6.5 4.5.5 1.5 1.5.5.5 1.5 14 10 1.5-.5-1 2 3 1-.5 1.5 1.5.5-.5 2.5-1-2-1.5-.5-.5-1.5-2.5.5.5 1.5-2.5.5 1.5 3.5 2-3 3 5 1.5.5-.5 1.5-3-4-2 3-4-8-2.5 1.5 3-5-5-4-1.5-2.5-7.5-3.5-3-5 .5-1.5-1.5.5-.5 2.5-1.5.5 2.5 3.5 3.5 2.5-2.5-1.5-4.5-3.5 2-3q-3-4-11-3zm109 0 11.5 35.5v2l2 12v2l2 11v2l1 2-1.5 3.5-1.5-.5-1-2v-2l1-2-4-23v-2l-11-37zm-166 1 .5 1.5-3 2-1.5 2.5-2 1 1-2 1.5-.5-2.5-.5-3 5-12 7 2-3zm86 1 4 2 1.5-.5.5 2.5 1-2q5.1 3 3 6l-2-4-2 1zm-84 1 3 1 5-1v1l-7 1-1.5-.5-.5 1.5-1.5-.5zm76 1 7.5 6.5-5.5-4.5zm-49 1 4.5 3.5 2 3-4-1 1-2zm-56 7 .5 1.5-6 5 1.5-3.5zm130 3 5 6-3.5-2.5-.5 1.5zm-121 2-7 8zm-45 6 1.5.5-2.5 12.5-1.5.5-12 26-7.5 22.5-1.5-8.5 13-33-1.5-.5-12 23-2.5-.5-1-5 2-1 1.5-7.5 1.5-.5-2-1 2.5-7.5 1.5 3.5-2 7 2-1 10.5-18.5 2.5-.5 4.5-7.5 1.5-.5zm26 0 1.5.5-4.5 6.5-.5-1.5zm148 2 5.5 11.5h-1zm-165 1 3.5 1.5-1 7h3l.5-1.5.5 1.5-1.5 2.5-2-1-.5 1.5 2 1-1.5 3.5-1.5.5 1 2-8 23-2 14 2 9v2l2 10h-2l-4 8v7l-4 6 1 2-3 14 2-1 11-28-.5-1.5 2.5.5 3 5-.5 1.5 1.5.5 2 3-8 16 1.5.5 7.5-13.5-.5-1.5 2.5 3.5-1.5-.5-1.5.5.5 3.5 3-2 1 2-2.5.5-4 9 1 2-4 2-.5 1.5-1.5.5 2 1-2 1 1 5-5 9v4l1.5 2.5 4-8 3 6 1-2 .5 1.5-5 11 3.5 2.5 1.5-7.5-1-2h1l4 13h-1l-.5-2.5-1 3-2.5-1.5-.5-1.5-4.5-3.5-7.5-15.5-1.5.5.5 1.5-5.5-4.5.5-1.5-1.5-.5-2-5 3-1-.5-1.5 2.5 4.5-.5 1.5 1.5.5v2l1.5 3.5 4.5-2.5-3-1-1-4 2-1-4-2-7-20 2-1 11-30-.5-2.5-1.5.5-8 21-4 5 .5 1.5-1.5-3.5.5-1.5-2.5-1.5.5-1.5 1.5-.5 6-14v-7l-1.5-.5-8 17-2.5-9.5h1l.5 1.5 5.5-15.5q-1.5-3-3 0l-4.5 8.5-2.5-8.5h1l.5 1.5 11.5-24.5-2-5 4-2zm-6.5 23-1 2-2 1 2 1-1 2v2l-4 7h2l3-6v-2l1-2v2h1l-1-4 1-2zm-6 15-7 13 1 1 1-2 2-1 2-7 2-1zm-3 15-1 2h-1l-2 4v2l-2 5 1 1 5-11zm16 36-6 11 1 3 5-10zm-2 22-5 6v3h2l3-6zm-2 12-2 4q-4 1 0 3l3-6zm153.5-120 3.5 6.5h-3l1-2-2-1-1-2zm-26 1-.5 1.5.5 1.5 1.5-.5-6.5 20.5-1.5.5-.5 1.5-1-2-1.5 3.5h2l-7 15v2l-7.5 17.5-2.5-.5 13-28-1.5-.5-2.5 1.5-.5 2.5-1.5.5-.5 1.5-3.5 2.5-.5 1.5-1.5.5-1.5 2.5-1.5.5-7.5 10.5-1.5.5-.5 1.5-1.5.5-5.5 7.5-8.5 6.5-.5 1.5-1.5-.5.5-1.5 3.5-2.5.5-1.5 1.5-.5 2.5-3.5 4.5-3.5 2.5-4.5 1.5-.5 8.5-11.5 1.5-.5.5-1.5 1.5-.5.5-1.5 4.5-3.5 3.5-6.5 3.5-2.5 10.5-22.5 2 1 .5-1.5-2-1zm-179 3 1.5.5-5.5 9.5.5-1.5 1-5h-2l1.5-2.5 1 2zm202 1 1.5 3.5-3.5 4.5-1.5-.5 2-1 2-4zm-10 8 2.5 8.5-1.5.5zm35 3 .5 8.5-1 3-.5 2.5-1.5-7.5h1l.5 1.5zm35 1 1.5.5-2 1 .5 1.5 2.5.5 1 4-.5 1.5 1.5.5-.5 1.5-1.5.5 1 3h-1l-1.5-2.5-1.5.5q.2 8.7-4 13l1 2-1 4 .5 1.5-2.5 1.5-3.5 4.5-1.5-.5 4-3 2-8-2-1 6-18-1-3zm-195 7 .5 2.5-3.5 10.5-.5-3.5zm207 0 .5 6.5-1.5 4.5-.5-3.5zm-79 1 2 7 1.5.5-1.5 2.5-1.5.5-1.5 3.5.5-1.5-1.5-7.5-2 3-2-3 2.5 1.5 1.5-3.5 1.5-.5zm85 0 .5 14.5h-1zm-67 6 1 5 3-5 1.5.5-.5 1.5-1.5-.5-2.5 8.5-.5-2.5.5-1.5-1.5-.5zm54 0 .5 11.5h-1zm-37 1 2.5 1.5-1 2 3 1-2 4 1 8-5.5 11.5-.5-11.5h1l1.5 6.5.5-1.5-.5-1.5 1.5-.5 1-9-2.5-1.5-1.5.5 1-4-1-4z"/><path fill="#888777" stroke="#888777" d="m634.5 280 1.5 8.5-1.5.5-.5-2.5v-2zm-184 4 1 12 1-2 1.5 4.5-4-3zm-25 2 1.5.5 1 6-1.5 5.5-.5-4.5 1-4-1.5-2.5-.5 3.5.5 1.5-1.5-4.5zm155 0 .5 5.5-4.5 3.5-.5-2.5zm78 4 2.5 1.5v2l1 6v2l-2 15-2.5 5.5-1.5.5 2 1-5.5 21.5-1.5-.5-2.5 5.5-1.5.5-3.5 4.5 1-3-3-1v2l-2.5-.5 1.5-2.5 2.5-.5q-2.7-1.8 1.5-3.5v2l5.5-2.5 8-32 .5-2.5 1.5-.5-2-1 2-12zm-288 1 .5 17.5h-1zm265 0 2.5 1.5-1.5-.5-6 4 3-4zm-202 1 1.5 6.5-1.5 2.5-.5-6.5zm-10 1 .5 10.5h-1zm142 0 .5 1.5-2 4 1.5 3.5 4-5 .5 1.5-4.5 5.5-2-4-3 4 .5-1.5zm-123 1 .5 12.5 1.5 1.5 2.5 1.5-1.5-.5-3.5-2.5zm98 1-.5 1.5.5 2.5 1.5-.5-1 2 1.5-.5 2-1 .5 2.5-7.5 5.5 1-2 1.5-.5-1-2 2-1-1.5-2.5-3 4-.5-1.5zm97 0 .5 4.5h-1l-.5-2.5-9.5 10.5 2 3-1 3h1l.5-1.5.5 2.5-2 1-2 3 3.5 1.5 2.5-1.5-5 4-2.5 4.5-1-1-6.5 5.5.5-2.5 1.5-.5-2-1 7.5-18.5 1.5-.5 5.5-8.5zm-245 1 1.5 10.5-2 5 3 1 2 8h-1l-.5-1.5-3 8-5.5-13.5zm168 0 .5 1.5-2.5 5.5-4 2 3.5-4.5zm-204 1-.5 1.5-1 2 1 2h-1l-.5-1.5h-2l-2.5-1.5.5-1.5 4 2zm233 7 .5 2.5-6 5-.5 1.5-.5-1.5 1.5-5.5 2 3 1-2 1.5-.5zm-30 1 .5 1.5 1 3-3.5 3.5-3 2 2.5-3.5zm-136 1 1 3 1-2 1 2 1.5-.5 1 4-1.5 2.5-2-1-1.5.5zm131 0 1.5.5-2 1 .5 1.5-1.5-.5 1 2-2.5.5-1.5.5-1 3 3-1-7 6 1-3-3.5 2.5-1.5-1.5 5.5-6.5zm-22 3 .5 1.5-4.5 7.5.5-1.5zm3 0 .5 1.5-4.5 8.5-1.5-.5zm-181 2 .5 10.5h-1zm87 0 3 12 2-3 2.5 3.5-.5 1.5 1.5.5 9 15-1.5-.5-4.5-3.5-.5-1.5-1 2-3.5-1.5-.5-1.5-1.5-.5-2-3 1-3zm5.5 16-1 2 2 1-3 1h2l1 2 1-2 1 3 2 1-1-2 1-2h-1l-1-1zm-1.5-16 1.5.5 1.5 2.5 4-1v1l-1.5.5 2 5-2.5 1.5zm84 0-1 2-2.5 1.5-1.5 2.5-1.5.5-.5 1.5-13.5 9.5 2 1-2.5 1.5-1.5-.5-.5 1.5-2.5-1.5 15-12 .5-2.5zm48 0 1.5.5-2.5 5.5-3 2-.5-1.5 2-1 .5-1.5 1.5.5-1-2h2zm-12 1 1 2 3-1 .5 3.5-3-1 2 3-9.5 7.5-.5-1.5 5-3 3-4-1.5-.5-2.5 1.5zm31 3 2.5 6.5-3.5 2.5-.5-2.5zm-127 1 1.5.5-.5 1.5-1.5-.5 2.5 4.5 2-1 .5 2.5-1.5-.5-2.5-1.5-.5-1.5-1.5-.5-.5-1.5-3.5 1.5-.5 1.5-.5-2.5zm45 0-1 2-7 3v-1zm42 1 2.5.5-4 2 1 2-4 3 .5-1.5-1.5.5-.5 1.5-3 2z"/><path fill="#888777" stroke="#888777" d="m615.5 318 1.5.5q.4 8.9-3.5 13.5l-2.5.5-.5 1.5-2.5.5.5 1.5 1.5-.5-3.5 7.5-1.5.5v2l-.5 1.5-1.5.5-2.5 5.5-1.5-.5 4-6v-2l-1-2 3.5-7.5 1.5-.5-1-3 1-3 .5-1.5 4.5.5.5 2.5.5-3.5-.5-1.5 1.5.5-1-4zm-75 1 3.5 1.5-1.5 2.5-4 2-.5-1.5zm64 1 1.5.5-.5 2.5-1-2q.4 6.4-4 8l-1.5-.5 1 2-6.5 6.5-1.5-1.5 4.5-5.5 1.5-.5q-3.3-2.2 2.5-4.5l2.5-.5-1-2zm-146 1 1.5 3.5-4 5 2 1 .5 1.5 1.5.5-1.5.5-6.5-8.5 2 1 1.5 3.5zm-61 1 1.5 3.5v2l7 23h-1l-.5-1.5-2 6-3.5-10.5 1-3-.5-2.5-1 3-4.5-10.5h1l.5 1.5 2.5-7.5zm84 0 3 5 2.5 1.5.5 1.5 7.5-4.5.5-1.5 2 1 1.5-.5-11.5 6.5-1.5-.5-.5 1.5-1-2-1.5-.5-2.5-3.5-2.5-1.5 1.5.5 3 2 .5-1.5zm22 2-1 2-6 3 1-2zm76 1 .5 1.5-2 1 1 3h-1l-.5-1.5-1 2-.5-1.5zm-110 1 1.5.5 7 9-1.5.5.5-1.5-5.5-5.5-1 2zm160 0 1.5.5-4.5 6.5v-2l-1.5-.5zm-80 1-5 6-.5-1.5 3-2-.5-1.5zm12 1-2.5 3.5.5 1.5 3.5-2.5-4.5 3.5-2-1q2 3-4 6l-3 2 1.5-2.5.5-1.5 2.5-.5-.5-1.5 2.5-.5.5-2.5zm-172 1 4.5 10.5-2 1 1-3-1.5-2.5-1 2-.5-1.5 1-2zm180 0 3.5.5-4 1 3 1-4.5 3.5-.5-2.5zm-77 1-1 3 2-1 7.5 2.5-5 1-.5 1.5-1.5-.5-.5-1.5-1.5.5-2-3zm110 2 2.5 1.5h-2l-.5 1.5-1.5.5-2.5 6.5-2-3-2.5 1.5 5.5-6.5zm22 0v2l1.5.5-5 7-4.5 12.5-1.5.5-1.5 2.5-1.5.5 1 2-2.5 3.5-1.5-.5 1 3-3.5 6.5-2.5-.5 1.5-2.5 1.5-.5 1.5-7.5 2.5-.5-.5-1.5-1.5.5.5-1.5 1.5-.5-1-2 1.5.5 3.5-2.5 2.5-5.5 1.5-.5-.5-1.5-3 2-2.5-.5 3.5-6.5-.5 1.5-1 3 1.5.5 3.5-2.5 1-6-4 2zm-138 1 2.5 2.5q-5.3 2.2-1.5 4.5l4-1v1l-7 3 .5-1.5 1-2-3-1 .5-4.5 2 1zm44 3-6 9-3 1zm-86 2 1.5.5 8 11q-1.5 3-3 0l.5-1.5-2.5-1.5zm-69 1 2.5 7.5-4.5 2.5-.5-4.5zm122 0 5 4 2.5.5-.5 1.5-1-2h-2l-4.5-2.5zm-103 2 2.5 5.5-.5 1.5 1.5.5v2l2 5-2-1-3-7-1-3-1-2zm76 0 2.5.5.5 2.5 2.5 1.5-3.5.5zm97 1-6 7-2 1-1-2-2 3-1.5.5-.5 1.5-.5-1.5 4.5-5.5 1 2zm26 0-.5 1.5.5 1.5 2-1-3 4-2.5-.5 3-1-.5-1.5-1.5.5zm-153 1 4.5 7.5-2-1zm15 1 3 4 3.5 2.5.5 2.5 3 1 6.5 1.5-3.5 1.5-2.5-.5.5-1.5-2 1zm57 0-.5 1.5 2 3-4.5.5-5 1 1-2 3-1 2.5-.5zm58 0 2.5.5-6 3zm-43 1 1.5.5-11.5 7.5v-1zm21 1 .5 1.5q-3 6-6 4l-5.5 7.5-2.5-.5 6.5-7.5 2-1 2.5-.5-.5-1.5 2.5-.5zm-111 4 3.5 6.5-2 1-4 9 1 4-3.5 6.5-1.5.5-1.5 2.5-2-4-1.5-.5 3.5-8.5 2 1-1.5-2.5 1.5-4.5 1.5-.5zm17 1 6.5 5.5-.5 2.5zm131 0-3 4-1.5.5.5 1.5-2.5 1.5-18.5 21.5-3 2 2-3 1.5-.5.5-2.5 1.5.5 16.5-21.5 1.5-.5.5-2.5v2zm65 1-1.5 2.5-7 20 .5 1.5-1.5-.5 1 2-2 4-9.5 25.5-1.5-2.5 1.5-3.5 1 2 1.5-2.5-2-1 2.5-6.5 1 2 1.5-2.5-2-1 3.5-7.5 1.5-.5v-2l3-12h-2l-.5-4.5-1 3-1.5.5-8 18 5 2-1.5 2.5.5-1.5-.5-1.5-7.5 3.5-11.5 13.5-6.5 4.5-.5 1.5-.5-1.5 4.5-8.5 4.5-2.5 7-14-3 1 23.5-25.5-1.5 2.5 1 4 .5 2.5 4.5-11.5-2-1zm-244 1 2.5 7.5-2 1 .5 2.5 2-1 .5 1.5-2 1 .5 1.5-1.5-.5-3-8 1-2h-2zm87 1 2 1h4l2.5 1.5-3.5 2.5-4.5-.5 1.5-2.5zm127 0-2 3-1.5-.5 1 2-2 1v2l-2.5 5.5-1.5.5v2l-5.5 9.5-1.5-.5 9.5-17.5 1.5-.5v-2l1.5-3.5zm-238 1 .5 1.5-.5 1.5 1.5.5 1 3-.5 1.5 2.5 1.5-2.5 3.5-5.5-1.5 1-8zm65 4 1.5.5-.5 1.5 2.5.5v2l3 4-1.5-.5-2.5-.5.5-1.5-1.5-.5zm157 1 .5 1.5-14.5 32.5-.5-2.5 2.5-6.5 1.5.5-1-5 3.5-5.5 2.5-.5-1.5-2.5-1 2-.5-1.5 1.5-3.5 4.5-3.5zm32 0-8 9zm-95 1-1 4-1.5-.5-1.5 2.5-1.5-.5zm-148 2 1.5.5 3 6-1.5.5z"/><path fill="#888777" stroke="#888777" d="m443.5 363 5.5 6.5-5-3-6 18v7l.5 1.5 1.5-.5-1 3 .5 1.5-2.5-.5 1-3h-2l1-6h-2l-.5-2.5-1 3-2.5-3.5 2-1q2.4-13.1 10.5-20.5Zm9 0 5 6zm54 0 1.5.5-3.5 4.5-5.5-.5 4-2 .5-1.5zm77 1-.5 1.5.5 1.5 2.5-1.5q-2.5 4-5 2zm-220 1 2 3 1.5-.5 2 5h-1l-.5-1.5-1 2z"/><path fill="#888777" stroke="#888777" d="m449.5 371 5 6-3.5-2.5-2 7 1 2-1 2 3 5-2 1 3 1 1 2h-3l-2.5-3.5-3 14-3.5-6.5 1-2h-2l-1-2 3-4v-2l.5-1.5 1.5-.5-1-4 1.5-2.5 1.5-.5-1-2 2.5-3.5 2.5-.5zm-59 1 3.5 5.5h-2q.8 6.8-4.5 7.5l-1.5-.5q-.5-9 4.5-12.5Zm-21 2 2.5 3.5-1 3 .5 1.5-2.5-3.5 2-1zm205 2 1.5.5-9.5 7.5 2-3zm10 3 .5 1.5-5.5 9.5-.5-1.5zm-188 3 3 5 1.5.5-1 2h2l-1 2 3 1 2 3-3 1-1.5 4.5-4.5-2.5-1-3 1.5-3.5 1.5-.5-.5-1.5-2 1-.5-2.5 1-4zm349 1 3.5 1.5-1.5 3.5-2.5-1.5 1.5.5 1.5-.5-.5-2.5zm-183 1 1.5.5-4.5 5.5-3.5-1.5 3.5-2.5-.5 1.5.5 1.5zm-188 2 3.5 1.5 3 4-5-2zm124 0 8.5 1.5-5.5.5-3-1-8 1v-1z"/><path fill="#888777" stroke="#888777" d="m467.5 387 1.5 2.5-2.5 3.5-1.5.5-.5 1.5-1.5.5-3.5 5.5-2.5 1.5.5 1.5 1.5-.5-3 2-3.5 4.5-1.5.5 1 3-1.5 2.5-4.5-9.5 1.5.5 4.5-3.5.5-1.5.5 1.5.5 2.5 2.5-3.5-.5-1.5 1.5.5-1.5-2.5-2.5-.5-1-2h3l-1 2q2.5 2 5-2l.5-1.5 1.5-.5 2.5-3.5 2 1 2.5-3.5zm130 0 .5 2.5h-2l1 2h-2l1 2-2.5 3.5-.5-2.5 2-1-1-2zm-78 2-.5 1.5 1.5 2.5 1.5.5-1.5.5-1.5-.5-.5 1.5-3.5-1.5 3-1zm49 2 1.5.5-7.5 10.5-4 2q-3.5-2 1-4l3.5-2.5q-2.7-1.7 1.5-3.5l1.5-.5.5-1.5zm10 0 .5 1.5-5.5 10.5-.5-1.5q.5-7.5 5.5-10.5Zm-200 1 8.5 6.5-2.5.5zm93 1 1.5 8.5-1 4h1l.5-1.5.5 2.5-1.5 2.5-2-7-2.5 6.5 1 2-1.5.5-4.5-1.5 2-1zm158 0-7.5 8.5-3.5 7.5-1.5.5-3 8 3.5.5 3-2-1 2-6.5 4.5-1 6 1 3-2.5 1.5-2-1v2l-2-1-1 2-2.5 1.5-6.5 10.5 2.5-3.5-.5-2.5-6 5q3.2-2 0-4l-1.5.5 6.5-15.5-.5 1.5.5 1.5 1.5-.5 2.5-4.5-.5 1.5.5 1.5 1.5-.5 1.5-2.5 1 2 3.5-7.5-3.5 2.5-3 2 .5-1.5 2-7-4 2 10-7 1.5-2.5zm66 1 1.5 2.5-1 3-.5 1.5-1-2-1 2-.5-2.5 2-1v-2zm-171 3 6 1 1.5-.5-.5 1.5-2.5.5-.5 1.5-2-1-3 4 1.5-2.5 2-3z"/><path fill="#888777" stroke="#888777" d="m557.5 397 1.5.5-2.5 3.5-1.5.5-2.5 4.5v-2l-1.5.5 1 3-3 2v-2l-.5-1.5-2 6-1.5-.5-.5 1.5-.5-1.5 4.5-6.5zm29 0 .5 1.5-1.5 5.5-1.5.5 1 2-2.5 1.5.5-1.5zm-146 1 2.5 7.5-1 2 1.5.5 1.5-.5 5.5 10.5 1.5-.5 1 2h-2l1 4-1.5-.5-2.5-.5-.5-1.5-1.5.5-2-8 .5-1.5-2.5-1.5-3-9zm54 0 2.5 1.5-10.5 5.5-2-1 1 2 1.5.5-2.5.5-1-2-3 1v-1zm-106 1 4.5 3.5-.5 1.5 2-1q3 1.5 0 3l-3.5-2.5-.5-1.5q-1.8 2.8-3.5-1.5zm303 3 2 1 1.5-.5-3.5 7.5-2-1-1 2-.5-2.5zm-154 1 1.5 2.5-4 3q3.8-2.2.5-4.5zm-40 1-2 3-1.5.5 3 2-1.5.5q-4.5-2-1-4zm68 0 1.5.5-.5 2.5-1-2-4.5 3.5zm-168 1 1 2 2-1 1 2h2l7.5 2.5-.5 1.5-14.5-5.5zm231 1 2.5 4.5-2 1-5.5 14.5-.5-1.5 1-2h-2l2.5-5.5 1.5.5-1.5-3.5-2 1 .5-1.5 1.5-4.5 3 4 .5-2.5-.5-1.5 1.5.5zm-72 4 .5 2.5-3.5 5.5-3 2-.5-1.5 1.5-2.5 2.5-1.5zm-69 1 1 2 2-1 2.5.5-1 2 3 1-3.5.5-2.5-.5.5-1.5-2.5-1.5zm-24 1 4.5 2.5.5 1.5 5-1 2.5 1.5-9.5.5zm-28 1 2.5.5 3 6-1.5.5-1-2-2 1v-2l-1.5-.5 1-2h-2zm114 0-.5 1.5-6.5 10.5-1-4-1.5.5 2.5-.5 1.5-.5q-.7-5.7 3.5-6.5zm26 0 .5 1.5-4.5 6.5-.5-1.5zm-113 2 .5 1.5-2 1 .5 1.5 4.5 1.5-1.5-.5-3.5 1.5-3 5 .5 1.5-2.5-.5-3-6 3-1 2.5-4.5zm-49 3 1.5.5 1 2-3 2 2 1-1 3 1 3 5 17h-3l-3-5v-2l-3-14zm152 0 1.5.5-6.5 9.5-.5-1.5 1.5-2.5 1.5-.5-1-2 3-2zm33 0-.5 1.5-.5 1.5-1.5.5v2l-2.5 5.5-.5-1.5 2-4-1-1zm-130 1q7.5-2 9.5 1.5l-.5 1.5-1-2-8 1zm11 1 1 2 1-2 9.5 3.5-.5 2.5-1-3-1 2-2.5-.5 1-2-1.5-.5-2 4-1-3q-1.7 2.8-3.5-1.5zm80 1-.5 1.5-1.5 3.5-1.5.5-2.5 5.5-.5-2.5 2-1zm-94 1 3 4q-2.2-3.2-4.5 2.5l-1.5 2.5-1.5.5-.5 2.5-2.5-1.5h2l-1-3 2-1 .5-1.5 1.5.5zm13 1-1.5 2.5.5 1.5 2-1 1.5 3.5-2 1 .5 1.5 2-1 1.5 3.5h-1l-1.5-2.5-1.5 4.5 2 1-3 1 1 3h-1l-6-13 4-2zm70 2-1.5 2.5 1 4-2 1 .5 1.5-1.5-.5 1 2-2.5 3.5-1.5-2.5 4-6v-2zm22 0-1 4-1.5.5v2l-3.5 6.5-.5-2.5 1.5-3.5 1.5.5-1-2zm5 0-.5 1.5-.5 2.5-1-2-.5 3.5h2l-5.5 4.5-.5-1.5 4.5-7.5zm-122 2 2.5 4.5-2 1 3 1-1 2 1.5 2.5 1.5.5-1.5.5-6.5-4.5 1.5-.5 3 1v-1l-6.5-3.5 4-2zm38 3 3.5 4.5-3 1-1 3 .5 1.5-3 2-.5-2.5 1-2-1.5.5-1.5-.5 3-2zm18 3 1.5.5-6 7 7-5-8.5 9.5-1.5-.5-1-2 1-3h-1l-.5 1.5-.5-1.5 6.5-4.5 1.5.5zm-37 1 2.5 4.5-1.5 3.5-2.5-1.5 2-4zm145 0 2.5.5-1.5 3.5-1.5-.5 1 3-3.5 6.5-1.5-.5 2 3h-2l-1.5 2.5-1.5.5-1.5 2.5.5-1.5 4.5-9.5 1.5.5-1-2zm-134 2 2.5 7.5-1.5 1.5-5.5-1.5h2zm-22 2 1 2 3-2-1 2-1.5.5.5 1.5zm76 0 .5 1.5-2.5 3.5h-2l-1.5.5-.5 1.5-.5-1.5 3.5-2.5 1.5.5zm14 0 .5 2.5-1.5 2.5-2-1-2 3-1.5-.5 3.5-4.5 1 2zm16 1-.5 1.5-1 3 3-1-5.5 4.5.5-1.5zm-99 2 7.5 3.5-2 1-.5-1.5-2 1-3.5-1.5z"/><path fill="#888777" stroke="#888777" d="m426.5 442 3.5 2.5 5 9-1 2h2l-1 2h2l-1.5 2.5-2-1-2.5 1.5.5 1.5 3-1-1 2-1.5.5 1.5 2.5 1.5.5 2.5 4.5 1.5.5-2 1 2.5.5 3.5 2.5-3 1 2 1-1 2h2l1 3v2l-.5 1.5-1-2-1.5-.5-.5-1.5-2.5-1.5-.5-1.5-1 4-.5-3.5 1-3-1-6-5.5-8.5-4.5-1.5 2 7h-2l.5 2.5 2-1 2.5 5.5-2 3 3-1 5 11h-1l-.5-1.5-1.5 3.5 2 1-1 2 1.5 3.5 2.5-.5-1-3h1l2 6h-1l-.5-1.5-1.5 3.5 1 2h-1l-18-44v-4l-8-10 7 5 .5-1.5 6.5 4.5h-2l.5 1.5 2 1 3.5.5-2-7 2-1-3-1zm-4.5 10-1 2 6 5 1-1-1-1-4-4zm76.5-9 2.5 4.5-1.5.5-1-2-5 6-2.5-1.5 1.5.5 2.5-1.5zm45 1 1 2 1.5.5-2 1-.5-1.5-1.5.5 1 2h-1l-.5-1.5-1.5.5zm-73 3 3.5 1.5-.5 1.5-1.5-.5-3 7 1 2h-1l-2-6 2-1zm46 1-.5 1.5.5 1.5 1.5-.5-1.5 2.5-1.5.5-3 5 1.5 2.5-6.5-2.5 4-1 2-3v-2l-.5-1.5-1.5.5zm43 0 1.5.5-2 1v2l-1.5 2.5-1.5-.5 1.5-2.5 1.5-.5zm-96 1 3.5 1.5-2 1 2 7h-1l-.5-1.5-2 1-.5-3.5 1-4zm73 0 .5 1.5-4.5 7.5-.5-1.5zm59 1 3.5.5-6 3-1.5 3.5-1.5.5.5 1.5-2.5-1.5 4-3z"/><path fill="#888777" stroke="#888777" d="m478.5 451 3.5 1.5 1 2-3 1-5.5 14.5-1.5-.5-3-9 2-6-.5-1.5q5.8 1.2 7-2Zm119 1 1.5.5-4.5 7.5-.5-1.5zm-112 3 2 4 2.5-1.5q-2 4.5-4 1zm61 0 .5 1.5-3 2 .5 1.5-3 1zm12 0 3 1 1.5-.5-3.5 4.5-5 2-.5-2.5 2-1 .5-2.5zm30 5 3.5 2.5-.5 1.5-1-2-1.5.5 1 8-1.5.5zm-68 1-.5 1.5-.5 1.5-2.5.5-1 4h2l-2.5 4.5h-2l-1.5-.5-1-5 3.5-2.5 1.5.5 1.5-2.5zm84 0 2.5 1.5h-2l1 2-2.5 5.5-1.5-.5 1 2-2 1v2l-1.5 4.5-2.5-.5 1.5-2.5 1.5.5-1-2zm-357 2 5.5 2.5-2.5.5-1-2q-2.3 5.2-4.5 1.5h2z"/><path fill="#888777" stroke="#888777" d="m468.5 463 1 2 1.5.5 2.5 6.5 3.5.5.5-1.5 1.5-.5 5.5-7.5 2.5 3.5h-2l-2.5 4.5-1.5.5-.5 1.5-1.5.5-2.5 3.5-1-4-2.5.5 2 6-2.5 3.5-2.5-6.5 1-3-3-1 .5-1.5-1.5-.5 2-5zm89 0 .5 1.5-3 2 2 1-1.5.5-2-1v2q-1.8-2.8-3.5 1.5l-3 6 .5 1.5-1.5-.5 3-6-.5-1.5 1.5-.5-.5-1.5zm-64 2 1.5.5 2 5h-1l-.5-1.5-3 4-.5-1.5 1-2h-2l.5-2.5 1.5-.5zm-6 5 1.5.5-4 3 4 1-1 2 .5 1.5-2-3-.5 2.5.5 1.5-10 4 .5-1.5zm18 2 .5 2.5-3 5 1.5.5 5-6 1.5 4.5-1.5.5-2-1-3 6-3.5-7.5zm-44 1 .5 2.5 1 6h-1zm66 0 1.5.5-1 3 .5 1.5-2 1 .5-1.5 1-3-4 2zm63 2 1.5 5.5h-1l-.5-4.5-1 17-.5-16.5zm-177 2 2.5 1.5 5 7h-1l-4.5-5.5-1.5.5zm85 0 1.5.5 3 8-4.5 2.5-2.5-8.5zm20 0 1 2-2.5.5 1 3-2 1q-1-5.5 2.5-6.5Zm-269 1 1 4-1.5.5 2 1-1.5.5-1.5-2.5zm348 2 1.5.5-4 7h2l-2.5 1.5-.5-4.5 3-2zm-109 1-2.5 3.5-7.5 10.5-1.5-.5-1-5 2.5-1.5 2 3 .5-1.5-1-3h1l.5 1.5 2.5-1.5-2-1z"/><path fill="#888777" stroke="#888777" d="m492.5 481 3.5 9.5-9.5 8.5-2-1 .5 1.5-.5 1.5-2.5.5.5 1.5-1.5.5-1.5 2.5.5-1.5-.5-5.5-1.5.5-.5 1.5-1.5-3.5 2.5-1.5 2 1 1-2 2.5-1.5q2.2-8.3 8.5-12.5Zm80 0 .5 1.5-5.5 7.5-1.5-.5zm-60 1 1.5.5 1 3h-2l-.5 2.5-5 2-.5-3.5 2.5-1.5 1.5.5zm-260 1 4.5 5.5-1.5-.5-1.5-.5zm359 0-5 6zm-81 1 1.5.5-4.5 5.5-1.5-.5 2.5-3.5 1.5-.5zm76 0 .5 1.5-4.5 3.5-2.5-.5 3-1 .5-1.5zm-35 4q2 2.5-2 5l-2.5.5.5 1.5-3.5 1.5 2 1-3.5.5zm-68 1 1.5 3.5-4.5 3.5-.5-3.5zm18 0 1.5.5-.5 1.5q-1.7-2.8-3.5 1.5l.5 2.5 1.5-.5-2.5 1.5-.5-3.5zm15 0 .5 2.5-3.5 8.5-1.5-.5-.5 1.5-.5-2.5 2.5-3.5 1.5-.5 1-3zm117 2 1.5.5-1.5 2.5-3.5 1.5-2.5 4.5-.5-2.5 2.5-4.5zm-156 3 1.5.5-.5 3.5-1-3-1 2-2 1zm29 1 .5 1.5-3.5 6.5-1.5-.5 2.5-5.5 1.5-.5zm-34 3v2l3-1v1l-4 2-1.5-.5-.5 1.5-5 3 2-3zm15 0-.5 1.5.5 3.5 1-3 .5 2.5-4.5 3.5-.5-5.5zm54 1 2.5.5-6 5zm5 2 .5 1.5-1 2h2l-3.5 2.5-.5-1.5zm-50 1 1.5 3.5-3 2 2-4-3 1zm-16 1 1.5 4.5-3 1 1 2-2 1 .5 1.5 2-1 .5 1.5-4 2-.5 1.5-2.5-.5-2-5zm-8 1 1.5.5-9 8 1 2-1.5-.5-2 1-.5-2.5 1.5-2.5 1 2 2-4 1 1zm101 2 1.5 3.5-1 5q2.8 1.8-1.5 3.5l-2-1-.5 1.5.5 1.5-1.5-.5.5-3.5 1.5-.5-.5-3.5-1.5.5 2.5-5.5zm-33 1 .5 1.5-4 5-1 3-5.5 11.5-2.5.5 1 2-3.5 2.5v-1l1.5-.5v-2l3.5-7.5 2 1-.5-3.5zm-119 1 1.5.5-1.5 12.5zm49 6 2.5 4.5-4 3 .5 3.5 1.5.5.5 1.5 1.5-.5-1-2 2.5-1.5 2 4 1-2 .5 1.5-3.5 6.5 1.5-2.5-.5-3.5-1.5.5 1 2-2 1 1-2-1.5-.5-1 7-1.5-.5-1-2 1-3-3-14zm85 0 1.5 3.5-5.5 8.5-2 1-.5-5.5 2.5-4.5zm24 1-5.5 6.5 1 3-2 1 2 5h-2l1 15v2l-.5 5.5-1.5-.5 2 6-2 3 2 4-3 2 .5 1.5 1.5.5-1 3 1 5q-3.1 6.4-2 17l-2 2 1 4-3 16 1 4-1 3 .5 1.5-3.5-1.5 2-1-1-4v-2l2-6-1-8 1-2-1-2 2-6-1-2 3-18-1-3 1-3 1-2-1-3 1-22v-2l-.5-13.5-1 2-1.5-.5zm-73 4 1.5.5-1.5 3.5-1.5-.5 1 2-5 8q3 2-2 4l-1.5 2.5-.5-1.5 1-2-.5-1.5 2.5-.5-2-4 4-2zm-83 3-1.5 2.5 1 7-1.5 2.5-1.5-.5 1-9zm133 2 .5 4.5-.5 2.5-8 6q3-2.5 0-5l2.5-.5zm-73 6 .5 2.5.5 1.5 1.5.5-1.5 2.5-2-5-1 2-.5-1.5zm-42 2v2l1.5.5 2 6h-1l-4-7zm115 2 1.5.5-.5 3.5-1-3-.5 7.5h2l-1 2 2 1-.5 3.5-1.5.5v17l-4 8-.5 6.5-1-2-1.5.5 1.5-18.5 2 3 .5-3.5-2.5-13.5-1.5 3.5 1 2-1 4 2 1-.5 2.5-1.5-.5-1 4v2q1.7 6.7-1.5 8.5v-2l-1.5.5-2 5v2l-.5 4.5-.5-6.5v-2l.5-8.5 1 2 1-2 1 2 1.5-2.5-3.5-1.5-1.5.5.5-1.5 1.5-.5.5-3.5 2.5-.5-2-1 1.5-13.5 1.5.5-1.5-3.5-4.5 4.5 1 1-.5 9.5-1.5-10.5 6.5-5.5 1 2zm-85 2 5 2 1.5-.5-1 8 1.5-.5 1.5-.5 1.5-4.5.5 2.5-5.5 9.5zm89 0 1.5.5-1 6 1 5-1 2 .5 1.5-1.5-.5zm-58 2-.5 1.5-3.5 10.5-.5-4.5zm-62 1 2.5 4.5-2 1 .5-1.5-3.5-2.5 3 1zm12 2 1.5 2.5-.5 1.5 1.5.5 1 4-2-1-3-6zm76 4 1 2 1.5-.5-6.5 11.5-.5-1.5 1-2h-2l4-2 2-5h-2zm-37 2-.5 1.5-2 5 2 1-.5 1.5q-4.3-1.8-1.5-3.5zm127 1 .5 2.5-3 1 .5 1.5 1.5-.5-.5 2.5-2.5-1.5-.5 3.5-1.5-.5 2-4q-2.7-1.7 1.5-3.5zm-159 6 1.5 3.5-.5 1.5 2.5 1.5 2 5-3-2-1.5-3.5-1.5-.5 1-2-2-1zm58 1 .5 1.5-2.5 5.5-1.5-.5-.5 1.5-.5-1.5zm-32 4 1 2 1.5-.5-3 1 1 2-3-2 2-1zm49 2 .5 2.5-1 3 1 2-1.5 2.5 1.5.5-3.5 8.5-2.5.5 2 1-2 1 1 2-11 28-3.5 21.5-2.5-.5 2-9-.5-2.5-2.5.5-.5 11.5-.5-11.5 4-2-1-5 1.5-2.5 1.5.5-1-4 2-5-2-5h1l.5 1.5 1.5-2.5-2-1 .5-3.5 1 2 1.5-.5.5 2.5 7-16 1.5-.5-1-2 2-5-3 2-1.5 2.5h-2l-1.5-.5 2-1-1-3h1l.5 1.5 4.5-2.5 2-5h-2l3.5-4.5 1.5.5-1-2z"/><path fill="#888777" stroke="#888777" d="m587.5 561 .5 12.5h-1zm-44 3 .5 1.5-2 1 1 2h-1l-.5-1.5-5 6 .5-1.5zm-75 1 1.5 6.5-1.5 3.5-1-3-2.5-1.5.5-2.5 1.5.5 1.5 3.5.5-3.5zm-6 2 5 15 1.5-.5-2.5 1.5q-4.6-6.1-4-16Zm18 3 2.5 4.5.5 2.5 1.5.5-.5 4.5-1.5-2.5.5-1.5-2.5-1.5-2-3zm-26 1 1.5 3.5-2.5 6.5-.5-3.5zm80 4 1.5.5q1.8 7.3-2 9 4.2 2.3-.5 4.5l-.5-4.5 1-7zm-78 1 1 2 2.5.5 3.5 9.5 1-3 .5 6.5-2 1 .5 2.5 1-2 1.5 5.5h-1l-.5-1.5-1.5.5-.5 3.5-.5-3.5v-2zm14 4 1 2 1-2q-.4 6 3.5 7.5l-1.5-.5-2 1-1-3-2 3-1.5-3.5 1.5-.5 1.5.5z"/><path fill="#888777" stroke="#888777" d="m539.5 582 .5 2.5-2 6 .5 1.5-2 1 .5-1.5zm-85 2 2.5 1.5-1 4 2 1-1.5 6.5-.5-2.5 1-3-2-1 1-5h-1l-.5 1.5zm27 2 .5 4.5-.5 4.5-1.5-5.5zm-5 3 1 12 1.5-.5-.5 5.5-4.5-12.5h1l.5 1.5zm21 4 2 5 1.5-.5-2.5 4.5-2.5-6.5zm65 1 1 9 1-9 .5 14.5-1.5.5.5-1.5-.5-3.5-1 2zm-104 3 .5 3.5.5 2.5 2-1 .5 2.5-1.5 6.5-1-4-1 3-.5-5.5-1-3zm76 0 .5 1.5-1 7 1 2-1.5.5-1-5-1 6-.5-9.5 3-1zm247 0 3 2 1.5-.5-1.5 2.5-1.5.5 2 1-4.5 1.5 2.5-3.5-2-2zm-354 1 .5 2.5-1 3 .5 1.5 3-7 1.5.5-.5 4.5-1.5.5.5 3.5-1.5.5-1.5 6.5-1.5.5 1 2-1.5 6.5-1-4-1.5.5-.5 9.5-.5-13.5h1l.5 2.5 1.5-3.5-2-5 2.5-1.5 1.5.5-1-5-1-3 .5-1.5 1 2zm39 2 1 5 1.5.5 1 3-.5 1.5 1.5.5 1 3-2 5h2l-2.5 5.5-2.5-15.5 1-2q-3.4-1.4-1.5-6.5Zm58 2 .5 5.5-1.5 6.5-.5-5.5zm-22 7 2.5.5-.5 1.5-1.5.5 3 1 5 13h-2l-.5 1.5-3.5-8.5 2-1-1.5-3.5-1.5.5 1 2h-1zm59 0 4.5 1.5.5 1.5 1-2 .5 13.5h-1l-.5-10.5-1 9-1-11-1 5-1-2-1 2zm219 1 .5 2.5v2l-.5 1.5-3.5-.5 3-1-2-1zm-319 6 .5 4.5-1.5 5.5-.5-5.5zm12 4 1.5 2.5-2.5 7.5-1.5-.5 2-5v-2zm8 1 .5 5.5-1 2 1 2-6 31v2l-2 10v2l-2 9 7 22-1 2 3 10-1 2 1 3-1.5.5-1.5-9.5-3-5 1-2h-2l-1-5 1-2h-2l1-5-1.5-2.5-1.5-.5-3-11 2.5-.5 1.5-.5-.5-2.5-2 1-.5-4.5-.5-3.5 1.5.5.5-1.5 2 7 7.5-43.5h-1l-.5 1.5-.5-1.5zm41 0 .5 23.5h-1zm3 2 .5 16.5h-1zm59 3 2.5 1.5v2l-6.5 32.5-.5-3.5 5-30zm-130 1 1.5 7.5-2.5.5-.5-2.5h1l.5 1.5.5-2.5zm57 0 3.5 12.5-2-1-2-6 1-2h-2zm21 8 2.5.5-1.5 9.5-1.5-2.5 1-2zm-12 3 .5 11.5h-1zm36 4 1 8 1.5.5-1.5.5q-3.6-2.1-1-9Zm-31 1 .5 13.5h-1zm10 2-1.5 2.5.5 1.5 3-2 1.5 4.5-1.5 3.5-.5-2.5 1-4-1.5-.5-3 4-.5-1.5-.5-3.5zm37 3 .5 1.5v2l-.5 3.5-1-4-.5 4.5 1 3-2 1 2 1-1.5 8.5-1.5.5-1.5 4.5-.5-3.5v-2l1-2-1-3h2l-1-5 3-1-2-1q-.4-6.4 3.5-8.5Zm-36 8 1 4 1-4 .5 3.5-1.5 4.5-1-3-.5 3.5 1 4-1 3h1l1.5-3.5 6-2 5.5 12.5-1.5.5-5-10-4.5 2.5q-4.4 6.1-3 18l.5 1.5-1.5-.5.5 1.5 2.5 1.5-2.5.5-2.5-4.5 3-12-1.5.5-2.5-.5zm-126 9 3.5 1.5-.5 1.5-1-2-2.5.5 2 1-1.5.5q-3-1.5 0-3Zm55 2 1.5.5-1.5 9.5zm-50 1 4 3 1.5-.5q-1.7 4.2-3.5 1.5l-1.5-.5-.5-2.5-1.5.5zm152 7 1.5.5-1 5 1 4q-1.5 3-3 0l.5-1.5 1.5-.5-2-1 1-3v-2zm-135 3 2.5 3.5h-2l3 10-2.5 1.5v-1l1.5-.5-1.5-2.5-1 2-1-2 1.5-.5-3-5h1l2.5 3.5.5-1.5-3-5h2z"/><path fill="#888777" stroke="#888777" d="m530.5 679 2.5.5 1 3-1 3-.5 2.5-1.5-.5-1-4 2-1-.5-2.5zm-72 6 .5 11.5-1 3v15l-1.5 2.5-.5-3.5v-6l1-2-1-7 1-8-2-1 3-2zm105 10 3.5 7.5h-1l-.5-1.5-.5 9.5 7 28 1 3 2.5 15.5 1.5-.5-2.5 9.5-4.5-22.5v-2l-8-37zm-138 6 1 3 3-1v2l1.5-.5.5-1.5.5 1.5 1 3-.5 1.5-2-3-2 1-1-2-1.5.5zm43 3 1.5 2.5-2 3 2 1q-1.1 22.1 2.5 39.5l1-3 .5 2.5-2.5 11.5-4.5-30.5v-2l1-8-1-4 1-2-1-9zm-36 6 1 2-1.5-.5-.5 3.5-1-2-1 3-.5-2.5 1.5-2.5zm107 9 6 5h2l1.5.5 4 9-1.5.5-1-3-1.5-.5-.5-1.5-1.5 2.5 2 1-.5 1.5-1.5.5 3 3 3 17h-1l-.5-3.5-2 5-1.5-.5 2-1-1-2-.5-2.5-1 2-.5-2.5 4-1-2-1-.5-1.5-2.5-1.5-1.5-5.5-1.5-.5 1-2v-2l-.5-1.5-1.5.5q1.5-3 3 0l.5 2.5.5-4.5q-.5-7.5-5.5-10.5l-1.5.5zm-60 6 2.5.5-.5 4.5-1.5.5-1.5 6.5-.5-5.5 2-3zm2 12 1 2 1-2 .5 1.5v2l1 2h-2l.5 1.5 2.5 1.5 1 9h-1l-.5-4.5-1 7-1.5-6.5v-2zm73 3 1.5.5 2 9h-1zm-90 1 .5 1.5-1 3h2l-1.5 3.5-1.5-5.5z"/><path fill="#888777" stroke="#888777" d="m552.5 741 3.5 9.5-1.5 2.5-.5-1.5 1-3h-2zm-17 5 5.5 11.5-1 3 9.5 28.5 1-2 .5 1.5-1 4h1l.5-1.5.5 9.5h-1l-5-14v-2l-7-20zm-68 7 1.5 7.5-1.5 2.5-.5-2.5 1-3-2-1zm88 1 1.5.5v2l1.5 2.5 1-3 .5 2.5-3.5 1.5zm-159 1 1 3 1.5-.5.5 2.5 1.5-.5-1.5 2.5-1-2-2 3-1.5-.5.5-1.5 1.5-.5zm90 1 4.5 18.5-1.5 3.5-2 1 .5-1.5-2-13h1l.5 5.5.5-6.5-3-1 .5-4.5 1.5.5zm68 4 2.5 14.5h-1zm-107 2 .5 3.5-2 4 1.5.5 1-2 .5 1.5v2l-.5 2.5-2.5-1.5-1-3zm22 0 .5 4.5v2l.5 2.5 1-3 .5 2.5-1 3 1 4h-1l-.5-1.5-1 4-.5-6.5 1-2-2-6zm7 2 2.5 12.5-.5 1.5 1.5.5 1 6 1 3 1 5 1 3 6 19v2l1 4-1 2h2l1 7-3-2-2-3 1-3-3.5-10.5-1 6-.5-6.5 1-3h-2l-2-5h2l-1.5-5.5-1 4-1.5-6.5h1l.5 1.5.5-2.5-1-5 .5-1.5-1.5-.5-1.5-3.5-1.5.5.5-1.5 1.5-.5-3-1 2-1 1-3-3-1zm-112 10 4.5 3.5-1.5-.5-1.5.5 1.5 3.5 2-1 .5 3.5-2.5 1.5-2-3-1 8-.5-13.5zm195 0 1.5 14.5h-1zm15 2 .5 6.5-1.5 5.5-1.5-.5-1 2 1 4-1.5.5-1.5-5.5 1.5-6.5 3 1zm-103 3 .5 2.5v2l-1.5 15.5-.5-17.5zm19 0 .5 9.5-2-1-1-7h1l.5 1.5zm-40 5 2.5.5v2l1 4-1 4h1l.5-2.5.5 2.5-1 3h2l-1 5h2l-1 5h2l-2.5 7.5-.5-2.5-3-12h2l-.5-2.5-1.5.5zm18 3 .5 12.5h-1zm-100 2 1.5.5v2l1 3-1 2v2l-.5 1.5-1.5-.5-.5 1.5-.5-4.5 2-1 1-2-2-1v-2zm202 6 2.5 1.5-1 2 1.5 9.5 1-3 .5 2.5-1 2 1 2-1 2v2l4 10-.5 1.5 1.5.5-2 1 .5 1.5-2.5-1.5v-6l-4-13h1l.5 2.5.5-3.5q-4.1-1.9-3-9l1-2h-2zm9 2 1.5.5-1 3 2 8-2-1-.5-2.5-1 2-.5-3.5zm-104 4 1.5 3.5-.5 1.5 1.5.5-1 5 .5 1.5-2-4-1 3-1-3-1 3-1.5-.5-.5 2.5-.5-3.5 2-1-1-6h1l.5 4.5zm52 6 4.5 2.5-1.5 2.5-2.5-1.5-.5-1.5-1 2-.5-1.5zm34 1 .5 26.5h-1v-13l-3-9 1.5-2.5 1 9zm34 9 2.5.5.5 2.5 1.5.5-1 3h3l-2-5 1.5-.5 2.5 4.5-3.5 4.5-3.5-2.5-.5-2.5-1.5-.5 1.5-2.5-1.5-.5zm-119 4 4 11 1-3 .5 2.5-3.5 2.5-.5-2.5 1-2h-2l-2-4zm-23 4 1.5.5-2 11v2l-2.5 7.5-1.5.5 1 2-1.5 3.5-1.5-.5v-2l-1-3h1l.5 1.5.5-2.5-1-3 2.5-6.5 2.5-.5-2-1 .5-3.5 2 1 .5-1.5-2-1zm116 2 3.5 1.5-.5 1.5-1-2-3.5 1.5.5 3.5 2.5.5-2.5.5-1.5-4.5zm5 3 4.5 18.5h-1l-1.5-7.5-1.5.5.5 7.5 1.5.5.5 2.5 1.5-.5-2.5 1.5-2-3-2-1-1.5.5 2-9-1-4 3-2zm27 9 1.5.5-1 3h2l-1 2 2 1-.5 4.5-1-4-3-1-2-1-1.5 3.5q4.5 2.5-1 5l.5 1.5 1.5.5-1.5 9.5q1.2-10.2-3.5-14.5l1.5.5 3.5-.5-2-4 4-2-1-2zm-119 3 2.5.5 2 3-1 6 1 2q-1 5.5-8.5 4.5l-.5-1.5.5-2.5 1.5.5 1-4-3 1 4-3v-2zm69 3 2.5 1.5-4 9 3 1-2.5.5-2.5.5-.5 2.5h-2l-1.5-.5.5-2.5 2 1 1-2-2.5-.5.5-1.5 3.5.5-1.5-2.5-1.5.5zm-106 4 1 4 1.5.5-2 1 1 2-6 13v2l-.5 1.5-1.5.5-1.5 3.5-1.5.5q3.3 2.3-2.5 4.5l-2-1-4.5 2.5.5 1.5 1.5-.5-2.5.5-1.5.5-.5 1.5-.5-1.5 1.5-2.5 1.5-.5.5-1.5 1.5.5-.5-3.5-3.5 2.5 4.5-4.5 1.5 1.5.5 2.5 1.5-2.5-1.5-2.5 3 1 5.5-4.5v-2l1.5-6.5 1.5.5-1-3zm6 8 .5 5.5-.5 1.5 1.5.5-2.5 1.5-.5-2.5 1-3zm109 2 1 3 1.5-.5.5-1.5.5 1.5-2.5 4.5-2.5-1.5 1.5.5 1.5-.5q-3.2-1.2-1.5-5.5Zm-80 5 1.5.5-2 1 1 2h-2l-1 2 1.5 2.5 5-7 .5 3.5-6.5 19.5-1-2-2 3 .5-1.5 3.5-7.5 1 2 .5-2.5v-2l2-7-4.5 3.5-1.5.5-3 10 1 2-3 1-2.5 11.5-.5-7.5 1.5-5.5 1.5.5-1-5 1.5-2.5 1.5-.5-1-2h2l-1-3 4.5-8.5zm68 1-.5 1.5-4.5 8.5-1-2 1.5-.5 1.5-6.5zm-74 1-.5 1.5-3.5 7.5-.5-1.5zm84 0-3.5 4.5-.5 1.5-1.5-.5 1.5-3.5q2 3 4-2Zm-112 4 2 5 1.5-.5-1-2 1.5-.5.5 3.5-3.5 1.5zm16 2 2.5.5.5 1.5 1.5.5-.5 2.5-2-3-2.5 3.5.5 1.5-.5-2.5-.5-1.5-3.5 4.5 1.5.5 2.5.5q-4.5-.1-9 7l-2.5 6.5-2-1-2 3-1.5.5 1 2q-1.7 3.3-3.5-.5l-4 3 3.5-4.5 5-10-1-4 1.5-4.5 2.5.5-1 4 1.5 3.5 3.5-2.5.5-1.5 2.5-1.5 4.5-6.5 1.5-.5zm98 5 3.5.5-1.5 2.5-2 1v-2l-3 1v-1zm-9 4 1.5.5.5 1.5 3-1v1l-1.5.5-1 3-7.5 16.5-2-1-1.5.5 3.5-9.5 1.5-.5v-2l2-3-1-2z"/><path fill="#888777" stroke="#888777" d="m556.5 889 1.5.5-4 13 1.5.5 6-14 1.5.5-5.5 14.5-1.5-.5 1 2-3.5 1.5-1.5.5.5 1.5 3-2-2 3-2.5-1.5 2-8v-2q-.8-7.3 3.5-9.5Zm-124 1 2.5 1.5-1.5 5.5-.5-1.5 1-4-1.5-.5-1.5.5zm130 16 1.5 4.5-2.5 3.5-1.5-2.5zm-105 7 3.5 1.5-5.5 6.5q4.2-3.2 1.5-6.5zm75 9 2.5 1.5.5-1.5 2.5.5-4.5 2.5zm-11 4 1.5.5-2 8 3 1-2.5.5-1.5-.5 1 2-2-1-1-2h2l-1-3zm18 5 1.5 3.5-3.5 1.5-2.5-.5 4-2zm-46 24 2.5 1.5-4 3 2 1-3.5 2.5-1.5-2.5 6-4-1.5-.5-1.5.5zm3 18 2.5.5-.5 1.5-2.5.5 1 2h-1l-.5-1.5-2.5 1.5 2 1-2.5 1.5 1-4 2.5-1.5z"/></svg>