<svg viewBox="0 0 1024 1024" version="1.1" xmlns="http://www.w3.org/2000/svg" desc="Created with imagetracer.js version 1.2.6" ><path fill="currentColor" stroke="rgb(0,0,0)" stroke-width="1" opacity="1" d="M 505.5 128 Q 565.6 128.9 591 164.5 Q 605.5 182 612 207.5 L 614 220.5 L 614 266.5 L 615.5 268 Q 671.8 287.7 707 328.5 Q 742.2 366.8 759 423.5 Q 766.4 448.1 768 478.5 L 768 635.5 L 770 649.5 Q 779.7 693.3 808.5 718 L 841 743.5 L 845 754.5 L 845 797.5 Q 843 809.5 834.5 815 L 825.5 819 L 611.5 819 L 610 820.5 Q 602 853 579.5 871 Q 564.9 883.9 544.5 891 Q 528.2 896.7 505.5 896 Q 459.3 890.7 436 862.5 Q 420 845 412.5 819 L 198.5 819 Q 188.3 816.3 183 808.5 L 179 796.5 L 179 754.5 Q 181.3 741.8 190.5 736 Q 209.4 725.9 223 710.5 L 225 707.5 Q 248.2 684.2 255 644.5 L 256 478.5 Q 257.8 448.3 265 423.5 Q 286 353.5 334.5 311 Q 366.2 282.7 410 266.5 L 410 220.5 L 413 203.5 Q 423 169.5 447.5 150 Q 469 131.5 505.5 128 Z M 506 179 Q 492 181 483 188 Q 466 199 461 223 L 461 308 Q 403 317 369 351 Q 330 384 314 440 L 307 482 L 307 638 L 305 657 Q 296 707 268 738 L 236 768 L 306 768 Q 339 727 354 668 Q 359 644 359 616 L 360 476 Q 368 435 390 410 Q 411 384 443 370 Q 465 360 497 358 L 541 359 L 569 365 Q 600 376 622 396 Q 654 425 664 476 L 666 638 Q 668 662 674 683 Q 689 733 720 768 L 788 768 L 777 758 Q 740 729 724 679 L 717 637 L 717 481 L 714 457 Q 703 402 672 368 Q 634 321 563 308 L 563 223 Q 560 206 550 196 Q 541 186 528 181 Q 519 178 506 179 Z " /><path fill="rgb(255,248,255)" stroke="rgb(255,248,255)" stroke-width="1" opacity="0.023529411764705882" d="M 0 0 L 1024 0 L 1024 1024 L 0 1024 L 0 0 Z M 506 128 Q 469 132 448 150 Q 423 169 413 204 L 410 221 L 410 267 Q 366 283 335 311 Q 286 354 265 424 Q 258 448 256 479 L 255 645 Q 248 684 225 708 L 223 711 Q 209 726 191 736 Q 181 742 179 755 L 179 797 L 183 809 Q 188 816 199 819 L 413 819 Q 420 845 436 863 Q 459 891 506 896 Q 528 897 545 891 Q 565 884 580 871 Q 602 853 610 821 L 612 819 L 826 819 L 835 815 Q 843 810 845 798 L 845 755 L 841 744 L 809 718 Q 780 693 770 650 L 768 636 L 768 479 Q 766 448 759 424 Q 742 367 707 329 Q 672 288 616 268 L 614 267 L 614 221 L 612 208 Q 606 182 591 165 Q 566 129 506 128 Z " /><path fill="rgb(255,248,255)" stroke="rgb(255,248,255)" stroke-width="1" opacity="0.023529411764705882" d="M 505.5 179 Q 518.7 177.8 527.5 181 Q 541.3 185.7 550 195.5 Q 559.6 205.9 563 222.5 L 563 308 Q 634 320.7 672 367.5 Q 702.8 402.2 714 456.5 L 717 480.5 L 717 636.5 L 724 678.5 Q 740 728.5 776.5 758 L 788 767.5 L 719.5 768 Q 689.2 732.8 674 682.5 Q 667.8 662.2 666 637.5 L 664 475.5 Q 653.8 424.7 621.5 396 Q 599.8 375.7 568.5 365 L 540.5 359 L 496.5 358 Q 465.1 359.6 442.5 370 Q 410.8 384.3 390 409.5 Q 367.6 435.1 360 475.5 L 359 615.5 Q 358.8 643.8 354 667.5 Q 339.2 727.4 306 768 L 236 767.5 L 268 737.5 Q 296.1 706.6 305 656.5 L 307 637.5 L 307 481.5 L 314 439.5 Q 330.3 384.3 368.5 351 Q 403.2 317.4 461 308 L 461 222.5 Q 465.8 199.3 482.5 188 Q 491.6 181.1 505.5 179 Z " /></svg>